<svg xmlns="http://www.w3.org/2000/svg" viewBox="0 0 100 100"><path d="M50.778 59.023c-3.706 0-6.626 3.032-6.626 6.626 0 3.706 3.032 6.626 6.626 6.626 3.594 0 6.626-3.032 6.626-6.626-.001-3.706-3.033-6.626-6.626-6.626zm0 9.848c-1.822 0-3.223-1.401-3.223-3.223 0-1.822 1.401-3.223 3.223-3.223 1.822 0 3.223 1.401 3.223 3.223 0 1.822-1.542 3.223-3.223 3.223z" fill="#1b4695"/><g fill="#1b4695" stroke="#1b4695" stroke-miterlimit="10"><path d="M64.423 88.093H37.136V76.919h27.287v11.174zm-24.736-2.551h22.185v-6.073H39.687v6.073zM66.7 47.431l-1.153-2.349c6.392-3.135 10.523-9.756 10.523-16.866a1.782 1.782 0 0 0-1.779-1.781h-4.122v-2.617h4.122c1.172 0 2.275.456 3.106 1.286a4.38 4.38 0 0 1 1.29 3.111c0 8.101-4.705 15.643-11.987 19.216zm-31.844-.001c-7.282-3.573-11.987-11.115-11.987-19.215 0-1.171.457-2.275 1.288-3.108a4.367 4.367 0 0 1 3.108-1.289h4.122v2.617h-4.122c-.474 0-.921.185-1.257.522a1.776 1.776 0 0 0-.522 1.259c0 7.109 4.131 13.73 10.523 16.866l-1.153 2.348zM74.613 99.5h-47.67v-8.248h47.67V99.5zm-45.054-2.616h42.437v-3.015H29.559v3.015z"/><path d="M70.406 93.868H31.153V71.144h39.253v22.724zM33.77 91.252h34.02V73.761H33.77v17.491z"/><path d="M62.309 73.761H39.248v-2.473a4 4 0 0 1 1.179-2.847 4 4 0 0 1 2.847-1.179 3.873 3.873 0 0 0 3.869-3.867c0-1.368-.725-2.64-1.895-3.332a11.097 11.097 0 0 1-.532-.271c-8.751-4.593-14.639-18.526-14.639-34.665v-6.738h41.402v6.738c0 16.139-5.888 30.072-14.651 34.671-.166.089-.341.18-.52.265a3.878 3.878 0 0 0-1.896 3.332 3.873 3.873 0 0 0 3.869 3.867c1.074 0 2.085.418 2.846 1.179a4 4 0 0 1 1.181 2.848l.001 2.472zm-20.437-2.617h17.813a1.4 1.4 0 0 0-.406-.854 1.402 1.402 0 0 0-.996-.413c-3.576 0-6.486-2.908-6.486-6.483a6.501 6.501 0 0 1 3.256-5.629l.11-.056a7.19 7.19 0 0 0 .437-.223c7.814-4.1 13.263-17.405 13.263-32.36v-4.121H32.694v4.121c0 14.956 5.449 28.26 13.25 32.354.157.084.303.162.451.229l.108.055a6.502 6.502 0 0 1 3.257 5.629 6.491 6.491 0 0 1-6.486 6.483c-.376 0-.73.147-.997.414a1.391 1.391 0 0 0-.405.854z"/></g><linearGradient id="a" gradientUnits="userSpaceOnUse" x1="75.72" y1="11.016" x2="68.257" y2="11.016"><stop offset="0" stop-color="#f6891f"/><stop offset=".136" stop-color="#f47920"/><stop offset=".392" stop-color="#f15b22"/><stop offset=".629" stop-color="#ef4123"/><stop offset=".839" stop-color="#ee2b24"/><stop offset="1" stop-color="#ed2224"/></linearGradient><path d="M69.848 15.043c.485 0 .889-.162 1.212-.566l4.282-4.848c.566-.646.485-1.697-.162-2.262s-1.697-.485-2.262.162l-4.282 4.767c-.566.646-.485 1.697.162 2.262.242.323.646.485 1.05.485z" fill="url(#a)"/><linearGradient id="b" gradientUnits="userSpaceOnUse" x1="52.558" y1="5.348" x2="49.327" y2="5.348"><stop offset="0" stop-color="#f6891f"/><stop offset=".136" stop-color="#f47920"/><stop offset=".392" stop-color="#f15b22"/><stop offset=".629" stop-color="#ef4123"/><stop offset=".839" stop-color="#ee2b24"/><stop offset="1" stop-color="#ed2224"/></linearGradient><path d="M50.942 10.195a1.62 1.62 0 0 0 1.616-1.616V2.116A1.62 1.62 0 0 0 50.942.5a1.62 1.62 0 0 0-1.616 1.616v6.463c0 .889.728 1.616 1.616 1.616z" fill="url(#b)"/><linearGradient id="c" gradientUnits="userSpaceOnUse" x1="33.708" y1="10.975" x2="26.246" y2="10.975"><stop offset="0" stop-color="#f6891f"/><stop offset=".136" stop-color="#f47920"/><stop offset=".392" stop-color="#f15b22"/><stop offset=".629" stop-color="#ef4123"/><stop offset=".839" stop-color="#ee2b24"/><stop offset="1" stop-color="#ed2224"/></linearGradient><path d="M30.906 14.477c.323.323.727.566 1.212.566.404 0 .727-.162 1.05-.404.646-.566.727-1.616.162-2.262l-4.282-4.928c-.566-.646-1.616-.727-2.262-.162-.646.566-.727 1.616-.162 2.262l4.282 4.928z" fill="url(#c)"/><path d="M49.921 38.125c-.725.964-1.53 2.074-2.181 3.166 0 0-.259-1.344-.759-2.786-.481-1.386-1.455-3.099-1.97-3.794l-4.103 1.522c.015.019.412.478.621.796.336.508.898 1.335 1.444 2.465.896 1.855 1.801 4.459 1.984 7.338l.002.026s.108-.127.311-.351l.143-.16a48.205 48.205 0 0 1 4.187-4.036 40.462 40.462 0 0 1 3.189-2.467c2.382-1.652 5.1-3.094 7.853-3.656l.01-.002 1.885-8.501c.002.001-7.263 3.321-12.616 10.44zm-1.894 3.612c2.093-2.39 4.842-4.161 7.951-5.006-3.109.845-5.858 2.616-7.951 5.006z" fill="#ea262a"/><linearGradient id="d" gradientUnits="userSpaceOnUse" x1="60.644" y1="41.519" x2="44.958" y2="41.519"><stop offset=".35" stop-color="#ef7d24"/><stop offset=".9" stop-color="#ea262a"/></linearGradient><path d="M60.644 36.188c-2.753.562-5.471 2.005-7.853 3.656a40.277 40.277 0 0 0-3.189 2.467 48.205 48.205 0 0 0-4.187 4.036 7.492 7.492 0 0 0-.143.16c-.203.225-.311.351-.311.351l-.002-.026c2.37-6.202 8.241-10.62 15.087-10.653.2-.002.4.002.598.009" fill="url(#d)"/></svg>