<svg xmlns="http://www.w3.org/2000/svg" viewBox="0 0 100 100"><path d="M80.99 77.023L62.804 90.774a50.795 50.795 0 0 1-6.875 4.325c-1.663.887-2.329 1.109-2.772 1.22l-.222.111c-1.885.444-3.549.665-9.426-1.331-5.988-2.107-12.42-3.881-12.42-3.992l-.333-.111-.222-.111s-1.996-.998-6.099 1.553a937.492 937.492 0 0 0-9.648 6.21c-.776.444-1.553.776-2.44.776-.444 0-.887-.111-1.331-.222-1.331-.333-2.329-1.331-2.772-2.551l-6.875-16.19c-.998-2.218.111-4.879 2.329-5.766l17.743-7.541c2.44-.998 4.879-1.663 7.208-1.996 2.107-.222 3.881-.222 5.434.111 3.659.887 7.984 2.661 8.761 2.994l3.659 1.109c.111 0 2.661.887 5.323-.111 2.551-.998 5.212-.222 7.652 1.996.222.222.444.444.554.665l15.636-6.654h.222c2.551-.333 6.543.444 7.319 4.436.997 3.77-.888 6.432-2.219 7.319zM17.559 91.661l-6.432-15.303-5.656 2.329 6.875 16.301c1.443-.887 3.217-2.107 5.213-3.327zm61.435-21.07c-.222-.998-1.553-1.109-2.107-.998l-15.525 6.543c0 .222-.111.554-.222.776-.333 1.22-1.996 2.661-2.218 2.994-1.663 1.442-3.881 2.551-4.436 2.772-.665.333-4.214 2.107-7.319 1.663-2.883-.333-8.871-1.885-9.093-1.996-1.22-.333-1.885-1.553-1.553-2.772.333-1.22 1.553-1.885 2.661-1.553.111 0 5.988 1.553 8.428 1.885 1.663.222 4.103-.887 4.768-1.22l.111-.111c.554-.222 2.329-1.109 3.327-2.107.333-.222.776-.776.998-1.109v-.111c-.111-.111-.111-.333-.111-.554a1.532 1.532 0 0 0-.333-.444c-.776-.776-1.996-1.553-3.105-1.109-4.214 1.663-8.206.222-8.317.222l-3.992-1.331s-4.547-1.996-8.095-2.772c-.554-.111-1.109-.111-1.774-.111s-1.331 0-2.107.111c-1.996.222-3.992.887-5.988 1.663l-7.984 3.438 6.21 14.638c.222-.111.554-.333.776-.444 5.545-3.438 9.204-2.329 10.424-1.774 1.109.333 6.986 1.996 12.42 3.881 5.101 1.774 5.988 1.442 6.875 1.22l.333-.111s.444-.111 1.774-.887a42.06 42.06 0 0 0 6.21-3.992L78.216 73.14c.224.224 1.222-.664.778-2.549z" fill="#1b4695"/><linearGradient id="a" gradientUnits="userSpaceOnUse" x1="98.844" y1="33.054" x2="7.912" y2="33.054"><stop offset="0" stop-color="#f6891f"/><stop offset=".136" stop-color="#f47920"/><stop offset=".392" stop-color="#f15b22"/><stop offset=".629" stop-color="#ef4123"/><stop offset=".839" stop-color="#ee2b24"/><stop offset="1" stop-color="#ed2224"/></linearGradient><path d="M72.673 28.785c-.665-.998-.444-2.329.554-3.105.998-.665 2.329-.444 3.105.554.444.665.887 1.442 1.331 2.107a2.222 2.222 0 0 1-.998 2.994c-.333.111-.665.222-.998.222-.776 0-1.553-.444-1.996-1.22-.332-.554-.665-.998-.998-1.552zM37.298 53.292l14.86 11.866a2.13 2.13 0 0 0 1.331.444c.444 0 .998-.111 1.331-.444l14.86-11.976c4.99-4.436 9.648-9.537 9.648-17.078 0-1.22-.998-2.218-2.218-2.218s-2.218.998-2.218 2.218c0 5.545-3.105 9.315-8.095 13.751L53.378 60.611 39.96 49.965c-4.99-4.436-8.095-8.206-8.095-13.751 0-6.986 5.656-12.642 12.642-12.642 2.772 0 5.323.887 7.541 2.551a2.338 2.338 0 0 0 2.661 0c2.218-1.663 4.768-2.551 7.541-2.551 2.107 0 4.214.554 5.988 1.553 1.109.554 2.44.222 2.994-.887s.222-2.44-.887-2.994c-2.44-1.331-5.323-1.996-8.095-1.996-3.216 0-6.21.887-8.871 2.551a16.826 16.826 0 0 0-8.871-2.551c-9.426 0-17.078 7.652-17.078 17.078.11 7.318 4.767 12.419 9.868 16.966zM96.626 38.21h-8.871c-1.22 0-2.218.998-2.218 2.218s.998 2.218 2.218 2.218h8.871c1.22 0 2.218-.998 2.218-2.218s-.998-2.218-2.218-2.218zM79.327 20.468c.665 0 1.22-.222 1.663-.776l5.877-6.654c.776-.887.665-2.329-.222-3.105-.887-.776-2.329-.665-3.105.222l-5.877 6.543c-.776.887-.665 2.329.222 3.105.333.443.887.665 1.442.665zm-25.949-6.654c1.22 0 2.218-.998 2.218-2.218V2.725c0-1.22-.998-2.218-2.218-2.218s-2.218.998-2.218 2.218v8.871c0 1.22.998 2.218 2.218 2.218zM10.13 42.646h8.871c1.22 0 2.218-.998 2.218-2.218s-.998-2.218-2.218-2.218H10.13c-1.22 0-2.218.998-2.218 2.218s.998 2.218 2.218 2.218zm15.746-22.955c.444.444.998.776 1.663.776.554 0 .998-.222 1.442-.554.887-.776.998-2.218.222-3.105l-5.877-6.764c-.776-.887-2.218-.998-3.105-.222s-.998 2.218-.222 3.105l5.877 6.764z" fill="url(#a)"/></svg>