<svg xmlns="http://www.w3.org/2000/svg" viewBox="0 0 100 100"><path d="M50.611 21.886c-3.706 0-6.626 3.032-6.626 6.626 0 3.706 3.032 6.626 6.626 6.626 3.594 0 6.626-3.032 6.626-6.626 0-3.706-3.032-6.626-6.626-6.626zm0 9.849c-1.822 0-3.223-1.401-3.223-3.223s1.401-3.223 3.223-3.223c1.822 0 3.223 1.401 3.223 3.223s-1.541 3.223-3.223 3.223z" fill="#1b4695"/><linearGradient id="a" gradientUnits="userSpaceOnUse" x1="89.445" y1="92.444" x2="69.674" y2="92.444"><stop offset="0" stop-color="#f6891f"/><stop offset=".136" stop-color="#f47920"/><stop offset=".392" stop-color="#f15b22"/><stop offset=".629" stop-color="#ef4123"/><stop offset=".839" stop-color="#ee2b24"/><stop offset="1" stop-color="#ed2224"/></linearGradient><path d="M72.336 84.888a2.65 2.65 0 0 0-2.662 2.662 2.65 2.65 0 0 0 2.662 2.662c5.873 0 10.72 4.229 11.658 9.789h5.451c-1.153-8.45-8.33-15.113-17.109-15.113z" fill="url(#a)"/><linearGradient id="b" gradientUnits="userSpaceOnUse" x1="70.249" y1="78.248" x2="31.118" y2="78.248"><stop offset="0" stop-color="#f6891f"/><stop offset=".136" stop-color="#f47920"/><stop offset=".392" stop-color="#f15b22"/><stop offset=".629" stop-color="#ef4123"/><stop offset=".839" stop-color="#ee2b24"/><stop offset="1" stop-color="#ed2224"/></linearGradient><path d="M31.118 100h5.629c1.001-6.528 6.55-11.715 13.261-12.007h2.366A14.28 14.28 0 0 1 64.895 100h5.354c-.936-8.818-7.712-16.006-16.545-17.331V59.158a2.65 2.65 0 0 0-2.662-2.662 2.65 2.65 0 0 0-2.662 2.662v23.511C39.303 83.694 32.119 90.957 31.118 100z" fill="url(#b)"/><linearGradient id="c" gradientUnits="userSpaceOnUse" x1="31.524" y1="92.518" x2="11.777" y2="92.518"><stop offset="0" stop-color="#f6891f"/><stop offset=".136" stop-color="#f47920"/><stop offset=".392" stop-color="#f15b22"/><stop offset=".629" stop-color="#ef4123"/><stop offset=".839" stop-color="#ee2b24"/><stop offset="1" stop-color="#ed2224"/></linearGradient><path d="M28.862 85.035c-8.73 0-15.871 6.447-17.085 14.965h5.457c.998-5.486 5.807-9.641 11.627-9.641 1.479 0 2.662-1.183 2.662-2.662s-1.182-2.662-2.661-2.662z" fill="url(#c)"/><path d="M29.596 56.874v5.195c0 1.237.99 2.226 2.226 2.226h6.308v9.029c0 1.237.99 2.226 2.226 2.226 1.237 0 2.226-.99 2.226-2.226v-9.029h.247c1.237 0 2.226-.99 2.226-2.226 0-1.237-.99-2.226-2.226-2.226h-8.906v-2.845c0-.866.371-1.855.866-2.598l4.453-6.308c1.113-1.484 1.608-3.216 1.608-5.071V21.87c0-2.103.742-4.082 2.103-5.566l8.04-9.4 8.164 9.4c1.361 1.484 2.103 3.463 2.103 5.566v21.275c0 1.608.495 3.34 1.361 4.7l4.082 6.432c.495.742.742 1.608.742 2.474v3.092h-8.782c-1.237 0-2.226.99-2.226 2.226 0 1.237.866 2.226 2.103 2.226v9.029c0 1.237 1.113 2.35 2.35 2.35s2.226-.99 2.226-2.226v-9.029h6.556c1.237 0 2.226-.99 2.226-2.226v-5.319c0-1.732-.371-3.463-1.361-4.948l-4.082-6.432c-.371-.742-.618-1.484-.618-2.35V21.746c0-3.092-1.113-6.185-3.216-8.535l-9.895-11.38c-.495-.495-1.113-.742-1.732-.742-.618 0-1.361.247-1.732.742l-9.771 11.38c-1.979 2.474-3.092 5.442-3.092 8.535v21.151c0 .866-.247 1.732-.742 2.474l-4.453 6.308c-.99 1.484-1.608 3.34-1.608 5.195z" fill="#1b4695"/></svg>