<svg xmlns="http://www.w3.org/2000/svg" xmlns:xlink="http://www.w3.org/1999/xlink" viewBox="0 0 173.95 147.26"><defs><style>.cls-1,.cls-6,.cls-7{fill:#164397;}.cls-1{stroke:#164397;stroke-miterlimit:10;stroke-width:2px;}.cls-2,.cls-7{fill-rule:evenodd;}.cls-2{fill:url(#linear-gradient);}.cls-3{fill:url(#linear-gradient-2);}.cls-4{fill:url(#linear-gradient-3);}.cls-5{fill:url(#linear-gradient-4);}</style><linearGradient id="linear-gradient" x1="92.84" y1="61.22" x2="169.09" y2="63.47" gradientUnits="userSpaceOnUse"><stop offset="0" stop-color="#ff8900"/><stop offset="0.05" stop-color="#ff7f00"/><stop offset="0.37" stop-color="#ff4900"/><stop offset="0.65" stop-color="#ff2100"/><stop offset="0.87" stop-color="#ff0900"/><stop offset="1" stop-color="red"/></linearGradient><linearGradient id="linear-gradient-2" x1="93.22" y1="48.03" x2="169.47" y2="50.28" xlink:href="#linear-gradient"/><linearGradient id="linear-gradient-3" x1="92.65" y1="67.66" x2="168.9" y2="69.91" xlink:href="#linear-gradient"/><linearGradient id="linear-gradient-4" x1="92.49" y1="73.08" x2="168.74" y2="75.33" xlink:href="#linear-gradient"/></defs><title>ic-cong-dan</title><g id="Layer_2" data-name="Layer 2"><g id="Layer_1-2" data-name="Layer 1"><path class="cls-1" d="M120.43,122.67a1.51,1.51,0,0,1-1.48-1.29,1.5,1.5,0,0,1,1.27-1.7A58.15,58.15,0,0,0,111.81,4a57.82,57.82,0,0,0-40.7,16.62A1.5,1.5,0,0,1,69,18.47,61.14,61.14,0,0,1,173,62.14a61.43,61.43,0,0,1-52.3,60.51Z"/><path class="cls-2" d="M98.19,27.61c1.45,2.63,3.62,4.8,4.84,7.69.57,1.38,2.63,1.49,4.43.88,3.26-1.08,2.65,2.74,4.36,3.84.83.54-.22,1.56-1.2,1.78-5.39,1.2-3.05,2.83-.33,4.64,6.16,4.08,9.82,10.52,14.42,16,3.42,4,.13,9.9,1.49,14.84.75,2.76-.39,4.76-3.42,5.61-4.89,1.34-6.86,6.86-11.68,8.42-.32.09-.63,1.14-.61,1.16,4.16,2.28-.11,6.45,2.26,9.38a10.06,10.06,0,0,0,1.78-.84c5.57-4,10.15-9.36,16.68-12,1.86-.75,3.68-1.95,4.18-4.16,2-8.7,1.16-17.07-5.35-23.56a153.89,153.89,0,0,1-10.66-11.49c-3-3.7-2.35-6.27.48-9.49A44.85,44.85,0,0,1,129.1,32c-5.63-1.69-7.26-2.5-6.9-4.49.59-3-.57-4-3-3.42s-3.51-3.73-5.77-1.62c-3.85,3.61-8.33,3.11-12.91,2.76-1.75-.13-2.74,1.73-2.37,2.41Zm0,0"/><rect class="cls-3" x="136.33" y="47.41" width="3.89" height="3.89"/><rect class="cls-4" x="149.82" y="67.46" width="3.89" height="3.89"/><rect class="cls-5" x="146.99" y="72.8" width="3.89" height="3.89"/><path class="cls-6" d="M76.11,52.29v3.32a12.34,12.34,0,0,1-.59,3.77,2.34,2.34,0,0,0,1.87,3l1,.15a.65.65,0,0,1,.53.73l-1.4,9a.66.66,0,0,1-.72.54L76,72.72a2.35,2.35,0,0,0-2.62,1.66c-2.57,8.92-9.59,15.9-16.1,16.23-6.77-.33-13.8-7.35-16.35-16.32a2.34,2.34,0,0,0-2.25-1.7l-.36,0-1.43.22a.66.66,0,0,1-.73-.53l-1.4-9a.64.64,0,0,1,.52-.73l1-.16a2.34,2.34,0,0,0,1.87-3,12.33,12.33,0,0,1-.59-3.77V52.29c0-.3,0-.59,0-.89H33c0,.3,0,.59,0,.89v3.32a17.11,17.11,0,0,0,.23,2.77,5.33,5.33,0,0,0-3,5.63l1.4,9a5.3,5.3,0,0,0,5.52,4.49c3.55,10,11.72,17.36,20.23,17.76,8.28-.4,16.45-7.76,20-17.76A5.33,5.33,0,0,0,82.16,73l1.4-9a5.33,5.33,0,0,0-3-5.63,17.06,17.06,0,0,0,.23-2.77V52.29c0-.3,0-.59,0-.89H76C76.06,51.7,76.11,52,76.11,52.29Z"/><path class="cls-6" d="M102.14,106c-7.3-1.48-20.79-4.76-25-7.69a2.31,2.31,0,0,0-1-.39l-.32,0a2.33,2.33,0,0,0-2.63,1.82l-7.24,33.41-3.3-17.48,4.6-11.86a2.34,2.34,0,0,0-2.18-3.19H49.42a2.34,2.34,0,0,0-2.18,3.19l4.6,11.86-3.4,17.54L41.31,99.73a2.32,2.32,0,0,0-2.63-1.83l-.32,0a2.3,2.3,0,0,0-1,.39c-4.23,2.93-17.72,6.21-25,7.69C6.2,107.27,0,111.51,0,118.18V121L2.67,145.1a2.34,2.34,0,0,0,4.65-.51L4.68,120.71v-2.53c0-4.6,5.4-6.92,8.59-7.56,4.22-.85,17.08-3.62,24.09-6.94l8.89,41.73a2.34,2.34,0,0,0,2.29,1.85h0a2.34,2.34,0,0,0,2.28-1.9l5.72-29.49a2.36,2.36,0,0,0-.12-1.29l-3.61-9.3h8.8L58,114.58a2.36,2.36,0,0,0-.12,1.28l5.56,29.49a2.34,2.34,0,0,0,2.27,1.9h0a2.34,2.34,0,0,0,2.29-1.84l9-41.74c7,3.31,19.88,6.09,24.1,6.94,3.19.64,8.59,3,8.59,7.56v2.28l-2.65,24.13a2.34,2.34,0,0,0,4.65.51l2.67-24.39v-2.53C114.49,111.51,108.28,107.27,102.14,106Z"/><path class="cls-6" d="M92,133.64H76a2.34,2.34,0,1,0,0,4.68H92a2.34,2.34,0,1,0,0-4.68Z"/><path class="cls-7" d="M74.12,37.29a22.61,22.61,0,0,0-16-6.66H55.6a22.62,22.62,0,0,0-16,6.66,21.38,21.38,0,0,0-6.65,15.65,19,19,0,0,1,.41,3.34h3l1.26-2.89c0-5,1.44-9.92,4.75-13.22S50.59,34,55.6,34h2.5c5,0,9.43,2.6,12.73,5.91s5.25,6.77,5.25,11.78v4.75h4.69V53.31A22.61,22.61,0,0,0,74.12,37.29Z"/><path class="cls-6" d="M35.25,55.88a1.91,1.91,0,0,1-.38-3.78A20.05,20.05,0,0,0,48.51,42a1.91,1.91,0,0,1,3-.42A20.11,20.11,0,0,0,75.9,45.09a1.91,1.91,0,0,1,1.88,3.32A23.93,23.93,0,0,1,50.6,45.88a23.83,23.83,0,0,1-15,10A2,2,0,0,1,35.25,55.88Z"/></g></g></svg>