<svg xmlns="http://www.w3.org/2000/svg" viewBox="0 0 84 65.02"><defs><style>.cls-1{fill:#1c458c;}.cls-2{fill:#eb5128;}</style></defs><title>ic-chat</title><g id="Layer_2" data-name="Layer 2"><g id="Isolation_Mode" data-name="Isolation Mode"><path class="cls-1" d="M60.52,25.75a1.84,1.84,0,1,0,3.66-.47C62.37,10.87,48.63,0,32.18,0,14.44,0,0,12.77,0,28.45A26.37,26.37,0,0,0,6.45,45.52a10.15,10.15,0,0,1-3.67,4.29,2.69,2.69,0,0,0-1.16,2.85,2.65,2.65,0,0,0,2.23,2,20.25,20.25,0,0,0,11.85-1.82,35.43,35.43,0,0,0,16.47,4A36,36,0,0,0,42,55.54,1.84,1.84,0,1,0,41,52a32.24,32.24,0,0,1-8.85,1.22,31.57,31.57,0,0,1-15.57-4,1.88,1.88,0,0,0-1.87,0,15.22,15.22,0,0,1-7.83,2h0a14.48,14.48,0,0,0,3.43-5.42,1.87,1.87,0,0,0-.38-1.9A22.57,22.57,0,0,1,3.67,28.45c0-13.66,12.79-24.76,28.51-24.76,14.59,0,26.76,9.49,28.34,22.06"/><path class="cls-2" d="M34.21,28.45a2,2,0,1,1-2-2,2,2,0,0,1,2,2"/><path class="cls-2" d="M25.4,28.45a2,2,0,1,1-2-2,2,2,0,0,1,2,2"/><path class="cls-2" d="M43,28.45a2,2,0,1,1-2-2,2,2,0,0,1,2,2"/><path class="cls-1" d="M64.2,30.49c-10.61,0-19.22,7.61-19.22,17s8.62,17,19.22,17a21.77,21.77,0,0,0,5.16-.62,1,1,0,1,0-.46-1.87,19.6,19.6,0,0,1-4.7.57c-9.54,0-17.3-6.75-17.3-15s7.76-15,17.3-15,17.3,6.75,17.3,15a13.76,13.76,0,0,1-3.8,9.42,1,1,0,0,0-.2,1,8.6,8.6,0,0,0,2.3,3.45,9.49,9.49,0,0,1-5.18-1.24,1,1,0,1,0-1,1.65,11.86,11.86,0,0,0,7.61,1.39A1.44,1.44,0,0,0,82.45,62a1.47,1.47,0,0,0-.64-1.55,6.26,6.26,0,0,1-2.3-2.73,15.76,15.76,0,0,0,3.9-10.25c0-9.36-8.62-17-19.22-17"/><path class="cls-1" d="M64.2,65c-10.92,0-19.81-7.87-19.81-17.55S53.28,29.91,64.2,29.91,84,37.78,84,47.46A16.36,16.36,0,0,1,80.21,57.8,5.61,5.61,0,0,0,82.14,60a2,2,0,0,1-.82,3.74,12.48,12.48,0,0,1-8-1.47,1.54,1.54,0,1,1,1.59-2.65,8.39,8.39,0,0,0,3.49,1.11A9.62,9.62,0,0,1,77,58.08a1.57,1.57,0,0,1,.31-1.59,13.2,13.2,0,0,0,3.65-9c0-8-7.5-14.46-16.72-14.46S47.48,39.49,47.48,47.46,55,61.93,64.2,61.93a19,19,0,0,0,4.56-.55,1.54,1.54,0,1,1,.73,3A22.33,22.33,0,0,1,64.2,65m0-33.94c-10.28,0-18.64,7.35-18.64,16.39S53.92,63.85,64.2,63.85a21.18,21.18,0,0,0,5-.6.38.38,0,0,0-.18-.74,20.14,20.14,0,0,1-4.84.58c-9.86,0-17.88-7-17.88-15.63s8-15.63,17.88-15.63,17.88,7,17.88,15.63a14.35,14.35,0,0,1-4,9.82.39.39,0,0,0-.08.39,8.05,8.05,0,0,0,2.14,3.22l1.07,1-1.44,0a10.16,10.16,0,0,1-5.5-1.32.38.38,0,1,0-.39.65,11.31,11.31,0,0,0,7.23,1.31.87.87,0,0,0,.73-.67.88.88,0,0,0-.39-.94A6.83,6.83,0,0,1,79,58l-.15-.34.24-.28a15.23,15.23,0,0,0,3.76-9.87c0-9-8.36-16.39-18.64-16.39"/></g></g></svg>