<svg xmlns="http://www.w3.org/2000/svg" xmlns:xlink="http://www.w3.org/1999/xlink" viewBox="0 0 512 511.98"><defs><style>.cls-1{fill:url(#linear-gradient);}.cls-2{fill:url(#linear-gradient-2);}.cls-3{fill:url(#linear-gradient-3);}.cls-4{fill:url(#linear-gradient-4);}.cls-5{fill:#28479e;}</style><linearGradient id="linear-gradient" x1="26.66" y1="221.18" x2="338.69" y2="299.19" gradientUnits="userSpaceOnUse"><stop offset="0" stop-color="#ff8900"/><stop offset="0.05" stop-color="#ff7f00"/><stop offset="0.37" stop-color="#ff4900"/><stop offset="0.65" stop-color="#ff2100"/><stop offset="0.87" stop-color="#ff0900"/><stop offset="1" stop-color="red"/></linearGradient><linearGradient id="linear-gradient-2" x1="-3.63" y1="342.32" x2="308.41" y2="420.33" xlink:href="#linear-gradient"/><linearGradient id="linear-gradient-3" x1="-7.95" y1="359.62" x2="304.08" y2="437.63" xlink:href="#linear-gradient"/><linearGradient id="linear-gradient-4" x1="-15.82" y1="391.11" x2="296.21" y2="469.12" xlink:href="#linear-gradient"/></defs><title>ic-passport</title><g id="Layer_2" data-name="Layer 2"><g id="hang"><path class="cls-1" d="M176,156.52a102,102,0,1,0,102,102A102.11,102.11,0,0,0,176,156.52Zm74.58,68H228.71A136,136,0,0,0,217.31,189q-.46-.92-.93-1.81A82.52,82.52,0,0,1,250.58,224.5ZM94,258.52a82.18,82.18,0,0,1,1.22-14h25.52q-.5,6.91-.5,14t.5,14H95.22A82.18,82.18,0,0,1,94,258.52Zm46.24,0c0-4.83.2-9.5.55-14H166v28H140.79C140.43,268,140.24,263.34,140.24,258.52Zm68.14-34H186V180.26C195.23,187.08,203.82,202.86,208.37,224.5ZM166,180.26V224.5H143.62C148.17,202.86,156.76,187.08,166,180.26Zm0,112.27v44.24c-9.23-6.82-17.83-22.6-22.37-44.24Zm20,44.24V292.53h22.38C203.82,314.17,195.23,330,186,336.77Zm0-64.24v-28h25.21c.35,4.52.55,9.19.55,14s-.2,9.5-.55,14Zm45.26-28h25.52a80.93,80.93,0,0,1,0,28H231.26q.5-6.91.51-14T231.26,244.5Zm-95.64-57.31q-.47.9-.93,1.81a135.9,135.9,0,0,0-11.4,35.49H101.42A82.52,82.52,0,0,1,135.61,187.19Zm-34.2,105.34h21.87A135.93,135.93,0,0,0,134.69,328c.3.61.62,1.22.93,1.81A82.52,82.52,0,0,1,101.42,292.53Zm115,37.3q.47-.9.93-1.81a135.9,135.9,0,0,0,11.4-35.49h21.87A82.5,82.5,0,0,1,216.39,329.84Z"/><path class="cls-2" d="M227,390a10,10,0,1,0,7.07,2.93A10.08,10.08,0,0,0,227,390Z"/><path class="cls-3" d="M200.66,400a10,10,0,0,0-10-10H116.35a10,10,0,0,0,0,20h74.31A10,10,0,0,0,200.66,400Z"/><path class="cls-4" d="M213,428H130.35a10,10,0,0,0,0,20H213a10,10,0,1,0,0-20Z"/><path class="cls-5" d="M342,272a10,10,0,1,0,7.07,2.93A10.07,10.07,0,0,0,342,272Z"/><path class="cls-5" d="M487,132.69,268.77,6.69A50.06,50.06,0,0,0,200.47,25L184.89,52H50A50.06,50.06,0,0,0,0,102V462a50.06,50.06,0,0,0,50,50H302a50.07,50.07,0,0,0,49.75-45L505.31,201A50.06,50.06,0,0,0,487,132.69ZM217.79,35a30,30,0,0,1,41-11l49.07,28.33A50.14,50.14,0,0,0,302,52H208ZM488,191,352,426.54V326.65a10,10,0,1,0-20,0V462c0,.5,0,1,0,1.48v0A30,30,0,0,1,302,492H50a30,30,0,0,1-30-30V102A30,30,0,0,1,50,72H302a30,30,0,0,1,30,30V235a10,10,0,1,0,20,0V102a49.74,49.74,0,0,0-9.95-29.9L477,150a30,30,0,0,1,11,41Z"/></g></g></svg>