<svg xmlns="http://www.w3.org/2000/svg" viewBox="0 0 451 261"><defs><style>.cls-1{fill:#164397}.cls-2{fill:url(#linear-gradient)}</style><linearGradient id="linear-gradient" x1="361.58" y1="130.5" x2="0" y2="130.5" gradientUnits="userSpaceOnUse"><stop offset="0" stop-color="#ff8900"/><stop offset=".01" stop-color="#ff8700"/><stop offset=".25" stop-color="#ff5700"/><stop offset=".47" stop-color="#ff3100"/><stop offset=".68" stop-color="#ff1600"/><stop offset=".86" stop-color="#ff0600"/><stop offset="1" stop-color="red"/></linearGradient></defs><title>ic-fast-easy</title><g id="Layer_2" data-name="Layer 2"><g id="blue"><g id="_1" data-name="1"><path class="cls-1" d="M443.5 261h-304a7.5 7.5 0 0 1 0-15H436V15H200.5a7.5 7.5 0 0 1 0-15h243a7.5 7.5 0 0 1 7.5 7.5v246a7.5 7.5 0 0 1-7.5 7.5z"/><path class="cls-1" d="M361.4 220.54H162a7.5 7.5 0 0 1 0-15h192.47a49.2 49.2 0 0 1 41-41V96.47a49.2 49.2 0 0 1-41-41H203a7.5 7.5 0 0 1 0-15h158.4a7.5 7.5 0 0 1 7.5 7.5A34.12 34.12 0 0 0 403 82a7.5 7.5 0 0 1 7.5 7.5v81.92A7.5 7.5 0 0 1 403 179a34.12 34.12 0 0 0-34.1 34 7.5 7.5 0 0 1-7.5 7.54z"/></g></g><g id="orange"><path id="_1-2" data-name="1" class="cls-2" d="M203.54 97.5h15.16l-23.81 69h-13.78l-23.61-69h15.59l15.16 52.38zm25.61 0h15.3l27.72 48.11V97.5h13.6v69h-14.59l-28.43-49v49h-13.6zM343.37 99a23.05 23.05 0 0 1 11.9 8.75 30.52 30.52 0 0 1 5 11.14 52.82 52.82 0 0 1 1.33 11.42q0 13.76-5.59 23.31-7.59 12.87-23.42 12.87h-30.13v-69h30.11a37.17 37.17 0 0 1 10.8 1.51zm-26.75 10.49v45h13.48q10.34 0 14.42-10.06a35.07 35.07 0 0 0 2.23-13.15q0-10.53-3.34-16.17t-13.31-5.64zM177 46.5a7.5 7.5 0 0 0-7.5-7.5h-92a7.5 7.5 0 0 0 0 15h92a7.5 7.5 0 0 0 7.5-7.5zm-132 0a7.5 7.5 0 0 0-7.5-7.5h-13a7.5 7.5 0 0 0 0 15h13a7.5 7.5 0 0 0 7.5-7.5zm48 42a7.5 7.5 0 0 0-7.5-7.5h-48a7.5 7.5 0 0 0 0 15h48a7.5 7.5 0 0 0 7.5-7.5zm-6 48a7.5 7.5 0 0 0-7.5-7.5h-72a7.5 7.5 0 0 0 0 15h72a7.5 7.5 0 0 0 7.5-7.5zm44 78a7.5 7.5 0 0 0-7.5-7.5H7.5a7.5 7.5 0 0 0 0 15h116a7.5 7.5 0 0 0 7.5-7.5zm16-126a7.5 7.5 0 0 0-7.5-7.5h-24a7.5 7.5 0 0 0 0 15h24a7.5 7.5 0 0 0 7.5-7.5zm-9 48a7.5 7.5 0 0 0-7.5-7.5h-24a7.5 7.5 0 0 0 0 15h24a7.5 7.5 0 0 0 7.5-7.5zm-39 36a7.5 7.5 0 0 0-7.5-7.5h-30a7.5 7.5 0 0 0 0 15h30a7.5 7.5 0 0 0 7.5-7.5z"/></g></g></svg>