<svg xmlns="http://www.w3.org/2000/svg" xmlns:xlink="http://www.w3.org/1999/xlink" viewBox="0 0 501.09 424.23"><defs><style>.cls-1{opacity:0}.cls-2{fill:url(#linear-gradient)}.cls-3{fill:#164397}.cls-4{fill:url(#linear-gradient-2)}.cls-5{fill:none}.cls-6{fill:url(#linear-gradient-3)}.cls-7{fill:url(#linear-gradient-4)}.cls-8{fill:url(#linear-gradient-5)}.cls-9{fill:url(#linear-gradient-6)}</style><linearGradient id="linear-gradient" x1="447.01" y1="155.55" x2="156.65" y2="155.55" gradientUnits="userSpaceOnUse"><stop offset="0" stop-color="#ff8900"/><stop offset=".01" stop-color="#ff8700"/><stop offset=".25" stop-color="#ff5700"/><stop offset=".47" stop-color="#ff3100"/><stop offset=".68" stop-color="#ff1600"/><stop offset=".86" stop-color="#ff0600"/><stop offset="1" stop-color="red"/></linearGradient><linearGradient id="linear-gradient-2" x1="453.1" y1="-769.04" x2="433.9" y2="-767.46" gradientTransform="rotate(4.68 -10485.329 -175.28)" xlink:href="#linear-gradient"/><linearGradient id="linear-gradient-3" x1="446.97" y1="203.81" x2="249.59" y2="203.81" xlink:href="#linear-gradient"/><linearGradient id="linear-gradient-4" x1="447.01" y1="113.06" x2="156.65" y2="113.06" xlink:href="#linear-gradient"/><linearGradient id="linear-gradient-5" x1="446.98" y1="113.47" x2="156.62" y2="113.47" xlink:href="#linear-gradient"/><linearGradient id="linear-gradient-6" x1="273.57" y1="318.32" x2="61.75" y2="318.32" xlink:href="#linear-gradient"/></defs><title>ic-step-2</title><g id="Layer_2" data-name="Layer 2"><g id="Layer_4" data-name="Layer 4"><g class="cls-1"><path class="cls-2" d="M387.44 270.75a9 9 0 0 1-6.35-15.34l25.83-25.78c41.27-41.22 18.48-96.09-13.59-130.56-11.49-12.36-24.33-22.68-37.11-29.84-11.57-6.5-66.1-25.15-102 9.78l-77.43 77c-3.12 3.11-2.27 4-.86 5.39 7.31 7.38 32.11 11 46.81-3.52l19.52-19.24c17.21-15.62 36.34-9.84 53.21-4.74 19 5.73 36.92 11.15 57.78-5.3a9 9 0 1 1 11.13 14.1c-28.22 22.27-53.66 14.58-74.11 8.39-16.77-5.07-26.7-7.55-35.67.6l-19.25 19c-22.17 21.84-58.51 17.18-72.19 3.36-9-9.12-8.65-21.19 1-30.76l77.5-77.11C282 27 342.16 40.74 365 53.55c14.39 8.06 28.74 19.57 41.48 33.28 40.52 43.51 60.23 108.47 13.13 155.51l-25.83 25.78a9 9 0 0 1-6.34 2.63z"/></g><path class="cls-3" d="M60.73 242.94a9 9 0 0 1-6.35-2.63L28.6 214.57C-19.38 166.66-.45 103.46 37.45 65 77.76 24.11 143.56 7 191.32 53.54l17.44 17.36a9 9 0 0 1-12.67 12.73l-17.38-17.27c-41.12-40-95.44-22.23-128.48 11.28C18.38 110 2 162.61 41.29 201.86l25.79 25.74a9 9 0 0 1-6.35 15.34z"/><path class="cls-4" d="M465 126.19a9.63 9.63 0 1 1-8.81-10.38 9.63 9.63 0 0 1 8.81 10.38zm0 0"/><path class="cls-5" d="M406.49 86.83c16.22 17.44 29.1 38.33 35.7 60.13l7 8.21 29.27-24.84a9.7 9.7 0 0 0 1.12-13.66l-79-93.13a9.69 9.69 0 0 0-13.65-1.12L365 41a9.57 9.57 0 0 0-2.59 11.21c.89.45 1.83.89 2.63 1.34 14.36 8.07 28.7 19.57 41.45 33.28z"/><path class="cls-6" d="M434.47 167.63l-7.47-8.85c5.57 24.11 1.5 49.34-20 70.85l-4 3.87a9 9 0 1 0 12.69 12.72l3.92-3.87c18.11-18.09 26.31-38.83 27.27-60z"/><path class="cls-7" d="M340.26 56.35c-1.54-2-.26-7.18 1.34-11.79-28.46-7.41-69.78-7.75-100 21.64l-77.5 77.11c-9.61 9.57-10 21.65-1 30.76 13.68 13.81 50 18.48 72.19-3.36l19.25-19c9-8.15 18.9-5.67 35.67-.6 20.44 6.18 45.89 13.88 74.11-8.39a9 9 0 1 0-11.13-14.1c-20.86 16.45-38.79 11-57.78 5.3-16.87-5.1-36-10.88-53.21 4.74l-19.52 19.24c-14.7 14.49-39.5 10.9-46.81 3.52-1.41-1.42-2.26-2.28.86-5.39l77.43-77c30.24-29.43 73.71-20.82 93.57-13.5l-7-8.29a5.49 5.49 0 0 0-.47-.89z"/><path class="cls-8" d="M442.18 147l-78.34-92.3a9.68 9.68 0 0 1-1.47-2.45 105.78 105.78 0 0 0-20.78-7.65c-1.6 4.6-2.88 9.82-1.34 11.79a5.49 5.49 0 0 1 .51.87l7 8.29a62 62 0 0 1 8.42 3.71c12.79 7.16 25.62 17.48 37.11 29.84 15.33 16.48 28.52 37.63 33.62 59.71l7.52 8.85 12.4 14.74a105.75 105.75 0 0 0-4.65-35.4z"/><path class="cls-3" d="M494.23 104.22L480 87.48a1 1 0 0 0 .05-.12l-65.7-77.19a29 29 0 0 0-40.81-3.28L337 38l-7.38 6.29 12.55 14.61 7.53 8.85L361 81l66 77.75 7.52 8.85 12.4 14.74 7.39-6.27L490.89 145a29 29 0 0 0 3.34-40.78zm-15.8 26.12l-29.27 24.84-7-8.21L431 133.82h.19L363.8 54.65l-7-8.2 29.24-24.89a9.7 9.7 0 0 1 13.66 1.1l18.6 21.83 61.26 72.18a9.7 9.7 0 0 1-1.12 13.66zM333.88 356.49a31.29 31.29 0 0 1-22.88-9.72L259.62 294a9 9 0 0 1 12.87-12.53l51.41 52.82c7.46 7.66 18.51 3.63 24-1.69 3.32-3.22 9.89-11.91-.74-22.89l-50.25-51.85a9 9 0 1 1 12.9-12.51L360 297.16c16.68 17.22 11.88 37.09.36 48.28a38.83 38.83 0 0 1-26.48 11.05z"/><path class="cls-3" d="M330.09 354a32 32 0 0 0-9.43-23.19l-25.57-26a9 9 0 0 0-12.81 12.59l25.57 26c7.56 7.68 3.7 18.4-1.43 23.55-3.11 3.12-11.52 9.21-22.51-1.52a9 9 0 1 0-12.55 12.85c17.2 16.79 36.39 12.77 47.78 1.34A37.62 37.62 0 0 0 330.09 354zm41.78-32.64c-8 0-16.68-3.39-24.73-11.69l-46.77-48.22a9 9 0 1 1 12.89-12.51L360 297.16c9.79 10.09 17.43 5.65 21.12 2.1 6.4-6.15 9-17.35 1.94-24.7L283.32 170a9 9 0 0 1 13-12.4l99.79 104.61c14.64 15.36 10.11 37.94-2.49 50.05a31.59 31.59 0 0 1-21.75 9.1z"/><path class="cls-9" d="M264 344.37l-2.75-2.75a32.65 32.65 0 0 0-16.68-8.93A32.79 32.79 0 0 0 239 293.9l-2.74-2.75a32.59 32.59 0 0 0-16.26-8.79 33 33 0 0 0-4.12-41.36l-2.74-2.75a32.62 32.62 0 0 0-23.23-9.6 32.63 32.63 0 0 0-23.23 9.6l-1.95 1.95a32.45 32.45 0 0 0-8.63-15.48l-2.75-2.72a32.64 32.64 0 0 0-23.22-9.58 32.6 32.6 0 0 0-23.24 9.58l-35.55 35.55a32.9 32.9 0 0 0 0 46.46l2.74 2.74a32.6 32.6 0 0 0 23.23 9.57q1.63 0 3.24-.16c0 .65-.09 1.29-.09 1.95a32.62 32.62 0 0 0 9.59 23.22l2.74 2.74a32.6 32.6 0 0 0 23.21 9.57 33.51 33.51 0 0 0 5.38-.47 32.61 32.61 0 0 0 9.62 23.25l2.74 2.75a32.75 32.75 0 0 0 23.23 9.6 33.15 33.15 0 0 0 4.39-.42v.35a32.62 32.62 0 0 0 9.58 23.21l2.74 2.74a32.62 32.62 0 0 0 23.23 9.58 32.61 32.61 0 0 0 23.22-9.57L264 390.83a32.9 32.9 0 0 0 0-46.46zm-166.63-46A14.78 14.78 0 0 1 86.8 294l-2.74-2.74a14.91 14.91 0 0 1 0-21.06l35.54-35.55a14.76 14.76 0 0 1 10.52-4.32 14.78 14.78 0 0 1 10.53 4.33l2.74 2.74a15 15 0 0 1 0 21.06L107.85 294a14.75 14.75 0 0 1-10.52 4.36zm28.17 33l-2.74-2.74a15 15 0 0 1 0-21L179.37 251a14.79 14.79 0 0 1 10.53-4.33 14.76 14.76 0 0 1 10.53 4.33l2.75 2.75a15 15 0 0 1 0 21l-56.61 56.61a15.36 15.36 0 0 1-21.06.01zm40.94 35.1l-2.75-2.75a15 15 0 0 1 0-21l38.81-38.81a14.9 14.9 0 0 1 21.05 0l2.75 2.75a14.9 14.9 0 0 1 0 21.05l-38.84 38.76a14.89 14.89 0 0 1-21.05 0zm84.82 11.65L227.43 402a14.78 14.78 0 0 1-10.52 4.31 14.76 14.76 0 0 1-10.53-4.31l-2.74-2.75a15 15 0 0 1 0-21l23.83-23.83a14.9 14.9 0 0 1 21.06 0l2.74 2.74a15.09 15.09 0 0 1-.01 20.96z"/></g></g></svg>