<svg xmlns="http://www.w3.org/2000/svg" xmlns:xlink="http://www.w3.org/1999/xlink" viewBox="0 0 169.74 167.22"><defs><style>.cls-1{fill:none}.cls-2{clip-path:url(#clip-path)}.cls-3,.cls-4{fill:#164397}.cls-3{fill-rule:evenodd}.cls-5{clip-path:url(#clip-path-2)}.cls-6{fill:url(#linear-gradient)}.cls-7{clip-path:url(#clip-path-3)}.cls-8{fill:url(#linear-gradient-2)}</style><clipPath id="clip-path"><path class="cls-1" d="M0 0h169.74v167.22H0z"/></clipPath><clipPath id="clip-path-2"><path class="cls-1" d="M43 74.9a3.8 3.8 0 1 0 5.37 5.37 15.89 15.89 0 0 1 22.47 0 3.8 3.8 0 0 0 5.37-5.37 23.48 23.48 0 0 0-33.2 0"/></clipPath><linearGradient id="linear-gradient" y1="167.23" x2="1" y2="167.23" gradientTransform="matrix(-35.43 0 0 35.43 77.28 -5849.78)" gradientUnits="userSpaceOnUse"><stop offset="0" stop-color="#ff8900"/><stop offset=".01" stop-color="#f80"/><stop offset=".24" stop-color="#ff5800"/><stop offset=".47" stop-color="#ff3200"/><stop offset=".68" stop-color="#ff1600"/><stop offset=".86" stop-color="#ff0600"/><stop offset="1" stop-color="red"/></linearGradient><clipPath id="clip-path-3"><path class="cls-1" d="M93.57 74.9a3.8 3.8 0 1 0 5.37 5.37 15.89 15.89 0 0 1 22.47 0 3.8 3.8 0 1 0 5.37-5.37 23.48 23.48 0 0 0-33.2 0"/></clipPath><linearGradient id="linear-gradient-2" y1="167.23" y2="167.23" gradientTransform="matrix(-35.43 0 0 35.43 127.89 -5849.78)" xlink:href="#linear-gradient"/></defs><title>ic-support</title><g id="Layer_2" data-name="Layer 2"><g id="Layer_1-2" data-name="Layer 1"><g class="cls-2"><path class="cls-3" d="M95.4 147.85c9.91-1.48 20-4.94 26.71-11.69 8.39-8.39 14.92-22.6 14.92-35.32V57.58c0-12.72-6.53-25.61-14.92-34s-21.28-14.92-34-14.92h-6.34c-12.71 0-25.61 6.53-34 14.92s-14.92 21.28-14.92 34v43.26c0 3.12-1.21 4.33-4.33 4.33-2.44 0-3.09-3.59-4.48-3.5 0-16.35.15-27.94.15-44.1A57.74 57.74 0 0 1 81.77 0h6.35a57.74 57.74 0 0 1 57.58 57.58v2.78l-.31 46.44a57.83 57.83 0 0 1-48.78 51 12 12 0 0 1-1.2 2.82z"/><path class="cls-4" d="M27.75 106.49h-.37C12 105.3 0 91.63 0 75.35s12-30 27.38-31.13a4.84 4.84 0 1 1 .74 9.65C17.78 54.66 9.68 64.1 9.68 75.35S17.78 96 28.12 96.83a4.84 4.84 0 0 1-.36 9.67m114.24-.01a4.84 4.84 0 0 1-.37-9.67C152 96 160.06 86.6 160.06 75.35S152 54.66 141.62 53.87a4.84 4.84 0 0 1-4.46-5.2 4.9 4.9 0 0 1 5.2-4.45c15.35 1.18 27.38 14.85 27.38 31.13s-12 30-27.38 31.13H142m-57.13 60.74a16 16 0 1 1 16-16 16 16 0 0 1-16 16m0-22.36a6.34 6.34 0 1 0 6.34 6.34 6.35 6.35 0 0 0-6.34-6.34"/><path class="cls-4" d="M28.38 55.23a4.84 4.84 0 0 1-1-9.58 50.9 50.9 0 0 0 34.63-25.7 4.84 4.84 0 0 1 7.73-1.06 50.62 50.62 0 0 0 36.67 15.55 51 51 0 0 0 25.12-6.6 4.84 4.84 0 1 1 4.77 8.42 60.73 60.73 0 0 1-29.89 7.86 60.14 60.14 0 0 1-39.07-14.28 60.5 60.5 0 0 1-38 25.29 5 5 0 0 1-1 .1"/></g><g class="cls-5"><path class="cls-6" d="M41.48 68.03h36.17v13.73H41.48z"/></g><g class="cls-7"><path class="cls-8" d="M92.09 68.03h36.17v13.73H92.09z"/></g></g></g></svg>