<?xml version="1.0" encoding="iso-8859-1"?>
<!-- Generator: Adobe Illustrator 19.0.0, SVG Export Plug-In . SVG Version: 6.00 Build 0)  -->
<svg version="1.1" id="Layer_1" xmlns="http://www.w3.org/2000/svg" xmlns:xlink="http://www.w3.org/1999/xlink" x="0px" y="0px"
	 viewBox="0 0 176.152 98.076" style="enable-background:new 0 0 176.152 98.076;" xml:space="preserve">
<path style="fill:#D2D2D2;" d="M88.076,98.076c-2.652,0-5.196-1.054-7.071-2.929L2.929,17.071C0.993,15.135,0.017,12.603,0,10.065
	v-0.13c0.017-2.538,0.993-5.071,2.929-7.006C4.872,0.986,7.415,0.01,9.961,0h0.077c2.546,0.01,5.09,0.986,7.033,2.93l71.005,71.003
	L159.08,2.929C161.033,0.977,163.592,0,166.152,0c2.559,0,5.118,0.977,7.071,2.93c1.936,1.935,2.912,4.467,2.929,7.005v0.13
	c-0.017,2.538-0.993,5.07-2.929,7.006L95.147,95.147C93.271,97.022,90.728,98.076,88.076,98.076z"/>
</svg>
