<svg xmlns="http://www.w3.org/2000/svg" xmlns:xlink="http://www.w3.org/1999/xlink" viewBox="0 0 82.797 70"><defs><path id="a" d="M0 0h82.797v70H0z"/></defs><clipPath id="b"><use xlink:href="#a" overflow="visible"/></clipPath><path d="M49.412 60.02h-6.274a1.617 1.617 0 1 0 0 3.233h6.274a1.758 1.758 0 0 1 0 3.513h-16.89a8.496 8.496 0 0 1-6.55-3.071l-4.039-4.856a11.715 11.715 0 0 0-8.696-4.227V45.06h5.953c2.936 0 5.716 1.123 7.828 3.163l8.718 8.414c.616.595.645 1.591.064 2.22a1.59 1.59 0 0 1-2.24.094l-6.845-6.274a1.616 1.616 0 1 0-2.185 2.384l6.844 6.274a4.81 4.81 0 0 0 3.256 1.263c1.302 0 2.598-.52 3.547-1.547 1.763-1.911 1.676-4.935-.195-6.74l-8.718-8.416a14.432 14.432 0 0 0-10.074-4.068h-6.268a4.012 4.012 0 0 0-3.694-2.454h-7.61C.724 39.373 0 40.097 0 40.99v11.824a1.617 1.617 0 0 0 3.235 0V42.607h5.993c.428 0 .775.348.775.774v12.96a.775.775 0 0 1-.775.775H7.549a1.617 1.617 0 0 0 0 3.234h1.679a4.015 4.015 0 0 0 3.718-2.512 8.497 8.497 0 0 1 6.501 3.07l4.04 4.855A11.716 11.716 0 0 0 32.522 70h16.89a4.995 4.995 0 0 0 4.99-4.99 4.996 4.996 0 0 0-4.99-4.99M81.18 14.937c-.893 0-1.617.724-1.617 1.617v10.839h-5.995a.775.775 0 0 1-.774-.774V13.658c0-.427.347-.774.774-.774h1.561a1.617 1.617 0 0 0 0-3.234h-1.561a4.013 4.013 0 0 0-3.717 2.512 8.497 8.497 0 0 1-6.501-3.07l-4.039-4.855A11.722 11.722 0 0 0 50.274 0H33.385a4.996 4.996 0 0 0-4.99 4.99 4.996 4.996 0 0 0 4.99 4.99h6.906a1.618 1.618 0 1 0 0-3.234h-6.906a1.758 1.758 0 0 1 0-3.513h16.889c2.54 0 4.927 1.12 6.551 3.072l4.039 4.855a11.715 11.715 0 0 0 8.697 4.227v9.552h-5.954a11.216 11.216 0 0 1-7.828-3.162l-8.719-8.415a1.597 1.597 0 0 1-.063-2.22 1.591 1.591 0 0 1 2.241-.093l6.844 6.273a1.616 1.616 0 1 0 2.185-2.384l-6.844-6.273a4.83 4.83 0 0 0-6.802.284c-1.764 1.91-1.677 4.935.194 6.74l8.718 8.415a14.43 14.43 0 0 0 10.074 4.069h6.267a4.016 4.016 0 0 0 3.694 2.453h7.612c.893 0 1.617-.723 1.617-1.617V16.554c0-.893-.724-1.617-1.617-1.617" clip-path="url(#b)" fill="#19478a"/><defs><path id="c" d="M50.07 54.185a1.617 1.617 0 0 0 1.292 2.965l.034-.015a1.617 1.617 0 1 0-1.326-2.95"/></defs><clipPath id="d"><use xlink:href="#c" overflow="visible"/></clipPath><linearGradient id="e" gradientUnits="userSpaceOnUse" y1="70" x2="1" y2="70" gradientTransform="scale(71.3341 -71.3341) rotate(-12.413 -324.794 33.996)"><stop offset="0" stop-color="#f6891f"/><stop offset=".136" stop-color="#f47920"/><stop offset=".392" stop-color="#f15b22"/><stop offset=".629" stop-color="#ef4123"/><stop offset=".839" stop-color="#ee2b24"/><stop offset="1" stop-color="#ed2224"/></linearGradient><path clip-path="url(#d)" fill="url(#e)" d="M49.048 53.265l4.207.926-.852 3.87-4.207-.926z"/><defs><path id="f" d="M53.963 51.932a1.617 1.617 0 1 0 1.91 2.608l.021-.015a1.61 1.61 0 0 0 .333-2.252 1.622 1.622 0 0 0-2.264-.341"/></defs><clipPath id="g"><use xlink:href="#f" overflow="visible"/></clipPath><linearGradient id="h" gradientUnits="userSpaceOnUse" y1="70" x2="1" y2="70" gradientTransform="scale(71.3341 -71.3341) rotate(-12.413 -324.583 33.973)"><stop offset="0" stop-color="#f6891f"/><stop offset=".136" stop-color="#f47920"/><stop offset=".392" stop-color="#f15b22"/><stop offset=".629" stop-color="#ef4123"/><stop offset=".839" stop-color="#ee2b24"/><stop offset="1" stop-color="#ed2224"/></linearGradient><path clip-path="url(#g)" fill="url(#h)" d="M53.256 50.847l4.178.919-.849 3.856-4.178-.919z"/><defs><path id="i" d="M45.776 55.561a1.618 1.618 0 0 0-1.274 1.889 1.62 1.62 0 0 0 1.893 1.286l.047-.01a1.617 1.617 0 0 0-.666-3.165"/></defs><clipPath id="j"><use xlink:href="#i" overflow="visible"/></clipPath><linearGradient id="k" gradientUnits="userSpaceOnUse" y1="70" x2="1" y2="70" gradientTransform="scale(71.3341 -71.3341) rotate(-12.413 -324.951 34.013)"><stop offset="0" stop-color="#f6891f"/><stop offset=".136" stop-color="#f47920"/><stop offset=".392" stop-color="#f15b22"/><stop offset=".629" stop-color="#ef4123"/><stop offset=".839" stop-color="#ee2b24"/><stop offset="1" stop-color="#ed2224"/></linearGradient><path clip-path="url(#j)" fill="url(#k)" d="M44.499 54.786l4.051.892-.842 3.828-4.051-.892z"/><defs><path id="l" d="M58.702 50.119l-.18-.164.194.177-.014-.013zm-1.382-1.246a1.62 1.62 0 0 0 .135 2.32 1.616 1.616 0 0 0 2.27-.157 1.617 1.617 0 0 0-2.405-2.163"/></defs><clipPath id="m"><use xlink:href="#l" overflow="visible"/></clipPath><linearGradient id="n" gradientUnits="userSpaceOnUse" y1="70" x2="1" y2="70" gradientTransform="scale(71.3341 -71.3341) rotate(-12.413 -324.327 33.945)"><stop offset="0" stop-color="#f6891f"/><stop offset=".136" stop-color="#f47920"/><stop offset=".392" stop-color="#f15b22"/><stop offset=".629" stop-color="#ef4123"/><stop offset=".839" stop-color="#ee2b24"/><stop offset="1" stop-color="#ed2224"/></linearGradient><path clip-path="url(#m)" fill="url(#n)" d="M56.871 47.58l4.13.909-.848 3.854-4.13-.909z"/><defs><path id="o" d="M61.701 41.076a1.617 1.617 0 0 0 3.092.95l.006-.021a1.613 1.613 0 0 0-1.546-2.082c-.695 0-1.339.453-1.552 1.153"/></defs><clipPath id="p"><use xlink:href="#o" overflow="visible"/></clipPath><linearGradient id="q" gradientUnits="userSpaceOnUse" y1="70" x2="1" y2="70" gradientTransform="scale(71.3341 -71.3341) rotate(-12.413 -323.732 33.88)"><stop offset="0" stop-color="#f6891f"/><stop offset=".136" stop-color="#f47920"/><stop offset=".392" stop-color="#f15b22"/><stop offset=".629" stop-color="#ef4123"/><stop offset=".839" stop-color="#ee2b24"/><stop offset="1" stop-color="#ed2224"/></linearGradient><path clip-path="url(#p)" fill="url(#q)" d="M61.606 39.163l4.133.91-.848 3.855-4.133-.91z"/><defs><path id="r" d="M63.867 30.334a1.619 1.619 0 0 0-1.256 1.903 1.62 1.62 0 0 0 1.873 1.287 1.618 1.618 0 0 0 1.307-1.877l-.012-.062a1.616 1.616 0 0 0-1.912-1.251"/></defs><clipPath id="s"><use xlink:href="#r" overflow="visible"/></clipPath><linearGradient id="t" gradientUnits="userSpaceOnUse" y1="70" x2="1" y2="70" gradientTransform="scale(71.3341 -71.3341) rotate(-12.413 -323.113 33.813)"><stop offset="0" stop-color="#f6891f"/><stop offset=".136" stop-color="#f47920"/><stop offset=".392" stop-color="#f15b22"/><stop offset=".629" stop-color="#ef4123"/><stop offset=".839" stop-color="#ee2b24"/><stop offset="1" stop-color="#ed2224"/></linearGradient><path clip-path="url(#s)" fill="url(#t)" d="M62.598 29.563l4.032.887-.844 3.836-4.032-.887z"/><defs><path id="u" d="M62.555 36.624c-.001.016-.004.047-.004.063a1.617 1.617 0 0 0 3.226.214 1.616 1.616 0 0 0-1.612-1.752 1.62 1.62 0 0 0-1.61 1.475"/></defs><clipPath id="v"><use xlink:href="#u" overflow="visible"/></clipPath><linearGradient id="w" gradientUnits="userSpaceOnUse" y1="70" x2="1" y2="70" gradientTransform="scale(71.3341 -71.3341) rotate(-12.413 -323.419 33.847)"><stop offset="0" stop-color="#f6891f"/><stop offset=".136" stop-color="#f47920"/><stop offset=".392" stop-color="#f15b22"/><stop offset=".629" stop-color="#ef4123"/><stop offset=".839" stop-color="#ee2b24"/><stop offset="1" stop-color="#ed2224"/></linearGradient><path clip-path="url(#v)" fill="url(#w)" d="M62.653 34.445l3.88.854-.837 3.804-3.88-.854z"/><defs><path id="x" d="M59.933 45.203l-.023.04a1.625 1.625 0 0 0 .647 2.2c.247.133.513.197.774.197.571 0 1.123-.303 1.414-.84l-1.405-.799 1.407.796a1.617 1.617 0 1 0-2.814-1.594"/></defs><clipPath id="y"><use xlink:href="#x" overflow="visible"/></clipPath><linearGradient id="z" gradientUnits="userSpaceOnUse" y1="70" x2="1" y2="70" gradientTransform="scale(71.3341 -71.3341) rotate(-12.413 -324.04 33.914)"><stop offset="0" stop-color="#f6891f"/><stop offset=".136" stop-color="#f47920"/><stop offset=".392" stop-color="#f15b22"/><stop offset=".629" stop-color="#ef4123"/><stop offset=".839" stop-color="#ee2b24"/><stop offset="1" stop-color="#ed2224"/></linearGradient><path clip-path="url(#y)" fill="url(#z)" d="M59.656 43.606l4.215.927-.855 3.884-4.215-.927z"/><defs><path id="A" d="M30.641 13.076l-.014.007a1.61 1.61 0 0 0-.716 2.166c.283.566.856.891 1.45.891a1.616 1.616 0 1 0-.72-3.064"/></defs><clipPath id="B"><use xlink:href="#A" overflow="visible"/></clipPath><linearGradient id="C" gradientUnits="userSpaceOnUse" y1="70" x2="1" y2="70" gradientTransform="scale(71.3341 -71.3341) rotate(-12.413 -322.472 33.744)"><stop offset="0" stop-color="#f6891f"/><stop offset=".136" stop-color="#f47920"/><stop offset=".392" stop-color="#f15b22"/><stop offset=".629" stop-color="#ef4123"/><stop offset=".839" stop-color="#ee2b24"/><stop offset="1" stop-color="#ed2224"/></linearGradient><path clip-path="url(#B)" fill="url(#C)" d="M29.683 12.128l4.207.926-.85 3.863-4.207-.926z"/><defs><path id="D" d="M35.536 11.261l-.038.009a1.621 1.621 0 0 0-1.166 1.971 1.616 1.616 0 0 0 1.967 1.162 1.617 1.617 0 1 0-.763-3.142"/></defs><clipPath id="E"><use xlink:href="#D" overflow="visible"/></clipPath><linearGradient id="F" gradientUnits="userSpaceOnUse" y1="70" x2="1" y2="70" gradientTransform="scale(71.3341 -71.3341) rotate(-12.413 -322.303 33.725)"><stop offset="0" stop-color="#f6891f"/><stop offset=".136" stop-color="#f47920"/><stop offset=".392" stop-color="#f15b22"/><stop offset=".629" stop-color="#ef4123"/><stop offset=".839" stop-color="#ee2b24"/><stop offset="1" stop-color="#ed2224"/></linearGradient><path clip-path="url(#E)" fill="url(#F)" d="M34.275 10.461l4.104.904-.846 3.844-4.104-.904z"/><defs><path id="G" d="M26.263 15.885l1.002 1.268-1.008-1.265a1.619 1.619 0 0 0 1.009 2.882 1.61 1.61 0 0 0 1.006-.352l.021-.017a1.617 1.617 0 0 0-2.03-2.516"/></defs><clipPath id="H"><use xlink:href="#G" overflow="visible"/></clipPath><linearGradient id="I" gradientUnits="userSpaceOnUse" y1="70" x2="1" y2="70" gradientTransform="scale(71.3341 -71.3341) rotate(-12.413 -322.694 33.768)"><stop offset="0" stop-color="#f6891f"/><stop offset=".136" stop-color="#f47920"/><stop offset=".392" stop-color="#f15b22"/><stop offset=".629" stop-color="#ef4123"/><stop offset=".839" stop-color="#ee2b24"/><stop offset="1" stop-color="#ed2224"/></linearGradient><path clip-path="url(#H)" fill="url(#I)" d="M25.613 14.762l4.162.916-.85 3.858-4.162-.916z"/><clipPath id="J"><use xlink:href="#J" overflow="visible"/></clipPath><linearGradient id="K" gradientUnits="userSpaceOnUse" y1="70" x2="1" y2="70" gradientTransform="scale(71.3341 -71.3341) rotate(-12.413 -323.56 33.862)"><stop offset="0" stop-color="#f6891f"/><stop offset=".136" stop-color="#f47920"/><stop offset=".392" stop-color="#f15b22"/><stop offset=".629" stop-color="#ef4123"/><stop offset=".839" stop-color="#ee2b24"/><stop offset="1" stop-color="#ed2224"/></linearGradient><path clip-path="url(#J)" fill="url(#K)" d="M17.867 26.829l4.09.9-.847 3.848-4.09-.9z"/><defs><path id="L" d="M17.176 33.907a1.615 1.615 0 0 0 1.566 1.725l.048.001a1.62 1.62 0 0 0 1.616-1.559 1.62 1.62 0 0 0-1.522-1.688l-.092-.002c-.853 0-1.566.663-1.616 1.523"/></defs><clipPath id="M"><use xlink:href="#L" overflow="visible"/></clipPath><linearGradient id="N" gradientUnits="userSpaceOnUse" y1="70" x2="1" y2="70" gradientTransform="scale(71.3341 -71.3341) rotate(-12.413 -323.873 33.896)"><stop offset="0" stop-color="#f6891f"/><stop offset=".136" stop-color="#f47920"/><stop offset=".392" stop-color="#f15b22"/><stop offset=".629" stop-color="#ef4123"/><stop offset=".839" stop-color="#ee2b24"/><stop offset="1" stop-color="#ed2224"/></linearGradient><path clip-path="url(#M)" fill="url(#N)" d="M17.299 31.692l3.828.842-.834 3.791-3.828-.842z"/><defs><path id="O" d="M19.766 23.898l-.026.052a1.614 1.614 0 0 0 1.449 2.328 1.62 1.62 0 0 0 1.449-.895 1.617 1.617 0 0 0-2.872-1.485"/></defs><clipPath id="P"><use xlink:href="#O" overflow="visible"/></clipPath><linearGradient id="Q" gradientUnits="userSpaceOnUse" y1="70" x2="1" y2="70" gradientTransform="scale(71.3341 -71.3341) rotate(-12.413 -323.251 33.828)"><stop offset="0" stop-color="#f6891f"/><stop offset=".136" stop-color="#f47920"/><stop offset=".392" stop-color="#f15b22"/><stop offset=".629" stop-color="#ef4123"/><stop offset=".839" stop-color="#ee2b24"/><stop offset="1" stop-color="#ed2224"/></linearGradient><path clip-path="url(#P)" fill="url(#Q)" d="M19.517 22.257l4.204.925-.852 3.871-4.204-.925z"/><defs><path id="R" d="M22.593 19.537l-.034.041a1.615 1.615 0 0 0 1.266 2.62 1.62 1.62 0 0 0 1.264-.605 1.617 1.617 0 0 0-2.496-2.056"/></defs><clipPath id="S"><use xlink:href="#R" overflow="visible"/></clipPath><linearGradient id="T" gradientUnits="userSpaceOnUse" y1="70" x2="1" y2="70" gradientTransform="scale(71.3341 -71.3341) rotate(-12.413 -322.958 33.796)"><stop offset="0" stop-color="#f6891f"/><stop offset=".136" stop-color="#f47920"/><stop offset=".392" stop-color="#f15b22"/><stop offset=".629" stop-color="#ef4123"/><stop offset=".839" stop-color="#ee2b24"/><stop offset="1" stop-color="#ed2224"/></linearGradient><path clip-path="url(#S)" fill="url(#T)" d="M22.172 18.189l4.159.915-.849 3.859-4.159-.915z"/><defs><path id="U" d="M18.834 37.255a1.62 1.62 0 0 0-1.307 1.878l.004.015a1.607 1.607 0 0 0 1.874 1.299 1.625 1.625 0 0 0 1.306-1.885 1.617 1.617 0 0 0-1.877-1.307"/></defs><clipPath id="V"><use xlink:href="#U" overflow="visible"/></clipPath><linearGradient id="W" gradientUnits="userSpaceOnUse" y1="70" x2="1" y2="70" gradientTransform="scale(71.3341 -71.3341) rotate(-12.413 -324.173 33.929)"><stop offset="0" stop-color="#f6891f"/><stop offset=".136" stop-color="#f47920"/><stop offset=".392" stop-color="#f15b22"/><stop offset=".629" stop-color="#ef4123"/><stop offset=".839" stop-color="#ee2b24"/><stop offset="1" stop-color="#ed2224"/></linearGradient><path clip-path="url(#V)" fill="url(#W)" d="M17.533 36.496l4.016.884-.843 3.827-4.016-.884z"/><defs><path id="X" d="M43 32.161a4.263 4.263 0 0 1 3.95-2.639 4.28 4.28 0 0 1 4.275 4.275 4.24 4.24 0 0 1-1.198 2.967l-8.524 6.789-8.191-6.484a4.263 4.263 0 0 1-1.525-3.272 4.28 4.28 0 0 1 4.274-4.275 4.264 4.264 0 0 1 3.951 2.639 1.617 1.617 0 0 0 2.988 0m-1.494-3.541a7.49 7.49 0 0 0-5.445-2.332c-4.14 0-7.508 3.368-7.508 7.509 0 2.232.986 4.336 2.703 5.768l.032.027 9.215 7.293a1.61 1.61 0 0 0 2.01-.002l9.605-7.65c.047-.038.092-.079.134-.12a7.46 7.46 0 0 0 2.207-5.316c0-4.141-3.369-7.509-7.509-7.509a7.491 7.491 0 0 0-5.444 2.332"/></defs><clipPath id="Y"><use xlink:href="#X" overflow="visible"/></clipPath><linearGradient id="Z" gradientUnits="userSpaceOnUse" y1="69.991" x2="1" y2="69.991" gradientTransform="scale(71.3341 -71.3341) rotate(-12.413 -323.69 33.876)"><stop offset="0" stop-color="#f6891f"/><stop offset=".136" stop-color="#f47920"/><stop offset=".392" stop-color="#f15b22"/><stop offset=".629" stop-color="#ef4123"/><stop offset=".839" stop-color="#ee2b24"/><stop offset="1" stop-color="#ed2224"/></linearGradient><path clip-path="url(#Y)" fill="url(#Z)" d="M29.75 20.85l29.106 6.406-5.594 25.417-29.106-6.406z"/><defs><path id="aa" d="M0 0h82.797v70H0z"/></defs><clipPath id="ab"><use xlink:href="#aa" overflow="visible"/></clipPath><path d="M3.228 58.733a1.61 1.61 0 1 1-3.221 0 1.61 1.61 0 0 1 3.221 0m79.563-47.466a1.61 1.61 0 1 1-3.221 0 1.61 1.61 0 0 1 3.221 0" clip-path="url(#ab)" fill="#19478a"/></svg>