<svg xmlns="http://www.w3.org/2000/svg" xmlns:xlink="http://www.w3.org/1999/xlink" viewBox="0 0 125.85 125.85"><defs><style>.cls-1{fill:#1c4693;}.cls-2{fill:url(#linear-gradient);}</style><linearGradient id="linear-gradient" x1="42.65" y1="85.48" x2="87.96" y2="40.18" gradientUnits="userSpaceOnUse"><stop offset="0" stop-color="#ff8900"/><stop offset="0.01" stop-color="#ff8700"/><stop offset="0.25" stop-color="#ff5700"/><stop offset="0.47" stop-color="#ff3100"/><stop offset="0.68" stop-color="#ff1600"/><stop offset="0.86" stop-color="#ff0600"/><stop offset="1" stop-color="red"/></linearGradient></defs><title>ic-facebook</title><g id="Layer_2" data-name="Layer 2"><g id="Isolation_Mode" data-name="Isolation Mode"><g id="_Group_" data-name="&lt;Group&gt;"><path id="_Compound_Path_" data-name="&lt;Compound Path&gt;" class="cls-1" d="M62.93,11.17A51.76,51.76,0,1,1,11.17,62.93,51.82,51.82,0,0,1,62.93,11.17M62.93,0a62.93,62.93,0,1,0,62.93,62.93A62.93,62.93,0,0,0,62.93,0Z"/><g id="_Group_2" data-name="&lt;Group&gt;"><path id="_Compound_Path_2" data-name="&lt;Compound Path&gt;" class="cls-2" d="M53.12,96V61.42H47.26V51.15h5.86V49.41c0-5.4,1.65-11.36,5.68-15,3.48-3.3,8.34-4.49,12.37-4.49a26.74,26.74,0,0,1,7.42.92L78,41.53a15.08,15.08,0,0,0-4.49-.64c-4.58,0-6.5,3.57-6.5,8v2.29h9V61.42H67.14V96Z"/></g></g></g></g></svg>