<svg xmlns="http://www.w3.org/2000/svg" xmlns:xlink="http://www.w3.org/1999/xlink" viewBox="0 0 55.92 55.92"><defs><style>.cls-1{fill:none;}.cls-2{fill:#164397;}.cls-3{fill:url(#linear-gradient);}</style><linearGradient id="linear-gradient" x1="0.79" y1="14.97" x2="21.21" y2="14.97" gradientTransform="translate(15.33 14.78) rotate(-9.37)" gradientUnits="userSpaceOnUse"><stop offset="0" stop-color="red"/><stop offset="0.14" stop-color="#ff0600"/><stop offset="0.32" stop-color="#ff1600"/><stop offset="0.53" stop-color="#ff3100"/><stop offset="0.75" stop-color="#ff5700"/><stop offset="0.99" stop-color="#ff8700"/><stop offset="1" stop-color="#ff8900"/></linearGradient></defs><title>ic-global</title><g id="Layer_2" data-name="Layer 2"><g id="Layer_1-2" data-name="Layer 1"><path class="cls-1" d="M40,11.8a24.7,24.7,0,0,0,3.91-2.71,25,25,0,0,0-8-4.52A21.87,21.87,0,0,1,38.71,8.8,26.38,26.38,0,0,1,40,11.8Z"/><path class="cls-1" d="M15.93,44.19a24.63,24.63,0,0,0-3.88,2.69A25,25,0,0,0,20,51.37a22.13,22.13,0,0,1-2.74-4.24A30.39,30.39,0,0,1,15.93,44.19Z"/><path class="cls-1" d="M20,4.57a24.88,24.88,0,0,0-8,4.52,25.22,25.22,0,0,0,3.91,2.71c.4-1.05.84-2.06,1.31-3A21.75,21.75,0,0,1,20,4.57Z"/><path class="cls-1" d="M26.36,14.88V3.73c-2.31.72-4.46,2.95-6.26,6.5a29.6,29.6,0,0,0-1.27,3A24.68,24.68,0,0,0,26.36,14.88Z"/><path class="cls-1" d="M35.83,10.23C34,6.68,31.88,4.45,29.58,3.73V14.88a25,25,0,0,0,7.53-1.69A27.47,27.47,0,0,0,35.83,10.23Z"/><path class="cls-1" d="M52.65,26.35a24.74,24.74,0,0,0-6.39-15,28,28,0,0,1-5.21,3.59,48.37,48.37,0,0,1,1.67,11.42Z"/><path class="cls-1" d="M9.67,11.34a24.79,24.79,0,0,0-6.38,15h9.93a48,48,0,0,1,1.66-11.42A28.56,28.56,0,0,1,9.67,11.34Z"/><path class="cls-1" d="M3.29,29.58A24.78,24.78,0,0,0,9.72,44.63a27.35,27.35,0,0,1,5.18-3.56,48.09,48.09,0,0,1-1.68-11.49Z"/><path class="cls-1" d="M20.1,45.69c1.8,3.55,3.95,5.79,6.26,6.5V41.12a24.52,24.52,0,0,0-7.51,1.68A27.87,27.87,0,0,0,20.1,45.69Z"/><path class="cls-1" d="M36,51.36a24.86,24.86,0,0,0,7.91-4.49A25.11,25.11,0,0,0,40,44.18a30.35,30.35,0,0,1-1.3,2.94A21.66,21.66,0,0,1,36,51.36Z"/><path class="cls-1" d="M46.24,44.63a24.9,24.9,0,0,0,6.43-15.05H42.74a48.16,48.16,0,0,1-1.69,11.49A27.45,27.45,0,0,1,46.24,44.63Z"/><path class="cls-1" d="M29.59,41.12V52.19c2.31-.71,4.46-2.95,6.25-6.5A27.85,27.85,0,0,0,37.1,42.8,24.78,24.78,0,0,0,29.59,41.12Z"/><path class="cls-2" d="M47.2,8.73h0A27.2,27.2,0,0,0,.76,28,27.21,27.21,0,0,0,28,55.17,27.23,27.23,0,0,0,55.17,28,27,27,0,0,0,47.2,8.73Zm-.88,1.56.25.27a25.47,25.47,0,0,1,6.85,16.15l0,.39H42v-.37a47.42,47.42,0,0,0-1.73-11.89l-.08-.3.27-.14A26.62,26.62,0,0,0,46,10.53ZM34.85,3.43a25.32,25.32,0,0,1,9.91,5.38l.33.28-.33.29A25.92,25.92,0,0,1,40,12.68l-.39.21-.15-.42A28.75,28.75,0,0,0,38,9.14a19.41,19.41,0,0,0-3.56-5.08l-1-1Zm-6-.66.46.1c2.71.6,5.21,3,7.23,7A29.76,29.76,0,0,1,38,13.28l.11.34-.33.13a25.62,25.62,0,0,1-8.51,1.91l-.4,0Zm-2.17.1.46-.1V15.68l-.39,0a25.51,25.51,0,0,1-8.52-1.91l-.33-.13.12-.34a28.3,28.3,0,0,1,1.44-3.39C21.45,5.9,24,3.47,26.65,2.87ZM11.17,8.81a25.39,25.39,0,0,1,9.91-5.38l1.4-.4-1,1A19.53,19.53,0,0,0,17.9,9.14a32,32,0,0,0-1.44,3.34l-.15.41-.38-.21a25.74,25.74,0,0,1-4.76-3.3l-.32-.29ZM2.51,26.71A25.48,25.48,0,0,1,9.37,10.56l.25-.27.28.24a27.27,27.27,0,0,0,5.6,3.87l.28.14-.09.3A47.71,47.71,0,0,0,14,26.73v.37H2.49Zm7.16,19-.26-.27a25.5,25.5,0,0,1-6.9-16.19l0-.4H14v.37a46.69,46.69,0,0,0,1.76,12l.08.3-.27.15a26.52,26.52,0,0,0-5.59,3.84Zm11.41,6.83a25.72,25.72,0,0,1-9.86-5.35l-.33-.28.33-.29A26.1,26.1,0,0,1,16,43.31l.38-.2.15.41a29.72,29.72,0,0,0,1.42,3.26,19.86,19.86,0,0,0,3.55,5.1l1,1Zm6,.65-.46-.1c-2.7-.61-5.2-3-7.22-7A28.38,28.38,0,0,1,18,42.72l-.12-.34.34-.14a25.25,25.25,0,0,1,8.49-1.9l.39,0Zm0-15.3v.74l-.36,0a26.87,26.87,0,0,0-9,2l-.4.16-.11-.4a45.28,45.28,0,0,1-1.58-11.12v-.39h.76V27.1h-.77v-.38a45.4,45.4,0,0,1,1.56-11l.11-.41.39.16a27,27,0,0,0,9,2l.36,0v.71h1.73v-.69h.36a27.74,27.74,0,0,0,9-2l.39-.16.12.41a45.48,45.48,0,0,1,1.55,11.05v.38h-.77v1.71h.78v.39a45.77,45.77,0,0,1-1.57,11.12l-.12.4-.39-.16a27.43,27.43,0,0,0-9-2l-.36,0v-.74Zm2.18,15.2-.46.1V40.32l.4,0a25.47,25.47,0,0,1,8.49,1.9l.34.14-.13.34A29.14,29.14,0,0,1,36.52,46C34.5,50,32,52.45,29.29,53.06Zm15.44-5.91a25.43,25.43,0,0,1-9.87,5.35l-1.39.39,1-1a19.66,19.66,0,0,0,3.55-5.1,29.14,29.14,0,0,0,1.41-3.27l.15-.4.39.2a25.61,25.61,0,0,1,4.73,3.28l.32.29Zm1.81-1.74-.25.27L46,45.44a27,27,0,0,0-5.59-3.84l-.27-.15.08-.3a47.65,47.65,0,0,0,1.76-12v-.37H53.47l0,.4A25.56,25.56,0,0,1,46.54,45.41Z"/><path class="cls-2" d="M16.13,43.65a25,25,0,0,0-4.66,3.23,25.24,25.24,0,0,0,9.71,5.27A20.22,20.22,0,0,1,17.56,47,31.11,31.11,0,0,1,16.13,43.65Zm-4.08,3.23a24.63,24.63,0,0,1,3.88-2.69,30.39,30.39,0,0,0,1.29,2.94A22.13,22.13,0,0,0,20,51.37,25,25,0,0,1,12.05,46.88Z"/><path class="cls-2" d="M39.5,29.58a44.77,44.77,0,0,1-1.43,10.14,28,28,0,0,0-8.49-1.84v0H29.2v.38a27.94,27.94,0,0,1,9.12,2,45.42,45.42,0,0,0,1.57-11h-.4v.38Z"/><path class="cls-2" d="M40.61,41.26a27.78,27.78,0,0,1,5.66,3.89,25.15,25.15,0,0,0,6.8-15.95H42.37A48.24,48.24,0,0,1,40.61,41.26ZM52.67,29.58a24.9,24.9,0,0,1-6.43,15.05,27.45,27.45,0,0,0-5.19-3.56,48.16,48.16,0,0,0,1.69-11.49Z"/><path class="cls-2" d="M38.39,46.94a20,20,0,0,1-3.63,5.2,24.94,24.94,0,0,0,9.72-5.27,25.42,25.42,0,0,0-4.66-3.24A30.25,30.25,0,0,1,38.39,46.94Zm5.51-.07A24.86,24.86,0,0,1,36,51.36a21.66,21.66,0,0,0,2.73-4.24A30.35,30.35,0,0,0,40,44.18,25.11,25.11,0,0,1,43.9,46.87Z"/><path class="cls-2" d="M2.89,29.2a25,25,0,0,0,6.8,16,27.39,27.39,0,0,1,5.66-3.89A48.17,48.17,0,0,1,13.58,29.2ZM9.72,44.63A24.78,24.78,0,0,1,3.29,29.58h9.93A48.09,48.09,0,0,0,14.9,41.07,27.35,27.35,0,0,0,9.72,44.63Z"/><path class="cls-2" d="M38.33,15.78a27.64,27.64,0,0,1-9.13,2v.33H30a28.17,28.17,0,0,0,8.13-1.81,44.69,44.69,0,0,1,1.4,10v.43h.38A45.43,45.43,0,0,0,38.33,15.78Z"/><path class="cls-2" d="M9.64,10.82a25,25,0,0,0-6.75,15.9H13.58a47.37,47.37,0,0,1,1.75-12A28.07,28.07,0,0,1,9.64,10.82Zm3.58,15.53H3.29a24.79,24.79,0,0,1,6.38-15,28.56,28.56,0,0,0,5.21,3.59A48,48,0,0,0,13.22,26.35Z"/><path class="cls-2" d="M36.17,10.06c-2-3.87-4.39-6.25-7-6.82v12a25.19,25.19,0,0,0,8.39-1.89A28.89,28.89,0,0,0,36.17,10.06ZM29.58,3.73c2.3.72,4.46,2.95,6.25,6.5a27.47,27.47,0,0,1,1.28,3,25,25,0,0,1-7.53,1.69Z"/><path class="cls-2" d="M39.83,12.35a25,25,0,0,0,4.68-3.26,25,25,0,0,0-9.76-5.3A19.83,19.83,0,0,1,38.38,9,28.87,28.87,0,0,1,39.83,12.35Zm4.11-3.26A24.7,24.7,0,0,1,40,11.8a26.38,26.38,0,0,0-1.32-3A21.87,21.87,0,0,0,36,4.57,25,25,0,0,1,43.94,9.09Z"/><path class="cls-2" d="M47.73,8.2A28,28,0,0,0,0,28a28,28,0,0,0,28,28,28,28,0,0,0,28-28A27.74,27.74,0,0,0,47.73,8.2Zm-.27,39.26a27.55,27.55,0,0,1-39,0A27.58,27.58,0,0,1,28,.38a27.57,27.57,0,0,1,19.5,47.08Z"/><path class="cls-2" d="M17.56,9a20,20,0,0,1,3.62-5.18,25,25,0,0,0-9.76,5.3,25.75,25.75,0,0,0,4.69,3.26A32.71,32.71,0,0,1,17.56,9ZM12,9.09a24.88,24.88,0,0,1,8-4.52A21.75,21.75,0,0,0,17.22,8.8c-.47.94-.91,1.95-1.31,3A25.22,25.22,0,0,1,12,9.09Z"/><path class="cls-2" d="M26.74,15.29v-12c-2.58.57-5,3-7,6.82a27.25,27.25,0,0,0-1.42,3.34A25.08,25.08,0,0,0,26.74,15.29ZM20.1,10.23c1.8-3.55,3.95-5.78,6.26-6.5V14.88a24.68,24.68,0,0,1-7.53-1.69A29.6,29.6,0,0,1,20.1,10.23Z"/><path class="cls-2" d="M19.77,45.86c1.95,3.88,4.39,6.25,7,6.83v-12a24.75,24.75,0,0,0-8.37,1.87A28.7,28.7,0,0,0,19.77,45.86Zm6.59,6.33c-2.31-.71-4.46-2.95-6.26-6.5a27.87,27.87,0,0,1-1.25-2.89,24.52,24.52,0,0,1,7.51-1.68Z"/><path class="cls-2" d="M17.58,15.77a45.42,45.42,0,0,0-1.54,11h.38v-.43a44,44,0,0,1,1.41-10,27.62,27.62,0,0,0,8.4,1.82h.47v-.35A27.25,27.25,0,0,1,17.58,15.77Z"/><path class="cls-2" d="M29.21,40.72v12c2.58-.58,5-2.95,7-6.83a28.7,28.7,0,0,0,1.4-3.27A25.3,25.3,0,0,0,29.21,40.72Zm6.63,5c-1.79,3.55-3.94,5.79-6.25,6.5V41.12A24.78,24.78,0,0,1,37.1,42.8,27.85,27.85,0,0,1,35.84,45.69Z"/><path class="cls-2" d="M53.05,26.72a25.08,25.08,0,0,0-6.76-15.9,27.23,27.23,0,0,1-5.68,3.91,48.22,48.22,0,0,1,1.74,12ZM46.26,11.34a24.74,24.74,0,0,1,6.39,15H42.72a48.37,48.37,0,0,0-1.67-11.42A28,28,0,0,0,46.26,11.34Z"/><path class="cls-2" d="M17.62,40.22a27.38,27.38,0,0,1,9.12-2v-.38h-.38v0a27.46,27.46,0,0,0-8.49,1.84,44.92,44.92,0,0,1-1.43-10l0-.11V29.2h-.37A44.93,44.93,0,0,0,17.62,40.22Z"/><path class="cls-2" d="M47.46,8.46A27.58,27.58,0,0,0,.38,28,27.6,27.6,0,0,0,28,55.55,27.62,27.62,0,0,0,55.55,28,27.36,27.36,0,0,0,47.46,8.46ZM47.19,47.2a27.18,27.18,0,0,1-38.46,0,27.2,27.2,0,0,1,0-38.47,27.18,27.18,0,0,1,38.46,0h0a27.18,27.18,0,0,1,0,38.47Z"/><path class="cls-2" d="M40.16,14.54l.08.3A47.42,47.42,0,0,1,42,26.73v.37H53.44l0-.39a25.47,25.47,0,0,0-6.85-16.15l-.25-.27-.28.24a26.62,26.62,0,0,1-5.61,3.87Zm6.13-3.72a25.08,25.08,0,0,1,6.76,15.9H42.35a48.22,48.22,0,0,0-1.74-12A27.23,27.23,0,0,0,46.29,10.82Z"/><path class="cls-2" d="M15.93,12.68l.38.21.15-.41A32,32,0,0,1,17.9,9.14a19.53,19.53,0,0,1,3.55-5.08l1-1-1.4.4a25.39,25.39,0,0,0-9.91,5.38l-.32.28.32.29A25.74,25.74,0,0,0,15.93,12.68Zm5.25-8.89A20,20,0,0,0,17.56,9a32.71,32.71,0,0,0-1.45,3.38,25.75,25.75,0,0,1-4.69-3.26A25,25,0,0,1,21.18,3.79Z"/><path class="cls-2" d="M14,26.73a47.71,47.71,0,0,1,1.73-11.89l.09-.3-.28-.14a27.27,27.27,0,0,1-5.6-3.87l-.28-.24-.25.27A25.48,25.48,0,0,0,2.51,26.71l0,.39H14Zm-11.07,0a25,25,0,0,1,6.75-15.9,28.07,28.07,0,0,0,5.69,3.91,47.37,47.37,0,0,0-1.75,12Z"/><path class="cls-2" d="M37.93,42.72l.13-.34-.34-.14a25.47,25.47,0,0,0-8.49-1.9l-.4,0V53.16l.46-.1c2.71-.61,5.21-3,7.23-7A29.14,29.14,0,0,0,37.93,42.72Zm-8.72,10v-12a25.3,25.3,0,0,1,8.37,1.87,28.7,28.7,0,0,1-1.4,3.27C34.22,49.74,31.79,52.11,29.21,52.69Z"/><path class="cls-2" d="M38,9.14a28.75,28.75,0,0,1,1.43,3.33l.15.42.39-.21a25.92,25.92,0,0,0,4.75-3.3l.33-.29-.33-.28a25.32,25.32,0,0,0-9.91-5.38L33.45,3l1,1A19.41,19.41,0,0,1,38,9.14Zm6.47-.05a25,25,0,0,1-4.68,3.26A28.87,28.87,0,0,0,38.38,9a19.83,19.83,0,0,0-3.63-5.18A25,25,0,0,1,44.51,9.09Z"/><path class="cls-2" d="M18,13.28l-.12.34.33.13a25.51,25.51,0,0,0,8.52,1.91l.39,0V2.77l-.46.1c-2.7.6-5.2,3-7.22,7A28.3,28.3,0,0,0,18,13.28Zm8.75-10v12a25.08,25.08,0,0,1-8.39-1.89,27.25,27.25,0,0,1,1.42-3.34C21.72,6.19,24.16,3.81,26.74,3.24Z"/><path class="cls-2" d="M42,28.82v.37a47.65,47.65,0,0,1-1.76,12l-.08.3.27.15A27,27,0,0,1,46,45.44l.27.24.25-.27a25.56,25.56,0,0,0,6.91-16.19l0-.4Zm4.27,16.33a27.78,27.78,0,0,0-5.66-3.89A48.24,48.24,0,0,0,42.37,29.2h10.7A25.15,25.15,0,0,1,46.27,45.15Z"/><path class="cls-2" d="M26.74,38.24a27.38,27.38,0,0,0-9.12,2,44.93,44.93,0,0,1-1.57-11h.37v-.38h-.76v.39a45.28,45.28,0,0,0,1.58,11.12l.11.4.4-.16a26.87,26.87,0,0,1,9-2l.36,0v-.74h-.37Z"/><path class="cls-2" d="M37.73,13.75l.33-.13L38,13.28a29.76,29.76,0,0,0-1.44-3.39c-2-4-4.52-6.42-7.23-7l-.46-.1V15.68l.4,0A25.62,25.62,0,0,0,37.73,13.75ZM29.2,3.24c2.58.57,5,3,7,6.82a28.89,28.89,0,0,1,1.42,3.34,25.19,25.19,0,0,1-8.39,1.89Z"/><path class="cls-2" d="M29.2,17.77a27.64,27.64,0,0,0,9.13-2,45.43,45.43,0,0,1,1.54,11h-.38v.37h.77v-.38a45.48,45.48,0,0,0-1.55-11l-.12-.41-.39.16a27.74,27.74,0,0,1-9,2h-.36v.69h.38Z"/><path class="cls-2" d="M18.23,42.24l-.34.14.12.34A28.38,28.38,0,0,0,19.43,46c2,4,4.52,6.42,7.22,7l.46.1V40.32l-.39,0A25.25,25.25,0,0,0,18.23,42.24Zm8.51,10.45c-2.58-.58-5-2.95-7-6.83a28.7,28.7,0,0,1-1.4-3.27,24.75,24.75,0,0,1,8.37-1.87Z"/><path class="cls-2" d="M16,26.72a45.42,45.42,0,0,1,1.54-10.95,27.25,27.25,0,0,0,9.13,2v.35h.38v-.71l-.36,0a27,27,0,0,1-9-2l-.39-.16-.11.41a45.4,45.4,0,0,0-1.56,11v.38h.77v-.38Z"/><path class="cls-2" d="M40,43.3l-.39-.2-.15.4a29.14,29.14,0,0,1-1.41,3.27,19.66,19.66,0,0,1-3.55,5.1l-1,1,1.39-.39a25.43,25.43,0,0,0,9.87-5.35l.32-.28-.32-.29A25.61,25.61,0,0,0,40,43.3Zm-5.24,8.84a20,20,0,0,0,3.63-5.2,30.25,30.25,0,0,0,1.43-3.31,25.42,25.42,0,0,1,4.66,3.24A24.94,24.94,0,0,1,34.76,52.14Z"/><path class="cls-2" d="M17.9,46.78a29.72,29.72,0,0,1-1.42-3.26l-.15-.41-.38.2a26.1,26.1,0,0,0-4.73,3.28l-.33.29.33.28a25.72,25.72,0,0,0,9.86,5.35l1.4.39-1-1A19.86,19.86,0,0,1,17.9,46.78Zm-6.43.1a25,25,0,0,1,4.66-3.23A31.11,31.11,0,0,0,17.56,47a20.22,20.22,0,0,0,3.62,5.19A25.24,25.24,0,0,1,11.47,46.88Z"/><path class="cls-2" d="M29.18,38.62a27.43,27.43,0,0,1,9,2l.39.16.12-.4a45.77,45.77,0,0,0,1.57-11.12v-.39h-.78v.38h.4a45.42,45.42,0,0,1-1.57,11,27.94,27.94,0,0,0-9.12-2v-.38h-.38v.74Z"/><path class="cls-2" d="M15.8,41.45l-.08-.3a46.69,46.69,0,0,1-1.76-12v-.37H2.49l0,.4a25.5,25.5,0,0,0,6.9,16.19l.26.27.27-.24a26.52,26.52,0,0,1,5.59-3.84Zm-6.11,3.7A25,25,0,0,1,2.89,29.2H13.58a48.17,48.17,0,0,0,1.77,12.06A27.39,27.39,0,0,0,9.69,45.15Z"/><path class="cls-3" d="M27.07,28.81c-.53,1-1.11,2.12-1.56,3.21a20.23,20.23,0,0,0-1.12-2.41A15.71,15.71,0,0,0,22,26.48l-3.6,2a8.05,8.05,0,0,1,.7.62,17.37,17.37,0,0,1,1.71,2,18,18,0,0,1,2.95,6.34h0v0l.24-.36L24.1,37a47.52,47.52,0,0,1,3.3-4.3c.77-.89,1.65-1.82,2.6-2.72a21.26,21.26,0,0,1,6.77-4.52h0l.49-8A34.64,34.64,0,0,0,27.07,28.81Z"/></g></g></svg>