<svg xmlns="http://www.w3.org/2000/svg" xmlns:xlink="http://www.w3.org/1999/xlink" viewBox="0 0 77.685 70"><defs><path id="a" d="M29.695 0a5.182 5.182 0 0 0-5.177 5.177v2.378a1.517 1.517 0 1 0 3.034 0V5.177c0-1.181.961-2.142 2.143-2.142h18.478c1.181 0 2.142.961 2.142 2.142v2.378a1.518 1.518 0 0 0 3.035 0V5.177A5.182 5.182 0 0 0 48.173 0H29.695z"/></defs><clipPath id="b"><use xlink:href="#a" overflow="visible"/></clipPath><linearGradient id="c" gradientUnits="userSpaceOnUse" y1="70.003" x2="1" y2="70.003" gradientTransform="matrix(50.6667 4 4 -50.6667 -264.616 3549.482)"><stop offset="0" stop-color="#f6891f"/><stop offset=".136" stop-color="#f47920"/><stop offset=".392" stop-color="#f15b22"/><stop offset=".629" stop-color="#ef4123"/><stop offset=".839" stop-color="#ee2b24"/><stop offset="1" stop-color="#ed2224"/></linearGradient><path clip-path="url(#b)" fill="url(#c)" d="M24.697-2.262L54.062.056l-.891 11.279-29.365-2.318z"/><defs><path id="d" d="M0 0h77.685v70H0z"/></defs><clipPath id="e"><use xlink:href="#d" overflow="visible"/></clipPath><path d="M70.277 12.259H7.408C3.322 12.259 0 15.582 0 19.666V33.14c0 .672.443 1.265 1.088 1.455l.924.273v31.785A3.351 3.351 0 0 0 5.359 70h66.966a3.35 3.35 0 0 0 3.346-3.347V35.091l.917-.264a1.518 1.518 0 0 0 1.097-1.458V19.666c0-4.084-3.324-7.407-7.408-7.407M13.539 66.965h-8.18a.312.312 0 0 1-.312-.312v-8.18h4.364a4.132 4.132 0 0 1 4.128 4.129v4.363zm59.098-.312c0 .172-.14.312-.312.312h-8.18v-4.363a4.133 4.133 0 0 1 4.129-4.129h4.363v8.18zm0-11.215h-4.363c-3.95 0-7.164 3.214-7.164 7.164v4.363H16.573v-4.363c0-3.951-3.213-7.164-7.162-7.164H5.047V35.763l26.789 7.901v4.876c0 .837.679 1.517 1.517 1.517h10.978c.838 0 1.517-.68 1.517-1.517v-4.836l26.789-7.736v19.47zM34.87 39.628h7.944v7.394H34.87v-7.394zm39.78-7.4l-28.802 8.318V38.11c0-.838-.679-1.517-1.517-1.517H33.353c-.838 0-1.517.679-1.517 1.517v2.39L3.034 32.006v-12.34a4.378 4.378 0 0 1 4.374-4.373h6.131v5.252a1.518 1.518 0 1 0 3.034 0v-5.252h43.988v5.252a1.518 1.518 0 1 0 3.035 0v-5.252h6.681a4.378 4.378 0 0 1 4.373 4.373v12.562z" clip-path="url(#e)" fill="#19478a"/><path d="M63.597 26.4a1.517 1.517 0 1 1-3.034 0 1.517 1.517 0 0 1 3.034 0m-47.024 0a1.518 1.518 0 1 1-3.035-.001 1.518 1.518 0 0 1 3.035.001" clip-path="url(#e)" fill="#19478a"/></svg>