<svg xmlns="http://www.w3.org/2000/svg" viewBox="0 0 42.54 42.54"><defs><style>.cls-1{fill:#1c468e;}.cls-2{fill:#db1f26;}</style></defs><title>ic-linkedin</title><g id="Layer_2" data-name="Layer 2"><g id="Layer_1-2" data-name="Layer 1"><g id="_Group_" data-name="&lt;Group&gt;"><path id="_Compound_Path_" data-name="&lt;Compound Path&gt;" class="cls-1" d="M21.27,3.77A17.49,17.49,0,1,1,3.77,21.27,17.51,17.51,0,0,1,21.27,3.77m0-3.77A21.27,21.27,0,1,0,42.54,21.27,21.27,21.27,0,0,0,21.27,0Z"/></g><rect class="cls-2" x="12.64" y="16.97" width="4.21" height="12.65"/><path class="cls-2" d="M30.68,18.13a4.53,4.53,0,0,0-3.51-1.45,5.07,5.07,0,0,0-1.46.2,3.33,3.33,0,0,0-1.11.56,5.48,5.48,0,0,0-.72.66,5.37,5.37,0,0,0-.5.67V17h-4.2v.61q0,.61,0,3.78t0,8.26h4.2V22.56a3.09,3.09,0,0,1,.14-1,2.71,2.71,0,0,1,.81-1.09A2.07,2.07,0,0,1,25.67,20a1.82,1.82,0,0,1,1.61.76,3.7,3.7,0,0,1,.52,2.1v6.76H32V22.37a6.07,6.07,0,0,0-1.33-4.24Zm0,0"/><path class="cls-2" d="M14.78,10.88a2.4,2.4,0,0,0-1.72.62,2.06,2.06,0,0,0-.66,1.56A2.09,2.09,0,0,0,13,14.62a2.3,2.3,0,0,0,1.68.62h0a2.4,2.4,0,0,0,1.73-.62,2,2,0,0,0,.64-1.56,2.13,2.13,0,0,0-.65-1.56,2.33,2.33,0,0,0-1.7-.62Zm0,0"/></g></g></svg>