<svg xmlns="http://www.w3.org/2000/svg" viewBox="0 0 83.69 83.69"><defs><style>.cls-1{fill:#fff;}.cls-2{fill:#18319b;}</style></defs><title>ic-linkedin-lg</title><g id="Layer_2" data-name="Layer 2"><g id="objects"><circle class="cls-1" cx="41.84" cy="41.84" r="41.84"/><circle class="cls-1" cx="41.84" cy="41.84" r="34.46"/><path class="cls-2" d="M61.65,44.59V58.31h-8V45.51c0-3.21-1.15-5.41-4-5.41A4.35,4.35,0,0,0,45.59,43,5.44,5.44,0,0,0,45.33,45V58.31h-8s.11-21.67,0-23.91h8v3.39l-.05.08h.05v-.08a7.89,7.89,0,0,1,7.17-4c5.23,0,9.15,3.42,9.15,10.76ZM29.06,22.87c-2.72,0-4.5,1.79-4.5,4.13A4.12,4.12,0,0,0,29,31.13H29c2.77,0,4.5-1.84,4.5-4.13a4.13,4.13,0,0,0-4.44-4.13ZM25,58.31H33V34.4H25Zm0,0"/></g></g></svg>