<svg xmlns="http://www.w3.org/2000/svg" xmlns:xlink="http://www.w3.org/1999/xlink" viewBox="0 0 176.15 173.05"><defs><style>.cls-1{fill:url(#linear-gradient);}.cls-2{fill:#164397;}</style><linearGradient id="linear-gradient" x1="176.15" y1="49.04" x2="0" y2="49.04" gradientUnits="userSpaceOnUse"><stop offset="0" stop-color="#ff8900"/><stop offset="0.01" stop-color="#ff8700"/><stop offset="0.25" stop-color="#ff5700"/><stop offset="0.47" stop-color="#ff3100"/><stop offset="0.68" stop-color="#ff1600"/><stop offset="0.86" stop-color="#ff0600"/><stop offset="1" stop-color="red"/></linearGradient></defs><title>ic-to-top</title><g id="Layer_2" data-name="Layer 2"><g id="Layer_4" data-name="Layer 4"><path class="cls-1" d="M166.15,98.08a10,10,0,0,1-7.07-2.93l-71-71-71,71A10,10,0,1,1,2.93,81L81,2.93a10,10,0,0,1,14.14,0L173.22,81a10,10,0,0,1-7.07,17.07Z"/><path class="cls-2" d="M166.15,173a10,10,0,0,1-7.07-2.93l-71-71-71,71A10,10,0,1,1,2.93,156L81,77.9a10,10,0,0,1,14.14,0L173.22,156A10,10,0,0,1,166.15,173Z"/></g></g></svg>