<?xml version="1.0" encoding="iso-8859-1"?>
<!-- Generator: Adobe Illustrator 19.0.0, SVG Export Plug-In . SVG Version: 6.00 Build 0)  -->
<svg version="1.1" id="Layer_1" xmlns="http://www.w3.org/2000/svg" xmlns:xlink="http://www.w3.org/1999/xlink" x="0px" y="0px"
	 viewBox="0 0 120 87" style="enable-background:new 0 0 120 87;" xml:space="preserve">
<path id="XMLID_5_" style="opacity:0.5;fill:#FFFFFF;" d="M101.167,86.233H21.375c-8.8,0-16-7.2-16-16V16.784c0-8.8,7.2-16,16-16
	h79.792c8.8,0,16,7.2,16,16v53.449C117.167,79.033,109.967,86.233,101.167,86.233z"/>
<g id="XMLID_2_" transform="translate(0,-952.36218)">
	
	<linearGradient id="XMLID_6_" gradientUnits="userSpaceOnUse" x1="78.0529" y1="995.8544" x2="50.4044" y2="995.8544">
		<stop  offset="0" style="stop-color:#F6891F"/>
		<stop  offset="0.1356" style="stop-color:#F47920"/>
		<stop  offset="0.3916" style="stop-color:#F15B22"/>
		<stop  offset="0.6293" style="stop-color:#EF4123"/>
		<stop  offset="0.8394" style="stop-color:#EE2B24"/>
		<stop  offset="1" style="stop-color:#ED2224"/>
	</linearGradient>
	<path id="XMLID_3_" style="fill:url(#XMLID_6_);" d="M77.723,994.768c-0.139-0.21-0.317-0.391-0.523-0.534l-23.708-15.836
		c-0.392-0.257-0.862-0.366-1.327-0.309c-1.006,0.111-1.766,0.964-1.76,1.976v31.611c0.01,1.091,0.903,1.968,1.994,1.958
		c0.377-0.003,0.746-0.115,1.062-0.321l23.708-15.806C78.078,996.904,78.327,995.678,77.723,994.768z"/>
</g>
</svg>
