<?xml version="1.0" encoding="iso-8859-1"?>
<!-- Generator: Adobe Illustrator 19.0.0, SVG Export Plug-In . SVG Version: 6.00 Build 0)  -->
<svg version="1.1" id="Layer_1" xmlns="http://www.w3.org/2000/svg" xmlns:xlink="http://www.w3.org/1999/xlink" x="0px" y="0px"
	 viewBox="0 0 120 87" style="enable-background:new 0 0 120 87;" xml:space="preserve">
<g id="XMLID_2_" transform="translate(0,-952.36218)">
	<path id="XMLID_4_" style="fill:#1B4695;" d="M28.456,964.26c-5.865,0-10.65,4.764-10.65,10.619v41.953
		c0,5.855,4.778,10.65,10.65,10.65h65.599c5.872,0,10.681-4.788,10.681-10.65v-41.953c0-5.862-4.816-10.619-10.681-10.619H38.612
		c-1.091-0.015-1.988,0.857-2.004,1.948c-0.015,1.091,0.857,1.988,1.948,2.004c0.019,0,0.037,0,0.056,0h55.443
		c3.757,0,6.73,2.944,6.73,6.668v41.953c0,3.724-2.98,6.699-6.73,6.699H28.456c-3.75,0-6.699-2.968-6.699-6.699v-41.953
		c0-3.731,2.942-6.668,6.699-6.668h2.284c1.091,0.015,1.988-0.857,2.004-1.948c0.015-1.091-0.857-1.988-1.948-2.004
		c-0.019,0-0.037,0-0.056,0H28.456z"/>
</g>
</svg>
