<svg xmlns="http://www.w3.org/2000/svg" xmlns:xlink="http://www.w3.org/1999/xlink" viewBox="0 0 50.625 70"><defs><path id="a" d="M19.739 45.942v-3.393h6.583v3.393a.711.711 0 0 1-.711.712H20.45a.712.712 0 0 1-.711-.712m-1.413-7.06v-1.817a8.134 8.134 0 0 0-2.656-6.015 10.965 10.965 0 0 1-3.593-8.328c.111-5.842 4.955-10.66 10.797-10.741l.158-.001c2.898 0 5.625 1.117 7.691 3.155a10.876 10.876 0 0 1 3.263 7.8c0 3.076-1.304 6.027-3.578 8.1a8.18 8.18 0 0 0-2.673 6.03v1.817a.932.932 0 0 1-.93.933h-7.549a.932.932 0 0 1-.93-.933m4.511-29.636a13.613 13.613 0 0 0-9.451 3.995c-2.54 2.526-3.976 5.874-4.042 9.43a13.693 13.693 0 0 0 4.488 10.403 5.394 5.394 0 0 1 1.76 3.99v1.818c0 1.173.553 2.219 1.413 2.89v4.17a3.45 3.45 0 0 0 3.445 3.447h5.161a3.45 3.45 0 0 0 3.446-3.447v-4.17a3.662 3.662 0 0 0 1.413-2.89v-1.817a5.44 5.44 0 0 1 1.78-4.01 13.723 13.723 0 0 0 4.471-10.12 13.59 13.59 0 0 0-4.078-9.748 13.592 13.592 0 0 0-9.806-3.941"/></defs><clipPath id="b"><use xlink:href="#a" overflow="visible"/></clipPath><linearGradient id="c" gradientUnits="userSpaceOnUse" y1="69.998" x2="1" y2="69.998" gradientTransform="scale(42.5177 -42.5177) rotate(-30.964 -127.115 34.458)"><stop offset="0" stop-color="#f6891f"/><stop offset=".136" stop-color="#f47920"/><stop offset=".392" stop-color="#f15b22"/><stop offset=".629" stop-color="#ef4123"/><stop offset=".839" stop-color="#ee2b24"/><stop offset="1" stop-color="#ed2224"/></linearGradient><path clip-path="url(#b)" fill="url(#c)" d="M16.535-2.867l37.897 22.738-24.978 41.63-37.897-22.738z"/><defs><path id="d" d="M0 0h50.625v70H0z"/></defs><clipPath id="e"><use xlink:href="#d" overflow="visible"/></clipPath><path d="M50.118 36.012l-4.247-7.759v-5.318C45.871 10.289 35.582 0 22.936 0 10.289 0 0 10.289 0 22.935v3.939c0 4.892 1.471 9.573 4.258 13.565v11.289a1.367 1.367 0 1 0 2.735 0V40.001c0-.288-.092-.57-.261-.802a20.852 20.852 0 0 1-3.997-12.325v-3.939c0-11.138 9.062-20.2 20.201-20.2 11.138 0 20.201 9.062 20.201 20.2v5.668c0 .23.057.455.168.657l4.415 8.064c.334.61.093 1.139-.024 1.337a1.328 1.328 0 0 1-1.158.658h-.006l-2.022-.009a1.35 1.35 0 0 0-.971.398 1.37 1.37 0 0 0-.402.969v6.102a5.92 5.92 0 0 1-5.914 5.913h-4.104a3.382 3.382 0 0 0-3.378 3.378v10.45l-18.586-8.354a1.368 1.368 0 0 0-1.121 2.494l20.513 9.22a1.366 1.366 0 0 0 1.928-1.247V56.07c0-.355.289-.644.644-.644h4.104c4.769 0 8.648-3.879 8.648-8.647V42.05l.648.003h.019a4.047 4.047 0 0 0 3.507-1.993 4.044 4.044 0 0 0 .073-4.048" clip-path="url(#e)" fill="#19478a"/><path d="M7.117 57.079a1.367 1.367 0 1 1-2.734 0 1.367 1.367 0 0 1 2.734 0" clip-path="url(#e)" fill="#19478a"/></svg>