<svg xmlns="http://www.w3.org/2000/svg" xmlns:xlink="http://www.w3.org/1999/xlink" viewBox="0 0 125.85 125.85"><defs><style>.cls-1{fill:#1c4694;}.cls-2{fill:url(#linear-gradient);}</style><linearGradient id="linear-gradient" x1="42.06" y1="84.21" x2="83.96" y2="42.3" gradientUnits="userSpaceOnUse"><stop offset="0" stop-color="#f6891f"/><stop offset="0.1" stop-color="#f57920"/><stop offset="0.37" stop-color="#f15322"/><stop offset="0.61" stop-color="#ef3823"/><stop offset="0.83" stop-color="#ee2824"/><stop offset="1" stop-color="#ed2224"/></linearGradient></defs><title>ic-zing</title><g id="Layer_2" data-name="Layer 2"><g id="Layer_1-2" data-name="Layer 1"><g id="_Group_" data-name="&lt;Group&gt;"><path id="_Compound_Path_" data-name="&lt;Compound Path&gt;" class="cls-1" d="M62.93,11.17A51.76,51.76,0,1,1,11.17,62.93,51.82,51.82,0,0,1,62.93,11.17M62.93,0a62.93,62.93,0,1,0,62.93,62.93A62.93,62.93,0,0,0,62.93,0Z"/></g><path class="cls-2" d="M81.17,79.32a5.19,5.19,0,0,0-3.74-1.49H58.69l22.55-32,0-.07A6.33,6.33,0,0,0,82,44.09a5.55,5.55,0,0,0,.22-1.42,4.64,4.64,0,0,0-1.93-3.94,6.89,6.89,0,0,0-4.11-1.24H49.24A5.09,5.09,0,0,0,45.48,39,5.19,5.19,0,0,0,44,42.81a5.07,5.07,0,0,0,1.55,3.74,5.16,5.16,0,0,0,3.74,1.51H66.66L56,63.13q-6,8.49-11.94,16.92l0,.06a6,6,0,0,0-.68,1.53,5.43,5.43,0,0,0-.23,1.48,5,5,0,0,0,1.63,3.79A6,6,0,0,0,49,88.37H77.44a5.1,5.1,0,0,0,3.76-1.56A5.19,5.19,0,0,0,82.73,83,5,5,0,0,0,81.17,79.32Z"/></g></g></svg>