<svg xmlns="http://www.w3.org/2000/svg" viewBox="0 0 83.69 83.69"><defs><style>.cls-1{fill:#fff;}.cls-2{fill:#18319b;}</style></defs><title>ic-zalo-lg</title><g id="Layer_2" data-name="Layer 2"><g id="objects"><circle class="cls-1" cx="41.84" cy="41.84" r="41.84"/><path class="cls-2" d="M53.16,52a3.22,3.22,0,0,0-2.32-.92H39.22l14-19.86,0,0a3.92,3.92,0,0,0,.44-1,3.44,3.44,0,0,0,.14-.88,2.88,2.88,0,0,0-1.2-2.44,4.27,4.27,0,0,0-2.55-.77H33.36A3.16,3.16,0,0,0,31,27a3.22,3.22,0,0,0-.95,2.33,3.14,3.14,0,0,0,1,2.32,3.2,3.2,0,0,0,2.32.94H44.16L37.56,42q-3.72,5.27-7.4,10.5l0,0a3.7,3.7,0,0,0-.42.95,3.37,3.37,0,0,0-.14.92,3.08,3.08,0,0,0,1,2.35,3.69,3.69,0,0,0,2.6.91H50.84a3.16,3.16,0,0,0,2.33-1,3.22,3.22,0,0,0,.95-2.33A3.1,3.1,0,0,0,53.16,52Z"/></g></g></svg>