<svg xmlns="http://www.w3.org/2000/svg" preserveAspectRatio="xMidYMid" width="28.969" height="8.969" viewBox="0 0 28.969 8.969"><defs><style>.cls-1{fill:#fff;fill-rule:evenodd}</style></defs><path d="M5.851.011h2.635v8.758H6.779V2.845c0-.17.002-.408.006-.713.004-.309.006-.546.006-.713l-1.659 7.35H3.354l-1.647-7.35c0 .167.001.404.005.713.004.305.006.543.006.713v5.924H.012V.011h2.664L4.27 6.898 5.851.011zm6.39 3.506c-.392 0-.697.123-.915.368-.215.246-.349.578-.405.998h2.635c-.028-.447-.165-.786-.411-1.016a1.252 1.252 0 0 0-.904-.35zm0-1.396a3.4 3.4 0 0 1 1.457.303c.432.202.789.52 1.071.956.253.384.418.83.493 1.337.044.297.062.725.054 1.283H10.88c.023.65.228 1.106.612 1.367.234.162.515.244.844.244.349 0 .633-.099.851-.298.119-.106.224-.255.315-.445h1.731c-.044.384-.244.774-.601 1.17-.555.63-1.332.945-2.331.945a3.29 3.29 0 0 1-2.183-.796c-.63-.531-.945-1.394-.945-2.591 0-1.121.283-1.98.85-2.578.571-.598 1.311-.897 2.218-.897zm7.449.017c.67 0 1.217.177 1.641.529.428.349.642.929.642 1.741v4.361h-1.736V4.83c0-.341-.046-.602-.137-.784-.166-.333-.483-.5-.951-.5-.575 0-.97.244-1.184.731-.111.258-.166.587-.166.987v3.505H16.11V2.305h1.635v.944c.218-.332.425-.572.619-.719.349-.261.791-.392 1.326-.392zm5.177.155v3.903c0 .369.043.646.131.832.154.329.458.493.909.493.579 0 .976-.233 1.19-.701.111-.253.166-.588.166-1.004V2.293h1.719v6.476h-1.647v-.915c-.016.02-.056.079-.119.178a1.212 1.212 0 0 1-.226.262c-.266.238-.524.4-.773.487a2.603 2.603 0 0 1-.868.131c-.96 0-1.606-.345-1.939-1.034-.186-.38-.28-.941-.28-1.682V2.293h1.737z" class="cls-1"/></svg>