<?xml version="1.0" standalone="no"?>
<!DOCTYPE svg PUBLIC "-//W3C//DTD SVG 1.1//EN" "http://www.w3.org/Graphics/SVG/1.1/DTD/svg11.dtd" >
<svg>
<metadata>
Created by FontForge 20090914 at Mon Jun 11 06:22:28 2018
 By www-data
(c) Copyright 2005 by Tong Duc Thinh. All Rights Reserved
</metadata>
<defs>
<font id="SFUHelveticaLightOblique" horiz-adv-x="556" >
  <font-face 
    font-family="SFU Helvetica"
    font-weight="300"
    font-style="oblique"
    font-stretch="normal"
    units-per-em="1000"
    panose-1="0 0 3 0 0 0 0 0 0 0"
    ascent="800"
    descent="-200"
    x-height="518"
    cap-height="720"
    bbox="-167 -212.001 1110 1134"
    underline-thickness="58"
    underline-position="-61"
    slope="-11"
    unicode-range="U+0020-U+F002"
  />
<missing-glyph horiz-adv-x="500" 
d="M63 0v783h375v-783h-375zM125 63h250v658h-250v-658z" />
    <glyph glyph-name=".notdef" horiz-adv-x="500" 
d="M63 0v783h375v-783h-375zM125 63h250v658h-250v-658z" />
    <glyph glyph-name="space" unicode=" " horiz-adv-x="278" 
 />
    <glyph glyph-name="exclam" unicode="!" horiz-adv-x="333" 
d="M182 181l53 315l48 224h73l-48 -224l-81 -315h-45zM203 0h-73l19 88h73z" />
    <glyph glyph-name="quotedbl" unicode="&#x22;" horiz-adv-x="278" 
d="M162 494l48 226h52l-48 -226h-52zM273 494l48 226h52l-48 -226h-52z" />
    <glyph glyph-name="numbersign" unicode="#" 
d="M565 287l-13 -59h-111l-80 -228h-59l79 228h-137l-82 -228h-59l82 228h-110l13 59h119l51 140h-112l12 59h120l77 212h60l-77 -212h136l76 212h59l-76 -212h100l-12 -59h-108l-50 -140h102zM454 427h-136l-52 -140h138z" />
    <glyph glyph-name="dollar" unicode="$" 
d="M339 394l54 256.999c-38 0 -72.5 -11.667 -103.5 -35s-50.167 -53.333 -57.5 -90c-2.66699 -11.333 -4 -22 -4 -32c0 -28 11 -50 33 -66c14.667 -11.333 40.667 -22.666 78 -33.999zM370 321.999l-61 -287c42.667 0 81.667 13.833 117 41.5s57.333 62.167 66 103.5
c2.66699 13.333 4 25.333 4 36c0 32 -12 56.333 -36 73c-18 12.667 -48 23.667 -90 33zM298 -19.001l-16 -76.0029h-46l16 76c-118 6.66699 -177 64.334 -177 173.001c0 8.66699 1.66699 25 5 49h65c-2.66699 -13.333 -4 -26.333 -4 -39
c0 -36.667 10.833 -66.834 32.5 -90.501s51.167 -36.5 88.5 -38.5l64 297c-53.333 14 -92 30 -116 48c-32 24 -48 56.667 -48 98c0 14 1.66699 29 5 45c12 54.667 41.167 99 87.5 133s96.833 50.333 151.5 49l13 61h46l-13 -61c49.333 0.666992 88.5 -11.166 117.5 -35.499
s43.5 -58.5 43.5 -102.5c0 -12 -1.33301 -24.667 -4 -38h-65c2 8.66699 3 17.334 3 26.001c0 28.667 -9.83301 51.834 -29.5 69.501s-45.5 26.5 -77.5 26.5l-56 -266c60.667 -15.333 103.334 -32 128.001 -50c32.667 -24 49 -59 49 -105c0 -18 -2.33301 -38.333 -7 -61
c-12 -55.333 -44.667 -101 -98 -137c-48.667 -32.667 -101.334 -49.667 -158.001 -51z" />
    <glyph glyph-name="percent" unicode="%" horiz-adv-x="889" 
d="M728 331c39.333 0 71.168 -12.333 95.501 -37s36.5 -55.667 36.5 -93c0 -52 -20.667 -98.5 -62 -139.5s-88 -61.5 -140 -61.5c-39.333 0 -71.5 12.5 -96.5 37.5s-37.5 56.5 -37.5 94.5c0 51.333 21.167 97.333 63.5 138s89.166 61 140.499 61zM715.002 274
c-33.333 0 -63.835 -13.332 -91.502 -39.999s-41.5 -56.667 -41.5 -90c0 -24.667 8.33301 -45.334 25 -62.001s37.334 -25 62.001 -25c33.333 0 63.833 13.5 91.5 40.5s41.5 57.167 41.5 90.5c0 24 -8.16699 44.333 -24.5 61s-37.166 25 -62.499 25zM511 532.001
c-9.33301 -45.333 -33.8311 -84.168 -73.498 -116.501s-82.167 -48.5 -127.5 -48.5c-39.333 0 -71.5 12.5 -96.5 37.5s-37.5 56.167 -37.5 93.5c0 51.333 21.167 97.5 63.5 138.5s89.166 61.5 140.499 61.5c39.333 0 71.666 -12.5 96.999 -37.5s38 -56.5 38 -94.5
c0 -11.333 -1.33301 -22.666 -4 -33.999zM322.002 423.999c33.333 0 64.001 13.332 92.001 39.999s42 56.334 42 89.001c0 24.667 -8.16699 45.5 -24.5 62.5s-37.5 25.5 -63.5 25.5c-33.333 0 -63.833 -13.5 -91.5 -40.5s-41.5 -57.167 -41.5 -90.5
c0 -24.667 8.16699 -45.167 24.5 -61.5s37.166 -24.5 62.499 -24.5zM818.003 704.998l-550 -719h-52l550 719h52z" />
    <glyph glyph-name="ampersand" unicode="&#x26;" horiz-adv-x="667" 
d="M482 131l-153 244c-45.333 -19.333 -84 -45 -116 -77c-34.667 -34 -56 -70 -64 -108c-2.66699 -12.667 -4 -25 -4 -37c0 -36 12.167 -64.667 36.5 -86s56.5 -32 96.5 -32c68.667 0 136.667 32 204 96zM493 540c11.333 17.333 16.999 35.668 16.999 55.001
c0 20.667 -6.5 37.667 -19.5 51s-31.5 20 -55.5 20c-29.333 0 -55.666 -9.33301 -78.999 -28c-24.667 -20.667 -37 -45 -37 -73c0 -29.333 16 -69.333 48 -120c32.667 17.333 55.667 30.666 69 39.999c24.667 16.667 43.667 35 57 55zM391.999 400.002l136 -213.998
c26.667 33.333 46.334 80 59.001 140h59c-20 -79.333 -50 -142 -90 -188l88 -138h-81l-52 85c-72 -69.333 -155 -104 -249 -104c-54.667 0 -99.167 15 -133.5 45s-51.5 70.333 -51.5 121c0 15.333 1.66699 31.333 5 48c20.667 95.333 94 169.666 220 222.999
c-30.667 47.333 -46 90 -46 128c0 10.667 1 21.667 3 33c9.33301 44 32.666 79 69.999 105c35.333 24 76 36 122 36c38 0 68.333 -10.333 91 -31s34 -47.334 34 -80.001c0 -9.33301 -1.33301 -18.666 -4 -27.999c-8.66699 -42.667 -30.667 -79.334 -66 -110.001
c-21.333 -18 -59.333 -41.667 -114 -71z" />
    <glyph glyph-name="quotesingle" unicode="'" horiz-adv-x="222" 
d="M190 494l48 226h52l-48 -226h-52z" />
    <glyph glyph-name="parenleft" unicode="(" horiz-adv-x="333" 
d="M383 739h51.001c-133.333 -148 -217.333 -304 -252 -468c-10.667 -48.667 -16 -98 -16 -148c0 -107.333 23.333 -212 70 -314h-51c-58.667 116 -88 221.667 -88 317c0 46.667 5.66699 96.667 17 150c18 87.333 50.333 169.333 97 246
c41.333 68 98.666 140.333 171.999 217z" />
    <glyph glyph-name="parenright" unicode=")" horiz-adv-x="333" 
d="M66 -191h-51c134 148 218.333 304 253 468c10 48.667 15 98 15 148c0 107.333 -23.333 212 -70 314h51c59.333 -116 89 -221.667 89 -317c0 -46.667 -5.66699 -96.667 -17 -150c-18.667 -87.333 -51 -169.333 -97 -246c-41.333 -68 -99 -140.333 -173 -217z" />
    <glyph glyph-name="asterisk" unicode="*" horiz-adv-x="389" 
d="M199 646l102 -43l25 117h42l-25 -117l123 42l6 -44l-122 -37l52 -106l-44 -24l-51 108l-100 -106l-30 27l99 101l-104 40z" />
    <glyph glyph-name="plus" unicode="+" horiz-adv-x="660" 
d="M360 280l46 220h60l-46 -220h220l-13 -60h-220l-47 -220h-60l47 220h-220l13 60h220z" />
    <glyph glyph-name="comma" unicode="," horiz-adv-x="278" 
d="M194 88l-25 -118c-12 -56 -44 -91.667 -96 -107l8 37c25.333 14 41.333 36 48 66l7 34h-34l19 88h73z" />
    <glyph glyph-name="hyphen" unicode="-" horiz-adv-x="333" 
d="M102 291h253l-13 -62h-253z" />
    <glyph glyph-name="hyphen" unicode="&#x2010;" horiz-adv-x="333" 
d="M102 291h253l-13 -62h-253z" />
    <glyph glyph-name="period" unicode="." horiz-adv-x="278" 
d="M175 0h-73l19 88h73z" />
    <glyph glyph-name="slash" unicode="/" horiz-adv-x="278" 
d="M445 739l-411 -829h-56l411 829h56z" />
    <glyph glyph-name="zero" unicode="0" 
d="M526 347c12 58 18 107 18 147c0 104.667 -43.333 157 -130 157c-115.333 0 -195 -103.667 -239 -311c-12 -58 -18 -106.667 -18 -146c0 -102.667 43.333 -154 130 -154c116 0 195.667 102.333 239 307zM428 705c120.667 0 180.999 -67.333 180.999 -202
c0 -44.667 -7 -99 -21 -163c-50 -236 -154.333 -354 -313 -354c-121.333 0 -182 66.333 -182 199c0 44.667 6.66699 98.667 20 162c22.667 107.333 54.334 189.333 95.001 246c54.667 74.667 128 112 220 112z" />
    <glyph glyph-name="one" unicode="1" 
d="M302 0l111.001 524.001h-182l9 42c63.333 4 108.666 13 135.999 27c38 19.333 67.667 56.666 89 111.999h51l-150 -705h-64z" />
    <glyph glyph-name="two" unicode="2" 
d="M238 474l-68.0029 0.00195312c14.667 69.333 47.334 125.166 98.001 167.499s110.667 63.5 180 63.5c58.667 0 104 -14.333 136 -43c29.333 -26.667 44 -62.334 44 -107.001c0 -14.667 -1.66699 -29.667 -5 -45c-16 -77.333 -68 -143 -156 -197l-217 -117
c-68.667 -45.333 -109.667 -92.666 -123 -141.999h393l-11 -54h-461c16.667 73.333 47.334 130.666 92.001 171.999c46.667 44 106.667 85.667 180 125c85.333 46 135.333 74.667 150 86c44.667 33.333 72.334 74.333 83.001 123c2 12 3 23.667 3 35
c0 34.667 -11.667 61.667 -35 81s-54.333 29 -93 29c-45.333 0 -86.333 -17.5 -123 -52.5s-59 -76.5 -67 -124.5z" />
    <glyph glyph-name="three" unicode="3" 
d="M293 340l10.999 51.9961c65.333 -0.666992 116 8.33301 152 27c42 21.333 68.333 57.333 79 108c2 10.667 3 20.667 3 30c0 31.333 -11.667 54.833 -35 70.5s-54 23.5 -92 23.5c-44.667 0 -84 -14.167 -118 -42.5s-55.667 -64.5 -65 -108.5h-64c14 63.333 48 116 102 158
c40.667 31.333 97.334 47 170.001 47c50.667 0 91.5 -11.167 122.5 -33.5s46.5 -55.166 46.5 -98.499c0 -13.333 -1.66699 -27.333 -5 -42c-16 -76 -60.667 -128.333 -134 -157c62.667 -20.667 94 -62.667 94 -126c0 -73.333 -27.5 -135.166 -82.5 -185.499
s-120.167 -75.833 -195.5 -76.5c-72.667 -0.666992 -125.5 11.333 -158.5 36s-49.5 67 -49.5 127c0 16.667 1 35 3 55h64c-2.66699 -15.333 -4 -29.666 -4 -42.999c0 -39.333 12.833 -69.333 38.5 -90s61.167 -31 106.5 -31c50 0 95.333 16 136 48s64.667 69 72 111
c2 10.667 3 20.334 3 29.001c0 75.333 -54.667 113 -164 113c-11.333 0 -23.333 -0.333008 -36 -1z" />
    <glyph glyph-name="four" unicode="4" 
d="M358 0l37 174h-322l12 55l427 469h58l-100 -470h98l-11 -54h-98l-37 -174h-64zM486 602l-339 -374h259z" />
    <glyph glyph-name="five" unicode="5" 
d="M74 183l64 -0.000976562c-3.33301 -46.667 8 -82.167 34 -106.5s62.667 -36.5 110 -36.5c50.667 0 95.667 17.333 135 52c36.667 34 60.667 76.667 72 128c3.33301 16 5 31.333 5 46c0 40.667 -12.5 73 -37.5 97s-59.833 36 -104.5 36c-64.667 0 -121 -24.333 -169 -73
l-51 7l134 365h350l-11 -54h-296l-94 -237c53.333 30.667 108 46 164 46c55.333 0 99.333 -15.167 132 -45.5s49 -72.166 49 -125.499c0 -20 -2.33301 -40.667 -7 -62c-15.333 -71.333 -50.333 -129 -105 -173c-50.667 -40.667 -106.667 -61 -168 -61
c-139.333 0 -209 53 -209 159c0 12 1 24.667 3 38z" />
    <glyph glyph-name="six" unicode="6" 
d="M616 532l-66.0039 -0.000976562c1.33301 79.333 -35 119 -109 119c-76 0 -137 -36.667 -183 -110c-27.333 -42 -54.666 -111.667 -81.999 -209c34 36 62 61 84 75c36.667 23.333 78 35 124 35c58.667 0 103.834 -14.167 135.501 -42.5s47.5 -68.5 47.5 -120.5
c0 -20 -2.33301 -41.333 -7 -64c-15.333 -71.333 -47.166 -127.333 -95.499 -168s-108.166 -61 -179.499 -61c-127.333 0 -191 68.667 -191 206c0 38.667 5.33301 82.334 16 131.001c22 103.333 56.667 188 104 254c62 85.333 139.667 128 233 128
c52.667 0 94.167 -13 124.5 -39s45.5 -63 45.5 -111c0 -7.33301 -0.333008 -15 -1 -23zM369.996 387.999c-56 0 -103.5 -22.5 -142.5 -67.5s-58.5 -95.833 -58.5 -152.5c0 -36.667 9.66699 -66 29 -88c22 -26.667 55.333 -40 100 -40c60.667 0 110.667 24 150 72
c36.667 44.667 55 98 55 160c0 77.333 -44.333 116 -133 116z" />
    <glyph glyph-name="seven" unicode="7" 
d="M194 634l13.001 64h449l-12 -60c-113.333 -103.333 -210.333 -221 -291 -353c-64.667 -105.333 -108.334 -200.333 -131.001 -285h-70c27.333 98 82.333 208.333 165 331c76 114.667 159 215.667 249 303h-372z" />
    <glyph glyph-name="eight" unicode="8" 
d="M352 345c-51.333 0 -94.668 -12.333 -130.001 -37c-38 -26 -62.333 -64 -73 -114c-2 -11.333 -3 -22.333 -3 -33c0 -36 12.833 -65.167 38.5 -87.5s61.5 -33.5 107.5 -33.5c46.667 0 88.834 14.667 126.501 44s61.5 67.333 71.5 114c2.66699 12.667 4 24.667 4 36
c0 36 -13 63.5 -39 82.5s-60.333 28.5 -103 28.5zM413.998 651c-41.333 0 -77.333 -10.668 -108 -32.001c-32.667 -23.333 -53.334 -55 -62.001 -95c-2 -10 -3 -19.667 -3 -29c0 -31.333 12.667 -55.666 38 -72.999c22.667 -15.333 52.334 -23 89.001 -23
c90.667 0 145.667 46.333 165 139c2.66699 10 4 19.667 4 29c0 56 -41 84 -123 84zM247.998 378.999c-26 18.667 -43.6641 34.665 -52.9971 47.998c-12 16 -18 35.667 -18 59c0 13.333 1.66699 29 5 47c10.667 48.667 39.167 89.834 85.5 123.501
s97.166 49.834 152.499 48.501c52 -0.666992 94 -11.667 126 -33c36.667 -23.333 55 -57 55 -101c0 -12 -1.66699 -24.667 -5 -38c-15.333 -74 -58.333 -126.667 -129 -158c61.333 -24 92 -68.667 92 -134c0 -13.333 -1.33301 -27 -4 -41
c-14.667 -68 -48.334 -120.667 -101.001 -158s-117 -56 -193 -56c-48.667 0 -90 13.667 -124 41c-38 30 -57 70.333 -57 121c0 14.667 1.66699 30 5 46c19.333 91.333 73.666 153 162.999 185z" />
    <glyph glyph-name="nine" unicode="9" 
d="M86 155l65.002 0.000976562c-0.666992 -76.667 37 -115 113 -115c73.333 0 133.666 36.333 180.999 109c31.333 47.333 58.333 115.333 81 204l-2 2c-60 -73.333 -131 -110 -213 -110c-55.333 0 -98.5 14.833 -129.5 44.5s-46.5 70.5 -46.5 122.5c0 18.667 2 38.667 6 60
c15.333 69.333 45.666 124.666 90.999 165.999c50 44.667 112 67 186 67c126 0 189 -69.667 189 -209c0 -42.667 -6 -91.667 -18 -147c-24.667 -116 -68 -206.333 -130 -271c-58.667 -61.333 -126.667 -92 -204 -92c-52.667 0 -93.667 11.667 -123 35
c-32 24.667 -48 60.667 -48 108c0 8 0.666992 16.667 2 26zM406.002 651.001c-52.667 0 -96.333 -16.167 -131 -48.5s-58 -76.5 -70 -132.5c-4 -18 -6 -34.667 -6 -50c0 -80.667 44.333 -121 133 -121c48 0 90.333 17.333 127 52c34.667 32.667 57.334 73.667 68.001 123
c3.33301 17.333 5 34 5 50c0 39.333 -10.833 70.333 -32.5 93s-52.834 34 -93.501 34z" />
    <glyph glyph-name="colon" unicode=":" horiz-adv-x="278" 
d="M175 0h-73l19 88h73zM261 404h-73l19 88h73z" />
    <glyph glyph-name="semicolon" unicode=";" horiz-adv-x="278" 
d="M194 88l-25 -118c-12 -56 -44 -91.667 -96 -107l8 37c25.333 14 41.333 36 48 66l7 34h-34l19 88h73zM261 404h-73l19 88h73z" />
    <glyph glyph-name="less" unicode="&#x3c;" horiz-adv-x="660" 
d="M213 255l379 -197l-13 -64l-450 235l11 53l547 223l-13 -64z" />
    <glyph glyph-name="equal" unicode="=" horiz-adv-x="660" 
d="M660 378l-12 -60h-500l12 60h500zM619 184l-13 -60h-500l13 60h500z" />
    <glyph glyph-name="greater" unicode="&#x3e;" horiz-adv-x="660" 
d="M640 282l-11 -53l-550 -235l13 64l463 197l-381 186l13 64z" />
    <glyph glyph-name="question" unicode="?" horiz-adv-x="500" 
d="M313 182l-58 0.00195312c8.66699 43.333 18 76.666 28 99.999c15.333 32 37.333 60.667 66 86l109 89c38.667 34.667 61.334 67.667 68.001 99c2 9.33301 3 18.333 3 27c0 30 -11 54.333 -33 73c-24 19.333 -56.667 29 -98 29c-48 0 -89.333 -16 -124 -48
s-56.334 -72.333 -65.001 -121h-61c8.66699 65.333 38.167 118.833 88.5 160.5s108.5 62.5 174.5 62.5c58 0 103 -12.833 135 -38.5s48 -60.834 48 -105.501c0 -14 -1.66699 -28.667 -5 -44c-7.33301 -34 -25 -66 -53 -96c-15.333 -15.333 -44.666 -40 -87.999 -74
c-40.667 -31.333 -70.334 -58 -89.001 -80s-34 -61.667 -46 -119zM283 0.00195312h-73l19 88h73z" />
    <glyph glyph-name="at" unicode="@" horiz-adv-x="800" 
d="M719 167h58.9971c-42.667 -57.333 -97.167 -102.666 -163.5 -135.999s-132.833 -50 -199.5 -50c-91.333 0 -165.666 28.667 -222.999 86c-56 55.333 -84 126.666 -84 213.999c0 26.667 3 54 9 82c22 103.333 77.833 191.833 167.5 265.5s185.5 110.5 287.5 110.5
c84 0 152.5 -23.167 205.5 -69.5s79.5 -106.833 79.5 -181.5c0 -21.333 -2.33301 -43 -7 -65c-16 -76.667 -56 -145 -120 -205c-61.333 -58 -119.666 -87 -174.999 -87c-46 0 -71 17.333 -75 52c-39.333 -33.333 -82.666 -50 -129.999 -50
c-35.333 0 -62.666 10.5 -81.999 31.5s-29 47.833 -29 80.5c0 74.667 34.5 150.167 103.5 226.5s140.167 114.5 213.5 114.5c54 0 86.667 -22 98 -66l24 46h67l-165 -302c-16 -30 -24 -50.667 -24 -62c0 -12.667 8 -19 24 -19c40 0 82.667 27.333 128 82
c43.333 52 71 105.667 83 161c4 20 6 39.333 6 58c0 62.667 -22.333 113 -67 151c-43.333 36 -99 54 -167 54c-90.667 0 -173 -32.5 -247 -97.5s-120.667 -143.5 -140 -235.5c-5.33301 -24 -8 -47.667 -8 -71c0 -74 23.667 -134.833 71 -182.5s109.666 -71.5 186.999 -71.5
c52 0 104.167 12 156.5 36s97.833 57.333 136.5 100zM378.997 196c43.333 0 91.667 35.332 145 105.999c50.667 68 76 124.333 76 169c0 16 -4.83301 29.333 -14.5 40s-23.167 16 -40.5 16c-50 0 -100.5 -31.167 -151.5 -93.5s-76.5 -119.166 -76.5 -170.499
c0 -44.667 20.667 -67 62 -67z" />
    <glyph glyph-name="A" unicode="A" horiz-adv-x="667" 
d="M85 0h-70l436 720h77l123 -720h-70l-35 226h-328zM475 662l-222 -378h282z" />
    <glyph glyph-name="B" unicode="B" horiz-adv-x="667" 
d="M222 344l-60.999 -285.999h173c81.333 0 138.666 8.66699 171.999 26c40 20 66.333 59.667 79 119c3.33301 14.667 5 28 5 40c0 39.333 -17.333 66.666 -52 81.999c-28 12.667 -73 19 -135 19h-181zM290.001 662.001l-56.001 -260h172c68.667 0 120.334 12 155.001 36
c32 21.333 53 55 63 101c2.66699 12.667 4 24 4 34c0 32 -14.167 54.833 -42.5 68.5s-74.5 20.5 -138.5 20.5h-157zM375 0.000976562l-294 -0.000976562l153 720h260c135.333 0 203 -45.333 203 -136c0 -14 -1.66699 -29 -5 -45c-10 -46.667 -30 -83.667 -60 -111
c-25.333 -24 -54.666 -38.667 -87.999 -44l-1 -2c77.333 -12 116 -55.333 116 -130c0 -15.333 -2 -31.666 -6 -48.999c-28.667 -135.333 -121.334 -203 -278.001 -203z" />
    <glyph glyph-name="C" unicode="C" horiz-adv-x="722" 
d="M771 511l-70.0029 -0.000976562c-1.33301 60 -17.666 103.333 -48.999 130s-78.666 40 -141.999 40c-82.667 0 -152.667 -32 -210 -96c-52 -56.667 -87.667 -131 -107 -223c-8.66699 -40.667 -13 -78.334 -13 -113.001c0 -140 66.333 -210 199 -210
c60 0 114.333 18.667 163 56c44.667 34.667 80.334 82 107.001 142h71c-75.333 -170.667 -197.333 -256 -366 -256c-83.333 0 -145.666 24.333 -186.999 73c-38 43.333 -57 104 -57 182c0 38 5 79.333 15 124c27.333 130.667 80 228.334 158 293.001
c69.333 57.333 155 86 257 86c75.333 0 133.666 -19.667 174.999 -59s60 -95.666 56 -168.999z" />
    <glyph glyph-name="D" unicode="D" horiz-adv-x="722" 
d="M327 0h-246.001l153 720h246c98.667 0 169 -18 211 -54c44.667 -38.667 67 -101.667 67 -189c0 -37.333 -4 -76 -12 -116c-25.333 -118 -73.666 -209 -144.999 -273c-66 -58.667 -157.333 -88 -274 -88zM289.999 662l-128.999 -603.999h163c70 0 128.667 11 176 33
c89.333 41.333 148.666 131.333 177.999 270c8.66699 40 13 76 13 108c0 79.333 -26.333 134.666 -79 165.999c-30 18 -83 27 -159 27h-163z" />
    <glyph glyph-name="E" unicode="E" horiz-adv-x="611" 
d="M570 0h-489l153 720h479l-12 -58h-411l-56 -260h371l-12 -58h-371l-61 -286h421z" />
    <glyph glyph-name="F" unicode="F" 
d="M142 0h-68l153 720h464l-12 -58h-396l-56 -260h360l-12 -58h-360z" />
    <glyph glyph-name="G" unicode="G" horiz-adv-x="778" 
d="M697 314l-242.997 -0.000976562l12 58h308l-79 -372h-58l26 123c-75.333 -94.667 -175 -142 -299 -142c-76.667 0 -136.667 21.667 -180 65c-45.333 44.667 -68 109.334 -68 194.001c0 38 4.66699 79.333 14 124c24 111.333 70 200.333 138 267
c74.667 72 166.334 108 275.001 108c78 0 139.333 -18.667 184 -56c46.667 -40 69.667 -97.333 69 -172h-70c-0.666992 52.667 -19.334 94.667 -56.001 126c-34.667 29.333 -79.334 44 -134.001 44c-91.333 0 -167 -32 -227 -96
c-54.667 -58.667 -93.334 -141.334 -116.001 -248.001c-6 -26.667 -9 -52.667 -9 -78c0 -64.667 17.333 -117 52 -157c36.667 -42 88 -63 154 -63c44 0 86 9.33301 126 28c47.333 22 86.666 54.667 117.999 98c28 38.667 49 88.334 63 149.001z" />
    <glyph glyph-name="H" unicode="H" horiz-adv-x="722" 
d="M148 0h-68l153 720h68l-66 -309h426l66 309h68l-153 -720h-68l75 353h-426z" />
    <glyph glyph-name="I" unicode="I" horiz-adv-x="278" 
d="M173 0h-68l153 720h68z" />
    <glyph glyph-name="J" unicode="J" horiz-adv-x="500" 
d="M70 228l68 -0.000976562c-8.66699 -40 -13 -70.667 -13 -92c0 -62 34.667 -93 104 -93c84.667 0 138 52 160 156l111 521h68l-111 -523c-30.667 -144 -113.667 -216 -249 -216c-100.667 0 -151 47.667 -151 143c0 28.667 4.33301 63.334 13 104.001z" />
    <glyph glyph-name="K" unicode="K" horiz-adv-x="667" 
d="M153 0h-68l153 720h68l-79 -373l448 373h77l-345 -287l242 -433h-83l-217 391l-137 -113z" />
    <glyph glyph-name="L" unicode="L" 
d="M535 0h-454l153 720h68l-141 -662h386z" />
    <glyph glyph-name="M" unicode="M" horiz-adv-x="833" 
d="M146 0h-68l153 720h104l101 -635h2l367 635h103l-153 -720h-68l136 642h-2l-372 -642h-64l-101 642h-2z" />
    <glyph glyph-name="N" unicode="N" horiz-adv-x="722" 
d="M563 0l-281 628h-2l-133 -628h-68l153 720h77l282 -629h2l134 629h68l-153 -720h-79z" />
    <glyph glyph-name="O" unicode="O" horiz-adv-x="778" 
d="M129 359c23.333 109.333 71.002 199 143.002 269c76 74 166 111 270 111c89.333 0 157.666 -25.667 204.999 -77c43.333 -47.333 65 -112 65 -194c0 -34.667 -4 -71 -12 -109c-22.667 -108.667 -69.667 -197.667 -141 -267c-76.667 -74 -168.334 -111 -275.001 -111
c-88 0 -155.333 25.667 -202 77c-42.667 48 -64 112.667 -64 194c0 34 3.66699 69.667 11 107zM397.002 39c88.667 0 163.667 32.335 225 97.002c54 57.333 90.667 131.666 110 222.999c8 36 12 69.667 12 101c0 70 -18.5 124.333 -55.5 163s-89.167 58 -156.5 58
c-87.333 0 -162 -32.667 -224 -98c-54.667 -58.667 -91.667 -133.334 -111 -224.001c-7.33301 -34.667 -11 -67.667 -11 -99c0 -66.667 16.333 -119 49 -157c36.667 -42.667 90.667 -64 162 -64z" />
    <glyph glyph-name="P" unicode="P" horiz-adv-x="611" 
d="M146 0h-68l153 720h263c132.667 0 199 -47.333 199 -142c0 -18 -2.33301 -37.667 -7 -59c-28 -134 -134 -201 -318 -201h-154zM226 376h156.001c69.333 0 121.666 9.33301 156.999 28c41.333 22.667 68 62.667 80 120c2.66699 12.667 4 24.667 4 36
c0 68 -53.333 102 -160 102h-176z" />
    <glyph glyph-name="Q" unicode="Q" horiz-adv-x="778" 
d="M625 68l81 -73.999l-48 -46l-89 82c-58 -32.667 -121.333 -49 -190 -49c-88 0 -155.333 25.667 -202 77c-43.333 48 -65 112.667 -65 194c0 34 4 69.667 12 107c22.667 107.333 69 195.666 139 264.999c76 76.667 167.333 115 274 115c85.333 0 151.833 -23 199.5 -69
s71.5 -111.667 71.5 -197c0 -35.333 -4.33301 -73.333 -13 -114c-26 -124 -82.667 -221 -170 -291zM502 181.001l82 -74.001c72 57.333 119.667 141.333 143 252c8 36.667 12 70.667 12 102c0 72 -19 126.667 -57 164s-89.667 56 -155 56c-87.333 0 -162 -33 -224 -99
c-54.667 -58 -91.667 -132.333 -111 -223c-7.33301 -35.333 -11 -68.666 -11 -99.999c0 -66.667 16.333 -119 49 -157c36.667 -42 90.667 -63 162 -63c48 0 92.333 10.667 133 32l-69 63z" />
    <glyph glyph-name="R" unicode="R" horiz-adv-x="667" 
d="M230 385l212 -0.000976562c53.333 0 98 11.333 134 34c40 24.667 65 61 75 109c2.66699 12.667 4 24.334 4 35.001c0 66 -50 99 -150 99h-216zM432 326.999l-214 -0.00195312l-70 -327h-68l153 720h282c140.667 0 211 -46 211 -138c0 -15.333 -2 -32.333 -6 -51
c-10 -45.333 -26.833 -81.333 -50.5 -108s-58.5 -49.334 -104.5 -68.001c41.333 -15.333 62 -50 62 -104c0 -21.333 -3.66699 -51.666 -11 -90.999c-9.33301 -52 -14 -89.333 -14 -112c0 -20 3.66699 -33.667 11 -41l-1 -7h-75c-3.33301 9.33301 -5 22 -5 38
c0 22 4 57.833 12 107.5s12 80.834 12 93.501c0 36.667 -13 61.334 -39 74.001c-18 9.33301 -46.333 14 -85 14z" />
    <glyph glyph-name="S" unicode="S" horiz-adv-x="611" 
d="M89 215l66.001 -0.00292969c-2 -12 -3 -23 -3 -33c0 -95.333 57.333 -143 172 -143c61.333 0 111.333 15 150 45c34 26.667 55.667 61.334 65 104.001c2 10.667 3 20.667 3 30c0 46 -32 79.667 -96 101l-179 52c-64 26.667 -96 69.334 -96 128.001
c0 14.667 1.66699 30.334 5 47.001c11.333 53.333 41.333 98 90 134c53.333 39.333 118.333 59 195 59c66.667 0 117.667 -15.667 153 -47c32.667 -29.333 49 -68.333 49 -117c0 -16.667 -2 -33.667 -6 -51h-65c3.33301 13.333 5 26 5 38
c0 39.333 -14.667 69.666 -44 90.999c-26.667 18.667 -61.334 28 -104.001 28c-64.667 0 -116.667 -17.333 -156 -52c-34 -30 -52 -65.667 -54 -107c-2 -48 29 -82.333 93 -103l182 -50c66 -26 99 -69.333 99 -130c0 -14.667 -1.66699 -30.667 -5 -48
c-14 -66 -48.167 -117.5 -102.5 -154.5s-122.833 -55.5 -205.5 -55.5c-66.667 0 -119.667 15 -159 45s-59 73.333 -59 130c0 18.667 2.33301 38.334 7 59.001z" />
    <glyph glyph-name="T" unicode="T" 
d="M157 662l12 58h524l-12 -58h-228l-141 -662h-68l141 662h-228z" />
    <glyph glyph-name="U" unicode="U" horiz-adv-x="722" 
d="M140 271l95 449.001h68l-91 -429c-8 -38.667 -12 -72.334 -12 -101.001c0 -100.667 56.333 -151 169 -151c76 0 135 20.667 177 62c40 40 69.333 103.333 88 190l91 429h68l-95 -449c-41.333 -193.333 -155 -290 -341 -290c-152 0 -228 66 -228 198
c0 28 3.66699 58.667 11 92z" />
    <glyph glyph-name="V" unicode="V" horiz-adv-x="611" 
d="M268 0l-97 720h71l81 -640l352 640h71l-403 -720h-75z" />
    <glyph glyph-name="W" unicode="W" horiz-adv-x="889" 
d="M635 720l31 -624h2l290 624h70l-342 -720h-75l-32 636h-2l-302 -636h-75l-33 720h68l22 -624h2l300 624h76z" />
    <glyph glyph-name="X" unicode="X" horiz-adv-x="611" 
d="M514 0l-142 318l-277 -318h-77l327 370l-164 350h79l133 -303l262 303h79l-310 -350l168 -370h-78z" />
    <glyph glyph-name="Y" unicode="Y" horiz-adv-x="611" 
d="M243 720l138 -347l291 347h79l-347 -406l-67 -314h-68l66 309l-170 411h78z" />
    <glyph glyph-name="Z" unicode="Z" horiz-adv-x="611" 
d="M579 0h-548l12 57l590 605h-422l12 58h506l-12 -57l-590 -605h464z" />
    <glyph glyph-name="bracketleft" unicode="[" horiz-adv-x="333" 
d="M239 -191h-189l198 930h191l-11 -50h-127l-176 -830h125z" />
    <glyph glyph-name="backslash" unicode="\" horiz-adv-x="278" 
d="M264 0l-153 739h60l153 -739h-60z" />
    <glyph glyph-name="bracketright" unicode="]" horiz-adv-x="333" 
d="M399 739l-198 -930h-191l11 50h127l176 830h-125l11 50h189z" />
    <glyph glyph-name="asciicircum" unicode="^" horiz-adv-x="660" 
d="M183 245h-58l326 453h52l135 -453h-57l-118 392z" />
    <glyph glyph-name="underscore" unicode="_" horiz-adv-x="500" 
d="M475 -119h-500l12 58h500z" />
    <glyph glyph-name="grave" unicode="`" horiz-adv-x="333" 
d="M305 574l-108 139h78l81 -139h-51z" />
    <glyph glyph-name="a" unicode="a" 
d="M452 191l17 81.001c-37.333 -14 -91 -23.667 -161 -29c-99.333 -7.33301 -156 -44 -170 -110c-1.33301 -7.33301 -2 -14 -2 -20c0 -23.333 9 -41.333 27 -54s40.667 -19 68 -19c52 0 97.667 12 137 36c45.333 27.333 73.333 65.666 84 114.999zM289 291.001
l84.9971 11.0029c40 5.33301 67.833 11.166 83.5 17.499s26.5 24.166 32.5 53.499c2 9.33301 3 18.333 3 27c0 52 -36.333 78 -109 78c-91.333 0 -150 -39 -176 -117h-61c16.667 58 48.334 101.667 95.001 131c42.667 26.667 94 40 154 40c106 0 159 -39 159 -117
c0 -13.333 -1.66699 -28 -5 -44l-60 -282c-2.66699 -10.667 -4 -19.334 -4 -26.001c0 -14.667 7 -22 21 -22c8.66699 0 21 2.66699 37 8l-10 -47c-21.333 -6.66699 -37.666 -10 -48.999 -10c-40.667 0 -61 16.333 -61 49c0 8.66699 1 19 3 31
c-63.333 -57.333 -133.666 -86 -210.999 -86c-42 0 -76.667 10 -104 30s-41 48.333 -41 85c0 10.667 1.33301 22 4 34c18.667 88 90 140 214 156z" />
    <glyph glyph-name="b" unicode="b" horiz-adv-x="611" 
d="M194 261c-4.66699 -24 -7.00098 -46.999 -7.00098 -68.999c0 -46.667 11.5 -83.667 34.5 -111s56.833 -41 101.5 -41c51.333 0 97 18 137 54s67.667 85.667 83 149c6.66699 30 10 58 10 84c0 100.667 -45.667 151 -137 151c-53.333 0 -101 -21.667 -143 -65
c-39.333 -40.667 -65.666 -91.334 -78.999 -152.001zM157.999 91.001l-18.999 -91h-60l153 720h60l-61 -285c25.333 30.667 56.666 54.5 93.999 71.5s74.666 25.5 111.999 25.5c60.667 0 107 -18.667 139 -56c28.667 -33.333 43 -79 43 -137c0 -25.333 -3 -52.333 -9 -81
c-17.333 -82 -49.333 -146.333 -96 -193c-51.333 -52.667 -116.666 -79 -195.999 -79c-34.667 0 -66.667 9 -96 27c-31.333 19.333 -52 45.333 -62 78h-2z" />
    <glyph glyph-name="c" unicode="c" 
d="M575 355h-61.001c-4.66699 82 -47 123 -127 123c-68 0 -124.333 -32 -169 -96c-40 -57.333 -60 -121.333 -60 -192c0 -44.667 10.333 -80 31 -106c23.333 -29.333 58.333 -44 105 -44c90.667 0 153.334 46.333 188.001 139h64c-50.667 -128.667 -138.667 -193 -264 -193
c-64 0 -112.333 17.333 -145 52c-30 32.667 -45 77.667 -45 135c0 26.667 3.33301 55 10 85c16 76 49.667 139.667 101 191c56 55.333 121 83 195 83c126 0 185 -59 177 -177z" />
    <glyph glyph-name="d" unicode="d" horiz-adv-x="611" 
d="M527 261c4.66699 21.333 6.99902 41.667 6.99902 61c0 46 -11.333 83 -34 111c-24.667 30 -58.334 45 -101.001 45c-59.333 0 -109.666 -23 -150.999 -69c-38 -42 -63.333 -97.333 -76 -166c-4 -20 -6 -39 -6 -57c0 -46.667 12.5 -82.667 37.5 -108s59.167 -38 102.5 -38
c54.667 0 102.334 21.333 143.001 64c38.667 40 64.667 92.333 78 157zM563.999 435.001l61.001 285h60l-153 -720h-60l19 91h-2c-23.333 -32.667 -55 -58.667 -95 -78c-36.667 -18 -72.334 -27 -107.001 -27c-124 0 -186 61 -186 183c0 27.333 3.33301 57 10 89
c16.667 78 49 141.667 97 191c53.333 55.333 117.333 83 192 83c38 0 71.833 -8.5 101.5 -25.5s50.5 -40.833 62.5 -71.5z" />
    <glyph glyph-name="e" unicode="e" 
d="M172 295l338 0.000976562c3.33301 18 5 35 5 51c0 40 -11 72 -33 96s-54.333 36 -97 36c-50.667 0 -95.334 -18.333 -134.001 -55c-35.333 -32.667 -61.666 -75.334 -78.999 -128.001zM563 245.001l-401.998 -0.00195312c-4.66699 -21.333 -7 -41.666 -7 -60.999
c0 -43.333 11.333 -77.666 34 -102.999c24 -27.333 58.667 -41 104 -41c39.333 0 75.166 10.5 107.499 31.5s57.166 50.167 74.499 87.5h67c-60 -115.333 -147 -173 -261 -173c-126.667 0 -190 62 -190 186c0 26.667 3.33301 55 10 85c16 78 50.667 142.667 104 194
c56 54 120 81 192 81c57.333 0 101.5 -16 132.5 -48s46.5 -78.333 46.5 -139c0 -30.667 -4 -64 -12 -100z" />
    <glyph glyph-name="f" unicode="f" horiz-adv-x="278" 
d="M196 468l-76.998 -0.000976562l11 50h77l18 82c18.667 89.333 64.667 134 138 134c19.333 0 35.666 -1.33301 48.999 -4l-12 -55c-12 3.33301 -23.333 5 -34 5c-28 0 -48.667 -10.333 -62 -31c-8.66699 -13.333 -16.334 -35.666 -23.001 -66.999l-14 -64h100l-11 -50
h-100l-99 -468h-60z" />
    <glyph glyph-name="g" unicode="g" horiz-adv-x="611" 
d="M527 257c4.66699 24 7.00098 46.998 7.00098 68.998c0 46.667 -11 83.334 -33 110.001c-24 28 -58 42 -102 42c-52 0 -98 -18 -138 -54s-67.667 -85.667 -83 -149c-6.66699 -30 -10 -58 -10 -84c0 -100.667 46 -151 138 -151c52.667 0 100 21.667 142 65
c39.333 40.667 65.666 91.334 78.999 152.001zM563.001 426.998l18.998 91.001h60l-99 -468c-37.333 -174.667 -137 -262 -299 -262c-64 0 -113 14.667 -147 44c-28 24.667 -42 54.334 -42 89.001c0 5.33301 0.666992 10.666 2 15.999h64
c0.666992 -63.333 45.334 -95 134.001 -95c74.667 0 131.667 25.333 171 76c28.667 37.333 50 92.333 64 165c-25.333 -30.667 -56.666 -54.5 -93.999 -71.5s-74.666 -25.5 -111.999 -25.5c-60.667 0 -107 18.667 -139 56c-28.667 33.333 -43 79 -43 137
c0 25.333 3 52.333 9 81c17.333 82 49.333 146.333 96 193c51.333 52.667 116.666 79 195.999 79c34.667 0 67.167 -9.33301 97.5 -28s50.5 -44.334 60.5 -77.001h2z" />
    <glyph glyph-name="h" unicode="h" 
d="M132 0h-60.001l153 720h60l-58 -274c66 57.333 127.667 86 185 86c72 0 119.333 -24.667 142 -74c7.33301 -14.667 11 -31.334 11 -50.001c0 -15.333 -3.33301 -38.333 -10 -69l-72 -339h-60l72 338c4 18.667 6 35.334 6 50.001c0 60 -36.667 90 -110 90
c-35.333 0 -68.666 -10.333 -99.999 -31c-27.333 -18 -49.333 -41.333 -66 -70c-14 -24 -25.333 -56.667 -34 -98z" />
    <glyph glyph-name="i" unicode="i" horiz-adv-x="222" 
d="M141 0h-60l110 518h60zM278 631h-66l19 89h66z" />
    <glyph glyph-name="j" unicode="j" horiz-adv-x="222" 
d="M198 518h60l-125 -587c-10.667 -50 -23 -83.667 -37 -101c-19.333 -22.667 -51 -34 -95 -34c-14.667 0 -27.667 1.33301 -39 4l12 53c8.66699 -1.33301 16.667 -2 24 -2c22.667 0 39.667 6.33301 51 19c10 10 17.667 27.667 23 53zM304 720l-19 -89h-66l19 89h66z" />
    <glyph glyph-name="k" unicode="k" horiz-adv-x="500" 
d="M128 0h-60l153 720h60l-95 -448l306 246h82l-234 -187l147 -331h-67l-133 289l-117 -93z" />
    <glyph glyph-name="l" unicode="l" horiz-adv-x="222" 
d="M141 0h-60l153 720h60z" />
    <glyph glyph-name="m" unicode="m" horiz-adv-x="833" 
d="M183 279l-59.001 -279.002h-60l110 518h60l-16 -78h2c44.667 61.333 104.334 92 179.001 92c44 0 76.667 -9.66699 98 -29c16 -15.333 27 -39 33 -71c48 66.667 111.333 100 190 100c86 0 129 -39.333 129 -118c0 -23.333 -3.66699 -52.333 -11 -87l-70 -327h-60l76 358
c3.33301 16.667 5 31.334 5 44.001c0 50.667 -30 76 -90 76c-48.667 0 -92 -19.667 -130 -59c-28.667 -30 -50 -76.667 -64 -140l-59 -279h-60l76 358c3.33301 16.667 5 31.334 5 44.001c0 50.667 -30 76 -90 76c-48.667 0 -92 -19.667 -130 -59
c-28.667 -30 -50 -76.667 -64 -140z" />
    <glyph glyph-name="n" unicode="n" 
d="M191 279l-59.001 -279h-60l110 518h60l-15 -72c66 57.333 127.667 86 185 86c72 0 119.333 -24.667 142 -74c7.33301 -14.667 11 -31.334 11 -50.001c0 -15.333 -3.33301 -38.333 -10 -69l-72 -339h-60l72 338c4 18.667 6 35.334 6 50.001c0 60 -36.667 90 -110 90
c-35.333 0 -68.666 -10.333 -99.999 -31c-27.333 -18 -49.333 -41.333 -66 -70c-14 -24 -25.333 -56.667 -34 -98z" />
    <glyph glyph-name="o" unicode="o" 
d="M275 -14c-57.333 0.666992 -103.001 16.999 -137.001 48.999c-36 34 -54 82 -54 144c0 24.667 3 51.334 9 80.001c16.667 79.333 50.334 143.666 101.001 192.999c54.667 53.333 120.334 80 197.001 80c63.333 0 111.666 -18 144.999 -54
c30.667 -33.333 46 -79.333 46 -138c0 -25.333 -3 -52.333 -9 -81c-17.333 -82 -53.333 -148.167 -108 -198.5s-118 -75.166 -190 -74.499zM517.999 333.999c0 96 -46 144 -138 144c-59.333 0 -109.333 -22.333 -150 -67c-35.333 -39.333 -59.666 -90 -72.999 -152
c-5.33301 -25.333 -8 -49 -8 -71c0 -46 11.667 -82.167 35 -108.5s57.666 -39.5 102.999 -39.5c70.667 0 128 32.333 172 97c39.333 57.333 59 123 59 197z" />
    <glyph glyph-name="p" unicode="p" horiz-adv-x="611" 
d="M194 257c-4.66699 -21.333 -7 -41.667 -7 -61c0 -46 11.333 -83 34 -111c24.667 -30 58.667 -45 102 -45c58.667 0 108.667 23 150 69c38 42 63.333 97.333 76 166c4 20 6 39 6 57c0 46.667 -12.5 82.667 -37.5 108s-58.833 38 -101.5 38
c-55.333 0 -103.333 -21.333 -144 -64c-38.667 -40 -64.667 -92.333 -78 -157zM157 82.999l-61.001 -287h-60l153 722h60l-19 -91h2c23.333 32.667 55 58.667 95 78c36.667 18 72.334 27 107.001 27c124 0 186 -61 186 -183c0 -27.333 -3.33301 -57 -10 -89
c-16.667 -78 -49 -141.667 -97 -191c-53.333 -55.333 -117.333 -83 -192 -83c-37.333 0 -71 8.5 -101 25.5s-51 40.833 -63 71.5z" />
    <glyph glyph-name="q" unicode="q" horiz-adv-x="611" 
d="M527 261c4.66699 21.333 6.99902 41.667 6.99902 61c0 46 -11.333 83 -34 111c-24.667 30 -58.334 45 -101.001 45c-59.333 0 -109.666 -23 -150.999 -69c-38 -42 -63.333 -97.333 -76 -166c-4 -20 -6 -39 -6 -57c0 -46.667 12.5 -82.667 37.5 -108s59.167 -38 102.5 -38
c54.667 0 102.334 21.333 143.001 64c38.667 40 64.667 92.333 78 157zM562.999 427.001l18.999 91.001h60l-153 -722h-60l61 287c-25.333 -30.667 -56.666 -54.5 -93.999 -71.5s-74.666 -25.5 -111.999 -25.5c-60.667 0 -107 18.667 -139 56c-28.667 33.333 -43 79 -43 137
c0 25.333 3 52.333 9 81c17.333 82 49.333 146.333 96 193c51.333 52.667 116.666 79 195.999 79c34.667 0 67.167 -9.33301 97.5 -28s50.5 -44.334 60.5 -77.001h2z" />
    <glyph glyph-name="r" unicode="r" horiz-adv-x="333" 
d="M189 254l-54 -254.001h-60l110 518h60l-21 -97h2c25.333 40.667 52.833 69.334 82.5 86.001s66.5 25 110.5 25l-14 -65c-113.333 2.66699 -185.333 -68.333 -216 -213z" />
    <glyph glyph-name="s" unicode="s" horiz-adv-x="500" 
d="M80 162h61.001c0 -44 10.167 -75.333 30.5 -94s53.5 -28 99.5 -28c37.333 0 70.666 9.33301 99.999 28c33.333 21.333 50 50 50 86c0 31.333 -24.667 54.333 -74 69l-137 35c-49.333 19.333 -74 50.666 -74 93.999c0 10 1.33301 20.667 4 32c9.33301 44 33 79.667 71 107
s85.333 41 142 41c110.667 0 166 -46.667 166 -140c0 -7.33301 -0.333008 -15 -1 -23h-61c6 72.667 -32.667 109 -116 109c-37.333 0 -68 -8 -92 -24s-38.667 -37.667 -44 -65c-1.33301 -6 -2 -11.333 -2 -16c0 -30 24.333 -53 73 -69l137 -40
c49.333 -20.667 74 -52.667 74 -96c0 -9.33301 -1.33301 -19.666 -4 -30.999c-10 -48 -38 -85.667 -84 -113c-42.667 -25.333 -95.667 -38 -159 -38c-52 0 -92.667 13.667 -122 41c-26.667 25.333 -40 59.333 -40 102c0 10.667 0.666992 21.667 2 33z" />
    <glyph glyph-name="t" unicode="t" horiz-adv-x="278" 
d="M264 47l-10 -49c-39.333 -8 -63.333 -12 -72 -12c-50 0 -75 21.333 -75 64c0 11.333 1.66699 24.333 5 39l80 379h-73l11 50h73l31 144h60l-31 -144h97l-11 -50h-97l-75 -355c-4 -20 -6 -34.333 -6 -43c0 -20 14.333 -30 43 -30c14 0 30.667 2.33301 50 7z" />
    <glyph glyph-name="u" unicode="u" 
d="M473 236l60 282h60l-110 -518h-60l15 72c-28.667 -26.667 -53 -45.334 -73 -56.001c-34.667 -20 -72 -30 -112 -30c-100.667 0 -151 43 -151 129c0 18.667 2.66699 39.334 8 62.001l72 341h60l-72 -340c-4 -17.333 -6 -33 -6 -47c0 -60.667 36.667 -91 110 -91
c48 0 90.167 18.167 126.5 54.5s60.5 83.5 72.5 141.5z" />
    <glyph glyph-name="v" unicode="v" horiz-adv-x="500" 
d="M215 0l-88 518h65l74 -444l262 444h65l-311 -518h-67z" />
    <glyph glyph-name="w" unicode="w" horiz-adv-x="722" 
d="M506 518l21 -438l229 438h61l-278 -518h-64l-21 435h-2l-207 -435h-72l-48 518h60l40 -442l214 442h67z" />
    <glyph glyph-name="x" unicode="x" horiz-adv-x="500" 
d="M409 0l-109 224l-209 -224h-73l256 268l-130 250h74l99 -206l191 206h76l-240 -250l137 -268h-72z" />
    <glyph glyph-name="y" unicode="y" horiz-adv-x="500" 
d="M26 -197l11.999 56c20.667 -4 37 -6 49 -6c28 0 54.333 18.333 79 55l52 88l-90 522h67l72 -445l260 445h65l-302 -511c-45.333 -78 -79.333 -129.333 -102 -154c-33.333 -38 -68.666 -57 -105.999 -57c-19.333 0 -38 2.33301 -56 7z" />
    <glyph glyph-name="z" unicode="z" horiz-adv-x="500" 
d="M467 0h-434l11 53l432 415h-321l11 50h398l-11 -53l-432 -415h357z" />
    <glyph glyph-name="braceleft" unicode="{" horiz-adv-x="333" 
d="M211 395l38.999 181.998c12.667 62 32.167 104.833 58.5 128.5s68.833 34.167 127.5 31.5l-2 2c-61.333 -18.667 -98.666 -59.667 -111.999 -123l-41 -192c-9.33301 -43.333 -21 -75.333 -35 -96c-18 -26.667 -44.333 -44.334 -79 -53.001v-2
c40.667 -9.33301 61 -35 61 -77c0 -15.333 -2.66699 -34.666 -8 -57.999l-43 -206c-3.33301 -14.667 -5 -27.667 -5 -39c0 -41.333 22.333 -68.666 67 -81.999l-1 -2c-46 -0.666992 -78.833 5.83301 -98.5 19.5s-29.5 36.167 -29.5 67.5c0 16 2.33301 35 7 57l43 204
c4 18 6 33 6 45c0 38.667 -21 62.334 -63 71.001v2c37.333 10 63.333 24.333 78 43c12 15.333 22 41 30 77z" />
    <glyph glyph-name="bar" unicode="|" horiz-adv-x="222" 
d="M81 0l157 739h60l-157 -739h-60z" />
    <glyph glyph-name="braceright" unicode="}" horiz-adv-x="333" 
d="M236 157l-38 -181.998c-13.333 -62 -32.666 -104.333 -57.999 -127c-27.333 -24.667 -70 -35.667 -128 -33l1 -2c61.333 18.667 98.666 59.667 111.999 123l41 192c9.33301 43.333 21 75.333 35 96c18 26.667 44.333 44.334 79 53.001v2c-40 9.33301 -60 35 -60 77
c0 15.333 2.33301 34.666 7 57.999l44 206c2.66699 14.667 4 27.667 4 39c0 41.333 -22 68.666 -66 81.999v2c46 0.666992 78.833 -5.83301 98.5 -19.5s29.5 -36.167 29.5 -67.5c0 -16 -2.33301 -35 -7 -57l-43 -204c-4 -18 -6 -33 -6 -45c0 -38.667 21 -62.334 63 -71.001
v-2c-36.667 -10 -62.667 -24.333 -78 -43c-12 -15.333 -22 -41 -30 -77z" />
    <glyph glyph-name="asciitilde" unicode="~" horiz-adv-x="660" 
d="M290 324c25.333 0 61.499 -12 108.499 -36s79.167 -36 96.5 -36c35.333 0 74.333 29 117 87l33 -34c-53.333 -72.667 -107.666 -109 -162.999 -109c-23.333 0 -65.333 14 -126 42l-37 19c-15.333 7.33301 -29 11 -41 11c-35.333 0 -78 -31.333 -128 -94l-23 47
c60.667 68.667 115 103 163 103z" />
    <glyph glyph-name="euro" horiz-adv-x="498" 
d="M522 633l-22.999 -156.001l-48 6c0 104.667 -31.333 157 -94 157c-68.667 0 -122.334 -70.333 -161.001 -211h172l-21 -48h-164c-4 -16 -9.33301 -40.333 -16 -73h147l-21 -47h-134c-4 -27.333 -6 -52 -6 -74c0 -37.333 7 -67.666 21 -90.999
c17.333 -28.667 43.333 -43 78 -43c38.667 0 72.334 22.667 101.001 68c16 25.333 33 65 51 119l55 -10l-54 -188c-51.333 -35.333 -104.333 -53 -159 -53c-74 0 -129.333 28 -166 84c-31.333 47.333 -47 110 -47 188h-74l21 47h56c2 16.667 6 41 12 73h-66l21 48h59
c27.333 74.667 63.333 135.667 108 183c55.333 58.667 117.666 88 186.999 88c62.667 0 117.667 -22.333 165 -67z" />
    <glyph glyph-name="exclamdown" unicode="&#xa1;" horiz-adv-x="333" 
d="M219 352h45l-53 -315l-48 -224h-73l48 224zM298 445h-73l18 87h73z" />
    <glyph glyph-name="cent" unicode="&#xa2;" 
d="M205 68l220 405c-10.667 3.33301 -24 5 -40 5c-68 0 -124.333 -31.667 -169 -95c-40 -57.333 -60 -121.333 -60 -192c0 -57.333 16.333 -98.333 49 -123zM464 456l-222 -408.999c18 -4.66699 34.667 -7 50 -7c90.667 0 153.334 46.333 188.001 139h64
c-19.333 -54.667 -51.333 -99.667 -96 -135c-49.333 -38.667 -105.333 -58 -168 -58c-22.667 0 -44.667 2.66699 -66 8l-74 -135h-47l81 150c-56 30 -84 85 -84 165c0 26 3.33301 54 10 84c18 86 55 153.667 111 203c53.333 47.333 115 71 185 71
c19.333 0 38.666 -1.66699 57.999 -5l66 120h48l-73 -134c57.333 -26.667 83.333 -79.334 78 -158.001h-61c-2 46 -18 79.667 -48 101z" />
    <glyph glyph-name="sterling" unicode="&#xa3;" 
d="M262 365l165.998 -0.00292969l-9 -42h-151c1.33301 -26 0 -48.667 -4 -68c-12.667 -60 -58 -122.667 -136 -188l2 -2c38 18 69.667 27 95 27c28 0 59 -7 93 -21s61 -21 81 -21c32.667 0 72.667 19 120 57l23 -51c-36 -27.333 -66.667 -45.833 -92 -55.5
s-57.666 -14.5 -96.999 -14.5c-14.667 0 -40 7.33301 -76 22s-66.667 22 -92 22c-21.333 0 -58.666 -11 -111.999 -33l-22 58c81.333 51.333 129.333 111.333 144 180c6.66699 30.667 6 60 -2 88h-99l9 42h81l-16 46c-6 21.333 -9 42 -9 62
c0 15.333 1.66699 31.666 5 48.999c11.333 54.667 39.833 98.834 85.5 132.501s104.5 50.5 176.5 50.5c56.667 0 102 -14.5 136 -43.5s51 -68.5 51 -118.5c0 -17.333 -2 -35.666 -6 -54.999h-66c2.66699 14.667 4 28.334 4 41.001c0 81.333 -43.333 122 -130 122
c-43.333 0 -82.333 -11 -117 -33c-38 -24 -61.667 -57 -71 -99c-2 -9.33301 -3 -18.666 -3 -27.999c0 -18.667 4.66699 -40 14 -64z" />
    <glyph glyph-name="currency" unicode="&#xa4;" 
d="M55 110l52 42.001c-14.667 32 -22 63.667 -22 95c0 16.667 2 34.334 6 53.001c11.333 55.333 38 105.666 80 150.999l-34 43l63 53l35 -43c50 32.667 105 49 165 49c49.333 0 94.333 -16.333 135 -49l53 43l41 -53l-52 -43c14.667 -30.667 22 -62 22 -94
c0 -18.667 -2.33301 -39.334 -7 -62.001c-10.667 -48 -37 -95.667 -79 -143l34 -42l-63 -53l-35 43c-52.667 -33.333 -107.667 -50 -165 -50c-49.333 0 -94.333 16.667 -135 50l-53 -43zM384 481.001c-52 0 -99.167 -17.167 -141.5 -51.5s-68.833 -77.5 -79.5 -129.5
c-2.66699 -12 -4 -24 -4 -36c0 -40.667 13.333 -74.667 40 -102s61 -41 103 -41c50 0 96.5 17.667 139.5 53s69.833 78.333 80.5 129c2.66699 12 4 24 4 36c0 40 -13.167 73.667 -39.5 101s-60.5 41 -102.5 41z" />
    <glyph glyph-name="yen" unicode="&#xa5;" 
d="M233 720l123 -347l276 347h73l-232 -286h111l-11 -54h-144l-52 -66l-9 -42h182l-12 -54h-182l-46 -218h-64l46 218h-182l12 54h182l9 42l-24 66h-144l11 54h111l-110 286h76z" />
    <glyph glyph-name="brokenbar" unicode="&#xa6;" horiz-adv-x="222" 
d="M81 0l63 296h60l-63 -296h-60zM175 443l63 296h60l-63 -296h-60z" />
    <glyph glyph-name="section" unicode="&#xa7;" 
d="M435 341l-150 106c-74.667 -28.667 -112 -69 -112 -121c0 -31.333 21 -62.666 63 -93.999l154 -115c76.667 37.333 115 80.666 115 129.999c0 30 -23.333 61.333 -70 94zM303 102l-114.002 82.0029c-48.667 35.333 -73 74.666 -73 117.999c0 10.667 1 21.667 3 33
c14 66 60 114 138 144c-21.333 31.333 -32 59.666 -32 84.999c0 9.33301 1 19.333 3 30c8.66699 41.333 31.334 75.333 68.001 102c39.333 28.667 87.333 43 144 43c94 0 141 -42.333 141 -127c0 -16 -2 -33.333 -6 -52h-54c2.66699 14.667 4 28 4 40
c0 56.667 -33.667 85 -101 85c-33.333 0 -61.666 -8 -84.999 -24c-25.333 -16.667 -41.333 -41 -48 -73c-1.33301 -5.33301 -2 -11 -2 -17c0 -32 23.667 -64.667 71 -98l131 -89c47.333 -37.333 71 -76.666 71 -117.999c0 -8.66699 -1 -17.334 -3 -26.001
c-7.33301 -34.667 -25 -65.334 -53 -92.001c-18.667 -18.667 -48.667 -40 -90 -64c24.667 -28.667 37 -57 37 -85c0 -8 -1 -16.333 -3 -25c-10 -48.667 -35.333 -87.334 -76 -116.001c-38 -26 -82 -39 -132 -39c-48.667 0 -86 12.333 -112 37s-39 59 -39 103
c0 13.333 1 27.333 3 42h61c-2.66699 -14 -4 -27 -4 -39c0 -59.333 34.333 -89 103 -89c30 0 57.833 8.33301 83.5 25s41.5 39.667 47.5 69c1.33301 6.66699 2 13.334 2 20.001c0 36 -28 74.333 -84 115z" />
    <glyph glyph-name="dieresis" unicode="&#xa8;" horiz-adv-x="333" 
d="M184 584l22 102h65l-22 -102h-65zM343 584l22 102h65l-22 -102h-65z" />
    <glyph glyph-name="copyright" unicode="&#xa9;" horiz-adv-x="800" 
d="M397 -19c-90.667 0 -164.667 28.3311 -222 84.998s-86 128.334 -86 215.001c0 26.667 3 53.334 9 80.001c22 104 78 193 168 267s187.333 111 292 111c90 0 163.5 -28.333 220.5 -85s85.5 -128 85.5 -214c0 -26 -2.66699 -52.333 -8 -79
c-22.667 -105.333 -78.667 -195 -168 -269s-186.333 -111 -291 -111zM408 30.998c91.333 0 173.831 31.668 247.498 95.001s120.5 141.666 140.5 234.999c5.33301 26 8 51 8 75c0 74.667 -23.333 135.5 -70 182.5s-109 70.5 -187 70.5
c-91.333 0 -174.166 -31.5 -248.499 -94.5s-121.166 -140.833 -140.499 -233.5c-6 -26 -9 -51.333 -9 -76c0 -75.333 23.333 -136 70 -182c47.333 -48 110.333 -72 189 -72zM600.998 291.999l54.001 0.000976562c-14 -44 -40.667 -79.5 -80 -106.5s-81.333 -40.5 -126 -40.5
c-53.333 0 -95 15.167 -125 45.5s-45 70.166 -45 119.499c0 17.333 2 35.333 6 54c14 64 43.833 116.167 89.5 156.5s100.167 60.5 163.5 60.5c46.667 0 83.667 -12.667 111 -38s39.666 -60.333 36.999 -105h-54c0.666992 29.333 -8.5 53.166 -27.5 71.499
s-43.833 27.5 -74.5 27.5c-48 0 -89 -17 -123 -51c-32 -31.333 -53 -71.666 -63 -120.999c-3.33301 -16 -5 -31.333 -5 -46c0 -38 9.66699 -68.667 29 -92c21.333 -25.333 51.333 -38 90 -38c30.667 0 59.5 9.5 86.5 28.5s45.833 43.833 56.5 74.5z" />
    <glyph glyph-name="ordfeminine" unicode="&#xaa;" horiz-adv-x="334" 
d="M359 534l10 49c-23.333 -8.66699 -58.333 -14.667 -105 -18c-74.667 -5.33301 -112 -31 -112 -77c0 -14.667 6.16699 -26.167 18.5 -34.5s27.5 -12.5 45.5 -12.5c33.333 0 63 7.66699 89 23c29.333 16.667 47.333 40 54 70zM73 307l9 39h317l-9 -39h-317zM251 594
l55.9971 7.00098c13.333 1.33301 31.333 4.66602 54 9.99902c10 4 17 14.667 21 32c0.666992 5.33301 1 10.666 1 15.999c0 33.333 -23.667 50 -71 50c-59.333 0 -97.333 -24.333 -114 -73h-40c20.667 68.667 74.334 103 161.001 103c69.333 0 104 -24 104 -72
c0 -8 -1 -16.333 -3 -25l-35 -169c-1.33301 -6 -2 -11 -2 -15c0 -9.33301 4.33301 -14 13 -14c6 0 14 1.66699 24 5l-6 -28c-17.333 -5.33301 -33.666 -7 -48.999 -5c-19.333 2.66699 -26.666 18.334 -21.999 47.001c-40 -34.667 -85.333 -52 -136 -52
c-27.333 0 -50 6 -68 18s-27 29.333 -27 52c0 6 0.666992 12.333 2 19c11.333 52.667 57 84 137 94z" />
    <glyph glyph-name="guillemotleft" unicode="&#xab;" 
d="M345 228l14 63l170 113l-14 -63l-121 -82l87 -80l-13 -62zM161 228l14 63l170 113l-14 -63l-121 -82l87 -80l-13 -62z" />
    <glyph glyph-name="logicalnot" unicode="&#xac;" horiz-adv-x="660" 
d="M540 112l44 206h-436l12 60h500l-56 -266h-64z" />
    <glyph glyph-name="sfthyphen" unicode="&#xad;" horiz-adv-x="338" 
d="M8 174l33 122h246l-33 -122h-246z" />
    <glyph glyph-name="registered" unicode="&#xae;" horiz-adv-x="800" 
d="M397 -19c-90.667 0 -164.667 28.3311 -222 84.998s-86 128.334 -86 215.001c0 26.667 3 53.334 9 80.001c22 104 78 193 168 267s187.333 111 292 111c90 0 163.5 -28.333 220.5 -85s85.5 -128 85.5 -214c0 -26 -2.66699 -52.333 -8 -79
c-22.667 -105.333 -78.667 -195 -168 -269s-186.333 -111 -291 -111zM408 30.998c91.333 0 173.831 31.668 247.498 95.001s120.5 141.666 140.5 234.999c5.33301 26 8 51 8 75c0 74.667 -23.333 135.5 -70 182.5s-109 70.5 -187 70.5
c-91.333 0 -174.166 -31.5 -248.499 -94.5s-121.166 -140.833 -140.499 -233.5c-6 -26 -9 -51.333 -9 -76c0 -75.333 23.333 -136 70 -182c47.333 -48 110.333 -72 189 -72zM534.998 343.999l87 -195h-62l-80 195h-95l-41 -195h-52l90 423h185c86 0 129 -27 129 -81
c0 -9.33301 -1 -19.666 -3 -30.999c-16 -74.667 -68.667 -113.334 -158 -116.001zM393.998 384.999l78.999 0.000976562c50.667 0 83.334 2 98.001 6c36 9.33301 58 32.666 66 69.999c1.33301 7.33301 2 14 2 20c0 36 -30.667 54 -92 54h-121z" />
    <glyph glyph-name="macron" unicode="&#xaf;" horiz-adv-x="333" 
d="M153 612l10 45h296l-10 -45h-296z" />
    <glyph glyph-name="macron" unicode="&#x2c9;" horiz-adv-x="333" 
d="M153 612l10 45h296l-10 -45h-296z" />
    <glyph glyph-name="degree" unicode="&#xb0;" horiz-adv-x="400" 
d="M286 405c-36 0 -65.167 11.167 -87.5 33.5s-33.5 50.833 -33.5 85.5c0 46.667 19 88.5 57 125.5s80.667 55.5 128 55.5c35.333 0 64.333 -11.333 87 -34s34 -51 34 -85c0 -46.667 -19 -88.5 -57 -125.5s-80.667 -55.5 -128 -55.5zM430 577
c0 25.333 -8.33203 46.332 -24.999 62.999s-38.334 25 -65.001 25c-34 0 -64.833 -13.5 -92.5 -40.5s-41.5 -57.833 -41.5 -92.5c0 -25.333 8.16699 -46.166 24.5 -62.499s37.833 -24.5 64.5 -24.5c34 0 65 13.5 93 40.5s42 57.5 42 91.5z" />
    <glyph glyph-name="plusminus" unicode="&#xb1;" horiz-adv-x="660" 
d="M370 330l36 170h60l-36 -170h220l-13 -60h-220l-36 -170h-60l36 170h-220l13 60h220zM80 0l13 60h500l-13 -60h-500z" />
    <glyph glyph-name="twosuperior" unicode="&#xb2;" horiz-adv-x="333" 
d="M200 600h-44.001c8.66699 42 29.334 75.667 62.001 101s71.334 38 116.001 38c38.667 0 68.167 -8.5 88.5 -25.5s30.5 -39.167 30.5 -66.5c0 -8 -1 -16.333 -3 -25c-10 -46.667 -43 -86 -99 -118l-140 -70c-44 -27.333 -70 -56 -78 -86h255l-7 -32h-299
c9.33301 44 28.833 78.667 58.5 104s68.167 50 115.5 74c54.667 28 87 45.333 97 52c28 20 45.333 44.667 52 74c1.33301 6.66699 2 13 2 19c0 21.333 -7.83301 38 -23.5 50s-36.167 18 -61.5 18c-29.333 0 -55.833 -10.5 -79.5 -31.5s-37.834 -46.167 -42.501 -75.5z" />
    <glyph glyph-name="threesuperior" unicode="&#xb3;" horiz-adv-x="333" 
d="M244 520l6.00098 31.001c87.333 0 136.666 27 147.999 81c1.33301 6 2 11.667 2 17c0 38.667 -27.667 58 -83 58c-29.333 0 -55 -8.5 -77 -25.5s-35.667 -38.833 -41 -65.5h-41c8 38.667 29.333 70.334 64 95.001c26 18.667 62.667 28 110 28c33.333 0 60.333 -7 81 -21
s31 -34 31 -60c0 -7.33301 -1 -15 -3 -23c-10 -45.333 -38.333 -77 -85 -95c41.333 -12.667 62 -38.334 62 -77.001c0 -45.333 -18.667 -83 -56 -113c-34.667 -27.333 -75.667 -41.333 -123 -42c-48 -0.666992 -82.833 6.66602 -104.5 21.999s-32.5 41.666 -32.5 78.999
c0 9.33301 0.666992 19 2 29h42c-2 -8.66699 -3 -16.667 -3 -24c0 -49.333 32 -74 96 -74c33.333 0 63.333 10.333 90 31c30 22 45 49 45 81c0 50.667 -43.333 73.334 -130 68.001z" />
    <glyph glyph-name="acute" unicode="&#xb4;" horiz-adv-x="333" 
d="M282 574h-51l141 139h77z" />
    <glyph glyph-name="mu" unicode="&#xb5;" 
d="M473 236l60 282.001h60l-110 -518h-60l15 72c-28.667 -26.667 -53 -45.334 -73 -56.001c-34.667 -20 -72 -30 -112 -30c-48 0 -87 10.667 -117 32l-47 -222h-60l153 722h60l-72 -340c-4 -17.333 -6 -33 -6 -47c0 -60.667 36.667 -91 110 -91
c48 0 90.167 18.167 126.5 54.5s60.5 83.5 72.5 141.5z" />
    <glyph glyph-name="mu" unicode="&#x3bc;" 
d="M473 236l60 282.001h60l-110 -518h-60l15 72c-28.667 -26.667 -53 -45.334 -73 -56.001c-34.667 -20 -72 -30 -112 -30c-48 0 -87 10.667 -117 32l-47 -222h-60l153 722h60l-72 -340c-4 -17.333 -6 -33 -6 -47c0 -60.667 36.667 -91 110 -91
c48 0 90.167 18.167 126.5 54.5s60.5 83.5 72.5 141.5z" />
    <glyph glyph-name="paragraph" unicode="&#xb6;" horiz-adv-x="650" 
d="M227 -146l101.999 482c-44 -0.666992 -80.833 13.833 -110.5 43.5s-44.5 66.167 -44.5 109.5c0 12 1.33301 24.333 4 37c12.667 62 42.334 109.833 89.001 143.5s105 50.5 175 50.5h217l-184 -866h-60l170 799h-128l-170 -799h-60z" />
    <glyph glyph-name="ch270" unicode="&#xb7;" horiz-adv-x="249" 
d="M38 348c0 22.667 7.66699 41.667 23 57s34.333 23 57 23s41.834 -7.66699 57.501 -23s23.5 -34.333 23.5 -57s-7.83301 -41.834 -23.5 -57.501s-34.834 -23.5 -57.501 -23.5s-41.667 7.83301 -57 23.5s-23 34.834 -23 57.501z" />
    <glyph glyph-name="ch270" unicode="&#x2219;" horiz-adv-x="249" 
d="M38 348c0 22.667 7.66699 41.667 23 57s34.333 23 57 23s41.834 -7.66699 57.501 -23s23.5 -34.333 23.5 -57s-7.83301 -41.834 -23.5 -57.501s-34.834 -23.5 -57.501 -23.5s-41.667 7.83301 -57 23.5s-23 34.834 -23 57.501z" />
    <glyph glyph-name="cedilla" unicode="&#xb8;" horiz-adv-x="333" 
d="M14 -188l20.998 30c28 -10 48.333 -15 61 -15c17.333 0 32.666 3.66699 45.999 11c16.667 8.66699 26.667 20.667 30 36c6 26 -7.66699 39 -41 39c-9.33301 0 -24.666 -2.66699 -45.999 -8l-12 13l77 82h39l-60 -59c17.333 4 30 6 38 6
c20.667 0 37.334 -5.66699 50.001 -17c10.667 -10 16 -21.667 16 -35c-1.33301 -34 -15.666 -60 -42.999 -78c-24 -16 -53.667 -24 -89 -24c-27.333 0 -56.333 6.33301 -87 19z" />
    <glyph glyph-name="onesuperior" unicode="&#xb9;" horiz-adv-x="333" 
d="M272 316l67 314.001h-118l5 26c42 2.66699 71.333 8 88 16c24.667 11.333 43.667 33.666 57 66.999h33l-90 -423h-42z" />
    <glyph glyph-name="ordmasculine" unicode="&#xba;" horiz-adv-x="334" 
d="M254 411c-37.333 0.666992 -67.667 11.165 -91 31.498s-35 49.5 -35 87.5c0 14 1.66699 29 5 45c10 48 31.333 86.667 64 116c34.667 32 77 48 127 48c42 0 74 -11.333 96 -34c20 -20.667 30 -49 30 -85c0 -14 -1.66699 -29 -5 -45
c-10 -49.333 -32.5 -89.166 -67.5 -119.499s-76.167 -45.166 -123.5 -44.499zM167.999 535.998c0 -63.333 31 -95 93 -95c44 0 80.667 18.667 110 56c26.667 34.667 40 74.667 40 120c0 61.333 -31 92 -93 92c-44 0 -80.667 -18.333 -110 -55
c-26.667 -34 -40 -73.333 -40 -118zM75.999 306.998l9 39h312l-9 -39h-312z" />
    <glyph glyph-name="guillemotright" unicode="&#xbb;" 
d="M505 293l-13 -63l-170 -113l13 63l122 82l-87 80l13 62zM321 293l-13 -63l-170 -113l13 63l122 82l-87 80l13 62z" />
    <glyph glyph-name="onequarter" unicode="&#xbc;" horiz-adv-x="834" 
d="M216 -14h-51l597 719h51zM225 316l67 314.001h-118l5 26c42 2.66699 71.333 8 88 16c24.667 11.333 43.667 33.666 57 66.999h33l-90 -423h-42zM689 0.000976562l22 104h-209l7 33l273 282h38l-60 -282h63l-7 -33h-63l-22 -104h-42zM766 361.001l-216 -224h168z" />
    <glyph glyph-name="onehalf" unicode="&#xbd;" horiz-adv-x="834" 
d="M176 -14h-51l597 719h51zM225 316l67 314.001h-118l5 26c42 2.66699 71.333 8 88 16c24.667 11.333 43.667 33.666 57 66.999h33l-90 -423h-42zM608 284.001h-43.9961c9.33301 42 30.166 75.667 62.499 101s71.166 38 116.499 38c38.667 0 68.167 -8.5 88.5 -25.5
s30.5 -39.167 30.5 -66.5c0 -8 -1 -16.333 -3 -25c-10 -46.667 -43 -86 -99 -118l-140 -70c-44 -27.333 -70 -56 -78 -86h255l-7 -32h-299c9.33301 44 28.666 78.667 57.999 104s67.666 50 114.999 74c55.333 28 87.666 45.333 96.999 52c28.667 20 46.334 44.667 53.001 74
c1.33301 6.66699 2 13 2 19c0 21.333 -7.83301 38 -23.5 50s-36.167 18 -61.5 18c-29.333 0 -55.833 -10.5 -79.5 -31.5s-38.167 -46.167 -43.5 -75.5z" />
    <glyph glyph-name="threequarters" unicode="&#xbe;" horiz-adv-x="834" 
d="M766 361l-216 -224h168zM273 520l6.00098 31.001c87.333 0 136.666 27 147.999 81c1.33301 6 2 11.667 2 17c0 38.667 -27.667 58 -83 58c-29.333 0 -55 -8.5 -77 -25.5s-35.667 -38.833 -41 -65.5h-41c8 38.667 29.333 70.334 64 95.001c26 18.667 62.667 28 110 28
c33.333 0 60.333 -7 81 -21s31 -34 31 -60c0 -7.33301 -1 -15 -3 -23c-10 -45.333 -38.333 -77 -85 -95c41.333 -12.667 62 -38.334 62 -77.001c0 -45.333 -18.667 -83 -56 -113c-34.667 -27.333 -75.667 -41.333 -123 -42c-48 -0.666992 -82.833 6.66602 -104.5 21.999
s-32.5 41.666 -32.5 78.999c0 9.33301 0.666992 19 2 29h42c-2 -8.66699 -3 -16.667 -3 -24c0 -49.333 32 -74 96 -74c33.333 0 63.333 10.333 90 31c30 22 45 49 45 81c0 50.667 -43.333 73.334 -130 68.001zM256.001 -13.999h-51l597 719h51zM689.001 0.000976562l22 104
h-209l7 33l273 282h38l-60 -282h63l-7 -33h-63l-22 -104h-42z" />
    <glyph glyph-name="questiondown" unicode="&#xbf;" horiz-adv-x="500" 
d="M404 16l61 -0.00195312c-8.66699 -65.333 -38.167 -118.833 -88.5 -160.5s-108.5 -62.5 -174.5 -62.5c-58 0 -103 12.833 -135 38.5s-48 60.834 -48 105.501c0 14 1.66699 28.667 5 44c7.33301 34 25 66 53 96c15.333 15.333 44.666 40 87.999 74
c40.667 31.333 70.334 58 89.001 80s34 61.667 46 119h58c-8 -43.333 -17.333 -76.666 -28 -99.999c-14.667 -32 -36.667 -60.667 -66 -86l-109 -89c-38.667 -34.667 -61.334 -67.667 -68.001 -99c-2 -9.33301 -3 -18.333 -3 -27c0 -30 11.5 -54.5 34.5 -73.5
s55.167 -28.5 96.5 -28.5c48 0 89.333 16 124 48s56.334 72.333 65.001 121zM330 531.998h73l-19 -88h-73z" />
    <glyph glyph-name="Agrave" unicode="&#xc0;" horiz-adv-x="667" 
d="M504 780h-31l-182 139h87zM651 0h-70l-35 226h-328l-133 -226h-70l436 720h77zM535 284l-60 378l-222 -378h282z" />
    <glyph glyph-name="Aacute" unicode="&#xc1;" horiz-adv-x="667" 
d="M85 0h-70l436 720h77l123 -720h-70l-35 226h-328zM475 662l-222 -378h282zM503 780h-31l126 139h87z" />
    <glyph glyph-name="Acircumflex" unicode="&#xc2;" horiz-adv-x="667" 
d="M85 0h-70l436 720h77l123 -720h-70l-35 226h-328zM475 662l-222 -378h282zM500 832l-94 -92h-58l129 125h61l74 -125h-58z" />
    <glyph glyph-name="Atilde" unicode="&#xc3;" horiz-adv-x="667" 
d="M85 0h-70l436 720h77l123 -720h-70l-35 226h-328zM475 662l-222 -378h282zM350 780h-32.999c14 18 33.333 35.667 58 53c33.333 23.333 63.333 35 90 35c11.333 0 27.5 -6.83301 48.5 -20.5s36.833 -20.5 47.5 -20.5c20 0 44.333 15 73 45h35
c-10 -12 -21.333 -23.333 -34 -34c-42 -35.333 -77.667 -53.333 -107 -54c-16 0 -34.167 6.66699 -54.5 20s-35.833 20 -46.5 20c-20.667 0 -46.334 -14.667 -77.001 -44z" />
    <glyph glyph-name="Adieresis" unicode="&#xc4;" horiz-adv-x="667" 
d="M85 0h-70l436 720h77l123 -720h-70l-35 226h-328zM475 662l-222 -378h282zM394 786l22 102h65l-22 -102h-65zM553 786l22 102h65l-22 -102h-65z" />
    <glyph glyph-name="Aring" unicode="&#xc5;" horiz-adv-x="667" 
d="M85 0h-70l436 720h77l123 -720h-70l-35 226h-328zM475 662l-222 -378h282zM520 780c-23.333 0 -42.667 7.5 -58 22.5s-23 33.833 -23 56.5c0 30 13 57.5 39 82.5s54 37.5 84 37.5c23.333 0 42.5 -7.66699 57.5 -23s22.5 -34.333 22.5 -57
c0 -30.667 -12.667 -58.167 -38 -82.5s-53.333 -36.5 -84 -36.5zM526.999 813c20 0 38.501 8.16797 55.501 24.501s25.5 34.5 25.5 54.5c0 15.333 -5 28.166 -15 38.499s-22.667 15.5 -38 15.5c-20 0 -38.667 -8.16699 -56 -24.5s-26 -34.833 -26 -55.5
c0 -14.667 5.16699 -27.167 15.5 -37.5s23.166 -15.5 38.499 -15.5z" />
    <glyph glyph-name="AE" unicode="&#xc6;" horiz-adv-x="1000" 
d="M73 0h-68l466 720h630l-12 -58h-408l-56 -260h371l-12 -58h-371l-61 -286h420l-12 -58h-488l48 226h-303zM499 662l-242 -378h275l81 378h-114z" />
    <glyph glyph-name="Ccedilla" unicode="&#xc7;" horiz-adv-x="722" 
d="M771 511l-70.0029 -0.000976562c-1.33301 60 -17.666 103.333 -48.999 130s-78.666 40 -141.999 40c-82.667 0 -152.667 -32 -210 -96c-52 -56.667 -87.667 -131 -107 -223c-8.66699 -40.667 -13 -78.334 -13 -113.001c0 -140 66.333 -210 199 -210
c60 0 114.333 18.667 163 56c44.667 34.667 80.334 82 107.001 142h71c-75.333 -170.667 -197.333 -256 -366 -256c-83.333 0 -145.666 24.333 -186.999 73c-38 43.333 -57 104 -57 182c0 38 5 79.333 15 124c27.333 130.667 80 228.334 158 293.001
c69.333 57.333 155 86 257 86c75.333 0 133.666 -19.667 174.999 -59s60 -95.666 56 -168.999zM208.997 -188.001l20.998 30c28 -10 48.333 -15 61 -15c17.333 0 32.666 3.66699 45.999 11c16.667 8.66699 26.667 20.667 30 36c6 26 -7.66699 39 -41 39
c-9.33301 0 -24.666 -2.66699 -45.999 -8l-12 13l77 82h39l-60 -59c17.333 4 30 6 38 6c20.667 0 37.334 -5.66699 50.001 -17c10.667 -10 16 -21.667 16 -35c-1.33301 -34 -15.666 -60 -42.999 -78c-24 -16 -53.667 -24 -89 -24c-27.333 0 -56.333 6.33301 -87 19z" />
    <glyph glyph-name="Egrave" unicode="&#xc8;" horiz-adv-x="611" 
d="M570 0h-489l153 720h479l-12 -58h-411l-56 -260h371l-12 -58h-371l-61 -286h421zM480 780h-31l-182 139h87z" />
    <glyph glyph-name="Eacute" unicode="&#xc9;" horiz-adv-x="611" 
d="M570 0h-489l153 720h479l-12 -58h-411l-56 -260h371l-12 -58h-371l-61 -286h421zM480 780h-31l126 139h87z" />
    <glyph glyph-name="Ecircumflex" unicode="&#xca;" horiz-adv-x="611" 
d="M570 0h-489l153 720h479l-12 -58h-411l-56 -260h371l-12 -58h-371l-61 -286h421zM489 852l-94 -92h-58l129 125h61l74 -125h-58z" />
    <glyph glyph-name="Edieresis" unicode="&#xcb;" horiz-adv-x="611" 
d="M570 0h-489l153 720h479l-12 -58h-411l-56 -260h371l-12 -58h-371l-61 -286h421zM366 786l22 102h65l-22 -102h-65zM525 786l22 102h65l-22 -102h-65z" />
    <glyph glyph-name="Igrave" unicode="&#xcc;" horiz-adv-x="278" 
d="M173 0h-68l153 720h68zM308 780h-31l-182 139h87z" />
    <glyph glyph-name="Iacute" unicode="&#xcd;" horiz-adv-x="278" 
d="M173 0h-68l153 720h68zM307 780h-31l126 139h87z" />
    <glyph glyph-name="Icircumflex" unicode="&#xce;" horiz-adv-x="278" 
d="M173 0h-68l153 720h68zM311 878l-104 -102h-65l144 139h67l83 -139h-65z" />
    <glyph glyph-name="Idieresis" unicode="&#xcf;" horiz-adv-x="278" 
d="M173 0h-68l153 720h68zM180 786l22 102h65l-22 -102h-65zM339 786l22 102h65l-22 -102h-65z" />
    <glyph glyph-name="Eth" unicode="&#xd0;" horiz-adv-x="722" 
d="M290 662l-53.999 -250.999h121l-12 -58h-121l-63 -295h163c70 0 128.667 11 176 33c89.333 41.333 148.666 131.333 177.999 270c8.66699 40 13 76 13 108c0 79.333 -26.333 134.666 -79 165.999c-30 18 -83 27 -159 27h-163zM168.001 411.001l65.999 309h246
c98.667 0 169 -18 211 -54c44.667 -38.667 67 -101.667 67 -189c0 -37.333 -4 -76 -12 -116c-25.333 -118 -73.666 -209 -144.999 -273c-66 -58.667 -157.333 -88 -274 -88h-246l75 353h-71l12 58h71z" />
    <glyph glyph-name="Ntilde" unicode="&#xd1;" horiz-adv-x="722" 
d="M563 0l-281 628h-2l-133 -628h-68l153 720h77l282 -629h2l134 629h68l-153 -720h-79zM415 788l-36.001 -0.000976562c6.66699 22.667 17.334 42.334 32.001 59.001c22.667 25.333 49 38 79 38c15.333 0 37.333 -7.5 66 -22.5s50.334 -22.5 65.001 -22.5
c22 0 40 16.667 54 50h38c-1.33301 -6 -6.66602 -18.667 -15.999 -38c-26 -40 -55 -60 -87 -60c-18.667 0 -42.334 7.5 -71.001 22.5s-50.334 22.5 -65.001 22.5c-22 0 -41.667 -16.333 -59 -49z" />
    <glyph glyph-name="Ograve" unicode="&#xd2;" horiz-adv-x="778" 
d="M129 359c23.333 108.667 69.667 197.666 139 266.999c76 75.333 167.333 113 274 113c85.333 0 151.666 -23.833 198.999 -71.5s71 -114.167 71 -199.5c0 -35.333 -4 -71.666 -12 -108.999c-23.333 -109.333 -70 -198.333 -140 -267c-76 -74 -168 -111 -276 -111
c-85.333 0 -151.166 23.833 -197.499 71.5s-69.5 114.167 -69.5 199.5c0 34 4 69.667 12 107zM397.001 38.999c88 0 162.667 32.335 224 97.002c54.667 57.333 91.667 131.666 111 222.999c8 37.333 12 71.333 12 102c0 68.667 -18.333 122.5 -55 161.5s-89 58.5 -157 58.5
c-87.333 0 -162 -32.667 -224 -98c-54.667 -58.667 -91.667 -133.334 -111 -224.001c-7.33301 -34.667 -11 -67.667 -11 -99c0 -70 17.833 -124.333 53.5 -163s88.167 -58 157.5 -58zM558.001 800.001h-31l-182 139h87z" />
    <glyph glyph-name="Oacute" unicode="&#xd3;" horiz-adv-x="778" 
d="M129 359c23.333 108.667 69.667 197.666 139 266.999c76 75.333 167.333 113 274 113c85.333 0 151.666 -23.833 198.999 -71.5s71 -114.167 71 -199.5c0 -35.333 -4 -71.666 -12 -108.999c-23.333 -109.333 -70 -198.333 -140 -267c-76 -74 -168 -111 -276 -111
c-85.333 0 -151.166 23.833 -197.499 71.5s-69.5 114.167 -69.5 199.5c0 34 4 69.667 12 107zM397.001 38.999c88 0 162.667 32.335 224 97.002c54.667 57.333 91.667 131.666 111 222.999c8 37.333 12 71.333 12 102c0 68.667 -18.333 122.5 -55 161.5s-89 58.5 -157 58.5
c-87.333 0 -162 -32.667 -224 -98c-54.667 -58.667 -91.667 -133.334 -111 -224.001c-7.33301 -34.667 -11 -67.667 -11 -99c0 -70 17.833 -124.333 53.5 -163s88.167 -58 157.5 -58zM557.001 800.001h-31l126 139h87z" />
    <glyph glyph-name="Ocircumflex" unicode="&#xd4;" horiz-adv-x="778" 
d="M129 359c23.333 108.667 69.667 197.666 139 266.999c76 75.333 167.333 113 274 113c85.333 0 151.666 -23.833 198.999 -71.5s71 -114.167 71 -199.5c0 -35.333 -4 -71.666 -12 -108.999c-23.333 -109.333 -70 -198.333 -140 -267c-76 -74 -168 -111 -276 -111
c-85.333 0 -151.166 23.833 -197.499 71.5s-69.5 114.167 -69.5 199.5c0 34 4 69.667 12 107zM397.001 38.999c88 0 162.667 32.335 224 97.002c54.667 57.333 91.667 131.666 111 222.999c8 37.333 12 71.333 12 102c0 68.667 -18.333 122.5 -55 161.5s-89 58.5 -157 58.5
c-87.333 0 -162 -32.667 -224 -98c-54.667 -58.667 -91.667 -133.334 -111 -224.001c-7.33301 -34.667 -11 -67.667 -11 -99c0 -70 17.833 -124.333 53.5 -163s88.167 -58 157.5 -58zM562.001 852.001l-94 -92h-58l129 125h61l74 -125h-58z" />
    <glyph glyph-name="Otilde" unicode="&#xd5;" horiz-adv-x="778" 
d="M129 359c23.333 108.667 69.667 197.666 139 266.999c76 75.333 167.333 113 274 113c85.333 0 151.666 -23.833 198.999 -71.5s71 -114.167 71 -199.5c0 -35.333 -4 -71.666 -12 -108.999c-23.333 -109.333 -70 -198.333 -140 -267c-76 -74 -168 -111 -276 -111
c-85.333 0 -151.166 23.833 -197.499 71.5s-69.5 114.167 -69.5 199.5c0 34 4 69.667 12 107zM397.001 38.999c88 0 162.667 32.335 224 97.002c54.667 57.333 91.667 131.666 111 222.999c8 37.333 12 71.333 12 102c0 68.667 -18.333 122.5 -55 161.5s-89 58.5 -157 58.5
c-87.333 0 -162 -32.667 -224 -98c-54.667 -58.667 -91.667 -133.334 -111 -224.001c-7.33301 -34.667 -11 -67.667 -11 -99c0 -70 17.833 -124.333 53.5 -163s88.167 -58 157.5 -58zM419.001 800.001h-32.999c14 18 33.333 35.667 58 53c33.333 23.333 63.333 35 90 35
c11.333 0 27.5 -6.83301 48.5 -20.5s36.833 -20.5 47.5 -20.5c20 0 44.333 15 73 45h35c-10 -12 -21.333 -23.333 -34 -34c-42 -35.333 -77.667 -53.333 -107 -54c-16 0 -34.167 6.66699 -54.5 20s-35.833 20 -46.5 20c-20.667 0 -46.334 -14.667 -77.001 -44z" />
    <glyph glyph-name="Odieresis" unicode="&#xd6;" horiz-adv-x="778" 
d="M129 359c23.333 109.333 71.002 199 143.002 269c76 74 166 111 270 111c89.333 0 157.666 -25.667 204.999 -77c43.333 -47.333 65 -112 65 -194c0 -34.667 -4 -71 -12 -109c-22.667 -108.667 -69.667 -197.667 -141 -267c-76.667 -74 -168.334 -111 -275.001 -111
c-88 0 -155.333 25.667 -202 77c-42.667 48 -64 112.667 -64 194c0 34 3.66699 69.667 11 107zM397.002 39c88.667 0 163.667 32.335 225 97.002c54 57.333 90.667 131.666 110 222.999c8 36 12 69.667 12 101c0 70 -18.5 124.333 -55.5 163s-89.167 58 -156.5 58
c-87.333 0 -162 -32.667 -224 -98c-54.667 -58.667 -91.667 -133.334 -111 -224.001c-7.33301 -34.667 -11 -67.667 -11 -99c0 -66.667 16.333 -119 49 -157c36.667 -42.667 90.667 -64 162 -64zM450.002 786.002l22 102h65l-22 -102h-65zM609.002 786.002l22 102h65
l-22 -102h-65z" />
    <glyph glyph-name="multiply" unicode="&#xd7;" horiz-adv-x="660" 
d="M377 216l-256 -210l-29 36l256 211l-166 211l44 36l167 -210l254 210l30 -36l-255 -211l165 -211l-45 -36z" />
    <glyph glyph-name="Oslash" unicode="&#xd8;" horiz-adv-x="778" 
d="M205 147l495 457c-35.333 51.333 -92.333 77 -171 77c-87.333 0 -162 -33 -224 -99c-54.667 -58 -91.667 -132.333 -111 -223c-7.33301 -34 -11 -66.333 -11 -97c0 -44 7.33301 -82.333 22 -115zM723 560l-493.001 -452.998c35.333 -45.333 90 -68 164 -68
c88.667 0 163.334 32.333 224.001 97c54.667 57.333 91.667 131.666 111 222.999c7.33301 33.333 11 65.666 11 96.999c0 39.333 -5.66699 74 -17 104zM752.999 652.002l103.002 95.001l31 -35l-108 -100c20.667 -31.333 31 -77 31 -137
c0 -36.667 -4.33301 -75.334 -13 -116.001c-22.667 -108.667 -69.667 -197.667 -141 -267c-76.667 -74 -168.334 -111 -275.001 -111c-88 0 -155.333 26.333 -202 79l-106 -97l-32 34l111 101c-25.333 42 -38 93.333 -38 154c0 34 4 69.667 12 107
c23.333 110 71.666 200 144.999 270c76.667 73.333 166 110 268 110c96 0 167.333 -29 214 -87z" />
    <glyph glyph-name="Ugrave" unicode="&#xd9;" horiz-adv-x="722" 
d="M140 271l95.002 448.999h68l-91 -429c-8 -38 -12 -72 -12 -102c0 -100 56.333 -150 169 -150c79.333 0 140.333 23 183 69c37.333 39.333 64.666 100.333 81.999 183l91 429h68l-95 -449c-40.667 -193.333 -154.334 -290 -341.001 -290c-152 0 -228 66 -228 198
c0 26.667 3.66699 57.334 11 92.001zM528.002 749.999h-31l-182 139h87z" />
    <glyph glyph-name="Uacute" unicode="&#xda;" horiz-adv-x="722" 
d="M140 271l95.002 448.999h68l-91 -429c-8 -38 -12 -72 -12 -102c0 -100 56.333 -150 169 -150c79.333 0 140.333 23 183 69c37.333 39.333 64.666 100.333 81.999 183l91 429h68l-95 -449c-40.667 -193.333 -154.334 -290 -341.001 -290c-152 0 -228 66 -228 198
c0 26.667 3.66699 57.334 11 92.001zM527.002 749.999h-31l126 139h87z" />
    <glyph glyph-name="Ucircumflex" unicode="&#xdb;" horiz-adv-x="722" 
d="M140 271l95 449.001h68l-91 -429c-8 -38.667 -12 -72.334 -12 -101.001c0 -100.667 56.333 -151 169 -151c76 0 135 20.667 177 62c40 40 69.333 103.333 88 190l91 429h68l-95 -449c-41.333 -193.333 -155 -290 -341 -290c-152 0 -228 66 -228 198
c0 28 3.66699 58.667 11 92zM553 878.001l-104 -102h-65l144 139h67l83 -139h-65z" />
    <glyph glyph-name="Udieresis" unicode="&#xdc;" horiz-adv-x="722" 
d="M140 271l95 449.001h68l-91 -429c-8 -38.667 -12 -72.334 -12 -101.001c0 -100.667 56.333 -151 169 -151c76 0 135 20.667 177 62c40 40 69.333 103.333 88 190l91 429h68l-95 -449c-41.333 -193.333 -155 -290 -341 -290c-152 0 -228 66 -228 198
c0 28 3.66699 58.667 11 92zM422 786.001l22 102h65l-22 -102h-65zM581 786.001l22 102h65l-22 -102h-65z" />
    <glyph glyph-name="Yacute" unicode="&#xdd;" horiz-adv-x="611" 
d="M243 720l138 -347l291 347h79l-347 -406l-67 -314h-68l66 309l-170 411h78zM471 740h-31l126 139h87z" />
    <glyph glyph-name="Thorn" unicode="&#xde;" horiz-adv-x="611" 
d="M146 0h-68l153 720h68l-32 -150h195c132.667 0 199 -47.333 199 -142c0 -18 -2.33301 -37.667 -7 -59c-28 -134 -134 -201 -318 -201h-154zM194 226h156.001c69.333 0 121.666 9.33301 156.999 28c41.333 22.667 68 62.667 80 120c3.33301 12.667 5 24.667 5 36
c0 68 -53.667 102 -161 102h-176z" />
    <glyph glyph-name="germandbls" unicode="&#xdf;" horiz-adv-x="500" 
d="M291 375l10.002 50.002c105.333 2.66699 166.666 44 183.999 124c2.66699 14 4 27 4 39c0 61.333 -34 92 -102 92c-54 0 -93.333 -13.333 -118 -40c-18.667 -20.667 -33.334 -56.334 -44.001 -107.001l-113 -533h-60l116 544c26.667 126.667 102.334 190 227.001 190
c49.333 0 88.166 -12.167 116.499 -36.5s42.5 -58.5 42.5 -102.5c0 -14.667 -2 -30.334 -6 -47.001c-11.333 -56 -49.333 -104.333 -114 -145c52 -19.333 78 -63 78 -131c0 -15.333 -1.66699 -31.333 -5 -48c-16.667 -76.667 -47.834 -135.5 -93.501 -176.5
s-101.834 -61.5 -168.501 -61.5c-14.667 0 -26.667 1.66699 -36 5l11 53c12 -2 24 -3 36 -3c42.667 0 80.834 13.833 114.501 41.5s55.834 66.5 66.501 116.5c5.33301 22.667 8 43 8 61c0 76.667 -51.333 115 -154 115z" />
    <glyph glyph-name="agrave" unicode="&#xe0;" 
d="M452 191l17.001 81.002c-37.333 -14 -91 -23.667 -161 -29c-46.667 -3.33301 -85 -14 -115 -32c-38 -23.333 -57 -56 -57 -98c0 -24.667 10 -43.334 30 -56.001c17.333 -11.333 39 -17 65 -17c53.333 0 99.666 12 138.999 36c44.667 27.333 72 65.666 82 114.999z
M289.001 291.002l84.998 11.002c41.333 5.33301 66.333 10 75 14c20.667 8.66699 34.334 27.667 41.001 57c2 9.33301 3 18.666 3 27.999c0 51.333 -36.333 77 -109 77c-91.333 0 -150 -39 -176 -117h-61c16.667 57.333 47.667 100.666 93 129.999
c42.667 27.333 94.667 41 156 41c106 0 159 -39 159 -117c0 -13.333 -1.66699 -28 -5 -44l-60 -282c-2 -9.33301 -3 -18 -3 -26c0 -14.667 6.66699 -22 20 -22c8 0 20.333 2.66699 37 8l-10 -47c-20 -6.66699 -36.333 -10 -49 -10c-40.667 0 -61 16.333 -61 49
c0 8 1 18.333 3 31c-63.333 -57.333 -133.666 -86 -210.999 -86c-40 0 -73 9 -99 27c-30.667 20.667 -46 50 -46 88c0 10 1.33301 21.333 4 34c18.667 88 90 140 214 156zM411.999 618.004h-30l-173 132h83z" />
    <glyph glyph-name="aacute" unicode="&#xe1;" 
d="M452 191l17.001 81.002c-37.333 -14 -91 -23.667 -161 -29c-46.667 -3.33301 -85 -14 -115 -32c-38 -23.333 -57 -56 -57 -98c0 -24.667 10 -43.334 30 -56.001c17.333 -11.333 39 -17 65 -17c53.333 0 99.666 12 138.999 36c44.667 27.333 72 65.666 82 114.999z
M289.001 291.002l84.998 11.002c41.333 5.33301 66.333 10 75 14c20.667 8.66699 34.334 27.667 41.001 57c2 9.33301 3 18.666 3 27.999c0 51.333 -36.333 77 -109 77c-91.333 0 -150 -39 -176 -117h-61c16.667 57.333 47.667 100.666 93 129.999
c42.667 27.333 94.667 41 156 41c106 0 159 -39 159 -117c0 -13.333 -1.66699 -28 -5 -44l-60 -282c-2 -9.33301 -3 -18 -3 -26c0 -14.667 6.66699 -22 20 -22c8 0 20.333 2.66699 37 8l-10 -47c-20 -6.66699 -36.333 -10 -49 -10c-40.667 0 -61 16.333 -61 49
c0 8 1 18.333 3 31c-63.333 -57.333 -133.666 -86 -210.999 -86c-40 0 -73 9 -99 27c-30.667 20.667 -46 50 -46 88c0 10 1.33301 21.333 4 34c18.667 88 90 140 214 156zM409.999 618.004h-29l120 132h82z" />
    <glyph glyph-name="acircumflex" unicode="&#xe2;" 
d="M452 191l17.001 81.002c-37.333 -14 -91 -23.667 -161 -29c-46.667 -3.33301 -85 -14 -115 -32c-38 -23.333 -57 -56 -57 -98c0 -24.667 10 -43.334 30 -56.001c17.333 -11.333 39 -17 65 -17c53.333 0 99.666 12 138.999 36c44.667 27.333 72 65.666 82 114.999z
M289.001 291.002l84.998 11.002c41.333 5.33301 66.333 10 75 14c20.667 8.66699 34.334 27.667 41.001 57c2 9.33301 3 18.666 3 27.999c0 51.333 -36.333 77 -109 77c-91.333 0 -150 -39 -176 -117h-61c16.667 57.333 47.667 100.666 93 129.999
c42.667 27.333 94.667 41 156 41c106 0 159 -39 159 -117c0 -13.333 -1.66699 -28 -5 -44l-60 -282c-2 -9.33301 -3 -18 -3 -26c0 -14.667 6.66699 -22 20 -22c8 0 20.333 2.66699 37 8l-10 -47c-20 -6.66699 -36.333 -10 -49 -10c-40.667 0 -61 16.333 -61 49
c0 8 1 18.333 3 31c-63.333 -57.333 -133.666 -86 -210.999 -86c-40 0 -73 9 -99 27c-30.667 20.667 -46 50 -46 88c0 10 1.33301 21.333 4 34c18.667 88 90 140 214 156zM413.999 657.004l-90 -87h-55l123 118h58l70 -118h-55z" />
    <glyph glyph-name="atilde" unicode="&#xe3;" 
d="M452 191l17.001 81.002c-37.333 -14 -91 -23.667 -161 -29c-46.667 -3.33301 -85 -14 -115 -32c-38 -23.333 -57 -56 -57 -98c0 -24.667 10 -43.334 30 -56.001c17.333 -11.333 39 -17 65 -17c53.333 0 99.666 12 138.999 36c44.667 27.333 72 65.666 82 114.999z
M289.001 291.002l84.998 11.002c41.333 5.33301 66.333 10 75 14c20.667 8.66699 34.334 27.667 41.001 57c2 9.33301 3 18.666 3 27.999c0 51.333 -36.333 77 -109 77c-91.333 0 -150 -39 -176 -117h-61c16.667 57.333 47.667 100.666 93 129.999
c42.667 27.333 94.667 41 156 41c106 0 159 -39 159 -117c0 -13.333 -1.66699 -28 -5 -44l-60 -282c-2 -9.33301 -3 -18 -3 -26c0 -14.667 6.66699 -22 20 -22c8 0 20.333 2.66699 37 8l-10 -47c-20 -6.66699 -36.333 -10 -49 -10c-40.667 0 -61 16.333 -61 49
c0 8 1 18.333 3 31c-63.333 -57.333 -133.666 -86 -210.999 -86c-40 0 -73 9 -99 27c-30.667 20.667 -46 50 -46 88c0 10 1.33301 21.333 4 34c18.667 88 90 140 214 156zM297.999 618.004h-30.999c12.667 16.667 31 33.334 55 50.001c32 22 60.667 33 86 33
c10 0 25 -6.33301 45 -19s35.333 -19 46 -19c18 0 41 14 69 42h33c-8.66699 -10.667 -19.334 -21.334 -32.001 -32.001c-40 -33.333 -74 -50.333 -102 -51c-14.667 0 -31.834 6.33301 -51.501 19s-34.5 19 -44.5 19c-19.333 0 -43.666 -14 -72.999 -42z" />
    <glyph glyph-name="adieresis" unicode="&#xe4;" 
d="M452 191l17 81.001c-37.333 -14 -91 -23.667 -161 -29c-99.333 -7.33301 -156 -44 -170 -110c-1.33301 -7.33301 -2 -14 -2 -20c0 -23.333 9 -41.333 27 -54s40.667 -19 68 -19c52 0 97.667 12 137 36c45.333 27.333 73.333 65.666 84 114.999zM289 291.001
l84.9971 11.0029c40 5.33301 67.833 11.166 83.5 17.499s26.5 24.166 32.5 53.499c2 9.33301 3 18.333 3 27c0 52 -36.333 78 -109 78c-91.333 0 -150 -39 -176 -117h-61c16.667 58 48.334 101.667 95.001 131c42.667 26.667 94 40 154 40c106 0 159 -39 159 -117
c0 -13.333 -1.66699 -28 -5 -44l-60 -282c-2.66699 -10.667 -4 -19.334 -4 -26.001c0 -14.667 7 -22 21 -22c8.66699 0 21 2.66699 37 8l-10 -47c-21.333 -6.66699 -37.666 -10 -48.999 -10c-40.667 0 -61 16.333 -61 49c0 8.66699 1 19 3 31
c-63.333 -57.333 -133.666 -86 -210.999 -86c-42 0 -76.667 10 -104 30s-41 48.333 -41 85c0 10.667 1.33301 22 4 34c18.667 88 90 140 214 156zM295.997 584.004l22 102h65l-22 -102h-65zM454.997 584.004l22 102h65l-22 -102h-65z" />
    <glyph glyph-name="aring" unicode="&#xe5;" 
d="M452 191l17 81.001c-37.333 -14 -91 -23.667 -161 -29c-99.333 -7.33301 -156 -44 -170 -110c-1.33301 -7.33301 -2 -14 -2 -20c0 -23.333 9 -41.333 27 -54s40.667 -19 68 -19c52 0 97.667 12 137 36c45.333 27.333 73.333 65.666 84 114.999zM289 291.001
l84.9971 11.0029c40 5.33301 67.833 11.166 83.5 17.499s26.5 24.166 32.5 53.499c2 9.33301 3 18.333 3 27c0 52 -36.333 78 -109 78c-91.333 0 -150 -39 -176 -117h-61c16.667 58 48.334 101.667 95.001 131c42.667 26.667 94 40 154 40c106 0 159 -39 159 -117
c0 -13.333 -1.66699 -28 -5 -44l-60 -282c-2.66699 -10.667 -4 -19.334 -4 -26.001c0 -14.667 7 -22 21 -22c8.66699 0 21 2.66699 37 8l-10 -47c-21.333 -6.66699 -37.666 -10 -48.999 -10c-40.667 0 -61 16.333 -61 49c0 8.66699 1 19 3 31
c-63.333 -57.333 -133.666 -86 -210.999 -86c-42 0 -76.667 10 -104 30s-41 48.333 -41 85c0 10.667 1.33301 22 4 34c18.667 88 90 140 214 156zM401.997 578.004c-23.333 0 -42.667 7.5 -58 22.5s-23 33.833 -23 56.5c0 30 13 57.5 39 82.5s54 37.5 84 37.5
c23.333 0 42.5 -7.66699 57.5 -23s22.5 -34.333 22.5 -57c0 -30.667 -12.667 -58.167 -38 -82.5s-53.333 -36.5 -84 -36.5zM408.996 611.004c20 0 38.501 8.16797 55.501 24.501s25.5 34.5 25.5 54.5c0 15.333 -5 28.166 -15 38.499s-22.667 15.5 -38 15.5
c-20 0 -38.667 -8.16699 -56 -24.5s-26 -34.833 -26 -55.5c0 -14.667 5.16699 -27.167 15.5 -37.5s23.166 -15.5 38.499 -15.5z" />
    <glyph glyph-name="ae" unicode="&#xe6;" horiz-adv-x="889" 
d="M436 204l14.999 70c-24 -12 -65 -21.333 -123 -28c-60 -7.33301 -101 -15.333 -123 -24c-40 -15.333 -64 -42.333 -72 -81c-2 -10 -3 -19.333 -3 -28c0 -48.667 30 -73 90 -73c58.667 0 107.334 15.333 146.001 46c36 28.667 59.333 68 70 118zM519.999 295h325.999
c4 18 6 35.333 6 52c0 39.333 -10.667 71 -32 95s-52.333 36 -93 36c-57.333 0 -105.666 -21.333 -144.999 -64c-32 -34 -52.667 -73.667 -62 -119zM281.998 295l57.9961 6c51.333 5.33301 85.333 12.333 102 21c14.667 7.33301 24.334 21.666 29.001 42.999
c3.33301 17.333 5 32 5 44c0 26 -8.33301 44 -25 54s-44 15 -82 15c-87.333 0 -143.666 -38 -168.999 -114h-62c15.333 56 45.666 98.667 90.999 128c41.333 26.667 91 40 149 40c96.667 0 151 -28.333 163 -85c50 56.667 116.333 85 199 85c115.333 0 173 -57.667 173 -173
c0 -32.667 -4.66699 -70.667 -14 -114h-390c-5.33301 -24 -8 -46.333 -8 -67c0 -92 45.667 -138 137 -138c78.667 0 137.334 40 176.001 120h63c-52 -116 -137.333 -174 -256 -174c-87.333 0 -146 38 -176 114c-32.667 -35.333 -63 -60.666 -91 -75.999
c-43.333 -25.333 -93.666 -38 -150.999 -38c-42 0 -75.333 9 -100 27c-26.667 19.333 -40 47 -40 83c0 11.333 1.33301 23.333 4 36c20.667 96 92.334 150.333 215.001 163z" />
    <glyph glyph-name="ccedilla" unicode="&#xe7;" 
d="M575 355h-61.001c-4.66699 82 -47 123 -127 123c-68 0 -124.333 -32 -169 -96c-40 -57.333 -60 -121.333 -60 -192c0 -44.667 10.333 -80 31 -106c23.333 -29.333 58.333 -44 105 -44c90.667 0 153.334 46.333 188.001 139h64c-50.667 -128.667 -138.667 -193 -264 -193
c-64 0 -112.333 17.333 -145 52c-30 32.667 -45 77.667 -45 135c0 26.667 3.33301 55 10 85c16 76 49.667 139.667 101 191c56 55.333 121 83 195 83c126 0 185 -59 177 -177zM125.999 -188l20.998 30c28 -10 48.333 -15 61 -15c17.333 0 32.666 3.66699 45.999 11
c16.667 8.66699 26.667 20.667 30 36c6 26 -7.66699 39 -41 39c-9.33301 0 -24.666 -2.66699 -45.999 -8l-12 13l77 82h39l-60 -59c17.333 4 30 6 38 6c20.667 0 37.334 -5.66699 50.001 -17c10.667 -10 16 -21.667 16 -35c-1.33301 -34 -15.666 -60 -42.999 -78
c-24 -16 -53.667 -24 -89 -24c-27.333 0 -56.333 6.33301 -87 19z" />
    <glyph glyph-name="egrave" unicode="&#xe8;" 
d="M172 295h338c4 18 6 35 6 51c0 42 -11.333 74.5 -34 97.5s-55 34.5 -97 34.5c-50.667 0 -95.667 -18.667 -135 -56c-34 -32 -60 -74.333 -78 -127zM563 245l-402.001 0.000976562c-4.66699 -21.333 -7 -41.333 -7 -60c0 -44.667 11.833 -80 35.5 -106
s57.834 -39 102.501 -39c40 0 76.167 10.667 108.5 32s56.833 50.333 73.5 87h67c-60 -115.333 -147 -173 -261 -173c-126.667 0 -190 62 -190 186c0 25.333 3.33301 53.666 10 84.999c16 76 49.667 139.667 101 191c56 56 121 84 195 84
c58.667 0 103.167 -16.333 133.5 -49s45.5 -78.667 45.5 -138c0 -30.667 -4 -64 -12 -100zM411.999 618.001h-30l-173 132h83z" />
    <glyph glyph-name="eacute" unicode="&#xe9;" 
d="M172 295h338c4 18 6 35 6 51c0 42 -11.333 74.5 -34 97.5s-55 34.5 -97 34.5c-50.667 0 -95.667 -18.667 -135 -56c-34 -32 -60 -74.333 -78 -127zM563 245l-402.001 0.000976562c-4.66699 -21.333 -7 -41.333 -7 -60c0 -44.667 11.833 -80 35.5 -106
s57.834 -39 102.501 -39c40 0 76.167 10.667 108.5 32s56.833 50.333 73.5 87h67c-60 -115.333 -147 -173 -261 -173c-126.667 0 -190 62 -190 186c0 25.333 3.33301 53.666 10 84.999c16 76 49.667 139.667 101 191c56 56 121 84 195 84
c58.667 0 103.167 -16.333 133.5 -49s45.5 -78.667 45.5 -138c0 -30.667 -4 -64 -12 -100zM409.999 618.001h-29l120 132h82z" />
    <glyph glyph-name="ecircumflex" unicode="&#xea;" 
d="M172 295h338c4 18 6 35 6 51c0 42 -11.333 74.5 -34 97.5s-55 34.5 -97 34.5c-50.667 0 -95.667 -18.667 -135 -56c-34 -32 -60 -74.333 -78 -127zM563 245l-402.001 0.000976562c-4.66699 -21.333 -7 -41.333 -7 -60c0 -44.667 11.833 -80 35.5 -106
s57.834 -39 102.501 -39c40 0 76.167 10.667 108.5 32s56.833 50.333 73.5 87h67c-60 -115.333 -147 -173 -261 -173c-126.667 0 -190 62 -190 186c0 25.333 3.33301 53.666 10 84.999c16 76 49.667 139.667 101 191c56 56 121 84 195 84
c58.667 0 103.167 -16.333 133.5 -49s45.5 -78.667 45.5 -138c0 -30.667 -4 -64 -12 -100zM413.999 657.001l-90 -87h-55l123 118h58l70 -118h-55z" />
    <glyph glyph-name="edieresis" unicode="&#xeb;" 
d="M172 295l338 0.000976562c3.33301 18 5 35 5 51c0 40 -11 72 -33 96s-54.333 36 -97 36c-50.667 0 -95.334 -18.333 -134.001 -55c-35.333 -32.667 -61.666 -75.334 -78.999 -128.001zM563 245.001l-401.998 -0.00195312c-4.66699 -21.333 -7 -41.666 -7 -60.999
c0 -43.333 11.333 -77.666 34 -102.999c24 -27.333 58.667 -41 104 -41c39.333 0 75.166 10.5 107.499 31.5s57.166 50.167 74.499 87.5h67c-60 -115.333 -147 -173 -261 -173c-126.667 0 -190 62 -190 186c0 26.667 3.33301 55 10 85c16 78 50.667 142.667 104 194
c56 54 120 81 192 81c57.333 0 101.5 -16 132.5 -48s46.5 -78.333 46.5 -139c0 -30.667 -4 -64 -12 -100zM296.002 583.999l22 102h65l-22 -102h-65zM455.002 583.999l22 102h65l-22 -102h-65z" />
    <glyph glyph-name="igrave" unicode="&#xec;" horiz-adv-x="222" 
d="M141 0h-60l110 518h60zM238 594h-30l-163 132h73z" />
    <glyph glyph-name="iacute" unicode="&#xed;" horiz-adv-x="222" 
d="M141 0h-60l110 518h60zM236 594h-29l120 132h82z" />
    <glyph glyph-name="icircumflex" unicode="&#xee;" horiz-adv-x="222" 
d="M138 0h-60l110 518h60zM240 676l-104 -102h-65l144 139h67l83 -139h-65z" />
    <glyph glyph-name="idieresis" unicode="&#xef;" horiz-adv-x="222" 
d="M138 0h-60l110 518h60zM109 584l22 102h65l-22 -102h-65zM268 584l22 102h65l-22 -102h-65z" />
    <glyph glyph-name="eth" unicode="&#xf0;" 
d="M518 334c0 96 -46 144 -138 144c-59.333 0 -109.333 -22.333 -150 -67c-35.333 -39.333 -59.666 -90 -72.999 -152c-5.33301 -25.333 -8 -49 -8 -71c0 -46 11.667 -82.167 35 -108.5s57.666 -39.5 102.999 -39.5c70.667 0 128 32.333 172 97c39.333 57.333 59 123 59 197
zM368 679l133 59.998l29 -28l-134 -60c66.667 -64 119.667 -130 159 -198c18 -30.667 27 -68 27 -112c0 -26 -3 -53.333 -9 -82c-17.333 -82 -53.333 -148.167 -108 -198.5s-118 -75.166 -190 -74.499c-57.333 0.666992 -103 17 -137 49c-36 34 -54 82 -54 144
c0 24.667 3 51.334 9 80.001c17.333 80.667 51.333 145 102 193c56 53.333 126.667 80 212 80c-12 24 -35.667 54.667 -71 92l-121 -54l-28 27l121 55c-22.667 22 -45.667 42.667 -69 62l54 25c24 -16 49 -36 75 -60z" />
    <glyph glyph-name="ntilde" unicode="&#xf1;" 
d="M191 279l-59.001 -279h-60l110 518h60l-15 -72c66 57.333 127.667 86 185 86c72 0 119.333 -24.667 142 -74c7.33301 -14.667 11 -31.334 11 -50.001c0 -15.333 -3.33301 -38.333 -10 -69l-72 -339h-60l72 338c4 18.667 6 35.334 6 50.001c0 60 -36.667 90 -110 90
c-35.333 0 -68.666 -10.333 -99.999 -31c-27.333 -18 -49.333 -41.333 -66 -70c-14 -24 -25.333 -56.667 -34 -98zM288.999 586l-36.001 -0.000976562c6.66699 22.667 17.334 42.334 32.001 59.001c22.667 25.333 49 38 79 38c15.333 0 37.333 -7.5 66 -22.5
s50.334 -22.5 65.001 -22.5c22 0 40 16.667 54 50h38c-1.33301 -6 -6.66602 -18.667 -15.999 -38c-26 -40 -55 -60 -87 -60c-18.667 0 -42.334 7.5 -71.001 22.5s-50.334 22.5 -65.001 22.5c-22 0 -41.667 -16.333 -59 -49z" />
    <glyph glyph-name="ograve" unicode="&#xf2;" 
d="M275 -14c-60 0.666992 -106.832 17.998 -140.499 51.998s-50.5 81 -50.5 141c0 24.667 3 51.334 9 80.001c16.667 78.667 50 142.667 100 192c54.667 54 120.667 81 198 81c61.333 0 108.5 -16.667 141.5 -50s49.5 -80.666 49.5 -141.999c0 -25.333 -3 -52.333 -9 -81
c-16.667 -78 -50.334 -142 -101.001 -192c-55.333 -54.667 -121 -81.667 -197 -81zM518.001 334.998c0 95.333 -46.001 143.002 -138.001 143.002c-59.333 0 -109.333 -22.333 -150 -67c-35.333 -38.667 -59.666 -89.334 -72.999 -152.001
c-5.33301 -24.667 -8 -48.334 -8 -71.001c0 -98.667 46 -148 138 -148c70 0 127.333 32.667 172 98c39.333 58 59 123.667 59 197zM412 618h-30l-173 132h83z" />
    <glyph glyph-name="oacute" unicode="&#xf3;" 
d="M275 -14c-60 0.666992 -106.832 17.998 -140.499 51.998s-50.5 81 -50.5 141c0 24.667 3 51.334 9 80.001c16.667 78.667 50 142.667 100 192c54.667 54 120.667 81 198 81c61.333 0 108.5 -16.667 141.5 -50s49.5 -80.666 49.5 -141.999c0 -25.333 -3 -52.333 -9 -81
c-16.667 -78 -50.334 -142 -101.001 -192c-55.333 -54.667 -121 -81.667 -197 -81zM518.001 334.998c0 95.333 -46.001 143.002 -138.001 143.002c-59.333 0 -109.333 -22.333 -150 -67c-35.333 -38.667 -59.666 -89.334 -72.999 -152.001
c-5.33301 -24.667 -8 -48.334 -8 -71.001c0 -98.667 46 -148 138 -148c70 0 127.333 32.667 172 98c39.333 58 59 123.667 59 197zM410 618h-29l120 132h82z" />
    <glyph glyph-name="ocircumflex" unicode="&#xf4;" 
d="M275 -14c-60 0.666992 -106.832 17.998 -140.499 51.998s-50.5 81 -50.5 141c0 24.667 3 51.334 9 80.001c16.667 78.667 50 142.667 100 192c54.667 54 120.667 81 198 81c61.333 0 108.5 -16.667 141.5 -50s49.5 -80.666 49.5 -141.999c0 -25.333 -3 -52.333 -9 -81
c-16.667 -78 -50.334 -142 -101.001 -192c-55.333 -54.667 -121 -81.667 -197 -81zM518.001 334.998c0 95.333 -46.001 143.002 -138.001 143.002c-59.333 0 -109.333 -22.333 -150 -67c-35.333 -38.667 -59.666 -89.334 -72.999 -152.001
c-5.33301 -24.667 -8 -48.334 -8 -71.001c0 -98.667 46 -148 138 -148c70 0 127.333 32.667 172 98c39.333 58 59 123.667 59 197zM414 657l-90 -87h-55l123 118h58l70 -118h-55z" />
    <glyph glyph-name="otilde" unicode="&#xf5;" 
d="M275 -14c-60 0.666992 -106.832 17.998 -140.499 51.998s-50.5 81 -50.5 141c0 24.667 3 51.334 9 80.001c16.667 78.667 50 142.667 100 192c54.667 54 120.667 81 198 81c61.333 0 108.5 -16.667 141.5 -50s49.5 -80.666 49.5 -141.999c0 -25.333 -3 -52.333 -9 -81
c-16.667 -78 -50.334 -142 -101.001 -192c-55.333 -54.667 -121 -81.667 -197 -81zM518.001 334.998c0 95.333 -46.001 143.002 -138.001 143.002c-59.333 0 -109.333 -22.333 -150 -67c-35.333 -38.667 -59.666 -89.334 -72.999 -152.001
c-5.33301 -24.667 -8 -48.334 -8 -71.001c0 -98.667 46 -148 138 -148c70 0 127.333 32.667 172 98c39.333 58 59 123.667 59 197zM298 618h-30.999c12.667 16.667 31 33.334 55 50.001c32 22 60.667 33 86 33c10 0 25 -6.33301 45 -19s35.333 -19 46 -19c18 0 41 14 69 42
h33c-8.66699 -10.667 -19.334 -21.334 -32.001 -32.001c-40 -33.333 -74 -50.333 -102 -51c-14.667 0 -31.834 6.33301 -51.501 19s-34.5 19 -44.5 19c-19.333 0 -43.666 -14 -72.999 -42z" />
    <glyph glyph-name="odieresis" unicode="&#xf6;" 
d="M275 -14c-57.333 0.666992 -103.001 16.999 -137.001 48.999c-36 34 -54 82 -54 144c0 24.667 3 51.334 9 80.001c16.667 79.333 50.334 143.666 101.001 192.999c54.667 53.333 120.334 80 197.001 80c63.333 0 111.666 -18 144.999 -54
c30.667 -33.333 46 -79.333 46 -138c0 -25.333 -3 -52.333 -9 -81c-17.333 -82 -53.333 -148.167 -108 -198.5s-118 -75.166 -190 -74.499zM517.999 333.999c0 96 -46 144 -138 144c-59.333 0 -109.333 -22.333 -150 -67c-35.333 -39.333 -59.666 -90 -72.999 -152
c-5.33301 -25.333 -8 -49 -8 -71c0 -46 11.667 -82.167 35 -108.5s57.666 -39.5 102.999 -39.5c70.667 0 128 32.333 172 97c39.333 57.333 59 123 59 197zM295.999 583.999l22 102h65l-22 -102h-65zM454.999 583.999l22 102h65l-22 -102h-65z" />
    <glyph glyph-name="divide" unicode="&#xf7;" horiz-adv-x="660" 
d="M127 220l13 60h500l-13 -60h-500zM367 0h-73l19 88h73zM455 412h-73l18 88h73z" />
    <glyph glyph-name="oslash" unicode="&#xf8;" 
d="M161 124l325.999 309c-19.333 30 -54.333 45 -105 45c-59.333 0 -109.333 -22.667 -150 -68c-35.333 -39.333 -59.666 -90 -72.999 -152c-5.33301 -25.333 -8 -49 -8 -71c0 -25.333 3.33301 -46.333 10 -63zM508.999 397l-329 -312c24 -30 60.333 -45 109 -45
c58.667 0 108.334 22.333 149.001 67c35.333 39.333 59.666 89.666 72.999 150.999c6 28.667 9 54.334 9 77.001c0 23.333 -3.66699 44 -11 62zM133.999 41l-68.0029 -64l-30 29l73 68c-15.333 28.667 -23 63 -23 103c0 25.333 3 52.333 9 81
c16.667 79.333 50.334 144 101.001 194c54.667 53.333 120.334 80 197.001 80c62 0 109.667 -17.667 143 -53l65 62l28 -31l-68 -65c15.333 -28.667 23 -64 23 -106c0 -25.333 -3 -52.333 -9 -81c-17.333 -82 -52.333 -147.333 -105 -196
c-53.333 -50.667 -117.666 -76 -192.999 -76c-64 0 -111.667 18.333 -143 55z" />
    <glyph glyph-name="ugrave" unicode="&#xf9;" 
d="M473 236l60 282h60l-110 -518h-60l15 72c-62 -57.333 -123.667 -86 -185 -86c-100 0 -150 43 -150 129c0 19.333 2.33301 40 7 62l72 341h60l-72 -340c-3.33301 -16 -5 -31.667 -5 -47c0 -60.667 36.333 -91 109 -91c52.667 0 97 20.333 133 61
c32 35.333 54 80.333 66 135zM402 584h-30l-173 132h83z" />
    <glyph glyph-name="uacute" unicode="&#xfa;" 
d="M473 236l60 282h60l-110 -518h-60l15 72c-62 -57.333 -123.667 -86 -185 -86c-100 0 -150 43 -150 129c0 19.333 2.33301 40 7 62l72 341h60l-72 -340c-3.33301 -16 -5 -31.667 -5 -47c0 -60.667 36.333 -91 109 -91c52.667 0 97 20.333 133 61
c32 35.333 54 80.333 66 135zM400 584h-29l120 132h82z" />
    <glyph glyph-name="ucircumflex" unicode="&#xfb;" 
d="M473 236l60 282h60l-110 -518h-60l15 72c-28.667 -26.667 -53 -45.334 -73 -56.001c-34.667 -20 -72 -30 -112 -30c-100.667 0 -151 43 -151 129c0 18.667 2.66699 39.334 8 62.001l72 341h60l-72 -340c-4 -17.333 -6 -33 -6 -47c0 -60.667 36.667 -91 110 -91
c48 0 90.167 18.167 126.5 54.5s60.5 83.5 72.5 141.5zM427 676l-104 -102h-65l144 139h67l83 -139h-65z" />
    <glyph glyph-name="udieresis" unicode="&#xfc;" 
d="M473 236l60 282h60l-110 -518h-60l15 72c-28.667 -26.667 -53 -45.334 -73 -56.001c-34.667 -20 -72 -30 -112 -30c-100.667 0 -151 43 -151 129c0 18.667 2.66699 39.334 8 62.001l72 341h60l-72 -340c-4 -17.333 -6 -33 -6 -47c0 -60.667 36.667 -91 110 -91
c48 0 90.167 18.167 126.5 54.5s60.5 83.5 72.5 141.5zM296 584l22 102h65l-22 -102h-65zM455 584l22 102h65l-22 -102h-65z" />
    <glyph glyph-name="yacute" unicode="&#xfd;" horiz-adv-x="500" 
d="M26 -197l12 56c20 -4 36.333 -6 49 -6c29.333 0 55.666 18.333 78.999 55l52 88l-90 522h67l72 -445l260 445h65l-302 -511c-45.333 -76.667 -79.333 -128 -102 -154c-33.333 -38 -68.666 -57 -105.999 -57c-20 0 -38.667 2.33301 -56 7zM376 570h-29l120 132h82z" />
    <glyph glyph-name="thorn" unicode="&#xfe;" horiz-adv-x="611" 
d="M194 257c-4.66699 -21.333 -7 -41.667 -7 -61c0 -46 11.333 -83 34 -111c24.667 -30 58.667 -45 102 -45c58.667 0 108.667 23 150 69c38 42 63.333 97.333 76 166c4 20 6 39 6 57c0 46.667 -12.5 82.667 -37.5 108s-58.833 38 -101.5 38
c-55.333 0 -103.333 -21.333 -144 -64c-38.667 -40 -64.667 -92.333 -78 -157zM157 82.999l-61.001 -287h-60l196 924h60l-62 -293h2c23.333 32.667 55 58.667 95 78c36.667 18 72.334 27 107.001 27c124 0 186 -61 186 -183c0 -27.333 -3.33301 -57 -10 -89
c-16.667 -78 -49 -141.667 -97 -191c-53.333 -55.333 -117.333 -83 -192 -83c-37.333 0 -71 8.5 -101 25.5s-51 40.833 -63 71.5z" />
    <glyph glyph-name="ydieresis" unicode="&#xff;" horiz-adv-x="500" 
d="M26 -197l11.999 56c20.667 -4 37 -6 49 -6c28 0 54.333 18.333 79 55l52 88l-90 522h67l72 -445l260 445h65l-302 -511c-45.333 -78 -79.333 -129.333 -102 -154c-33.333 -38 -68.666 -57 -105.999 -57c-19.333 0 -38 2.33301 -56 7zM267.999 584l22 102h65l-22 -102h-65
zM426.999 584l22 102h65l-22 -102h-65z" />
    <glyph glyph-name="glyph271" unicode="&#x102;" horiz-adv-x="667" 
d="M85 0h-70l436 720h77l123 -720h-70l-35 226h-328zM475 662l-222 -378h282zM388 873h35.001c-0.666992 -48 25.666 -72 78.999 -72c52 0 89 24 111 72h34c-25.333 -75.333 -78.333 -113 -159 -113c-68 0 -102 30.667 -102 92c0 6.66699 0.666992 13.667 2 21z" />
    <glyph glyph-name="glyph272" unicode="&#x103;" 
d="M452 191l17.001 81.002c-37.333 -14 -91 -23.667 -161 -29c-46.667 -3.33301 -85 -14 -115 -32c-38 -23.333 -57 -56 -57 -98c0 -24.667 10 -43.334 30 -56.001c17.333 -11.333 39 -17 65 -17c53.333 0 99.666 12 138.999 36c44.667 27.333 72 65.666 82 114.999z
M289.001 291.002l84.998 11.002c41.333 5.33301 66.333 10 75 14c20.667 8.66699 34.334 27.667 41.001 57c2 9.33301 3 18.666 3 27.999c0 51.333 -36.333 77 -109 77c-91.333 0 -150 -39 -176 -117h-61c16.667 57.333 47.667 100.666 93 129.999
c42.667 27.333 94.667 41 156 41c106 0 159 -39 159 -117c0 -13.333 -1.66699 -28 -5 -44l-60 -282c-2 -9.33301 -3 -18 -3 -26c0 -14.667 6.66699 -22 20 -22c8 0 20.333 2.66699 37 8l-10 -47c-20 -6.66699 -36.333 -10 -49 -10c-40.667 0 -61 16.333 -61 49
c0 8 1 18.333 3 31c-63.333 -57.333 -133.666 -86 -210.999 -86c-40 0 -73 9 -99 27c-30.667 20.667 -46 50 -46 88c0 10 1.33301 21.333 4 34c18.667 88 90 140 214 156zM300.999 701.004h33.999c-0.666992 -45.333 24.333 -68 75 -68c48.667 0 83.667 22.667 105 68h32
c-23.333 -71.333 -73.666 -107 -150.999 -107c-64 0 -96 29.333 -96 88c0 6 0.333008 12.333 1 19z" />
    <glyph glyph-name="Cacute" unicode="&#x106;" horiz-adv-x="711" 
d="M771 511l-70.0029 -0.000976562c-1.33301 60 -17.666 103.333 -48.999 130s-78.666 40 -141.999 40c-82.667 0 -152.667 -32 -210 -96c-52 -56.667 -87.667 -131 -107 -223c-8.66699 -40.667 -13 -78.334 -13 -113.001c0 -140 66.333 -210 199 -210
c60 0 114.333 18.667 163 56c44.667 34.667 80.334 82 107.001 142h71c-75.333 -170.667 -197.333 -256 -366 -256c-83.333 0 -145.666 24.333 -186.999 73c-38 43.333 -57 104 -57 182c0 38 5 79.333 15 124c27.333 130.667 80 228.334 158 293.001
c69.333 57.333 155 86 257 86c75.333 0 133.666 -19.667 174.999 -59s60 -95.666 56 -168.999zM458.997 828.999h-51l141 139h77z" />
    <glyph glyph-name="cacute" unicode="&#x107;" horiz-adv-x="441" 
d="M575 355h-61.001c-4.66699 82 -47 123 -127 123c-68 0 -124.333 -32 -169 -96c-40 -57.333 -60 -121.333 -60 -192c0 -44.667 10.333 -80 31 -106c23.333 -29.333 58.333 -44 105 -44c90.667 0 153.334 46.333 188.001 139h64c-50.667 -128.667 -138.667 -193 -264 -193
c-64 0 -112.333 17.333 -145 52c-30 32.667 -45 77.667 -45 135c0 26.667 3.33301 55 10 85c16 76 49.667 139.667 101 191c56 55.333 121 83 195 83c126 0 185 -59 177 -177zM259.999 574h-51l141 139h77z" />
    <glyph glyph-name="Ccaron" unicode="&#x10c;" horiz-adv-x="711" 
d="M771 511l-70.0029 -0.000976562c-1.33301 60 -17.666 103.333 -48.999 130s-78.666 40 -141.999 40c-82.667 0 -152.667 -32 -210 -96c-52 -56.667 -87.667 -131 -107 -223c-8.66699 -40.667 -13 -78.334 -13 -113.001c0 -140 66.333 -210 199 -210
c60 0 114.333 18.667 163 56c44.667 34.667 80.334 82 107.001 142h71c-75.333 -170.667 -197.333 -256 -366 -256c-83.333 0 -145.666 24.333 -186.999 73c-38 43.333 -57 104 -57 182c0 38 5 79.333 15 124c27.333 130.667 80 228.334 158 293.001
c69.333 57.333 155 86 257 86c75.333 0 133.666 -19.667 174.999 -59s60 -95.666 56 -168.999zM477.997 865.999l104 102h65l-143 -139h-67l-84 139h65z" />
    <glyph glyph-name="ccaron" unicode="&#x10d;" horiz-adv-x="441" 
d="M575 355h-61.001c-4.66699 82 -47 123 -127 123c-68 0 -124.333 -32 -169 -96c-40 -57.333 -60 -121.333 -60 -192c0 -44.667 10.333 -80 31 -106c23.333 -29.333 58.333 -44 105 -44c90.667 0 153.334 46.333 188.001 139h64c-50.667 -128.667 -138.667 -193 -264 -193
c-64 0 -112.333 17.333 -145 52c-30 32.667 -45 77.667 -45 135c0 26.667 3.33301 55 10 85c16 76 49.667 139.667 101 191c56 55.333 121 83 195 83c126 0 185 -59 177 -177zM278.999 611l104 102h65l-143 -139h-67l-84 139h65z" />
    <glyph glyph-name="Dslash" unicode="&#x110;" horiz-adv-x="722" 
d="M290 662l-53.999 -251.001h121l-12 -58h-121l-63 -295h163c70 0 128.667 11 176 33c89.333 41.333 148.666 131.333 177.999 270c8.66699 40.667 13 76.334 13 107.001c0 79.333 -26.333 135 -79 167c-30 18 -83 27 -159 27h-163zM168.001 410.999l66.001 309.001h246
c94 0 162.333 -16.667 205 -50c49.333 -38 74 -102.333 74 -193c0 -36.667 -4.33301 -75.334 -13 -116.001c-50.667 -240.667 -190.334 -361 -419.001 -361h-246l75 353h-71l12 58h71z" />
    <glyph glyph-name="dcroat" unicode="&#x111;" horiz-adv-x="611" 
d="M527 261c4.66699 22 7 42.332 7 60.999c0 45.333 -11 82 -33 110c-24 30.667 -58 46 -102 46c-62 0 -113.667 -24.667 -155 -74c-35.333 -41.333 -59.333 -95 -72 -161c-4 -21.333 -6 -40.333 -6 -57c0 -45.333 12.167 -81 36.5 -107s58.833 -39 103.5 -39
c58 0 107.333 23 148 69c36 40.667 60.333 91.334 73 152.001zM590 574.999l-170.001 0.000976562l11 50h169c4 17.333 10.333 49 19 95h62l-21 -95h58l-11 -50h-57l-118 -575h-60l19 91h-2c-22 -30.667 -51.833 -55.834 -89.5 -75.501s-75.167 -29.5 -112.5 -29.5
c-124 0 -186 61 -186 183c0 28 3.33301 57.667 10 89c16.667 77.333 49 141 97 191c53.333 55.333 117.333 83 192 83c36.667 0 69.334 -7.66699 98.001 -23c31.333 -17.333 53.333 -42 66 -74z" />
    <glyph glyph-name="Gbreve" unicode="&#x11e;" horiz-adv-x="767" 
d="M697 314l-242.997 -0.000976562l12 58h308l-79 -372h-58l26 123c-75.333 -94.667 -175 -142 -299 -142c-76.667 0 -136.667 21.667 -180 65c-45.333 44.667 -68 109.334 -68 194.001c0 38 4.66699 79.333 14 124c24 111.333 70 200.333 138 267
c74.667 72 166.334 108 275.001 108c78 0 139.333 -18.667 184 -56c46.667 -40 69.667 -97.333 69 -172h-70c-0.666992 52.667 -19.334 94.667 -56.001 126c-34.667 29.333 -79.334 44 -134.001 44c-91.333 0 -167 -32 -227 -96
c-54.667 -58.667 -93.334 -141.334 -116.001 -248.001c-6 -26.667 -9 -52.667 -9 -78c0 -64.667 17.333 -117 52 -157c36.667 -42 88 -63 154 -63c44 0 86 9.33301 126 28c47.333 22 86.666 54.667 117.999 98c28 38.667 49 88.334 63 149.001zM374.003 960.999h39.001
c-0.666992 -54 28.666 -81 87.999 -81c58 0 99.333 27 124 81h37c-26.667 -84 -85.334 -126 -176.001 -126c-35.333 0 -63.166 9 -83.499 27s-30.5 43.333 -30.5 76c0 7.33301 0.666992 15 2 23z" />
    <glyph glyph-name="gbreve" unicode="&#x11f;" horiz-adv-x="492" 
d="M527 257c4.66699 24 7.00098 46.998 7.00098 68.998c0 46.667 -11 83.334 -33 110.001c-24 28 -58 42 -102 42c-52 0 -98 -18 -138 -54s-67.667 -85.667 -83 -149c-6.66699 -30 -10 -58 -10 -84c0 -100.667 46 -151 138 -151c52.667 0 100 21.667 142 65
c39.333 40.667 65.666 91.334 78.999 152.001zM563.001 426.998l18.998 91.001h60l-99 -468c-37.333 -174.667 -137 -262 -299 -262c-64 0 -113 14.667 -147 44c-28 24.667 -42 54.334 -42 89.001c0 5.33301 0.666992 10.666 2 15.999h64
c0.666992 -63.333 45.334 -95 134.001 -95c74.667 0 131.667 25.333 171 76c28.667 37.333 50 92.333 64 165c-25.333 -30.667 -56.666 -54.5 -93.999 -71.5s-74.666 -25.5 -111.999 -25.5c-60.667 0 -107 18.667 -139 56c-28.667 33.333 -43 79 -43 137
c0 25.333 3 52.333 9 81c17.333 82 49.333 146.333 96 193c51.333 52.667 116.666 79 195.999 79c34.667 0 67.167 -9.33301 97.5 -28s50.5 -44.334 60.5 -77.001h2zM173.999 705.999h39.001c-0.666992 -54 28.666 -81 87.999 -81c58 0 99.333 27 124 81h37
c-26.667 -84 -85.334 -126 -176.001 -126c-35.333 0 -63.166 9 -83.499 27s-30.5 43.333 -30.5 76c0 7.33301 0.666992 15 2 23z" />
    <glyph glyph-name="glyph273" unicode="&#x128;" horiz-adv-x="278" 
d="M173 0h-68l153 720h68zM159 780h-32.999c14 18 33.333 35.667 58 53c33.333 23.333 63.333 35 90 35c11.333 0 27.5 -6.83301 48.5 -20.5s36.833 -20.5 47.5 -20.5c20 0 44.333 15 73 45h35c-10 -12 -21.333 -23.333 -34 -34c-42 -35.333 -77.667 -53.333 -107 -54
c-16 0 -34.167 6.66699 -54.5 20s-35.833 20 -46.5 20c-20.667 0 -46.334 -14.667 -77.001 -44z" />
    <glyph glyph-name="glyph274" unicode="&#x129;" horiz-adv-x="222" 
d="M141 0h-60l110 518h60zM103 593h-30.999c12.667 16.667 31 33.334 55 50.001c32 22 60.667 33 86 33c10 0 25 -6.33301 45 -19s35.333 -19 46 -19c18 0 41 14 69 42h33c-8.66699 -10.667 -19.334 -21.334 -32.001 -32.001c-40 -33.333 -74 -50.333 -102 -51
c-14.667 0 -31.834 6.33301 -51.501 19s-34.5 19 -44.5 19c-19.333 0 -43.666 -14 -72.999 -42z" />
    <glyph glyph-name="Idotaccent" unicode="&#x130;" horiz-adv-x="429" 
d="M173 0h-68l153 720h68zM285 839l22 102h65l-22 -102h-65z" />
    <glyph glyph-name="dotlessi" unicode="&#x131;" horiz-adv-x="222" 
d="M138 0h-60l110 518h60z" />
    <glyph glyph-name="Lslash" unicode="&#x141;" 
d="M535 0h-454l77 360l-90 -40l13 60l89 40l64 300h68l-53 -250l89 40l-12 -60l-90 -40l-75 -352h386z" />
    <glyph glyph-name="lslash" unicode="&#x142;" horiz-adv-x="222" 
d="M141 0h-60l72 340l-79 -40l13 60l79 40l68 320h60l-57 -270l79 40l-13 -60l-79 -40z" />
    <glyph glyph-name="OE" unicode="&#x152;" horiz-adv-x="1000" 
d="M594 221l59 277.001c3.33301 17.333 5 33.666 5 48.999c0 89.333 -55.667 134 -167 134c-76 0 -140.333 -27.167 -193 -81.5s-90 -133.833 -112 -238.5c-9.33301 -42.667 -14 -81.667 -14 -117c0 -136.667 63.333 -205 190 -205c54 0 106 18 156 54
c38.667 28 64 70.667 76 128zM550 0.000976562l15.001 72c-72 -60.667 -145.333 -91 -220 -91c-82.667 0 -144.667 25 -186 75c-36.667 44.667 -55 105.667 -55 183c0 38 4.33301 78 13 120c24 112 67.333 201.333 130 268c69.333 74.667 154.666 112 255.999 112
c98 0 159.333 -31.667 184 -95l16 76h407l-12 -58h-342l-56 -260h320l-12 -58h-320l-61 -286h352l-12 -58h-417z" />
    <glyph glyph-name="oe" unicode="&#x153;" horiz-adv-x="944" 
d="M956 245l-393 -0.000976562c-6 -18 -9 -37.667 -9 -59c0 -40 10.333 -73 31 -99c24.667 -31.333 61.334 -47 110.001 -47c37.333 0 71.833 11 103.5 33s55.5 51 71.5 87h61c-24 -56 -57.833 -99 -101.5 -129s-93.167 -45 -148.5 -45c-47.333 0 -86.666 12 -117.999 36
c-29.333 22 -49.333 52 -60 90c-58.667 -84 -138.334 -126 -239.001 -126c-56.667 0 -101.167 17 -133.5 51s-48.5 81 -48.5 141c0 25.333 3 52 9 80c17.333 80.667 49.666 145.334 96.999 194.001c52.667 53.333 118 80 196 80c97.333 0 158 -41.667 182 -125
c61.333 83.333 138.333 125 231 125c115.333 0 173 -57.333 173 -172c0 -32.667 -4.66699 -71 -14 -115zM153 248.999c-4.66699 -22 -7 -43 -7 -63c0 -44 10.667 -78.667 32 -104c23.333 -28 57.666 -42 102.999 -42c55.333 0 103 21.333 143 64
c38.667 40.667 65.334 95.667 80.001 165c4.66699 22.667 7 44 7 64c0 44.667 -12 80 -36 106s-59.667 39 -107 39c-54 0 -99.833 -20.333 -137.5 -61s-63.5 -96.667 -77.5 -168zM574 294.999l328.998 -0.000976562c4 21.333 6 41 6 59c0 82.667 -42 124 -126 124
c-49.333 0 -93.166 -17.667 -131.499 -53s-64.166 -78.666 -77.499 -129.999z" />
    <glyph glyph-name="Scedilla" unicode="&#x15e;" horiz-adv-x="656" 
d="M89 215l66.001 -0.00292969c-2 -12 -3 -23 -3 -33c0 -95.333 57.333 -143 172 -143c61.333 0 111.333 15 150 45c34 26.667 55.667 61.334 65 104.001c2 10.667 3 20.667 3 30c0 46 -32 79.667 -96 101l-179 52c-64 26.667 -96 69.334 -96 128.001
c0 14.667 1.66699 30.334 5 47.001c11.333 53.333 41.333 98 90 134c53.333 39.333 118.333 59 195 59c66.667 0 117.667 -15.667 153 -47c32.667 -29.333 49 -68.333 49 -117c0 -16.667 -2 -33.667 -6 -51h-65c3.33301 13.333 5 26 5 38
c0 39.333 -14.667 69.666 -44 90.999c-26.667 18.667 -61.334 28 -104.001 28c-64.667 0 -116.667 -17.333 -156 -52c-34 -30 -52 -65.667 -54 -107c-2 -48 29 -82.333 93 -103l182 -50c66 -26 99 -69.333 99 -130c0 -14.667 -1.66699 -30.667 -5 -48
c-14 -66 -48.167 -117.5 -102.5 -154.5s-122.833 -55.5 -205.5 -55.5c-66.667 0 -119.667 15 -159 45s-59 73.333 -59 130c0 18.667 2.33301 38.334 7 59.001zM53.001 -188.003l20.998 30c28 -10 48.333 -15 61 -15c17.333 0 32.666 3.66699 45.999 11
c16.667 8.66699 26.667 20.667 30 36c6 26 -7.66699 39 -41 39c-9.33301 0 -24.666 -2.66699 -45.999 -8l-12 13l77 82h39l-60 -59c17.333 4 30 6 38 6c20.667 0 37.334 -5.66699 50.001 -17c10.667 -10 16 -21.667 16 -35c-1.33301 -34 -15.666 -60 -42.999 -78
c-24 -16 -53.667 -24 -89 -24c-27.333 0 -56.333 6.33301 -87 19z" />
    <glyph glyph-name="scedilla" unicode="&#x15f;" horiz-adv-x="383" 
d="M80 162h61.001c0 -44 10.167 -75.333 30.5 -94s53.5 -28 99.5 -28c37.333 0 70.666 9.33301 99.999 28c33.333 21.333 50 50 50 86c0 31.333 -24.667 54.333 -74 69l-137 35c-49.333 19.333 -74 50.666 -74 93.999c0 10 1.33301 20.667 4 32c9.33301 44 33 79.667 71 107
s85.333 41 142 41c110.667 0 166 -46.667 166 -140c0 -7.33301 -0.333008 -15 -1 -23h-61c6 72.667 -32.667 109 -116 109c-37.333 0 -68 -8 -92 -24s-38.667 -37.667 -44 -65c-1.33301 -6 -2 -11.333 -2 -16c0 -30 24.333 -53 73 -69l137 -40
c49.333 -20.667 74 -52.667 74 -96c0 -9.33301 -1.33301 -19.666 -4 -30.999c-10 -48 -38 -85.667 -84 -113c-42.667 -25.333 -95.667 -38 -159 -38c-52 0 -92.667 13.667 -122 41c-26.667 25.333 -40 59.333 -40 102c0 10.667 0.666992 21.667 2 33zM-43.999 -188
l20.998 30c28 -10 48.333 -15 61 -15c17.333 0 32.666 3.66699 45.999 11c16.667 8.66699 26.667 20.667 30 36c6 26 -7.66699 39 -41 39c-9.33301 0 -24.666 -2.66699 -45.999 -8l-12 13l77 82h39l-60 -59c17.333 4 30 6 38 6c20.667 0 37.334 -5.66699 50.001 -17
c10.667 -10 16 -21.667 16 -35c-1.33301 -34 -15.666 -60 -42.999 -78c-24 -16 -53.667 -24 -89 -24c-27.333 0 -56.333 6.33301 -87 19z" />
    <glyph glyph-name="Scaron" unicode="&#x160;" horiz-adv-x="611" 
d="M89 215l66.001 -0.00292969c-2 -12 -3 -23 -3 -33c0 -95.333 57.333 -143 172 -143c61.333 0 111.333 15 150 45c34 26.667 55.667 61.334 65 104.001c2 10.667 3 20.667 3 30c0 46 -32 79.667 -96 101l-179 52c-64 26.667 -96 69.334 -96 128.001
c0 14.667 1.66699 30.334 5 47.001c11.333 53.333 41.333 98 90 134c53.333 39.333 118.333 59 195 59c66.667 0 117.667 -15.667 153 -47c32.667 -29.333 49 -68.333 49 -117c0 -16.667 -2 -33.667 -6 -51h-65c3.33301 13.333 5 26 5 38
c0 39.333 -14.667 69.666 -44 90.999c-26.667 18.667 -61.334 28 -104.001 28c-64.667 0 -116.667 -17.333 -156 -52c-34 -30 -52 -65.667 -54 -107c-2 -48 29 -82.333 93 -103l182 -50c66 -26 99 -69.333 99 -130c0 -14.667 -1.66699 -30.667 -5 -48
c-14 -66 -48.167 -117.5 -102.5 -154.5s-122.833 -55.5 -205.5 -55.5c-66.667 0 -119.667 15 -159 45s-59 73.333 -59 130c0 18.667 2.33301 38.334 7 59.001zM483.001 812.997l104 102h65l-143 -139h-67l-84 139h65z" />
    <glyph glyph-name="scaron" unicode="&#x161;" horiz-adv-x="500" 
d="M80 162h61.001c0 -44 10.167 -75.333 30.5 -94s53.5 -28 99.5 -28c37.333 0 70.666 9.33301 99.999 28c33.333 21.333 50 50 50 86c0 31.333 -24.667 54.333 -74 69l-137 35c-49.333 19.333 -74 50.666 -74 93.999c0 10 1.33301 20.667 4 32c9.33301 44 33 79.667 71 107
s85.333 41 142 41c110.667 0 166 -46.667 166 -140c0 -7.33301 -0.333008 -15 -1 -23h-61c6 72.667 -32.667 109 -116 109c-37.333 0 -68 -8 -92 -24s-38.667 -37.667 -44 -65c-1.33301 -6 -2 -11.333 -2 -16c0 -30 24.333 -53 73 -69l137 -40
c49.333 -20.667 74 -52.667 74 -96c0 -9.33301 -1.33301 -19.666 -4 -30.999c-10 -48 -38 -85.667 -84 -113c-42.667 -25.333 -95.667 -38 -159 -38c-52 0 -92.667 13.667 -122 41c-26.667 25.333 -40 59.333 -40 102c0 10.667 0.666992 21.667 2 33zM385.001 611l104 102
h65l-143 -139h-67l-84 139h65z" />
    <glyph glyph-name="ch903" unicode="&#x168;" horiz-adv-x="722" 
d="M140 271l95.002 448.999h68l-91 -429c-8 -38 -12 -72 -12 -102c0 -100 56.333 -150 169 -150c79.333 0 140.333 23 183 69c37.333 39.333 64.666 100.333 81.999 183l91 429h68l-95 -449c-40.667 -193.333 -154.334 -290 -341.001 -290c-152 0 -228 66 -228 198
c0 26.667 3.66699 57.334 11 92.001zM390.002 749.999h-32.999c14 18 33.333 35.667 58 53c33.333 23.333 63.333 35 90 35c11.333 0 27.5 -6.83301 48.5 -20.5s36.833 -20.5 47.5 -20.5c20 0 44.333 15 73 45h35c-10 -12 -21.333 -23.333 -34 -34
c-42 -35.333 -77.667 -53.333 -107 -54c-16 0 -34.167 6.66699 -54.5 20s-35.833 20 -46.5 20c-20.667 0 -46.334 -14.667 -77.001 -44z" />
    <glyph glyph-name="ch904" unicode="&#x169;" 
d="M473 236l60 282h60l-110 -518h-60l15 72c-62 -57.333 -123.667 -86 -185 -86c-100 0 -150 43 -150 129c0 19.333 2.33301 40 7 62l72 341h60l-72 -340c-3.33301 -16 -5 -31.667 -5 -47c0 -60.667 36.333 -91 109 -91c52.667 0 97 20.333 133 61
c32 35.333 54 80.333 66 135zM277 593h-30.999c12.667 16.667 31 33.334 55 50.001c32 22 60.667 33 86 33c10 0 25 -6.33301 45 -19s35.333 -19 46 -19c18 0 41 14 69 42h33c-8.66699 -10.667 -19.334 -21.334 -32.001 -32.001c-40 -33.333 -74 -50.333 -102 -51
c-14.667 0 -31.834 6.33301 -51.501 19s-34.5 19 -44.5 19c-19.333 0 -43.666 -14 -72.999 -42z" />
    <glyph glyph-name="Ydieresis" unicode="&#x178;" horiz-adv-x="611" 
d="M243 720l138 -347l291 347h79l-347 -406l-67 -314h-68l66 309l-170 411h78zM366 786l22 102h65l-22 -102h-65zM525 786l22 102h65l-22 -102h-65z" />
    <glyph glyph-name="Zcaron" unicode="&#x17d;" horiz-adv-x="611" 
d="M579 0h-548l12 57l590 605h-422l12 58h506l-12 -57l-590 -605h464zM483 813l104 102h65l-143 -139h-67l-84 139h65z" />
    <glyph glyph-name="zcaron" unicode="&#x17e;" horiz-adv-x="500" 
d="M467 0h-434l11 53l432 415h-321l11 50h398l-11 -53l-432 -415h357zM385 611l104 102h65l-143 -139h-67l-84 139h65z" />
    <glyph glyph-name="florin" unicode="&#x192;" 
d="M691 714l-31 -49c-18 9.33301 -34 14 -48 14c-7.33301 0 -16 -0.666992 -26 -2c-33.333 -5.33301 -63.333 -34 -90 -86l-63 -143h115l-10 -48h-123l-135 -336c-33.333 -82.667 -67 -143.667 -101 -183c-43.333 -51.333 -94.333 -77 -153 -77
c-15.333 0 -32.666 3.66699 -51.999 11l31 57c12.667 -8.66699 29 -13 49 -13c36.667 0 73.667 33.333 111 100c27.333 48 68 141 122 279l63 162h-113l10 48h121l56 123c25.333 50 51.666 88 78.999 114c35.333 32.667 76 49 122 49c23.333 0 45.333 -6.66699 66 -20z" />
    <glyph glyph-name="glyph277" unicode="&#x1a0;" horiz-adv-x="778" 
d="M397 39c88 0 162.667 32.335 224 97.002c54.667 57.333 91.667 131.666 111 222.999c8 37.333 12 71.333 12 102c0 68.667 -18.333 122.5 -55 161.5s-89 58.5 -157 58.5c-87.333 0 -162 -32.667 -224 -98c-54.667 -58.667 -91.667 -133.334 -111 -224.001
c-7.33301 -34.667 -11 -67.667 -11 -99c0 -70 17.833 -124.333 53.5 -163s88.167 -58 157.5 -58zM743 666.002c46 -46.667 69.002 -112.334 69.002 -197.001c0 -36 -4 -72.667 -12 -110c-23.333 -109.333 -70 -198.333 -140 -267c-76.667 -74 -168.667 -111 -276 -111
c-85.333 0 -151.166 23.833 -197.499 71.5s-69.5 114.167 -69.5 199.5c0 34 4 69.667 12 107c23.333 108.667 69.666 197.667 138.999 267c76 75.333 167.333 113 274 113c76.667 0 137.667 -19 183 -57c41.333 8 62 24.333 62 49c0 14 -8.33301 24 -25 30
c-6 2 -17.333 2.33301 -34 1c4.66699 6.66699 16.167 11.834 34.5 15.501s32.166 4.16699 41.499 1.5c22.667 -8.66699 34 -22.667 34 -42c0 -9.33301 -3 -19 -9 -29c-14.667 -24 -43.334 -38 -86.001 -42z" />
    <glyph glyph-name="glyph278" unicode="&#x1a1;" 
d="M518 335c0 95.333 -46.001 143.002 -138.001 143.002c-59.333 0 -109.333 -22.333 -150 -67c-35.333 -38.667 -59.666 -89.334 -72.999 -152.001c-5.33301 -24.667 -8 -48.334 -8 -71.001c0 -98.667 46 -148 138 -148c70 0 127.333 32.667 172 98
c39.333 58 59 123.667 59 197zM539.999 473.002l35 31.999c10.667 8 16 17 16 27c0 12.667 -8 21.667 -24 27c4 5.33301 10.833 10 20.5 14s17.167 5 22.5 3c20.667 -6.66699 31 -19.667 31 -39c0 -29.333 -24 -49.333 -72 -60l-27 -6c26.667 -33.333 40 -77.333 40 -132
c0 -25.333 -3 -52 -9 -80c-16.667 -78 -50.334 -142 -101.001 -192c-55.333 -54.667 -121 -81.667 -197 -81c-60 0.666992 -106.833 18 -140.5 52s-50.5 81 -50.5 141c0 24.667 3 51.334 9 80.001c16.667 78.667 50 142.667 100 192c54.667 54 120.667 81 198 81
c66.667 0 116.334 -19.667 149.001 -59z" />
    <glyph glyph-name="glyph279" unicode="&#x1af;" horiz-adv-x="722" 
d="M782 669l-83.998 -398.002c-40.667 -193.333 -154.334 -290 -341.001 -290c-152 0 -228 66 -228 198c0 26.667 3.66699 57.334 11 92.001l95 449h68l-91 -429c-8 -38 -12 -72 -12 -102c0 -100 56.333 -150 169 -150c79.333 0 140.333 23 183 69
c37.333 39.333 64.666 100.333 81.999 183l91 429l51 -7l12 -12c12.667 10 19 19.667 19 29c0 14 -9 24.333 -27 31c-5.33301 2 -16.666 2.33301 -33.999 1c4.66699 6.66699 16.167 11.834 34.5 15.501s32.166 4.16699 41.499 1.5c22.667 -8.66699 34 -22.667 34 -42
c0 -34 -24.667 -56.667 -74 -68z" />
    <glyph glyph-name="glyph280" unicode="&#x1b0;" 
d="M584 475l-101 -475h-60l15 72c-62 -57.333 -123.667 -86 -185 -86c-100 0 -150 43 -150 129c0 19.333 2.33301 40 7 62l72 341h60l-72 -340c-3.33301 -16 -5 -31.667 -5 -47c0 -60.667 36.333 -91 109 -91c52.667 0 97 20.333 133 61c32 35.333 54 80.333 66 135l60 282
l38 -9l17 -13l10 9c10.667 8 16 17 16 27c0 12.667 -8 21.667 -24 27c4 4.66699 10.833 9 20.5 13s17.167 5 22.5 3c19.333 -6.66699 29 -19 29 -37c0 -28.667 -23.333 -49 -70 -61z" />
    <glyph glyph-name="circumflex" unicode="&#x2c6;" horiz-adv-x="333" 
d="M315 676l-104 -102h-65l144 139h67l83 -139h-65z" />
    <glyph glyph-name="caron" unicode="&#x2c7;" horiz-adv-x="333" 
d="M301 611l104 102h65l-143 -139h-67l-84 139h65z" />
    <glyph glyph-name="breve" unicode="&#x2d8;" horiz-adv-x="333" 
d="M178 706h39.001c-0.666992 -54 28.666 -81 87.999 -81c58 0 99.333 27 124 81h37c-26.667 -84 -85.334 -126 -176.001 -126c-35.333 0 -63.166 9 -83.499 27s-30.5 43.333 -30.5 76c0 7.33301 0.666992 15 2 23z" />
    <glyph glyph-name="dotaccent" unicode="&#x2d9;" horiz-adv-x="333" 
d="M258 584l22 102h65l-22 -102h-65z" />
    <glyph glyph-name="ring" unicode="&#x2da;" horiz-adv-x="333" 
d="M290 578c-23.333 0 -42.667 7.5 -58 22.5s-23 33.833 -23 56.5c0 30 13 57.5 39 82.5s54 37.5 84 37.5c23.333 0 42.5 -7.66699 57.5 -23s22.5 -34.333 22.5 -57c0 -30.667 -12.667 -58.167 -38 -82.5s-53.333 -36.5 -84 -36.5zM296.999 611
c20 0 38.501 8.16797 55.501 24.501s25.5 34.5 25.5 54.5c0 15.333 -5 28.166 -15 38.499s-22.667 15.5 -38 15.5c-20 0 -38.667 -8.16699 -56 -24.5s-26 -34.833 -26 -55.5c0 -14.667 5.16699 -27.167 15.5 -37.5s23.166 -15.5 38.499 -15.5z" />
    <glyph glyph-name="ogonek" unicode="&#x2db;" horiz-adv-x="333" 
d="M149 0h50v-2c-66.667 -30 -100 -63.333 -100 -100c0 -29.333 18.667 -44 56 -44c14 0 28.667 3 44 9l-9 -44c-18.667 -6 -36.667 -9 -54 -9c-24.667 0 -44.667 5.66699 -60 17c-17.333 12.667 -26 30 -26 52c0 50 33 90.333 99 121z" />
    <glyph glyph-name="tilde" unicode="&#x2dc;" horiz-adv-x="333" 
d="M177 586l-36.001 -0.000976562c6.66699 22.667 17.334 42.334 32.001 59.001c22.667 25.333 49 38 79 38c15.333 0 37.333 -7.5 66 -22.5s50.334 -22.5 65.001 -22.5c22 0 40 16.667 54 50h38c-1.33301 -6 -6.66602 -18.667 -15.999 -38c-26 -40 -55 -60 -87 -60
c-18.667 0 -42.334 7.5 -71.001 22.5s-50.334 22.5 -65.001 22.5c-22 0 -41.667 -16.333 -59 -49z" />
    <glyph glyph-name="hungarumlaut" unicode="&#x2dd;" horiz-adv-x="333" 
d="M282 574h-51l141 139h77zM444 574h-51l141 139h77z" />
    <glyph glyph-name="glyph281" unicode="&#x1ea0;" horiz-adv-x="667" 
d="M85 0h-70l436 720h77l123 -720h-70l-35 226h-328zM475 662l-222 -378h282zM354 -112h-65l17 80l24 2l41 -2z" />
    <glyph glyph-name="glyph282" unicode="&#x1ea1;" 
d="M452 191l17.001 81.002c-37.333 -14 -91 -23.667 -161 -29c-46.667 -3.33301 -85 -14 -115 -32c-38 -23.333 -57 -56 -57 -98c0 -24.667 10 -43.334 30 -56.001c17.333 -11.333 39 -17 65 -17c53.333 0 99.666 12 138.999 36c44.667 27.333 72 65.666 82 114.999z
M289.001 291.002l84.998 11.002c41.333 5.33301 66.333 10 75 14c20.667 8.66699 34.334 27.667 41.001 57c2 9.33301 3 18.666 3 27.999c0 51.333 -36.333 77 -109 77c-91.333 0 -150 -39 -176 -117h-61c16.667 57.333 47.667 100.666 93 129.999
c42.667 27.333 94.667 41 156 41c106 0 159 -39 159 -117c0 -13.333 -1.66699 -28 -5 -44l-60 -282c-2 -9.33301 -3 -18 -3 -26c0 -14.667 6.66699 -22 20 -22c8 0 20.333 2.66699 37 8l-10 -47c-20 -6.66699 -36.333 -10 -49 -10c-40.667 0 -61 16.333 -61 49
c0 8 1 18.333 3 31c-63.333 -57.333 -133.666 -86 -210.999 -86c-40 0 -73 9 -99 27c-30.667 20.667 -46 50 -46 88c0 10 1.33301 21.333 4 34c18.667 88 90 140 214 156zM280.999 -131.996h-65l17 80l24 2l41 -2z" />
    <glyph glyph-name="glyph283" unicode="&#x1ea2;" horiz-adv-x="667" 
d="M85 0h-70l436 720h77l123 -720h-70l-35 226h-328zM475 662l-222 -378h282zM491 835l42 30.001c17.333 12 26 26.667 26 44c0 28 -13.667 42 -41 42c-17.333 0 -33.5 -7.33301 -48.5 -22s-24.167 -30.667 -27.5 -48l-3 26c2.66699 24 12.5 43.667 29.5 59s37.5 23 61.5 23
c19.333 0 35.833 -5.66699 49.5 -17s20.5 -26.666 20.5 -45.999c0 -18.667 -10 -38.334 -30 -59.001l-53 -46c-16 -19.333 -25.667 -36.333 -29 -51c0 5.33301 -1.33301 12.666 -4 21.999s-4 16.333 -4 21c0 8 3.66699 15.333 11 22z" />
    <glyph glyph-name="glyph284" unicode="&#x1ea3;" 
d="M452 191l17.001 81.002c-37.333 -14 -91 -23.667 -161 -29c-46.667 -3.33301 -85 -14 -115 -32c-38 -23.333 -57 -56 -57 -98c0 -24.667 10 -43.334 30 -56.001c17.333 -11.333 39 -17 65 -17c53.333 0 99.666 12 138.999 36c44.667 27.333 72 65.666 82 114.999z
M289.001 291.002l84.998 11.002c41.333 5.33301 66.333 10 75 14c20.667 8.66699 34.334 27.667 41.001 57c2 9.33301 3 18.666 3 27.999c0 51.333 -36.333 77 -109 77c-91.333 0 -150 -39 -176 -117h-61c16.667 57.333 47.667 100.666 93 129.999
c42.667 27.333 94.667 41 156 41c106 0 159 -39 159 -117c0 -13.333 -1.66699 -28 -5 -44l-60 -282c-2 -9.33301 -3 -18 -3 -26c0 -14.667 6.66699 -22 20 -22c8 0 20.333 2.66699 37 8l-10 -47c-20 -6.66699 -36.333 -10 -49 -10c-40.667 0 -61 16.333 -61 49
c0 8 1 18.333 3 31c-63.333 -57.333 -133.666 -86 -210.999 -86c-40 0 -73 9 -99 27c-30.667 20.667 -46 50 -46 88c0 10 1.33301 21.333 4 34c18.667 88 90 140 214 156zM398.999 674.004l42 30.001c17.333 12 26 26.667 26 44c0 28 -13.667 42 -41 42
c-17.333 0 -33.5 -7.33301 -48.5 -22s-24.167 -30.667 -27.5 -48l-3 26c2.66699 24 12.5 43.667 29.5 59s37.5 23 61.5 23c19.333 0 35.833 -5.66699 49.5 -17s20.5 -26.666 20.5 -45.999c0 -18.667 -10 -38.334 -30 -59.001l-53 -46c-16 -19.333 -25.667 -36.333 -29 -51
c0 5.33301 -1.33301 12.666 -4 21.999s-4 16.333 -4 21c0 8 3.66699 15.333 11 22z" />
    <glyph glyph-name="glyph285" unicode="&#x1ea4;" horiz-adv-x="667" 
d="M85 0h-70l436 720h77l123 -720h-70l-35 226h-328zM475 662l-222 -378h282zM500 832l-94 -92h-58l129 125h61l74 -125h-58zM643 832h-31l126 139h87z" />
    <glyph glyph-name="glyph286" unicode="&#x1ea5;" 
d="M452 191l17.001 81.002c-37.333 -14 -91 -23.667 -161 -29c-46.667 -3.33301 -85 -14 -115 -32c-38 -23.333 -57 -56 -57 -98c0 -24.667 10 -43.334 30 -56.001c17.333 -11.333 39 -17 65 -17c53.333 0 99.666 12 138.999 36c44.667 27.333 72 65.666 82 114.999z
M289.001 291.002l84.998 11.002c41.333 5.33301 66.333 10 75 14c20.667 8.66699 34.334 27.667 41.001 57c2 9.33301 3 18.666 3 27.999c0 51.333 -36.333 77 -109 77c-91.333 0 -150 -39 -176 -117h-61c16.667 57.333 47.667 100.666 93 129.999
c42.667 27.333 94.667 41 156 41c106 0 159 -39 159 -117c0 -13.333 -1.66699 -28 -5 -44l-60 -282c-2 -9.33301 -3 -18 -3 -26c0 -14.667 6.66699 -22 20 -22c8 0 20.333 2.66699 37 8l-10 -47c-20 -6.66699 -36.333 -10 -49 -10c-40.667 0 -61 16.333 -61 49
c0 8 1 18.333 3 31c-63.333 -57.333 -133.666 -86 -210.999 -86c-40 0 -73 9 -99 27c-30.667 20.667 -46 50 -46 88c0 10 1.33301 21.333 4 34c18.667 88 90 140 214 156zM413.999 657.004l-90 -87h-55l123 118h58l70 -118h-55zM548.999 657.004h-29l120 132h82z" />
    <glyph glyph-name="glyph287" unicode="&#x1ea6;" horiz-adv-x="667" 
d="M85 0h-70l436 720h77l123 -720h-70l-35 226h-328zM475 662l-222 -378h282zM500 832l-94 -92h-58l129 125h61l74 -125h-58zM382 832h-31l-182 139h87z" />
    <glyph glyph-name="glyph288" unicode="&#x1ea7;" 
d="M452 191l17.001 81.002c-37.333 -14 -91 -23.667 -161 -29c-46.667 -3.33301 -85 -14 -115 -32c-38 -23.333 -57 -56 -57 -98c0 -24.667 10 -43.334 30 -56.001c17.333 -11.333 39 -17 65 -17c53.333 0 99.666 12 138.999 36c44.667 27.333 72 65.666 82 114.999z
M289.001 291.002l84.998 11.002c41.333 5.33301 66.333 10 75 14c20.667 8.66699 34.334 27.667 41.001 57c2 9.33301 3 18.666 3 27.999c0 51.333 -36.333 77 -109 77c-91.333 0 -150 -39 -176 -117h-61c16.667 57.333 47.667 100.666 93 129.999
c42.667 27.333 94.667 41 156 41c106 0 159 -39 159 -117c0 -13.333 -1.66699 -28 -5 -44l-60 -282c-2 -9.33301 -3 -18 -3 -26c0 -14.667 6.66699 -22 20 -22c8 0 20.333 2.66699 37 8l-10 -47c-20 -6.66699 -36.333 -10 -49 -10c-40.667 0 -61 16.333 -61 49
c0 8 1 18.333 3 31c-63.333 -57.333 -133.666 -86 -210.999 -86c-40 0 -73 9 -99 27c-30.667 20.667 -46 50 -46 88c0 10 1.33301 21.333 4 34c18.667 88 90 140 214 156zM413.999 657.004l-90 -87h-55l123 118h58l70 -118h-55zM301.999 657.004h-30l-173 132h83z" />
    <glyph glyph-name="glyph289" unicode="&#x1ea8;" horiz-adv-x="667" 
d="M85 0h-70l436 720h77l123 -720h-70l-35 226h-328zM475 662l-222 -378h282zM500 832l-94 -92h-58l129 125h61l74 -125h-58zM625 887l42 30.001c17.333 12 26 26.667 26 44c0 28 -13.667 42 -41 42c-17.333 0 -33.5 -7.33301 -48.5 -22s-24.167 -30.667 -27.5 -48l-3 26
c2.66699 24 12.5 43.667 29.5 59s37.5 23 61.5 23c19.333 0 35.833 -5.66699 49.5 -17s20.5 -26.666 20.5 -45.999c0 -18.667 -10 -38.334 -30 -59.001l-53 -46c-16 -19.333 -25.667 -36.333 -29 -51c0 5.33301 -1.33301 12.666 -4 21.999s-4 16.333 -4 21
c0 8 3.66699 15.333 11 22z" />
    <glyph glyph-name="glyph290" unicode="&#x1ea9;" 
d="M452 191l17.001 81.002c-37.333 -14 -91 -23.667 -161 -29c-46.667 -3.33301 -85 -14 -115 -32c-38 -23.333 -57 -56 -57 -98c0 -24.667 10 -43.334 30 -56.001c17.333 -11.333 39 -17 65 -17c53.333 0 99.666 12 138.999 36c44.667 27.333 72 65.666 82 114.999z
M289.001 291.002l84.998 11.002c41.333 5.33301 66.333 10 75 14c20.667 8.66699 34.334 27.667 41.001 57c2 9.33301 3 18.666 3 27.999c0 51.333 -36.333 77 -109 77c-91.333 0 -150 -39 -176 -117h-61c16.667 57.333 47.667 100.666 93 129.999
c42.667 27.333 94.667 41 156 41c106 0 159 -39 159 -117c0 -13.333 -1.66699 -28 -5 -44l-60 -282c-2 -9.33301 -3 -18 -3 -26c0 -14.667 6.66699 -22 20 -22c8 0 20.333 2.66699 37 8l-10 -47c-20 -6.66699 -36.333 -10 -49 -10c-40.667 0 -61 16.333 -61 49
c0 8 1 18.333 3 31c-63.333 -57.333 -133.666 -86 -210.999 -86c-40 0 -73 9 -99 27c-30.667 20.667 -46 50 -46 88c0 10 1.33301 21.333 4 34c18.667 88 90 140 214 156zM413.999 658.004l-89 -88h-55l123 119h58l70 -119h-55zM539.999 715.004l42 30.001
c17.333 12 26 26.667 26 44c0 28 -13.667 42 -41 42c-17.333 0 -33.5 -7.33301 -48.5 -22s-24.167 -30.667 -27.5 -48l-3 26c2.66699 24 12.5 43.667 29.5 59s37.5 23 61.5 23c19.333 0 35.833 -5.66699 49.5 -17s20.5 -26.666 20.5 -45.999
c0 -18.667 -10 -38.334 -30 -59.001l-53 -46c-16 -19.333 -25.667 -36.333 -29 -51c0 5.33301 -1.33301 12.666 -4 21.999s-4 16.333 -4 21c0 8 3.66699 15.333 11 22z" />
    <glyph glyph-name="glyph291" unicode="&#x1eaa;" horiz-adv-x="667" 
d="M85 0h-70l436 720h77l123 -720h-70l-35 226h-328zM475 662l-222 -378h282zM500 832l-94 -92h-58l129 125h61l74 -125h-58zM350 901h-32.999c14 18 33.333 35.667 58 53c33.333 23.333 63.333 35 90 35c11.333 0 27.5 -6.83301 48.5 -20.5s36.833 -20.5 47.5 -20.5
c20 0 44.333 15 73 45h35c-10 -12 -21.333 -23.333 -34 -34c-42 -35.333 -77.667 -53.333 -107 -54c-16 0 -34.167 6.66699 -54.5 20s-35.833 20 -46.5 20c-20.667 0 -46.334 -14.667 -77.001 -44z" />
    <glyph glyph-name="glyph292" unicode="&#x1eab;" 
d="M452 191l17.001 81.002c-37.333 -14 -91 -23.667 -161 -29c-46.667 -3.33301 -85 -14 -115 -32c-38 -23.333 -57 -56 -57 -98c0 -24.667 10 -43.334 30 -56.001c17.333 -11.333 39 -17 65 -17c53.333 0 99.666 12 138.999 36c44.667 27.333 72 65.666 82 114.999z
M289.001 291.002l84.998 11.002c41.333 5.33301 66.333 10 75 14c20.667 8.66699 34.334 27.667 41.001 57c2 9.33301 3 18.666 3 27.999c0 51.333 -36.333 77 -109 77c-91.333 0 -150 -39 -176 -117h-61c16.667 57.333 47.667 100.666 93 129.999
c42.667 27.333 94.667 41 156 41c106 0 159 -39 159 -117c0 -13.333 -1.66699 -28 -5 -44l-60 -282c-2 -9.33301 -3 -18 -3 -26c0 -14.667 6.66699 -22 20 -22c8 0 20.333 2.66699 37 8l-10 -47c-20 -6.66699 -36.333 -10 -49 -10c-40.667 0 -61 16.333 -61 49
c0 8 1 18.333 3 31c-63.333 -57.333 -133.666 -86 -210.999 -86c-40 0 -73 9 -99 27c-30.667 20.667 -46 50 -46 88c0 10 1.33301 21.333 4 34c18.667 88 90 140 214 156zM413.999 658.004l-90 -88h-55l123 119h58l70 -119h-55zM270.999 723.004h-30.999
c12.667 16.667 31 33.334 55 50.001c32 22 60.667 33 86 33c10 0 25 -6.33301 45 -19s35.333 -19 46 -19c18 0 41 14 69 42h33c-8.66699 -10.667 -19.334 -21.334 -32.001 -32.001c-40 -33.333 -74 -50.333 -102 -51c-14.667 0 -31.834 6.33301 -51.501 19
s-34.5 19 -44.5 19c-19.333 0 -43.666 -14 -72.999 -42z" />
    <glyph glyph-name="glyph293" unicode="&#x1eac;" horiz-adv-x="667" 
d="M85 0h-70l436 720h77l123 -720h-70l-35 226h-328zM475 662l-222 -378h282zM500 832l-94 -92h-58l129 125h61l74 -125h-58zM354 -112h-65l17 80l24 2l41 -2z" />
    <glyph glyph-name="glyph294" unicode="&#x1ead;" 
d="M452 191l17.001 81.002c-37.333 -14 -91 -23.667 -161 -29c-46.667 -3.33301 -85 -14 -115 -32c-38 -23.333 -57 -56 -57 -98c0 -24.667 10 -43.334 30 -56.001c17.333 -11.333 39 -17 65 -17c53.333 0 99.666 12 138.999 36c44.667 27.333 72 65.666 82 114.999z
M289.001 291.002l84.998 11.002c41.333 5.33301 66.333 10 75 14c20.667 8.66699 34.334 27.667 41.001 57c2 9.33301 3 18.666 3 27.999c0 51.333 -36.333 77 -109 77c-91.333 0 -150 -39 -176 -117h-61c16.667 57.333 47.667 100.666 93 129.999
c42.667 27.333 94.667 41 156 41c106 0 159 -39 159 -117c0 -13.333 -1.66699 -28 -5 -44l-60 -282c-2 -9.33301 -3 -18 -3 -26c0 -14.667 6.66699 -22 20 -22c8 0 20.333 2.66699 37 8l-10 -47c-20 -6.66699 -36.333 -10 -49 -10c-40.667 0 -61 16.333 -61 49
c0 8 1 18.333 3 31c-63.333 -57.333 -133.666 -86 -210.999 -86c-40 0 -73 9 -99 27c-30.667 20.667 -46 50 -46 88c0 10 1.33301 21.333 4 34c18.667 88 90 140 214 156zM413.999 657.004l-90 -87h-55l123 118h58l70 -118h-55zM280.999 -131.996h-65l17 80l24 2l41 -2z" />
    <glyph glyph-name="glyph295" unicode="&#x1eae;" horiz-adv-x="667" 
d="M85 0h-70l436 720h77l123 -720h-70l-35 226h-328zM475 662l-222 -378h282zM388 873h35.001c-0.666992 -48 25.666 -72 78.999 -72c52 0 89 24 111 72h34c-25.333 -75.333 -78.333 -113 -159 -113c-68 0 -102 30.667 -102 92c0 6.66699 0.666992 13.667 2 21zM517.001 873
h-31l126 139h87z" />
    <glyph glyph-name="glyph296" unicode="&#x1eaf;" 
d="M452 191l17.001 81.002c-37.333 -14 -91 -23.667 -161 -29c-46.667 -3.33301 -85 -14 -115 -32c-38 -23.333 -57 -56 -57 -98c0 -24.667 10 -43.334 30 -56.001c17.333 -11.333 39 -17 65 -17c53.333 0 99.666 12 138.999 36c44.667 27.333 72 65.666 82 114.999z
M289.001 291.002l84.998 11.002c41.333 5.33301 66.333 10 75 14c20.667 8.66699 34.334 27.667 41.001 57c2 9.33301 3 18.666 3 27.999c0 51.333 -36.333 77 -109 77c-91.333 0 -150 -39 -176 -117h-61c16.667 57.333 47.667 100.666 93 129.999
c42.667 27.333 94.667 41 156 41c106 0 159 -39 159 -117c0 -13.333 -1.66699 -28 -5 -44l-60 -282c-2 -9.33301 -3 -18 -3 -26c0 -14.667 6.66699 -22 20 -22c8 0 20.333 2.66699 37 8l-10 -47c-20 -6.66699 -36.333 -10 -49 -10c-40.667 0 -61 16.333 -61 49
c0 8 1 18.333 3 31c-63.333 -57.333 -133.666 -86 -210.999 -86c-40 0 -73 9 -99 27c-30.667 20.667 -46 50 -46 88c0 10 1.33301 21.333 4 34c18.667 88 90 140 214 156zM300.999 701.004h33.999c-0.666992 -45.333 24.333 -68 75 -68c48.667 0 83.667 22.667 105 68h32
c-23.333 -71.333 -73.666 -107 -150.999 -107c-64 0 -96 29.333 -96 88c0 6 0.333008 12.333 1 19zM423.998 701.004h-30l120 132h83z" />
    <glyph glyph-name="glyph297" unicode="&#x1eb0;" horiz-adv-x="667" 
d="M85 0h-70l436 720h77l123 -720h-70l-35 226h-328zM475 662l-222 -378h282zM388 873h35.001c-0.666992 -48 25.666 -72 78.999 -72c52 0 89 24 111 72h34c-25.333 -75.333 -78.333 -113 -159 -113c-68 0 -102 30.667 -102 92c0 6.66699 0.666992 13.667 2 21zM518.001 873
h-31l-182 139h87z" />
    <glyph glyph-name="glyph298" unicode="&#x1eb1;" 
d="M452 191l17.001 81.002c-37.333 -14 -91 -23.667 -161 -29c-46.667 -3.33301 -85 -14 -115 -32c-38 -23.333 -57 -56 -57 -98c0 -24.667 10 -43.334 30 -56.001c17.333 -11.333 39 -17 65 -17c53.333 0 99.666 12 138.999 36c44.667 27.333 72 65.666 82 114.999z
M289.001 291.002l84.998 11.002c41.333 5.33301 66.333 10 75 14c20.667 8.66699 34.334 27.667 41.001 57c2 9.33301 3 18.666 3 27.999c0 51.333 -36.333 77 -109 77c-91.333 0 -150 -39 -176 -117h-61c16.667 57.333 47.667 100.666 93 129.999
c42.667 27.333 94.667 41 156 41c106 0 159 -39 159 -117c0 -13.333 -1.66699 -28 -5 -44l-60 -282c-2 -9.33301 -3 -18 -3 -26c0 -14.667 6.66699 -22 20 -22c8 0 20.333 2.66699 37 8l-10 -47c-20 -6.66699 -36.333 -10 -49 -10c-40.667 0 -61 16.333 -61 49
c0 8 1 18.333 3 31c-63.333 -57.333 -133.666 -86 -210.999 -86c-40 0 -73 9 -99 27c-30.667 20.667 -46 50 -46 88c0 10 1.33301 21.333 4 34c18.667 88 90 140 214 156zM300.999 700.004h33c-0.666992 -45.333 24.333 -68 75 -68c48.667 0 83.667 22.667 105 68h33
c-24 -71.333 -74.667 -107 -152 -107c-64 0 -96 28.667 -96 86c0 6.66699 0.666992 13.667 2 21zM423.999 700.004h-29l-173 132h82z" />
    <glyph glyph-name="glyph299" unicode="&#x1eb2;" horiz-adv-x="667" 
d="M85 0h-70l436 720h77l123 -720h-70l-35 226h-328zM475 662l-222 -378h282zM388 873h35.001c-0.666992 -48 25.666 -72 78.999 -72c52 0 89 24 111 72h34c-25.333 -75.333 -78.333 -113 -159 -113c-68 0 -102 30.667 -102 92c0 6.66699 0.666992 13.667 2 21zM505.001 928
l42 30.001c17.333 12 26 26.667 26 44c0 28 -13.667 42 -41 42c-17.333 0 -33.5 -7.33301 -48.5 -22s-24.167 -30.667 -27.5 -48l-3 26c2.66699 24 12.5 43.667 29.5 59s37.5 23 61.5 23c19.333 0 35.833 -5.66699 49.5 -17s20.5 -26.666 20.5 -45.999
c0 -18.667 -10 -38.334 -30 -59.001l-53 -46c-16 -19.333 -25.667 -36.333 -29 -51c0 5.33301 -1.33301 12.666 -4 21.999s-4 16.333 -4 21c0 8 3.66699 15.333 11 22z" />
    <glyph glyph-name="glyph300" unicode="&#x1eb3;" 
d="M452 191l17.001 81.002c-37.333 -14 -91 -23.667 -161 -29c-46.667 -3.33301 -85 -14 -115 -32c-38 -23.333 -57 -56 -57 -98c0 -24.667 10 -43.334 30 -56.001c17.333 -11.333 39 -17 65 -17c53.333 0 99.666 12 138.999 36c44.667 27.333 72 65.666 82 114.999z
M289.001 291.002l84.998 11.002c41.333 5.33301 66.333 10 75 14c20.667 8.66699 34.334 27.667 41.001 57c2 9.33301 3 18.666 3 27.999c0 51.333 -36.333 77 -109 77c-91.333 0 -150 -39 -176 -117h-61c16.667 57.333 47.667 100.666 93 129.999
c42.667 27.333 94.667 41 156 41c106 0 159 -39 159 -117c0 -13.333 -1.66699 -28 -5 -44l-60 -282c-2 -9.33301 -3 -18 -3 -26c0 -14.667 6.66699 -22 20 -22c8 0 20.333 2.66699 37 8l-10 -47c-20 -6.66699 -36.333 -10 -49 -10c-40.667 0 -61 16.333 -61 49
c0 8 1 18.333 3 31c-63.333 -57.333 -133.666 -86 -210.999 -86c-40 0 -73 9 -99 27c-30.667 20.667 -46 50 -46 88c0 10 1.33301 21.333 4 34c18.667 88 90 140 214 156zM299.999 701.004h33.001c-0.666992 -45.333 24.333 -68 75 -68c49.333 0 84.666 22.667 105.999 68
h32c-24 -71.333 -74.333 -107 -151 -107c-64 0 -96 29.333 -96 88c0 6 0.333008 12.333 1 19zM411 758.004l42 30.001c17.333 12 26 26.667 26 44c0 28 -13.667 42 -41 42c-17.333 0 -33.5 -7.33301 -48.5 -22s-24.167 -30.667 -27.5 -48l-3 26
c2.66699 24 12.5 43.667 29.5 59s37.5 23 61.5 23c19.333 0 35.833 -5.66699 49.5 -17s20.5 -26.666 20.5 -45.999c0 -18.667 -10 -38.334 -30 -59.001l-53 -46c-16 -19.333 -25.667 -36.333 -29 -51c0 5.33301 -1.33301 12.666 -4 21.999s-4 16.333 -4 21
c0 8 3.66699 15.333 11 22z" />
    <glyph glyph-name="glyph301" unicode="&#x1eb4;" horiz-adv-x="667" 
d="M85 0h-70l436 720h77l123 -720h-70l-35 226h-328zM475 662l-222 -378h282zM388 873h35.001c-0.666992 -48 25.666 -72 78.999 -72c52 0 89 24 111 72h34c-25.333 -75.333 -78.333 -113 -159 -113c-68 0 -102 30.667 -102 92c0 6.66699 0.666992 13.667 2 21zM534.001 898
h-32.999c14 18 33.333 35.667 58 53c33.333 23.333 63.333 35 90 35c11.333 0 27.5 -6.83301 48.5 -20.5s36.833 -20.5 47.5 -20.5c20 0 44.333 15 73 45h35c-10 -12 -21.333 -23.333 -34 -34c-42 -35.333 -77.667 -53.333 -107 -54c-16 0 -34.167 6.66699 -54.5 20
s-35.833 20 -46.5 20c-20.667 0 -46.334 -14.667 -77.001 -44z" />
    <glyph glyph-name="glyph302" unicode="&#x1eb5;" 
d="M452 191l17.001 81.002c-37.333 -14 -91 -23.667 -161 -29c-46.667 -3.33301 -85 -14 -115 -32c-38 -23.333 -57 -56 -57 -98c0 -24.667 10 -43.334 30 -56.001c17.333 -11.333 39 -17 65 -17c53.333 0 99.666 12 138.999 36c44.667 27.333 72 65.666 82 114.999z
M289.001 291.002l84.998 11.002c41.333 5.33301 66.333 10 75 14c20.667 8.66699 34.334 27.667 41.001 57c2 9.33301 3 18.666 3 27.999c0 51.333 -36.333 77 -109 77c-91.333 0 -150 -39 -176 -117h-61c16.667 57.333 47.667 100.666 93 129.999
c42.667 27.333 94.667 41 156 41c106 0 159 -39 159 -117c0 -13.333 -1.66699 -28 -5 -44l-60 -282c-2 -9.33301 -3 -18 -3 -26c0 -14.667 6.66699 -22 20 -22c8 0 20.333 2.66699 37 8l-10 -47c-20 -6.66699 -36.333 -10 -49 -10c-40.667 0 -61 16.333 -61 49
c0 8 1 18.333 3 31c-63.333 -57.333 -133.666 -86 -210.999 -86c-40 0 -73 9 -99 27c-30.667 20.667 -46 50 -46 88c0 10 1.33301 21.333 4 34c18.667 88 90 140 214 156zM300.999 702.004h34c-0.666992 -46 24.333 -69 75 -69c48.667 0 83.667 23 105 69h32
c-22.667 -72 -73 -108 -151 -108c-64 0 -96 29.667 -96 89c0 6 0.333008 12.333 1 19zM439.999 725.004h-30.999c14 18 32.333 35 55 51c31.333 22 59.666 33 84.999 33c10.667 0 26 -6.5 46 -19.5s35.333 -19.5 46 -19.5c18.667 0 41.667 14.333 69 43h33
c-8 -10.667 -18.667 -21.667 -32 -33c-39.333 -33.333 -73.333 -50.333 -102 -51c-14.667 0 -31.834 6.33301 -51.501 19s-34.5 19 -44.5 19c-19.333 0 -43.666 -14 -72.999 -42z" />
    <glyph glyph-name="glyph303" unicode="&#x1eb6;" horiz-adv-x="667" 
d="M85 0h-70l436 720h77l123 -720h-70l-35 226h-328zM475 662l-222 -378h282zM388 873h35.001c-0.666992 -48 25.666 -72 78.999 -72c52 0 89 24 111 72h34c-25.333 -75.333 -78.333 -113 -159 -113c-68 0 -102 30.667 -102 92c0 6.66699 0.666992 13.667 2 21z
M354.001 -112h-65l17 80l24 2l41 -2z" />
    <glyph glyph-name="glyph304" unicode="&#x1eb7;" 
d="M452 191l17.001 81.002c-37.333 -14 -91 -23.667 -161 -29c-46.667 -3.33301 -85 -14 -115 -32c-38 -23.333 -57 -56 -57 -98c0 -24.667 10 -43.334 30 -56.001c17.333 -11.333 39 -17 65 -17c53.333 0 99.666 12 138.999 36c44.667 27.333 72 65.666 82 114.999z
M289.001 291.002l84.998 11.002c41.333 5.33301 66.333 10 75 14c20.667 8.66699 34.334 27.667 41.001 57c2 9.33301 3 18.666 3 27.999c0 51.333 -36.333 77 -109 77c-91.333 0 -150 -39 -176 -117h-61c16.667 57.333 47.667 100.666 93 129.999
c42.667 27.333 94.667 41 156 41c106 0 159 -39 159 -117c0 -13.333 -1.66699 -28 -5 -44l-60 -282c-2 -9.33301 -3 -18 -3 -26c0 -14.667 6.66699 -22 20 -22c8 0 20.333 2.66699 37 8l-10 -47c-20 -6.66699 -36.333 -10 -49 -10c-40.667 0 -61 16.333 -61 49
c0 8 1 18.333 3 31c-63.333 -57.333 -133.666 -86 -210.999 -86c-40 0 -73 9 -99 27c-30.667 20.667 -46 50 -46 88c0 10 1.33301 21.333 4 34c18.667 88 90 140 214 156zM280.999 -131.996h-65l17 80l24 2l41 -2zM300.999 701.004h33.999
c-0.666992 -45.333 24.333 -68 75 -68c48.667 0 83.667 22.667 105 68h32c-23.333 -71.333 -73.666 -107 -150.999 -107c-64 0 -96 29.333 -96 88c0 6 0.333008 12.333 1 19z" />
    <glyph glyph-name="glyph305" unicode="&#x1eb8;" horiz-adv-x="611" 
d="M570 0h-489l153 720h479l-12 -58h-411l-56 -260h371l-12 -58h-371l-61 -286h421zM349 -132h-65l17 80l24 2l41 -2z" />
    <glyph glyph-name="glyph306" unicode="&#x1eb9;" 
d="M172 295h338c4 18 6 35 6 51c0 42 -11.333 74.5 -34 97.5s-55 34.5 -97 34.5c-50.667 0 -95.667 -18.667 -135 -56c-34 -32 -60 -74.333 -78 -127zM563 245l-402.001 0.000976562c-4.66699 -21.333 -7 -41.333 -7 -60c0 -44.667 11.833 -80 35.5 -106
s57.834 -39 102.501 -39c40 0 76.167 10.667 108.5 32s56.833 50.333 73.5 87h67c-60 -115.333 -147 -173 -261 -173c-126.667 0 -190 62 -190 186c0 25.333 3.33301 53.666 10 84.999c16 76 49.667 139.667 101 191c56 56 121 84 195 84
c58.667 0 103.167 -16.333 133.5 -49s45.5 -78.667 45.5 -138c0 -30.667 -4 -64 -12 -100zM303.999 -141.999h-65l17 80l24 2l41 -2z" />
    <glyph glyph-name="glyph307" unicode="&#x1eba;" horiz-adv-x="611" 
d="M570 0h-489l153 720h479l-12 -58h-411l-56 -260h371l-12 -58h-371l-61 -286h421zM467 835l42 30.001c17.333 12 26 26.667 26 44c0 28 -13.667 42 -41 42c-17.333 0 -33.5 -7.33301 -48.5 -22s-24.167 -30.667 -27.5 -48l-3 26c2.66699 24 12.5 43.667 29.5 59
s37.5 23 61.5 23c19.333 0 35.833 -5.66699 49.5 -17s20.5 -26.666 20.5 -45.999c0 -18.667 -10 -38.334 -30 -59.001l-53 -46c-16 -19.333 -25.667 -36.333 -29 -51c0 5.33301 -1.33301 12.666 -4 21.999s-4 16.333 -4 21c0 8 3.66699 15.333 11 22z" />
    <glyph glyph-name="glyph308" unicode="&#x1ebb;" 
d="M172 295h338c4 18 6 35 6 51c0 42 -11.333 74.5 -34 97.5s-55 34.5 -97 34.5c-50.667 0 -95.667 -18.667 -135 -56c-34 -32 -60 -74.333 -78 -127zM563 245l-402.001 0.000976562c-4.66699 -21.333 -7 -41.333 -7 -60c0 -44.667 11.833 -80 35.5 -106
s57.834 -39 102.501 -39c40 0 76.167 10.667 108.5 32s56.833 50.333 73.5 87h67c-60 -115.333 -147 -173 -261 -173c-126.667 0 -190 62 -190 186c0 25.333 3.33301 53.666 10 84.999c16 76 49.667 139.667 101 191c56 56 121 84 195 84
c58.667 0 103.167 -16.333 133.5 -49s45.5 -78.667 45.5 -138c0 -30.667 -4 -64 -12 -100zM398.999 674.001l42 30.001c17.333 12 26 26.667 26 44c0 28 -13.667 42 -41 42c-17.333 0 -33.5 -7.33301 -48.5 -22s-24.167 -30.667 -27.5 -48l-3 26
c2.66699 24 12.5 43.667 29.5 59s37.5 23 61.5 23c19.333 0 35.833 -5.66699 49.5 -17s20.5 -26.666 20.5 -45.999c0 -18.667 -10 -38.334 -30 -59.001l-53 -46c-16 -19.333 -25.667 -36.333 -29 -51c0 5.33301 -1.33301 12.666 -4 21.999s-4 16.333 -4 21
c0 8 3.66699 15.333 11 22z" />
    <glyph glyph-name="glyph309" unicode="&#x1ebc;" horiz-adv-x="611" 
d="M570 0h-489l153 720h479l-12 -58h-411l-56 -260h371l-12 -58h-371l-61 -286h421zM354 780h-32.999c14 18 33.333 35.667 58 53c33.333 23.333 63.333 35 90 35c11.333 0 27.5 -6.83301 48.5 -20.5s36.833 -20.5 47.5 -20.5c20 0 44.333 15 73 45h35
c-10 -12 -21.333 -23.333 -34 -34c-42 -35.333 -77.667 -53.333 -107 -54c-16 0 -34.167 6.66699 -54.5 20s-35.833 20 -46.5 20c-20.667 0 -46.334 -14.667 -77.001 -44z" />
    <glyph glyph-name="glyph310" unicode="&#x1ebd;" 
d="M172 295h338c4 18 6 35 6 51c0 42 -11.333 74.5 -34 97.5s-55 34.5 -97 34.5c-50.667 0 -95.667 -18.667 -135 -56c-34 -32 -60 -74.333 -78 -127zM563 245l-402.001 0.000976562c-4.66699 -21.333 -7 -41.333 -7 -60c0 -44.667 11.833 -80 35.5 -106
s57.834 -39 102.501 -39c40 0 76.167 10.667 108.5 32s56.833 50.333 73.5 87h67c-60 -115.333 -147 -173 -261 -173c-126.667 0 -190 62 -190 186c0 25.333 3.33301 53.666 10 84.999c16 76 49.667 139.667 101 191c56 56 121 84 195 84
c58.667 0 103.167 -16.333 133.5 -49s45.5 -78.667 45.5 -138c0 -30.667 -4 -64 -12 -100zM297.999 618.001h-30.999c12.667 16.667 31 33.334 55 50.001c32 22 60.667 33 86 33c10 0 25 -6.33301 45 -19s35.333 -19 46 -19c18 0 41 14 69 42h33
c-8.66699 -10.667 -19.334 -21.334 -32.001 -32.001c-40 -33.333 -74 -50.333 -102 -51c-14.667 0 -31.834 6.33301 -51.501 19s-34.5 19 -44.5 19c-19.333 0 -43.666 -14 -72.999 -42z" />
    <glyph glyph-name="glyph311" unicode="&#x1ebe;" horiz-adv-x="611" 
d="M570 0h-489l153 720h479l-12 -58h-411l-56 -260h371l-12 -58h-371l-61 -286h421zM489 852l-94 -92h-58l129 125h61l74 -125h-58zM632 852h-31l126 139h87z" />
    <glyph glyph-name="glyph312" unicode="&#x1ebf;" 
d="M172 295h338c4 18 6 35 6 51c0 42 -11.333 74.5 -34 97.5s-55 34.5 -97 34.5c-50.667 0 -95.667 -18.667 -135 -56c-34 -32 -60 -74.333 -78 -127zM563 245l-402.001 0.000976562c-4.66699 -21.333 -7 -41.333 -7 -60c0 -44.667 11.833 -80 35.5 -106
s57.834 -39 102.501 -39c40 0 76.167 10.667 108.5 32s56.833 50.333 73.5 87h67c-60 -115.333 -147 -173 -261 -173c-126.667 0 -190 62 -190 186c0 25.333 3.33301 53.666 10 84.999c16 76 49.667 139.667 101 191c56 56 121 84 195 84
c58.667 0 103.167 -16.333 133.5 -49s45.5 -78.667 45.5 -138c0 -30.667 -4 -64 -12 -100zM413.999 657.001l-90 -87h-55l123 118h58l70 -118h-55zM548.999 657.001h-29l120 132h82z" />
    <glyph glyph-name="glyph313" unicode="&#x1ec0;" horiz-adv-x="611" 
d="M570 0h-489l153 720h479l-12 -58h-411l-56 -260h371l-12 -58h-371l-61 -286h421zM489 852l-94 -92h-58l129 125h61l74 -125h-58zM371 852h-31l-182 139h87z" />
    <glyph glyph-name="glyph314" unicode="&#x1ec1;" 
d="M172 295h338c4 18 6 35 6 51c0 42 -11.333 74.5 -34 97.5s-55 34.5 -97 34.5c-50.667 0 -95.667 -18.667 -135 -56c-34 -32 -60 -74.333 -78 -127zM563 245l-402.001 0.000976562c-4.66699 -21.333 -7 -41.333 -7 -60c0 -44.667 11.833 -80 35.5 -106
s57.834 -39 102.501 -39c40 0 76.167 10.667 108.5 32s56.833 50.333 73.5 87h67c-60 -115.333 -147 -173 -261 -173c-126.667 0 -190 62 -190 186c0 25.333 3.33301 53.666 10 84.999c16 76 49.667 139.667 101 191c56 56 121 84 195 84
c58.667 0 103.167 -16.333 133.5 -49s45.5 -78.667 45.5 -138c0 -30.667 -4 -64 -12 -100zM413.999 657.001l-90 -87h-55l123 118h58l70 -118h-55zM301.999 657.001h-30l-173 132h83z" />
    <glyph glyph-name="glyph315" unicode="&#x1ec2;" horiz-adv-x="611" 
d="M570 0h-489l153 720h479l-12 -58h-411l-56 -260h371l-12 -58h-371l-61 -286h421zM489 852l-94 -92h-58l129 125h61l74 -125h-58zM614 907l42 30.001c17.333 12 26 26.667 26 44c0 28 -13.667 42 -41 42c-17.333 0 -33.5 -7.33301 -48.5 -22s-24.167 -30.667 -27.5 -48
l-3 26c2.66699 24 12.5 43.667 29.5 59s37.5 23 61.5 23c19.333 0 35.833 -5.66699 49.5 -17s20.5 -26.666 20.5 -45.999c0 -18.667 -10 -38.334 -30 -59.001l-53 -46c-16 -19.333 -25.667 -36.333 -29 -51c0 5.33301 -1.33301 12.666 -4 21.999s-4 16.333 -4 21
c0 8 3.66699 15.333 11 22z" />
    <glyph glyph-name="glyph316" unicode="&#x1ec3;" 
d="M172 295h338c4 18 6 35 6 51c0 42 -11.333 74.5 -34 97.5s-55 34.5 -97 34.5c-50.667 0 -95.667 -18.667 -135 -56c-34 -32 -60 -74.333 -78 -127zM563 245l-402.001 0.000976562c-4.66699 -21.333 -7 -41.333 -7 -60c0 -44.667 11.833 -80 35.5 -106
s57.834 -39 102.501 -39c40 0 76.167 10.667 108.5 32s56.833 50.333 73.5 87h67c-60 -115.333 -147 -173 -261 -173c-126.667 0 -190 62 -190 186c0 25.333 3.33301 53.666 10 84.999c16 76 49.667 139.667 101 191c56 56 121 84 195 84
c58.667 0 103.167 -16.333 133.5 -49s45.5 -78.667 45.5 -138c0 -30.667 -4 -64 -12 -100zM413.999 658.001l-89 -88h-55l123 119h58l70 -119h-55zM539.999 715.001l42 30.001c17.333 12 26 26.667 26 44c0 28 -13.667 42 -41 42c-17.333 0 -33.5 -7.33301 -48.5 -22
s-24.167 -30.667 -27.5 -48l-3 26c2.66699 24 12.5 43.667 29.5 59s37.5 23 61.5 23c19.333 0 35.833 -5.66699 49.5 -17s20.5 -26.666 20.5 -45.999c0 -18.667 -10 -38.334 -30 -59.001l-53 -46c-16 -19.333 -25.667 -36.333 -29 -51c0 5.33301 -1.33301 12.666 -4 21.999
s-4 16.333 -4 21c0 8 3.66699 15.333 11 22z" />
    <glyph glyph-name="glyph317" unicode="&#x1ec4;" horiz-adv-x="611" 
d="M570 0h-489l153 720h479l-12 -58h-411l-56 -260h371l-12 -58h-371l-61 -286h421zM489 852l-94 -92h-58l129 125h61l74 -125h-58zM339 921h-32.999c14 18 33.333 35.667 58 53c33.333 23.333 63.333 35 90 35c11.333 0 27.5 -6.83301 48.5 -20.5s36.833 -20.5 47.5 -20.5
c20 0 44.333 15 73 45h35c-10 -12 -21.333 -23.333 -34 -34c-42 -35.333 -77.667 -53.333 -107 -54c-16 0 -34.167 6.66699 -54.5 20s-35.833 20 -46.5 20c-20.667 0 -46.334 -14.667 -77.001 -44z" />
    <glyph glyph-name="glyph318" unicode="&#x1ec5;" 
d="M172 295h338c4 18 6 35 6 51c0 42 -11.333 74.5 -34 97.5s-55 34.5 -97 34.5c-50.667 0 -95.667 -18.667 -135 -56c-34 -32 -60 -74.333 -78 -127zM563 245l-402.001 0.000976562c-4.66699 -21.333 -7 -41.333 -7 -60c0 -44.667 11.833 -80 35.5 -106
s57.834 -39 102.501 -39c40 0 76.167 10.667 108.5 32s56.833 50.333 73.5 87h67c-60 -115.333 -147 -173 -261 -173c-126.667 0 -190 62 -190 186c0 25.333 3.33301 53.666 10 84.999c16 76 49.667 139.667 101 191c56 56 121 84 195 84
c58.667 0 103.167 -16.333 133.5 -49s45.5 -78.667 45.5 -138c0 -30.667 -4 -64 -12 -100zM413.999 658.001l-90 -88h-55l123 119h58l70 -119h-55zM270.999 723.001h-30.999c12.667 16.667 31 33.334 55 50.001c32 22 60.667 33 86 33c10 0 25 -6.33301 45 -19
s35.333 -19 46 -19c18 0 41 14 69 42h33c-8.66699 -10.667 -19.334 -21.334 -32.001 -32.001c-40 -33.333 -74 -50.333 -102 -51c-14.667 0 -31.834 6.33301 -51.501 19s-34.5 19 -44.5 19c-19.333 0 -43.666 -14 -72.999 -42z" />
    <glyph glyph-name="glyph319" unicode="&#x1ec6;" horiz-adv-x="611" 
d="M570 0h-489l153 720h479l-12 -58h-411l-56 -260h371l-12 -58h-371l-61 -286h421zM489 852l-94 -92h-58l129 125h61l74 -125h-58zM349 -132h-65l17 80l24 2l41 -2z" />
    <glyph glyph-name="glyph320" unicode="&#x1ec7;" 
d="M172 295h338c4 18 6 35 6 51c0 42 -11.333 74.5 -34 97.5s-55 34.5 -97 34.5c-50.667 0 -95.667 -18.667 -135 -56c-34 -32 -60 -74.333 -78 -127zM563 245l-402.001 0.000976562c-4.66699 -21.333 -7 -41.333 -7 -60c0 -44.667 11.833 -80 35.5 -106
s57.834 -39 102.501 -39c40 0 76.167 10.667 108.5 32s56.833 50.333 73.5 87h67c-60 -115.333 -147 -173 -261 -173c-126.667 0 -190 62 -190 186c0 25.333 3.33301 53.666 10 84.999c16 76 49.667 139.667 101 191c56 56 121 84 195 84
c58.667 0 103.167 -16.333 133.5 -49s45.5 -78.667 45.5 -138c0 -30.667 -4 -64 -12 -100zM413.999 657.001l-90 -87h-55l123 118h58l70 -118h-55zM303.999 -141.999h-65l17 80l24 2l41 -2z" />
    <glyph glyph-name="glyph321" unicode="&#x1ec8;" horiz-adv-x="278" 
d="M173 0h-68l153 720h68zM295 836l42 30.001c17.333 12 26 26.667 26 44c0 28 -13.667 42 -41 42c-17.333 0 -33.5 -7.33301 -48.5 -22s-24.167 -30.667 -27.5 -48l-3 26c2.66699 24 12.5 43.667 29.5 59s37.5 23 61.5 23c19.333 0 35.833 -5.66699 49.5 -17
s20.5 -26.666 20.5 -45.999c0 -18.667 -10 -38.334 -30 -59.001l-53 -46c-16 -19.333 -25.667 -36.333 -29 -51c0 5.33301 -1.33301 12.666 -4 21.999s-4 16.333 -4 21c0 8 3.66699 15.333 11 22z" />
    <glyph glyph-name="glyph322" unicode="&#x1ec9;" horiz-adv-x="222" 
d="M141 0h-60l110 518h60zM224 649l42 30.001c17.333 12 26 26.667 26 44c0 28 -13.667 42 -41 42c-17.333 0 -33.5 -7.33301 -48.5 -22s-24.167 -30.667 -27.5 -48l-3 26c2.66699 24 12.5 43.667 29.5 59s37.5 23 61.5 23c19.333 0 35.833 -5.66699 49.5 -17
s20.5 -26.666 20.5 -45.999c0 -18.667 -10 -38.334 -30 -59.001l-53 -46c-16 -19.333 -25.667 -36.333 -29 -51c0 5.33301 -1.33301 12.666 -4 21.999s-4 16.333 -4 21c0 8 3.66699 15.333 11 22z" />
    <glyph glyph-name="glyph323" unicode="&#x1eca;" horiz-adv-x="278" 
d="M173 0h-68l153 720h68zM145 -132h-65l17 80l24 2l41 -2z" />
    <glyph glyph-name="glyph324" unicode="&#x1ecb;" horiz-adv-x="222" 
d="M141 0h-60l110 518h60zM118 -131h-65l17 80l24 2l41 -2zM269 594h-65l17 80l24 2l41 -2z" />
    <glyph glyph-name="glyph325" unicode="&#x1ecc;" horiz-adv-x="778" 
d="M129 359c23.333 108.667 69.667 197.666 139 266.999c76 75.333 167.333 113 274 113c85.333 0 151.666 -23.833 198.999 -71.5s71 -114.167 71 -199.5c0 -35.333 -4 -71.666 -12 -108.999c-23.333 -109.333 -70 -198.333 -140 -267c-76 -74 -168 -111 -276 -111
c-85.333 0 -151.166 23.833 -197.499 71.5s-69.5 114.167 -69.5 199.5c0 34 4 69.667 12 107zM397.001 38.999c88 0 162.667 32.335 224 97.002c54.667 57.333 91.667 131.666 111 222.999c8 37.333 12 71.333 12 102c0 68.667 -18.333 122.5 -55 161.5s-89 58.5 -157 58.5
c-87.333 0 -162 -32.667 -224 -98c-54.667 -58.667 -91.667 -133.334 -111 -224.001c-7.33301 -34.667 -11 -67.667 -11 -99c0 -70 17.833 -124.333 53.5 -163s88.167 -58 157.5 -58zM406.001 -151.999h-65l17 80l24 2l41 -2z" />
    <glyph glyph-name="glyph326" unicode="&#x1ecd;" 
d="M275 -14c-60 0.666992 -106.832 17.998 -140.499 51.998s-50.5 81 -50.5 141c0 24.667 3 51.334 9 80.001c16.667 78.667 50 142.667 100 192c54.667 54 120.667 81 198 81c61.333 0 108.5 -16.667 141.5 -50s49.5 -80.666 49.5 -141.999c0 -25.333 -3 -52.333 -9 -81
c-16.667 -78 -50.334 -142 -101.001 -192c-55.333 -54.667 -121 -81.667 -197 -81zM518.001 334.998c0 95.333 -46.001 143.002 -138.001 143.002c-59.333 0 -109.333 -22.333 -150 -67c-35.333 -38.667 -59.666 -89.334 -72.999 -152.001
c-5.33301 -24.667 -8 -48.334 -8 -71.001c0 -98.667 46 -148 138 -148c70 0 127.333 32.667 172 98c39.333 58 59 123.667 59 197zM299 -142h-65l17 80l24 2l41 -2z" />
    <glyph glyph-name="glyph327" unicode="&#x1ece;" horiz-adv-x="778" 
d="M129 359c23.333 108.667 69.667 197.666 139 266.999c76 75.333 167.333 113 274 113c85.333 0 151.666 -23.833 198.999 -71.5s71 -114.167 71 -199.5c0 -35.333 -4 -71.666 -12 -108.999c-23.333 -109.333 -70 -198.333 -140 -267c-76 -74 -168 -111 -276 -111
c-85.333 0 -151.166 23.833 -197.499 71.5s-69.5 114.167 -69.5 199.5c0 34 4 69.667 12 107zM397.001 38.999c88 0 162.667 32.335 224 97.002c54.667 57.333 91.667 131.666 111 222.999c8 37.333 12 71.333 12 102c0 68.667 -18.333 122.5 -55 161.5s-89 58.5 -157 58.5
c-87.333 0 -162 -32.667 -224 -98c-54.667 -58.667 -91.667 -133.334 -111 -224.001c-7.33301 -34.667 -11 -67.667 -11 -99c0 -70 17.833 -124.333 53.5 -163s88.167 -58 157.5 -58zM545.001 856.001l42 30.001c17.333 12 26 26.667 26 44c0 28 -13.667 42 -41 42
c-17.333 0 -33.5 -7.33301 -48.5 -22s-24.167 -30.667 -27.5 -48l-3 26c2.66699 24 12.5 43.667 29.5 59s37.5 23 61.5 23c19.333 0 35.833 -5.66699 49.5 -17s20.5 -26.666 20.5 -45.999c0 -18.667 -10 -38.334 -30 -59.001l-53 -46c-16 -19.333 -25.667 -36.333 -29 -51
c0 5.33301 -1.33301 12.666 -4 21.999s-4 16.333 -4 21c0 8 3.66699 15.333 11 22z" />
    <glyph glyph-name="glyph328" unicode="&#x1ecf;" 
d="M275 -14c-60 0.666992 -106.832 17.998 -140.499 51.998s-50.5 81 -50.5 141c0 24.667 3 51.334 9 80.001c16.667 78.667 50 142.667 100 192c54.667 54 120.667 81 198 81c61.333 0 108.5 -16.667 141.5 -50s49.5 -80.666 49.5 -141.999c0 -25.333 -3 -52.333 -9 -81
c-16.667 -78 -50.334 -142 -101.001 -192c-55.333 -54.667 -121 -81.667 -197 -81zM518.001 334.998c0 95.333 -46.001 143.002 -138.001 143.002c-59.333 0 -109.333 -22.333 -150 -67c-35.333 -38.667 -59.666 -89.334 -72.999 -152.001
c-5.33301 -24.667 -8 -48.334 -8 -71.001c0 -98.667 46 -148 138 -148c70 0 127.333 32.667 172 98c39.333 58 59 123.667 59 197zM399 674l42 30.001c17.333 12 26 26.667 26 44c0 28 -13.667 42 -41 42c-17.333 0 -33.5 -7.33301 -48.5 -22s-24.167 -30.667 -27.5 -48
l-3 26c2.66699 24 12.5 43.667 29.5 59s37.5 23 61.5 23c19.333 0 35.833 -5.66699 49.5 -17s20.5 -26.666 20.5 -45.999c0 -18.667 -10 -38.334 -30 -59.001l-53 -46c-16 -19.333 -25.667 -36.333 -29 -51c0 5.33301 -1.33301 12.666 -4 21.999s-4 16.333 -4 21
c0 8 3.66699 15.333 11 22z" />
    <glyph glyph-name="glyph329" unicode="&#x1ed0;" horiz-adv-x="778" 
d="M129 359c23.333 108.667 69.667 197.666 139 266.999c76 75.333 167.333 113 274 113c85.333 0 151.666 -23.833 198.999 -71.5s71 -114.167 71 -199.5c0 -35.333 -4 -71.666 -12 -108.999c-23.333 -109.333 -70 -198.333 -140 -267c-76 -74 -168 -111 -276 -111
c-85.333 0 -151.166 23.833 -197.499 71.5s-69.5 114.167 -69.5 199.5c0 34 4 69.667 12 107zM397.001 38.999c88 0 162.667 32.335 224 97.002c54.667 57.333 91.667 131.666 111 222.999c8 37.333 12 71.333 12 102c0 68.667 -18.333 122.5 -55 161.5s-89 58.5 -157 58.5
c-87.333 0 -162 -32.667 -224 -98c-54.667 -58.667 -91.667 -133.334 -111 -224.001c-7.33301 -34.667 -11 -67.667 -11 -99c0 -70 17.833 -124.333 53.5 -163s88.167 -58 157.5 -58zM562.001 852.001l-94 -92h-58l129 125h61l74 -125h-58zM705.001 852.001h-31l126 139h87z
" />
    <glyph glyph-name="glyph330" unicode="&#x1ed1;" 
d="M275 -14c-60 0.666992 -106.832 17.998 -140.499 51.998s-50.5 81 -50.5 141c0 24.667 3 51.334 9 80.001c16.667 78.667 50 142.667 100 192c54.667 54 120.667 81 198 81c61.333 0 108.5 -16.667 141.5 -50s49.5 -80.666 49.5 -141.999c0 -25.333 -3 -52.333 -9 -81
c-16.667 -78 -50.334 -142 -101.001 -192c-55.333 -54.667 -121 -81.667 -197 -81zM518.001 334.998c0 95.333 -46.001 143.002 -138.001 143.002c-59.333 0 -109.333 -22.333 -150 -67c-35.333 -38.667 -59.666 -89.334 -72.999 -152.001
c-5.33301 -24.667 -8 -48.334 -8 -71.001c0 -98.667 46 -148 138 -148c70 0 127.333 32.667 172 98c39.333 58 59 123.667 59 197zM414 657l-90 -87h-55l123 118h58l70 -118h-55zM549 657h-29l120 132h82z" />
    <glyph glyph-name="glyph331" unicode="&#x1ed2;" horiz-adv-x="778" 
d="M129 359c23.333 108.667 69.667 197.666 139 266.999c76 75.333 167.333 113 274 113c85.333 0 151.666 -23.833 198.999 -71.5s71 -114.167 71 -199.5c0 -35.333 -4 -71.666 -12 -108.999c-23.333 -109.333 -70 -198.333 -140 -267c-76 -74 -168 -111 -276 -111
c-85.333 0 -151.166 23.833 -197.499 71.5s-69.5 114.167 -69.5 199.5c0 34 4 69.667 12 107zM397.001 38.999c88 0 162.667 32.335 224 97.002c54.667 57.333 91.667 131.666 111 222.999c8 37.333 12 71.333 12 102c0 68.667 -18.333 122.5 -55 161.5s-89 58.5 -157 58.5
c-87.333 0 -162 -32.667 -224 -98c-54.667 -58.667 -91.667 -133.334 -111 -224.001c-7.33301 -34.667 -11 -67.667 -11 -99c0 -70 17.833 -124.333 53.5 -163s88.167 -58 157.5 -58zM562.001 852.001l-94 -92h-58l129 125h61l74 -125h-58zM444.001 852.001h-31l-182 139h87
z" />
    <glyph glyph-name="glyph332" unicode="&#x1ed3;" 
d="M275 -14c-60 0.666992 -106.832 17.998 -140.499 51.998s-50.5 81 -50.5 141c0 24.667 3 51.334 9 80.001c16.667 78.667 50 142.667 100 192c54.667 54 120.667 81 198 81c61.333 0 108.5 -16.667 141.5 -50s49.5 -80.666 49.5 -141.999c0 -25.333 -3 -52.333 -9 -81
c-16.667 -78 -50.334 -142 -101.001 -192c-55.333 -54.667 -121 -81.667 -197 -81zM518.001 334.998c0 95.333 -46.001 143.002 -138.001 143.002c-59.333 0 -109.333 -22.333 -150 -67c-35.333 -38.667 -59.666 -89.334 -72.999 -152.001
c-5.33301 -24.667 -8 -48.334 -8 -71.001c0 -98.667 46 -148 138 -148c70 0 127.333 32.667 172 98c39.333 58 59 123.667 59 197zM414 657l-90 -87h-55l123 118h58l70 -118h-55zM302 657h-30l-173 132h83z" />
    <glyph glyph-name="glyph333" unicode="&#x1ed4;" horiz-adv-x="778" 
d="M129 359c23.333 108.667 69.667 197.666 139 266.999c76 75.333 167.333 113 274 113c85.333 0 151.666 -23.833 198.999 -71.5s71 -114.167 71 -199.5c0 -35.333 -4 -71.666 -12 -108.999c-23.333 -109.333 -70 -198.333 -140 -267c-76 -74 -168 -111 -276 -111
c-85.333 0 -151.166 23.833 -197.499 71.5s-69.5 114.167 -69.5 199.5c0 34 4 69.667 12 107zM397.001 38.999c88 0 162.667 32.335 224 97.002c54.667 57.333 91.667 131.666 111 222.999c8 37.333 12 71.333 12 102c0 68.667 -18.333 122.5 -55 161.5s-89 58.5 -157 58.5
c-87.333 0 -162 -32.667 -224 -98c-54.667 -58.667 -91.667 -133.334 -111 -224.001c-7.33301 -34.667 -11 -67.667 -11 -99c0 -70 17.833 -124.333 53.5 -163s88.167 -58 157.5 -58zM562.001 852.001l-94 -92h-58l129 125h61l74 -125h-58zM687.001 907.001l42 30.001
c17.333 12 26 26.667 26 44c0 28 -13.667 42 -41 42c-17.333 0 -33.5 -7.33301 -48.5 -22s-24.167 -30.667 -27.5 -48l-3 26c2.66699 24 12.5 43.667 29.5 59s37.5 23 61.5 23c19.333 0 35.833 -5.66699 49.5 -17s20.5 -26.666 20.5 -45.999
c0 -18.667 -10 -38.334 -30 -59.001l-53 -46c-16 -19.333 -25.667 -36.333 -29 -51c0 5.33301 -1.33301 12.666 -4 21.999s-4 16.333 -4 21c0 8 3.66699 15.333 11 22z" />
    <glyph glyph-name="glyph334" unicode="&#x1ed5;" 
d="M275 -14c-60 0.666992 -106.832 17.998 -140.499 51.998s-50.5 81 -50.5 141c0 24.667 3 51.334 9 80.001c16.667 78.667 50 142.667 100 192c54.667 54 120.667 81 198 81c61.333 0 108.5 -16.667 141.5 -50s49.5 -80.666 49.5 -141.999c0 -25.333 -3 -52.333 -9 -81
c-16.667 -78 -50.334 -142 -101.001 -192c-55.333 -54.667 -121 -81.667 -197 -81zM518.001 334.998c0 95.333 -46.001 143.002 -138.001 143.002c-59.333 0 -109.333 -22.333 -150 -67c-35.333 -38.667 -59.666 -89.334 -72.999 -152.001
c-5.33301 -24.667 -8 -48.334 -8 -71.001c0 -98.667 46 -148 138 -148c70 0 127.333 32.667 172 98c39.333 58 59 123.667 59 197zM414 658l-89 -88h-55l123 119h58l70 -119h-55zM540 715l42 30.001c17.333 12 26 26.667 26 44c0 28 -13.667 42 -41 42
c-17.333 0 -33.5 -7.33301 -48.5 -22s-24.167 -30.667 -27.5 -48l-3 26c2.66699 24 12.5 43.667 29.5 59s37.5 23 61.5 23c19.333 0 35.833 -5.66699 49.5 -17s20.5 -26.666 20.5 -45.999c0 -18.667 -10 -38.334 -30 -59.001l-53 -46c-16 -19.333 -25.667 -36.333 -29 -51
c0 5.33301 -1.33301 12.666 -4 21.999s-4 16.333 -4 21c0 8 3.66699 15.333 11 22z" />
    <glyph glyph-name="glyph335" unicode="&#x1ed6;" horiz-adv-x="778" 
d="M129 359c23.333 108.667 69.667 197.666 139 266.999c76 75.333 167.333 113 274 113c85.333 0 151.666 -23.833 198.999 -71.5s71 -114.167 71 -199.5c0 -35.333 -4 -71.666 -12 -108.999c-23.333 -109.333 -70 -198.333 -140 -267c-76 -74 -168 -111 -276 -111
c-85.333 0 -151.166 23.833 -197.499 71.5s-69.5 114.167 -69.5 199.5c0 34 4 69.667 12 107zM397.001 38.999c88 0 162.667 32.335 224 97.002c54.667 57.333 91.667 131.666 111 222.999c8 37.333 12 71.333 12 102c0 68.667 -18.333 122.5 -55 161.5s-89 58.5 -157 58.5
c-87.333 0 -162 -32.667 -224 -98c-54.667 -58.667 -91.667 -133.334 -111 -224.001c-7.33301 -34.667 -11 -67.667 -11 -99c0 -70 17.833 -124.333 53.5 -163s88.167 -58 157.5 -58zM562.001 852.001l-94 -92h-58l129 125h61l74 -125h-58zM412.001 921.001h-32.999
c14 18 33.333 35.667 58 53c33.333 23.333 63.333 35 90 35c11.333 0 27.5 -6.83301 48.5 -20.5s36.833 -20.5 47.5 -20.5c20 0 44.333 15 73 45h35c-10 -12 -21.333 -23.333 -34 -34c-42 -35.333 -77.667 -53.333 -107 -54c-16 0 -34.167 6.66699 -54.5 20
s-35.833 20 -46.5 20c-20.667 0 -46.334 -14.667 -77.001 -44z" />
    <glyph glyph-name="glyph336" unicode="&#x1ed7;" 
d="M275 -14c-60 0.666992 -106.832 17.998 -140.499 51.998s-50.5 81 -50.5 141c0 24.667 3 51.334 9 80.001c16.667 78.667 50 142.667 100 192c54.667 54 120.667 81 198 81c61.333 0 108.5 -16.667 141.5 -50s49.5 -80.666 49.5 -141.999c0 -25.333 -3 -52.333 -9 -81
c-16.667 -78 -50.334 -142 -101.001 -192c-55.333 -54.667 -121 -81.667 -197 -81zM518.001 334.998c0 95.333 -46.001 143.002 -138.001 143.002c-59.333 0 -109.333 -22.333 -150 -67c-35.333 -38.667 -59.666 -89.334 -72.999 -152.001
c-5.33301 -24.667 -8 -48.334 -8 -71.001c0 -98.667 46 -148 138 -148c70 0 127.333 32.667 172 98c39.333 58 59 123.667 59 197zM414 658l-90 -88h-55l123 119h58l70 -119h-55zM271 723h-30.999c12.667 16.667 31 33.334 55 50.001c32 22 60.667 33 86 33
c10 0 25 -6.33301 45 -19s35.333 -19 46 -19c18 0 41 14 69 42h33c-8.66699 -10.667 -19.334 -21.334 -32.001 -32.001c-40 -33.333 -74 -50.333 -102 -51c-14.667 0 -31.834 6.33301 -51.501 19s-34.5 19 -44.5 19c-19.333 0 -43.666 -14 -72.999 -42z" />
    <glyph glyph-name="glyph337" unicode="&#x1ed8;" horiz-adv-x="778" 
d="M129 359c23.333 108.667 69.667 197.666 139 266.999c76 75.333 167.333 113 274 113c85.333 0 151.666 -23.833 198.999 -71.5s71 -114.167 71 -199.5c0 -35.333 -4 -71.666 -12 -108.999c-23.333 -109.333 -70 -198.333 -140 -267c-76 -74 -168 -111 -276 -111
c-85.333 0 -151.166 23.833 -197.499 71.5s-69.5 114.167 -69.5 199.5c0 34 4 69.667 12 107zM397.001 38.999c88 0 162.667 32.335 224 97.002c54.667 57.333 91.667 131.666 111 222.999c8 37.333 12 71.333 12 102c0 68.667 -18.333 122.5 -55 161.5s-89 58.5 -157 58.5
c-87.333 0 -162 -32.667 -224 -98c-54.667 -58.667 -91.667 -133.334 -111 -224.001c-7.33301 -34.667 -11 -67.667 -11 -99c0 -70 17.833 -124.333 53.5 -163s88.167 -58 157.5 -58zM562.001 852.001l-94 -92h-58l129 125h61l74 -125h-58zM406.001 -151.999h-65l17 80l24 2
l41 -2z" />
    <glyph glyph-name="glyph338" unicode="&#x1ed9;" 
d="M275 -14c-60 0.666992 -106.832 17.998 -140.499 51.998s-50.5 81 -50.5 141c0 24.667 3 51.334 9 80.001c16.667 78.667 50 142.667 100 192c54.667 54 120.667 81 198 81c61.333 0 108.5 -16.667 141.5 -50s49.5 -80.666 49.5 -141.999c0 -25.333 -3 -52.333 -9 -81
c-16.667 -78 -50.334 -142 -101.001 -192c-55.333 -54.667 -121 -81.667 -197 -81zM518.001 334.998c0 95.333 -46.001 143.002 -138.001 143.002c-59.333 0 -109.333 -22.333 -150 -67c-35.333 -38.667 -59.666 -89.334 -72.999 -152.001
c-5.33301 -24.667 -8 -48.334 -8 -71.001c0 -98.667 46 -148 138 -148c70 0 127.333 32.667 172 98c39.333 58 59 123.667 59 197zM414 657l-90 -87h-55l123 118h58l70 -118h-55zM299 -142h-65l17 80l24 2l41 -2z" />
    <glyph glyph-name="glyph339" unicode="&#x1eda;" horiz-adv-x="778" 
d="M397 39c88 0 162.667 32.335 224 97.002c54.667 57.333 91.667 131.666 111 222.999c8 37.333 12 71.333 12 102c0 68.667 -18.333 122.5 -55 161.5s-89 58.5 -157 58.5c-87.333 0 -162 -32.667 -224 -98c-54.667 -58.667 -91.667 -133.334 -111 -224.001
c-7.33301 -34.667 -11 -67.667 -11 -99c0 -70 17.833 -124.333 53.5 -163s88.167 -58 157.5 -58zM743 666.002c46 -46.667 69.002 -112.334 69.002 -197.001c0 -36 -4 -72.667 -12 -110c-23.333 -109.333 -70 -198.333 -140 -267c-76.667 -74 -168.667 -111 -276 -111
c-85.333 0 -151.166 23.833 -197.499 71.5s-69.5 114.167 -69.5 199.5c0 34 4 69.667 12 107c23.333 108.667 69.666 197.667 138.999 267c76 75.333 167.333 113 274 113c76.667 0 137.667 -19 183 -57c41.333 8 62 24.333 62 49c0 14 -8.33301 24 -25 30
c-6 2 -17.333 2.33301 -34 1c4.66699 6.66699 16.167 11.834 34.5 15.501s32.166 4.16699 41.499 1.5c22.667 -8.66699 34 -22.667 34 -42c0 -9.33301 -3 -19 -9 -29c-14.667 -24 -43.334 -38 -86.001 -42zM557.002 800.002h-31l126 139h87z" />
    <glyph glyph-name="glyph340" unicode="&#x1edb;" 
d="M518 335c0 95.333 -46.001 143.002 -138.001 143.002c-59.333 0 -109.333 -22.333 -150 -67c-35.333 -38.667 -59.666 -89.334 -72.999 -152.001c-5.33301 -24.667 -8 -48.334 -8 -71.001c0 -98.667 46 -148 138 -148c70 0 127.333 32.667 172 98
c39.333 58 59 123.667 59 197zM539.999 473.002l35 31.999c10.667 8 16 17 16 27c0 12.667 -8 21.667 -24 27c4 5.33301 10.833 10 20.5 14s17.167 5 22.5 3c20.667 -6.66699 31 -19.667 31 -39c0 -29.333 -24 -49.333 -72 -60l-27 -6c26.667 -33.333 40 -77.333 40 -132
c0 -25.333 -3 -52 -9 -80c-16.667 -78 -50.334 -142 -101.001 -192c-55.333 -54.667 -121 -81.667 -197 -81c-60 0.666992 -106.833 18 -140.5 52s-50.5 81 -50.5 141c0 24.667 3 51.334 9 80.001c16.667 78.667 50 142.667 100 192c54.667 54 120.667 81 198 81
c66.667 0 116.334 -19.667 149.001 -59zM409.999 618.001h-29l120 132h82z" />
    <glyph glyph-name="glyph341" unicode="&#x1edc;" horiz-adv-x="778" 
d="M397 39c88 0 162.667 32.335 224 97.002c54.667 57.333 91.667 131.666 111 222.999c8 37.333 12 71.333 12 102c0 68.667 -18.333 122.5 -55 161.5s-89 58.5 -157 58.5c-87.333 0 -162 -32.667 -224 -98c-54.667 -58.667 -91.667 -133.334 -111 -224.001
c-7.33301 -34.667 -11 -67.667 -11 -99c0 -70 17.833 -124.333 53.5 -163s88.167 -58 157.5 -58zM743 666.002c46 -46.667 69.002 -112.334 69.002 -197.001c0 -36 -4 -72.667 -12 -110c-23.333 -109.333 -70 -198.333 -140 -267c-76.667 -74 -168.667 -111 -276 -111
c-85.333 0 -151.166 23.833 -197.499 71.5s-69.5 114.167 -69.5 199.5c0 34 4 69.667 12 107c23.333 108.667 69.666 197.667 138.999 267c76 75.333 167.333 113 274 113c76.667 0 137.667 -19 183 -57c41.333 8 62 24.333 62 49c0 14 -8.33301 24 -25 30
c-6 2 -17.333 2.33301 -34 1c4.66699 6.66699 16.167 11.834 34.5 15.501s32.166 4.16699 41.499 1.5c22.667 -8.66699 34 -22.667 34 -42c0 -9.33301 -3 -19 -9 -29c-14.667 -24 -43.334 -38 -86.001 -42zM558.002 800.002h-31l-182 139h87z" />
    <glyph glyph-name="glyph342" unicode="&#x1edd;" 
d="M518 335c0 95.333 -46.001 143.002 -138.001 143.002c-59.333 0 -109.333 -22.333 -150 -67c-35.333 -38.667 -59.666 -89.334 -72.999 -152.001c-5.33301 -24.667 -8 -48.334 -8 -71.001c0 -98.667 46 -148 138 -148c70 0 127.333 32.667 172 98
c39.333 58 59 123.667 59 197zM539.999 473.002l35 31.999c10.667 8 16 17 16 27c0 12.667 -8 21.667 -24 27c4 5.33301 10.833 10 20.5 14s17.167 5 22.5 3c20.667 -6.66699 31 -19.667 31 -39c0 -29.333 -24 -49.333 -72 -60l-27 -6c26.667 -33.333 40 -77.333 40 -132
c0 -25.333 -3 -52 -9 -80c-16.667 -78 -50.334 -142 -101.001 -192c-55.333 -54.667 -121 -81.667 -197 -81c-60 0.666992 -106.833 18 -140.5 52s-50.5 81 -50.5 141c0 24.667 3 51.334 9 80.001c16.667 78.667 50 142.667 100 192c54.667 54 120.667 81 198 81
c66.667 0 116.334 -19.667 149.001 -59zM411.999 618.001h-30l-173 132h83z" />
    <glyph glyph-name="glyph343" unicode="&#x1ede;" horiz-adv-x="778" 
d="M397 39c88 0 162.667 32.335 224 97.002c54.667 57.333 91.667 131.666 111 222.999c8 37.333 12 71.333 12 102c0 68.667 -18.333 122.5 -55 161.5s-89 58.5 -157 58.5c-87.333 0 -162 -32.667 -224 -98c-54.667 -58.667 -91.667 -133.334 -111 -224.001
c-7.33301 -34.667 -11 -67.667 -11 -99c0 -70 17.833 -124.333 53.5 -163s88.167 -58 157.5 -58zM743 666.002c46 -46.667 69.002 -112.334 69.002 -197.001c0 -36 -4 -72.667 -12 -110c-23.333 -109.333 -70 -198.333 -140 -267c-76.667 -74 -168.667 -111 -276 -111
c-85.333 0 -151.166 23.833 -197.499 71.5s-69.5 114.167 -69.5 199.5c0 34 4 69.667 12 107c23.333 108.667 69.666 197.667 138.999 267c76 75.333 167.333 113 274 113c76.667 0 137.667 -19 183 -57c41.333 8 62 24.333 62 49c0 14 -8.33301 24 -25 30
c-6 2 -17.333 2.33301 -34 1c4.66699 6.66699 16.167 11.834 34.5 15.501s32.166 4.16699 41.499 1.5c22.667 -8.66699 34 -22.667 34 -42c0 -9.33301 -3 -19 -9 -29c-14.667 -24 -43.334 -38 -86.001 -42zM545.002 856.002l42 30.001c17.333 12 26 26.667 26 44
c0 28 -13.667 42 -41 42c-17.333 0 -33.5 -7.33301 -48.5 -22s-24.167 -30.667 -27.5 -48l-3 26c2.66699 24 12.5 43.667 29.5 59s37.5 23 61.5 23c19.333 0 35.833 -5.66699 49.5 -17s20.5 -26.666 20.5 -45.999c0 -18.667 -10 -38.334 -30 -59.001l-53 -46
c-16 -19.333 -25.667 -36.333 -29 -51c0 5.33301 -1.33301 12.666 -4 21.999s-4 16.333 -4 21c0 8 3.66699 15.333 11 22z" />
    <glyph glyph-name="glyph344" unicode="&#x1edf;" 
d="M518 335c0 95.333 -46.001 143.002 -138.001 143.002c-59.333 0 -109.333 -22.333 -150 -67c-35.333 -38.667 -59.666 -89.334 -72.999 -152.001c-5.33301 -24.667 -8 -48.334 -8 -71.001c0 -98.667 46 -148 138 -148c70 0 127.333 32.667 172 98
c39.333 58 59 123.667 59 197zM539.999 473.002l35 31.999c10.667 8 16 17 16 27c0 12.667 -8 21.667 -24 27c4 5.33301 10.833 10 20.5 14s17.167 5 22.5 3c20.667 -6.66699 31 -19.667 31 -39c0 -29.333 -24 -49.333 -72 -60l-27 -6c26.667 -33.333 40 -77.333 40 -132
c0 -25.333 -3 -52 -9 -80c-16.667 -78 -50.334 -142 -101.001 -192c-55.333 -54.667 -121 -81.667 -197 -81c-60 0.666992 -106.833 18 -140.5 52s-50.5 81 -50.5 141c0 24.667 3 51.334 9 80.001c16.667 78.667 50 142.667 100 192c54.667 54 120.667 81 198 81
c66.667 0 116.334 -19.667 149.001 -59zM398.999 674.001l42 30.001c17.333 12 26 26.667 26 44c0 28 -13.667 42 -41 42c-17.333 0 -33.5 -7.33301 -48.5 -22s-24.167 -30.667 -27.5 -48l-3 26c2.66699 24 12.5 43.667 29.5 59s37.5 23 61.5 23
c19.333 0 35.833 -5.66699 49.5 -17s20.5 -26.666 20.5 -45.999c0 -18.667 -10 -38.334 -30 -59.001l-53 -46c-16 -19.333 -25.667 -36.333 -29 -51c0 5.33301 -1.33301 12.666 -4 21.999s-4 16.333 -4 21c0 8 3.66699 15.333 11 22z" />
    <glyph glyph-name="glyph345" unicode="&#x1ee0;" horiz-adv-x="778" 
d="M397 39c88 0 162.667 32.335 224 97.002c54.667 57.333 91.667 131.666 111 222.999c8 37.333 12 71.333 12 102c0 68.667 -18.333 122.5 -55 161.5s-89 58.5 -157 58.5c-87.333 0 -162 -32.667 -224 -98c-54.667 -58.667 -91.667 -133.334 -111 -224.001
c-7.33301 -34.667 -11 -67.667 -11 -99c0 -70 17.833 -124.333 53.5 -163s88.167 -58 157.5 -58zM743 666.002c46 -46.667 69.002 -112.334 69.002 -197.001c0 -36 -4 -72.667 -12 -110c-23.333 -109.333 -70 -198.333 -140 -267c-76.667 -74 -168.667 -111 -276 -111
c-85.333 0 -151.166 23.833 -197.499 71.5s-69.5 114.167 -69.5 199.5c0 34 4 69.667 12 107c23.333 108.667 69.666 197.667 138.999 267c76 75.333 167.333 113 274 113c76.667 0 137.667 -19 183 -57c41.333 8 62 24.333 62 49c0 14 -8.33301 24 -25 30
c-6 2 -17.333 2.33301 -34 1c4.66699 6.66699 16.167 11.834 34.5 15.501s32.166 4.16699 41.499 1.5c22.667 -8.66699 34 -22.667 34 -42c0 -9.33301 -3 -19 -9 -29c-14.667 -24 -43.334 -38 -86.001 -42zM419.002 800.002h-32.999c14 18 33.333 35.667 58 53
c33.333 23.333 63.333 35 90 35c11.333 0 27.5 -6.83301 48.5 -20.5s36.833 -20.5 47.5 -20.5c20 0 44.333 15 73 45h35c-10 -12 -21.333 -23.333 -34 -34c-42 -35.333 -77.667 -53.333 -107 -54c-16 0 -34.167 6.66699 -54.5 20s-35.833 20 -46.5 20
c-20.667 0 -46.334 -14.667 -77.001 -44z" />
    <glyph glyph-name="glyph346" unicode="&#x1ee1;" 
d="M518 335c0 95.333 -46.001 143.002 -138.001 143.002c-59.333 0 -109.333 -22.333 -150 -67c-35.333 -38.667 -59.666 -89.334 -72.999 -152.001c-5.33301 -24.667 -8 -48.334 -8 -71.001c0 -98.667 46 -148 138 -148c70 0 127.333 32.667 172 98
c39.333 58 59 123.667 59 197zM539.999 473.002l35 31.999c10.667 8 16 17 16 27c0 12.667 -8 21.667 -24 27c4 5.33301 10.833 10 20.5 14s17.167 5 22.5 3c20.667 -6.66699 31 -19.667 31 -39c0 -29.333 -24 -49.333 -72 -60l-27 -6c26.667 -33.333 40 -77.333 40 -132
c0 -25.333 -3 -52 -9 -80c-16.667 -78 -50.334 -142 -101.001 -192c-55.333 -54.667 -121 -81.667 -197 -81c-60 0.666992 -106.833 18 -140.5 52s-50.5 81 -50.5 141c0 24.667 3 51.334 9 80.001c16.667 78.667 50 142.667 100 192c54.667 54 120.667 81 198 81
c66.667 0 116.334 -19.667 149.001 -59zM297.999 618.001h-30.999c12.667 16.667 31 33.334 55 50.001c32 22 60.667 33 86 33c10 0 25 -6.33301 45 -19s35.333 -19 46 -19c18 0 41 14 69 42h33c-8.66699 -10.667 -19.334 -21.334 -32.001 -32.001
c-40 -33.333 -74 -50.333 -102 -51c-14.667 0 -31.834 6.33301 -51.501 19s-34.5 19 -44.5 19c-19.333 0 -43.666 -14 -72.999 -42z" />
    <glyph glyph-name="glyph347" unicode="&#x1ee2;" horiz-adv-x="778" 
d="M397 39c88 0 162.667 32.335 224 97.002c54.667 57.333 91.667 131.666 111 222.999c8 37.333 12 71.333 12 102c0 68.667 -18.333 122.5 -55 161.5s-89 58.5 -157 58.5c-87.333 0 -162 -32.667 -224 -98c-54.667 -58.667 -91.667 -133.334 -111 -224.001
c-7.33301 -34.667 -11 -67.667 -11 -99c0 -70 17.833 -124.333 53.5 -163s88.167 -58 157.5 -58zM743 666.002c46 -46.667 69.002 -112.334 69.002 -197.001c0 -36 -4 -72.667 -12 -110c-23.333 -109.333 -70 -198.333 -140 -267c-76.667 -74 -168.667 -111 -276 -111
c-85.333 0 -151.166 23.833 -197.499 71.5s-69.5 114.167 -69.5 199.5c0 34 4 69.667 12 107c23.333 108.667 69.666 197.667 138.999 267c76 75.333 167.333 113 274 113c76.667 0 137.667 -19 183 -57c41.333 8 62 24.333 62 49c0 14 -8.33301 24 -25 30
c-6 2 -17.333 2.33301 -34 1c4.66699 6.66699 16.167 11.834 34.5 15.501s32.166 4.16699 41.499 1.5c22.667 -8.66699 34 -22.667 34 -42c0 -9.33301 -3 -19 -9 -29c-14.667 -24 -43.334 -38 -86.001 -42zM406.002 -151.998h-65l17 80l24 2l41 -2z" />
    <glyph glyph-name="glyph348" unicode="&#x1ee3;" 
d="M518 335c0 95.333 -46.001 143.002 -138.001 143.002c-59.333 0 -109.333 -22.333 -150 -67c-35.333 -38.667 -59.666 -89.334 -72.999 -152.001c-5.33301 -24.667 -8 -48.334 -8 -71.001c0 -98.667 46 -148 138 -148c70 0 127.333 32.667 172 98
c39.333 58 59 123.667 59 197zM539.999 473.002l35 31.999c10.667 8 16 17 16 27c0 12.667 -8 21.667 -24 27c4 5.33301 10.833 10 20.5 14s17.167 5 22.5 3c20.667 -6.66699 31 -19.667 31 -39c0 -29.333 -24 -49.333 -72 -60l-27 -6c26.667 -33.333 40 -77.333 40 -132
c0 -25.333 -3 -52 -9 -80c-16.667 -78 -50.334 -142 -101.001 -192c-55.333 -54.667 -121 -81.667 -197 -81c-60 0.666992 -106.833 18 -140.5 52s-50.5 81 -50.5 141c0 24.667 3 51.334 9 80.001c16.667 78.667 50 142.667 100 192c54.667 54 120.667 81 198 81
c66.667 0 116.334 -19.667 149.001 -59zM298.999 -141.999h-65l17 80l24 2l41 -2z" />
    <glyph glyph-name="glyph349" unicode="&#x1ee4;" horiz-adv-x="722" 
d="M140 271l95.002 448.999h68l-91 -429c-8 -38 -12 -72 -12 -102c0 -100 56.333 -150 169 -150c79.333 0 140.333 23 183 69c37.333 39.333 64.666 100.333 81.999 183l91 429h68l-95 -449c-40.667 -193.333 -154.334 -290 -341.001 -290c-152 0 -228 66 -228 198
c0 26.667 3.66699 57.334 11 92.001zM380.002 -152.001h-65l17 80l24 2l41 -2z" />
    <glyph glyph-name="glyph350" unicode="&#x1ee5;" 
d="M473 236l60 282h60l-110 -518h-60l15 72c-62 -57.333 -123.667 -86 -185 -86c-100 0 -150 43 -150 129c0 19.333 2.33301 40 7 62l72 341h60l-72 -340c-3.33301 -16 -5 -31.667 -5 -47c0 -60.667 36.333 -91 109 -91c52.667 0 97 20.333 133 61
c32 35.333 54 80.333 66 135zM301 -142h-65l17 80l24 2l41 -2z" />
    <glyph glyph-name="glyph351" unicode="&#x1ee6;" horiz-adv-x="722" 
d="M140 271l95.002 448.999h68l-91 -429c-8 -38 -12 -72 -12 -102c0 -100 56.333 -150 169 -150c79.333 0 140.333 23 183 69c37.333 39.333 64.666 100.333 81.999 183l91 429h68l-95 -449c-40.667 -193.333 -154.334 -290 -341.001 -290c-152 0 -228 66 -228 198
c0 26.667 3.66699 57.334 11 92.001zM515.002 804.999l42 30.001c17.333 12 26 26.667 26 44c0 28 -13.667 42 -41 42c-17.333 0 -33.5 -7.33301 -48.5 -22s-24.167 -30.667 -27.5 -48l-3 26c2.66699 24 12.5 43.667 29.5 59s37.5 23 61.5 23
c19.333 0 35.833 -5.66699 49.5 -17s20.5 -26.666 20.5 -45.999c0 -18.667 -10 -38.334 -30 -59.001l-53 -46c-16 -19.333 -25.667 -36.333 -29 -51c0 5.33301 -1.33301 12.666 -4 21.999s-4 16.333 -4 21c0 8 3.66699 15.333 11 22z" />
    <glyph glyph-name="glyph352" unicode="&#x1ee7;" 
d="M473 236l60 282h60l-110 -518h-60l15 72c-62 -57.333 -123.667 -86 -185 -86c-100 0 -150 43 -150 129c0 19.333 2.33301 40 7 62l72 341h60l-72 -340c-3.33301 -16 -5 -31.667 -5 -47c0 -60.667 36.333 -91 109 -91c52.667 0 97 20.333 133 61
c32 35.333 54 80.333 66 135zM389 635l42 30.001c17.333 12 26 26.667 26 44c0 28 -13.667 42 -41 42c-17.333 0 -33.5 -7.33301 -48.5 -22s-24.167 -30.667 -27.5 -48l-3 26c2.66699 24 12.5 43.667 29.5 59s37.5 23 61.5 23c19.333 0 35.833 -5.66699 49.5 -17
s20.5 -26.666 20.5 -45.999c0 -18.667 -10 -38.334 -30 -59.001l-53 -46c-16 -19.333 -25.667 -36.333 -29 -51c0 5.33301 -1.33301 12.666 -4 21.999s-4 16.333 -4 21c0 8 3.66699 15.333 11 22z" />
    <glyph glyph-name="glyph353" unicode="&#x1ee8;" horiz-adv-x="722" 
d="M782 669l-83.998 -398.002c-40.667 -193.333 -154.334 -290 -341.001 -290c-152 0 -228 66 -228 198c0 26.667 3.66699 57.334 11 92.001l95 449h68l-91 -429c-8 -38 -12 -72 -12 -102c0 -100 56.333 -150 169 -150c79.333 0 140.333 23 183 69
c37.333 39.333 64.666 100.333 81.999 183l91 429l51 -7l12 -12c12.667 10 19 19.667 19 29c0 14 -9 24.333 -27 31c-5.33301 2 -16.666 2.33301 -33.999 1c4.66699 6.66699 16.167 11.834 34.5 15.501s32.166 4.16699 41.499 1.5c22.667 -8.66699 34 -22.667 34 -42
c0 -34 -24.667 -56.667 -74 -68zM527.002 749.998h-31l126 139h87z" />
    <glyph glyph-name="glyph354" unicode="&#x1ee9;" 
d="M584 475l-101 -475h-60l15 72c-62 -57.333 -123.667 -86 -185 -86c-100 0 -150 43 -150 129c0 19.333 2.33301 40 7 62l72 341h60l-72 -340c-3.33301 -16 -5 -31.667 -5 -47c0 -60.667 36.333 -91 109 -91c52.667 0 97 20.333 133 61c32 35.333 54 80.333 66 135l60 282
l38 -9l17 -13l10 9c10.667 8 16 17 16 27c0 12.667 -8 21.667 -24 27c4 4.66699 10.833 9 20.5 13s17.167 5 22.5 3c19.333 -6.66699 29 -19 29 -37c0 -28.667 -23.333 -49 -70 -61zM400 584h-29l120 132h82z" />
    <glyph glyph-name="glyph355" unicode="&#x1eea;" horiz-adv-x="722" 
d="M782 669l-83.998 -398.002c-40.667 -193.333 -154.334 -290 -341.001 -290c-152 0 -228 66 -228 198c0 26.667 3.66699 57.334 11 92.001l95 449h68l-91 -429c-8 -38 -12 -72 -12 -102c0 -100 56.333 -150 169 -150c79.333 0 140.333 23 183 69
c37.333 39.333 64.666 100.333 81.999 183l91 429l51 -7l12 -12c12.667 10 19 19.667 19 29c0 14 -9 24.333 -27 31c-5.33301 2 -16.666 2.33301 -33.999 1c4.66699 6.66699 16.167 11.834 34.5 15.501s32.166 4.16699 41.499 1.5c22.667 -8.66699 34 -22.667 34 -42
c0 -34 -24.667 -56.667 -74 -68zM528.002 749.998h-31l-182 139h87z" />
    <glyph glyph-name="glyph356" unicode="&#x1eeb;" 
d="M584 475l-101 -475h-60l15 72c-62 -57.333 -123.667 -86 -185 -86c-100 0 -150 43 -150 129c0 19.333 2.33301 40 7 62l72 341h60l-72 -340c-3.33301 -16 -5 -31.667 -5 -47c0 -60.667 36.333 -91 109 -91c52.667 0 97 20.333 133 61c32 35.333 54 80.333 66 135l60 282
l38 -9l17 -13l10 9c10.667 8 16 17 16 27c0 12.667 -8 21.667 -24 27c4 4.66699 10.833 9 20.5 13s17.167 5 22.5 3c19.333 -6.66699 29 -19 29 -37c0 -28.667 -23.333 -49 -70 -61zM402 584h-30l-173 132h83z" />
    <glyph glyph-name="glyph357" unicode="&#x1eec;" horiz-adv-x="722" 
d="M782 669l-83.998 -398.002c-40.667 -193.333 -154.334 -290 -341.001 -290c-152 0 -228 66 -228 198c0 26.667 3.66699 57.334 11 92.001l95 449h68l-91 -429c-8 -38 -12 -72 -12 -102c0 -100 56.333 -150 169 -150c79.333 0 140.333 23 183 69
c37.333 39.333 64.666 100.333 81.999 183l91 429l51 -7l12 -12c12.667 10 19 19.667 19 29c0 14 -9 24.333 -27 31c-5.33301 2 -16.666 2.33301 -33.999 1c4.66699 6.66699 16.167 11.834 34.5 15.501s32.166 4.16699 41.499 1.5c22.667 -8.66699 34 -22.667 34 -42
c0 -34 -24.667 -56.667 -74 -68zM515.002 804.998l42 30.001c17.333 12 26 26.667 26 44c0 28 -13.667 42 -41 42c-17.333 0 -33.5 -7.33301 -48.5 -22s-24.167 -30.667 -27.5 -48l-3 26c2.66699 24 12.5 43.667 29.5 59s37.5 23 61.5 23c19.333 0 35.833 -5.66699 49.5 -17
s20.5 -26.666 20.5 -45.999c0 -18.667 -10 -38.334 -30 -59.001l-53 -46c-16 -19.333 -25.667 -36.333 -29 -51c0 5.33301 -1.33301 12.666 -4 21.999s-4 16.333 -4 21c0 8 3.66699 15.333 11 22z" />
    <glyph glyph-name="glyph358" unicode="&#x1eed;" 
d="M584 475l-101 -475h-60l15 72c-62 -57.333 -123.667 -86 -185 -86c-100 0 -150 43 -150 129c0 19.333 2.33301 40 7 62l72 341h60l-72 -340c-3.33301 -16 -5 -31.667 -5 -47c0 -60.667 36.333 -91 109 -91c52.667 0 97 20.333 133 61c32 35.333 54 80.333 66 135l60 282
l38 -9l17 -13l10 9c10.667 8 16 17 16 27c0 12.667 -8 21.667 -24 27c4 4.66699 10.833 9 20.5 13s17.167 5 22.5 3c19.333 -6.66699 29 -19 29 -37c0 -28.667 -23.333 -49 -70 -61zM389 635l42 30.001c17.333 12 26 26.667 26 44c0 28 -13.667 42 -41 42
c-17.333 0 -33.5 -7.33301 -48.5 -22s-24.167 -30.667 -27.5 -48l-3 26c2.66699 24 12.5 43.667 29.5 59s37.5 23 61.5 23c19.333 0 35.833 -5.66699 49.5 -17s20.5 -26.666 20.5 -45.999c0 -18.667 -10 -38.334 -30 -59.001l-53 -46c-16 -19.333 -25.667 -36.333 -29 -51
c0 5.33301 -1.33301 12.666 -4 21.999s-4 16.333 -4 21c0 8 3.66699 15.333 11 22z" />
    <glyph glyph-name="glyph359" unicode="&#x1eee;" horiz-adv-x="722" 
d="M782 669l-83.998 -398.002c-40.667 -193.333 -154.334 -290 -341.001 -290c-152 0 -228 66 -228 198c0 26.667 3.66699 57.334 11 92.001l95 449h68l-91 -429c-8 -38 -12 -72 -12 -102c0 -100 56.333 -150 169 -150c79.333 0 140.333 23 183 69
c37.333 39.333 64.666 100.333 81.999 183l91 429l51 -7l12 -12c12.667 10 19 19.667 19 29c0 14 -9 24.333 -27 31c-5.33301 2 -16.666 2.33301 -33.999 1c4.66699 6.66699 16.167 11.834 34.5 15.501s32.166 4.16699 41.499 1.5c22.667 -8.66699 34 -22.667 34 -42
c0 -34 -24.667 -56.667 -74 -68zM390.002 749.998h-32.999c14 18 33.333 35.667 58 53c33.333 23.333 63.333 35 90 35c11.333 0 27.5 -6.83301 48.5 -20.5s36.833 -20.5 47.5 -20.5c20 0 44.333 15 73 45h35c-10 -12 -21.333 -23.333 -34 -34
c-42 -35.333 -77.667 -53.333 -107 -54c-16 0 -34.167 6.66699 -54.5 20s-35.833 20 -46.5 20c-20.667 0 -46.334 -14.667 -77.001 -44z" />
    <glyph glyph-name="glyph360" unicode="&#x1eef;" 
d="M584 475l-101 -475h-60l15 72c-62 -57.333 -123.667 -86 -185 -86c-100 0 -150 43 -150 129c0 19.333 2.33301 40 7 62l72 341h60l-72 -340c-3.33301 -16 -5 -31.667 -5 -47c0 -60.667 36.333 -91 109 -91c52.667 0 97 20.333 133 61c32 35.333 54 80.333 66 135l60 282
l38 -9l17 -13l10 9c10.667 8 16 17 16 27c0 12.667 -8 21.667 -24 27c4 4.66699 10.833 9 20.5 13s17.167 5 22.5 3c19.333 -6.66699 29 -19 29 -37c0 -28.667 -23.333 -49 -70 -61zM277 593h-30.999c12.667 16.667 31 33.334 55 50.001c32 22 60.667 33 86 33
c10 0 25 -6.33301 45 -19s35.333 -19 46 -19c18 0 41 14 69 42h33c-8.66699 -10.667 -19.334 -21.334 -32.001 -32.001c-40 -33.333 -74 -50.333 -102 -51c-14.667 0 -31.834 6.33301 -51.501 19s-34.5 19 -44.5 19c-19.333 0 -43.666 -14 -72.999 -42z" />
    <glyph glyph-name="glyph361" unicode="&#x1ef0;" horiz-adv-x="722" 
d="M782 669l-83.998 -398.002c-40.667 -193.333 -154.334 -290 -341.001 -290c-152 0 -228 66 -228 198c0 26.667 3.66699 57.334 11 92.001l95 449h68l-91 -429c-8 -38 -12 -72 -12 -102c0 -100 56.333 -150 169 -150c79.333 0 140.333 23 183 69
c37.333 39.333 64.666 100.333 81.999 183l91 429l51 -7l12 -12c12.667 10 19 19.667 19 29c0 14 -9 24.333 -27 31c-5.33301 2 -16.666 2.33301 -33.999 1c4.66699 6.66699 16.167 11.834 34.5 15.501s32.166 4.16699 41.499 1.5c22.667 -8.66699 34 -22.667 34 -42
c0 -34 -24.667 -56.667 -74 -68zM380.002 -152.002h-65l17 80l24 2l41 -2z" />
    <glyph glyph-name="glyph362" unicode="&#x1ef1;" 
d="M584 475l-101 -475h-60l15 72c-62 -57.333 -123.667 -86 -185 -86c-100 0 -150 43 -150 129c0 19.333 2.33301 40 7 62l72 341h60l-72 -340c-3.33301 -16 -5 -31.667 -5 -47c0 -60.667 36.333 -91 109 -91c52.667 0 97 20.333 133 61c32 35.333 54 80.333 66 135l60 282
l38 -9l17 -13l10 9c10.667 8 16 17 16 27c0 12.667 -8 21.667 -24 27c4 4.66699 10.833 9 20.5 13s17.167 5 22.5 3c19.333 -6.66699 29 -19 29 -37c0 -28.667 -23.333 -49 -70 -61zM301 -142h-65l17 80l24 2l41 -2z" />
    <glyph glyph-name="glyph363" unicode="&#x1ef2;" horiz-adv-x="611" 
d="M243 720l138 -347l291 347h79l-347 -406l-67 -314h-68l66 309l-170 411h78zM472 740h-31l-182 139h87z" />
    <glyph glyph-name="glyph364" unicode="&#x1ef3;" horiz-adv-x="500" 
d="M26 -197l12 56c20 -4 36.333 -6 49 -6c29.333 0 55.666 18.333 78.999 55l52 88l-90 522h67l72 -445l260 445h65l-302 -511c-45.333 -76.667 -79.333 -128 -102 -154c-33.333 -38 -68.666 -57 -105.999 -57c-20 0 -38.667 2.33301 -56 7zM378 570h-30l-173 132h83z" />
    <glyph glyph-name="glyph365" unicode="&#x1ef4;" horiz-adv-x="611" 
d="M243 720l138 -347l291 347h79l-347 -406l-67 -314h-68l66 309l-170 411h78zM308 -132h-65l17 80l24 2l41 -2z" />
    <glyph glyph-name="glyph366" unicode="&#x1ef5;" horiz-adv-x="500" 
d="M26 -197l12 56c20 -4 36.333 -6 49 -6c29.333 0 55.666 18.333 78.999 55l52 88l-90 522h67l72 -445l260 445h65l-302 -511c-45.333 -76.667 -79.333 -128 -102 -154c-33.333 -38 -68.666 -57 -105.999 -57c-20 0 -38.667 2.33301 -56 7zM338 -142h-65l17 80l24 2l41 -2z
" />
    <glyph glyph-name="glyph367" unicode="&#x1ef6;" horiz-adv-x="611" 
d="M243 720l138 -347l291 347h79l-347 -406l-67 -314h-68l66 309l-170 411h78zM459 795l42 30.001c17.333 12 26 26.667 26 44c0 28 -13.667 42 -41 42c-17.333 0 -33.5 -7.33301 -48.5 -22s-24.167 -30.667 -27.5 -48l-3 26c2.66699 24 12.5 43.667 29.5 59
s37.5 23 61.5 23c19.333 0 35.833 -5.66699 49.5 -17s20.5 -26.666 20.5 -45.999c0 -18.667 -10 -38.334 -30 -59.001l-53 -46c-16 -19.333 -25.667 -36.333 -29 -51c0 5.33301 -1.33301 12.666 -4 21.999s-4 16.333 -4 21c0 8 3.66699 15.333 11 22z" />
    <glyph glyph-name="glyph368" unicode="&#x1ef7;" horiz-adv-x="500" 
d="M26 -197l12 56c20 -4 36.333 -6 49 -6c29.333 0 55.666 18.333 78.999 55l52 88l-90 522h67l72 -445l260 445h65l-302 -511c-45.333 -76.667 -79.333 -128 -102 -154c-33.333 -38 -68.666 -57 -105.999 -57c-20 0 -38.667 2.33301 -56 7zM365 625l42 30.001
c17.333 12 26 26.667 26 44c0 28 -13.667 42 -41 42c-17.333 0 -33.5 -7.33301 -48.5 -22s-24.167 -30.667 -27.5 -48l-3 26c2.66699 24 12.5 43.667 29.5 59s37.5 23 61.5 23c19.333 0 35.833 -5.66699 49.5 -17s20.5 -26.666 20.5 -45.999
c0 -18.667 -10 -38.334 -30 -59.001l-53 -46c-16 -19.333 -25.667 -36.333 -29 -51c0 5.33301 -1.33301 12.666 -4 21.999s-4 16.333 -4 21c0 8 3.66699 15.333 11 22z" />
    <glyph glyph-name="glyph369" unicode="&#x1ef8;" horiz-adv-x="611" 
d="M243 720l138 -347l291 347h79l-347 -406l-67 -314h-68l66 309l-170 411h78zM316 740h-32.999c14 18 33.333 35.667 58 53c33.333 23.333 63.333 35 90 35c11.333 0 27.5 -6.83301 48.5 -20.5s36.833 -20.5 47.5 -20.5c20 0 44.333 15 73 45h35
c-10 -12 -21.333 -23.333 -34 -34c-42 -35.333 -77.667 -53.333 -107 -54c-16 0 -34.167 6.66699 -54.5 20s-35.833 20 -46.5 20c-20.667 0 -46.334 -14.667 -77.001 -44z" />
    <glyph glyph-name="glyph370" unicode="&#x1ef9;" horiz-adv-x="500" 
d="M26 -197l12 56c20 -4 36.333 -6 49 -6c29.333 0 55.666 18.333 78.999 55l52 88l-90 522h67l72 -445l260 445h65l-302 -511c-45.333 -76.667 -79.333 -128 -102 -154c-33.333 -38 -68.666 -57 -105.999 -57c-20 0 -38.667 2.33301 -56 7zM226 583h-30.999
c12.667 16.667 31 33.334 55 50.001c32 22 60.667 33 86 33c10 0 25 -6.33301 45 -19s35.333 -19 46 -19c18 0 41 14 69 42h33c-8.66699 -10.667 -19.334 -21.334 -32.001 -32.001c-40 -33.333 -74 -50.333 -102 -51c-14.667 0 -31.834 6.33301 -51.501 19
s-34.5 19 -44.5 19c-19.333 0 -43.666 -14 -72.999 -42z" />
    <glyph glyph-name="endash" unicode="&#x2013;" horiz-adv-x="500" 
d="M560 282l-9 -44h-500l9 44h500z" />
    <glyph glyph-name="emdash" unicode="&#x2014;" horiz-adv-x="1000" 
d="M1051 238h-1000l9 44h1000z" />
    <glyph glyph-name="quoteleft" unicode="&#x2018;" horiz-adv-x="222" 
d="M174 495l25 118c12 56 44 91.667 96 107l-8 -37c-25.333 -14 -41.333 -36 -48 -66l-7 -34h34l-19 -88h-73z" />
    <glyph glyph-name="quoteright" unicode="&#x2019;" horiz-adv-x="222" 
d="M306 720l-25 -118c-12 -56 -44 -91.667 -96 -107l8 37c26 14 42 36 48 66l7 34h-34l19 88h73z" />
    <glyph glyph-name="quotesinglbase" unicode="&#x201a;" horiz-adv-x="222" 
d="M172 88l-25 -118c-12 -56 -44 -91.667 -96 -107l8 37c25.333 14 41.333 36 48 66l7 34h-34l19 88h73z" />
    <glyph glyph-name="quotedblleft" unicode="&#x201c;" horiz-adv-x="389" 
d="M342 495l25 118c12 56 44 91.667 96 107l-8 -37c-25.333 -14 -41.333 -36 -48 -66l-7 -34h34l-19 -88h-73zM191 495l25 118c12 56 44 91.667 96 107l-8 -37c-25.333 -14 -41.333 -36 -48 -66l-7 -34h34l-19 -88h-73z" />
    <glyph glyph-name="quotedblright" unicode="&#x201d;" horiz-adv-x="389" 
d="M456 720l-25 -118c-12 -56 -44 -91.667 -96 -107l8 37c26 14 42 36 48 66l7 34h-34l19 88h73zM305 720l-25 -118c-12 -56 -44 -91.667 -96 -107l8 37c26 14 42 36 48 66l7 34h-34l19 88h73z" />
    <glyph glyph-name="quotedblbase" unicode="&#x201e;" horiz-adv-x="389" 
d="M322 88l-25 -118c-12 -56 -44 -91.667 -96 -107l8 37c25.333 14 41.333 36 48 66l7 34h-34l19 88h73zM171 88l-25 -118c-12 -56 -44 -91.667 -96 -107l8 37c25.333 14 41.333 36 48 66l7 34h-34l19 88h73z" />
    <glyph glyph-name="dagger" unicode="&#x2020;" 
d="M213 -166l128 602h-211l11 54h211l49 230h60l-49 -230h211l-11 -54h-211l-128 -602h-60z" />
    <glyph glyph-name="daggerdbl" unicode="&#x2021;" 
d="M271 109l71 334h-211l12 54h211l47 223h60l-47 -223h211l-12 -54h-211l-71 -334h211l-11 -54h-211l-47 -221h-60l47 221h-211l11 54h211z" />
    <glyph glyph-name="bullet" unicode="&#x2022;" horiz-adv-x="500" 
d="M506 359c-10 -49.333 -36.501 -91.499 -79.501 -126.499s-89.5 -52.5 -139.5 -52.5c-42 0 -76.667 13.5 -104 40.5s-41 60.833 -41 101.5c0 12 1.33301 24.333 4 37c10.667 50 37.334 92.667 80.001 128s88.667 53 138 53c42.667 0 77.667 -13.5 105 -40.5
s41 -61.167 41 -102.5c0 -12.667 -1.33301 -25.334 -4 -38.001z" />
    <glyph glyph-name="ellipsis" unicode="&#x2026;" horiz-adv-x="1000" 
d="M204 0h-73l19 88h73zM537 0h-73l19 88h73zM870 0h-73l19 88h73z" />
    <glyph glyph-name="perthousand" unicode="&#x2030;" horiz-adv-x="1000" 
d="M900 299c34.667 0 63.332 -11.332 85.999 -33.999s34 -51 34 -85c0 -46.667 -19 -88.334 -57 -125.001s-80.333 -55 -127 -55c-35.333 0 -64.5 11.167 -87.5 33.5s-34.5 50.833 -34.5 85.5c0 46 19.333 87.5 58 124.5s81.334 55.5 128.001 55.5zM847.998 57.001
c27.333 0 53.167 11.498 77.5 34.498s36.5 48.167 36.5 75.5c0 20.667 -7.16699 38.334 -21.5 53.001s-32.166 22 -53.499 22c-28 0 -54 -11.333 -78 -34s-36 -48 -36 -76c0 -21.333 7.16699 -39.166 21.5 -53.499s32.166 -21.5 53.499 -21.5zM310.999 697.999
c35.333 0 64.5 -11.333 87.5 -34s34.5 -51 34.5 -85c0 -46.667 -19.167 -88.334 -57.5 -125.001s-80.833 -55 -127.5 -55c-35.333 0 -64.333 11.333 -87 34s-34 51 -34 85c0 46.667 19.167 88.334 57.5 125.001s80.5 55 126.5 55zM298.999 640.999
c-28 0 -53.833 -11.3311 -77.5 -33.998s-35.5 -48 -35.5 -76c0 -20.667 7 -38.334 21 -53.001s31.667 -22 53 -22c27.333 0 53.333 11.667 78 35s37 48.666 37 75.999c0 20.667 -7.33301 38.167 -22 52.5s-32.667 21.5 -54 21.5zM135.999 -13.999h-53l560 719h53z
M536.999 299.001c34.667 0 63.5 -11.5 86.5 -34.5s34.5 -51.5 34.5 -85.5c0 -46.667 -19.167 -88.167 -57.5 -124.5s-80.833 -54.5 -127.5 -54.5c-35.333 0 -64.333 11.333 -87 34s-34 51 -34 85c0 46 19.167 87.5 57.5 124.5s80.833 55.5 127.5 55.5zM484.999 57.001
c28 0 54.167 11.3311 78.5 33.998s36.5 48 36.5 76c0 20.667 -7.16699 38.334 -21.5 53.001s-32.5 22 -54.5 22c-27.333 0 -53 -11.5 -77 -34.5s-36 -48.167 -36 -75.5c0 -21.333 7.16699 -39.166 21.5 -53.499s31.833 -21.5 52.5 -21.5z" />
    <glyph glyph-name="guilsinglleft" unicode="&#x2039;" horiz-adv-x="389" 
d="M169 228l14 63l170 113l-14 -63l-121 -82l87 -80l-13 -62z" />
    <glyph glyph-name="guilsinglright" unicode="&#x203a;" horiz-adv-x="389" 
d="M330 293l-13 -63l-170 -113l13 63l122 82l-87 80l13 62z" />
    <glyph glyph-name="fraction" unicode="&#x2044;" horiz-adv-x="167" 
d="M-116 -14h-51l597 719h51z" />
    <glyph glyph-name="franc" unicode="&#x20a3;" horiz-adv-x="1035" 
d="M142 0h-68l153 720h464l-12 -58h-396l-56 -260h360l-12 -58h-360zM841 254l-54 -254.001h-60l110 518h60l-21 -97h2c25.333 40.667 52.833 69.334 82.5 86.001s66.5 25 110.5 25l-14 -65c-113.333 2.66699 -185.333 -68.333 -216 -213z" />
    <glyph glyph-name="u20AB" unicode="&#x20ab;" horiz-adv-x="393" 
d="M197 501c-32 0 -60 -29.333 -84 -88c-13.333 -32.667 -20 -62.667 -20 -90c0 -34 13 -51 39 -51c27.333 0 52 23.667 74 71c18.667 40 28 75.667 28 107c0 34 -12.333 51 -37 51zM200 267c-35.333 -41.333 -70.666 -62.002 -105.999 -62.002
c-30 0 -52.667 9.33301 -68 28s-23 43.334 -23 74.001c0 53.333 18.333 104.333 55 153c39.333 52 84.666 78 135.999 78c22.667 0 43 -8 61 -24l20 75h-100l10 36h100l2 16c0 20.667 -16 31.334 -48 32.001l7 33c44.667 1.33301 87.334 6 128.001 14l15 3c4 0 6 -3 6 -9
l-3 -12l-19 -77h65l-10 -36h-65l-69 -280c-3.33301 -13.333 -5 -22.333 -5 -27c0 -10 4 -15 12 -15c4 0 20.333 14 49 42l20 -18c-46.667 -57.333 -85.667 -86 -117 -86c-28.667 0 -46.334 20.667 -53.001 62zM9 159.998h221v-56h-221v56z" />
    <glyph glyph-name="trademark" unicode="&#x2122;" horiz-adv-x="940" 
d="M1012 720l-89 -421h-52l80 377h-2l-225 -377h-34l-65 377h-2l-80 -377h-52l89 421h96l54 -311h2l184 311h96zM502 720l-8 -40h-134l-81 -381h-52l81 381h-134l8 40h320z" />
    <glyph glyph-name="minus" unicode="&#x2212;" horiz-adv-x="660" 
d="M127 220l13 60h500l-13 -60h-500z" />
    <glyph glyph-name="SF370000" unicode="&#x255f;" horiz-adv-x="718" 
d="M85 0h-70l436 720h77l123 -720h-70l-35 226h-328zM475 662l-222 -378h282z" />
    <glyph glyph-name="SF420000" unicode="&#x2560;" horiz-adv-x="681" 
d="M570 0h-489l153 720h479l-12 -58h-411l-56 -260h371l-12 -58h-371l-61 -286h421z" />
    <glyph glyph-name="SF190000" unicode="&#x2561;" horiz-adv-x="429" 
d="M173 0h-68l153 720h68z" />
    <glyph glyph-name="SF200000" unicode="&#x2562;" horiz-adv-x="773" 
d="M129 359c23.333 109.333 71.002 199 143.002 269c76 74 166 111 270 111c89.333 0 157.666 -25.667 204.999 -77c43.333 -47.333 65 -112 65 -194c0 -34.667 -4 -71 -12 -109c-22.667 -108.667 -69.667 -197.667 -141 -267c-76.667 -74 -168.334 -111 -275.001 -111
c-88 0 -155.333 25.667 -202 77c-42.667 48 -64 112.667 -64 194c0 34 3.66699 69.667 11 107zM397.002 39c88.667 0 163.667 32.335 225 97.002c54 57.333 90.667 131.666 110 222.999c8 36 12 69.667 12 101c0 70 -18.5 124.333 -55.5 163s-89.167 58 -156.5 58
c-87.333 0 -162 -32.667 -224 -98c-54.667 -58.667 -91.667 -133.334 -111 -224.001c-7.33301 -34.667 -11 -67.667 -11 -99c0 -66.667 16.333 -119 49 -157c36.667 -42.667 90.667 -64 162 -64z" />
    <glyph glyph-name="SF230000" unicode="&#x2563;" horiz-adv-x="811" 
d="M140 271l95 449.001h68l-91 -429c-8 -38.667 -12 -72.334 -12 -101.001c0 -100.667 56.333 -151 169 -151c76 0 135 20.667 177 62c40 40 69.333 103.333 88 190l91 429h68l-95 -449c-41.333 -193.333 -155 -290 -341 -290c-152 0 -228 66 -228 198
c0 28 3.66699 58.667 11 92z" />
    <glyph glyph-name="SF470000" unicode="&#x2564;" horiz-adv-x="699" 
d="M243 720l138 -347l291 347h79l-347 -406l-67 -314h-68l66 309l-170 411h78z" />
    <glyph glyph-name="SF480000" unicode="&#x2565;" horiz-adv-x="541" 
d="M452 191l17 81.001c-37.333 -14 -91 -23.667 -161 -29c-99.333 -7.33301 -156 -44 -170 -110c-1.33301 -7.33301 -2 -14 -2 -20c0 -23.333 9 -41.333 27 -54s40.667 -19 68 -19c52 0 97.667 12 137 36c45.333 27.333 73.333 65.666 84 114.999zM289 291.001
l84.9971 11.0029c40 5.33301 67.833 11.166 83.5 17.499s26.5 24.166 32.5 53.499c2 9.33301 3 18.333 3 27c0 52 -36.333 78 -109 78c-91.333 0 -150 -39 -176 -117h-61c16.667 58 48.334 101.667 95.001 131c42.667 26.667 94 40 154 40c106 0 159 -39 159 -117
c0 -13.333 -1.66699 -28 -5 -44l-60 -282c-2.66699 -10.667 -4 -19.334 -4 -26.001c0 -14.667 7 -22 21 -22c8.66699 0 21 2.66699 37 8l-10 -47c-21.333 -6.66699 -37.666 -10 -48.999 -10c-40.667 0 -61 16.333 -61 49c0 8.66699 1 19 3 31
c-63.333 -57.333 -133.666 -86 -210.999 -86c-42 0 -76.667 10 -104 30s-41 48.333 -41 85c0 10.667 1.33301 22 4 34c18.667 88 90 140 214 156z" />
    <glyph glyph-name="SF410000" unicode="&#x2566;" horiz-adv-x="431" 
d="M172 295l338 0.000976562c3.33301 18 5 35 5 51c0 40 -11 72 -33 96s-54.333 36 -97 36c-50.667 0 -95.334 -18.333 -134.001 -55c-35.333 -32.667 -61.666 -75.334 -78.999 -128.001zM563 245.001l-401.998 -0.00195312c-4.66699 -21.333 -7 -41.666 -7 -60.999
c0 -43.333 11.333 -77.666 34 -102.999c24 -27.333 58.667 -41 104 -41c39.333 0 75.166 10.5 107.499 31.5s57.166 50.167 74.499 87.5h67c-60 -115.333 -147 -173 -261 -173c-126.667 0 -190 62 -190 186c0 26.667 3.33301 55 10 85c16 78 50.667 142.667 104 194
c56 54 120 81 192 81c57.333 0 101.5 -16 132.5 -48s46.5 -78.333 46.5 -139c0 -30.667 -4 -64 -12 -100z" />
    <glyph glyph-name="SF450000" unicode="&#x2567;" horiz-adv-x="314" 
d="M141 0h-60l110 518h60zM278 631h-66l19 89h66z" />
    <glyph glyph-name="SF460000" unicode="&#x2568;" horiz-adv-x="314" 
d="M138 0h-60l110 518h60z" />
    <glyph glyph-name="SF400000" unicode="&#x2569;" horiz-adv-x="498" 
d="M275 -14c-57.333 0.666992 -103.001 16.999 -137.001 48.999c-36 34 -54 82 -54 144c0 24.667 3 51.334 9 80.001c16.667 79.333 50.334 143.666 101.001 192.999c54.667 53.333 120.334 80 197.001 80c63.333 0 111.666 -18 144.999 -54
c30.667 -33.333 46 -79.333 46 -138c0 -25.333 -3 -52.333 -9 -81c-17.333 -82 -53.333 -148.167 -108 -198.5s-118 -75.166 -190 -74.499zM517.999 333.999c0 96 -46 144 -138 144c-59.333 0 -109.333 -22.333 -150 -67c-35.333 -39.333 -59.666 -90 -72.999 -152
c-5.33301 -25.333 -8 -49 -8 -71c0 -46 11.667 -82.167 35 -108.5s57.666 -39.5 102.999 -39.5c70.667 0 128 32.333 172 97c39.333 57.333 59 123 59 197z" />
    <glyph glyph-name="SF540000" unicode="&#x256a;" horiz-adv-x="557" 
d="M473 236l60 282h60l-110 -518h-60l15 72c-28.667 -26.667 -53 -45.334 -73 -56.001c-34.667 -20 -72 -30 -112 -30c-100.667 0 -151 43 -151 129c0 18.667 2.66699 39.334 8 62.001l72 341h60l-72 -340c-4 -17.333 -6 -33 -6 -47c0 -60.667 36.667 -91 110 -91
c48 0 90.167 18.167 126.5 54.5s60.5 83.5 72.5 141.5z" />
    <glyph glyph-name="SF530000" unicode="&#x256b;" horiz-adv-x="497" 
d="M26 -197l11.999 56c20.667 -4 37 -6 49 -6c28 0 54.333 18.333 79 55l52 88l-90 522h67l72 -445l260 445h65l-302 -511c-45.333 -78 -79.333 -129.333 -102 -154c-33.333 -38 -68.666 -57 -105.999 -57c-19.333 0 -38 2.33301 -56 7z" />
    <glyph glyph-name="circle" unicode="&#x25cb;" horiz-adv-x="718" 
d="M543 908l-104 -102h-65l144 139h67l83 -139h-65zM484 994h-51l141 139h77z" />
    <glyph glyph-name="H18533" unicode="&#x25cf;" horiz-adv-x="718" 
d="M543 908l-104 -102h-65l144 139h67l83 -139h-65zM616 995l-108 139h78l81 -139h-51z" />
    <glyph glyph-name="invbullet" unicode="&#x25d8;" horiz-adv-x="718" 
d="M543 908l-104 -102h-65l144 139h67l83 -139h-65zM614 903c6 19.333 9.66602 40.668 10.999 64.001c0.666992 7.33301 3.33398 11.666 8.00098 12.999c2 0 4.66699 0.333008 8 1c44.667 7.33301 67 25.333 67 54c0 23.333 -9.33301 35 -28 35
c-3.33301 0 -8 -0.333008 -14 -1s-10.667 -1 -14 -1c-14 0 -21 6 -21 18c0 18.667 10.667 28 32 28c30.667 0 56 -8.5 76 -25.5s28.667 -40.5 26 -70.5c-4 -39.333 -33 -66.333 -87 -81c-16.667 -4.66699 -27 -16 -31 -34h-33z" />
    <glyph glyph-name="invcircle" unicode="&#x25d9;" horiz-adv-x="718" 
d="M543 908l-104 -102h-65l144 139h67l83 -139h-65zM452 1006l-36.001 -0.000976562c6.66699 22.667 17.334 42.334 32.001 59.001c22.667 25.333 49 38 79 38c15.333 0 37.333 -7.5 66 -22.5s50.334 -22.5 65.001 -22.5c22 0 40 16.667 54 50h38
c-1.33301 -6 -6.66602 -18.667 -15.999 -38c-26 -40 -55 -60 -87 -60c-18.667 0 -42.334 7.5 -71.001 22.5s-50.334 22.5 -65.001 22.5c-22 0 -41.667 -16.333 -59 -49z" />
    <glyph glyph-name="fi" unicode="&#xf001;" horiz-adv-x="500" 
d="M191 468l-78.998 -0.000976562l11 50h79l18 82c18.667 89.333 64.667 134 138 134c19.333 0 35.666 -1.33301 48.999 -4l-12 -55c-12 3.33301 -23.333 5 -34 5c-28 0 -48.667 -10.333 -62 -31c-8.66699 -13.333 -16.334 -35.666 -23.001 -66.999l-14 -64h98l-11 -50h-98
l-99 -468h-60zM432.002 -0.000976562h-60l110 518h60zM588.002 719.999l-19 -89h-66l19 89h66z" />
    <glyph glyph-name="fl" unicode="&#xf002;" horiz-adv-x="500" 
d="M191 468l-78.998 -0.000976562l11 50h79l18 82c18.667 89.333 64.667 134 138 134c19.333 0 35.666 -1.33301 48.999 -4l-12 -55c-12 3.33301 -23.333 5 -34 5c-28 0 -48.667 -10.333 -62 -31c-8.66699 -13.333 -16.334 -35.666 -23.001 -66.999l-14 -64h98l-11 -50h-98
l-99 -468h-60zM432.002 -0.000976562h-60l153 720h60z" />
    <glyph glyph-name=".null" horiz-adv-x="0" 
 />
    <glyph glyph-name="nonmarkingreturn" horiz-adv-x="278" 
 />
    <glyph glyph-name="periodcentered" horiz-adv-x="278" 
d="M224 398c25.333 0 38 -12.667 38 -38c0 -15.333 -6.16699 -29 -18.5 -41s-25.833 -18 -40.5 -18c-26.667 0 -40 13 -40 39c0 14.667 6.5 28 19.5 40s26.833 18 41.5 18z" />
    <glyph glyph-name="glyph231" horiz-adv-x="278" 
 />
    <glyph glyph-name="glyph232" horiz-adv-x="278" 
 />
    <glyph glyph-name="glyph275" horiz-adv-x="249" 
 />
    <glyph glyph-name="glyph276" horiz-adv-x="249" 
 />
    <glyph glyph-name="glyph261" horiz-adv-x="500" 
d="M253 522c6 19.333 9.66602 40.668 10.999 64.001c0.666992 7.33301 3.33398 11.666 8.00098 12.999c2 0 4.66699 0.333008 8 1c44.667 7.33301 67 25.333 67 54c0 23.333 -9.33301 35 -28 35c-3.33301 0 -8 -0.333008 -14 -1s-10.667 -1 -14 -1c-14 0 -21 6 -21 18
c0 18.667 10.667 28 32 28c30.667 0 56 -8.5 76 -25.5s28.667 -40.5 26 -70.5c-4 -39.333 -33 -66.333 -87 -81c-16.667 -4.66699 -27 -16 -31 -34h-33z" />
    <glyph glyph-name="glyph262" horiz-adv-x="541" 
d="M340 676l-104 -102h-65l144 139h67l83 -139h-65zM280 763h-51l141 139h77z" />
    <glyph glyph-name="glyph263" horiz-adv-x="541" 
d="M340 676l-104 -102h-65l144 139h67l83 -139h-65zM413 763l-108 139h78l81 -139h-51z" />
    <glyph glyph-name="glyph264" horiz-adv-x="541" 
d="M340 676l-104 -102h-65l144 139h67l83 -139h-65zM411 671c6 19.333 9.66602 40.668 10.999 64.001c0.666992 7.33301 3.33398 11.666 8.00098 12.999c2 0 4.66699 0.333008 8 1c44.667 7.33301 67 25.333 67 54c0 23.333 -9.33301 35 -28 35
c-3.33301 0 -8 -0.333008 -14 -1s-10.667 -1 -14 -1c-14 0 -21 6 -21 18c0 18.667 10.667 28 32 28c30.667 0 56 -8.5 76 -25.5s28.667 -40.5 26 -70.5c-4 -39.333 -33 -66.333 -87 -81c-16.667 -4.66699 -27 -16 -31 -34h-33z" />
    <glyph glyph-name="glyph265" horiz-adv-x="541" 
d="M340 676l-104 -102h-65l144 139h67l83 -139h-65zM249 774l-36.001 -0.000976562c6.66699 22.667 17.334 42.334 32.001 59.001c22.667 25.333 49 38 79 38c15.333 0 37.333 -7.5 66 -22.5s50.334 -22.5 65.001 -22.5c22 0 40 16.667 54 50h38
c-1.33301 -6 -6.66602 -18.667 -15.999 -38c-26 -40 -55 -60 -87 -60c-18.667 0 -42.334 7.5 -71.001 22.5s-50.334 22.5 -65.001 22.5c-22 0 -41.667 -16.333 -59 -49z" />
    <glyph glyph-name="glyph266" horiz-adv-x="541" 
d="M208 705h39.001c-0.666992 -54 28.666 -81 87.999 -81c58 0 99.333 27 124 81h37c-26.667 -84 -85.334 -126 -176.001 -126c-35.333 0 -63.166 9 -83.499 27s-30.5 43.333 -30.5 76c0 7.33301 0.666992 15 2 23zM359.001 763h-51l141 139h77z" />
    <glyph glyph-name="glyph267" horiz-adv-x="541" 
d="M208 705h39.001c-0.666992 -54 28.666 -81 87.999 -81c58 0 99.333 27 124 81h37c-26.667 -84 -85.334 -126 -176.001 -126c-35.333 0 -63.166 9 -83.499 27s-30.5 43.333 -30.5 76c0 7.33301 0.666992 15 2 23zM360.001 763l-108 139h78l81 -139h-51z" />
    <glyph glyph-name="glyph268" horiz-adv-x="541" 
d="M208 705h39.001c-0.666992 -54 28.666 -81 87.999 -81c58 0 99.333 27 124 81h37c-26.667 -84 -85.334 -126 -176.001 -126c-35.333 0 -63.166 9 -83.499 27s-30.5 43.333 -30.5 76c0 7.33301 0.666992 15 2 23zM306.001 671c6 19.333 9.66602 40.668 10.999 64.001
c0.666992 7.33301 3.33398 11.666 8.00098 12.999c2 0 4.66699 0.333008 8 1c44.667 7.33301 67 25.333 67 54c0 23.333 -9.33301 35 -28 35c-3.33301 0 -8 -0.333008 -14 -1s-10.667 -1 -14 -1c-14 0 -21 6 -21 18c0 18.667 10.667 28 32 28c30.667 0 56 -8.5 76 -25.5
s28.667 -40.5 26 -70.5c-4 -39.333 -33 -66.333 -87 -81c-16.667 -4.66699 -27 -16 -31 -34h-33z" />
    <glyph glyph-name="glyph269" horiz-adv-x="541" 
d="M208 705h39.001c-0.666992 -54 28.666 -81 87.999 -81c58 0 99.333 27 124 81h37c-26.667 -84 -85.334 -126 -176.001 -126c-35.333 0 -63.166 9 -83.499 27s-30.5 43.333 -30.5 76c0 7.33301 0.666992 15 2 23zM249.001 774l-36.001 -0.000976562
c6.66699 22.667 17.334 42.334 32.001 59.001c22.667 25.333 49 38 79 38c15.333 0 37.333 -7.5 66 -22.5s50.334 -22.5 65.001 -22.5c22 0 40 16.667 54 50h38c-1.33301 -6 -6.66602 -18.667 -15.999 -38c-26 -40 -55 -60 -87 -60c-18.667 0 -42.334 7.5 -71.001 22.5
s-50.334 22.5 -65.001 22.5c-22 0 -41.667 -16.333 -59 -49z" />
    <glyph glyph-name="glyph270" horiz-adv-x="249" 
 />
  </font>
</defs>
</svg>
