<?xml version="1.0" standalone="no"?>
<!DOCTYPE svg PUBLIC "-//W3C//DTD SVG 1.1//EN" "http://www.w3.org/Graphics/SVG/1.1/DTD/svg11.dtd" >
<svg>
<metadata>
Created by FontForge 20090914 at Mon Jun 11 06:20:51 2018
 By www-data
(c) Copyright 2005 by Tong Duc Thinh. All Rights Reserved
</metadata>
<defs>
<font id="SFUHelveticaLight" horiz-adv-x="556" >
  <font-face 
    font-family="SFU Helvetica"
    font-weight="300"
    font-stretch="normal"
    units-per-em="1000"
    panose-1="0 0 3 0 0 0 0 0 0 0"
    ascent="800"
    descent="-200"
    x-height="518"
    cap-height="720"
    bbox="-164 -212 1000 1134"
    underline-thickness="58"
    underline-position="-61"
    unicode-range="U+0020-U+F002"
  />
<missing-glyph horiz-adv-x="500" 
d="M63 0v783h375v-783h-375zM125 63h250v658h-250v-658z" />
    <glyph glyph-name=".notdef" horiz-adv-x="500" 
d="M63 0v783h375v-783h-375zM125 63h250v658h-250v-658z" />
    <glyph glyph-name="space" unicode=" " horiz-adv-x="278" 
 />
    <glyph glyph-name="exclam" unicode="!" horiz-adv-x="333" 
d="M144 181l-14 315v224h73v-224l-14 -315h-45zM203 0h-73v88h73v-88z" />
    <glyph glyph-name="quotedbl" unicode="&#x22;" horiz-adv-x="278" 
d="M57 494v226h52v-226h-52zM168 494v226h52v-226h-52z" />
    <glyph glyph-name="numbersign" unicode="#" 
d="M504 287v-59h-111l-32 -228h-59l31 228h-137l-34 -228h-59l34 228h-110v59h119l21 140h-112v59h120l32 212h60l-32 -212h136l31 212h59l-31 -212h100v-59h-108l-20 -140h102zM363 427h-136l-22 -140h138z" />
    <glyph glyph-name="dollar" unicode="$" 
d="M255 394v257.001c-38 0 -70 -11.667 -96 -35s-39 -53.333 -39 -90c0 -40 13.333 -70.333 40 -91c18 -14.667 49.667 -28.334 95 -41.001zM302 322.001v-287.001c42 0 77.833 13.833 107.5 41.5s44.5 62.167 44.5 103.5c0 45.333 -14.667 79 -44 101
c-21.333 16.667 -57.333 30.334 -108 41.001zM302 -19l0.000976562 -76.0029h-46v76c-120 6.66699 -191.333 64.334 -214 173.001c-2 8.66699 -3.66699 25 -5 49h65c0 -45.333 14.333 -84 43 -116s65.334 -49.333 110.001 -52v297c-64.667 16 -111.667 35.333 -141 58
c-38.667 31.333 -58 75.666 -58 132.999c0 54.667 20 99.334 60 134.001c38 33.333 84.667 49.333 140 48v61h46v-61c56 0.666992 102 -14.666 138 -45.999s55 -74.666 57 -129.999h-65c-0.666992 36 -13.334 65.333 -38.001 88s-55.334 34 -92.001 34v-266
c76 -18 128.333 -39 157 -63c39.333 -32.667 59 -83.667 59 -153c0 -55.333 -23 -101 -69 -137c-41.333 -32.667 -90.333 -49.667 -147 -51z" />
    <glyph glyph-name="percent" unicode="%" horiz-adv-x="889" 
d="M658 331c45.333 0 83.833 -16.1689 115.5 -48.502s47.5 -71.166 47.5 -116.499c0 -46 -15.667 -85.167 -47 -117.5s-70 -48.5 -116 -48.5c-45.333 0 -84.333 16.333 -117 49s-49 71.667 -49 117c0 44.667 16.333 83.334 49 116.001s71.667 49 117 49zM657 273.998
c-30 0 -55.501 -10.832 -76.501 -32.499s-31.5 -47.5 -31.5 -77.5c0 -28.667 10.833 -53.667 32.5 -75s46.834 -32 75.501 -32s53.667 10.833 75 32.5s32 47.167 32 76.5s-10.667 54.666 -32 75.999s-46.333 32 -75 32zM397.999 531.999
c0 -45.333 -16.333 -84.166 -49 -116.499s-71.667 -48.5 -117 -48.5s-84.166 16.167 -116.499 48.5s-48.5 71.166 -48.5 116.499s16.167 84.333 48.5 117s71.166 49 116.499 49s84.333 -16.333 117 -49s49 -71.667 49 -117zM231.999 423.999
c29.333 0 54.833 10.8311 76.5 32.498s32.5 46.834 32.5 75.501c0 29.333 -10.833 54.833 -32.5 76.5s-47.167 32.5 -76.5 32.5s-54.666 -10.833 -75.999 -32.5s-32 -47.167 -32 -76.5s10.667 -54.666 32 -75.999s46.666 -32 75.999 -32zM667.999 704.997l-397 -719h-52
l397 719h52z" />
    <glyph glyph-name="ampersand" unicode="&#x26;" horiz-adv-x="667" 
d="M454 131l-205.002 244c-41.333 -19.333 -74.666 -45 -99.999 -77c-26.667 -34 -40 -70 -40 -108c0 -46.667 15.333 -84.167 46 -112.5s69.334 -42.5 116.001 -42.5c68 0 129 32 183 96zM377.998 540c5.33301 11.333 8 23.334 8 36.001c0 24 -8.5 45 -25.5 63
s-39.5 27 -67.5 27c-26 0 -48.5 -8 -67.5 -24s-28.5 -36.667 -28.5 -62c0 -30.667 25 -75.667 75 -135c29.333 17.333 49.333 30.666 60 39.999c22 16.667 37.333 35 46 55zM306.998 400.001l181 -213.998c20 33.333 30 80 30 140h59c-3.33301 -79.333 -20 -142 -50 -188
l117 -138h-81l-70 85c-57.333 -69.333 -133 -104 -227 -104c-64 0 -117 19.667 -159 59c-44 40 -66 91.667 -66 155c0 95.333 57.333 169.666 172 222.999c-51.333 59.333 -77 113 -77 161c0 44 16 79 48 105c30 24 68 36 114 36c44 0 80.167 -13.5 108.5 -40.5
s42.5 -59.833 42.5 -98.5c0 -42.667 -14.333 -79.334 -43 -110.001c-17.333 -18 -50.333 -41.667 -99 -71z" />
    <glyph glyph-name="quotesingle" unicode="'" horiz-adv-x="222" 
d="M85 494v226h52v-226h-52z" />
    <glyph glyph-name="parenleft" unicode="(" horiz-adv-x="333" 
d="M226 739h50.999c-102 -148 -153 -304 -153 -468c0 -156 51 -310 153 -462h-51c-59.333 82 -101.666 155 -126.999 219c-29.333 75.333 -44 158 -44 248c0 87.333 15 169.333 45 246c26.667 68 68.667 140.333 126 217z" />
    <glyph glyph-name="parenright" unicode=")" horiz-adv-x="333" 
d="M107 -191h-50.999c102 148 153 304 153 468c0 156 -51 310 -153 462h51c59.333 -82 101.666 -155 126.999 -219c29.333 -75.333 44 -158 44 -248c0 -87.333 -15 -169.333 -45 -246c-26.667 -68 -68.667 -140.333 -126 -217z" />
    <glyph glyph-name="asterisk" unicode="*" horiz-adv-x="389" 
d="M62 646l111 -43v117h42v-117l114 42l15 -44l-114 -37l75 -106l-39 -24l-74 108l-78 -106l-35 27l77 101l-112 40z" />
    <glyph glyph-name="plus" unicode="+" horiz-adv-x="660" 
d="M300 280v220h60v-220h220v-60h-220v-220h-60v220h-220v60h220z" />
    <glyph glyph-name="comma" unicode="," horiz-adv-x="278" 
d="M175 88v-118c0 -56 -24.333 -91.667 -73 -107v37c22.667 14 34 36 34 66v34h-34v88h73z" />
    <glyph glyph-name="hyphen" unicode="-" horiz-adv-x="333" 
d="M40 291h253v-62h-253v62z" />
    <glyph glyph-name="hyphen" unicode="&#x2010;" horiz-adv-x="333" 
d="M40 291h253v-62h-253v62z" />
    <glyph glyph-name="period" unicode="." horiz-adv-x="278" 
d="M175 0h-73v88h73v-88z" />
    <glyph glyph-name="slash" unicode="/" horiz-adv-x="278" 
d="M288 739l-235 -829h-56l235 829h56z" />
    <glyph glyph-name="zero" unicode="0" 
d="M452 347c0 202.667 -58.667 304 -176 304c-115.333 0 -173 -103.667 -173 -311c0 -97.333 12.333 -170 37 -218c28 -54.667 74 -82 138 -82c116 0 174 102.333 174 307zM278 705c93.333 0 159 -40.334 197 -121.001c27.333 -57.333 41 -138.666 41 -243.999
c0 -236 -79.333 -354 -238 -354c-90 0 -154.333 35.667 -193 107c-30.667 58 -46 142.667 -46 254c0 107.333 14.333 189.333 43 246c38.667 74.667 104 112 196 112z" />
    <glyph glyph-name="one" unicode="1" 
d="M302 0v524.001h-182v42c62.667 4 106 13 130 27c34 19.333 55.667 56.666 65 111.999h51v-705h-64z" />
    <glyph glyph-name="two" unicode="2" 
d="M137 474l-68 0.00195312c0 69.333 20.833 125.166 62.5 167.499s97.167 63.5 166.5 63.5c68.667 0 122.667 -19 162 -57c36.667 -35.333 55 -81.333 55 -138c0 -56 -18.667 -105 -56 -147c-26 -28.667 -67.667 -59.334 -125 -92.001c-70.667 -40 -112.667 -65 -126 -75
c-59.333 -45.333 -90 -92.666 -92 -141.999h393v-54h-461c1.33301 73.333 19.666 130.666 54.999 171.999c38 44 89.333 85.667 154 125c75.333 46 119.333 74.667 132 86c37.333 33.333 56 74.333 56 123c0 44.667 -14.667 80 -44 106s-66.333 39 -111 39
c-45.333 0 -82.666 -17.5 -111.999 -52.5s-43 -76.5 -41 -124.5z" />
    <glyph glyph-name="three" unicode="3" 
d="M221 340l0.000976562 52.002c65.333 -0.666992 114 8.33301 146 27c37.333 21.333 56 57.333 56 108c0 41.333 -15 73 -45 95c-26.667 19.333 -61.667 29 -105 29c-44.667 0 -81 -14.167 -109 -42.5s-42 -64.5 -42 -108.5h-64c0 63.333 22.667 116 68 158
c34 31.333 87.333 47 160 47c58.667 0 106 -14.333 142 -43c39.333 -30.667 59 -74.334 59 -131.001c0 -76 -33.333 -128.333 -100 -157c83.333 -26 125 -84 125 -174c0 -60 -19.667 -110 -59 -150c-42 -42 -98 -63.333 -168 -64
c-82.667 -1.33301 -143.334 14.5 -182.001 47.5s-61.667 89.833 -69 170.5h64c0 -52.667 16.333 -93.334 49 -122.001c30.667 -28 72.667 -42 126 -42c50 0 92.167 16 126.5 48s50.5 69 48.5 111c-4 94.667 -68 142 -192 142c-11.333 0 -23 -0.333008 -35 -1z" />
    <glyph glyph-name="four" unicode="4" 
d="M358 0v174h-322v55l328 469h58v-470h98v-54h-98v-174h-64zM358 602l-259 -374h259v374z" />
    <glyph glyph-name="five" unicode="5" 
d="M35 183h64c6.66699 -46.667 25.5 -82.167 56.5 -106.5s70.167 -36.5 117.5 -36.5c51.333 0 92.666 17.667 123.999 53c30 33.333 45 75.666 45 126.999c0 53.333 -16 96.5 -48 129.5s-74.333 49.5 -127 49.5c-64.667 0 -115.667 -24.333 -153 -73l-53 7l57 365h350v-54
h-296l-44 -237c46.667 30.667 98.334 46 155.001 46c66 0 119.667 -21 161 -63s62 -98.667 62 -170s-22.667 -128.666 -68 -171.999c-42 -41.333 -93.667 -62 -155 -62c-155.333 0 -238 65.667 -248 197z" />
    <glyph glyph-name="six" unicode="6" 
d="M503 532h-66c-15.333 79.333 -60 119 -134 119c-76 0 -129.333 -36.667 -160 -110c-18 -42 -30.667 -111.667 -38 -209c26.667 36 49.667 61 69 75c31.333 23.333 70 35 116 35c70.667 0 125.667 -20.167 165 -60.5s59 -95.833 59 -166.5
c0 -71.333 -19.833 -127.333 -59.5 -168s-95.167 -61 -166.5 -61c-164.667 0 -247 112.333 -247 337c0 103.333 16.667 188 50 254c44 85.333 112.667 128 206 128c56.667 0 103.5 -15 140.5 -45s58.833 -72.667 65.5 -128zM288 388c-48 0 -86.501 -16.833 -115.501 -50.5
s-43.5 -75.167 -43.5 -124.5c0 -45.333 12.333 -84 37 -116c28.667 -38 69.667 -57 123 -57c54.667 0 96.334 19 125.001 57c24 31.333 36 71.333 36 120c0 114 -54 171 -162 171z" />
    <glyph glyph-name="seven" unicode="7" 
d="M59 634v64h449v-60c-91.333 -103.333 -163.333 -221 -216 -353c-42 -105.333 -65.333 -200.333 -70 -285h-70c6.66699 98 38 208.333 94 331c52 114.667 113.667 215.667 185 303h-372z" />
    <glyph glyph-name="eight" unicode="8" 
d="M279 345c-51.333 0 -91.999 -12 -121.999 -36c-32.667 -26.667 -49 -65 -49 -115c0 -44.667 16 -81.5 48 -110.5s74.333 -43.5 127 -43.5c47.333 0 86.666 14.667 117.999 44s47 67.333 47 114c0 47.333 -16.333 84.333 -49 111c-30.667 24 -70.667 36 -120 36z
M276.001 651c-41.333 0 -75.001 -10.667 -101.001 -32c-28 -23.333 -42 -55 -42 -95c0 -41.333 15.333 -73 46 -95c26.667 -20 61.334 -30 104.001 -30c90.667 0 136 46.333 136 139c0 75.333 -47.667 113 -143 113zM167 379c-37.333 23.333 -61.998 43.998 -73.998 61.998
c-16 22 -24 52.667 -24 92c0 48.667 19.667 89.834 59 123.501s86.666 49.834 141.999 48.501c60 -1.33301 109 -15 147 -41c44 -30.667 66 -74.334 66 -131.001c0 -74 -32 -126.667 -96 -158c38.667 -14 69.167 -36.5 91.5 -67.5s33.5 -66.833 33.5 -107.5
c0 -68 -22.333 -120.667 -67 -158s-105 -56 -181 -56c-56.667 0 -106 17.333 -148 52c-48 39.333 -72 91.333 -72 156c0 42.667 10.667 80.334 32 113.001s51.666 56.667 90.999 72z" />
    <glyph glyph-name="nine" unicode="9" 
d="M53 155l64.999 0.000976562c15.333 -76.667 61 -115 137 -115c74 0 126.667 36.333 158 109c21.333 47.333 34 115.333 38 204l-2 2c-44.667 -73.333 -108 -110 -190 -110c-66 0 -118.833 20.667 -158.5 62s-59.5 96.333 -59.5 165c0 69.333 18.667 124.666 56 165.999
c40 44.667 97 67 171 67c164.667 0 247 -118.667 247 -356c0 -116 -24.333 -206.333 -73 -271c-45.333 -61.333 -106.666 -92 -183.999 -92c-57.333 0 -104 13.667 -140 41c-38 30 -59.667 72.667 -65 128zM267.999 651.001c-52.667 0 -93 -16.1689 -121 -48.502
s-42 -76.5 -42 -132.5c0 -53.333 14.333 -95.166 43 -125.499s68.667 -45.5 120 -45.5c48.667 0 87.667 17.333 117 52c27.333 32.667 41 73.667 41 123c0 52.667 -14.167 95.334 -42.5 128.001s-66.833 49 -115.5 49z" />
    <glyph glyph-name="colon" unicode=":" horiz-adv-x="278" 
d="M175 0h-73v88h73v-88zM175 404h-73v88h73v-88z" />
    <glyph glyph-name="semicolon" unicode=";" horiz-adv-x="278" 
d="M175 88v-118c0 -56 -24.333 -91.667 -73 -107v37c22.667 14 34 36 34 66v34h-34v88h73zM175 404h-73v88h73v-88z" />
    <glyph glyph-name="less" unicode="&#x3c;" horiz-adv-x="660" 
d="M159 255l421 -197v-64l-500 235v53l500 223v-64z" />
    <glyph glyph-name="equal" unicode="=" horiz-adv-x="660" 
d="M580 378v-60h-500v60h500zM580 184v-60h-500v60h500z" />
    <glyph glyph-name="greater" unicode="&#x3e;" horiz-adv-x="660" 
d="M580 282v-53l-500 -235v64l421 197l-421 186v64z" />
    <glyph glyph-name="question" unicode="?" horiz-adv-x="500" 
d="M274 182l-57.9971 0.000976562c-0.666992 42.667 1.66602 75.667 6.99902 99c8 32.667 24 61.667 48 87l90 89c31.333 34.667 47 67.667 47 99c0 37.333 -14 68.166 -42 92.499s-66 36.5 -114 36.5s-85.833 -16 -113.5 -48s-40.834 -72.333 -39.501 -121h-61
c-4.66699 65.333 13.666 118.833 54.999 160.5s95 62.5 161 62.5c67.333 0 120.5 -17 159.5 -51s58.5 -79.667 58.5 -137c0 -34 -11 -66 -33 -96c-11.333 -15.333 -35.333 -40 -72 -74c-34 -31.333 -58 -58 -72 -80s-21 -61.667 -21 -119zM283.003 0.000976562h-73v88h73
v-88z" />
    <glyph glyph-name="at" unicode="@" horiz-adv-x="800" 
d="M684 167l58.999 -0.000976562c-31.333 -57.333 -76.5 -102.666 -135.5 -135.999s-121.833 -50 -188.5 -50c-106.667 0 -196.5 37.167 -269.5 111.5s-109.5 164.5 -109.5 270.5c0 103.333 37 191.833 111 265.5s162 110.5 264 110.5c96.667 0 178.334 -30 245.001 -90
s100 -135.333 100 -226c0 -76.667 -24.833 -144.5 -74.5 -203.5s-102.5 -88.5 -158.5 -88.5c-46 0 -74.667 17.333 -86 52c-32 -33.333 -71.667 -50 -119 -50c-42 0 -75.667 14.5 -101 43.5s-38 64.5 -38 106.5c0 72.667 23 140 69 202c49.333 67.333 109 101 179 101
c54 0 91.333 -22 112 -66l15 46h67l-101 -302c-8 -24 -12 -41.667 -12 -53c0 -18.667 9.66699 -28 29 -28c40 0 77 27.333 111 82c32 52 48 105.667 48 161c0 78.667 -28.333 143 -85 193c-53.333 46.667 -119.333 70 -198 70c-91.333 0 -167 -32.5 -227 -97.5
s-90 -143.5 -90 -235.5c0 -90.667 30.667 -167.5 92 -230.5s137 -94.5 227 -94.5c52 0 101.667 12 149 36s86 57.333 116 100zM336.999 195.999c42 0 81 31.667 117 95c32 58 48 112.333 48 163c0 20 -6.5 37.167 -19.5 51.5s-29.5 21.5 -49.5 21.5
c-48.667 0 -91 -28.333 -127 -85c-31.333 -50.667 -47 -102 -47 -154c0 -25.333 7 -47 21 -65s33 -27 57 -27z" />
    <glyph glyph-name="A" unicode="A" horiz-adv-x="667" 
d="M85 0h-70l283 720h77l276 -720h-70l-83 226h-328zM334 662l-141 -378h282z" />
    <glyph glyph-name="B" unicode="B" horiz-adv-x="667" 
d="M149 344l-0.000976562 -285.999h173c80.667 0 136 8.66699 166 26c36 20 54 59.667 54 119c0 55.333 -19.333 93.666 -58 114.999c-31.333 17.333 -82.666 26 -153.999 26h-181zM148.999 662.001v-259.999h172c68 0 117 12 147 36c27.333 21.333 41 55 41 101
c0 45.333 -15.167 77.166 -45.5 95.499s-82.833 27.5 -157.5 27.5h-157zM374.999 0.00195312l-294 0.000976562v720h260c157.333 0 236 -60.333 236 -181c0 -46.667 -12 -83.667 -36 -111c-20 -24 -46.333 -38.667 -79 -44v-2c48.667 -7.33301 85.5 -26.833 110.5 -58.5
s37.5 -71.834 37.5 -120.501c0 -135.333 -78.333 -203 -235 -203z" />
    <glyph glyph-name="C" unicode="C" horiz-adv-x="722" 
d="M662 511l-70 -0.00292969c-26 113.333 -101.667 170 -227 170c-82 0 -145.333 -32 -190 -96c-39.333 -56.667 -59 -131 -59 -223s18 -166 54 -222c43.333 -67.333 110.333 -101 201 -101c60 0 110 18.667 150 56c38 34.667 64 82 78 142h71
c-39.333 -170.667 -143.333 -256 -312 -256c-104.667 0 -184 37.667 -238 113c-48 66.667 -72 155.334 -72 266.001c0 130.667 32 228.334 96 293.001c57.333 57.333 137 86 239 86c75.333 0 137.833 -19.667 187.5 -59s80.167 -95.666 91.5 -168.999z" />
    <glyph glyph-name="D" unicode="D" horiz-adv-x="722" 
d="M327 0l-246 -0.000976562v720h246c98.667 0 172.667 -18 222 -54c42.667 -31.333 74.667 -78.666 96 -141.999c16 -50 24 -104.333 24 -163c0 -118 -29 -209 -87 -273c-53.333 -58.667 -138.333 -88 -255 -88zM149 661.999v-604h163c70 0 126.333 11 169 33
c80 41.333 120 131.333 120 270s-41.333 230 -124 274c-33.333 18 -88.333 27 -165 27h-163z" />
    <glyph glyph-name="E" unicode="E" horiz-adv-x="611" 
d="M570 0h-489v720h479v-58h-411v-260h371v-58h-371v-286h421v-58z" />
    <glyph glyph-name="F" unicode="F" 
d="M142 0h-68v720h464v-58h-396v-260h360v-58h-360v-344z" />
    <glyph glyph-name="G" unicode="G" horiz-adv-x="778" 
d="M630 314l-242.999 -0.000976562v58h308v-372h-58v123c-55.333 -94.667 -145 -142 -269 -142c-94.667 0 -170 32 -226 96c-59.333 67.333 -89 163 -89 287c0 111.333 27 200.333 81 267c59.333 72 143.333 108 252 108c78 0 143.333 -18.667 196 -56
c54.667 -40 89.667 -97.333 105 -172h-70c-12 52.667 -39.333 94.667 -82 126c-40.667 29.333 -88.667 44 -144 44c-91.333 0 -160 -31.667 -206 -95c-42.667 -59.333 -64 -142.333 -64 -249c0 -83.333 23 -153 69 -209c48.667 -59.333 112.667 -89 192 -89
c43.333 0 83.333 9.33301 120 28c42.667 22 75 54.667 97 98c19.333 38.667 29.666 88.334 30.999 149.001z" />
    <glyph glyph-name="H" unicode="H" horiz-adv-x="722" 
d="M148 0h-68v720h68v-309h426v309h68v-720h-68v353h-426v-353z" />
    <glyph glyph-name="I" unicode="I" horiz-adv-x="278" 
d="M173 0h-68v720h68v-720z" />
    <glyph glyph-name="J" unicode="J" horiz-adv-x="500" 
d="M22 228h68c-0.666992 -58.667 5 -100.667 17 -126c19.333 -39.333 57 -59 113 -59c84.667 0 127 52 127 156v521h68v-523c0 -144 -67.667 -216 -203 -216c-74 0 -126 25.333 -156 76c-22.667 38 -34 95 -34 171z" />
    <glyph glyph-name="K" unicode="K" horiz-adv-x="667" 
d="M153 0h-68v720h68v-373l369 373h77l-284 -287l334 -433h-83l-300 391l-113 -113v-278z" />
    <glyph glyph-name="L" unicode="L" 
d="M535 0h-454v720h68v-662h386v-58z" />
    <glyph glyph-name="M" unicode="M" horiz-adv-x="833" 
d="M146 0h-68v720h104l236 -635h2l232 635h103v-720h-68v642h-2l-236 -642h-64l-237 642h-2v-642z" />
    <glyph glyph-name="N" unicode="N" horiz-adv-x="722" 
d="M563 0l-414 628h-2v-628h-68v720h77l416 -629h2v629h68v-720h-79z" />
    <glyph glyph-name="O" unicode="O" horiz-adv-x="778" 
d="M53 359c0 110 28.335 199.668 85.002 269.001c60.667 74 143 111 247 111c108 0 192.667 -37 254 -111c56.667 -68.667 85 -158.334 85 -269.001c0 -108.667 -28.333 -197.667 -85 -267c-60.667 -74 -144.334 -111 -251.001 -111s-190.334 37 -251.001 111
c-56 69.333 -84 158.333 -84 267zM389.002 39.001c88 0 155.999 32.335 203.999 97.002c42 57.333 63 131.666 63 222.999c0 100 -24 178.667 -72 236s-113.667 86 -197 86c-87.333 0 -154.666 -32.667 -201.999 -98c-42.667 -58.667 -64 -133.334 -64 -224.001
c0 -92 21.333 -166.667 64 -224c47.333 -64 115.333 -96 204 -96z" />
    <glyph glyph-name="P" unicode="P" horiz-adv-x="611" 
d="M146 0h-68v720h263c156.667 0 235 -67 235 -201s-92 -201 -276 -201h-154v-318zM146 376h156.001c69.333 0 119.666 9.33301 150.999 28c36.667 22.667 55 62.667 55 120c0 92 -62 138 -186 138h-176v-286z" />
    <glyph glyph-name="Q" unicode="Q" horiz-adv-x="778" 
d="M611 68l96.001 -73.999l-38 -46l-106 82c-51.333 -32.667 -111.333 -49 -180 -49c-106.667 0 -190.334 37 -251.001 111c-56 69.333 -84 158.333 -84 267c0 107.333 27.333 195.666 82 264.999c60 76.667 143.333 115 250 115c103.333 0 185 -32.667 245 -98
c62.667 -68 94 -162 94 -282c0 -124 -36 -221 -108 -291zM464.001 181.001l96.999 -73.999c60 57.333 90 141.333 90 252c0 104 -25.667 184.667 -77 242c-48 53.333 -112 80 -192 80c-87.333 0 -154.666 -33 -201.999 -99c-42.667 -58 -64 -132.333 -64 -223
c0 -92.667 21.333 -167.334 64 -224.001c47.333 -64 115.333 -96 204 -96c48 0 90 10.667 126 32l-82 63z" />
    <glyph glyph-name="R" unicode="R" horiz-adv-x="667" 
d="M148 385h212c54 0 96.333 11.333 127 34c34.667 24.667 52 61 52 109c0 89.333 -58.333 134 -175 134h-216v-277zM362 327l-214.002 0.000976562v-327h-68v720h282c163.333 0 245 -63 245 -189c0 -45.333 -9 -81.333 -27 -108s-48 -49.334 -90 -68.001
c37.333 -12.667 63 -39.334 77 -80.001c8.66699 -25.333 13.667 -63.666 15 -114.999c2.66699 -88 12.667 -139 30 -153v-7h-75c-10.667 19.333 -18 58.333 -22 117c-5.33301 73.333 -8.66602 114 -9.99902 122c-7.33301 36 -24.666 60.333 -51.999 73
c-20.667 10 -51 15 -91 15z" />
    <glyph glyph-name="S" unicode="S" horiz-adv-x="611" 
d="M43 215l65.998 -0.00195312c10 -117.333 79 -176 207 -176c60.667 0 107.334 15 140.001 45c28.667 26.667 43 61.334 43 104.001c0 60.667 -38 103.667 -114 129l-211 60c-76 32.667 -114 89 -114 169c0 53.333 20.667 98 62 134c44.667 39.333 105.334 59 182.001 59
c77.333 0 138 -21.333 182 -64c40.667 -38.667 60.667 -89 60 -151h-65c0 52 -18 92 -54 120c-32 24.667 -73 37 -123 37c-58 0 -103.333 -14.333 -136 -43c-28 -25.333 -42 -56.666 -42 -93.999c0 -7.33301 0.666992 -14.666 2 -21.999c8 -50 50.333 -85.333 127 -106
l205 -57c71.333 -32.667 107 -88.667 107 -168c0 -66 -23.167 -117.5 -69.5 -154.5s-110.833 -55.5 -193.5 -55.5c-78 0 -140.333 19.667 -187 59c-49.333 41.333 -74 99.666 -74 174.999z" />
    <glyph glyph-name="T" unicode="T" 
d="M16 662v58h524v-58h-228v-662h-68v662h-228z" />
    <glyph glyph-name="U" unicode="U" horiz-adv-x="722" 
d="M82 271v449.001h68v-429c0 -88.667 16.667 -152.834 50 -192.501s87 -59.5 161 -59.5c76 0 130.667 20.667 164 62c31.333 40 47 103.333 47 190v429h68v-449c0 -193.333 -93 -290 -279 -290s-279 96.667 -279 290z" />
    <glyph glyph-name="V" unicode="V" horiz-adv-x="611" 
d="M268 0l-250 720h71l217 -640l216 640h71l-250 -720h-75z" />
    <glyph glyph-name="W" unicode="W" horiz-adv-x="889" 
d="M482 720l164 -624h2l157 624h70l-189 -720h-75l-167 636h-2l-167 -636h-75l-186 720h68l155 -624h2l167 624h76z" />
    <glyph glyph-name="X" unicode="X" horiz-adv-x="611" 
d="M514 0l-210 318l-209 -318h-77l248 370l-238 350h79l197 -303l198 303h79l-236 -350l247 -370h-78z" />
    <glyph glyph-name="Y" unicode="Y" horiz-adv-x="611" 
d="M90 720l212 -347l217 347h79l-261 -406v-314h-68v309l-257 411h78z" />
    <glyph glyph-name="Z" unicode="Z" horiz-adv-x="611" 
d="M579 0h-548v57l461 605h-422v58h506v-57l-461 -605h464v-58z" />
    <glyph glyph-name="bracketleft" unicode="[" horiz-adv-x="333" 
d="M280 -191h-189v930h191v-50h-127v-830h125v-50z" />
    <glyph glyph-name="backslash" unicode="\" horiz-adv-x="278" 
d="M264 0l-310 739h60l310 -739h-60z" />
    <glyph glyph-name="bracketright" unicode="]" horiz-adv-x="333" 
d="M242 739v-930h-191v50h127v830h-125v50h189z" />
    <glyph glyph-name="asciicircum" unicode="^" horiz-adv-x="660" 
d="M131 245h-58l230 453h52l231 -453h-57l-201 392z" />
    <glyph glyph-name="underscore" unicode="_" horiz-adv-x="500" 
d="M500 -119h-500v58h500v-58z" />
    <glyph glyph-name="grave" unicode="`" horiz-adv-x="333" 
d="M183 574l-138 139h78l111 -139h-51z" />
    <glyph glyph-name="a" unicode="a" 
d="M411 191l-0.000976562 81.001c-34 -14 -85.667 -23.667 -155 -29c-97.333 -7.33301 -146 -44 -146 -110c0 -30 11.667 -53.333 35 -70c20.667 -15.333 46.334 -23 77.001 -23c52 0 95.333 12 130 36c39.333 27.333 59 65.666 59 114.999zM226.999 291.001l82.998 11.0029
c38.667 5.33301 65.167 11.166 79.5 17.499s21.5 24.166 21.5 53.499c0 70 -43 105 -129 105c-91.333 0 -141.666 -39 -150.999 -117h-61c4 58 26.667 101.667 68 131c36 26.667 84.333 40 145 40c125.333 0 188 -53.667 188 -161v-282c0 -32 9 -48 27 -48
c8.66699 0 20.667 2.66699 36 8v-47c-20 -6.66699 -35.667 -10 -47 -10c-27.333 0 -46.5 6.16699 -57.5 18.5s-16.833 32.833 -17.5 61.5c-51.333 -57.333 -115.666 -86 -192.999 -86c-48.667 0 -89 12.333 -121 37c-34.667 27.333 -52 64.666 -52 111.999
c0 88 60.333 140 181 156z" />
    <glyph glyph-name="b" unicode="b" horiz-adv-x="611" 
d="M139 261c0 -64.667 15.001 -116.999 45.001 -156.999c32 -42.667 75.333 -64 130 -64c51.333 0 93.333 17.833 126 53.5s49.667 85.5 51 149.5c1.33301 68.667 -12.334 124 -41.001 166c-31.333 46 -76.666 69 -135.999 69c-52.667 0 -95.334 -21.667 -128.001 -65
c-31.333 -40.667 -47 -91.334 -47 -152.001zM139.001 91.001l-0.000976562 -91h-60v720h60v-285c18.667 30.667 44.834 54.5 78.501 71.5s69.167 25.5 106.5 25.5c74.667 0 133 -27.667 175 -83c37.333 -49.333 56 -113 56 -191c0 -82 -18 -146.333 -54 -193
c-40.667 -52.667 -100.667 -79 -180 -79c-34.667 0 -68.667 9 -102 27c-35.333 19.333 -61.333 45.333 -78 78h-2z" />
    <glyph glyph-name="c" unicode="c" 
d="M500 355l-61.001 0.000976562c-22.667 82 -74 123 -154 123c-57.333 0 -101.666 -23 -132.999 -69c-27.333 -40.667 -41 -91 -41 -151c0 -60.667 13.667 -110.667 41 -150c30.667 -45.333 75 -68 133 -68c44 0 79.667 12.333 107 37s44.666 58.667 51.999 102h64
c-23.333 -128.667 -97.666 -193 -222.999 -193c-78.667 0 -139 26.333 -181 79c-38 47.333 -57 111.666 -57 192.999c0 76 20.333 139.667 61 191c44 55.333 103 83 177 83c125.333 0 197 -59 215 -177z" />
    <glyph glyph-name="d" unicode="d" horiz-adv-x="611" 
d="M472 261c0 60.667 -15.666 111.333 -46.999 152c-32.667 43.333 -75.334 65 -128.001 65c-59.333 0 -104.666 -23 -135.999 -69c-28.667 -42 -42.334 -97.333 -41.001 -166c1.33301 -64 18.333 -113.833 51 -149.5s74.667 -53.5 126 -53.5c54.667 0 98 21.333 130 64
c30 40 45 92.333 45 157zM472.001 434.999l-0.000976562 285.001h60v-720h-60v91h-2c-16.667 -32.667 -42.167 -58.334 -76.5 -77.001s-68.833 -28 -103.5 -28c-79.333 0 -139.333 26.333 -180 79c-36 46.667 -54 111 -54 193c0 78 18.667 141.667 56 191
c42 55.333 100.333 83 175 83c37.333 0 72.833 -8.5 106.5 -25.5s59.834 -40.833 78.501 -71.5z" />
    <glyph glyph-name="e" unicode="e" 
d="M109 295l338 0.000976562c0 52.667 -13.667 95.667 -41 129c-30 36 -71 54 -123 54c-50 0 -90.667 -18.333 -122 -55c-28 -32.667 -45.333 -75.334 -52 -128.001zM511 245.001l-401.998 0.000976562c-0.666992 -58.667 14 -106.667 44 -144
c31.333 -40.667 74.666 -61 129.999 -61c39.333 0 73.166 10.5 101.499 31.5s46.833 50.167 55.5 87.5h67c-35.333 -115.333 -110 -173 -224 -173c-79.333 0 -139.666 26 -180.999 78c-38 47.333 -57 111.666 -57 192.999c0 78 21.333 142.667 64 194c44 54 102 81 174 81
s128.167 -24.833 168.5 -74.5s60.166 -120.5 59.499 -212.5z" />
    <glyph glyph-name="f" unicode="f" horiz-adv-x="278" 
d="M97 468l-77.001 -0.000976562v50h77v82c0 89.333 36.667 134 110 134c19.333 0 36 -1.33301 50 -4v-55c-13.333 3.33301 -25.333 5 -36 5c-27.333 0 -45.666 -10.333 -54.999 -31c-6 -13.333 -9 -35.666 -9 -66.999v-64h100v-50h-100v-468h-60v468z" />
    <glyph glyph-name="g" unicode="g" horiz-adv-x="611" 
d="M472 257c0 64.667 -15.001 116.999 -45.001 156.999c-32 42.667 -75.333 64 -130 64c-51.333 0 -93.333 -17.833 -126 -53.5s-49.667 -85.5 -51 -149.5c-1.33301 -68.667 12.334 -124 41.001 -166c31.333 -46 76.666 -69 135.999 -69c52.667 0 95.334 21.667 128.001 65
c31.333 40.667 47 91.334 47 152.001zM471.999 426.999v91.001h60v-468c0 -174.667 -81 -262 -243 -262c-69.333 0 -124.333 17 -165 51c-33.333 28 -51.333 60.667 -54 98h64c14.667 -63.333 66.334 -95 155.001 -95c74 0 125.333 25.333 154 76
c21.333 37.333 31 92.333 29 165c-18.667 -30.667 -44.834 -54.5 -78.501 -71.5s-69.167 -25.5 -106.5 -25.5c-74.667 0 -133 27.667 -175 83c-37.333 49.333 -56 113 -56 191c0 82 18 146.333 54 193c40.667 52.667 100.667 79 180 79c34.667 0 69.167 -9.33301 103.5 -28
s59.833 -44.334 76.5 -77.001h2z" />
    <glyph glyph-name="h" unicode="h" 
d="M132 0h-60v720h60v-274c54 57.333 109.667 86 167 86c72 0 124.667 -24.667 158 -74c17.333 -25.333 26 -65 26 -119v-339h-60v338c0 93.333 -44.667 140 -134 140c-35.333 0 -66.333 -10.333 -93 -31c-24 -18 -41 -41.333 -51 -70c-8.66699 -24 -13 -56.667 -13 -98
v-279z" />
    <glyph glyph-name="i" unicode="i" horiz-adv-x="222" 
d="M141 0h-60v518h60v-518zM144 631h-66v89h66v-89z" />
    <glyph glyph-name="j" unicode="j" horiz-adv-x="222" 
d="M88 518h60v-587c0 -50 -5.33301 -83.667 -16 -101c-14 -22.667 -43.333 -34 -88 -34c-14.667 0 -27.667 1.33301 -39 4v53c9.33301 -1.33301 17.666 -2 24.999 -2c22.667 0 38.334 6.33301 47.001 19c7.33301 10 11 27.667 11 53v595zM151 720v-89h-66v89h66z" />
    <glyph glyph-name="k" unicode="k" horiz-adv-x="500" 
d="M128 0h-60v720h60v-448l254 246h82l-194 -187l217 -331h-67l-194 289l-98 -93v-196z" />
    <glyph glyph-name="l" unicode="l" horiz-adv-x="222" 
d="M141 0h-60v720h60v-720z" />
    <glyph glyph-name="m" unicode="m" horiz-adv-x="833" 
d="M124 279v-279.001h-60v518h60v-78h2c32 61.333 85.333 92 160 92c44 0 78.667 -9.66699 104 -29c19.333 -15.333 35.333 -39 48 -71c34 66.667 90.333 100 169 100c64 0 108.333 -21 133 -63c18.667 -31.333 28 -78.666 28 -141.999v-327h-60v358c0 80 -37 120 -111 120
c-48 0 -87 -19.667 -117 -59c-22.667 -30 -34 -76.667 -34 -140v-279h-60v358c0 80 -37 120 -111 120c-48 0 -87 -19.667 -117 -59c-22.667 -30 -34 -76.667 -34 -140z" />
    <glyph glyph-name="n" unicode="n" 
d="M132 279v-279h-60v518h60v-72c54 57.333 109.667 86 167 86c72 0 124.667 -24.667 158 -74c17.333 -25.333 26 -65 26 -119v-339h-60v338c0 93.333 -44.667 140 -134 140c-35.333 0 -66.333 -10.333 -93 -31c-24 -18 -41 -41.333 -51 -70
c-8.66699 -24 -13 -56.667 -13 -98z" />
    <glyph glyph-name="o" unicode="o" 
d="M278 -14c-69.333 0.666992 -126 23.667 -170 69c-46.667 49.333 -70 117.333 -70 204c0 79.333 20 143.666 60 192.999c43.333 53.333 103.333 80 180 80c78 0 138.333 -26.333 181 -79c39.333 -49.333 59 -114 59 -194c0 -82 -22 -148.167 -66 -198.5
s-102 -75.166 -174 -74.499zM454 259c0 66 -13.667 117.668 -41 155.001c-30 42.667 -75 64 -135 64c-58.667 0 -103.667 -22.333 -135 -67c-27.333 -39.333 -41 -90 -41 -152c0 -66 15.333 -119 46 -159s74 -60 130 -60c58.667 0 103.667 22.667 135 68
c27.333 39.333 41 89.666 41 150.999z" />
    <glyph glyph-name="p" unicode="p" horiz-adv-x="611" 
d="M139 257c0 -60.667 15.666 -111.333 46.999 -152c32.667 -43.333 75.334 -65 128.001 -65c59.333 0 104.666 23 135.999 69c28.667 42 42.334 97.333 41.001 166c-1.33301 64 -18.333 113.833 -51 149.5s-74.667 53.5 -126 53.5c-54.667 0 -98 -21.333 -130 -64
c-30 -40 -45 -92.333 -45 -157zM138.999 83.001l0.000976562 -287h-60v722h60v-91h2c16.667 32.667 42.667 58.667 78 78c33.333 18 67.333 27 102 27c79.333 0 139.333 -26.333 180 -79c36 -46.667 54 -111 54 -193c0 -78 -18.667 -141.667 -56 -191
c-42 -55.333 -100.333 -83 -175 -83c-37.333 0 -72.833 8.5 -106.5 25.5s-59.834 40.833 -78.501 71.5z" />
    <glyph glyph-name="q" unicode="q" horiz-adv-x="611" 
d="M472 261c0 60.667 -15.666 111.333 -46.999 152c-32.667 43.333 -75.334 65 -128.001 65c-59.333 0 -104.666 -23 -135.999 -69c-28.667 -42 -42.334 -97.333 -41.001 -166c1.33301 -64 18.333 -113.833 51 -149.5s74.667 -53.5 126 -53.5c54.667 0 98 21.333 130 64
c30 40 45 92.333 45 157zM472.001 426.999l0.000976562 91.001h60v-722h-60v287c-18.667 -30.667 -44.834 -54.5 -78.501 -71.5s-69.167 -25.5 -106.5 -25.5c-74.667 0 -133 27.667 -175 83c-37.333 49.333 -56 113 -56 191c0 82 18 146.333 54 193
c40.667 52.667 100.667 79 180 79c34.667 0 69.167 -9.33301 103.5 -28s59.833 -44.334 76.5 -77.001h2z" />
    <glyph glyph-name="r" unicode="r" horiz-adv-x="333" 
d="M135 254v-254.001h-60v518h60v-97h2c16 40.667 37 69.334 63 86.001s61.333 25 106 25v-65c-114 2.66699 -171 -68.333 -171 -213z" />
    <glyph glyph-name="s" unicode="s" horiz-adv-x="500" 
d="M46 162h61.002c9.33301 -44 26.166 -75.333 50.499 -94s59.166 -28 104.499 -28c41.333 0 73.666 9.66699 96.999 29c20.667 18 31 40.333 31 67c0 40.667 -28.667 69.334 -86 86.001l-160 40c-57.333 23.333 -86 64 -86 122c0 44 16.167 79.667 48.5 107
s76.833 41 133.5 41c119.333 0 186 -54.333 200 -163h-61c-10 72.667 -56.667 109 -140 109c-37.333 0 -66.166 -8 -86.499 -24s-30.5 -37.667 -30.5 -65c0 -38 28.667 -66 86 -84l160 -46c57.333 -24.667 86 -65.334 86 -122.001c0 -48 -20 -85.667 -60 -113
c-37.333 -25.333 -87.666 -38 -150.999 -38c-59.333 0 -106.333 16.667 -141 50s-53.334 75.333 -56.001 126z" />
    <glyph glyph-name="t" unicode="t" horiz-adv-x="278" 
d="M254 47v-48.999c-37.333 -8 -60.333 -12 -69 -12c-61.333 0 -92 34.333 -92 103v379h-73v50h73v144h60v-144h97v-50h-97v-355c0 -28.667 2.33301 -47.334 7 -56.001c6.66699 -11.333 21.667 -17 45 -17c14 0 30.333 2.33301 49 7z" />
    <glyph glyph-name="u" unicode="u" 
d="M423 236l-0.000976562 282.001h60v-518h-60v72c-23.333 -26.667 -43.666 -45.334 -60.999 -56.001c-30.667 -20 -66 -30 -106 -30c-122.667 0 -184 63.667 -184 191v341h60v-340c0 -92 44.333 -138 133 -138c48.667 0 87.167 18.167 115.5 54.5s42.5 83.5 42.5 141.5z
" />
    <glyph glyph-name="v" unicode="v" horiz-adv-x="500" 
d="M215 0l-198 518h65l168 -444l168 444h65l-201 -518h-67z" />
    <glyph glyph-name="w" unicode="w" horiz-adv-x="722" 
d="M396 518l114 -438l136 438h61l-168 -518h-64l-113 435h-2l-115 -435h-72l-158 518h60l134 -442l120 442h67z" />
    <glyph glyph-name="x" unicode="x" horiz-adv-x="500" 
d="M409 0l-157 224l-161 -224h-73l199 268l-183 250h74l143 -206l147 206h76l-187 -250l194 -268h-72z" />
    <glyph glyph-name="y" unicode="y" horiz-adv-x="500" 
d="M68 -197v56c21.333 -4 38 -6 50 -6c28 0 50.333 18.333 67 55l34 88l-201 522h67l166 -445l166 445h65l-193 -511c-29.333 -78 -52.333 -129.333 -69 -154c-25.333 -38 -57 -57 -95 -57c-19.333 0 -38.333 2.33301 -57 7z" />
    <glyph glyph-name="z" unicode="z" horiz-adv-x="500" 
d="M467 0h-434v53l344 415h-321v50h398v-53l-344 -415h357v-50z" />
    <glyph glyph-name="braceleft" unicode="{" horiz-adv-x="333" 
d="M127 395v182.002c0 62 10.667 104.833 32 128.5s61.333 34.167 120 31.5l-2 2c-57.333 -18.667 -86 -59.667 -86 -123v-192c0 -43.333 -5 -75.333 -15 -96c-12 -26.667 -34.333 -44.334 -67 -53.001v-2c31.333 -7.33301 53.333 -22.333 66 -45c10.667 -20 16 -50 16 -90
v-206c0 -64 29.333 -104.333 88 -121v-2c-57.333 -0.666992 -97 10 -119 32s-33 59.333 -33 112v204c0 33.333 -5 58.666 -15 75.999c-12.667 20.667 -35 34 -67 40v2c34.667 10 57.667 24.333 69 43c8.66699 15.333 13 41 13 77z" />
    <glyph glyph-name="bar" unicode="|" horiz-adv-x="222" 
d="M81 0v739h60v-739h-60z" />
    <glyph glyph-name="braceright" unicode="}" horiz-adv-x="333" 
d="M203 157v-182.002c0 -62 -10.333 -104.333 -31 -127c-22 -24.667 -62.333 -35.667 -121 -33l2 -2c57.333 18.667 86 59.667 86 123v192c0 43.333 5 75.333 15 96c12 26.667 34.333 44.334 67 53.001v2c-31.333 7.33301 -53.333 22.333 -66 45c-10.667 20 -16 50 -16 90
v206c0 64 -29.333 104.333 -88 121v2c57.333 0.666992 97 -10 119 -32s33 -59.333 33 -112v-204c0 -33.333 5.33301 -58.666 16 -75.999c12 -20.667 34 -34 66 -40v-2c-34.667 -10 -57.667 -24.333 -69 -43c-8.66699 -15.333 -13 -41 -13 -77z" />
    <glyph glyph-name="asciitilde" unicode="~" horiz-adv-x="660" 
d="M221 324c26 0 64.834 -12 116.501 -36s86.167 -36 103.5 -36c35.333 0 68.333 29 99 87l40 -34c-38 -72.667 -84.667 -109 -140 -109c-22.667 0 -67.667 14 -135 42c-13.333 6.66699 -27 13 -41 19c-16.667 7.33301 -31 11 -43 11c-35.333 0 -71.333 -31.333 -108 -94
l-33 47c21.333 31.333 39.666 54 54.999 68c26 23.333 54.667 35 86 35z" />
    <glyph glyph-name="euro" horiz-adv-x="498" 
d="M522 633l-22.999 -156l-48 6c0 104.667 -31.333 157 -94 157c-68.667 0 -122.334 -70.333 -161.001 -211h172l-21 -48h-164c-4 -16 -9.33301 -40.333 -16 -73h147l-21 -47h-134c-4 -27.333 -6 -52 -6 -74c0 -36.667 7 -67 21 -91c17.333 -28.667 43.333 -43 78 -43
c38.667 0 72.334 22.667 101.001 68c16 25.333 33 65 51 119l55 -10l-54 -188c-51.333 -35.333 -104.333 -53 -159 -53c-74 0 -129.333 28 -166 84c-31.333 47.333 -47 110 -47 188h-74l21 47h56c2 16.667 6 41 12 73h-66l21 48h59c27.333 74.667 63.333 135.667 108 183
c55.333 58.667 117.666 88 186.999 88c62.667 0 117.667 -22.333 165 -67z" />
    <glyph glyph-name="nonbreakingspace" unicode="&#xa0;" horiz-adv-x="1000" 
 />
    <glyph glyph-name="exclamdown" unicode="&#xa1;" horiz-adv-x="333" 
d="M144 352h45l14 -315v-224h-73v224zM203 445h-73v87h73v-87z" />
    <glyph glyph-name="cent" unicode="&#xa2;" 
d="M191 68l133 404.999c-10.667 3.33301 -24.334 5 -41.001 5c-57.333 0 -101.666 -23 -132.999 -69c-27.333 -40.667 -41 -91 -41 -151c0 -91.333 27.333 -154.666 82 -189.999zM367 455.999l-134.997 -408.999c18.667 -4.66699 35.667 -7 51 -7c44 0 79.667 12.333 107 37
s44.666 58.667 51.999 102h64c-8 -54.667 -30.667 -99.667 -68 -135c-40.667 -38.667 -92.334 -58 -155.001 -58c-22.667 0 -45.334 2.66699 -68.001 8l-45 -135h-47l49 150c-84.667 40.667 -127 123.667 -127 249c0 86 22.667 153.667 68 203c43.333 47.333 100 71 170 71
c19.333 0 39 -1.66699 59 -5l40 120h48l-44 -134c62.667 -26.667 100 -79.334 112 -158.001h-61c-12 46 -35.333 79.667 -70 101z" />
    <glyph glyph-name="sterling" unicode="&#xa3;" 
d="M184 365h166v-42h-151c7.33301 -25.333 11 -48 11 -68c0 -60 -32 -122.667 -96 -188l2 -2c34.667 18 64.334 27 89.001 27c28 0 60.5 -7 97.5 -21s65.5 -21 85.5 -21c32.667 0 68.667 19 108 57l34 -51c-30 -27.333 -56.667 -45.833 -80 -55.5
s-54.666 -14.5 -93.999 -14.5c-16 0 -43.5 7.33301 -82.5 22s-70.5 22 -94.5 22c-21.333 0 -56.333 -11 -105 -33l-35 58c70.667 51.333 106 111.333 106 180c0 30.667 -7 60 -21 88h-99v42h81l-33 62c-13.333 30 -20 61.667 -20 95c0 54.667 18.667 98.334 56 131.001
c40 34.667 95.667 52 167 52c67.333 0 122.166 -19.667 164.499 -59s63.166 -92 62.499 -158h-66c-2 52 -17.167 92.167 -45.5 120.5s-66.5 42.5 -114.5 42.5c-43.333 0 -80 -11 -110 -33c-33.333 -24 -50 -57 -50 -99c0 -24.667 7.66699 -51.334 23 -80.001z" />
    <glyph glyph-name="currency" unicode="&#xa4;" 
d="M32 110l43 42.002c-32 47.333 -48 96.666 -48 147.999c0 55.333 16 105.666 48 150.999l-43 43l52 53l44 -43c43.333 32.667 94.666 49 153.999 49c50 0 98.667 -16.333 146 -49l44 43l52 -53l-43 -43c32 -46 48 -98 48 -156c0 -48 -16 -95.667 -48 -143l43 -42l-52 -53
l-44 43c-45.333 -33.333 -97 -50 -155 -50c-49.333 0 -97.666 16.667 -144.999 50l-44 -43zM282 481.002c-52 0 -95.5 -17.167 -130.5 -51.5s-52.5 -77.5 -52.5 -129.5c0 -48.667 17.5 -90.667 52.5 -126s76.5 -53 124.5 -53c50 0 92.833 17.667 128.5 53
s53.5 78.333 53.5 129c0 48 -17.333 89.667 -52 125s-76 53 -124 53z" />
    <glyph glyph-name="yen" unicode="&#xa5;" 
d="M80 720l197 -347l202 347h73l-171 -286h111v-54h-144l-38 -66v-42h182v-54h-182v-218h-64v218h-182v54h182v42l-38 66h-144v54h111l-171 286h76z" />
    <glyph glyph-name="brokenbar" unicode="&#xa6;" horiz-adv-x="222" 
d="M81 0v296h60v-296h-60zM81 443v296h60v-296h-60z" />
    <glyph glyph-name="section" unicode="&#xa7;" 
d="M363 341l-173 106c-58.667 -24.667 -88 -59.334 -88 -104.001c0 -37.333 28.333 -74.333 85 -111l178 -115c59.333 32.667 89 70.334 89 113.001c0 36.667 -30.333 73.667 -91 111zM281 102l-130.996 82c-68 42.667 -102 93 -102 151c0 32 10.333 61.333 31 88
c19.333 24 44.666 42.667 75.999 56c-35.333 40 -53 78.333 -53 115c0 41.333 15.333 75.333 46 102c33.333 28.667 78.333 43 135 43c55.333 0 98.166 -16 128.499 -48s45.166 -75.667 44.499 -131h-54c-2 83.333 -43.333 125 -124 125
c-33.333 0 -60.333 -8.16699 -81 -24.5s-31 -40.5 -31 -72.5c0 -37.333 29.667 -74.666 89 -111.999l164 -99c59.333 -42 89 -87.667 89 -137c0 -34.667 -11 -65.334 -33 -92.001c-15.333 -18.667 -41 -40 -77 -64c38.667 -36 58 -72.667 58 -110
c0 -49.333 -17.333 -88 -52 -116c-32 -26 -73.333 -39 -124 -39c-56 0 -100.333 16.333 -133 49s-50.334 77 -53.001 133h61c0 -85.333 42 -128 126 -128c30 0 56 8.33301 78 25s33 39.667 33 69c0 44 -37 89 -111 135z" />
    <glyph glyph-name="dieresis" unicode="&#xa8;" horiz-adv-x="333" 
d="M60 584v102h65v-102h-65zM219 584v102h65v-102h-65z" />
    <glyph glyph-name="copyright" unicode="&#xa9;" horiz-adv-x="800" 
d="M401 -19c-104.667 0 -194.167 37.167 -268.5 111.5s-111.5 163.833 -111.5 268.5c0 104 37.167 193 111.5 267s163.833 111 268.5 111s193.834 -37 267.501 -111s110.5 -163 110.5 -267c0 -105.333 -36.833 -195 -110.5 -269s-162.834 -111 -267.501 -111zM401 31
c91.333 0 167.166 31.667 227.499 95s90.5 141.666 90.5 234.999c0 92.667 -30.167 170.5 -90.5 233.5s-136.166 94.5 -227.499 94.5c-92 0 -168.333 -31.5 -229 -94.5s-91 -140.833 -91 -233.5c0 -93.333 30.333 -171.666 91 -234.999s137 -95 229 -95zM539 292
l54.001 0.000976562c-4.66699 -44 -23.834 -79.5 -57.501 -106.5s-72.834 -40.5 -117.501 -40.5c-62.667 0 -113.334 20.667 -152.001 62s-58 93.666 -58 156.999c0 64 18.667 116.167 56 156.5s87.666 60.5 150.999 60.5c46.667 0 86.334 -12.667 119.001 -38
s52.334 -60.333 59.001 -105h-54c-5.33301 29.333 -19.5 53.166 -42.5 71.499s-49.833 27.5 -80.5 27.5c-48 0 -85.333 -17 -112 -51c-25.333 -31.333 -38 -71.666 -38 -120.999c0 -48 13 -88.667 39 -122c28.667 -36 66.334 -54 113.001 -54c30.667 0 57.5 9.5 80.5 28.5
s36.5 43.833 40.5 74.5z" />
    <glyph glyph-name="ordfeminine" unicode="&#xaa;" horiz-adv-x="334" 
d="M245 534v49c-22 -8.66699 -55.667 -14.667 -101 -18c-64.667 -4.66699 -97 -26.667 -97 -66c0 -18 8 -32.333 24 -43c14 -10 31 -15 51 -15c34 0 62.333 7.66699 85 23c25.333 16.667 38 40 38 70zM8 307v39h317v-39h-317zM125 594l54.002 7
c12.667 1.33301 30 4.66602 52 9.99902c9.33301 4 14 14.667 14 32c0 44 -28 66 -84 66c-59.333 0 -92 -24.333 -98 -73h-40c5.33301 68.667 51.666 103 138.999 103c81.333 0 122 -32.333 122 -97v-169c0 -19.333 6 -29 18 -29c5.33301 0 13 1.66699 23 5v-28
c-16 -5.33301 -32 -7 -48 -5c-20 2.66699 -30.667 18.334 -32 47.001c-32.667 -34.667 -74.334 -52 -125.001 -52c-31.333 0 -57.333 7.33301 -78 22c-22.667 16 -34 38.333 -34 67c0 52.667 39 84 117 94z" />
    <glyph glyph-name="guillemotleft" unicode="&#xab;" 
d="M297 228v63l146 113v-63l-104 -82l104 -80v-62zM113 228v63l146 113v-63l-104 -82l104 -80v-62z" />
    <glyph glyph-name="logicalnot" unicode="&#xac;" horiz-adv-x="660" 
d="M516 112v206h-436v60h500v-266h-64z" />
    <glyph glyph-name="sfthyphen" unicode="&#xad;" horiz-adv-x="338" 
d="M8 174l33 122h246l-33 -122h-246z" />
    <glyph glyph-name="registered" unicode="&#xae;" horiz-adv-x="800" 
d="M401 -19c-104.667 0 -194.167 37.167 -268.5 111.5s-111.5 163.833 -111.5 268.5c0 104 37.167 193 111.5 267s163.833 111 268.5 111s193.834 -37 267.501 -111s110.5 -163 110.5 -267c0 -105.333 -36.833 -195 -110.5 -269s-162.834 -111 -267.501 -111zM401 31
c91.333 0 167.166 31.667 227.499 95s90.5 141.666 90.5 234.999c0 92.667 -30.167 170.5 -90.5 233.5s-136.166 94.5 -227.499 94.5c-92 0 -168.333 -31.5 -229 -94.5s-91 -140.833 -91 -233.5c0 -93.333 30.333 -171.666 91 -234.999s137 -95 229 -95zM462 344
l128 -194.999h-62l-121 195h-95v-195h-52v423h185c100 0 150 -37.333 150 -112s-44.333 -113.334 -133 -116.001zM312 385.001l79 0.000976562c50.667 0 83 2 97 6c34 9.33301 51 32.666 51 69.999c0 49.333 -35.333 74 -106 74h-121v-150z" />
    <glyph glyph-name="macron" unicode="&#xaf;" horiz-adv-x="333" 
d="M23 612v45h296v-45h-296z" />
    <glyph glyph-name="macron" unicode="&#x2c9;" horiz-adv-x="333" 
d="M23 612v45h296v-45h-296z" />
    <glyph glyph-name="degree" unicode="&#xb0;" horiz-adv-x="400" 
d="M350 555c0 -41.333 -14.667 -76.666 -44 -105.999s-64.666 -44 -105.999 -44s-76.666 14.667 -105.999 44s-44 64.666 -44 105.999s14.667 76.666 44 105.999s64.666 44 105.999 44s76.666 -14.667 105.999 -44s44 -64.666 44 -105.999zM310 555
c0 30 -10.832 55.833 -32.499 77.5s-47.834 32.5 -78.501 32.5c-30 0 -55.667 -10.833 -77 -32.5s-32 -47.5 -32 -77.5c0 -30.667 10.667 -56.667 32 -78s47.333 -32 78 -32c30 0 55.833 10.667 77.5 32s32.5 47.333 32.5 78z" />
    <glyph glyph-name="plusminus" unicode="&#xb1;" horiz-adv-x="660" 
d="M300 330v170h60v-170h220v-60h-220v-170h-60v170h-220v60h220zM80 0v60h500v-60h-500z" />
    <glyph glyph-name="twosuperior" unicode="&#xb2;" horiz-adv-x="333" 
d="M72 600l-44.002 -0.000976562c0 42 13.5 75.667 40.5 101s63.167 38 108.5 38c44.667 0 79.334 -11 104.001 -33s37 -50 37 -84c0 -46.667 -24.667 -86 -74 -118l-125 -70c-38.667 -27.333 -58.667 -56 -60 -86h255v-32h-299c0 44 12 78.667 36 104s57 50 99 74
c49.333 28 78.333 45.333 87 52c24 20 36 44.667 36 74c0 26.667 -9.66699 47.834 -29 63.501s-43.333 23.5 -72 23.5c-29.333 0 -53.666 -10.5 -72.999 -31.5s-28.333 -46.167 -27 -75.5z" />
    <glyph glyph-name="threesuperior" unicode="&#xb3;" horiz-adv-x="333" 
d="M133 520l-0.00195312 31c87.333 0 131 27 131 81c0 24.667 -9.16699 43.334 -27.5 56.001s-41.5 19 -69.5 19c-29.333 0 -53.166 -8.5 -71.499 -25.5s-27.5 -38.833 -27.5 -65.5h-41c0 38.667 14.667 70.334 44 95.001c22 18.667 56.667 28 104 28c38 0 69.333 -9 94 -27
s37 -43.667 37 -77c0 -45.333 -21.667 -77 -65 -95c54 -15.333 81 -50 81 -104c0 -36.667 -12.667 -66.667 -38 -90c-27.333 -24.667 -64 -37.334 -110 -38.001c-54 -0.666992 -93 8.66602 -117 27.999c-26 19.333 -41.333 53.333 -46 102h42
c0 -31.333 10.333 -55.5 31 -72.5s48.334 -25.5 83.001 -25.5c32.667 0 60 9.5 82 28.5s32.333 41.167 31 66.5c-2.66699 62.667 -51.667 91 -147 85z" />
    <glyph glyph-name="acute" unicode="&#xb4;" horiz-adv-x="333" 
d="M160 574h-51l111 139h77z" />
    <glyph glyph-name="mu" unicode="&#xb5;" 
d="M423 236l-0.000976562 282.001h60v-518h-60v72c-23.333 -26.667 -43.666 -45.334 -60.999 -56.001c-30.667 -20 -66 -30 -106 -30c-48 0 -89.333 10.667 -124 32v-222h-60v722h60v-340c0 -92 44.333 -138 133 -138c48.667 0 87.167 18.167 115.5 54.5
s42.5 83.5 42.5 141.5z" />
    <glyph glyph-name="mu" unicode="&#x3bc;" 
d="M423 236l-0.000976562 282.001h60v-518h-60v72c-23.333 -26.667 -43.666 -45.334 -60.999 -56.001c-30.667 -20 -66 -30 -106 -30c-48 0 -89.333 10.667 -124 32v-222h-60v722h60v-340c0 -92 44.333 -138 133 -138c48.667 0 87.167 18.167 115.5 54.5
s42.5 83.5 42.5 141.5z" />
    <glyph glyph-name="paragraph" unicode="&#xb6;" horiz-adv-x="650" 
d="M258 -146l-0.000976562 482c-51.333 -0.666992 -96.166 18 -134.499 56s-57.5 82.667 -57.5 134c0 62 19.667 109.833 59 143.5s94 50.5 164 50.5h217v-866h-60v799h-128v-799h-60z" />
    <glyph glyph-name="ch270" unicode="&#xb7;" horiz-adv-x="249" 
d="M38 348c0 22.667 7.66699 41.667 23 57s34.333 23 57 23s41.834 -7.66699 57.501 -23s23.5 -34.333 23.5 -57s-7.83301 -41.834 -23.5 -57.501s-34.834 -23.5 -57.501 -23.5s-41.667 7.83301 -57 23.5s-23 34.834 -23 57.501z" />
    <glyph glyph-name="ch270" unicode="&#x2219;" horiz-adv-x="249" 
d="M38 348c0 22.667 7.66699 41.667 23 57s34.333 23 57 23s41.834 -7.66699 57.501 -23s23.5 -34.333 23.5 -57s-7.83301 -41.834 -23.5 -57.501s-34.834 -23.5 -57.501 -23.5s-41.667 7.83301 -57 23.5s-23 34.834 -23 57.501z" />
    <glyph glyph-name="cedilla" unicode="&#xb8;" horiz-adv-x="333" 
d="M54 -188l14.998 30c30 -10 51.333 -15 64 -15c16.667 0 31.834 4 45.501 12s20.5 19.667 20.5 35c0 26 -16.667 39 -50 39c-9.33301 0 -24 -2.66699 -44 -8l-15 13l60 82h39l-47 -59c16 4 28 6 36 6c20.667 0 38 -5.33301 52 -16s22.333 -22.667 25 -36
c1.33301 -6.66699 2 -13 2 -19c0 -27.333 -11.333 -48.333 -34 -63c-20 -13.333 -46 -20 -78 -20c-27.333 0 -57.666 6.33301 -90.999 19z" />
    <glyph glyph-name="onesuperior" unicode="&#xb9;" horiz-adv-x="333" 
d="M205 316v314.001h-118v26c40.667 2.66699 69 8 85 16c21.333 11.333 35.333 33.666 42 66.999h33v-423h-42z" />
    <glyph glyph-name="ordmasculine" unicode="&#xba;" horiz-adv-x="334" 
d="M167 411c-45.333 0.666992 -81.999 14.665 -109.999 41.998c-30.667 29.333 -46 70 -46 122c0 48 13 86.667 39 116c28 32 67 48 117 48c50.667 0 89.667 -16 117 -48c26 -29.333 39 -68 39 -116c0 -49.333 -14.333 -89.166 -43 -119.499
s-66.334 -45.166 -113.001 -44.499zM50.001 574.998c0 -39.333 10.333 -71.499 31 -96.499s49.334 -37.5 86.001 -37.5c38 0 67.667 14 89 42c18.667 24.667 28 55.334 28 92.001c0 39.333 -9 70.666 -27 93.999c-20.667 26.667 -50.667 40 -90 40
c-38.667 0 -68.334 -14 -89.001 -42c-18.667 -24.667 -28 -55.334 -28 -92.001zM11.001 306.999v39h312v-39h-312z" />
    <glyph glyph-name="guillemotright" unicode="&#xbb;" 
d="M443 293v-63l-146 -113v63l104 82l-104 80v62zM259 293v-63l-146 -113v63l104 82l-104 80v62z" />
    <glyph glyph-name="onequarter" unicode="&#xbc;" horiz-adv-x="834" 
d="M219 -14h-51l444 719h51zM158 316v314.001h-118v26c40.667 2.66699 69 8 85 16c21.333 11.333 35.333 33.666 42 66.999h33v-423h-42zM689 0.000976562v104h-209v33l213 282h38v-282h63v-33h-63v-104h-42zM689 361.001l-168 -224h168v224z" />
    <glyph glyph-name="onehalf" unicode="&#xbd;" horiz-adv-x="834" 
d="M179 -14h-51l444 719h51zM158 316v314.001h-118v26c40.667 2.66699 69 8 85 16c21.333 11.333 35.333 33.666 42 66.999h33v-423h-42zM548 284.001l-44.002 -0.000976562c0 42 13.5 75.667 40.5 101s63.167 38 108.5 38c44.667 0 79.334 -11 104.001 -33s37 -50 37 -84
c0 -46.667 -24.667 -86 -74 -118l-125 -70c-38.667 -27.333 -58.667 -56 -60 -86h255v-32h-299c0 44 12 78.667 36 104s57 50 99 74c49.333 28 78.333 45.333 87 52c24 20 36 44.667 36 74c0 26.667 -9.66699 47.834 -29 63.501s-43.333 23.5 -72 23.5
c-29.333 0 -53.666 -10.5 -72.999 -31.5s-28.333 -46.167 -27 -75.5z" />
    <glyph glyph-name="threequarters" unicode="&#xbe;" horiz-adv-x="834" 
d="M689 361l-168 -224h168v224zM162 520l-0.00195312 31c87.333 0 131 27 131 81c0 24.667 -9.16699 43.334 -27.5 56.001s-41.5 19 -69.5 19c-29.333 0 -53.166 -8.5 -71.499 -25.5s-27.5 -38.833 -27.5 -65.5h-41c0 38.667 14.667 70.334 44 95.001
c22 18.667 56.667 28 104 28c38 0 69.333 -9 94 -27s37 -43.667 37 -77c0 -45.333 -21.667 -77 -65 -95c54 -15.333 81 -50 81 -104c0 -36.667 -12.667 -66.667 -38 -90c-27.333 -24.667 -64 -37.334 -110 -38.001c-54 -0.666992 -93 8.66602 -117 27.999
c-26 19.333 -41.333 53.333 -46 102h42c0 -31.333 10.333 -55.5 31 -72.5s48.334 -25.5 83.001 -25.5c32.667 0 60 9.5 82 28.5s32.333 41.167 31 66.5c-2.66699 62.667 -51.667 91 -147 85zM258.998 -14h-51l444 719h51zM688.998 0v104h-209v33l213 282h38v-282h63v-33h-63
v-104h-42z" />
    <glyph glyph-name="questiondown" unicode="&#xbf;" horiz-adv-x="500" 
d="M401 16l60.9971 -0.000976562c4.66699 -65.333 -13.666 -118.833 -54.999 -160.5s-95 -62.5 -161 -62.5c-67.333 0 -120.5 17 -159.5 51s-58.5 79.667 -58.5 137c0 34 11 66 33 96c11.333 15.333 35.333 40 72 74c34 31.333 58 58 72 80s21 61.667 21 119h58
c0.666992 -42.667 -1.66602 -75.667 -6.99902 -99c-8 -32.667 -24 -61.667 -48 -87l-90 -89c-31.333 -34.667 -47 -67.667 -47 -99c0 -37.333 14 -68.166 42 -92.499s66 -36.5 114 -36.5s85.833 16 113.5 48s40.834 72.333 39.501 121zM216.997 531.999h73v-88h-73v88z" />
    <glyph glyph-name="Agrave" unicode="&#xc0;" horiz-adv-x="667" 
d="M345 780h-21l-151 139h81zM651 0h-70l-83 226h-328l-85 -226h-70l283 720h77zM475 284l-141 378l-141 -378h282z" />
    <glyph glyph-name="Aacute" unicode="&#xc1;" horiz-adv-x="667" 
d="M85 0h-70l283 720h77l276 -720h-70l-83 226h-328zM334 662l-141 -378h282zM344 780h-21l91 139h81z" />
    <glyph glyph-name="Acircumflex" unicode="&#xc2;" horiz-adv-x="667" 
d="M85 0h-70l283 720h77l276 -720h-70l-83 226h-328zM334 662l-141 -378h282zM334 832l-74 -92h-58l102 125h61l101 -125h-58z" />
    <glyph glyph-name="Atilde" unicode="&#xc3;" horiz-adv-x="667" 
d="M85 0h-70l283 720h77l276 -720h-70l-83 226h-328zM334 662l-141 -378h282zM201 780h-31.998c12 20 27.667 37.667 47 53c28 22.667 55.667 34 83 34c11.333 0 28.666 -6.66699 51.999 -20s40.666 -20 51.999 -20c20.667 0 42 15 64 45l35 -1
c-5.33301 -8 -14.333 -19 -27 -33c-32 -35.333 -63.667 -53.333 -95 -54c-16 0 -35.5 6.66699 -58.5 20s-40.167 20 -51.5 20c-19.333 0 -42.333 -14.667 -69 -44z" />
    <glyph glyph-name="Adieresis" unicode="&#xc4;" horiz-adv-x="667" 
d="M85 0h-70l283 720h77l276 -720h-70l-83 226h-328zM334 662l-141 -378h282zM227 786v102h65v-102h-65zM386 786v102h65v-102h-65z" />
    <glyph glyph-name="Aring" unicode="&#xc5;" horiz-adv-x="667" 
d="M85 0h-70l283 720h77l276 -720h-70l-83 226h-328zM334 662l-141 -378h282zM354 780c-27.333 0 -50.835 9.83301 -70.502 29.5s-29.5 42.834 -29.5 69.501s10 50 30 70s43.333 30 70 30s49.834 -10 69.501 -30s29.5 -43.333 29.5 -70s-9.66699 -49.834 -29 -69.501
s-42.666 -29.5 -69.999 -29.5zM353.998 813c17.333 0 32.667 6.66797 46 20.001s20 28.666 20 45.999c0 18 -6.5 33.667 -19.5 47s-28.5 20 -46.5 20s-33.667 -6.66699 -47 -20s-20 -29 -20 -47s6.66699 -33.5 20 -46.5s29 -19.5 47 -19.5z" />
    <glyph glyph-name="AE" unicode="&#xc6;" horiz-adv-x="1000" 
d="M73 0h-68l313 720h630v-58h-408v-260h371v-58h-371v-286h420v-58h-488v226h-303zM358 662l-161 -378h275v378h-114z" />
    <glyph glyph-name="Ccedilla" unicode="&#xc7;" horiz-adv-x="722" 
d="M662 511l-70 -0.00292969c-26 113.333 -101.667 170 -227 170c-82 0 -145.333 -32 -190 -96c-39.333 -56.667 -59 -131 -59 -223s18 -166 54 -222c43.333 -67.333 110.333 -101 201 -101c60 0 110 18.667 150 56c38 34.667 64 82 78 142h71
c-39.333 -170.667 -143.333 -256 -312 -256c-104.667 0 -184 37.667 -238 113c-48 66.667 -72 155.334 -72 266.001c0 130.667 32 228.334 96 293.001c57.333 57.333 137 86 239 86c75.333 0 137.833 -19.667 187.5 -59s80.167 -95.666 91.5 -168.999zM249 -188.003
l14.998 30c30 -10 51.333 -15 64 -15c16.667 0 31.834 4 45.501 12s20.5 19.667 20.5 35c0 26 -16.667 39 -50 39c-9.33301 0 -24 -2.66699 -44 -8l-15 13l60 82h39l-47 -59c16 4 28 6 36 6c20.667 0 38 -5.33301 52 -16s22.333 -22.667 25 -36
c1.33301 -6.66699 2 -13 2 -19c0 -27.333 -11.333 -48.333 -34 -63c-20 -13.333 -46 -20 -78 -20c-27.333 0 -57.666 6.33301 -90.999 19z" />
    <glyph glyph-name="Egrave" unicode="&#xc8;" horiz-adv-x="611" 
d="M570 0h-489v720h479v-58h-411v-260h371v-58h-371v-286h421v-58zM333 780h-21l-151 139h81z" />
    <glyph glyph-name="Eacute" unicode="&#xc9;" horiz-adv-x="611" 
d="M570 0h-489v720h479v-58h-411v-260h371v-58h-371v-286h421v-58zM331 780h-21l91 139h81z" />
    <glyph glyph-name="Ecircumflex" unicode="&#xca;" horiz-adv-x="611" 
d="M570 0h-489v720h479v-58h-411v-260h371v-58h-371v-286h421v-58zM321 852l-74 -92h-58l102 125h61l101 -125h-58z" />
    <glyph glyph-name="Edieresis" unicode="&#xcb;" horiz-adv-x="611" 
d="M570 0h-489v720h479v-58h-411v-260h371v-58h-371v-286h421v-58zM199 786v102h65v-102h-65zM358 786v102h65v-102h-65z" />
    <glyph glyph-name="Igrave" unicode="&#xcc;" horiz-adv-x="278" 
d="M173 0h-68v720h68v-720zM150 780h-21l-151 139h81z" />
    <glyph glyph-name="Iacute" unicode="&#xcd;" horiz-adv-x="278" 
d="M173 0h-68v720h68v-720zM149 780h-21l91 139h81z" />
    <glyph glyph-name="Icircumflex" unicode="&#xce;" horiz-adv-x="278" 
d="M173 0h-68v720h68v-720zM124 878l-82 -102h-65l114 139h67l113 -139h-65z" />
    <glyph glyph-name="Idieresis" unicode="&#xcf;" horiz-adv-x="278" 
d="M173 0h-68v720h68v-720zM13 786v102h65v-102h-65zM172 786v102h65v-102h-65z" />
    <glyph glyph-name="Eth" unicode="&#xd0;" horiz-adv-x="722" 
d="M149 662v-251h121v-58h-121v-295h163c70 0 126.333 11 169 33c80 41.333 120 131.333 120 270s-41.333 230 -124 274c-33.333 18 -88.333 27 -165 27h-163zM81 411v308.999h246c98.667 0 172.667 -18 222 -54c42.667 -31.333 74.667 -78.666 96 -141.999
c16 -50 24 -104.333 24 -163c0 -118 -29 -209 -87 -273c-53.333 -58.667 -138.333 -88 -255 -88h-246v353h-71v58h71z" />
    <glyph glyph-name="Ntilde" unicode="&#xd1;" horiz-adv-x="722" 
d="M563 0l-414 628h-2v-628h-68v720h77l416 -629h2v629h68v-720h-79zM247 788h-35.999c2 26.667 11.167 49.5 27.5 68.5s37.5 28.5 63.5 28.5c16 0 39.5 -7.5 70.5 -22.5s54.167 -22.5 69.5 -22.5c22.667 0 37.334 16.667 44.001 50h38
c-0.666992 -6 -3.33398 -18.667 -8.00098 -38c-17.333 -40 -42 -60 -74 -60c-19.333 0 -44.833 7.5 -76.5 22.5s-54.834 22.5 -69.501 22.5c-22 0 -38.333 -16.333 -49 -49z" />
    <glyph glyph-name="Ograve" unicode="&#xd2;" horiz-adv-x="778" 
d="M53 359c0 108.667 27.666 197.668 82.999 267.001c60 75.333 143 113 249 113c108.667 0 193.334 -37 254.001 -111c56.667 -68.667 85 -158.334 85 -269.001c0 -109.333 -28 -198.333 -84 -267c-60.667 -74 -144.667 -111 -252 -111s-191 37 -251 111
c-56 68 -84 157 -84 267zM388.999 39.001c88.667 0 156.667 32.333 204 97c42 56.667 63 131 63 223c0 92.667 -21 167.667 -63 225c-48 64.667 -116.667 97 -206 97c-87.333 0 -155 -33 -203 -99c-42 -58 -63 -132.333 -63 -223c0 -92 21 -166.667 63 -224
c48 -64 116.333 -96 205 -96zM395.999 800.001h-21l-151 139h81z" />
    <glyph glyph-name="Oacute" unicode="&#xd3;" horiz-adv-x="778" 
d="M53 359c0 108.667 27.666 197.668 82.999 267.001c60 75.333 143 113 249 113c108.667 0 193.334 -37 254.001 -111c56.667 -68.667 85 -158.334 85 -269.001c0 -109.333 -28 -198.333 -84 -267c-60.667 -74 -144.667 -111 -252 -111s-191 37 -251 111
c-56 68 -84 157 -84 267zM388.999 39.001c88.667 0 156.667 32.333 204 97c42 56.667 63 131 63 223c0 92.667 -21 167.667 -63 225c-48 64.667 -116.667 97 -206 97c-87.333 0 -155 -33 -203 -99c-42 -58 -63 -132.333 -63 -223c0 -92 21 -166.667 63 -224
c48 -64 116.333 -96 205 -96zM395.999 800.001h-21l91 139h81z" />
    <glyph glyph-name="Ocircumflex" unicode="&#xd4;" horiz-adv-x="778" 
d="M53 359c0 108.667 27.666 197.668 82.999 267.001c60 75.333 143 113 249 113c108.667 0 193.334 -37 254.001 -111c56.667 -68.667 85 -158.334 85 -269.001c0 -109.333 -28 -198.333 -84 -267c-60.667 -74 -144.667 -111 -252 -111s-191 37 -251 111
c-56 68 -84 157 -84 267zM388.999 39.001c88.667 0 156.667 32.333 204 97c42 56.667 63 131 63 223c0 92.667 -21 167.667 -63 225c-48 64.667 -116.667 97 -206 97c-87.333 0 -155 -33 -203 -99c-42 -58 -63 -132.333 -63 -223c0 -92 21 -166.667 63 -224
c48 -64 116.333 -96 205 -96zM384.999 852.001l-74 -92h-58l102 125h61l101 -125h-58z" />
    <glyph glyph-name="Otilde" unicode="&#xd5;" horiz-adv-x="778" 
d="M53 359c0 108.667 27.666 197.668 82.999 267.001c60 75.333 143 113 249 113c108.667 0 193.334 -37 254.001 -111c56.667 -68.667 85 -158.334 85 -269.001c0 -109.333 -28 -198.333 -84 -267c-60.667 -74 -144.667 -111 -252 -111s-191 37 -251 111
c-56 68 -84 157 -84 267zM388.999 39.001c88.667 0 156.667 32.333 204 97c42 56.667 63 131 63 223c0 92.667 -21 167.667 -63 225c-48 64.667 -116.667 97 -206 97c-87.333 0 -155 -33 -203 -99c-42 -58 -63 -132.333 -63 -223c0 -92 21 -166.667 63 -224
c48 -64 116.333 -96 205 -96zM251.999 800.001h-31.998c12 20 27.667 37.667 47 53c28 22.667 55.667 34 83 34c11.333 0 28.666 -6.66699 51.999 -20s40.666 -20 51.999 -20c20.667 0 42 15 64 45l35 -1c-5.33301 -8 -14.333 -19 -27 -33
c-32 -35.333 -63.667 -53.333 -95 -54c-16 0 -35.5 6.66699 -58.5 20s-40.167 20 -51.5 20c-19.333 0 -42.333 -14.667 -69 -44z" />
    <glyph glyph-name="Odieresis" unicode="&#xd6;" horiz-adv-x="778" 
d="M53 359c0 110 28.335 199.668 85.002 269.001c60.667 74 143 111 247 111c108 0 192.667 -37 254 -111c56.667 -68.667 85 -158.334 85 -269.001c0 -108.667 -28.333 -197.667 -85 -267c-60.667 -74 -144.334 -111 -251.001 -111s-190.334 37 -251.001 111
c-56 69.333 -84 158.333 -84 267zM389.002 39.001c88 0 155.999 32.335 203.999 97.002c42 57.333 63 131.666 63 222.999c0 100 -24 178.667 -72 236s-113.667 86 -197 86c-87.333 0 -154.666 -32.667 -201.999 -98c-42.667 -58.667 -64 -133.334 -64 -224.001
c0 -92 21.333 -166.667 64 -224c47.333 -64 115.333 -96 204 -96zM283.001 786.003v102h65v-102h-65zM442.001 786.003v102h65v-102h-65z" />
    <glyph glyph-name="multiply" unicode="&#xd7;" horiz-adv-x="660" 
d="M331 216l-211 -210l-37 36l211 211l-211 211l37 36l211 -210l210 210l37 -36l-210 -211l210 -211l-37 -36z" />
    <glyph glyph-name="Oslash" unicode="&#xd8;" horiz-adv-x="778" 
d="M174 147l398 457.001c-46.667 51.333 -109.334 77 -188.001 77c-87.333 0 -154.666 -33 -201.999 -99c-42.667 -58 -64 -132.333 -64 -223c0 -84.667 18.667 -155.334 56 -212.001zM604 560.001l-397 -452.999c45.333 -45.333 105 -68 179 -68c88 0 156 32.333 204 97
c42 57.333 63 131.666 63 222.999c0 78 -16.333 145 -49 201zM614 652.002l83.001 95l39 -35l-87 -100c48 -54 72 -138.333 72 -253c0 -108.667 -28.333 -197.667 -85 -267c-60.667 -74 -144.334 -111 -251.001 -111c-88 0 -161 26.333 -219 79l-85 -97l-39 34l89 101
c-54 67.333 -81 154.333 -81 261c0 110 29 200 87 270c61.333 73.333 143 110 245 110c96 0 173.333 -29 232 -87z" />
    <glyph glyph-name="Ugrave" unicode="&#xd9;" horiz-adv-x="722" 
d="M82 271l0.000976562 449h68v-429c0 -82.667 14.333 -143.667 43 -183c33.333 -46 89.333 -69 168 -69c79.333 0 135.666 23 168.999 69c28 38.667 42 99.667 42 183v429h68v-449c0 -193.333 -93 -290 -279 -290s-279 96.667 -279 290zM371.001 750h-21l-151 139h81z" />
    <glyph glyph-name="Uacute" unicode="&#xda;" horiz-adv-x="722" 
d="M82 271l0.000976562 449h68v-429c0 -82.667 14.333 -143.667 43 -183c33.333 -46 89.333 -69 168 -69c79.333 0 135.666 23 168.999 69c28 38.667 42 99.667 42 183v429h68v-449c0 -193.333 -93 -290 -279 -290s-279 96.667 -279 290zM370.001 750h-21l91 139h81z" />
    <glyph glyph-name="Ucircumflex" unicode="&#xdb;" horiz-adv-x="722" 
d="M82 271v449.001h68v-429c0 -88.667 16.667 -152.834 50 -192.501s87 -59.5 161 -59.5c76 0 130.667 20.667 164 62c31.333 40 47 103.333 47 190v429h68v-449c0 -193.333 -93 -290 -279 -290s-279 96.667 -279 290zM366 878.001l-82 -102h-65l114 139h67l113 -139h-65z
" />
    <glyph glyph-name="Udieresis" unicode="&#xdc;" horiz-adv-x="722" 
d="M82 271v449.001h68v-429c0 -88.667 16.667 -152.834 50 -192.501s87 -59.5 161 -59.5c76 0 130.667 20.667 164 62c31.333 40 47 103.333 47 190v429h68v-449c0 -193.333 -93 -290 -279 -290s-279 96.667 -279 290zM255 786.001v102h65v-102h-65zM414 786.001v102h65
v-102h-65z" />
    <glyph glyph-name="Yacute" unicode="&#xdd;" horiz-adv-x="611" 
d="M90 720l212 -347l217 347h79l-261 -406v-314h-68v309l-257 411h78zM314 740h-21l91 139h81z" />
    <glyph glyph-name="Thorn" unicode="&#xde;" horiz-adv-x="611" 
d="M146 0h-68v720h68v-150h195c156.667 0 235 -67 235 -201s-92 -201 -276 -201h-154v-168zM146 226h156.001c69.333 0 119.666 9.33301 150.999 28c36.667 22.667 55 62.667 55 120c0 92 -62 138 -186 138h-176v-286z" />
    <glyph glyph-name="germandbls" unicode="&#xdf;" horiz-adv-x="500" 
d="M211 375v50.001c104.667 2.66699 157 44 157 124c0 87.333 -42 131 -126 131c-54 0 -90.333 -13.333 -109 -40c-14 -20.667 -21 -56.334 -21 -107.001v-533h-60v544c0 126.667 62.333 190 187 190c58 0 104.667 -16.667 140 -50s53 -78.666 53 -135.999
c0 -56 -28 -104.333 -84 -145c36 -12.667 64 -36.334 84 -71.001c18 -32 27 -68 27 -108c0 -76.667 -18.5 -135.5 -55.5 -176.5s-88.833 -61.5 -155.5 -61.5c-14.667 0 -27 1.66699 -37 5v53c12 -2 24 -3 36 -3c43.333 0 78.833 13.833 106.5 41.5s41.5 66.5 41.5 116.5
c0 62.667 -14.667 107.667 -44 135s-76 41 -140 41z" />
    <glyph glyph-name="agrave" unicode="&#xe0;" 
d="M411 191l-0.000976562 80.999c-34 -14 -85.667 -23.667 -155 -29c-97.333 -7.33301 -146 -44 -146 -110c0 -29.333 11.667 -52.666 35 -69.999c20.667 -15.333 46.334 -23 77.001 -23c52 0 95.333 12 130 36c39.333 26.667 59 65 59 115zM226.999 290.999l82.9971 11.002
c39.333 5.33301 63 9.66602 71 12.999c20 9.33301 30 28.666 30 57.999c0 70 -43 105 -129 105c-91.333 0 -141.666 -39 -150.999 -117h-61c4 57.333 26.667 101 68 131c36.667 26.667 85 40 145 40c125.333 0 188 -53.667 188 -161v-282c0 -32 9 -48 27 -48
c8.66699 0 20.667 2.66699 36 8v-47c-20 -6.66699 -35.667 -10 -47 -10c-27.333 0 -46.5 6.33301 -57.5 19s-16.833 33 -17.5 61c-51.333 -57.333 -115.666 -86 -192.999 -86c-49.333 0 -89.666 12.333 -120.999 37c-34.667 26.667 -52 64 -52 112c0 88 60.333 140 181 156z
M292.996 600.001h-20l-143 132h77z" />
    <glyph glyph-name="aacute" unicode="&#xe1;" 
d="M411 191l-0.000976562 80.999c-34 -14 -85.667 -23.667 -155 -29c-97.333 -7.33301 -146 -44 -146 -110c0 -29.333 11.667 -52.666 35 -69.999c20.667 -15.333 46.334 -23 77.001 -23c52 0 95.333 12 130 36c39.333 26.667 59 65 59 115zM226.999 290.999l82.9971 11.002
c39.333 5.33301 63 9.66602 71 12.999c20 9.33301 30 28.666 30 57.999c0 70 -43 105 -129 105c-91.333 0 -141.666 -39 -150.999 -117h-61c4 57.333 26.667 101 68 131c36.667 26.667 85 40 145 40c125.333 0 188 -53.667 188 -161v-282c0 -32 9 -48 27 -48
c8.66699 0 20.667 2.66699 36 8v-47c-20 -6.66699 -35.667 -10 -47 -10c-27.333 0 -46.5 6.33301 -57.5 19s-16.833 33 -17.5 61c-51.333 -57.333 -115.666 -86 -192.999 -86c-49.333 0 -89.666 12.333 -120.999 37c-34.667 26.667 -52 64 -52 112c0 88 60.333 140 181 156z
M292.996 600.001h-20l86 132h77z" />
    <glyph glyph-name="acircumflex" unicode="&#xe2;" 
d="M411 191l-0.000976562 80.999c-34 -14 -85.667 -23.667 -155 -29c-97.333 -7.33301 -146 -44 -146 -110c0 -29.333 11.667 -52.666 35 -69.999c20.667 -15.333 46.334 -23 77.001 -23c52 0 95.333 12 130 36c39.333 26.667 59 65 59 115zM226.999 290.999l82.9971 11.002
c39.333 5.33301 63 9.66602 71 12.999c20 9.33301 30 28.666 30 57.999c0 70 -43 105 -129 105c-91.333 0 -141.666 -39 -150.999 -117h-61c4 57.333 26.667 101 68 131c36.667 26.667 85 40 145 40c125.333 0 188 -53.667 188 -161v-282c0 -32 9 -48 27 -48
c8.66699 0 20.667 2.66699 36 8v-47c-20 -6.66699 -35.667 -10 -47 -10c-27.333 0 -46.5 6.33301 -57.5 19s-16.833 33 -17.5 61c-51.333 -57.333 -115.666 -86 -192.999 -86c-49.333 0 -89.666 12.333 -120.999 37c-34.667 26.667 -52 64 -52 112c0 88 60.333 140 181 156z
M282.996 647.001l-70 -87h-55l97 118h58l96 -118h-55z" />
    <glyph glyph-name="atilde" unicode="&#xe3;" 
d="M411 191l-0.000976562 80.999c-34 -14 -85.667 -23.667 -155 -29c-97.333 -7.33301 -146 -44 -146 -110c0 -29.333 11.667 -52.666 35 -69.999c20.667 -15.333 46.334 -23 77.001 -23c52 0 95.333 12 130 36c39.333 26.667 59 65 59 115zM226.999 290.999l82.9971 11.002
c39.333 5.33301 63 9.66602 71 12.999c20 9.33301 30 28.666 30 57.999c0 70 -43 105 -129 105c-91.333 0 -141.666 -39 -150.999 -117h-61c4 57.333 26.667 101 68 131c36.667 26.667 85 40 145 40c125.333 0 188 -53.667 188 -161v-282c0 -32 9 -48 27 -48
c8.66699 0 20.667 2.66699 36 8v-47c-20 -6.66699 -35.667 -10 -47 -10c-27.333 0 -46.5 6.33301 -57.5 19s-16.833 33 -17.5 61c-51.333 -57.333 -115.666 -86 -192.999 -86c-49.333 0 -89.666 12.333 -120.999 37c-34.667 26.667 -52 64 -52 112c0 88 60.333 140 181 156z
M156.996 600.001l-31 0.000976562c35.333 55.333 76.333 83 123 83c11.333 0 28 -6.33301 50 -19s38.667 -19 50 -19c19.333 0 39.333 14.333 60 43l34 -1c-5.33301 -8.66699 -14 -19.334 -26 -32.001c-31.333 -33.333 -61.333 -50.333 -90 -51
c-15.333 0 -34 6.33301 -56 19s-38.333 19 -49 19c-18 0 -39.667 -14 -65 -42z" />
    <glyph glyph-name="adieresis" unicode="&#xe4;" 
d="M411 191l-0.000976562 81.001c-34 -14 -85.667 -23.667 -155 -29c-97.333 -7.33301 -146 -44 -146 -110c0 -30 11.667 -53.333 35 -70c20.667 -15.333 46.334 -23 77.001 -23c52 0 95.333 12 130 36c39.333 27.333 59 65.666 59 114.999zM226.999 291.001l82.998 11.0029
c38.667 5.33301 65.167 11.166 79.5 17.499s21.5 24.166 21.5 53.499c0 70 -43 105 -129 105c-91.333 0 -141.666 -39 -150.999 -117h-61c4 58 26.667 101.667 68 131c36 26.667 84.333 40 145 40c125.333 0 188 -53.667 188 -161v-282c0 -32 9 -48 27 -48
c8.66699 0 20.667 2.66699 36 8v-47c-20 -6.66699 -35.667 -10 -47 -10c-27.333 0 -46.5 6.16699 -57.5 18.5s-16.833 32.833 -17.5 61.5c-51.333 -57.333 -115.666 -86 -192.999 -86c-48.667 0 -89 12.333 -121 37c-34.667 27.333 -52 64.666 -52 111.999
c0 88 60.333 140 181 156zM171.997 584.004v102h65v-102h-65zM330.997 584.004v102h65v-102h-65z" />
    <glyph glyph-name="aring" unicode="&#xe5;" 
d="M411 191l-0.000976562 81.001c-34 -14 -85.667 -23.667 -155 -29c-97.333 -7.33301 -146 -44 -146 -110c0 -30 11.667 -53.333 35 -70c20.667 -15.333 46.334 -23 77.001 -23c52 0 95.333 12 130 36c39.333 27.333 59 65.666 59 114.999zM226.999 291.001l82.998 11.0029
c38.667 5.33301 65.167 11.166 79.5 17.499s21.5 24.166 21.5 53.499c0 70 -43 105 -129 105c-91.333 0 -141.666 -39 -150.999 -117h-61c4 58 26.667 101.667 68 131c36 26.667 84.333 40 145 40c125.333 0 188 -53.667 188 -161v-282c0 -32 9 -48 27 -48
c8.66699 0 20.667 2.66699 36 8v-47c-20 -6.66699 -35.667 -10 -47 -10c-27.333 0 -46.5 6.16699 -57.5 18.5s-16.833 32.833 -17.5 61.5c-51.333 -57.333 -115.666 -86 -192.999 -86c-48.667 0 -89 12.333 -121 37c-34.667 27.333 -52 64.666 -52 111.999
c0 88 60.333 140 181 156zM278.997 578.004c-27.333 0 -50.835 9.83301 -70.502 29.5s-29.5 42.834 -29.5 69.501s10 50 30 70s43.333 30 70 30s49.834 -10 69.501 -30s29.5 -43.333 29.5 -70s-9.66699 -49.834 -29 -69.501s-42.666 -29.5 -69.999 -29.5zM278.995 611.004
c17.333 0 32.667 6.66797 46 20.001s20 28.666 20 45.999c0 18 -6.5 33.667 -19.5 47s-28.5 20 -46.5 20s-33.667 -6.66699 -47 -20s-20 -29 -20 -47s6.66699 -33.5 20 -46.5s29 -19.5 47 -19.5z" />
    <glyph glyph-name="ae" unicode="&#xe6;" horiz-adv-x="889" 
d="M393 204l0.000976562 70c-22 -12 -61 -21.333 -117 -28c-58.667 -7.33301 -98.334 -15.333 -119.001 -24c-36 -15.333 -54 -42.333 -54 -81c0 -67.333 36 -101 108 -101c58.667 0 104 15.333 136 46c30.667 28.667 46 68 46 118zM457.001 295h326.001
c0 52 -13.333 95 -40 129c-28.667 36 -68 54 -118 54c-56.667 0 -100.334 -21.333 -131.001 -64c-24.667 -34 -37 -73.667 -37 -119zM219.002 295l57.002 5.99902c50 5.33301 82 12 96 20s21 22.667 21 44c0 43.333 -9.33301 73 -28 89s-51.334 24 -98.001 24
c-86.667 0 -134.667 -38 -144 -114h-62c3.33301 56 24.666 98.667 63.999 128c35.333 26.667 82 40 140 40c96.667 0 157 -28.333 181 -85c38 56.667 98.333 85 181 85c146.667 0 220 -95.667 220 -287h-390c0 -60.667 13.333 -108.667 40 -144c30 -40.667 74 -61 132 -61
c79.333 0 129.666 40 150.999 120h63c-27.333 -116 -100.333 -174 -219 -174c-87.333 0 -154 38 -200 114c-26 -35.333 -51 -60.666 -75 -75.999c-38 -25.333 -85.667 -38 -143 -38c-49.333 0 -88.666 12 -117.999 36c-32.667 25.333 -49 62 -49 110
c0 96 60 150.333 180 163z" />
    <glyph glyph-name="ccedilla" unicode="&#xe7;" 
d="M500 355l-61.001 0.000976562c-22.667 82 -74 123 -154 123c-57.333 0 -101.666 -23 -132.999 -69c-27.333 -40.667 -41 -91 -41 -151c0 -60.667 13.667 -110.667 41 -150c30.667 -45.333 75 -68 133 -68c44 0 79.667 12.333 107 37s44.666 58.667 51.999 102h64
c-23.333 -128.667 -97.666 -193 -222.999 -193c-78.667 0 -139 26.333 -181 79c-38 47.333 -57 111.666 -57 192.999c0 76 20.333 139.667 61 191c44 55.333 103 83 177 83c125.333 0 197 -59 215 -177zM165.999 -187.999l14.998 30c30 -10 51.333 -15 64 -15
c16.667 0 31.834 4 45.501 12s20.5 19.667 20.5 35c0 26 -16.667 39 -50 39c-9.33301 0 -24 -2.66699 -44 -8l-15 13l60 82h39l-47 -59c16 4 28 6 36 6c20.667 0 38 -5.33301 52 -16s22.333 -22.667 25 -36c1.33301 -6.66699 2 -13 2 -19c0 -27.333 -11.333 -48.333 -34 -63
c-20 -13.333 -46 -20 -78 -20c-27.333 0 -57.666 6.33301 -90.999 19z" />
    <glyph glyph-name="egrave" unicode="&#xe8;" 
d="M109 295l338 0.00195312c0 53.333 -13.667 96.666 -41 129.999c-30 35.333 -71 53 -123 53c-50 0 -90.667 -18.333 -122 -55c-28 -32.667 -45.333 -75.334 -52 -128.001zM511 245.002l-401.998 0.000976562c-0.666992 -57.333 13.666 -105 42.999 -143
c31.333 -41.333 75 -62 131 -62c39.333 0 73.166 10.5 101.499 31.5s46.833 50.167 55.5 87.5h67c-35.333 -115.333 -110 -173 -224 -173c-79.333 0 -139.666 26 -180.999 78c-38 47.333 -57 111.666 -57 192.999c0 76 20.333 139.667 61 191c44 56 103 84 177 84
c79.333 0 138.666 -29 177.999 -87c34 -50 50.667 -116.667 50 -200zM293.002 600.003h-20l-143 132h77z" />
    <glyph glyph-name="eacute" unicode="&#xe9;" 
d="M109 295l338 0.00195312c0 53.333 -13.667 96.666 -41 129.999c-30 35.333 -71 53 -123 53c-50 0 -90.667 -18.333 -122 -55c-28 -32.667 -45.333 -75.334 -52 -128.001zM511 245.002l-401.998 0.000976562c-0.666992 -57.333 13.666 -105 42.999 -143
c31.333 -41.333 75 -62 131 -62c39.333 0 73.166 10.5 101.499 31.5s46.833 50.167 55.5 87.5h67c-35.333 -115.333 -110 -173 -224 -173c-79.333 0 -139.666 26 -180.999 78c-38 47.333 -57 111.666 -57 192.999c0 76 20.333 139.667 61 191c44 56 103 84 177 84
c79.333 0 138.666 -29 177.999 -87c34 -50 50.667 -116.667 50 -200zM293.002 600.003h-20l86 132h77z" />
    <glyph glyph-name="ecircumflex" unicode="&#xea;" 
d="M109 295l338 0.00195312c0 53.333 -13.667 96.666 -41 129.999c-30 35.333 -71 53 -123 53c-50 0 -90.667 -18.333 -122 -55c-28 -32.667 -45.333 -75.334 -52 -128.001zM511 245.002l-401.998 0.000976562c-0.666992 -57.333 13.666 -105 42.999 -143
c31.333 -41.333 75 -62 131 -62c39.333 0 73.166 10.5 101.499 31.5s46.833 50.167 55.5 87.5h67c-35.333 -115.333 -110 -173 -224 -173c-79.333 0 -139.666 26 -180.999 78c-38 47.333 -57 111.666 -57 192.999c0 76 20.333 139.667 61 191c44 56 103 84 177 84
c79.333 0 138.666 -29 177.999 -87c34 -50 50.667 -116.667 50 -200zM283.002 647.003l-70 -87h-55l97 118h58l96 -118h-55z" />
    <glyph glyph-name="edieresis" unicode="&#xeb;" 
d="M109 295l338 0.000976562c0 52.667 -13.667 95.667 -41 129c-30 36 -71 54 -123 54c-50 0 -90.667 -18.333 -122 -55c-28 -32.667 -45.333 -75.334 -52 -128.001zM511 245.001l-401.998 0.000976562c-0.666992 -58.667 14 -106.667 44 -144
c31.333 -40.667 74.666 -61 129.999 -61c39.333 0 73.166 10.5 101.499 31.5s46.833 50.167 55.5 87.5h67c-35.333 -115.333 -110 -173 -224 -173c-79.333 0 -139.666 26 -180.999 78c-38 47.333 -57 111.666 -57 192.999c0 78 21.333 142.667 64 194c44 54 102 81 174 81
s128.167 -24.833 168.5 -74.5s60.166 -120.5 59.499 -212.5zM172.002 584.002v102h65v-102h-65zM331.002 584.002v102h65v-102h-65z" />
    <glyph glyph-name="igrave" unicode="&#xec;" horiz-adv-x="222" 
d="M141 0h-60v518h60v-518zM120 580h-20l-143 132h77z" />
    <glyph glyph-name="iacute" unicode="&#xed;" horiz-adv-x="222" 
d="M141 0h-60v518h60v-518zM120 580h-20l86 132h77z" />
    <glyph glyph-name="icircumflex" unicode="&#xee;" horiz-adv-x="222" 
d="M138 0h-60v518h60v-518zM96 676l-82 -102h-65l114 139h67l113 -139h-65z" />
    <glyph glyph-name="idieresis" unicode="&#xef;" horiz-adv-x="222" 
d="M138 0h-60v518h60v-518zM-15 584v102h65v-102h-65zM144 584v102h65v-102h-65z" />
    <glyph glyph-name="eth" unicode="&#xf0;" 
d="M454 259c0 66 -13.667 117.668 -41 155.001c-30 42.667 -75 64 -135 64c-58.667 0 -103.667 -22.333 -135 -67c-27.333 -39.333 -41 -90 -41 -152c0 -66 15.333 -119 46 -159s74 -60 130 -60c58.667 0 103.667 22.667 135 68c27.333 39.333 41 89.666 41 150.999z
M224 679.001l119.999 59.999l35 -28l-121 -60c80 -64 147 -130 201 -198c39.333 -49.333 59 -114 59 -194c0 -82 -22 -148.167 -66 -198.5s-102 -75.166 -174 -74.499c-69.333 0.666992 -126 23.667 -170 69c-46.667 49.333 -70 117.333 -70 204c0 80.667 20.333 145 61 193
c44.667 53.333 109.667 80 195 80c-17.333 24 -47.666 54.667 -90.999 92l-109 -54l-34 27l109 55c-27.333 22 -54.666 42.667 -81.999 62l49 25c27.333 -16 56.666 -36 87.999 -60z" />
    <glyph glyph-name="ntilde" unicode="&#xf1;" 
d="M132 279v-279h-60v518h60v-72c54 57.333 109.667 86 167 86c72 0 124.667 -24.667 158 -74c17.333 -25.333 26 -65 26 -119v-339h-60v338c0 93.333 -44.667 140 -134 140c-35.333 0 -66.333 -10.333 -93 -31c-24 -18 -41 -41.333 -51 -70
c-8.66699 -24 -13 -56.667 -13 -98zM164 586h-35.999c2 26.667 11.167 49.5 27.5 68.5s37.5 28.5 63.5 28.5c16 0 39.5 -7.5 70.5 -22.5s54.167 -22.5 69.5 -22.5c22.667 0 37.334 16.667 44.001 50h38c-0.666992 -6 -3.33398 -18.667 -8.00098 -38
c-17.333 -40 -42 -60 -74 -60c-19.333 0 -44.833 7.5 -76.5 22.5s-54.834 22.5 -69.501 22.5c-22 0 -38.333 -16.333 -49 -49z" />
    <glyph glyph-name="ograve" unicode="&#xf2;" 
d="M278 -14c-77.333 0.666992 -137.333 27.3359 -180 80.0029c-40 49.333 -60 113.666 -60 192.999s19.667 143.666 59 192.999c43.333 53.333 103.666 80 180.999 80c78.667 0 139.334 -26.333 182.001 -79c38.667 -48.667 58 -113.334 58 -194.001
c0 -78 -20 -142 -60 -192c-44 -54.667 -104 -81.667 -180 -81zM454 259.002c0 63.333 -12.999 114.334 -38.999 153.001c-30.667 44 -76.334 66 -137.001 66c-59.333 0 -104.666 -22.667 -135.999 -68c-26.667 -38.667 -40 -89 -40 -151s13.333 -112.667 40 -152
c31.333 -44.667 76.666 -67 135.999 -67c58.667 0 103.667 22.667 135 68c27.333 39.333 41 89.666 41 150.999zM288.001 600.003h-20l-143 132h77z" />
    <glyph glyph-name="oacute" unicode="&#xf3;" 
d="M278 -14c-77.333 0.666992 -137.333 27.3359 -180 80.0029c-40 49.333 -60 113.666 -60 192.999s19.667 143.666 59 192.999c43.333 53.333 103.666 80 180.999 80c78.667 0 139.334 -26.333 182.001 -79c38.667 -48.667 58 -113.334 58 -194.001
c0 -78 -20 -142 -60 -192c-44 -54.667 -104 -81.667 -180 -81zM454 259.002c0 63.333 -12.999 114.334 -38.999 153.001c-30.667 44 -76.334 66 -137.001 66c-59.333 0 -104.666 -22.667 -135.999 -68c-26.667 -38.667 -40 -89 -40 -151s13.333 -112.667 40 -152
c31.333 -44.667 76.666 -67 135.999 -67c58.667 0 103.667 22.667 135 68c27.333 39.333 41 89.666 41 150.999zM288.001 600.003h-20l86 132h77z" />
    <glyph glyph-name="ocircumflex" unicode="&#xf4;" 
d="M278 -14c-77.333 0.666992 -137.333 27.3359 -180 80.0029c-40 49.333 -60 113.666 -60 192.999s19.667 143.666 59 192.999c43.333 53.333 103.666 80 180.999 80c78.667 0 139.334 -26.333 182.001 -79c38.667 -48.667 58 -113.334 58 -194.001
c0 -78 -20 -142 -60 -192c-44 -54.667 -104 -81.667 -180 -81zM454 259.002c0 63.333 -12.999 114.334 -38.999 153.001c-30.667 44 -76.334 66 -137.001 66c-59.333 0 -104.666 -22.667 -135.999 -68c-26.667 -38.667 -40 -89 -40 -151s13.333 -112.667 40 -152
c31.333 -44.667 76.666 -67 135.999 -67c58.667 0 103.667 22.667 135 68c27.333 39.333 41 89.666 41 150.999zM283.001 647.003l-70 -87h-55l97 118h58l96 -118h-55z" />
    <glyph glyph-name="otilde" unicode="&#xf5;" 
d="M278 -14c-77.333 0.666992 -137.333 27.3359 -180 80.0029c-40 49.333 -60 113.666 -60 192.999s19.667 143.666 59 192.999c43.333 53.333 103.666 80 180.999 80c78.667 0 139.334 -26.333 182.001 -79c38.667 -48.667 58 -113.334 58 -194.001
c0 -78 -20 -142 -60 -192c-44 -54.667 -104 -81.667 -180 -81zM454 259.002c0 63.333 -12.999 114.334 -38.999 153.001c-30.667 44 -76.334 66 -137.001 66c-59.333 0 -104.666 -22.667 -135.999 -68c-26.667 -38.667 -40 -89 -40 -151s13.333 -112.667 40 -152
c31.333 -44.667 76.666 -67 135.999 -67c58.667 0 103.667 22.667 135 68c27.333 39.333 41 89.666 41 150.999zM152.001 600.003l-31 0.000976562c35.333 55.333 76.333 83 123 83c11.333 0 28 -6.33301 50 -19s38.667 -19 50 -19c19.333 0 39.333 14.333 60 43l34 -1
c-5.33301 -8.66699 -14 -19.334 -26 -32.001c-31.333 -33.333 -61.333 -50.333 -90 -51c-15.333 0 -34 6.33301 -56 19s-38.333 19 -49 19c-18 0 -39.667 -14 -65 -42z" />
    <glyph glyph-name="odieresis" unicode="&#xf6;" 
d="M278 -14c-69.333 0.666992 -126 23.667 -170 69c-46.667 49.333 -70 117.333 -70 204c0 79.333 20 143.666 60 192.999c43.333 53.333 103.333 80 180 80c78 0 138.333 -26.333 181 -79c39.333 -49.333 59 -114 59 -194c0 -82 -22 -148.167 -66 -198.5
s-102 -75.166 -174 -74.499zM454 259c0 66 -13.667 117.668 -41 155.001c-30 42.667 -75 64 -135 64c-58.667 0 -103.667 -22.333 -135 -67c-27.333 -39.333 -41 -90 -41 -152c0 -66 15.333 -119 46 -159s74 -60 130 -60c58.667 0 103.667 22.667 135 68
c27.333 39.333 41 89.666 41 150.999zM172 584.001v102h65v-102h-65zM331 584.001v102h65v-102h-65z" />
    <glyph glyph-name="divide" unicode="&#xf7;" horiz-adv-x="660" 
d="M80 220v60h500v-60h-500zM367 0h-73v88h73v-88zM367 412h-73v88h73v-88z" />
    <glyph glyph-name="oslash" unicode="&#xf8;" 
d="M135 124l260 309.001c-26 30 -64.333 45 -115 45c-58.667 0 -103.667 -22.667 -135 -68c-27.333 -39.333 -41 -90 -41 -152c0 -56.667 10.333 -101.334 31 -134.001zM425 397.001l-263 -311.998c30 -30 69.333 -45 118 -45c58.667 0 103.667 22.333 135 67
c27.333 39.333 41 89.666 41 150.999c0 59.333 -10.333 105.666 -31 138.999zM125 41.0029l-54 -64l-36 29l58 68c-35.333 46.667 -53 108 -53 184c0 79.333 20 144 60 194c43.333 53.333 103.333 80 180 80c62 0 113.333 -17.667 154 -53l52 62l35 -31l-55 -65
c36 -48 54 -110.333 54 -187c0 -82 -21 -147.333 -63 -196c-42.667 -50.667 -101.667 -76 -177 -76c-64 0 -115.667 18.333 -155 55z" />
    <glyph glyph-name="ugrave" unicode="&#xf9;" 
d="M423 236l-0.000976562 282h60v-518h-60v72c-22.667 -26 -43 -44.667 -61 -56c-31.333 -20 -66.666 -30 -105.999 -30c-122.667 0 -184 63.667 -184 191v341h60v-340c0 -92 44.333 -138 133 -138c52 0 92.333 20.333 121 61c24.667 36 37 81 37 135zM287.999 560h-20
l-143 132h77z" />
    <glyph glyph-name="uacute" unicode="&#xfa;" 
d="M423 236l-0.000976562 282h60v-518h-60v72c-22.667 -26 -43 -44.667 -61 -56c-31.333 -20 -66.666 -30 -105.999 -30c-122.667 0 -184 63.667 -184 191v341h60v-340c0 -92 44.333 -138 133 -138c52 0 92.333 20.333 121 61c24.667 36 37 81 37 135zM287.999 560h-20
l86 132h77z" />
    <glyph glyph-name="ucircumflex" unicode="&#xfb;" 
d="M423 236l-0.000976562 282.001h60v-518h-60v72c-23.333 -26.667 -43.666 -45.334 -60.999 -56.001c-30.667 -20 -66 -30 -106 -30c-122.667 0 -184 63.667 -184 191v341h60v-340c0 -92 44.333 -138 133 -138c48.667 0 87.167 18.167 115.5 54.5s42.5 83.5 42.5 141.5z
M282.999 676.001l-82 -102h-65l114 139h67l113 -139h-65z" />
    <glyph glyph-name="udieresis" unicode="&#xfc;" 
d="M423 236l-0.000976562 282.001h60v-518h-60v72c-23.333 -26.667 -43.666 -45.334 -60.999 -56.001c-30.667 -20 -66 -30 -106 -30c-122.667 0 -184 63.667 -184 191v341h60v-340c0 -92 44.333 -138 133 -138c48.667 0 87.167 18.167 115.5 54.5s42.5 83.5 42.5 141.5z
M171.999 584.001v102h65v-102h-65zM330.999 584.001v102h65v-102h-65z" />
    <glyph glyph-name="yacute" unicode="&#xfd;" horiz-adv-x="500" 
d="M68 -197l0.000976562 56c21.333 -4 38 -6 50 -6c29.333 0 51.666 18.333 66.999 55l34 88l-201 522h67l166 -445l166 445h65l-193 -511c-29.333 -78 -52.333 -129.333 -69 -154c-25.333 -38 -57 -57 -95 -57c-19.333 0 -38.333 2.33301 -57 7zM260.001 560h-20l86 132h77
z" />
    <glyph glyph-name="thorn" unicode="&#xfe;" horiz-adv-x="611" 
d="M139 257c0 -60.667 15.666 -111.333 46.999 -152c32.667 -43.333 75.334 -65 128.001 -65c59.333 0 104.666 23 135.999 69c28.667 42 42.334 97.333 41.001 166c-1.33301 64 -18.333 113.833 -51 149.5s-74.667 53.5 -126 53.5c-54.667 0 -98 -21.333 -130 -64
c-30 -40 -45 -92.333 -45 -157zM138.999 83.001l0.000976562 -287h-60v924h60v-293h2c16.667 32.667 42.667 58.667 78 78c33.333 18 67.333 27 102 27c79.333 0 139.333 -26.333 180 -79c36 -46.667 54 -111 54 -193c0 -78 -18.667 -141.667 -56 -191
c-42 -55.333 -100.333 -83 -175 -83c-37.333 0 -72.833 8.5 -106.5 25.5s-59.834 40.833 -78.501 71.5z" />
    <glyph glyph-name="ydieresis" unicode="&#xff;" horiz-adv-x="500" 
d="M68 -197v56c21.333 -4 38 -6 50 -6c28 0 50.333 18.333 67 55l34 88l-201 522h67l166 -445l166 445h65l-193 -511c-29.333 -78 -52.333 -129.333 -69 -154c-25.333 -38 -57 -57 -95 -57c-19.333 0 -38.333 2.33301 -57 7zM144 584v102h65v-102h-65zM303 584v102h65v-102
h-65z" />
    <glyph glyph-name="glyph271" unicode="&#x102;" horiz-adv-x="667" 
d="M85 0h-70l283 720h77l276 -720h-70l-83 226h-328zM334 662l-141 -378h282zM205 873h35c10 -48 41.667 -72 95 -72c52.667 0 84.667 24 96 72h33c-8 -75.333 -52.667 -113 -134 -113c-36 0 -65.167 10 -87.5 30s-34.833 47.667 -37.5 83z" />
    <glyph glyph-name="glyph272" unicode="&#x103;" 
d="M411 191l-0.000976562 80.999c-34 -14 -85.667 -23.667 -155 -29c-97.333 -7.33301 -146 -44 -146 -110c0 -29.333 11.667 -52.666 35 -69.999c20.667 -15.333 46.334 -23 77.001 -23c52 0 95.333 12 130 36c39.333 26.667 59 65 59 115zM226.999 290.999l82.9971 11.002
c39.333 5.33301 63 9.66602 71 12.999c20 9.33301 30 28.666 30 57.999c0 70 -43 105 -129 105c-91.333 0 -141.666 -39 -150.999 -117h-61c4 57.333 26.667 101 68 131c36.667 26.667 85 40 145 40c125.333 0 188 -53.667 188 -161v-282c0 -32 9 -48 27 -48
c8.66699 0 20.667 2.66699 36 8v-47c-20 -6.66699 -35.667 -10 -47 -10c-27.333 0 -46.5 6.33301 -57.5 19s-16.833 33 -17.5 61c-51.333 -57.333 -115.666 -86 -192.999 -86c-49.333 0 -89.666 12.333 -120.999 37c-34.667 26.667 -52 64 -52 112c0 88 60.333 140 181 156z
M164.996 687.001h33c8.66699 -45.333 38.667 -68 90 -68c50 0 80.333 22.667 91 68h32c-8 -71.333 -50.667 -107 -128 -107c-34 0 -61.5 9.5 -82.5 28.5s-32.833 45.167 -35.5 78.5z" />
    <glyph glyph-name="Cacute" unicode="&#x106;" horiz-adv-x="711" 
d="M662 511l-70 -0.00292969c-26 113.333 -101.667 170 -227 170c-82 0 -145.333 -32 -190 -96c-39.333 -56.667 -59 -131 -59 -223s18 -166 54 -222c43.333 -67.333 110.333 -101 201 -101c60 0 110 18.667 150 56c38 34.667 64 82 78 142h71
c-39.333 -170.667 -143.333 -256 -312 -256c-104.667 0 -184 37.667 -238 113c-48 66.667 -72 155.334 -72 266.001c0 130.667 32 228.334 96 293.001c57.333 57.333 137 86 239 86c75.333 0 137.833 -19.667 187.5 -59s80.167 -95.666 91.5 -168.999zM337 828.997h-51
l111 139h77z" />
    <glyph glyph-name="cacute" unicode="&#x107;" horiz-adv-x="441" 
d="M500 355l-61.001 0.000976562c-22.667 82 -74 123 -154 123c-57.333 0 -101.666 -23 -132.999 -69c-27.333 -40.667 -41 -91 -41 -151c0 -60.667 13.667 -110.667 41 -150c30.667 -45.333 75 -68 133 -68c44 0 79.667 12.333 107 37s44.666 58.667 51.999 102h64
c-23.333 -128.667 -97.666 -193 -222.999 -193c-78.667 0 -139 26.333 -181 79c-38 47.333 -57 111.666 -57 192.999c0 76 20.333 139.667 61 191c44 55.333 103 83 177 83c125.333 0 197 -59 215 -177zM137.999 574.001h-51l111 139h77z" />
    <glyph glyph-name="Ccaron" unicode="&#x10c;" horiz-adv-x="711" 
d="M662 511l-70 -0.00292969c-26 113.333 -101.667 170 -227 170c-82 0 -145.333 -32 -190 -96c-39.333 -56.667 -59 -131 -59 -223s18 -166 54 -222c43.333 -67.333 110.333 -101 201 -101c60 0 110 18.667 150 56c38 34.667 64 82 78 142h71
c-39.333 -170.667 -143.333 -256 -312 -256c-104.667 0 -184 37.667 -238 113c-48 66.667 -72 155.334 -72 266.001c0 130.667 32 228.334 96 293.001c57.333 57.333 137 86 239 86c75.333 0 137.833 -19.667 187.5 -59s80.167 -95.666 91.5 -168.999zM348 865.997l82 102
h65l-113 -139h-67l-114 139h65z" />
    <glyph glyph-name="ccaron" unicode="&#x10d;" horiz-adv-x="441" 
d="M500 355l-61.001 0.000976562c-22.667 82 -74 123 -154 123c-57.333 0 -101.666 -23 -132.999 -69c-27.333 -40.667 -41 -91 -41 -151c0 -60.667 13.667 -110.667 41 -150c30.667 -45.333 75 -68 133 -68c44 0 79.667 12.333 107 37s44.666 58.667 51.999 102h64
c-23.333 -128.667 -97.666 -193 -222.999 -193c-78.667 0 -139 26.333 -181 79c-38 47.333 -57 111.666 -57 192.999c0 76 20.333 139.667 61 191c44 55.333 103 83 177 83c125.333 0 197 -59 215 -177zM148.999 611.001l82 102h65l-113 -139h-67l-114 139h65z" />
    <glyph glyph-name="Dslash" unicode="&#x110;" horiz-adv-x="722" 
d="M149 662v-251h121v-58h-121v-295h163c70 0 126.333 11 169 33c80 41.333 120 131.333 120 270s-41.333 230 -124 274c-34 18 -89 27 -165 27h-163zM81 411v309h246c84.667 0 150.667 -13 198 -39c55.333 -30.667 95.333 -83 120 -157c16 -48.667 24 -103 24 -163
c0 -240.667 -114 -361 -342 -361h-246v353h-71v58h71z" />
    <glyph glyph-name="dcroat" unicode="&#x111;" horiz-adv-x="611" 
d="M472 261c0 57.333 -14.333 106.667 -43 148c-32.667 46 -76.667 69 -132 69c-62 0 -108.667 -24.667 -140 -74c-26 -42 -38.333 -95.667 -37 -161c1.33301 -58 16.333 -105.333 45 -142c31.333 -40.667 75.333 -61 132 -61c58 0 102.667 23.333 134 70
c27.333 40 41 90.333 41 151zM472 560.001l-136.999 -0.000976562v50h137v110h60v-110h40v-50h-40v-560h-60v91h-2c-16 -31.333 -40.833 -56.666 -74.5 -75.999s-68.834 -29 -105.501 -29c-79.333 0 -139.333 26.333 -180 79c-36 46.667 -54 111 -54 193
c0 78 18.667 141.667 56 191c41.333 55.333 99.666 83 174.999 83c37.333 0 72.833 -8.5 106.5 -25.5s59.834 -40.833 78.501 -71.5v125z" />
    <glyph glyph-name="Gbreve" unicode="&#x11e;" horiz-adv-x="767" 
d="M630 314l-242.999 -0.000976562v58h308v-372h-58v123c-55.333 -94.667 -145 -142 -269 -142c-94.667 0 -170 32 -226 96c-59.333 67.333 -89 163 -89 287c0 111.333 27 200.333 81 267c59.333 72 143.333 108 252 108c78 0 143.333 -18.667 196 -56
c54.667 -40 89.667 -97.333 105 -172h-70c-12 52.667 -39.333 94.667 -82 126c-40.667 29.333 -88.667 44 -144 44c-91.333 0 -160 -31.667 -206 -95c-42.667 -59.333 -64 -142.333 -64 -249c0 -83.333 23 -153 69 -209c48.667 -59.333 112.667 -89 192 -89
c43.333 0 83.333 9.33301 120 28c42.667 22 75 54.667 97 98c19.333 38.667 29.666 88.334 30.999 149.001zM224.001 960.999l39.001 0.000976562c10.667 -54 45.667 -81 105 -81c58 0 93.667 27 107 81h37c-8.66699 -84 -58.334 -126 -149.001 -126
c-40 0 -72.5 11.167 -97.5 33.5s-38.833 53.166 -41.5 92.499z" />
    <glyph glyph-name="gbreve" unicode="&#x11f;" horiz-adv-x="492" 
d="M472 257c0 64.667 -15.001 116.999 -45.001 156.999c-32 42.667 -75.333 64 -130 64c-51.333 0 -93.333 -17.833 -126 -53.5s-49.667 -85.5 -51 -149.5c-1.33301 -68.667 12.334 -124 41.001 -166c31.333 -46 76.666 -69 135.999 -69c52.667 0 95.334 21.667 128.001 65
c31.333 40.667 47 91.334 47 152.001zM471.999 426.999v91.001h60v-468c0 -174.667 -81 -262 -243 -262c-69.333 0 -124.333 17 -165 51c-33.333 28 -51.333 60.667 -54 98h64c14.667 -63.333 66.334 -95 155.001 -95c74 0 125.333 25.333 154 76
c21.333 37.333 31 92.333 29 165c-18.667 -30.667 -44.834 -54.5 -78.501 -71.5s-69.167 -25.5 -106.5 -25.5c-74.667 0 -133 27.667 -175 83c-37.333 49.333 -56 113 -56 191c0 82 18 146.333 54 193c40.667 52.667 100.667 79 180 79c34.667 0 69.167 -9.33301 103.5 -28
s59.833 -44.334 76.5 -77.001h2zM23.999 706l39.001 0.000976562c10.667 -54 45.667 -81 105 -81c58 0 93.667 27 107 81h37c-8.66699 -84 -58.334 -126 -149.001 -126c-40 0 -72.5 11.167 -97.5 33.5s-38.833 53.166 -41.5 92.499z" />
    <glyph glyph-name="glyph273" unicode="&#x128;" horiz-adv-x="278" 
d="M173 0h-68v720h68v-720zM6 780h-31.998c12 20 27.667 37.667 47 53c28 22.667 55.667 34 83 34c11.333 0 28.666 -6.66699 51.999 -20s40.666 -20 51.999 -20c20.667 0 42 15 64 45l35 -1c-5.33301 -8 -14.333 -19 -27 -33c-32 -35.333 -63.667 -53.333 -95 -54
c-16 0 -35.5 6.66699 -58.5 20s-40.167 20 -51.5 20c-19.333 0 -42.333 -14.667 -69 -44z" />
    <glyph glyph-name="glyph274" unicode="&#x129;" horiz-adv-x="222" 
d="M141 0h-60v518h60v-518zM-16 580l-31 0.000976562c35.333 55.333 76.333 83 123 83c11.333 0 28 -6.33301 50 -19s38.667 -19 50 -19c19.333 0 39.333 14.333 60 43l34 -1c-5.33301 -8.66699 -14 -19.334 -26 -32.001c-31.333 -33.333 -61.333 -50.333 -90 -51
c-15.333 0 -34 6.33301 -56 19s-38.333 19 -49 19c-18 0 -39.667 -14 -65 -42z" />
    <glyph glyph-name="Idotaccent" unicode="&#x130;" horiz-adv-x="429" 
d="M173 0h-68v720h68v-720zM161 839v102h65v-102h-65z" />
    <glyph glyph-name="dotlessi" unicode="&#x131;" horiz-adv-x="222" 
d="M138 0h-60v518h60v-518z" />
    <glyph glyph-name="Lslash" unicode="&#x141;" 
d="M535 0h-454v360l-81 -40v60l81 40v300h68v-250l81 40v-60l-81 -40v-352h386v-58z" />
    <glyph glyph-name="lslash" unicode="&#x142;" horiz-adv-x="222" 
d="M141 0h-60v340l-71 -40v60l71 40v320h60v-270l71 40v-60l-71 -40v-390z" />
    <glyph glyph-name="OE" unicode="&#x152;" horiz-adv-x="1000" 
d="M547 221l-0.000976562 276.999c0 58.667 -17.667 103.834 -53 135.501s-84.666 47.5 -147.999 47.5c-76 0 -134.5 -27.167 -175.5 -81.5s-61.5 -133.833 -61.5 -238.5c0 -98.667 19.333 -175.667 58 -231c42 -60.667 104.333 -91 187 -91c53.333 0 101.333 18 144 54
c32.667 28 49 70.667 49 128zM549.999 -0.000976562v72.001c-59.333 -60.667 -126.333 -91 -201 -91c-103.333 0 -182 38.667 -236 116c-48 67.333 -72 154.666 -72 261.999c0 112 24 201.333 72 268c53.333 74.667 131 112 233 112c98 0 166 -31.667 204 -95v76h407v-58
h-342v-260h320v-58h-320v-286h352v-58h-417z" />
    <glyph glyph-name="oe" unicode="&#x153;" horiz-adv-x="944" 
d="M904 245l-392.999 -0.000976562c-4.66699 -46 6.33301 -89.333 33 -130c32.667 -50 80 -75 142 -75c38 0 70.5 11 97.5 33s44.5 51 52.5 87h61c-12 -56 -36.667 -99 -74 -129s-83.666 -45 -138.999 -45c-94.667 0 -163 42 -205 126
c-40.667 -84 -111.334 -126 -212.001 -126c-69.333 0 -125.166 24.667 -167.499 74s-63.5 115.333 -63.5 198c0 80.667 18.667 145.334 56 194.001c41.333 53.333 101 80 179 80c97.333 0 166.666 -41.667 207.999 -125c43.333 83.333 111.666 125 204.999 125
c146.667 0 220 -95.667 220 -287zM100.001 248.999c0.666992 -60 15 -109 43 -147c30.667 -41.333 73.667 -62 129 -62c56 0 99.333 21.333 130 64c30 40.667 45 95.667 45 165c0 62.667 -15 112.667 -45 150c-32.667 39.333 -78 59 -136 59
c-53.333 0 -94.5 -20.333 -123.5 -61s-43.167 -96.667 -42.5 -168zM511.001 294.999l329 -0.000976562c0 55.333 -12.667 99 -38 131c-27.333 34.667 -67.666 52 -120.999 52c-49.333 0 -89.333 -17.667 -120 -53s-47.334 -78.666 -50.001 -129.999z" />
    <glyph glyph-name="Scedilla" unicode="&#x15e;" horiz-adv-x="656" 
d="M43 215l65.998 -0.00195312c10 -117.333 79 -176 207 -176c60.667 0 107.334 15 140.001 45c28.667 26.667 43 61.334 43 104.001c0 60.667 -38 103.667 -114 129l-211 60c-76 32.667 -114 89 -114 169c0 53.333 20.667 98 62 134c44.667 39.333 105.334 59 182.001 59
c77.333 0 138 -21.333 182 -64c40.667 -38.667 60.667 -89 60 -151h-65c0 52 -18 92 -54 120c-32 24.667 -73 37 -123 37c-58 0 -103.333 -14.333 -136 -43c-28 -25.333 -42 -56.666 -42 -93.999c0 -7.33301 0.666992 -14.666 2 -21.999c8 -50 50.333 -85.333 127 -106
l205 -57c71.333 -32.667 107 -88.667 107 -168c0 -66 -23.167 -117.5 -69.5 -154.5s-110.833 -55.5 -193.5 -55.5c-78 0 -140.333 19.667 -187 59c-49.333 41.333 -74 99.666 -74 174.999zM92.998 -188.002l14.998 30c30 -10 51.333 -15 64 -15c16.667 0 31.834 4 45.501 12
s20.5 19.667 20.5 35c0 26 -16.667 39 -50 39c-9.33301 0 -24 -2.66699 -44 -8l-15 13l60 82h39l-47 -59c16 4 28 6 36 6c20.667 0 38 -5.33301 52 -16s22.333 -22.667 25 -36c1.33301 -6.66699 2 -13 2 -19c0 -27.333 -11.333 -48.333 -34 -63c-20 -13.333 -46 -20 -78 -20
c-27.333 0 -57.666 6.33301 -90.999 19z" />
    <glyph glyph-name="scedilla" unicode="&#x15f;" horiz-adv-x="383" 
d="M46 162h61.002c9.33301 -44 26.166 -75.333 50.499 -94s59.166 -28 104.499 -28c41.333 0 73.666 9.66699 96.999 29c20.667 18 31 40.333 31 67c0 40.667 -28.667 69.334 -86 86.001l-160 40c-57.333 23.333 -86 64 -86 122c0 44 16.167 79.667 48.5 107
s76.833 41 133.5 41c119.333 0 186 -54.333 200 -163h-61c-10 72.667 -56.667 109 -140 109c-37.333 0 -66.166 -8 -86.499 -24s-30.5 -37.667 -30.5 -65c0 -38 28.667 -66 86 -84l160 -46c57.333 -24.667 86 -65.334 86 -122.001c0 -48 -20 -85.667 -60 -113
c-37.333 -25.333 -87.666 -38 -150.999 -38c-59.333 0 -106.333 16.667 -141 50s-53.334 75.333 -56.001 126zM-3.99805 -188l14.998 30c30 -10 51.333 -15 64 -15c16.667 0 31.834 4 45.501 12s20.5 19.667 20.5 35c0 26 -16.667 39 -50 39c-9.33301 0 -24 -2.66699 -44 -8
l-15 13l60 82h39l-47 -59c16 4 28 6 36 6c20.667 0 38 -5.33301 52 -16s22.333 -22.667 25 -36c1.33301 -6.66699 2 -13 2 -19c0 -27.333 -11.333 -48.333 -34 -63c-20 -13.333 -46 -20 -78 -20c-27.333 0 -57.666 6.33301 -90.999 19z" />
    <glyph glyph-name="Scaron" unicode="&#x160;" horiz-adv-x="611" 
d="M43 215l65.998 -0.00195312c10 -117.333 79 -176 207 -176c60.667 0 107.334 15 140.001 45c28.667 26.667 43 61.334 43 104.001c0 60.667 -38 103.667 -114 129l-211 60c-76 32.667 -114 89 -114 169c0 53.333 20.667 98 62 134c44.667 39.333 105.334 59 182.001 59
c77.333 0 138 -21.333 182 -64c40.667 -38.667 60.667 -89 60 -151h-65c0 52 -18 92 -54 120c-32 24.667 -73 37 -123 37c-58 0 -103.333 -14.333 -136 -43c-28 -25.333 -42 -56.666 -42 -93.999c0 -7.33301 0.666992 -14.666 2 -21.999c8 -50 50.333 -85.333 127 -106
l205 -57c71.333 -32.667 107 -88.667 107 -168c0 -66 -23.167 -117.5 -69.5 -154.5s-110.833 -55.5 -193.5 -55.5c-78 0 -140.333 19.667 -187 59c-49.333 41.333 -74 99.666 -74 174.999zM309.998 812.998l82 102h65l-113 -139h-67l-114 139h65z" />
    <glyph glyph-name="scaron" unicode="&#x161;" horiz-adv-x="500" 
d="M46 162h61.002c9.33301 -44 26.166 -75.333 50.499 -94s59.166 -28 104.499 -28c41.333 0 73.666 9.66699 96.999 29c20.667 18 31 40.333 31 67c0 40.667 -28.667 69.334 -86 86.001l-160 40c-57.333 23.333 -86 64 -86 122c0 44 16.167 79.667 48.5 107
s76.833 41 133.5 41c119.333 0 186 -54.333 200 -163h-61c-10 72.667 -56.667 109 -140 109c-37.333 0 -66.166 -8 -86.499 -24s-30.5 -37.667 -30.5 -65c0 -38 28.667 -66 86 -84l160 -46c57.333 -24.667 86 -65.334 86 -122.001c0 -48 -20 -85.667 -60 -113
c-37.333 -25.333 -87.666 -38 -150.999 -38c-59.333 0 -106.333 16.667 -141 50s-53.334 75.333 -56.001 126zM255.002 611l82 102h65l-113 -139h-67l-114 139h65z" />
    <glyph glyph-name="ch903" unicode="&#x168;" horiz-adv-x="722" 
d="M82 271l0.000976562 449h68v-429c0 -82.667 14.333 -143.667 43 -183c33.333 -46 89.333 -69 168 -69c79.333 0 135.666 23 168.999 69c28 38.667 42 99.667 42 183v429h68v-449c0 -193.333 -93 -290 -279 -290s-279 96.667 -279 290zM227.001 760h-31.998
c12 20 27.667 37.667 47 53c28 22.667 55.667 34 83 34c11.333 0 28.666 -6.66699 51.999 -20s40.666 -20 51.999 -20c20.667 0 42 15 64 45l35 -1c-5.33301 -8 -14.333 -19 -27 -33c-32 -35.333 -63.667 -53.333 -95 -54c-16 0 -35.5 6.66699 -58.5 20s-40.167 20 -51.5 20
c-19.333 0 -42.333 -14.667 -69 -44z" />
    <glyph glyph-name="ch904" unicode="&#x169;" 
d="M423 236l-0.000976562 282h60v-518h-60v72c-22.667 -26 -43 -44.667 -61 -56c-31.333 -20 -66.666 -30 -105.999 -30c-122.667 0 -184 63.667 -184 191v341h60v-340c0 -92 44.333 -138 133 -138c52 0 92.333 20.333 121 61c24.667 36 37 81 37 135zM151.999 570
l-31 0.000976562c35.333 55.333 76.333 83 123 83c11.333 0 28 -6.33301 50 -19s38.667 -19 50 -19c19.333 0 39.333 14.333 60 43l34 -1c-5.33301 -8.66699 -14 -19.334 -26 -32.001c-31.333 -33.333 -61.333 -50.333 -90 -51c-15.333 0 -34 6.33301 -56 19
s-38.333 19 -49 19c-18 0 -39.667 -14 -65 -42z" />
    <glyph glyph-name="Ydieresis" unicode="&#x178;" horiz-adv-x="611" 
d="M90 720l212 -347l217 347h79l-261 -406v-314h-68v309l-257 411h78zM199 786v102h65v-102h-65zM358 786v102h65v-102h-65z" />
    <glyph glyph-name="Zcaron" unicode="&#x17d;" horiz-adv-x="611" 
d="M579 0h-548v57l461 605h-422v58h506v-57l-461 -605h464v-58zM310 813l82 102h65l-113 -139h-67l-114 139h65z" />
    <glyph glyph-name="zcaron" unicode="&#x17e;" horiz-adv-x="500" 
d="M467 0h-434v53l344 415h-321v50h398v-53l-344 -415h357v-50zM255 611l82 102h65l-113 -139h-67l-114 139h65z" />
    <glyph glyph-name="florin" unicode="&#x192;" 
d="M539 714l-20.001 -49c-20 9.33301 -37 14 -51 14c-8 0 -16.667 -0.666992 -26 -2c-32 -5.33301 -56 -34 -72 -86l-32 -143h115v-48h-123l-64 -336c-16 -82.667 -36.333 -143.667 -61 -183c-33.333 -51.333 -79 -77 -137 -77c-16 0 -34.333 3.66699 -55 11l19 57
c14.667 -8.66699 32 -13 52 -13c36.667 0 66.667 33.333 90 100c16.667 48 37.334 141 62.001 279l29 162h-113v48h121l29 123c14.667 50 33.334 88 56.001 114c28 32.667 65 49 111 49c23.333 0 46.666 -6.66699 69.999 -20z" />
    <glyph glyph-name="glyph277" unicode="&#x1a0;" horiz-adv-x="778" 
d="M389 39c88.667 0 156.667 32.333 204 97c42 56.667 63 131 63 223c0 92.667 -21 167.667 -63 225c-48 64.667 -116.667 97 -206 97c-87.333 0 -155 -33 -203 -99c-42 -58 -63 -132.333 -63 -223c0 -92 21 -166.667 63 -224c48 -64 116.333 -96 205 -96zM473 729
l95.002 -11.998c14 5.33301 21 14 21 26c0 8.66699 -4.66699 15.667 -14 21c-4.66699 2.66699 -13.334 4 -26.001 4c3.33301 3.33301 13 6.66602 29 9.99902s26 3.66602 30 0.999023c14 -8 21 -19.667 21 -35c0 -27.333 -19 -42.333 -57 -45l-16 -1
c57.333 -32 100.666 -80.333 129.999 -145c25.333 -57.333 38 -122 38 -194c0 -109.333 -28 -198.333 -84 -267c-60.667 -74 -144.667 -111 -252 -111s-191 37 -251 111c-56 68 -84 157 -84 267c0 108.667 27.667 197.667 83 267c60 75.333 143 113 249 113
c32.667 0 62 -3.33301 88 -10z" />
    <glyph glyph-name="glyph278" unicode="&#x1a1;" 
d="M454 259c0 63.333 -12.999 114.334 -38.999 153.001c-30.667 44 -76.334 66 -137.001 66c-59.333 0 -104.666 -22.667 -135.999 -68c-26.667 -38.667 -40 -89 -40 -151s13.333 -112.667 40 -152c31.333 -44.667 76.666 -67 135.999 -67c58.667 0 103.667 22.667 135 68
c27.333 39.333 41 89.666 41 150.999zM349.001 523.001l66.001 -7.99512c16 7.33301 24 16.666 24 27.999c0 8.66699 -4.66699 15.667 -14 21c-4.66699 2.66699 -13.334 4 -26.001 4c3.33301 3.33301 13 6.66602 29 9.99902s26 3.66602 30 0.999023c14 -8 21 -19.667 21 -35
c0 -26.667 -19 -40 -57 -40h-24c80 -44.667 120 -126.334 120 -245.001c0 -78 -20 -142 -60 -192c-44 -54.667 -104 -81.667 -180 -81c-77.333 0.666992 -137.333 27.334 -180 80.001c-40 49.333 -60 113.666 -60 192.999s19.667 143.666 59 192.999
c43.333 53.333 103.666 80 180.999 80c26.667 0 50.334 -3 71.001 -9z" />
    <glyph glyph-name="glyph279" unicode="&#x1af;" horiz-adv-x="722" 
d="M640 704l0.00195312 -432.998c0 -193.333 -93 -290 -279 -290s-279 96.667 -279 290v449h68v-429c0 -82.667 14.333 -143.667 43 -183c33.333 -46 89.333 -69 168 -69c79.333 0 135.666 23 168.999 69c28 38.667 42 99.667 42 183v429l65 -3c14 5.33301 21 14 21 26
c0 8.66699 -4.66699 15.667 -14 21c-4.66699 2.66699 -13.334 4 -26.001 4c3.33301 3.33301 13 6.66602 29 9.99902s26 3.66602 30 0.999023c14 -8 21 -19.667 21 -35c0 -26.667 -19 -40 -57 -40h-1z" />
    <glyph glyph-name="glyph280" unicode="&#x1b0;" 
d="M483 504v-503.997h-60v72c-22.667 -26 -43 -44.667 -61 -56c-31.333 -20 -66.666 -30 -105.999 -30c-122.667 0 -184 63.667 -184 191v341h60v-340c0 -92 44.333 -138 133 -138c52 0 92.333 20.333 121 61c24.667 36 37 81 37 135v282l53 -3
c16 7.33301 24 16.666 24 27.999c0 8.66699 -4.66699 15.667 -14 21c-4.66699 2.66699 -13.334 4 -26.001 4c3.33301 3.33301 13 6.66602 29 9.99902s26 3.66602 30 0.999023c14 -8 21 -19.667 21 -35c0 -26.667 -19 -40 -57 -40z" />
    <glyph glyph-name="circumflex" unicode="&#x2c6;" horiz-adv-x="333" 
d="M171 676l-82 -102h-65l114 139h67l113 -139h-65z" />
    <glyph glyph-name="caron" unicode="&#x2c7;" horiz-adv-x="333" 
d="M171 611l82 102h65l-113 -139h-67l-114 139h65z" />
    <glyph glyph-name="breve" unicode="&#x2d8;" horiz-adv-x="333" 
d="M28 706l39.001 0.000976562c10.667 -54 45.667 -81 105 -81c58 0 93.667 27 107 81h37c-8.66699 -84 -58.334 -126 -149.001 -126c-40 0 -72.5 11.167 -97.5 33.5s-38.833 53.166 -41.5 92.499z" />
    <glyph glyph-name="dotaccent" unicode="&#x2d9;" horiz-adv-x="333" 
d="M134 584v102h65v-102h-65z" />
    <glyph glyph-name="ring" unicode="&#x2da;" horiz-adv-x="333" 
d="M167 578c-27.333 0 -50.835 9.83301 -70.502 29.5s-29.5 42.834 -29.5 69.501s10 50 30 70s43.333 30 70 30s49.834 -10 69.501 -30s29.5 -43.333 29.5 -70s-9.66699 -49.834 -29 -69.501s-42.666 -29.5 -69.999 -29.5zM166.998 611c17.333 0 32.667 6.66797 46 20.001
s20 28.666 20 45.999c0 18 -6.5 33.667 -19.5 47s-28.5 20 -46.5 20s-33.667 -6.66699 -47 -20s-20 -29 -20 -47s6.66699 -33.5 20 -46.5s29 -19.5 47 -19.5z" />
    <glyph glyph-name="ogonek" unicode="&#x2db;" horiz-adv-x="333" 
d="M149 0l50 0.000976562v-2c-53.333 -26.667 -80 -55.667 -80 -87c0 -18.667 7 -33 21 -43c12 -9.33301 27.333 -14 46 -14c14 0 28 3 42 9v-44c-16.667 -6 -34 -9 -52 -9c-28 0 -51.333 7.33301 -70 22c-21.333 16 -32 37.667 -32 65c0 43.333 25 77.666 75 102.999z" />
    <glyph glyph-name="tilde" unicode="&#x2dc;" horiz-adv-x="333" 
d="M52 586h-35.999c2 26.667 11.167 49.5 27.5 68.5s37.5 28.5 63.5 28.5c16 0 39.5 -7.5 70.5 -22.5s54.167 -22.5 69.5 -22.5c22.667 0 37.334 16.667 44.001 50h38c-0.666992 -6 -3.33398 -18.667 -8.00098 -38c-17.333 -40 -42 -60 -74 -60
c-19.333 0 -44.833 7.5 -76.5 22.5s-54.834 22.5 -69.501 22.5c-22 0 -38.333 -16.333 -49 -49z" />
    <glyph glyph-name="hungarumlaut" unicode="&#x2dd;" horiz-adv-x="333" 
d="M160 574h-51l111 139h77zM322 574h-51l111 139h77z" />
    <glyph glyph-name="Delta" unicode="&#x394;" horiz-adv-x="1000" 
 />
    <glyph glyph-name="Delta" unicode="&#x2206;" horiz-adv-x="1000" 
 />
    <glyph glyph-name="Omega" unicode="&#x3a9;" horiz-adv-x="1000" 
 />
    <glyph glyph-name="Omega" unicode="&#x2126;" horiz-adv-x="1000" 
 />
    <glyph glyph-name="pi" unicode="&#x3c0;" horiz-adv-x="1000" 
 />
    <glyph glyph-name="glyph281" unicode="&#x1ea0;" horiz-adv-x="667" 
d="M85 0h-70l283 720h77l276 -720h-70l-83 226h-328zM334 662l-141 -378h282zM367 -102h-65v80h65v-80z" />
    <glyph glyph-name="glyph282" unicode="&#x1ea1;" 
d="M411 191l-0.000976562 80.999c-34 -14 -85.667 -23.667 -155 -29c-97.333 -7.33301 -146 -44 -146 -110c0 -29.333 11.667 -52.666 35 -69.999c20.667 -15.333 46.334 -23 77.001 -23c52 0 95.333 12 130 36c39.333 26.667 59 65 59 115zM226.999 290.999l82.9971 11.002
c39.333 5.33301 63 9.66602 71 12.999c20 9.33301 30 28.666 30 57.999c0 70 -43 105 -129 105c-91.333 0 -141.666 -39 -150.999 -117h-61c4 57.333 26.667 101 68 131c36.667 26.667 85 40 145 40c125.333 0 188 -53.667 188 -161v-282c0 -32 9 -48 27 -48
c8.66699 0 20.667 2.66699 36 8v-47c-20 -6.66699 -35.667 -10 -47 -10c-27.333 0 -46.5 6.33301 -57.5 19s-16.833 33 -17.5 61c-51.333 -57.333 -115.666 -86 -192.999 -86c-49.333 0 -89.666 12.333 -120.999 37c-34.667 26.667 -52 64 -52 112c0 88 60.333 140 181 156z
M313.996 -137.999h-61v76h61v-76z" />
    <glyph glyph-name="glyph283" unicode="&#x1ea2;" horiz-adv-x="667" 
d="M85 0h-70l283 720h77l276 -720h-70l-83 226h-328zM334 662l-141 -378h282zM353 780l-19.002 5.99902l-20 -18c-1.33301 30 5.33398 52.333 20.001 67c32 32.667 48 56 48 70c0 32.667 -16.667 49 -50 49c-18 0 -32.667 -6.33301 -44 -19s-16.666 -28 -15.999 -46l-19 12
c-2 23.333 5.83301 43.833 23.5 61.5s38.5 26.5 62.5 26.5c22.667 0 42.167 -6.5 58.5 -19.5s24.5 -30.833 24.5 -53.5c0 -16 -7.33301 -32.333 -22 -49l-39 -44c-5.33301 -11.333 -8 -25.666 -8 -42.999z" />
    <glyph glyph-name="glyph284" unicode="&#x1ea3;" 
d="M411 191l-0.000976562 80.999c-34 -14 -85.667 -23.667 -155 -29c-97.333 -7.33301 -146 -44 -146 -110c0 -29.333 11.667 -52.666 35 -69.999c20.667 -15.333 46.334 -23 77.001 -23c52 0 95.333 12 130 36c39.333 26.667 59 65 59 115zM226.999 290.999l82.9971 11.002
c39.333 5.33301 63 9.66602 71 12.999c20 9.33301 30 28.666 30 57.999c0 70 -43 105 -129 105c-91.333 0 -141.666 -39 -150.999 -117h-61c4 57.333 26.667 101 68 131c36.667 26.667 85 40 145 40c125.333 0 188 -53.667 188 -161v-282c0 -32 9 -48 27 -48
c8.66699 0 20.667 2.66699 36 8v-47c-20 -6.66699 -35.667 -10 -47 -10c-27.333 0 -46.5 6.33301 -57.5 19s-16.833 33 -17.5 61c-51.333 -57.333 -115.666 -86 -192.999 -86c-49.333 0 -89.666 12.333 -120.999 37c-34.667 26.667 -52 64 -52 112c0 88 60.333 140 181 156z
M300.996 600.001l-18 6l-19 -17c-1.33301 28 5 49 19 63c30.667 31.333 46 53.666 46 66.999c0 30.667 -16 46 -48 46c-17.333 0 -31.333 -6 -42 -18s-15.667 -26.667 -15 -44l-18 12c-2 22.667 5.5 42.167 22.5 58.5s36.833 24.5 59.5 24.5
c21.333 0 39.833 -6.16699 55.5 -18.5s23.5 -29.166 23.5 -50.499c0 -14 -7 -30 -21 -48l-37 -40c-5.33301 -11.333 -8 -25 -8 -41z" />
    <glyph glyph-name="glyph285" unicode="&#x1ea4;" horiz-adv-x="667" 
d="M85 0h-70l283 720h77l276 -720h-70l-83 226h-328zM334 662l-141 -378h282zM334 832l-74 -92h-58l102 125h61l101 -125h-58zM465 832h-21l91 139h81z" />
    <glyph glyph-name="glyph286" unicode="&#x1ea5;" 
d="M411 191l-0.000976562 80.999c-34 -14 -85.667 -23.667 -155 -29c-97.333 -7.33301 -146 -44 -146 -110c0 -29.333 11.667 -52.666 35 -69.999c20.667 -15.333 46.334 -23 77.001 -23c52 0 95.333 12 130 36c39.333 26.667 59 65 59 115zM226.999 290.999l82.9971 11.002
c39.333 5.33301 63 9.66602 71 12.999c20 9.33301 30 28.666 30 57.999c0 70 -43 105 -129 105c-91.333 0 -141.666 -39 -150.999 -117h-61c4 57.333 26.667 101 68 131c36.667 26.667 85 40 145 40c125.333 0 188 -53.667 188 -161v-282c0 -32 9 -48 27 -48
c8.66699 0 20.667 2.66699 36 8v-47c-20 -6.66699 -35.667 -10 -47 -10c-27.333 0 -46.5 6.33301 -57.5 19s-16.833 33 -17.5 61c-51.333 -57.333 -115.666 -86 -192.999 -86c-49.333 0 -89.666 12.333 -120.999 37c-34.667 26.667 -52 64 -52 112c0 88 60.333 140 181 156z
M282.996 647.001l-71 -87h-55l97 118h58l96 -118h-55zM406.996 647.001h-20l86 132h77z" />
    <glyph glyph-name="glyph287" unicode="&#x1ea6;" horiz-adv-x="667" 
d="M85 0h-70l283 720h77l276 -720h-70l-83 226h-328zM334 662l-141 -378h282zM334 832l-74 -92h-58l102 125h61l101 -125h-58zM224 832h-21l-151 139h81z" />
    <glyph glyph-name="glyph288" unicode="&#x1ea7;" 
d="M411 191l-0.000976562 80.999c-34 -14 -85.667 -23.667 -155 -29c-97.333 -7.33301 -146 -44 -146 -110c0 -29.333 11.667 -52.666 35 -69.999c20.667 -15.333 46.334 -23 77.001 -23c52 0 95.333 12 130 36c39.333 26.667 59 65 59 115zM226.999 290.999l82.9971 11.002
c39.333 5.33301 63 9.66602 71 12.999c20 9.33301 30 28.666 30 57.999c0 70 -43 105 -129 105c-91.333 0 -141.666 -39 -150.999 -117h-61c4 57.333 26.667 101 68 131c36.667 26.667 85 40 145 40c125.333 0 188 -53.667 188 -161v-282c0 -32 9 -48 27 -48
c8.66699 0 20.667 2.66699 36 8v-47c-20 -6.66699 -35.667 -10 -47 -10c-27.333 0 -46.5 6.33301 -57.5 19s-16.833 33 -17.5 61c-51.333 -57.333 -115.666 -86 -192.999 -86c-49.333 0 -89.666 12.333 -120.999 37c-34.667 26.667 -52 64 -52 112c0 88 60.333 140 181 156z
M282.996 647.001l-70 -87h-55l97 118h58l96 -118h-55zM178.996 647.001h-20l-143 132h77z" />
    <glyph glyph-name="glyph289" unicode="&#x1ea8;" horiz-adv-x="667" 
d="M505 826l-19.002 5.99902l-20 -18c-1.33301 30 5.33398 52.333 20.001 67c32 32.667 48 56 48 70c0 32.667 -16.667 49 -50 49c-18 0 -32.667 -6.33301 -44 -19s-16.666 -28 -15.999 -46l-19 12c-2 23.333 5.83301 43.833 23.5 61.5s38.5 26.5 62.5 26.5
c22.667 0 42.167 -6.5 58.5 -19.5s24.5 -30.833 24.5 -53.5c0 -16 -7.33301 -32.333 -22 -49l-39 -44c-5.33301 -11.333 -8 -25.666 -8 -42.999zM84.998 -0.000976562h-70l283 720h77l276 -720h-70l-83 226h-328zM333.998 661.999l-141 -378h282zM333.998 831.999l-74 -92
h-58l102 125h61l101 -125h-58z" />
    <glyph glyph-name="glyph290" unicode="&#x1ea9;" 
d="M411 191l-0.000976562 80.999c-34 -14 -85.667 -23.667 -155 -29c-97.333 -7.33301 -146 -44 -146 -110c0 -29.333 11.667 -52.666 35 -69.999c20.667 -15.333 46.334 -23 77.001 -23c52 0 95.333 12 130 36c39.333 26.667 59 65 59 115zM226.999 290.999l82.9971 11.002
c39.333 5.33301 63 9.66602 71 12.999c20 9.33301 30 28.666 30 57.999c0 70 -43 105 -129 105c-91.333 0 -141.666 -39 -150.999 -117h-61c4 57.333 26.667 101 68 131c36.667 26.667 85 40 145 40c125.333 0 188 -53.667 188 -161v-282c0 -32 9 -48 27 -48
c8.66699 0 20.667 2.66699 36 8v-47c-20 -6.66699 -35.667 -10 -47 -10c-27.333 0 -46.5 6.33301 -57.5 19s-16.833 33 -17.5 61c-51.333 -57.333 -115.666 -86 -192.999 -86c-49.333 0 -89.666 12.333 -120.999 37c-34.667 26.667 -52 64 -52 112c0 88 60.333 140 181 156z
M444.996 642.001l-18 6l-19 -17c-1.33301 28 5 49 19 63c30.667 31.333 46 53.666 46 66.999c0 30.667 -16 46 -48 46c-17.333 0 -31.333 -6 -42 -18s-15.667 -26.667 -15 -44l-18 12c-2 22.667 5.5 42.167 22.5 58.5s36.833 24.5 59.5 24.5
c21.333 0 39.833 -6.16699 55.5 -18.5s23.5 -29.166 23.5 -50.499c0 -14 -7 -30 -21 -48l-37 -40c-5.33301 -11.333 -8 -25 -8 -41zM282.996 648.001l-71 -88h-55l97 119h58l96 -119h-55z" />
    <glyph glyph-name="glyph291" unicode="&#x1eaa;" horiz-adv-x="667" 
d="M85 0h-70l283 720h77l276 -720h-70l-83 226h-328zM334 662l-141 -378h282zM334 832l-74 -92h-58l102 125h61l101 -125h-58zM201 891h-31.998c12 20 27.667 37.667 47 53c28 22.667 55.667 34 83 34c11.333 0 28.666 -6.66699 51.999 -20s40.666 -20 51.999 -20
c20.667 0 42 15 64 45l35 -1c-5.33301 -8 -14.333 -19 -27 -33c-32 -35.333 -63.667 -53.333 -95 -54c-16 0 -35.5 6.66699 -58.5 20s-40.167 20 -51.5 20c-19.333 0 -42.333 -14.667 -69 -44z" />
    <glyph glyph-name="glyph292" unicode="&#x1eab;" 
d="M411 191l-0.000976562 80.999c-34 -14 -85.667 -23.667 -155 -29c-97.333 -7.33301 -146 -44 -146 -110c0 -29.333 11.667 -52.666 35 -69.999c20.667 -15.333 46.334 -23 77.001 -23c52 0 95.333 12 130 36c39.333 26.667 59 65 59 115zM226.999 290.999l82.9971 11.002
c39.333 5.33301 63 9.66602 71 12.999c20 9.33301 30 28.666 30 57.999c0 70 -43 105 -129 105c-91.333 0 -141.666 -39 -150.999 -117h-61c4 57.333 26.667 101 68 131c36.667 26.667 85 40 145 40c125.333 0 188 -53.667 188 -161v-282c0 -32 9 -48 27 -48
c8.66699 0 20.667 2.66699 36 8v-47c-20 -6.66699 -35.667 -10 -47 -10c-27.333 0 -46.5 6.33301 -57.5 19s-16.833 33 -17.5 61c-51.333 -57.333 -115.666 -86 -192.999 -86c-49.333 0 -89.666 12.333 -120.999 37c-34.667 26.667 -52 64 -52 112c0 88 60.333 140 181 156z
M282.996 647.001l-70 -87h-55l97 119h58l96 -119h-56zM156.996 703.001l-31 0.000976562c35.333 55.333 76.333 83 123 83c11.333 0 28 -6.33301 50 -19s38.667 -19 50 -19c19.333 0 39.333 14.333 60 43l34 -1c-5.33301 -8.66699 -14 -19.334 -26 -32.001
c-31.333 -33.333 -61.333 -50.333 -90 -51c-15.333 0 -34 6.33301 -56 19s-38.333 19 -49 19c-18 0 -39.667 -14 -65 -42z" />
    <glyph glyph-name="glyph293" unicode="&#x1eac;" horiz-adv-x="667" 
d="M85 0h-70l283 720h77l276 -720h-70l-83 226h-328zM334 662l-141 -378h282zM334 832l-74 -92h-58l102 125h61l101 -125h-58zM367 -102h-65v80h65v-80z" />
    <glyph glyph-name="glyph294" unicode="&#x1ead;" 
d="M411 191l-0.000976562 80.999c-34 -14 -85.667 -23.667 -155 -29c-97.333 -7.33301 -146 -44 -146 -110c0 -29.333 11.667 -52.666 35 -69.999c20.667 -15.333 46.334 -23 77.001 -23c52 0 95.333 12 130 36c39.333 26.667 59 65 59 115zM226.999 290.999l82.9971 11.002
c39.333 5.33301 63 9.66602 71 12.999c20 9.33301 30 28.666 30 57.999c0 70 -43 105 -129 105c-91.333 0 -141.666 -39 -150.999 -117h-61c4 57.333 26.667 101 68 131c36.667 26.667 85 40 145 40c125.333 0 188 -53.667 188 -161v-282c0 -32 9 -48 27 -48
c8.66699 0 20.667 2.66699 36 8v-47c-20 -6.66699 -35.667 -10 -47 -10c-27.333 0 -46.5 6.33301 -57.5 19s-16.833 33 -17.5 61c-51.333 -57.333 -115.666 -86 -192.999 -86c-49.333 0 -89.666 12.333 -120.999 37c-34.667 26.667 -52 64 -52 112c0 88 60.333 140 181 156z
M282.996 647.001l-70 -87h-55l97 118h58l96 -118h-55zM313.996 -137.999h-61v76h61v-76z" />
    <glyph glyph-name="glyph295" unicode="&#x1eae;" horiz-adv-x="667" 
d="M85 0h-70l283 720h77l276 -720h-70l-83 226h-328zM334 662l-141 -378h282zM205 873h35c10 -48 41.667 -72 95 -72c52.667 0 84.667 24 96 72h33c-8 -75.333 -52.667 -113 -134 -113c-36 0 -65.167 10 -87.5 30s-34.833 47.667 -37.5 83zM344 873h-21l91 139h81z" />
    <glyph glyph-name="glyph296" unicode="&#x1eaf;" 
d="M411 191l-0.000976562 80.999c-34 -14 -85.667 -23.667 -155 -29c-97.333 -7.33301 -146 -44 -146 -110c0 -29.333 11.667 -52.666 35 -69.999c20.667 -15.333 46.334 -23 77.001 -23c52 0 95.333 12 130 36c39.333 26.667 59 65 59 115zM226.999 290.999l82.9971 11.002
c39.333 5.33301 63 9.66602 71 12.999c20 9.33301 30 28.666 30 57.999c0 70 -43 105 -129 105c-91.333 0 -141.666 -39 -150.999 -117h-61c4 57.333 26.667 101 68 131c36.667 26.667 85 40 145 40c125.333 0 188 -53.667 188 -161v-282c0 -32 9 -48 27 -48
c8.66699 0 20.667 2.66699 36 8v-47c-20 -6.66699 -35.667 -10 -47 -10c-27.333 0 -46.5 6.33301 -57.5 19s-16.833 33 -17.5 61c-51.333 -57.333 -115.666 -86 -192.999 -86c-49.333 0 -89.666 12.333 -120.999 37c-34.667 26.667 -52 64 -52 112c0 88 60.333 140 181 156z
M164.996 687.001h33c8.66699 -45.333 38.667 -68 90 -68c50 0 80.333 22.667 91 68h32c-8 -71.333 -50.667 -107 -128 -107c-34 0 -61.5 9.5 -82.5 28.5s-32.833 45.167 -35.5 78.5zM296.996 687.001h-20l86 132h77z" />
    <glyph glyph-name="glyph297" unicode="&#x1eb0;" horiz-adv-x="667" 
d="M85 0h-70l283 720h77l276 -720h-70l-83 226h-328zM334 662l-141 -378h282zM205 873h35c10 -48 41.667 -72 95 -72c52.667 0 84.667 24 96 72h33c-8 -75.333 -52.667 -113 -134 -113c-36 0 -65.167 10 -87.5 30s-34.833 47.667 -37.5 83zM346 873h-21l-151 139h81z" />
    <glyph glyph-name="glyph298" unicode="&#x1eb1;" 
d="M411 191l-0.000976562 80.999c-34 -14 -85.667 -23.667 -155 -29c-97.333 -7.33301 -146 -44 -146 -110c0 -29.333 11.667 -52.666 35 -69.999c20.667 -15.333 46.334 -23 77.001 -23c52 0 95.333 12 130 36c39.333 26.667 59 65 59 115zM226.999 290.999l82.9971 11.002
c39.333 5.33301 63 9.66602 71 12.999c20 9.33301 30 28.666 30 57.999c0 70 -43 105 -129 105c-91.333 0 -141.666 -39 -150.999 -117h-61c4 57.333 26.667 101 68 131c36.667 26.667 85 40 145 40c125.333 0 188 -53.667 188 -161v-282c0 -32 9 -48 27 -48
c8.66699 0 20.667 2.66699 36 8v-47c-20 -6.66699 -35.667 -10 -47 -10c-27.333 0 -46.5 6.33301 -57.5 19s-16.833 33 -17.5 61c-51.333 -57.333 -115.666 -86 -192.999 -86c-49.333 0 -89.666 12.333 -120.999 37c-34.667 26.667 -52 64 -52 112c0 88 60.333 140 181 156z
M163.996 687.001h33.999c8.66699 -45.333 38.667 -68 90 -68c50 0 80.333 22.667 91 68h31c-7.33301 -71.333 -49.666 -107 -126.999 -107c-34 0 -61.667 9.5 -83 28.5s-33.333 45.167 -36 78.5zM297.995 687.001h-20l-143 132h77z" />
    <glyph glyph-name="glyph299" unicode="&#x1eb2;" horiz-adv-x="667" 
d="M85 0h-70l283 720h77l276 -720h-70l-83 226h-328zM334 662l-141 -378h282zM205 873h35c10 -48 41.667 -72 95 -72c52.667 0 84.667 24 96 72h33c-8 -75.333 -52.667 -113 -134 -113c-36 0 -65.167 10 -87.5 30s-34.833 47.667 -37.5 83zM353 873l-19.002 5.99902l-20 -18
c-1.33301 30 5.33398 52.333 20.001 67c32 32.667 48 56 48 70c0 32.667 -16.667 49 -50 49c-18 0 -32.667 -6.33301 -44 -19s-16.666 -28 -15.999 -46l-19 12c-2 23.333 5.83301 43.833 23.5 61.5s38.5 26.5 62.5 26.5c22.667 0 42.167 -6.5 58.5 -19.5
s24.5 -30.833 24.5 -53.5c0 -16 -7.33301 -32.333 -22 -49l-39 -44c-5.33301 -11.333 -8 -25.666 -8 -42.999z" />
    <glyph glyph-name="glyph300" unicode="&#x1eb3;" 
d="M411 191l-0.000976562 80.999c-34 -14 -85.667 -23.667 -155 -29c-97.333 -7.33301 -146 -44 -146 -110c0 -29.333 11.667 -52.666 35 -69.999c20.667 -15.333 46.334 -23 77.001 -23c52 0 95.333 12 130 36c39.333 26.667 59 65 59 115zM226.999 290.999l82.9971 11.002
c39.333 5.33301 63 9.66602 71 12.999c20 9.33301 30 28.666 30 57.999c0 70 -43 105 -129 105c-91.333 0 -141.666 -39 -150.999 -117h-61c4 57.333 26.667 101 68 131c36.667 26.667 85 40 145 40c125.333 0 188 -53.667 188 -161v-282c0 -32 9 -48 27 -48
c8.66699 0 20.667 2.66699 36 8v-47c-20 -6.66699 -35.667 -10 -47 -10c-27.333 0 -46.5 6.33301 -57.5 19s-16.833 33 -17.5 61c-51.333 -57.333 -115.666 -86 -192.999 -86c-49.333 0 -89.666 12.333 -120.999 37c-34.667 26.667 -52 64 -52 112c0 88 60.333 140 181 156z
M164.996 687.001h33c8.66699 -45.333 38.667 -68 90 -68c50 0 80.333 22.667 91 68h32c-8 -71.333 -50.667 -107 -128 -107c-34 0 -61.5 9.5 -82.5 28.5s-32.833 45.167 -35.5 78.5zM304.996 687.001l-18 6l-19 -17c-1.33301 28 5 49 19 63c30.667 30.667 46 53 46 67
c0 31.333 -16 47 -48 47c-17.333 0 -31.333 -6 -42 -18s-15.667 -26.667 -15 -44l-18 11c-2 22.667 5.5 42.334 22.5 59.001s36.833 25 59.5 25c21.333 0 39.833 -6.33301 55.5 -19s23.5 -29.667 23.5 -51c0 -14 -7 -30 -21 -48l-37 -40
c-5.33301 -10.667 -8 -24.334 -8 -41.001z" />
    <glyph glyph-name="glyph301" unicode="&#x1eb4;" horiz-adv-x="667" 
d="M85 0h-70l283 720h77l276 -720h-70l-83 226h-328zM334 662l-141 -378h282zM205 873h35c10 -48 41.667 -72 95 -72c52.667 0 84.667 24 96 72h33c-8 -75.333 -52.667 -113 -134 -113c-36 0 -65.167 10 -87.5 30s-34.833 47.667 -37.5 83zM350 894h-31.998
c12 20 27.667 37.667 47 53c28 22.667 55.667 34 83 34c11.333 0 28.666 -6.66699 51.999 -20s40.666 -20 51.999 -20c20.667 0 42 15 64 45l35 -1c-5.33301 -8 -14.333 -19 -27 -33c-32 -35.333 -63.667 -53.333 -95 -54c-16 0 -35.5 6.66699 -58.5 20s-40.167 20 -51.5 20
c-19.333 0 -42.333 -14.667 -69 -44z" />
    <glyph glyph-name="glyph302" unicode="&#x1eb5;" 
d="M411 191l-0.000976562 80.999c-34 -14 -85.667 -23.667 -155 -29c-97.333 -7.33301 -146 -44 -146 -110c0 -29.333 11.667 -52.666 35 -69.999c20.667 -15.333 46.334 -23 77.001 -23c52 0 95.333 12 130 36c39.333 26.667 59 65 59 115zM226.999 290.999l82.9971 11.002
c39.333 5.33301 63 9.66602 71 12.999c20 9.33301 30 28.666 30 57.999c0 70 -43 105 -129 105c-91.333 0 -141.666 -39 -150.999 -117h-61c4 57.333 26.667 101 68 131c36.667 26.667 85 40 145 40c125.333 0 188 -53.667 188 -161v-282c0 -32 9 -48 27 -48
c8.66699 0 20.667 2.66699 36 8v-47c-20 -6.66699 -35.667 -10 -47 -10c-27.333 0 -46.5 6.33301 -57.5 19s-16.833 33 -17.5 61c-51.333 -57.333 -115.666 -86 -192.999 -86c-49.333 0 -89.666 12.333 -120.999 37c-34.667 26.667 -52 64 -52 112c0 88 60.333 140 181 156z
M163.996 688.001h34c8.66699 -46 38.667 -69 90 -69c50 0 80.333 23 91 69h31c-6.66699 -72 -49 -108 -127 -108c-34 0 -61.667 9.5 -83 28.5s-33.333 45.5 -36 79.5zM301.996 708.001h-29.998c13.333 22 30.666 40.667 51.999 56c24 18 47 27 69 27
c5.33301 0 10 -0.666992 14 -2c8 -2 22.667 -9 44 -21c18 -10.667 32.333 -16 43 -16c18.667 0 39 14.333 61 43l33 -1c-4.66699 -6 -13.334 -16.333 -26.001 -31c-30.667 -34 -60.667 -51.333 -90 -52c-14.667 0 -33 6.33301 -55 19s-38.333 19 -49 19
c-18 0 -40 -13.667 -66 -41z" />
    <glyph glyph-name="glyph303" unicode="&#x1eb6;" horiz-adv-x="667" 
d="M85 0h-70l283 720h77l276 -720h-70l-83 226h-328zM334 662l-141 -378h282zM205 873h35c10 -48 41.667 -72 95 -72c52.667 0 84.667 24 96 72h33c-8 -75.333 -52.667 -113 -134 -113c-36 0 -65.167 10 -87.5 30s-34.833 47.667 -37.5 83zM367 -102h-65v80h65v-80z" />
    <glyph glyph-name="glyph304" unicode="&#x1eb7;" 
d="M411 191l-0.000976562 80.999c-34 -14 -85.667 -23.667 -155 -29c-97.333 -7.33301 -146 -44 -146 -110c0 -29.333 11.667 -52.666 35 -69.999c20.667 -15.333 46.334 -23 77.001 -23c52 0 95.333 12 130 36c39.333 26.667 59 65 59 115zM226.999 290.999l82.9971 11.002
c39.333 5.33301 63 9.66602 71 12.999c20 9.33301 30 28.666 30 57.999c0 70 -43 105 -129 105c-91.333 0 -141.666 -39 -150.999 -117h-61c4 57.333 26.667 101 68 131c36.667 26.667 85 40 145 40c125.333 0 188 -53.667 188 -161v-282c0 -32 9 -48 27 -48
c8.66699 0 20.667 2.66699 36 8v-47c-20 -6.66699 -35.667 -10 -47 -10c-27.333 0 -46.5 6.33301 -57.5 19s-16.833 33 -17.5 61c-51.333 -57.333 -115.666 -86 -192.999 -86c-49.333 0 -89.666 12.333 -120.999 37c-34.667 26.667 -52 64 -52 112c0 88 60.333 140 181 156z
M313.996 -137.999h-61v76h61v-76zM164.996 687.001h33c8.66699 -45.333 38.667 -68 90 -68c50 0 80.333 22.667 91 68h32c-8 -71.333 -50.667 -107 -128 -107c-34 0 -61.5 9.5 -82.5 28.5s-32.833 45.167 -35.5 78.5z" />
    <glyph glyph-name="glyph305" unicode="&#x1eb8;" horiz-adv-x="611" 
d="M570 0h-489v720h479v-58h-411v-260h371v-58h-371v-286h421v-58zM354 -122h-65v80h65v-80z" />
    <glyph glyph-name="glyph306" unicode="&#x1eb9;" 
d="M109 295l338 0.00195312c0 53.333 -13.667 96.666 -41 129.999c-30 35.333 -71 53 -123 53c-50 0 -90.667 -18.333 -122 -55c-28 -32.667 -45.333 -75.334 -52 -128.001zM511 245.002l-401.998 0.000976562c-0.666992 -57.333 13.666 -105 42.999 -143
c31.333 -41.333 75 -62 131 -62c39.333 0 73.166 10.5 101.499 31.5s46.833 50.167 55.5 87.5h67c-35.333 -115.333 -110 -173 -224 -173c-79.333 0 -139.666 26 -180.999 78c-38 47.333 -57 111.666 -57 192.999c0 76 20.333 139.667 61 191c44 56 103 84 177 84
c79.333 0 138.666 -29 177.999 -87c34 -50 50.667 -116.667 50 -200zM314.002 -137.997h-61v76h61v-76z" />
    <glyph glyph-name="glyph307" unicode="&#x1eba;" horiz-adv-x="611" 
d="M570 0h-489v720h479v-58h-411v-260h371v-58h-371v-286h421v-58zM341 781l-19.002 5.99902l-20 -18c-1.33301 30 5.33398 52.333 20.001 67c32 32.667 48 56 48 70c0 32.667 -16.667 49 -50 49c-18 0 -32.667 -6.33301 -44 -19s-16.666 -28 -15.999 -46l-19 12
c-2 23.333 5.83301 43.833 23.5 61.5s38.5 26.5 62.5 26.5c22.667 0 42.167 -6.5 58.5 -19.5s24.5 -30.833 24.5 -53.5c0 -16 -7.33301 -32.333 -22 -49l-39 -44c-5.33301 -11.333 -8 -25.666 -8 -42.999z" />
    <glyph glyph-name="glyph308" unicode="&#x1ebb;" 
d="M109 295l338 0.00195312c0 53.333 -13.667 96.666 -41 129.999c-30 35.333 -71 53 -123 53c-50 0 -90.667 -18.333 -122 -55c-28 -32.667 -45.333 -75.334 -52 -128.001zM511 245.002l-401.998 0.000976562c-0.666992 -57.333 13.666 -105 42.999 -143
c31.333 -41.333 75 -62 131 -62c39.333 0 73.166 10.5 101.499 31.5s46.833 50.167 55.5 87.5h67c-35.333 -115.333 -110 -173 -224 -173c-79.333 0 -139.666 26 -180.999 78c-38 47.333 -57 111.666 -57 192.999c0 76 20.333 139.667 61 191c44 56 103 84 177 84
c79.333 0 138.666 -29 177.999 -87c34 -50 50.667 -116.667 50 -200zM301.002 600.003l-18 6l-19 -17c-1.33301 28 5 49 19 63c30.667 31.333 46 53.666 46 66.999c0 30.667 -16 46 -48 46c-17.333 0 -31.333 -6 -42 -18s-15.667 -26.667 -15 -44l-18 12
c-2 22.667 5.5 42.167 22.5 58.5s36.833 24.5 59.5 24.5c21.333 0 39.833 -6.16699 55.5 -18.5s23.5 -29.166 23.5 -50.499c0 -14 -7 -30 -21 -48l-37 -40c-5.33301 -11.333 -8 -25 -8 -41z" />
    <glyph glyph-name="glyph309" unicode="&#x1ebc;" horiz-adv-x="611" 
d="M570 0h-489v720h479v-58h-411v-260h371v-58h-371v-286h421v-58zM189 780h-31.998c12 20 27.667 37.667 47 53c28 22.667 55.667 34 83 34c11.333 0 28.666 -6.66699 51.999 -20s40.666 -20 51.999 -20c20.667 0 42 15 64 45l35 -1c-5.33301 -8 -14.333 -19 -27 -33
c-32 -35.333 -63.667 -53.333 -95 -54c-16 0 -35.5 6.66699 -58.5 20s-40.167 20 -51.5 20c-19.333 0 -42.333 -14.667 -69 -44z" />
    <glyph glyph-name="glyph310" unicode="&#x1ebd;" 
d="M109 295l338 0.00195312c0 53.333 -13.667 96.666 -41 129.999c-30 35.333 -71 53 -123 53c-50 0 -90.667 -18.333 -122 -55c-28 -32.667 -45.333 -75.334 -52 -128.001zM511 245.002l-401.998 0.000976562c-0.666992 -57.333 13.666 -105 42.999 -143
c31.333 -41.333 75 -62 131 -62c39.333 0 73.166 10.5 101.499 31.5s46.833 50.167 55.5 87.5h67c-35.333 -115.333 -110 -173 -224 -173c-79.333 0 -139.666 26 -180.999 78c-38 47.333 -57 111.666 -57 192.999c0 76 20.333 139.667 61 191c44 56 103 84 177 84
c79.333 0 138.666 -29 177.999 -87c34 -50 50.667 -116.667 50 -200zM157.002 600.003l-31 0.000976562c35.333 55.333 76.333 83 123 83c11.333 0 28 -6.33301 50 -19s38.667 -19 50 -19c19.333 0 39.333 14.333 60 43l34 -1c-5.33301 -8.66699 -14 -19.334 -26 -32.001
c-31.333 -33.333 -61.333 -50.333 -90 -51c-15.333 0 -34 6.33301 -56 19s-38.333 19 -49 19c-18 0 -39.667 -14 -65 -42z" />
    <glyph glyph-name="glyph311" unicode="&#x1ebe;" horiz-adv-x="611" 
d="M570 0h-489v720h479v-58h-411v-260h371v-58h-371v-286h421v-58zM321 852l-74 -92h-58l102 125h61l101 -125h-58zM452 852h-21l91 139h81z" />
    <glyph glyph-name="glyph312" unicode="&#x1ebf;" 
d="M109 295l338 0.00195312c0 53.333 -13.667 96.666 -41 129.999c-30 35.333 -71 53 -123 53c-50 0 -90.667 -18.333 -122 -55c-28 -32.667 -45.333 -75.334 -52 -128.001zM511 245.002l-401.998 0.000976562c-0.666992 -57.333 13.666 -105 42.999 -143
c31.333 -41.333 75 -62 131 -62c39.333 0 73.166 10.5 101.499 31.5s46.833 50.167 55.5 87.5h67c-35.333 -115.333 -110 -173 -224 -173c-79.333 0 -139.666 26 -180.999 78c-38 47.333 -57 111.666 -57 192.999c0 76 20.333 139.667 61 191c44 56 103 84 177 84
c79.333 0 138.666 -29 177.999 -87c34 -50 50.667 -116.667 50 -200zM283.002 647.003l-71 -87h-55l97 118h58l96 -118h-55zM407.002 647.003h-20l86 132h77z" />
    <glyph glyph-name="glyph313" unicode="&#x1ec0;" horiz-adv-x="611" 
d="M570 0h-489v720h479v-58h-411v-260h371v-58h-371v-286h421v-58zM322 852l-74 -92h-58l102 125h61l101 -125h-58zM212 852h-21l-151 139h81z" />
    <glyph glyph-name="glyph314" unicode="&#x1ec1;" 
d="M109 295l338 0.00195312c0 53.333 -13.667 96.666 -41 129.999c-30 35.333 -71 53 -123 53c-50 0 -90.667 -18.333 -122 -55c-28 -32.667 -45.333 -75.334 -52 -128.001zM511 245.002l-401.998 0.000976562c-0.666992 -57.333 13.666 -105 42.999 -143
c31.333 -41.333 75 -62 131 -62c39.333 0 73.166 10.5 101.499 31.5s46.833 50.167 55.5 87.5h67c-35.333 -115.333 -110 -173 -224 -173c-79.333 0 -139.666 26 -180.999 78c-38 47.333 -57 111.666 -57 192.999c0 76 20.333 139.667 61 191c44 56 103 84 177 84
c79.333 0 138.666 -29 177.999 -87c34 -50 50.667 -116.667 50 -200zM283.002 647.003l-70 -87h-55l97 118h58l96 -118h-55zM179.002 647.003h-20l-143 132h77z" />
    <glyph glyph-name="glyph315" unicode="&#x1ec2;" horiz-adv-x="611" 
d="M570 0h-489v720h479v-58h-411v-260h371v-58h-371v-286h421v-58zM493 846l-19.002 5.99902l-20 -18c-1.33301 30 5.33398 52.333 20.001 67c32 32.667 48 56 48 70c0 32.667 -16.667 49 -50 49c-18 0 -32.667 -6.33301 -44 -19s-16.666 -28 -15.999 -46l-19 12
c-2 23.333 5.83301 43.833 23.5 61.5s38.5 26.5 62.5 26.5c22.667 0 42.167 -6.5 58.5 -19.5s24.5 -30.833 24.5 -53.5c0 -16 -7.33301 -32.333 -22 -49l-39 -44c-5.33301 -11.333 -8 -25.666 -8 -42.999zM321.998 851.999l-74 -92h-58l102 125h61l101 -125h-58z" />
    <glyph glyph-name="glyph316" unicode="&#x1ec3;" 
d="M109 295l338 0.00195312c0 53.333 -13.667 96.666 -41 129.999c-30 35.333 -71 53 -123 53c-50 0 -90.667 -18.333 -122 -55c-28 -32.667 -45.333 -75.334 -52 -128.001zM511 245.002l-401.998 0.000976562c-0.666992 -57.333 13.666 -105 42.999 -143
c31.333 -41.333 75 -62 131 -62c39.333 0 73.166 10.5 101.499 31.5s46.833 50.167 55.5 87.5h67c-35.333 -115.333 -110 -173 -224 -173c-79.333 0 -139.666 26 -180.999 78c-38 47.333 -57 111.666 -57 192.999c0 76 20.333 139.667 61 191c44 56 103 84 177 84
c79.333 0 138.666 -29 177.999 -87c34 -50 50.667 -116.667 50 -200zM445.002 642.003l-18 6l-19 -17c-1.33301 28 5 49 19 63c30.667 31.333 46 53.666 46 66.999c0 30.667 -16 46 -48 46c-17.333 0 -31.333 -6 -42 -18s-15.667 -26.667 -15 -44l-18 12
c-2 22.667 5.5 42.167 22.5 58.5s36.833 24.5 59.5 24.5c21.333 0 39.833 -6.16699 55.5 -18.5s23.5 -29.166 23.5 -50.499c0 -14 -7 -30 -21 -48l-37 -40c-5.33301 -11.333 -8 -25 -8 -41zM283.002 648.003l-71 -88h-55l97 119h58l96 -119h-55z" />
    <glyph glyph-name="glyph317" unicode="&#x1ec4;" horiz-adv-x="611" 
d="M570 0h-489v720h479v-58h-411v-260h371v-58h-371v-286h421v-58zM322 852l-74 -92h-58l102 125h61l101 -125h-58zM189 911h-31.998c12 20 27.667 37.667 47 53c28 22.667 55.667 34 83 34c11.333 0 28.666 -6.66699 51.999 -20s40.666 -20 51.999 -20
c20.667 0 42 15 64 45l35 -1c-5.33301 -8 -14.333 -19 -27 -33c-32 -35.333 -63.667 -53.333 -95 -54c-16 0 -35.5 6.66699 -58.5 20s-40.167 20 -51.5 20c-19.333 0 -42.333 -14.667 -69 -44z" />
    <glyph glyph-name="glyph318" unicode="&#x1ec5;" 
d="M109 295l338 0.00195312c0 53.333 -13.667 96.666 -41 129.999c-30 35.333 -71 53 -123 53c-50 0 -90.667 -18.333 -122 -55c-28 -32.667 -45.333 -75.334 -52 -128.001zM511 245.002l-401.998 0.000976562c-0.666992 -57.333 13.666 -105 42.999 -143
c31.333 -41.333 75 -62 131 -62c39.333 0 73.166 10.5 101.499 31.5s46.833 50.167 55.5 87.5h67c-35.333 -115.333 -110 -173 -224 -173c-79.333 0 -139.666 26 -180.999 78c-38 47.333 -57 111.666 -57 192.999c0 76 20.333 139.667 61 191c44 56 103 84 177 84
c79.333 0 138.666 -29 177.999 -87c34 -50 50.667 -116.667 50 -200zM283.002 647.003l-70 -87h-55l97 119h58l96 -119h-56zM157.002 703.003l-31 0.000976562c35.333 55.333 76.333 83 123 83c11.333 0 28 -6.33301 50 -19s38.667 -19 50 -19c19.333 0 39.333 14.333 60 43
l34 -1c-5.33301 -8.66699 -14 -19.334 -26 -32.001c-31.333 -33.333 -61.333 -50.333 -90 -51c-15.333 0 -34 6.33301 -56 19s-38.333 19 -49 19c-18 0 -39.667 -14 -65 -42z" />
    <glyph glyph-name="glyph319" unicode="&#x1ec6;" horiz-adv-x="611" 
d="M570 0h-489v720h479v-58h-411v-260h371v-58h-371v-286h421v-58zM321 852l-74 -92h-58l102 125h61l101 -125h-58zM354 -122h-65v80h65v-80z" />
    <glyph glyph-name="glyph320" unicode="&#x1ec7;" 
d="M109 295l338 0.00195312c0 53.333 -13.667 96.666 -41 129.999c-30 35.333 -71 53 -123 53c-50 0 -90.667 -18.333 -122 -55c-28 -32.667 -45.333 -75.334 -52 -128.001zM511 245.002l-401.998 0.000976562c-0.666992 -57.333 13.666 -105 42.999 -143
c31.333 -41.333 75 -62 131 -62c39.333 0 73.166 10.5 101.499 31.5s46.833 50.167 55.5 87.5h67c-35.333 -115.333 -110 -173 -224 -173c-79.333 0 -139.666 26 -180.999 78c-38 47.333 -57 111.666 -57 192.999c0 76 20.333 139.667 61 191c44 56 103 84 177 84
c79.333 0 138.666 -29 177.999 -87c34 -50 50.667 -116.667 50 -200zM283.002 647.003l-70 -87h-55l97 118h58l96 -118h-55zM314.002 -137.997h-61v76h61v-76z" />
    <glyph glyph-name="glyph321" unicode="&#x1ec8;" horiz-adv-x="278" 
d="M173 0h-68v720h68v-720zM157 781l-19.002 5.99902l-20 -18c-1.33301 30 5.33398 52.333 20.001 67c32 32.667 48 56 48 70c0 32.667 -16.667 49 -50 49c-18 0 -32.667 -6.33301 -44 -19s-16.666 -28 -15.999 -46l-19 12c-2 23.333 5.83301 43.833 23.5 61.5
s38.5 26.5 62.5 26.5c22.667 0 42.167 -6.5 58.5 -19.5s24.5 -30.833 24.5 -53.5c0 -16 -7.33301 -32.333 -22 -49l-39 -44c-5.33301 -11.333 -8 -25.666 -8 -42.999z" />
    <glyph glyph-name="glyph322" unicode="&#x1ec9;" horiz-adv-x="222" 
d="M141 0h-60v518h60v-518zM128 581l-18 6l-19 -17c-1.33301 28 5 49 19 63c30.667 31.333 46 53.666 46 66.999c0 30.667 -16 46 -48 46c-17.333 0 -31.333 -6 -42 -18s-15.667 -26.667 -15 -44l-18 12c-2 22.667 5.5 42.167 22.5 58.5s36.833 24.5 59.5 24.5
c21.333 0 39.833 -6.16699 55.5 -18.5s23.5 -29.166 23.5 -50.499c0 -14 -7 -30 -21 -48l-37 -40c-5.33301 -11.333 -8 -25 -8 -41z" />
    <glyph glyph-name="glyph323" unicode="&#x1eca;" horiz-adv-x="278" 
d="M173 0h-68v720h68v-720zM171 -122h-65v80h65v-80z" />
    <glyph glyph-name="glyph324" unicode="&#x1ecb;" horiz-adv-x="222" 
d="M141 0h-60v518h60v-518zM139 580h-56v76h56v-76zM142 -138h-61v76h61v-76z" />
    <glyph glyph-name="glyph325" unicode="&#x1ecc;" horiz-adv-x="778" 
d="M53 359c0 108.667 27.666 197.668 82.999 267.001c60 75.333 143 113 249 113c108.667 0 193.334 -37 254.001 -111c56.667 -68.667 85 -158.334 85 -269.001c0 -109.333 -28 -198.333 -84 -267c-60.667 -74 -144.667 -111 -252 -111s-191 37 -251 111
c-56 68 -84 157 -84 267zM388.999 39.001c88.667 0 156.667 32.333 204 97c42 56.667 63 131 63 223c0 92.667 -21 167.667 -63 225c-48 64.667 -116.667 97 -206 97c-87.333 0 -155 -33 -203 -99c-42 -58 -63 -132.333 -63 -223c0 -92 21 -166.667 63 -224
c48 -64 116.333 -96 205 -96zM419.999 -146.999h-65v80h65v-80z" />
    <glyph glyph-name="glyph326" unicode="&#x1ecd;" 
d="M278 -14c-77.333 0.666992 -137.333 27.3359 -180 80.0029c-40 49.333 -60 113.666 -60 192.999s19.667 143.666 59 192.999c43.333 53.333 103.666 80 180.999 80c78.667 0 139.334 -26.333 182.001 -79c38.667 -48.667 58 -113.334 58 -194.001
c0 -78 -20 -142 -60 -192c-44 -54.667 -104 -81.667 -180 -81zM454 259.002c0 63.333 -12.999 114.334 -38.999 153.001c-30.667 44 -76.334 66 -137.001 66c-59.333 0 -104.666 -22.667 -135.999 -68c-26.667 -38.667 -40 -89 -40 -151s13.333 -112.667 40 -152
c31.333 -44.667 76.666 -67 135.999 -67c58.667 0 103.667 22.667 135 68c27.333 39.333 41 89.666 41 150.999zM309.001 -137.997h-61v76h61v-76z" />
    <glyph glyph-name="glyph327" unicode="&#x1ece;" horiz-adv-x="778" 
d="M53 359c0 108.667 27.666 197.668 82.999 267.001c60 75.333 143 113 249 113c108.667 0 193.334 -37 254.001 -111c56.667 -68.667 85 -158.334 85 -269.001c0 -109.333 -28 -198.333 -84 -267c-60.667 -74 -144.667 -111 -252 -111s-191 37 -251 111
c-56 68 -84 157 -84 267zM388.999 39.001c88.667 0 156.667 32.333 204 97c42 56.667 63 131 63 223c0 92.667 -21 167.667 -63 225c-48 64.667 -116.667 97 -206 97c-87.333 0 -155 -33 -203 -99c-42 -58 -63 -132.333 -63 -223c0 -92 21 -166.667 63 -224
c48 -64 116.333 -96 205 -96zM403.999 790.001l-19.002 5.99902l-20 -18c-1.33301 30 5.33398 52.333 20.001 67c32 32.667 48 56 48 70c0 32.667 -16.667 49 -50 49c-18 0 -32.667 -6.33301 -44 -19s-16.666 -28 -15.999 -46l-19 12c-2 23.333 5.83301 43.833 23.5 61.5
s38.5 26.5 62.5 26.5c22.667 0 42.167 -6.5 58.5 -19.5s24.5 -30.833 24.5 -53.5c0 -16 -7.33301 -32.333 -22 -49l-39 -44c-5.33301 -11.333 -8 -25.666 -8 -42.999z" />
    <glyph glyph-name="glyph328" unicode="&#x1ecf;" 
d="M278 -14c-77.333 0.666992 -137.333 27.3359 -180 80.0029c-40 49.333 -60 113.666 -60 192.999s19.667 143.666 59 192.999c43.333 53.333 103.666 80 180.999 80c78.667 0 139.334 -26.333 182.001 -79c38.667 -48.667 58 -113.334 58 -194.001
c0 -78 -20 -142 -60 -192c-44 -54.667 -104 -81.667 -180 -81zM454 259.002c0 63.333 -12.999 114.334 -38.999 153.001c-30.667 44 -76.334 66 -137.001 66c-59.333 0 -104.666 -22.667 -135.999 -68c-26.667 -38.667 -40 -89 -40 -151s13.333 -112.667 40 -152
c31.333 -44.667 76.666 -67 135.999 -67c58.667 0 103.667 22.667 135 68c27.333 39.333 41 89.666 41 150.999zM296.001 600.003l-18 6l-19 -17c-1.33301 28 5 49 19 63c30.667 31.333 46 53.666 46 66.999c0 30.667 -16 46 -48 46c-17.333 0 -31.333 -6 -42 -18
s-15.667 -26.667 -15 -44l-18 12c-2 22.667 5.5 42.167 22.5 58.5s36.833 24.5 59.5 24.5c21.333 0 39.833 -6.16699 55.5 -18.5s23.5 -29.166 23.5 -50.499c0 -14 -7 -30 -21 -48l-37 -40c-5.33301 -11.333 -8 -25 -8 -41z" />
    <glyph glyph-name="glyph329" unicode="&#x1ed0;" horiz-adv-x="778" 
d="M53 359c0 108.667 27.666 197.668 82.999 267.001c60 75.333 143 113 249 113c108.667 0 193.334 -37 254.001 -111c56.667 -68.667 85 -158.334 85 -269.001c0 -109.333 -28 -198.333 -84 -267c-60.667 -74 -144.667 -111 -252 -111s-191 37 -251 111
c-56 68 -84 157 -84 267zM388.999 39.001c88.667 0 156.667 32.333 204 97c42 56.667 63 131 63 223c0 92.667 -21 167.667 -63 225c-48 64.667 -116.667 97 -206 97c-87.333 0 -155 -33 -203 -99c-42 -58 -63 -132.333 -63 -223c0 -92 21 -166.667 63 -224
c48 -64 116.333 -96 205 -96zM384.999 852.001l-74 -92h-58l102 125h61l101 -125h-58zM515.999 852.001h-21l91 139h81z" />
    <glyph glyph-name="glyph330" unicode="&#x1ed1;" 
d="M278 -14c-77.333 0.666992 -137.333 27.3359 -180 80.0029c-40 49.333 -60 113.666 -60 192.999s19.667 143.666 59 192.999c43.333 53.333 103.666 80 180.999 80c78.667 0 139.334 -26.333 182.001 -79c38.667 -48.667 58 -113.334 58 -194.001
c0 -78 -20 -142 -60 -192c-44 -54.667 -104 -81.667 -180 -81zM454 259.002c0 63.333 -12.999 114.334 -38.999 153.001c-30.667 44 -76.334 66 -137.001 66c-59.333 0 -104.666 -22.667 -135.999 -68c-26.667 -38.667 -40 -89 -40 -151s13.333 -112.667 40 -152
c31.333 -44.667 76.666 -67 135.999 -67c58.667 0 103.667 22.667 135 68c27.333 39.333 41 89.666 41 150.999zM278.001 647.003l-71 -87h-55l97 118h58l96 -118h-55zM402.001 647.003h-20l86 132h77z" />
    <glyph glyph-name="glyph331" unicode="&#x1ed2;" horiz-adv-x="778" 
d="M53 359c0 108.667 27.666 197.668 82.999 267.001c60 75.333 143 113 249 113c108.667 0 193.334 -37 254.001 -111c56.667 -68.667 85 -158.334 85 -269.001c0 -109.333 -28 -198.333 -84 -267c-60.667 -74 -144.667 -111 -252 -111s-191 37 -251 111
c-56 68 -84 157 -84 267zM388.999 39.001c88.667 0 156.667 32.333 204 97c42 56.667 63 131 63 223c0 92.667 -21 167.667 -63 225c-48 64.667 -116.667 97 -206 97c-87.333 0 -155 -33 -203 -99c-42 -58 -63 -132.333 -63 -223c0 -92 21 -166.667 63 -224
c48 -64 116.333 -96 205 -96zM384.999 852.001l-74 -92h-58l102 125h61l101 -125h-58zM274.999 852.001h-21l-151 139h81z" />
    <glyph glyph-name="glyph332" unicode="&#x1ed3;" 
d="M278 -14c-77.333 0.666992 -137.333 27.3359 -180 80.0029c-40 49.333 -60 113.666 -60 192.999s19.667 143.666 59 192.999c43.333 53.333 103.666 80 180.999 80c78.667 0 139.334 -26.333 182.001 -79c38.667 -48.667 58 -113.334 58 -194.001
c0 -78 -20 -142 -60 -192c-44 -54.667 -104 -81.667 -180 -81zM454 259.002c0 63.333 -12.999 114.334 -38.999 153.001c-30.667 44 -76.334 66 -137.001 66c-59.333 0 -104.666 -22.667 -135.999 -68c-26.667 -38.667 -40 -89 -40 -151s13.333 -112.667 40 -152
c31.333 -44.667 76.666 -67 135.999 -67c58.667 0 103.667 22.667 135 68c27.333 39.333 41 89.666 41 150.999zM278.001 647.003l-70 -87h-55l97 118h58l96 -118h-55zM174.001 647.003h-20l-143 132h77z" />
    <glyph glyph-name="glyph333" unicode="&#x1ed4;" horiz-adv-x="778" 
d="M53 359c0 108.667 27.666 197.668 82.999 267.001c60 75.333 143 113 249 113c108.667 0 193.334 -37 254.001 -111c56.667 -68.667 85 -158.334 85 -269.001c0 -109.333 -28 -198.333 -84 -267c-60.667 -74 -144.667 -111 -252 -111s-191 37 -251 111
c-56 68 -84 157 -84 267zM388.999 39.001c88.667 0 156.667 32.333 204 97c42 56.667 63 131 63 223c0 92.667 -21 167.667 -63 225c-48 64.667 -116.667 97 -206 97c-87.333 0 -155 -33 -203 -99c-42 -58 -63 -132.333 -63 -223c0 -92 21 -166.667 63 -224
c48 -64 116.333 -96 205 -96zM555.999 846.001l-19.002 5.99902l-20 -18c-1.33301 30 5.33398 52.333 20.001 67c32 32.667 48 56 48 70c0 32.667 -16.667 49 -50 49c-18 0 -32.667 -6.33301 -44 -19s-16.666 -28 -15.999 -46l-19 12c-2 23.333 5.83301 43.833 23.5 61.5
s38.5 26.5 62.5 26.5c22.667 0 42.167 -6.5 58.5 -19.5s24.5 -30.833 24.5 -53.5c0 -16 -7.33301 -32.333 -22 -49l-39 -44c-5.33301 -11.333 -8 -25.666 -8 -42.999zM384.997 852l-74 -92h-58l102 125h61l101 -125h-58z" />
    <glyph glyph-name="glyph334" unicode="&#x1ed5;" 
d="M278 -14c-77.333 0.666992 -137.333 27.3359 -180 80.0029c-40 49.333 -60 113.666 -60 192.999s19.667 143.666 59 192.999c43.333 53.333 103.666 80 180.999 80c78.667 0 139.334 -26.333 182.001 -79c38.667 -48.667 58 -113.334 58 -194.001
c0 -78 -20 -142 -60 -192c-44 -54.667 -104 -81.667 -180 -81zM454 259.002c0 63.333 -12.999 114.334 -38.999 153.001c-30.667 44 -76.334 66 -137.001 66c-59.333 0 -104.666 -22.667 -135.999 -68c-26.667 -38.667 -40 -89 -40 -151s13.333 -112.667 40 -152
c31.333 -44.667 76.666 -67 135.999 -67c58.667 0 103.667 22.667 135 68c27.333 39.333 41 89.666 41 150.999zM440.001 642.003l-18 6l-19 -17c-1.33301 28 5 49 19 63c30.667 31.333 46 53.666 46 66.999c0 30.667 -16 46 -48 46c-17.333 0 -31.333 -6 -42 -18
s-15.667 -26.667 -15 -44l-18 12c-2 22.667 5.5 42.167 22.5 58.5s36.833 24.5 59.5 24.5c21.333 0 39.833 -6.16699 55.5 -18.5s23.5 -29.166 23.5 -50.499c0 -14 -7 -30 -21 -48l-37 -40c-5.33301 -11.333 -8 -25 -8 -41zM278.001 648.003l-71 -88h-55l97 119h58l96 -119
h-55z" />
    <glyph glyph-name="glyph335" unicode="&#x1ed6;" horiz-adv-x="778" 
d="M53 359c0 108.667 27.666 197.668 82.999 267.001c60 75.333 143 113 249 113c108.667 0 193.334 -37 254.001 -111c56.667 -68.667 85 -158.334 85 -269.001c0 -109.333 -28 -198.333 -84 -267c-60.667 -74 -144.667 -111 -252 -111s-191 37 -251 111
c-56 68 -84 157 -84 267zM388.999 39.001c88.667 0 156.667 32.333 204 97c42 56.667 63 131 63 223c0 92.667 -21 167.667 -63 225c-48 64.667 -116.667 97 -206 97c-87.333 0 -155 -33 -203 -99c-42 -58 -63 -132.333 -63 -223c0 -92 21 -166.667 63 -224
c48 -64 116.333 -96 205 -96zM384.999 852.001l-74 -92h-58l102 125h61l101 -125h-58zM251.999 911.001h-31.998c12 20 27.667 37.667 47 53c28 22.667 55.667 34 83 34c11.333 0 28.666 -6.66699 51.999 -20s40.666 -20 51.999 -20c20.667 0 42 15 64 45l35 -1
c-5.33301 -8 -14.333 -19 -27 -33c-32 -35.333 -63.667 -53.333 -95 -54c-16 0 -35.5 6.66699 -58.5 20s-40.167 20 -51.5 20c-19.333 0 -42.333 -14.667 -69 -44z" />
    <glyph glyph-name="glyph336" unicode="&#x1ed7;" 
d="M278 -14c-77.333 0.666992 -137.333 27.3359 -180 80.0029c-40 49.333 -60 113.666 -60 192.999s19.667 143.666 59 192.999c43.333 53.333 103.666 80 180.999 80c78.667 0 139.334 -26.333 182.001 -79c38.667 -48.667 58 -113.334 58 -194.001
c0 -78 -20 -142 -60 -192c-44 -54.667 -104 -81.667 -180 -81zM454 259.002c0 63.333 -12.999 114.334 -38.999 153.001c-30.667 44 -76.334 66 -137.001 66c-59.333 0 -104.666 -22.667 -135.999 -68c-26.667 -38.667 -40 -89 -40 -151s13.333 -112.667 40 -152
c31.333 -44.667 76.666 -67 135.999 -67c58.667 0 103.667 22.667 135 68c27.333 39.333 41 89.666 41 150.999zM278.001 647.003l-70 -87h-55l97 119h58l96 -119h-56zM152.001 703.003l-31 0.000976562c35.333 55.333 76.333 83 123 83c11.333 0 28 -6.33301 50 -19
s38.667 -19 50 -19c19.333 0 39.333 14.333 60 43l34 -1c-5.33301 -8.66699 -14 -19.334 -26 -32.001c-31.333 -33.333 -61.333 -50.333 -90 -51c-15.333 0 -34 6.33301 -56 19s-38.333 19 -49 19c-18 0 -39.667 -14 -65 -42z" />
    <glyph glyph-name="glyph337" unicode="&#x1ed8;" horiz-adv-x="778" 
d="M53 359c0 108.667 27.666 197.668 82.999 267.001c60 75.333 143 113 249 113c108.667 0 193.334 -37 254.001 -111c56.667 -68.667 85 -158.334 85 -269.001c0 -109.333 -28 -198.333 -84 -267c-60.667 -74 -144.667 -111 -252 -111s-191 37 -251 111
c-56 68 -84 157 -84 267zM388.999 39.001c88.667 0 156.667 32.333 204 97c42 56.667 63 131 63 223c0 92.667 -21 167.667 -63 225c-48 64.667 -116.667 97 -206 97c-87.333 0 -155 -33 -203 -99c-42 -58 -63 -132.333 -63 -223c0 -92 21 -166.667 63 -224
c48 -64 116.333 -96 205 -96zM384.999 852.001l-74 -92h-58l102 125h61l101 -125h-58zM419.999 -146.999h-65v80h65v-80z" />
    <glyph glyph-name="glyph338" unicode="&#x1ed9;" 
d="M278 -14c-77.333 0.666992 -137.333 27.3359 -180 80.0029c-40 49.333 -60 113.666 -60 192.999s19.667 143.666 59 192.999c43.333 53.333 103.666 80 180.999 80c78.667 0 139.334 -26.333 182.001 -79c38.667 -48.667 58 -113.334 58 -194.001
c0 -78 -20 -142 -60 -192c-44 -54.667 -104 -81.667 -180 -81zM454 259.002c0 63.333 -12.999 114.334 -38.999 153.001c-30.667 44 -76.334 66 -137.001 66c-59.333 0 -104.666 -22.667 -135.999 -68c-26.667 -38.667 -40 -89 -40 -151s13.333 -112.667 40 -152
c31.333 -44.667 76.666 -67 135.999 -67c58.667 0 103.667 22.667 135 68c27.333 39.333 41 89.666 41 150.999zM283.001 647.003l-70 -87h-55l97 118h58l96 -118h-55zM309.001 -137.997h-61v76h61v-76z" />
    <glyph glyph-name="glyph339" unicode="&#x1eda;" horiz-adv-x="778" 
d="M389 39c88.667 0 156.667 32.333 204 97c42 56.667 63 131 63 223c0 92.667 -21 167.667 -63 225c-48 64.667 -116.667 97 -206 97c-87.333 0 -155 -33 -203 -99c-42 -58 -63 -132.333 -63 -223c0 -92 21 -166.667 63 -224c48 -64 116.333 -96 205 -96zM473 729
l95.002 -11.998c14 5.33301 21 14 21 26c0 8.66699 -4.66699 15.667 -14 21c-4.66699 2.66699 -13.334 4 -26.001 4c3.33301 3.33301 13 6.66602 29 9.99902s26 3.66602 30 0.999023c14 -8 21 -19.667 21 -35c0 -27.333 -19 -42.333 -57 -45l-16 -1
c57.333 -32 100.666 -80.333 129.999 -145c25.333 -57.333 38 -122 38 -194c0 -109.333 -28 -198.333 -84 -267c-60.667 -74 -144.667 -111 -252 -111s-191 37 -251 111c-56 68 -84 157 -84 267c0 108.667 27.667 197.667 83 267c60 75.333 143 113 249 113
c32.667 0 62 -3.33301 88 -10zM396.002 800.002h-21l91 139h81z" />
    <glyph glyph-name="glyph340" unicode="&#x1edb;" 
d="M454 259c0 63.333 -12.999 114.334 -38.999 153.001c-30.667 44 -76.334 66 -137.001 66c-59.333 0 -104.666 -22.667 -135.999 -68c-26.667 -38.667 -40 -89 -40 -151s13.333 -112.667 40 -152c31.333 -44.667 76.666 -67 135.999 -67c58.667 0 103.667 22.667 135 68
c27.333 39.333 41 89.666 41 150.999zM349.001 523.001l66.001 -7.99512c16 7.33301 24 16.666 24 27.999c0 8.66699 -4.66699 15.667 -14 21c-4.66699 2.66699 -13.334 4 -26.001 4c3.33301 3.33301 13 6.66602 29 9.99902s26 3.66602 30 0.999023c14 -8 21 -19.667 21 -35
c0 -26.667 -19 -40 -57 -40h-24c80 -44.667 120 -126.334 120 -245.001c0 -78 -20 -142 -60 -192c-44 -54.667 -104 -81.667 -180 -81c-77.333 0.666992 -137.333 27.334 -180 80.001c-40 49.333 -60 113.666 -60 192.999s19.667 143.666 59 192.999
c43.333 53.333 103.666 80 180.999 80c26.667 0 50.334 -3 71.001 -9zM288.002 600.006h-20l86 132h77z" />
    <glyph glyph-name="glyph341" unicode="&#x1edc;" horiz-adv-x="778" 
d="M389 39c88.667 0 156.667 32.333 204 97c42 56.667 63 131 63 223c0 92.667 -21 167.667 -63 225c-48 64.667 -116.667 97 -206 97c-87.333 0 -155 -33 -203 -99c-42 -58 -63 -132.333 -63 -223c0 -92 21 -166.667 63 -224c48 -64 116.333 -96 205 -96zM473 729
l95.002 -11.998c14 5.33301 21 14 21 26c0 8.66699 -4.66699 15.667 -14 21c-4.66699 2.66699 -13.334 4 -26.001 4c3.33301 3.33301 13 6.66602 29 9.99902s26 3.66602 30 0.999023c14 -8 21 -19.667 21 -35c0 -27.333 -19 -42.333 -57 -45l-16 -1
c57.333 -32 100.666 -80.333 129.999 -145c25.333 -57.333 38 -122 38 -194c0 -109.333 -28 -198.333 -84 -267c-60.667 -74 -144.667 -111 -252 -111s-191 37 -251 111c-56 68 -84 157 -84 267c0 108.667 27.667 197.667 83 267c60 75.333 143 113 249 113
c32.667 0 62 -3.33301 88 -10zM396.002 800.002h-21l-151 139h81z" />
    <glyph glyph-name="glyph342" unicode="&#x1edd;" 
d="M454 259c0 63.333 -12.999 114.334 -38.999 153.001c-30.667 44 -76.334 66 -137.001 66c-59.333 0 -104.666 -22.667 -135.999 -68c-26.667 -38.667 -40 -89 -40 -151s13.333 -112.667 40 -152c31.333 -44.667 76.666 -67 135.999 -67c58.667 0 103.667 22.667 135 68
c27.333 39.333 41 89.666 41 150.999zM349.001 523.001l66.001 -7.99512c16 7.33301 24 16.666 24 27.999c0 8.66699 -4.66699 15.667 -14 21c-4.66699 2.66699 -13.334 4 -26.001 4c3.33301 3.33301 13 6.66602 29 9.99902s26 3.66602 30 0.999023c14 -8 21 -19.667 21 -35
c0 -26.667 -19 -40 -57 -40h-24c80 -44.667 120 -126.334 120 -245.001c0 -78 -20 -142 -60 -192c-44 -54.667 -104 -81.667 -180 -81c-77.333 0.666992 -137.333 27.334 -180 80.001c-40 49.333 -60 113.666 -60 192.999s19.667 143.666 59 192.999
c43.333 53.333 103.666 80 180.999 80c26.667 0 50.334 -3 71.001 -9zM288.002 600.006h-20l-143 132h77z" />
    <glyph glyph-name="glyph343" unicode="&#x1ede;" horiz-adv-x="778" 
d="M389 39c88.667 0 156.667 32.333 204 97c42 56.667 63 131 63 223c0 92.667 -21 167.667 -63 225c-48 64.667 -116.667 97 -206 97c-87.333 0 -155 -33 -203 -99c-42 -58 -63 -132.333 -63 -223c0 -92 21 -166.667 63 -224c48 -64 116.333 -96 205 -96zM473 729
l95.002 -11.998c14 5.33301 21 14 21 26c0 8.66699 -4.66699 15.667 -14 21c-4.66699 2.66699 -13.334 4 -26.001 4c3.33301 3.33301 13 6.66602 29 9.99902s26 3.66602 30 0.999023c14 -8 21 -19.667 21 -35c0 -27.333 -19 -42.333 -57 -45l-16 -1
c57.333 -32 100.666 -80.333 129.999 -145c25.333 -57.333 38 -122 38 -194c0 -109.333 -28 -198.333 -84 -267c-60.667 -74 -144.667 -111 -252 -111s-191 37 -251 111c-56 68 -84 157 -84 267c0 108.667 27.667 197.667 83 267c60 75.333 143 113 249 113
c32.667 0 62 -3.33301 88 -10zM404.002 790.002l-19.002 5.99902l-20 -18c-1.33301 30 5.33398 52.333 20.001 67c32 32.667 48 56 48 70c0 32.667 -16.667 49 -50 49c-18 0 -32.667 -6.33301 -44 -19s-16.666 -28 -15.999 -46l-19 12c-2 23.333 5.83301 43.833 23.5 61.5
s38.5 26.5 62.5 26.5c22.667 0 42.167 -6.5 58.5 -19.5s24.5 -30.833 24.5 -53.5c0 -16 -7.33301 -32.333 -22 -49l-39 -44c-5.33301 -11.333 -8 -25.666 -8 -42.999z" />
    <glyph glyph-name="glyph344" unicode="&#x1edf;" 
d="M454 259c0 63.333 -12.999 114.334 -38.999 153.001c-30.667 44 -76.334 66 -137.001 66c-59.333 0 -104.666 -22.667 -135.999 -68c-26.667 -38.667 -40 -89 -40 -151s13.333 -112.667 40 -152c31.333 -44.667 76.666 -67 135.999 -67c58.667 0 103.667 22.667 135 68
c27.333 39.333 41 89.666 41 150.999zM349.001 523.001l66.001 -7.99512c16 7.33301 24 16.666 24 27.999c0 8.66699 -4.66699 15.667 -14 21c-4.66699 2.66699 -13.334 4 -26.001 4c3.33301 3.33301 13 6.66602 29 9.99902s26 3.66602 30 0.999023c14 -8 21 -19.667 21 -35
c0 -26.667 -19 -40 -57 -40h-24c80 -44.667 120 -126.334 120 -245.001c0 -78 -20 -142 -60 -192c-44 -54.667 -104 -81.667 -180 -81c-77.333 0.666992 -137.333 27.334 -180 80.001c-40 49.333 -60 113.666 -60 192.999s19.667 143.666 59 192.999
c43.333 53.333 103.666 80 180.999 80c26.667 0 50.334 -3 71.001 -9zM296.002 600.006l-18 6l-19 -17c-1.33301 28 5 49 19 63c30.667 31.333 46 53.666 46 66.999c0 30.667 -16 46 -48 46c-17.333 0 -31.333 -6 -42 -18s-15.667 -26.667 -15 -44l-18 12
c-2 22.667 5.5 42.167 22.5 58.5s36.833 24.5 59.5 24.5c21.333 0 39.833 -6.16699 55.5 -18.5s23.5 -29.166 23.5 -50.499c0 -14 -7 -30 -21 -48l-37 -40c-5.33301 -11.333 -8 -25 -8 -41z" />
    <glyph glyph-name="glyph345" unicode="&#x1ee0;" horiz-adv-x="778" 
d="M389 39c88.667 0 156.667 32.333 204 97c42 56.667 63 131 63 223c0 92.667 -21 167.667 -63 225c-48 64.667 -116.667 97 -206 97c-87.333 0 -155 -33 -203 -99c-42 -58 -63 -132.333 -63 -223c0 -92 21 -166.667 63 -224c48 -64 116.333 -96 205 -96zM473 729
l95.002 -11.998c14 5.33301 21 14 21 26c0 8.66699 -4.66699 15.667 -14 21c-4.66699 2.66699 -13.334 4 -26.001 4c3.33301 3.33301 13 6.66602 29 9.99902s26 3.66602 30 0.999023c14 -8 21 -19.667 21 -35c0 -27.333 -19 -42.333 -57 -45l-16 -1
c57.333 -32 100.666 -80.333 129.999 -145c25.333 -57.333 38 -122 38 -194c0 -109.333 -28 -198.333 -84 -267c-60.667 -74 -144.667 -111 -252 -111s-191 37 -251 111c-56 68 -84 157 -84 267c0 108.667 27.667 197.667 83 267c60 75.333 143 113 249 113
c32.667 0 62 -3.33301 88 -10zM252.002 800.002h-31.998c12 20 27.667 37.667 47 53c28 22.667 55.667 34 83 34c11.333 0 28.666 -6.66699 51.999 -20s40.666 -20 51.999 -20c20.667 0 42 15 64 45l35 -1c-5.33301 -8 -14.333 -19 -27 -33
c-32 -35.333 -63.667 -53.333 -95 -54c-16 0 -35.5 6.66699 -58.5 20s-40.167 20 -51.5 20c-19.333 0 -42.333 -14.667 -69 -44z" />
    <glyph glyph-name="glyph346" unicode="&#x1ee1;" 
d="M454 259c0 63.333 -12.999 114.334 -38.999 153.001c-30.667 44 -76.334 66 -137.001 66c-59.333 0 -104.666 -22.667 -135.999 -68c-26.667 -38.667 -40 -89 -40 -151s13.333 -112.667 40 -152c31.333 -44.667 76.666 -67 135.999 -67c58.667 0 103.667 22.667 135 68
c27.333 39.333 41 89.666 41 150.999zM349.001 523.001l66.001 -7.99512c16 7.33301 24 16.666 24 27.999c0 8.66699 -4.66699 15.667 -14 21c-4.66699 2.66699 -13.334 4 -26.001 4c3.33301 3.33301 13 6.66602 29 9.99902s26 3.66602 30 0.999023c14 -8 21 -19.667 21 -35
c0 -26.667 -19 -40 -57 -40h-24c80 -44.667 120 -126.334 120 -245.001c0 -78 -20 -142 -60 -192c-44 -54.667 -104 -81.667 -180 -81c-77.333 0.666992 -137.333 27.334 -180 80.001c-40 49.333 -60 113.666 -60 192.999s19.667 143.666 59 192.999
c43.333 53.333 103.666 80 180.999 80c26.667 0 50.334 -3 71.001 -9zM152.002 600.006l-31 0.000976562c35.333 55.333 76.333 83 123 83c11.333 0 28 -6.33301 50 -19s38.667 -19 50 -19c19.333 0 39.333 14.333 60 43l34 -1c-5.33301 -8.66699 -14 -19.334 -26 -32.001
c-31.333 -33.333 -61.333 -50.333 -90 -51c-15.333 0 -34 6.33301 -56 19s-38.333 19 -49 19c-18 0 -39.667 -14 -65 -42z" />
    <glyph glyph-name="glyph347" unicode="&#x1ee2;" horiz-adv-x="778" 
d="M389 39c88.667 0 156.667 32.333 204 97c42 56.667 63 131 63 223c0 92.667 -21 167.667 -63 225c-48 64.667 -116.667 97 -206 97c-87.333 0 -155 -33 -203 -99c-42 -58 -63 -132.333 -63 -223c0 -92 21 -166.667 63 -224c48 -64 116.333 -96 205 -96zM473 729
l95.002 -11.998c14 5.33301 21 14 21 26c0 8.66699 -4.66699 15.667 -14 21c-4.66699 2.66699 -13.334 4 -26.001 4c3.33301 3.33301 13 6.66602 29 9.99902s26 3.66602 30 0.999023c14 -8 21 -19.667 21 -35c0 -27.333 -19 -42.333 -57 -45l-16 -1
c57.333 -32 100.666 -80.333 129.999 -145c25.333 -57.333 38 -122 38 -194c0 -109.333 -28 -198.333 -84 -267c-60.667 -74 -144.667 -111 -252 -111s-191 37 -251 111c-56 68 -84 157 -84 267c0 108.667 27.667 197.667 83 267c60 75.333 143 113 249 113
c32.667 0 62 -3.33301 88 -10zM420.002 -146.998h-65v80h65v-80z" />
    <glyph glyph-name="glyph348" unicode="&#x1ee3;" 
d="M454 259c0 63.333 -12.999 114.334 -38.999 153.001c-30.667 44 -76.334 66 -137.001 66c-59.333 0 -104.666 -22.667 -135.999 -68c-26.667 -38.667 -40 -89 -40 -151s13.333 -112.667 40 -152c31.333 -44.667 76.666 -67 135.999 -67c58.667 0 103.667 22.667 135 68
c27.333 39.333 41 89.666 41 150.999zM349.001 523.001l66.001 -7.99512c16 7.33301 24 16.666 24 27.999c0 8.66699 -4.66699 15.667 -14 21c-4.66699 2.66699 -13.334 4 -26.001 4c3.33301 3.33301 13 6.66602 29 9.99902s26 3.66602 30 0.999023c14 -8 21 -19.667 21 -35
c0 -26.667 -19 -40 -57 -40h-24c80 -44.667 120 -126.334 120 -245.001c0 -78 -20 -142 -60 -192c-44 -54.667 -104 -81.667 -180 -81c-77.333 0.666992 -137.333 27.334 -180 80.001c-40 49.333 -60 113.666 -60 192.999s19.667 143.666 59 192.999
c43.333 53.333 103.666 80 180.999 80c26.667 0 50.334 -3 71.001 -9zM309.002 -137.994h-61v76h61v-76z" />
    <glyph glyph-name="glyph349" unicode="&#x1ee4;" horiz-adv-x="722" 
d="M82 271l0.000976562 449h68v-429c0 -82.667 14.333 -143.667 43 -183c33.333 -46 89.333 -69 168 -69c79.333 0 135.666 23 168.999 69c28 38.667 42 99.667 42 183v429h68v-449c0 -193.333 -93 -290 -279 -290s-279 96.667 -279 290zM393.001 -147h-65v80h65v-80z" />
    <glyph glyph-name="glyph350" unicode="&#x1ee5;" 
d="M423 236l-0.000976562 282h60v-518h-60v72c-22.667 -26 -43 -44.667 -61 -56c-31.333 -20 -66.666 -30 -105.999 -30c-122.667 0 -184 63.667 -184 191v341h60v-340c0 -92 44.333 -138 133 -138c52 0 92.333 20.333 121 61c24.667 36 37 81 37 135zM308.999 -138h-61v76
h61v-76z" />
    <glyph glyph-name="glyph351" unicode="&#x1ee6;" horiz-adv-x="722" 
d="M82 271l0.000976562 449h68v-429c0 -82.667 14.333 -143.667 43 -183c33.333 -46 89.333 -69 168 -69c79.333 0 135.666 23 168.999 69c28 38.667 42 99.667 42 183v429h68v-449c0 -193.333 -93 -290 -279 -290s-279 96.667 -279 290zM379.001 751l-19.002 5.99902
l-20 -18c-1.33301 30 5.33398 52.333 20.001 67c32 32.667 48 56 48 70c0 32.667 -16.667 49 -50 49c-18 0 -32.667 -6.33301 -44 -19s-16.666 -28 -15.999 -46l-19 12c-2 23.333 5.83301 43.833 23.5 61.5s38.5 26.5 62.5 26.5c22.667 0 42.167 -6.5 58.5 -19.5
s24.5 -30.833 24.5 -53.5c0 -16 -7.33301 -32.333 -22 -49l-39 -44c-5.33301 -11.333 -8 -25.666 -8 -42.999z" />
    <glyph glyph-name="glyph352" unicode="&#x1ee7;" 
d="M423 236l-0.000976562 282h60v-518h-60v72c-22.667 -26 -43 -44.667 -61 -56c-31.333 -20 -66.666 -30 -105.999 -30c-122.667 0 -184 63.667 -184 191v341h60v-340c0 -92 44.333 -138 133 -138c52 0 92.333 20.333 121 61c24.667 36 37 81 37 135zM295.999 561l-18 6
l-19 -17c-1.33301 28 5 49 19 63c30.667 31.333 46 53.666 46 66.999c0 30.667 -16 46 -48 46c-17.333 0 -31.333 -6 -42 -18s-15.667 -26.667 -15 -44l-18 12c-2 22.667 5.5 42.167 22.5 58.5s36.833 24.5 59.5 24.5c21.333 0 39.833 -6.16699 55.5 -18.5
s23.5 -29.166 23.5 -50.499c0 -14 -7 -30 -21 -48l-37 -40c-5.33301 -11.333 -8 -25 -8 -41z" />
    <glyph glyph-name="glyph353" unicode="&#x1ee8;" horiz-adv-x="722" 
d="M640 704l0.00195312 -432.998c0 -193.333 -93 -290 -279 -290s-279 96.667 -279 290v449h68v-429c0 -82.667 14.333 -143.667 43 -183c33.333 -46 89.333 -69 168 -69c79.333 0 135.666 23 168.999 69c28 38.667 42 99.667 42 183v429l65 -3c14 5.33301 21 14 21 26
c0 8.66699 -4.66699 15.667 -14 21c-4.66699 2.66699 -13.334 4 -26.001 4c3.33301 3.33301 13 6.66602 29 9.99902s26 3.66602 30 0.999023c14 -8 21 -19.667 21 -35c0 -26.667 -19 -40 -57 -40h-1zM370.002 750.002h-21l91 139h81z" />
    <glyph glyph-name="glyph354" unicode="&#x1ee9;" 
d="M483 504v-503.997h-60v72c-22.667 -26 -43 -44.667 -61 -56c-31.333 -20 -66.666 -30 -105.999 -30c-122.667 0 -184 63.667 -184 191v341h60v-340c0 -92 44.333 -138 133 -138c52 0 92.333 20.333 121 61c24.667 36 37 81 37 135v282l53 -3
c16 7.33301 24 16.666 24 27.999c0 8.66699 -4.66699 15.667 -14 21c-4.66699 2.66699 -13.334 4 -26.001 4c3.33301 3.33301 13 6.66602 29 9.99902s26 3.66602 30 0.999023c14 -8 21 -19.667 21 -35c0 -26.667 -19 -40 -57 -40zM288 560.003h-20l86 132h77z" />
    <glyph glyph-name="glyph355" unicode="&#x1eea;" horiz-adv-x="722" 
d="M640 704l0.00195312 -432.998c0 -193.333 -93 -290 -279 -290s-279 96.667 -279 290v449h68v-429c0 -82.667 14.333 -143.667 43 -183c33.333 -46 89.333 -69 168 -69c79.333 0 135.666 23 168.999 69c28 38.667 42 99.667 42 183v429l65 -3c14 5.33301 21 14 21 26
c0 8.66699 -4.66699 15.667 -14 21c-4.66699 2.66699 -13.334 4 -26.001 4c3.33301 3.33301 13 6.66602 29 9.99902s26 3.66602 30 0.999023c14 -8 21 -19.667 21 -35c0 -26.667 -19 -40 -57 -40h-1zM371.002 750.002h-21l-151 139h81z" />
    <glyph glyph-name="glyph356" unicode="&#x1eeb;" 
d="M483 504v-503.997h-60v72c-22.667 -26 -43 -44.667 -61 -56c-31.333 -20 -66.666 -30 -105.999 -30c-122.667 0 -184 63.667 -184 191v341h60v-340c0 -92 44.333 -138 133 -138c52 0 92.333 20.333 121 61c24.667 36 37 81 37 135v282l53 -3
c16 7.33301 24 16.666 24 27.999c0 8.66699 -4.66699 15.667 -14 21c-4.66699 2.66699 -13.334 4 -26.001 4c3.33301 3.33301 13 6.66602 29 9.99902s26 3.66602 30 0.999023c14 -8 21 -19.667 21 -35c0 -26.667 -19 -40 -57 -40zM288 560.003h-20l-143 132h77z" />
    <glyph glyph-name="glyph357" unicode="&#x1eec;" horiz-adv-x="722" 
d="M640 704l0.00195312 -432.998c0 -193.333 -93 -290 -279 -290s-279 96.667 -279 290v449h68v-429c0 -82.667 14.333 -143.667 43 -183c33.333 -46 89.333 -69 168 -69c79.333 0 135.666 23 168.999 69c28 38.667 42 99.667 42 183v429l65 -3c14 5.33301 21 14 21 26
c0 8.66699 -4.66699 15.667 -14 21c-4.66699 2.66699 -13.334 4 -26.001 4c3.33301 3.33301 13 6.66602 29 9.99902s26 3.66602 30 0.999023c14 -8 21 -19.667 21 -35c0 -26.667 -19 -40 -57 -40h-1zM379.002 751.002l-19.002 5.99902l-20 -18
c-1.33301 30 5.33398 52.333 20.001 67c32 32.667 48 56 48 70c0 32.667 -16.667 49 -50 49c-18 0 -32.667 -6.33301 -44 -19s-16.666 -28 -15.999 -46l-19 12c-2 23.333 5.83301 43.833 23.5 61.5s38.5 26.5 62.5 26.5c22.667 0 42.167 -6.5 58.5 -19.5
s24.5 -30.833 24.5 -53.5c0 -16 -7.33301 -32.333 -22 -49l-39 -44c-5.33301 -11.333 -8 -25.666 -8 -42.999z" />
    <glyph glyph-name="glyph358" unicode="&#x1eed;" 
d="M483 504v-503.997h-60v72c-22.667 -26 -43 -44.667 -61 -56c-31.333 -20 -66.666 -30 -105.999 -30c-122.667 0 -184 63.667 -184 191v341h60v-340c0 -92 44.333 -138 133 -138c52 0 92.333 20.333 121 61c24.667 36 37 81 37 135v282l53 -3
c16 7.33301 24 16.666 24 27.999c0 8.66699 -4.66699 15.667 -14 21c-4.66699 2.66699 -13.334 4 -26.001 4c3.33301 3.33301 13 6.66602 29 9.99902s26 3.66602 30 0.999023c14 -8 21 -19.667 21 -35c0 -26.667 -19 -40 -57 -40zM296 561.003l-18 6l-19 -17
c-1.33301 28 5 49 19 63c30.667 31.333 46 53.666 46 66.999c0 30.667 -16 46 -48 46c-17.333 0 -31.333 -6 -42 -18s-15.667 -26.667 -15 -44l-18 12c-2 22.667 5.5 42.167 22.5 58.5s36.833 24.5 59.5 24.5c21.333 0 39.833 -6.16699 55.5 -18.5
s23.5 -29.166 23.5 -50.499c0 -14 -7 -30 -21 -48l-37 -40c-5.33301 -11.333 -8 -25 -8 -41z" />
    <glyph glyph-name="glyph359" unicode="&#x1eee;" horiz-adv-x="722" 
d="M640 704l0.00195312 -432.998c0 -193.333 -93 -290 -279 -290s-279 96.667 -279 290v449h68v-429c0 -82.667 14.333 -143.667 43 -183c33.333 -46 89.333 -69 168 -69c79.333 0 135.666 23 168.999 69c28 38.667 42 99.667 42 183v429l65 -3c14 5.33301 21 14 21 26
c0 8.66699 -4.66699 15.667 -14 21c-4.66699 2.66699 -13.334 4 -26.001 4c3.33301 3.33301 13 6.66602 29 9.99902s26 3.66602 30 0.999023c14 -8 21 -19.667 21 -35c0 -26.667 -19 -40 -57 -40h-1zM227.002 760.002h-31.998c12 20 27.667 37.667 47 53
c28 22.667 55.667 34 83 34c11.333 0 28.666 -6.66699 51.999 -20s40.666 -20 51.999 -20c20.667 0 42 15 64 45l35 -1c-5.33301 -8 -14.333 -19 -27 -33c-32 -35.333 -63.667 -53.333 -95 -54c-16 0 -35.5 6.66699 -58.5 20s-40.167 20 -51.5 20
c-19.333 0 -42.333 -14.667 -69 -44z" />
    <glyph glyph-name="glyph360" unicode="&#x1eef;" 
d="M483 504v-503.997h-60v72c-22.667 -26 -43 -44.667 -61 -56c-31.333 -20 -66.666 -30 -105.999 -30c-122.667 0 -184 63.667 -184 191v341h60v-340c0 -92 44.333 -138 133 -138c52 0 92.333 20.333 121 61c24.667 36 37 81 37 135v282l53 -3
c16 7.33301 24 16.666 24 27.999c0 8.66699 -4.66699 15.667 -14 21c-4.66699 2.66699 -13.334 4 -26.001 4c3.33301 3.33301 13 6.66602 29 9.99902s26 3.66602 30 0.999023c14 -8 21 -19.667 21 -35c0 -26.667 -19 -40 -57 -40zM152 570.003l-31 0.000976562
c35.333 55.333 76.333 83 123 83c11.333 0 28 -6.33301 50 -19s38.667 -19 50 -19c19.333 0 39.333 14.333 60 43l34 -1c-5.33301 -8.66699 -14 -19.334 -26 -32.001c-31.333 -33.333 -61.333 -50.333 -90 -51c-15.333 0 -34 6.33301 -56 19s-38.333 19 -49 19
c-18 0 -39.667 -14 -65 -42z" />
    <glyph glyph-name="glyph361" unicode="&#x1ef0;" horiz-adv-x="722" 
d="M640 704l0.00195312 -432.998c0 -193.333 -93 -290 -279 -290s-279 96.667 -279 290v449h68v-429c0 -82.667 14.333 -143.667 43 -183c33.333 -46 89.333 -69 168 -69c79.333 0 135.666 23 168.999 69c28 38.667 42 99.667 42 183v429l65 -3c14 5.33301 21 14 21 26
c0 8.66699 -4.66699 15.667 -14 21c-4.66699 2.66699 -13.334 4 -26.001 4c3.33301 3.33301 13 6.66602 29 9.99902s26 3.66602 30 0.999023c14 -8 21 -19.667 21 -35c0 -26.667 -19 -40 -57 -40h-1zM393.002 -146.998h-65v80h65v-80z" />
    <glyph glyph-name="glyph362" unicode="&#x1ef1;" 
d="M483 504v-503.997h-60v72c-22.667 -26 -43 -44.667 -61 -56c-31.333 -20 -66.666 -30 -105.999 -30c-122.667 0 -184 63.667 -184 191v341h60v-340c0 -92 44.333 -138 133 -138c52 0 92.333 20.333 121 61c24.667 36 37 81 37 135v282l53 -3
c16 7.33301 24 16.666 24 27.999c0 8.66699 -4.66699 15.667 -14 21c-4.66699 2.66699 -13.334 4 -26.001 4c3.33301 3.33301 13 6.66602 29 9.99902s26 3.66602 30 0.999023c14 -8 21 -19.667 21 -35c0 -26.667 -19 -40 -57 -40zM309 -137.997h-61v76h61v-76z" />
    <glyph glyph-name="glyph363" unicode="&#x1ef2;" horiz-adv-x="611" 
d="M90 720l212 -347l217 347h79l-261 -406v-314h-68v309l-257 411h78zM315 740h-21l-151 139h81z" />
    <glyph glyph-name="glyph364" unicode="&#x1ef3;" horiz-adv-x="500" 
d="M68 -197l0.000976562 56c21.333 -4 38 -6 50 -6c29.333 0 51.666 18.333 66.999 55l34 88l-201 522h67l166 -445l166 445h65l-193 -511c-29.333 -78 -52.333 -129.333 -69 -154c-25.333 -38 -57 -57 -95 -57c-19.333 0 -38.333 2.33301 -57 7zM260.001 560h-20l-143 132
h77z" />
    <glyph glyph-name="glyph365" unicode="&#x1ef4;" horiz-adv-x="611" 
d="M90 720l212 -347l217 347h79l-261 -406v-314h-68v309l-257 411h78zM335 -122h-65v80h65v-80z" />
    <glyph glyph-name="glyph366" unicode="&#x1ef5;" horiz-adv-x="500" 
d="M68 -197l0.000976562 56c21.333 -4 38 -6 50 -6c29.333 0 51.666 18.333 66.999 55l34 88l-201 522h67l166 -445l166 445h65l-193 -511c-29.333 -78 -52.333 -129.333 -69 -154c-25.333 -38 -57 -57 -95 -57c-19.333 0 -38.333 2.33301 -57 7zM364.001 -138h-61v76h61
v-76z" />
    <glyph glyph-name="glyph367" unicode="&#x1ef6;" horiz-adv-x="611" 
d="M90 720l212 -347l217 347h79l-261 -406v-314h-68v309l-257 411h78zM323 740l-19.002 5.99902l-20 -18c-1.33301 30 5.33398 52.333 20.001 67c32 32.667 48 56 48 70c0 32.667 -16.667 49 -50 49c-18 0 -32.667 -6.33301 -44 -19s-16.666 -28 -15.999 -46l-19 12
c-2 23.333 5.83301 43.833 23.5 61.5s38.5 26.5 62.5 26.5c22.667 0 42.167 -6.5 58.5 -19.5s24.5 -30.833 24.5 -53.5c0 -16 -7.33301 -32.333 -22 -49l-39 -44c-5.33301 -11.333 -8 -25.666 -8 -42.999z" />
    <glyph glyph-name="glyph368" unicode="&#x1ef7;" horiz-adv-x="500" 
d="M68 -197l0.000976562 56c21.333 -4 38 -6 50 -6c29.333 0 51.666 18.333 66.999 55l34 88l-201 522h67l166 -445l166 445h65l-193 -511c-29.333 -78 -52.333 -129.333 -69 -154c-25.333 -38 -57 -57 -95 -57c-19.333 0 -38.333 2.33301 -57 7zM268.001 561l-18 6l-19 -17
c-1.33301 28 5 49 19 63c30.667 31.333 46 53.666 46 66.999c0 30.667 -16 46 -48 46c-17.333 0 -31.333 -6 -42 -18s-15.667 -26.667 -15 -44l-18 12c-2 22.667 5.5 42.167 22.5 58.5s36.833 24.5 59.5 24.5c21.333 0 39.833 -6.16699 55.5 -18.5
s23.5 -29.166 23.5 -50.499c0 -14 -7 -30 -21 -48l-37 -40c-5.33301 -11.333 -8 -25 -8 -41z" />
    <glyph glyph-name="glyph369" unicode="&#x1ef8;" horiz-adv-x="611" 
d="M90 720l212 -347l217 347h79l-261 -406v-314h-68v309l-257 411h78zM171 750h-31.998c12 20 27.667 37.667 47 53c28 22.667 55.667 34 83 34c11.333 0 28.666 -6.66699 51.999 -20s40.666 -20 51.999 -20c20.667 0 42 15 64 45l35 -1c-5.33301 -8 -14.333 -19 -27 -33
c-32 -35.333 -63.667 -53.333 -95 -54c-16 0 -35.5 6.66699 -58.5 20s-40.167 20 -51.5 20c-19.333 0 -42.333 -14.667 -69 -44z" />
    <glyph glyph-name="glyph370" unicode="&#x1ef9;" horiz-adv-x="500" 
d="M68 -197l0.000976562 56c21.333 -4 38 -6 50 -6c29.333 0 51.666 18.333 66.999 55l34 88l-201 522h67l166 -445l166 445h65l-193 -511c-29.333 -78 -52.333 -129.333 -69 -154c-25.333 -38 -57 -57 -95 -57c-19.333 0 -38.333 2.33301 -57 7zM124.001 560
l-31 0.000976562c35.333 55.333 76.333 83 123 83c11.333 0 28 -6.33301 50 -19s38.667 -19 50 -19c19.333 0 39.333 14.333 60 43l34 -1c-5.33301 -8.66699 -14 -19.334 -26 -32.001c-31.333 -33.333 -61.333 -50.333 -90 -51c-15.333 0 -34 6.33301 -56 19
s-38.333 19 -49 19c-18 0 -39.667 -14 -65 -42z" />
    <glyph glyph-name="endash" unicode="&#x2013;" horiz-adv-x="500" 
d="M500 282v-44h-500v44h500z" />
    <glyph glyph-name="emdash" unicode="&#x2014;" horiz-adv-x="1000" 
d="M1000 238h-1000v44h1000v-44z" />
    <glyph glyph-name="quoteleft" unicode="&#x2018;" horiz-adv-x="222" 
d="M69 495v118c0 56 24.333 91.667 73 107v-37c-22.667 -14 -34 -36 -34 -66v-34h34v-88h-73z" />
    <glyph glyph-name="quoteright" unicode="&#x2019;" horiz-adv-x="222" 
d="M153 720v-118c0 -56 -24.333 -91.667 -73 -107v37c22.667 14 34 36 34 66v34h-34v88h73z" />
    <glyph glyph-name="quotesinglbase" unicode="&#x201a;" horiz-adv-x="222" 
d="M153 88v-118c0 -56 -24.333 -91.667 -73 -107v37c22.667 14 34 36 34 66v34h-34v88h73z" />
    <glyph glyph-name="quotedblleft" unicode="&#x201c;" horiz-adv-x="389" 
d="M237 495v118c0 56 24.333 91.667 73 107v-37c-22.667 -14 -34 -36 -34 -66v-34h34v-88h-73zM86 495v118c0 56 24.333 91.667 73 107v-37c-22.667 -14 -34 -36 -34 -66v-34h34v-88h-73z" />
    <glyph glyph-name="quotedblright" unicode="&#x201d;" horiz-adv-x="389" 
d="M303 720v-118c0 -56 -24.333 -91.667 -73 -107v37c22.667 14 34 36 34 66v34h-34v88h73zM152 720v-118c0 -56 -24.333 -91.667 -73 -107v37c22.667 14 34 36 34 66v34h-34v88h73z" />
    <glyph glyph-name="quotedblbase" unicode="&#x201e;" horiz-adv-x="389" 
d="M303 88v-118c0 -56 -24.333 -91.667 -73 -107v37c22.667 14 34 36 34 66v34h-34v88h73zM152 88v-118c0 -56 -24.333 -91.667 -73 -107v37c22.667 14 34 36 34 66v34h-34v88h73z" />
    <glyph glyph-name="dagger" unicode="&#x2020;" 
d="M248 -166v602h-211v54h211v230h60v-230h211v-54h-211v-602h-60z" />
    <glyph glyph-name="daggerdbl" unicode="&#x2021;" 
d="M248 109v334h-211v54h211v223h60v-223h211v-54h-211v-334h211v-54h-211v-221h-60v221h-211v54h211z" />
    <glyph glyph-name="bullet" unicode="&#x2022;" horiz-adv-x="500" 
d="M430 359c0 -49.333 -17.667 -91.5 -53 -126.5s-78 -52.5 -128 -52.5c-48.667 0 -90.667 17.667 -126 53s-53 77.333 -53 126c0 50 17.5 92.667 52.5 128s77.167 53 126.5 53c50 0 92.667 -17.667 128 -53s53 -78 53 -128z" />
    <glyph glyph-name="ellipsis" unicode="&#x2026;" horiz-adv-x="1000" 
d="M204 0h-73v88h73v-88zM537 0h-73v88h73v-88zM870 0h-73v88h73v-88z" />
    <glyph glyph-name="perthousand" unicode="&#x2030;" horiz-adv-x="1000" 
d="M836 299c40.667 0 75.665 -14.833 104.998 -44.5s44 -64.834 44 -105.501s-14.5 -75.667 -43.5 -105s-64.167 -44 -105.5 -44s-76.666 14.667 -105.999 44s-44 64.333 -44 105s14.833 75.834 44.5 105.501s64.834 44.5 105.501 44.5zM835.998 57
c24 0 45.333 9.33105 64 27.998s28 40 28 64c0 24.667 -9.16699 46.334 -27.5 65.001s-39.833 28 -64.5 28s-46.334 -9.16699 -65.001 -27.5s-28 -40.166 -28 -65.499c0 -24.667 9.33301 -46.167 28 -64.5s40.334 -27.5 65.001 -27.5zM162.998 697.998
c40.667 0 75.832 -14.6689 105.499 -44.002s44.5 -64.333 44.5 -105c0 -41.333 -14.667 -76.666 -44 -105.999s-64.666 -44 -105.999 -44c-40.667 0 -75.667 14.833 -105 44.5s-44 64.834 -44 105.501s14.667 75.667 44 105s64.333 44 105 44zM162.996 640.996
c-24.667 0 -46.167 -9.16699 -64.5 -27.5s-27.5 -39.833 -27.5 -64.5s9.16699 -46.334 27.5 -65.001s39.833 -28 64.5 -28s46.334 9.33301 65.001 28s28 40.334 28 65.001s-9.33301 46.167 -28 64.5s-40.334 27.5 -65.001 27.5zM138.996 -14.0039h-53l407 719h53z
M472.996 298.996c40.667 0 75.832 -14.833 105.499 -44.5s44.5 -64.834 44.5 -105.501c0 -41.333 -14.667 -76.5 -44 -105.5s-64.666 -43.5 -105.999 -43.5c-40.667 0 -75.667 14.667 -105 44s-44 64.333 -44 105s14.667 75.834 44 105.501s64.333 44.5 105 44.5z
M472.994 56.9961c24 0 45.501 9.33301 64.501 28s28.5 40 28.5 64c0 24.667 -9.33301 46.334 -28 65.001s-40.334 28 -65.001 28s-46.167 -9.33301 -64.5 -28s-27.5 -40.334 -27.5 -65.001s9.33301 -46.167 28 -64.5s40 -27.5 64 -27.5z" />
    <glyph glyph-name="guilsinglleft" unicode="&#x2039;" horiz-adv-x="389" 
d="M121 228v63l146 113v-63l-104 -82l104 -80v-62z" />
    <glyph glyph-name="guilsinglright" unicode="&#x203a;" horiz-adv-x="389" 
d="M268 293v-63l-146 -113v63l104 82l-104 80v62z" />
    <glyph glyph-name="fraction" unicode="&#x2044;" horiz-adv-x="167" 
d="M-113 -14h-51l444 719h51z" />
    <glyph glyph-name="franc" unicode="&#x20a3;" horiz-adv-x="1035" 
d="M142 0h-68v720h464v-58h-396v-260h360v-58h-360v-344zM787 254v-254.001h-60v518h60v-97h2c16 40.667 37 69.334 63 86.001s61.333 25 106 25v-65c-114 2.66699 -171 -68.333 -171 -213z" />
    <glyph glyph-name="u20AB" unicode="&#x20ab;" horiz-adv-x="393" 
d="M197 501c-32 0 -60 -29.333 -84 -88c-13.333 -32.667 -20 -62.667 -20 -90c0 -34 13 -51 39 -51c27.333 0 52 23.667 74 71c18.667 40 28 75.667 28 107c0 34 -12.333 51 -37 51zM200 267c-35.333 -41.333 -70.666 -62.001 -105.999 -62.001c-30 0 -52.667 9.5 -68 28.5
s-23 43.5 -23 73.5c0 52.667 18.333 103.334 55 152.001c40 52.667 85.333 79 136 79c22.667 0 43 -8 61 -24l20 75h-100l10 36h100c1.33301 11.333 2 16.666 2 15.999c0 20.667 -16 31.334 -48 32.001l7 33c42 1.33301 84.667 6 128 14c8 2 13 3 15 3c4 0 6 -3 6 -9
c-0.666992 -2 -1.66699 -6 -3 -12l-19 -77h65l-10 -36h-65l-69 -280c-3.33301 -14.667 -5 -23.667 -5 -27c0 -10 4 -15 12 -15c4 0 20.333 14 49 42l20 -18c-46.667 -57.333 -85.667 -86 -117 -86c-28.667 0 -46.334 20.667 -53.001 62zM9 159.999h221v-56h-221v56z" />
    <glyph glyph-name="trademark" unicode="&#x2122;" horiz-adv-x="940" 
d="M859 720v-421h-52v377h-2l-145 -377h-34l-145 377h-2v-377h-52v421h96l120 -311h2l118 311h96zM349 720v-40h-134v-381h-52v381h-134v40h320z" />
    <glyph glyph-name="partialdiff" unicode="&#x2202;" horiz-adv-x="1000" 
 />
    <glyph glyph-name="product" unicode="&#x220f;" horiz-adv-x="1000" 
 />
    <glyph glyph-name="summation" unicode="&#x2211;" horiz-adv-x="1000" 
 />
    <glyph glyph-name="minus" unicode="&#x2212;" horiz-adv-x="660" 
d="M80 220v60h500v-60h-500z" />
    <glyph glyph-name="radical" unicode="&#x221a;" horiz-adv-x="1000" 
 />
    <glyph glyph-name="infinity" unicode="&#x221e;" horiz-adv-x="1000" 
 />
    <glyph glyph-name="integral" unicode="&#x222b;" horiz-adv-x="1000" 
 />
    <glyph glyph-name="approxequal" unicode="&#x2248;" horiz-adv-x="1000" 
 />
    <glyph glyph-name="approxequal" unicode="&#x22f2;" horiz-adv-x="1000" 
 />
    <glyph glyph-name="notequal" unicode="&#x2260;" horiz-adv-x="1000" 
 />
    <glyph glyph-name="lessequal" unicode="&#x2264;" horiz-adv-x="1000" 
 />
    <glyph glyph-name="greaterequal" unicode="&#x2265;" horiz-adv-x="1000" 
 />
    <glyph glyph-name="SF370000" unicode="&#x255f;" horiz-adv-x="718" 
d="M85 0h-70l283 720h77l276 -720h-70l-83 226h-328zM334 662l-141 -378h282z" />
    <glyph glyph-name="SF420000" unicode="&#x2560;" horiz-adv-x="681" 
d="M570 0h-489v720h479v-58h-411v-260h371v-58h-371v-286h421v-58z" />
    <glyph glyph-name="SF190000" unicode="&#x2561;" horiz-adv-x="429" 
d="M173 0h-68v720h68v-720z" />
    <glyph glyph-name="SF200000" unicode="&#x2562;" horiz-adv-x="773" 
d="M53 359c0 110 28.335 199.668 85.002 269.001c60.667 74 143 111 247 111c108 0 192.667 -37 254 -111c56.667 -68.667 85 -158.334 85 -269.001c0 -108.667 -28.333 -197.667 -85 -267c-60.667 -74 -144.334 -111 -251.001 -111s-190.334 37 -251.001 111
c-56 69.333 -84 158.333 -84 267zM389.002 39.001c88 0 155.999 32.335 203.999 97.002c42 57.333 63 131.666 63 222.999c0 100 -24 178.667 -72 236s-113.667 86 -197 86c-87.333 0 -154.666 -32.667 -201.999 -98c-42.667 -58.667 -64 -133.334 -64 -224.001
c0 -92 21.333 -166.667 64 -224c47.333 -64 115.333 -96 204 -96z" />
    <glyph glyph-name="SF230000" unicode="&#x2563;" horiz-adv-x="811" 
d="M82 271v449.001h68v-429c0 -88.667 16.667 -152.834 50 -192.501s87 -59.5 161 -59.5c76 0 130.667 20.667 164 62c31.333 40 47 103.333 47 190v429h68v-449c0 -193.333 -93 -290 -279 -290s-279 96.667 -279 290z" />
    <glyph glyph-name="SF470000" unicode="&#x2564;" horiz-adv-x="699" 
d="M90 720l212 -347l217 347h79l-261 -406v-314h-68v309l-257 411h78z" />
    <glyph glyph-name="SF480000" unicode="&#x2565;" horiz-adv-x="541" 
d="M411 191l-0.000976562 81.001c-34 -14 -85.667 -23.667 -155 -29c-97.333 -7.33301 -146 -44 -146 -110c0 -30 11.667 -53.333 35 -70c20.667 -15.333 46.334 -23 77.001 -23c52 0 95.333 12 130 36c39.333 27.333 59 65.666 59 114.999zM226.999 291.001l82.998 11.0029
c38.667 5.33301 65.167 11.166 79.5 17.499s21.5 24.166 21.5 53.499c0 70 -43 105 -129 105c-91.333 0 -141.666 -39 -150.999 -117h-61c4 58 26.667 101.667 68 131c36 26.667 84.333 40 145 40c125.333 0 188 -53.667 188 -161v-282c0 -32 9 -48 27 -48
c8.66699 0 20.667 2.66699 36 8v-47c-20 -6.66699 -35.667 -10 -47 -10c-27.333 0 -46.5 6.16699 -57.5 18.5s-16.833 32.833 -17.5 61.5c-51.333 -57.333 -115.666 -86 -192.999 -86c-48.667 0 -89 12.333 -121 37c-34.667 27.333 -52 64.666 -52 111.999
c0 88 60.333 140 181 156z" />
    <glyph glyph-name="SF410000" unicode="&#x2566;" horiz-adv-x="431" 
d="M109 295l338 0.000976562c0 52.667 -13.667 95.667 -41 129c-30 36 -71 54 -123 54c-50 0 -90.667 -18.333 -122 -55c-28 -32.667 -45.333 -75.334 -52 -128.001zM511 245.001l-401.998 0.000976562c-0.666992 -58.667 14 -106.667 44 -144
c31.333 -40.667 74.666 -61 129.999 -61c39.333 0 73.166 10.5 101.499 31.5s46.833 50.167 55.5 87.5h67c-35.333 -115.333 -110 -173 -224 -173c-79.333 0 -139.666 26 -180.999 78c-38 47.333 -57 111.666 -57 192.999c0 78 21.333 142.667 64 194c44 54 102 81 174 81
s128.167 -24.833 168.5 -74.5s60.166 -120.5 59.499 -212.5z" />
    <glyph glyph-name="SF450000" unicode="&#x2567;" horiz-adv-x="314" 
d="M141 0h-60v518h60v-518zM144 631h-66v89h66v-89z" />
    <glyph glyph-name="SF460000" unicode="&#x2568;" horiz-adv-x="314" 
d="M138 0h-60v518h60v-518z" />
    <glyph glyph-name="SF400000" unicode="&#x2569;" horiz-adv-x="498" 
d="M278 -14c-69.333 0.666992 -126 23.667 -170 69c-46.667 49.333 -70 117.333 -70 204c0 79.333 20 143.666 60 192.999c43.333 53.333 103.333 80 180 80c78 0 138.333 -26.333 181 -79c39.333 -49.333 59 -114 59 -194c0 -82 -22 -148.167 -66 -198.5
s-102 -75.166 -174 -74.499zM454 259c0 66 -13.667 117.668 -41 155.001c-30 42.667 -75 64 -135 64c-58.667 0 -103.667 -22.333 -135 -67c-27.333 -39.333 -41 -90 -41 -152c0 -66 15.333 -119 46 -159s74 -60 130 -60c58.667 0 103.667 22.667 135 68
c27.333 39.333 41 89.666 41 150.999z" />
    <glyph glyph-name="SF540000" unicode="&#x256a;" horiz-adv-x="557" 
d="M423 236l-0.000976562 282.001h60v-518h-60v72c-23.333 -26.667 -43.666 -45.334 -60.999 -56.001c-30.667 -20 -66 -30 -106 -30c-122.667 0 -184 63.667 -184 191v341h60v-340c0 -92 44.333 -138 133 -138c48.667 0 87.167 18.167 115.5 54.5s42.5 83.5 42.5 141.5z
" />
    <glyph glyph-name="SF530000" unicode="&#x256b;" horiz-adv-x="497" 
d="M68 -197v56c21.333 -4 38 -6 50 -6c28 0 50.333 18.333 67 55l34 88l-201 522h67l166 -445l166 445h65l-193 -511c-29.333 -78 -52.333 -129.333 -69 -154c-25.333 -38 -57 -57 -95 -57c-19.333 0 -38.333 2.33301 -57 7z" />
    <glyph glyph-name="lozenge" unicode="&#x25ca;" horiz-adv-x="1000" 
 />
    <glyph glyph-name="circle" unicode="&#x25cb;" horiz-adv-x="718" 
d="M399 908l-82 -102h-65l114 139h67l113 -139h-65zM362 994h-51l111 139h77z" />
    <glyph glyph-name="H18533" unicode="&#x25cf;" horiz-adv-x="718" 
d="M399 908l-82 -102h-65l114 139h67l113 -139h-65zM494 995l-138 139h78l111 -139h-51z" />
    <glyph glyph-name="invbullet" unicode="&#x25d8;" horiz-adv-x="718" 
d="M399 908l-82 -102h-65l114 139h67l113 -139h-65zM614 903c6 20 9.66504 41.333 10.998 64c0.666992 7.33301 3.33398 11.666 8.00098 12.999c1.33301 0 4 0.333008 8 1c44.667 7.33301 67 25.333 67 54c0 23.333 -9.33301 35 -28 35
c-3.33301 0 -8.16602 -0.333008 -14.499 -1s-10.833 -1 -13.5 -1c-14 0 -21 6 -21 18c0 18.667 10.667 28 32 28c30.667 0 56 -8.66699 76 -26s28.667 -40.666 26 -69.999c-4 -39.333 -33 -66.333 -87 -81c-16.667 -4.66699 -27 -16 -31 -34h-33z" />
    <glyph glyph-name="invcircle" unicode="&#x25d9;" horiz-adv-x="718" 
d="M399 908l-82 -102h-65l114 139h67l113 -139h-65zM327 1006h-35.999c2 26.667 11.167 49.5 27.5 68.5s37.5 28.5 63.5 28.5c16 0 39.5 -7.5 70.5 -22.5s54.167 -22.5 69.5 -22.5c22.667 0 37.334 16.667 44.001 50h38c-0.666992 -6 -3.33398 -18.667 -8.00098 -38
c-17.333 -40 -42 -60 -74 -60c-19.333 0 -44.833 7.5 -76.5 22.5s-54.834 22.5 -69.501 22.5c-22 0 -38.333 -16.333 -49 -49z" />
    <glyph glyph-name="apple" unicode="&#xf000;" horiz-adv-x="1000" 
 />
    <glyph glyph-name="fi" unicode="&#xf001;" horiz-adv-x="500" 
d="M92 468l-79.001 -0.000976562v50h79v82c0 89.333 36.667 134 110 134c19.333 0 36 -1.33301 50 -4v-55c-13.333 3.33301 -25.333 5 -36 5c-27.333 0 -45.666 -10.333 -54.999 -31c-6 -13.333 -9 -35.666 -9 -66.999v-64h98v-50h-98v-468h-60v468zM431.999 -0.000976562
h-60v518h60v-518zM434.999 719.999v-89h-66v89h66z" />
    <glyph glyph-name="fl" unicode="&#xf002;" horiz-adv-x="500" 
d="M92 468l-79.001 -0.000976562v50h79v82c0 89.333 36.667 134 110 134c19.333 0 36 -1.33301 50 -4v-55c-13.333 3.33301 -25.333 5 -36 5c-27.333 0 -45.666 -10.333 -54.999 -31c-6 -13.333 -9 -35.666 -9 -66.999v-64h98v-50h-98v-468h-60v468zM431.999 -0.000976562
h-60v720h60v-720z" />
    <glyph glyph-name=".null" horiz-adv-x="0" 
 />
    <glyph glyph-name="glyph2" horiz-adv-x="278" 
 />
    <glyph glyph-name="periodcentered" horiz-adv-x="278" 
d="M139 398c13.333 0 24.666 -4.66895 33.999 -14.002s14 -20.666 14 -33.999s-4.66699 -24.833 -14 -34.5s-20.666 -14.5 -33.999 -14.5s-24.833 4.83301 -34.5 14.5s-14.5 21.167 -14.5 34.5c0 12.667 5 23.834 15 33.501s21.333 14.5 34 14.5z" />
    <glyph glyph-name="HT" horiz-adv-x="1000" 
 />
    <glyph glyph-name="LF" horiz-adv-x="1000" 
 />
    <glyph glyph-name="nonmarkingreturn" horiz-adv-x="1000" 
 />
    <glyph glyph-name="DLE" horiz-adv-x="1000" 
 />
    <glyph glyph-name="DC1" horiz-adv-x="1000" 
 />
    <glyph glyph-name="DC2" horiz-adv-x="1000" 
 />
    <glyph glyph-name="DC3" horiz-adv-x="1000" 
 />
    <glyph glyph-name="DC4" horiz-adv-x="1000" 
 />
    <glyph glyph-name="RS" horiz-adv-x="1000" 
 />
    <glyph glyph-name="US" horiz-adv-x="1000" 
 />
    <glyph glyph-name="DEL" horiz-adv-x="1000" 
 />
    <glyph glyph-name="glyph275" horiz-adv-x="249" 
 />
    <glyph glyph-name="glyph276" horiz-adv-x="249" 
 />
    <glyph glyph-name="glyph261" horiz-adv-x="500" 
d="M253 522c6 20 9.66504 41.333 10.998 64c0.666992 7.33301 3.33398 11.666 8.00098 12.999c1.33301 0 4 0.333008 8 1c44.667 7.33301 67 25.333 67 54c0 23.333 -9.33301 35 -28 35c-3.33301 0 -8.16602 -0.333008 -14.499 -1s-10.833 -1 -13.5 -1c-14 0 -21 6 -21 18
c0 18.667 10.667 28 32 28c30.667 0 56 -8.66699 76 -26s28.667 -40.666 26 -69.999c-4 -39.333 -33 -66.333 -87 -81c-16.667 -4.66699 -27 -16 -31 -34h-33z" />
    <glyph glyph-name="glyph262" horiz-adv-x="541" 
d="M196 676l-82 -102h-65l114 139h67l113 -139h-65zM158 763h-51l111 139h77z" />
    <glyph glyph-name="glyph263" horiz-adv-x="541" 
d="M196 676l-82 -102h-65l114 139h67l113 -139h-65zM291 763l-138 139h78l111 -139h-51z" />
    <glyph glyph-name="glyph264" horiz-adv-x="541" 
d="M196 676l-82 -102h-65l114 139h67l113 -139h-65zM411 671c6 20 9.66504 41.333 10.998 64c0.666992 7.33301 3.33398 11.666 8.00098 12.999c1.33301 0 4 0.333008 8 1c44.667 7.33301 67 25.333 67 54c0 23.333 -9.33301 35 -28 35
c-3.33301 0 -8.16602 -0.333008 -14.499 -1s-10.833 -1 -13.5 -1c-14 0 -21 6 -21 18c0 18.667 10.667 28 32 28c30.667 0 56 -8.66699 76 -26s28.667 -40.666 26 -69.999c-4 -39.333 -33 -66.333 -87 -81c-16.667 -4.66699 -27 -16 -31 -34h-33z" />
    <glyph glyph-name="glyph265" horiz-adv-x="541" 
d="M196 676l-82 -102h-65l114 139h67l113 -139h-65zM124 774h-35.999c2 26.667 11.167 49.5 27.5 68.5s37.5 28.5 63.5 28.5c16 0 39.5 -7.5 70.5 -22.5s54.167 -22.5 69.5 -22.5c22.667 0 37.334 16.667 44.001 50h38c-0.666992 -6 -3.33398 -18.667 -8.00098 -38
c-17.333 -40 -42 -60 -74 -60c-19.333 0 -44.833 7.5 -76.5 22.5s-54.834 22.5 -69.501 22.5c-22 0 -38.333 -16.333 -49 -49z" />
    <glyph glyph-name="glyph266" horiz-adv-x="541" 
d="M58 705l39.001 0.000976562c10.667 -54 45.667 -81 105 -81c58 0 93.667 27 107 81h37c-8.66699 -84 -58.334 -126 -149.001 -126c-40 0 -72.5 11.167 -97.5 33.5s-38.833 53.166 -41.5 92.499zM237.001 763.001h-51l111 139h77z" />
    <glyph glyph-name="glyph267" horiz-adv-x="541" 
d="M58 705l39.001 0.000976562c10.667 -54 45.667 -81 105 -81c58 0 93.667 27 107 81h37c-8.66699 -84 -58.334 -126 -149.001 -126c-40 0 -72.5 11.167 -97.5 33.5s-38.833 53.166 -41.5 92.499zM238.001 763.001l-138 139h78l111 -139h-51z" />
    <glyph glyph-name="glyph268" horiz-adv-x="541" 
d="M58 705l39.001 0.000976562c10.667 -54 45.667 -81 105 -81c58 0 93.667 27 107 81h37c-8.66699 -84 -58.334 -126 -149.001 -126c-40 0 -72.5 11.167 -97.5 33.5s-38.833 53.166 -41.5 92.499zM306.001 671.001c6 20 9.66504 41.333 10.998 64
c0.666992 7.33301 3.33398 11.666 8.00098 12.999c1.33301 0 4 0.333008 8 1c44.667 7.33301 67 25.333 67 54c0 23.333 -9.33301 35 -28 35c-3.33301 0 -8.16602 -0.333008 -14.499 -1s-10.833 -1 -13.5 -1c-14 0 -21 6 -21 18c0 18.667 10.667 28 32 28
c30.667 0 56 -8.66699 76 -26s28.667 -40.666 26 -69.999c-4 -39.333 -33 -66.333 -87 -81c-16.667 -4.66699 -27 -16 -31 -34h-33z" />
    <glyph glyph-name="glyph269" horiz-adv-x="541" 
d="M58 705l39.001 0.000976562c10.667 -54 45.667 -81 105 -81c58 0 93.667 27 107 81h37c-8.66699 -84 -58.334 -126 -149.001 -126c-40 0 -72.5 11.167 -97.5 33.5s-38.833 53.166 -41.5 92.499zM124.001 774.001h-35.999c2 26.667 11.167 49.5 27.5 68.5
s37.5 28.5 63.5 28.5c16 0 39.5 -7.5 70.5 -22.5s54.167 -22.5 69.5 -22.5c22.667 0 37.334 16.667 44.001 50h38c-0.666992 -6 -3.33398 -18.667 -8.00098 -38c-17.333 -40 -42 -60 -74 -60c-19.333 0 -44.833 7.5 -76.5 22.5s-54.834 22.5 -69.501 22.5
c-22 0 -38.333 -16.333 -49 -49z" />
    <glyph glyph-name="glyph270" horiz-adv-x="249" 
 />
  </font>
</defs>
</svg>
