<svg xmlns="http://www.w3.org/2000/svg" xmlns:xlink="http://www.w3.org/1999/xlink" viewBox="0 0 453.55 334.2"><defs><style>.cls-1{fill:#28479e;}.cls-2{fill:url(#linear-gradient);}.cls-3{fill:url(#linear-gradient-2);}.cls-4{fill:url(#linear-gradient-3);}.cls-5{fill:url(#linear-gradient-4);}.cls-6{fill:url(#linear-gradient-5);}.cls-7{fill:url(#linear-gradient-6);}.cls-8{fill:url(#linear-gradient-7);}.cls-9{fill:url(#linear-gradient-8);}.cls-10{fill:url(#linear-gradient-9);}.cls-11{fill:url(#linear-gradient-10);}</style><linearGradient id="linear-gradient" x1="-30.33" y1="155.11" x2="439.14" y2="204.61" gradientUnits="userSpaceOnUse"><stop offset="0" stop-color="#ff8900"/><stop offset="0.05" stop-color="#ff7f00"/><stop offset="0.37" stop-color="#ff4900"/><stop offset="0.65" stop-color="#ff2100"/><stop offset="0.87" stop-color="#ff0900"/><stop offset="1" stop-color="red"/></linearGradient><linearGradient id="linear-gradient-2" x1="-22.12" y1="77.25" x2="447.35" y2="126.74" xlink:href="#linear-gradient"/><linearGradient id="linear-gradient-3" x1="-21.34" y1="69.86" x2="448.13" y2="119.35" xlink:href="#linear-gradient"/><linearGradient id="linear-gradient-4" x1="-35.72" y1="206.18" x2="433.76" y2="255.67" xlink:href="#linear-gradient"/><linearGradient id="linear-gradient-5" x1="-35.27" y1="201.9" x2="434.21" y2="251.4" xlink:href="#linear-gradient"/><linearGradient id="linear-gradient-6" x1="-34.81" y1="197.62" x2="434.66" y2="247.12" xlink:href="#linear-gradient"/><linearGradient id="linear-gradient-7" x1="-34.36" y1="193.34" x2="435.11" y2="242.84" xlink:href="#linear-gradient"/><linearGradient id="linear-gradient-8" x1="-33.96" y1="189.5" x2="435.52" y2="239" xlink:href="#linear-gradient"/><linearGradient id="linear-gradient-9" x1="-26.3" y1="116.85" x2="443.18" y2="166.35" xlink:href="#linear-gradient"/><linearGradient id="linear-gradient-10" x1="-30.97" y1="161.12" x2="438.51" y2="210.62" xlink:href="#linear-gradient"/></defs><title>ic-cmnd</title><g id="Layer_2" data-name="Layer 2"><g id="hang"><path class="cls-1" d="M419.09,0H34.47A34.51,34.51,0,0,0,0,34.47v265.3A34.49,34.49,0,0,0,34.47,334.2H419.09a34.49,34.49,0,0,0,34.47-34.43V34.47A34.51,34.51,0,0,0,419.09,0ZM20.94,34.47A13.55,13.55,0,0,1,34.47,20.94H419.09a13.55,13.55,0,0,1,13.53,13.53v265.3a13.55,13.55,0,0,1-13.53,13.54H34.47a13.55,13.55,0,0,1-13.53-13.54Z"/><path class="cls-2" d="M48.38,266.51c11.68,5.33,34.06,8,66.51,8s54.83-2.7,66.51-8c11.08-5.05,11.08-11.75,11.08-15v-9.29A34.67,34.67,0,0,0,173.22,211l-24.86-12.72c11.36-6.9,19.53-17.61,24.31-31.88A25.23,25.23,0,0,0,185,144.72v-7.47a25.09,25.09,0,0,0-8.83-19.12C171,89,150.34,74.27,114.89,74.27c-2,0-3.59.06-5,.19-1.18.09-2.37.14-3.54.14-7.24,0-13.51-1.74-18.62-5.17a27.78,27.78,0,0,1-6.13-5.27,11.92,11.92,0,0,0-21.26,8.68c.33,3.17.85,6.49,1.53,9.84,1.23,6.34,1.23,6.34-.36,9.78-.81,1.74-1.77,3.83-2.85,6.5a85.6,85.6,0,0,0-5.27,19.31,25.18,25.18,0,0,0-8.65,19v7.47a25.23,25.23,0,0,0,12.34,21.71c4.77,14.24,12.9,24.93,24.21,31.83L55.51,211A34.81,34.81,0,0,0,37.3,241.64v9.9C37.3,254.76,37.3,261.46,48.38,266.51Zm16.83-37,28.66-14.13A16.21,16.21,0,0,0,103,200.85V185.38l-6.32-2.7c-10.41-4.5-17.2-13.15-20.76-26.45l-1.48-5.57-5.54-1.75a4.46,4.46,0,0,1-3.2-4.2v-7.47a4.44,4.44,0,0,1,2.45-3.87l4.9-2.6.61-5.57A66.9,66.9,0,0,1,78,106.88c.93-2.29,1.73-4,2.45-5.58,1.84-3.92,3-6.76,3.23-10.32a55.83,55.83,0,0,0,22.66,4.52c1.71,0,3.46-.07,5.17-.2,1.14-.07,2.25-.14,3.34-.14,26.43,0,38.76,9,41.24,30.18l.67,5.46,4.83,2.54a4.53,4.53,0,0,1,2.5,3.91v7.47a4.47,4.47,0,0,1-3.23,4.21l-5.51,1.74-1.48,5.56c-3.57,13.32-10.37,22-20.8,26.46l-6.29,2.71v15.49a16.09,16.09,0,0,0,8.81,14.43l28.19,14.4a13.91,13.91,0,0,1,7.73,12.54V248c-6.15,2.48-24.68,5.63-56.66,5.63s-50.5-3.15-56.66-5.63v-6.33A13.93,13.93,0,0,1,65.21,229.51Z"/><path class="cls-3" d="M226.78,117.89h74.59a10.47,10.47,0,0,0,0-20.94H226.78a10.47,10.47,0,0,0,0,20.94Z"/><path class="cls-4" d="M331.2,117.89h7.47a10.47,10.47,0,0,0,0-20.94H331.2a10.47,10.47,0,0,0,0,20.94Z"/><path class="cls-5" d="M226.78,244.71h7.47a10.47,10.47,0,0,0,0-20.94h-7.47a10.47,10.47,0,0,0,0,20.94Z"/><path class="cls-6" d="M279,223.78H264.07a10.47,10.47,0,0,0,0,20.94H279a10.47,10.47,0,0,0,0-20.94Z"/><path class="cls-7" d="M316.31,223.78h-7.47a10.47,10.47,0,0,0,0,20.94h7.47a10.47,10.47,0,0,0,0-20.94Z"/><path class="cls-8" d="M361,223.78H346.13a10.47,10.47,0,0,0,0,20.94H361a10.47,10.47,0,0,0,0-20.94Z"/><path class="cls-9" d="M398.26,226.76a10.75,10.75,0,0,0-7.41-2.89,10.54,10.54,0,0,0-7.38,2.91l-.08.08a10.62,10.62,0,0,0,0,14.72l.11.11a10.5,10.5,0,0,0,14.74,0l.11-.11a10.62,10.62,0,0,0,0-14.72Z"/><path class="cls-10" d="M226.78,162.65H390.9a10.47,10.47,0,0,0,0-20.94H226.78a10.47,10.47,0,1,0,0,20.94Z"/><path class="cls-11" d="M226.78,207.42H390.9a10.47,10.47,0,0,0,0-20.94H226.78a10.47,10.47,0,1,0,0,20.94Z"/></g></g></svg>