<svg xmlns="http://www.w3.org/2000/svg" xmlns:xlink="http://www.w3.org/1999/xlink" viewBox="0 0 386.6 473.12"><defs><style>.cls-1{fill:#28479e;}.cls-2{fill:#ec1e27;}.cls-3{fill:url(#linear-gradient);}</style><linearGradient id="linear-gradient" x1="220.06" y1="350.54" x2="97.26" y2="350.54" gradientUnits="userSpaceOnUse"><stop offset="0.25" stop-color="#ec7d23"/><stop offset="0.85" stop-color="#e7262b"/></linearGradient></defs><title>ic-docs</title><g id="Layer_2" data-name="Layer 2"><g id="hang"><path class="cls-1" d="M386.6,108.35c0-.35,0-.69-.05-1,0-.09,0-.18,0-.28,0-.25-.07-.5-.11-.75l-.07-.32q-.08-.36-.18-.71l-.08-.27q-.14-.43-.31-.85l0-.08a11,11,0,0,0-1.43-2.45L309,4.29l0,0-.1-.12c-.13-.16-.26-.31-.39-.46l-.34-.38L307.79,3c-.14-.13-.28-.27-.43-.39L307,2.3c-.17-.13-.33-.26-.5-.38l-.38-.24c-.17-.11-.34-.22-.52-.32l-.47-.24-.47-.23-.57-.22-.41-.15-.62-.17-.42-.11-.59-.1-.49-.08L301,0l-.59,0H96.71a11,11,0,0,0-11,11V47.84H59.85a11,11,0,0,0-11,11v41.88H11a11,11,0,0,0-11,11v350.4a11,11,0,0,0,11,11H289.89a11,11,0,0,0,11-11v-43.4H332.8a11,11,0,0,0,11-11V372.4h31.8a11,11,0,0,0,11-11v-253h0Zm-161,35.57,41.89,54.16H225.59Zm46.52-52,38.74,51.85H272.1ZM311.3,43.2l41.89,54.16H311.3ZM107.71,22H289.3V78.19L269.91,52.25l-.15-.19-.38-.46-.35-.39-.37-.37-.43-.39-.37-.3-.47-.35-.41-.27-.48-.29L266,49l-.45-.22-.56-.23-.41-.15-.61-.18-.41-.11-.61-.12-.47-.07-.56-.05-.55,0H107.71ZM70.85,69.84H250.1v69.82L223.3,105l0,0-.1-.12c-.13-.16-.26-.31-.39-.46l-.34-.37-.37-.36c-.14-.13-.28-.27-.43-.39l-.35-.28c-.16-.13-.33-.26-.5-.37l-.38-.24-.51-.31-.48-.24-.46-.22-.58-.22-.41-.15-.62-.17-.41-.11-.59-.1-.49-.08-.52,0-.59,0H70.85Zm208,381.28H22V122.72H203.59v86.37a11,11,0,0,0,11,11h64.3Zm42.91-54.4H300.89V209.09h0c0-.35,0-.69-.05-1,0-.09,0-.18,0-.28,0-.25-.07-.5-.11-.75l-.07-.31q-.08-.36-.18-.72l-.08-.26q-.14-.44-.31-.86l0-.07a11,11,0,0,0-1.43-2.45l-28.28-36.56H321.8Zm42.8-46.32H343.8V154.78h0c0-.34,0-.69-.05-1,0-.09,0-.18,0-.27,0-.25-.07-.5-.11-.75l-.06-.3c-.06-.25-.12-.5-.19-.75l-.06-.22a11,11,0,0,0-1.36-2.81h0c-.1-.15-.2-.3-.31-.45l-21.53-28.81H364.6Z"/><path id="_Path_" data-name="&lt;Path&gt;" class="cls-2" d="M234.89,245.3,220.14,310h-.08c-1.55-.05-3.12-.08-4.69-.07-53.59.25-99.55,33.86-118.11,81.05-1.43-21.9-8.52-41.71-15.54-55.83a150.48,150.48,0,0,0-11.31-18.75,76.87,76.87,0,0,0-4.86-6.06l32.12-11.58a131,131,0,0,1,15.42,28.87A168.55,168.55,0,0,1,119,348.81a279.3,279.3,0,0,1,17.07-24.09c41.9-54.16,98.78-79.42,98.78-79.42"/><path id="_Path_2" data-name="&lt;Path&gt;" class="cls-3" d="M220.06,310c-21.55,4.28-42.83,15.25-61.48,27.82-9,6.09-17.45,12.53-25,18.77a373.33,373.33,0,0,0-32.78,30.71c-.4.43-.79.84-1.12,1.22-1.59,1.71-2.43,2.67-2.43,2.67s0-.13,0-.2c18.55-47.19,64.52-80.8,118.11-81.05,1.58,0,3.14,0,4.69.07"/></g></g></svg>