<svg xmlns="http://www.w3.org/2000/svg" xmlns:xlink="http://www.w3.org/1999/xlink" viewBox="0 0 295.7 109.68"><defs><style>.cls-1,.cls-2{fill:none;stroke:#164397;}.cls-1{stroke-miterlimit:10;stroke-width:3px;}.cls-2{stroke-linecap:round;stroke-linejoin:round;stroke-width:3.5px;}.cls-3{fill:url(#linear-gradient);}.cls-4{fill:url(#linear-gradient-2);}.cls-5{fill:url(#linear-gradient-3);}.cls-6{fill:url(#linear-gradient-4);}.cls-7,.cls-8{fill:#164397;}.cls-8{fill-rule:evenodd;}</style><linearGradient id="linear-gradient" x1="14.4" y1="71.43" x2="49.4" y2="70.43" gradientUnits="userSpaceOnUse"><stop offset="0" stop-color="#ff8900"/><stop offset="0.01" stop-color="#ff8700"/><stop offset="0.25" stop-color="#ff5700"/><stop offset="0.47" stop-color="#ff3100"/><stop offset="0.68" stop-color="#ff1600"/><stop offset="0.86" stop-color="#ff0600"/><stop offset="1" stop-color="red"/></linearGradient><linearGradient id="linear-gradient-2" x1="14.41" y1="72.05" x2="49.41" y2="71.05" xlink:href="#linear-gradient"/><linearGradient id="linear-gradient-3" x1="244.06" y1="70.75" x2="290.06" y2="72.75" xlink:href="#linear-gradient"/><linearGradient id="linear-gradient-4" x1="244.09" y1="70.04" x2="290.09" y2="72.04" xlink:href="#linear-gradient"/></defs><title>ic-do-tuoi</title><g id="Layer_2" data-name="Layer 2"><g id="Layer_1-2" data-name="Layer 1"><path class="cls-1" d="M224.14,38.41"/><line class="cls-2" x1="1.75" y1="99.34" x2="44.25" y2="99.34"/><line class="cls-2" x1="251.45" y1="99.34" x2="293.95" y2="99.34"/><path class="cls-3" d="M13.9,77.66q.89-2.12,4.22-4.5a30.94,30.94,0,0,0,3.74-3,4.37,4.37,0,0,0,1.3-3,3.38,3.38,0,0,0-.75-2.24A2.63,2.63,0,0,0,20.27,64a2.61,2.61,0,0,0-2.59,1.42,7,7,0,0,0-.47,2.61H13.15a10.25,10.25,0,0,1,1-4.38q1.67-3.18,5.94-3.18a7.53,7.53,0,0,1,5.37,1.87,6.45,6.45,0,0,1,2,4.94A6.68,6.68,0,0,1,26,71.5a14,14,0,0,1-3,2.71l-1.67,1.19Q19.74,76.5,19.17,77a4.7,4.7,0,0,0-1,1.16h9.27v3.68H12.92A10,10,0,0,1,13.9,77.66Z"/><path class="cls-4" d="M42.62,63.31q1.63,2.86,1.63,8.12t-1.63,8.1Q41,82.36,36.93,82.36t-5.69-2.84q-1.63-2.84-1.63-8.1t1.63-8.12q1.63-2.86,5.69-2.86T42.62,63.31ZM34.46,77A2.42,2.42,0,0,0,36.93,79,2.39,2.39,0,0,0,39.37,77a20.76,20.76,0,0,0,.58-5.6,20.54,20.54,0,0,0-.58-5.68,2.36,2.36,0,0,0-2.44-1.85,2.4,2.4,0,0,0-2.46,1.85,19.78,19.78,0,0,0-.6,5.68A20,20,0,0,0,34.46,77Z"/><path class="cls-5" d="M261.52,65.94a2.13,2.13,0,0,0-.4-1.13,2.29,2.29,0,0,0-2-1,3,3,0,0,0-2.9,2.29,14.18,14.18,0,0,0-.64,3.72,4.69,4.69,0,0,1,1.8-1.35,6.6,6.6,0,0,1,7,1.49,6.87,6.87,0,0,1,1.81,4.91,8.28,8.28,0,0,1-1.77,5.24q-1.77,2.27-5.51,2.27A6.34,6.34,0,0,1,252.93,79a13.68,13.68,0,0,1-1.48-6.77,30.77,30.77,0,0,1,.21-4,12.09,12.09,0,0,1,1.42-4.51,7.28,7.28,0,0,1,2.38-2.48,6.42,6.42,0,0,1,3.52-.94,7,7,0,0,1,4.72,1.52,5.77,5.77,0,0,1,2,4Zm-5,12A2.94,2.94,0,0,0,258.91,79a2.6,2.6,0,0,0,2.19-1,4.37,4.37,0,0,0,.8-2.72,4.06,4.06,0,0,0-.91-2.85,2.9,2.9,0,0,0-2.23-1,3,3,0,0,0-1.89.64,3.65,3.65,0,0,0-1.23,3.08A4.17,4.17,0,0,0,256.57,77.91Z"/><path class="cls-6" d="M281.15,63.31q1.63,2.86,1.63,8.12t-1.63,8.1q-1.63,2.84-5.69,2.84t-5.69-2.84q-1.63-2.84-1.63-8.1t1.63-8.12q1.63-2.86,5.69-2.86T281.15,63.31ZM273,77A2.42,2.42,0,0,0,275.46,79,2.39,2.39,0,0,0,277.9,77a20.76,20.76,0,0,0,.58-5.6,20.54,20.54,0,0,0-.58-5.68,2.36,2.36,0,0,0-2.44-1.85A2.4,2.4,0,0,0,273,65.74a19.78,19.78,0,0,0-.6,5.68A20,20,0,0,0,273,77Z"/><polyline class="cls-2" points="287.4 107.52 293.95 99.34 287.4 91.15"/><path class="cls-7" d="M206.35,31.55v2.73a10.16,10.16,0,0,1-.48,3.1,1.93,1.93,0,0,0,1.54,2.49l.83.13a.53.53,0,0,1,.44.6L207.52,48a.54.54,0,0,1-.59.44l-.67-.11a1.93,1.93,0,0,0-2.15,1.37c-2.12,7.34-7.89,13.08-13.24,13.35-5.57-.27-11.35-6-13.45-13.43a1.92,1.92,0,0,0-1.85-1.4l-.3,0-1.17.18a.54.54,0,0,1-.6-.44l-1.15-7.43a.53.53,0,0,1,.43-.6l.84-.13a1.93,1.93,0,0,0,1.54-2.49,10.14,10.14,0,0,1-.48-3.1V31.55c0-.25,0-.49,0-.73h-3.85c0,.24,0,.48,0,.73v2.73a14.08,14.08,0,0,0,.19,2.28,4.38,4.38,0,0,0-2.47,4.63l1.15,7.43a4.36,4.36,0,0,0,4.54,3.7c2.92,8.23,9.64,14.28,16.64,14.61,6.81-.33,13.54-6.38,16.46-14.61a4.38,4.38,0,0,0,4-3.69l1.15-7.42A4.38,4.38,0,0,0,210,36.56a14,14,0,0,0,.19-2.28V31.55c0-.25,0-.49,0-.73h-3.88C206.31,31.06,206.35,31.3,206.35,31.55Z"/><path class="cls-7" d="M227.76,75.75c-6-1.21-17.1-3.91-20.58-6.32a1.9,1.9,0,0,0-.82-.32l-.27,0a1.92,1.92,0,0,0-2.16,1.5l-6,27.48-2.71-14.38,3.79-9.76a1.92,1.92,0,0,0-1.8-2.62H184.39a1.93,1.93,0,0,0-1.8,2.62l3.78,9.75-2.8,14.43-5.86-27.52a1.91,1.91,0,0,0-2.17-1.5l-.26,0a1.89,1.89,0,0,0-.81.32c-3.48,2.41-14.57,5.11-20.58,6.32a15.71,15.71,0,0,0-6.2,2.7,3,3,0,0,1,.93,2c0,.74.06,1.48.09,2.23a10.88,10.88,0,0,1,5.95-3.2c3.47-.7,14.05-3,19.82-5.71l7.32,34.33a1.93,1.93,0,0,0,1.88,1.52h0a1.93,1.93,0,0,0,1.87-1.56l4.7-24.26a1.94,1.94,0,0,0-.09-1.06l-3-7.65h7.24l-3,7.65a1.94,1.94,0,0,0-.1,1.05L196,108.11a1.93,1.93,0,0,0,1.87,1.57h0a1.92,1.92,0,0,0,1.88-1.52l7.44-34.34c5.76,2.73,16.36,5,19.82,5.71,2.63.53,7.07,2.44,7.07,6.22v1.87l-2.18,19.85a1.93,1.93,0,1,0,3.83.42l2.19-20.06V85.75C237.92,80.27,232.82,76.78,227.76,75.75Z"/><path class="cls-7" d="M219.42,98.47H206.27a1.92,1.92,0,1,0,0,3.85h13.15a1.92,1.92,0,1,0,0-3.85Z"/><path class="cls-7" d="M208.46,32.55a1.72,1.72,0,0,1-.94-.28,21.34,21.34,0,0,1-8.61-10.83c-13.41,11-25.86,11.1-26.41,11.1a1.73,1.73,0,0,1,0-3.46h0c.13,0,13.07-.2,26.22-12a1.73,1.73,0,0,1,2.88,1.05,17.46,17.46,0,0,0,7.81,11.25,1.73,1.73,0,0,1-.94,3.19Z"/><path class="cls-7" d="M191.42,0C174,.1,159.86,16.29,159.86,36.19v9.47c0,11.94-3,17.55-10,18.75a1.92,1.92,0,0,0-1.4,1.14,2.7,2.7,0,0,0,.17,2.36l.57,1.33h0c.41,1,1,2.27,1.72,3.92l1.91,4.29,0,0-.07.09a.33.33,0,0,0,.26.55.33.33,0,0,0,.21-.07,24.52,24.52,0,0,0,2-1.7l.23-.26c.2-.22.39-.44.58-.67a.33.33,0,0,0,0-.34c-1.07-2.4-2.31-5.19-3.14-7.1a13.6,13.6,0,0,0,8.13-7.2c1.79-3.62,2.65-8.57,2.65-15.12V36.19c0-17.57,12.45-31.87,27.78-32Z"/><path class="cls-7" d="M191.42,0C208.83.1,223,16.29,223,36.19v9.47c0,11.94,3,17.55,10,18.75a1.92,1.92,0,0,1,1.4,1.14,2.7,2.7,0,0,1-.17,2.36l-.57,1.33h0c-.41,1-1,2.27-1.72,3.92L230,77.44l0,0,.07.09a.33.33,0,0,1-.26.55.33.33,0,0,1-.21-.07,24.52,24.52,0,0,1-2-1.7l-.23-.26c-.2-.22-.6,0-.78-.22a.33.33,0,0,1,0-.34c1.07-2.4,2.51-5.64,3.34-7.54a13.6,13.6,0,0,1-8.13-7.2c-1.79-3.62-2.65-8.57-2.65-15.12V36.19c0-17.57-12.45-31.87-27.78-32Z"/><path class="cls-7" d="M117.62,27.67v2.77a10.28,10.28,0,0,1-.49,3.14,1.95,1.95,0,0,0,1.56,2.52l.84.13a.54.54,0,0,1,.44.61l-1.17,7.52a.55.55,0,0,1-.6.45l-.68-.11a2,2,0,0,0-2.18,1.39c-2.14,7.43-8,13.24-13.41,13.52C96.31,59.32,90.45,53.48,88.32,46a2,2,0,0,0-1.87-1.41l-.3,0L85,44.8a.55.55,0,0,1-.61-.44l-1.17-7.52a.54.54,0,0,1,.44-.61l.85-.13A1.95,1.95,0,0,0,86,33.58a10.27,10.27,0,0,1-.49-3.14V27.67c0-.25,0-.49,0-.74h-3.9c0,.25,0,.49,0,.74v2.77a14.25,14.25,0,0,0,.19,2.31,4.44,4.44,0,0,0-2.5,4.69L80.5,45a4.41,4.41,0,0,0,4.6,3.74c3,8.34,9.76,14.46,16.85,14.79,6.9-.33,13.7-6.46,16.66-14.8A4.44,4.44,0,0,0,122.66,45l1.17-7.52a4.44,4.44,0,0,0-2.5-4.69,14.21,14.21,0,0,0,.19-2.31V27.67c0-.25,0-.49,0-.74h-3.93C117.58,27.18,117.62,27.42,117.62,27.67Z"/><path class="cls-7" d="M139.3,72.43c-6.08-1.23-17.31-4-20.84-6.4a1.93,1.93,0,0,0-.83-.33l-.27,0a1.94,1.94,0,0,0-2.19,1.52l-6,27.83-2.74-14.56,3.83-9.88a1.95,1.95,0,0,0-1.82-2.65h-13a1.95,1.95,0,0,0-1.82,2.65l3.83,9.87L94.58,95,88.64,67.18a1.93,1.93,0,0,0-2.19-1.52l-.27,0a1.92,1.92,0,0,0-.82.33c-3.52,2.44-14.76,5.17-20.84,6.4-5.12,1-10.28,4.57-10.28,10.12v2.32L56.46,105a1.95,1.95,0,0,0,3.88-.43l-2.2-19.88V82.55c0-3.83,4.5-5.76,7.16-6.3,3.51-.71,14.23-3,20.07-5.78l7.41,34.76a2,2,0,0,0,1.91,1.54h0a2,2,0,0,0,1.9-1.58l4.76-24.56a2,2,0,0,0-.1-1.08l-3-7.75h7.33l-3,7.75a2,2,0,0,0-.1,1.07l4.63,24.56a2,2,0,0,0,1.89,1.59h0a2,2,0,0,0,1.9-1.54l7.53-34.76c5.84,2.76,16.56,5.07,20.07,5.78,2.66.54,7.16,2.47,7.16,6.3v1.9l-2.21,20.1a1.95,1.95,0,0,0,3.88.43l2.22-20.31V82.55C149.58,77,144.42,73.47,139.3,72.43Z"/><path class="cls-7" d="M130.85,95.43H117.54a1.95,1.95,0,1,0,0,3.9h13.31a1.95,1.95,0,1,0,0-3.9Z"/><path class="cls-8" d="M116,15.18a18.83,18.83,0,0,0-13.34-5.55h-2.08a18.84,18.84,0,0,0-13.34,5.55,17.81,17.81,0,0,0-5.53,13A15.8,15.8,0,0,1,82,31h2.49l1-2.4c0-4.17,1.2-8.26,4-11s6.87-5.11,11-5.11h2.08c4.17,0,7.85,2.17,10.6,4.92s4.37,5.64,4.37,9.81v4h3.9V28.52A18.83,18.83,0,0,0,116,15.18Z"/><path class="cls-7" d="M83.59,30.66a1.59,1.59,0,0,1-.32-3.14,16.7,16.7,0,0,0,11.36-8.43,1.59,1.59,0,0,1,2.54-.35,16.61,16.61,0,0,0,12,5.1,16.74,16.74,0,0,0,8.24-2.17A1.59,1.59,0,0,1,119,24.44,19.93,19.93,0,0,1,109.21,27a19.73,19.73,0,0,1-12.83-4.68,19.85,19.85,0,0,1-12.46,8.3A1.62,1.62,0,0,1,83.59,30.66Z"/></g></g></svg>