<svg xmlns="http://www.w3.org/2000/svg" xmlns:xlink="http://www.w3.org/1999/xlink" viewBox="0 0 80.1 73.5"><defs><style>.cls-1{fill:#2045a4;stroke:#2045a4;stroke-miterlimit:10;stroke-width:0.5px;}.cls-2{fill:#eb2027;}.cls-3{fill:url(#linear-gradient);}</style><linearGradient id="linear-gradient" x1="51.86" y1="30.58" x2="33.73" y2="30.58" gradientUnits="userSpaceOnUse"><stop offset="0.35" stop-color="#f07d24"/><stop offset="0.9" stop-color="#eb2027"/></linearGradient></defs><title>ic-online-service</title><g id="Layer_2" data-name="Layer 2"><g id="Layer_1-2" data-name="Layer 1"><path class="cls-1" d="M79.85,5.25v51.4a5,5,0,0,1-5,5H48.35l.8,4.8a4.21,4.21,0,0,0,4.2,3.5h1.7v3.3H25.15V70h1.7a4.29,4.29,0,0,0,4.2-3.5l.8-4.8H5.25a5,5,0,0,1-5-5v-6.6h72.9v3.3H3.55v3.3a1.69,1.69,0,0,0,1.7,1.7h69.6a1.69,1.69,0,0,0,1.7-1.7V5.25a1.69,1.69,0,0,0-1.7-1.7H5.25a1.69,1.69,0,0,0-1.7,1.7v41.4H.25V5.25a5,5,0,0,1,5-5h69.6A5,5,0,0,1,79.85,5.25Zm-34.8,56.3h-10v.3l-.8,5a7.89,7.89,0,0,1-1.2,3h14a7.89,7.89,0,0,1-1.2-3Z"/><path class="cls-2" d="M39.47,26.66a42.44,42.44,0,0,0-2.52,3.66,26.19,26.19,0,0,0-.88-3.22,20.08,20.08,0,0,0-2.28-4.38l-4.74,1.76a11.62,11.62,0,0,1,.72.92,23,23,0,0,1,1.67,2.85,23.35,23.35,0,0,1,2.29,8.48h0s0,0,0,0l.36-.41.17-.18A55.79,55.79,0,0,1,39.1,31.5a46.56,46.56,0,0,1,3.69-2.85,25.51,25.51,0,0,1,9.07-4.22h0L54,14.6A42.61,42.61,0,0,0,39.47,26.66Zm-2.19,4.17A18.79,18.79,0,0,1,46.47,25,18.79,18.79,0,0,0,37.28,30.83Z"/><path id="_Path_" data-name="&lt;Path&gt;" class="cls-3" d="M51.86,24.42a25.51,25.51,0,0,0-9.07,4.22A46.56,46.56,0,0,0,39.1,31.5a55.79,55.79,0,0,0-4.84,4.66l-.17.18-.36.41s0,0,0,0A18.89,18.89,0,0,1,51.16,24.41h.69"/></g></g></svg>