<svg xmlns="http://www.w3.org/2000/svg" xmlns:xlink="http://www.w3.org/1999/xlink" viewBox="0 0 242.88 193.05"><defs><style>.cls-1{fill:url(#linear-gradient);}.cls-2{fill:url(#linear-gradient-2);}.cls-3{fill:#164397;stroke:#164397;stroke-miterlimit:10;stroke-width:2.5px;}.cls-4{fill:url(#linear-gradient-3);}.cls-5{clip-path:url(#clip-path);}.cls-6{fill:url(#linear-gradient-5);}.cls-7{fill:url(#linear-gradient-6);}.cls-8{fill:url(#linear-gradient-7);}.cls-9{fill:url(#linear-gradient-8);}.cls-10{fill:url(#linear-gradient-9);}.cls-11{fill:url(#linear-gradient-10);}.cls-12{fill:url(#linear-gradient-11);}.cls-13{fill:url(#linear-gradient-12);}.cls-14{fill:url(#linear-gradient-13);}.cls-15{fill:url(#linear-gradient-14);}.cls-16{fill:url(#linear-gradient-15);}.cls-17{fill:url(#linear-gradient-16);}.cls-18{fill:url(#linear-gradient-17);}.cls-19{fill:url(#linear-gradient-18);}.cls-20{fill:url(#linear-gradient-19);}.cls-21{fill:url(#linear-gradient-20);}.cls-22{fill:url(#linear-gradient-21);}.cls-23{fill:url(#linear-gradient-22);}.cls-24{fill:url(#linear-gradient-23);}.cls-25{fill:url(#linear-gradient-24);}.cls-26{fill:url(#linear-gradient-25);}.cls-27{fill:url(#linear-gradient-26);}.cls-28{fill:url(#linear-gradient-27);}.cls-29{fill:url(#linear-gradient-28);}.cls-30{fill:url(#linear-gradient-29);}.cls-31{fill:url(#linear-gradient-30);}.cls-32{fill:url(#linear-gradient-31);}.cls-33{fill:url(#linear-gradient-32);}.cls-34{fill:url(#linear-gradient-33);}.cls-35{fill:url(#linear-gradient-34);}.cls-36{fill:url(#linear-gradient-35);}.cls-37{fill:url(#linear-gradient-36);}.cls-38{fill:url(#linear-gradient-37);}.cls-39{fill:url(#linear-gradient-38);}.cls-40{fill:url(#linear-gradient-39);}.cls-41{fill:url(#linear-gradient-40);}.cls-42{fill:url(#linear-gradient-41);}.cls-43{fill:url(#linear-gradient-42);}.cls-44{fill:url(#linear-gradient-43);}.cls-45{fill:url(#linear-gradient-44);}.cls-46{fill:url(#linear-gradient-45);}.cls-47{fill:url(#linear-gradient-46);}.cls-48{fill:url(#linear-gradient-47);}.cls-49{fill:url(#linear-gradient-48);}.cls-50{fill:url(#linear-gradient-49);}.cls-51{fill:url(#linear-gradient-50);}.cls-52{fill:url(#linear-gradient-51);}.cls-53{fill:url(#linear-gradient-52);}.cls-54{fill:url(#linear-gradient-53);}.cls-55{fill:url(#linear-gradient-54);}.cls-56{fill:url(#linear-gradient-55);}.cls-57{fill:url(#linear-gradient-56);}.cls-58{fill:url(#linear-gradient-57);}.cls-59{fill:url(#linear-gradient-58);}.cls-60{fill:url(#linear-gradient-59);}.cls-61{clip-path:url(#clip-path-2);}.cls-62{fill:url(#linear-gradient-61);}.cls-63{fill:url(#linear-gradient-62);}.cls-64{fill:url(#linear-gradient-63);}.cls-65{fill:url(#linear-gradient-64);}.cls-66{fill:url(#linear-gradient-65);}.cls-67{fill:url(#linear-gradient-66);}.cls-68{fill:url(#linear-gradient-67);}.cls-69{fill:url(#linear-gradient-68);}.cls-70{fill:url(#linear-gradient-69);}.cls-71{fill:url(#linear-gradient-70);}.cls-72{fill:url(#linear-gradient-71);}.cls-73{fill:url(#linear-gradient-72);}.cls-74{fill:url(#linear-gradient-73);}.cls-75{fill:url(#linear-gradient-74);}.cls-76{fill:url(#linear-gradient-75);}.cls-77{fill:url(#linear-gradient-76);}.cls-78{fill:url(#linear-gradient-77);}.cls-79{fill:url(#linear-gradient-78);}.cls-80{fill:url(#linear-gradient-79);}.cls-81{fill:url(#linear-gradient-80);}.cls-82{fill:url(#linear-gradient-81);}.cls-83{fill:url(#linear-gradient-82);}.cls-84{fill:url(#linear-gradient-83);}.cls-85{fill:url(#linear-gradient-84);}.cls-86{fill:url(#linear-gradient-85);}.cls-87{fill:url(#linear-gradient-86);}.cls-88{fill:url(#linear-gradient-87);}.cls-89{fill:url(#linear-gradient-88);}.cls-90{fill:url(#linear-gradient-89);}.cls-91{fill:url(#linear-gradient-90);}.cls-92{fill:url(#linear-gradient-91);}.cls-93{fill:url(#linear-gradient-92);}.cls-94{fill:url(#linear-gradient-93);}.cls-95{fill:url(#linear-gradient-94);}.cls-96{fill:url(#linear-gradient-95);}.cls-97{fill:url(#linear-gradient-96);}.cls-98{fill:url(#linear-gradient-97);}.cls-99{fill:url(#linear-gradient-98);}.cls-100{fill:url(#linear-gradient-99);}.cls-101{fill:url(#linear-gradient-100);}.cls-102{fill:url(#linear-gradient-101);}.cls-103{fill:url(#linear-gradient-102);}.cls-104{fill:url(#linear-gradient-103);}.cls-105{fill:url(#linear-gradient-104);}.cls-106{fill:url(#linear-gradient-105);}.cls-107{fill:url(#linear-gradient-106);}.cls-108{fill:url(#linear-gradient-107);}.cls-109{fill:url(#linear-gradient-108);}.cls-110{fill:url(#linear-gradient-109);}.cls-111{fill:url(#linear-gradient-110);}.cls-112{fill:url(#linear-gradient-111);}.cls-113{fill:url(#linear-gradient-112);}.cls-114{fill:url(#linear-gradient-113);}.cls-115{fill:url(#linear-gradient-114);}.cls-116{fill:url(#linear-gradient-115);}.cls-117{fill:url(#linear-gradient-116);}.cls-118{fill:url(#linear-gradient-117);}.cls-119{fill:url(#linear-gradient-118);}.cls-120{fill:url(#linear-gradient-119);}.cls-121{fill:url(#linear-gradient-120);}</style><linearGradient id="linear-gradient" x1="192.85" y1="124.91" x2="156.85" y2="124.91" gradientUnits="userSpaceOnUse"><stop offset="0" stop-color="#ff8900"/><stop offset="0.05" stop-color="#ff7f00"/><stop offset="0.37" stop-color="#ff4900"/><stop offset="0.65" stop-color="#ff2100"/><stop offset="0.87" stop-color="#ff0900"/><stop offset="1" stop-color="red"/></linearGradient><linearGradient id="linear-gradient-2" x1="65.95" y1="72.26" x2="117.05" y2="72.26" xlink:href="#linear-gradient"/><linearGradient id="linear-gradient-3" x1="47.51" y1="63.46" x2="208.27" y2="143.59" gradientTransform="translate(2.85 -3.56) rotate(1.59)" xlink:href="#linear-gradient"/><clipPath id="clip-path"><path class="cls-1" d="M159.29,159.47a2.5,2.5,0,0,1-1.17-4.68,58.12,58.12,0,0,0,29.71-49.33,58.9,58.9,0,0,0-.92-12.17,2.51,2.51,0,0,1,2-2.91,2.61,2.61,0,0,1,.45,0,2.5,2.5,0,0,1,2.46,2.05,64,64,0,0,1,1,13.21,63.08,63.08,0,0,1-32.24,53.54,2.51,2.51,0,0,1-1.23.33Z"/></clipPath><linearGradient id="linear-gradient-5" x1="157.05" y1="90.86" x2="156.5" y2="90.86" xlink:href="#linear-gradient"/><linearGradient id="linear-gradient-6" x1="158.45" y1="92.17" x2="156.5" y2="92.17" xlink:href="#linear-gradient"/><linearGradient id="linear-gradient-7" x1="159.84" y1="93.48" x2="156.5" y2="93.48" xlink:href="#linear-gradient"/><linearGradient id="linear-gradient-8" x1="161.24" y1="94.78" x2="156.5" y2="94.78" xlink:href="#linear-gradient"/><linearGradient id="linear-gradient-9" x1="162.63" y1="96.09" x2="156.5" y2="96.09" xlink:href="#linear-gradient"/><linearGradient id="linear-gradient-10" x1="164.03" y1="97.4" x2="156.5" y2="97.4" xlink:href="#linear-gradient"/><linearGradient id="linear-gradient-11" x1="165.42" y1="98.71" x2="156.5" y2="98.71" xlink:href="#linear-gradient"/><linearGradient id="linear-gradient-12" x1="166.82" y1="100.01" x2="156.5" y2="100.01" xlink:href="#linear-gradient"/><linearGradient id="linear-gradient-13" x1="168.22" y1="101.32" x2="156.5" y2="101.32" xlink:href="#linear-gradient"/><linearGradient id="linear-gradient-14" x1="169.61" y1="102.63" x2="156.5" y2="102.63" xlink:href="#linear-gradient"/><linearGradient id="linear-gradient-15" x1="171.01" y1="103.94" x2="156.5" y2="103.94" xlink:href="#linear-gradient"/><linearGradient id="linear-gradient-16" x1="172.4" y1="105.24" x2="156.5" y2="105.24" xlink:href="#linear-gradient"/><linearGradient id="linear-gradient-17" x1="173.8" y1="106.55" x2="156.5" y2="106.55" xlink:href="#linear-gradient"/><linearGradient id="linear-gradient-18" x1="175.19" y1="107.86" x2="156.5" y2="107.86" xlink:href="#linear-gradient"/><linearGradient id="linear-gradient-19" x1="176.59" y1="109.17" x2="156.5" y2="109.17" xlink:href="#linear-gradient"/><linearGradient id="linear-gradient-20" x1="177.99" y1="110.47" x2="156.5" y2="110.47" xlink:href="#linear-gradient"/><linearGradient id="linear-gradient-21" x1="179.38" y1="111.78" x2="156.5" y2="111.78" xlink:href="#linear-gradient"/><linearGradient id="linear-gradient-22" x1="180.78" y1="113.09" x2="156.5" y2="113.09" xlink:href="#linear-gradient"/><linearGradient id="linear-gradient-23" x1="182.17" y1="114.4" x2="156.5" y2="114.4" xlink:href="#linear-gradient"/><linearGradient id="linear-gradient-24" x1="183.57" y1="115.71" x2="156.5" y2="115.71" xlink:href="#linear-gradient"/><linearGradient id="linear-gradient-25" x1="184.96" y1="117.01" x2="156.5" y2="117.01" xlink:href="#linear-gradient"/><linearGradient id="linear-gradient-26" x1="186.36" y1="118.32" x2="156.5" y2="118.32" xlink:href="#linear-gradient"/><linearGradient id="linear-gradient-27" x1="187.76" y1="119.63" x2="156.5" y2="119.63" xlink:href="#linear-gradient"/><linearGradient id="linear-gradient-28" x1="189.15" y1="120.94" x2="156.5" y2="120.94" xlink:href="#linear-gradient"/><linearGradient id="linear-gradient-29" x1="190.55" y1="122.24" x2="156.5" y2="122.24" xlink:href="#linear-gradient"/><linearGradient id="linear-gradient-30" x1="191.94" y1="123.55" x2="156.5" y2="123.55" xlink:href="#linear-gradient"/><linearGradient id="linear-gradient-31" x1="192.95" y1="124.86" x2="156.5" y2="124.86" xlink:href="#linear-gradient"/><linearGradient id="linear-gradient-32" x1="192.95" y1="125.27" x2="156.5" y2="125.27" xlink:href="#linear-gradient"/><linearGradient id="linear-gradient-33" x1="192.95" y1="126.58" x2="157.84" y2="126.58" xlink:href="#linear-gradient"/><linearGradient id="linear-gradient-34" x1="192.95" y1="127.89" x2="159.24" y2="127.89" xlink:href="#linear-gradient"/><linearGradient id="linear-gradient-35" x1="192.95" y1="129.19" x2="160.63" y2="129.19" xlink:href="#linear-gradient"/><linearGradient id="linear-gradient-36" x1="192.95" y1="130.5" x2="162.03" y2="130.5" xlink:href="#linear-gradient"/><linearGradient id="linear-gradient-37" x1="192.95" y1="131.81" x2="163.42" y2="131.81" xlink:href="#linear-gradient"/><linearGradient id="linear-gradient-38" x1="192.95" y1="133.12" x2="164.82" y2="133.12" xlink:href="#linear-gradient"/><linearGradient id="linear-gradient-39" x1="192.95" y1="134.42" x2="166.22" y2="134.42" xlink:href="#linear-gradient"/><linearGradient id="linear-gradient-40" x1="192.95" y1="135.73" x2="167.61" y2="135.73" xlink:href="#linear-gradient"/><linearGradient id="linear-gradient-41" x1="192.95" y1="137.04" x2="169.01" y2="137.04" xlink:href="#linear-gradient"/><linearGradient id="linear-gradient-42" x1="192.95" y1="138.35" x2="170.4" y2="138.35" xlink:href="#linear-gradient"/><linearGradient id="linear-gradient-43" x1="192.95" y1="139.66" x2="171.8" y2="139.66" xlink:href="#linear-gradient"/><linearGradient id="linear-gradient-44" x1="192.95" y1="140.96" x2="173.19" y2="140.96" xlink:href="#linear-gradient"/><linearGradient id="linear-gradient-45" x1="192.95" y1="142.27" x2="174.59" y2="142.27" xlink:href="#linear-gradient"/><linearGradient id="linear-gradient-46" x1="192.95" y1="143.58" x2="175.99" y2="143.58" xlink:href="#linear-gradient"/><linearGradient id="linear-gradient-47" x1="192.95" y1="144.89" x2="177.38" y2="144.89" xlink:href="#linear-gradient"/><linearGradient id="linear-gradient-48" x1="192.95" y1="146.19" x2="178.78" y2="146.19" xlink:href="#linear-gradient"/><linearGradient id="linear-gradient-49" x1="192.95" y1="147.5" x2="180.17" y2="147.5" xlink:href="#linear-gradient"/><linearGradient id="linear-gradient-50" x1="192.95" y1="148.81" x2="181.57" y2="148.81" xlink:href="#linear-gradient"/><linearGradient id="linear-gradient-51" x1="192.95" y1="150.12" x2="182.96" y2="150.12" xlink:href="#linear-gradient"/><linearGradient id="linear-gradient-52" x1="192.95" y1="151.42" x2="184.36" y2="151.42" xlink:href="#linear-gradient"/><linearGradient id="linear-gradient-53" x1="192.95" y1="152.73" x2="185.76" y2="152.73" xlink:href="#linear-gradient"/><linearGradient id="linear-gradient-54" x1="192.95" y1="154.04" x2="187.15" y2="154.04" xlink:href="#linear-gradient"/><linearGradient id="linear-gradient-55" x1="192.95" y1="155.35" x2="188.55" y2="155.35" xlink:href="#linear-gradient"/><linearGradient id="linear-gradient-56" x1="192.95" y1="156.65" x2="189.94" y2="156.65" xlink:href="#linear-gradient"/><linearGradient id="linear-gradient-57" x1="192.95" y1="157.96" x2="191.34" y2="157.96" xlink:href="#linear-gradient"/><linearGradient id="linear-gradient-58" x1="192.95" y1="159.27" x2="192.74" y2="159.27" xlink:href="#linear-gradient"/><linearGradient id="linear-gradient-59" x1="193.6" y1="124.91" x2="156.1" y2="124.91" xlink:href="#linear-gradient"/><clipPath id="clip-path-2"><path class="cls-2" d="M68.28,102.39A2.5,2.5,0,0,1,66,99.74a63.25,63.25,0,0,1,48-57.54A2.5,2.5,0,1,1,115.16,47a58.27,58.27,0,0,0-44.21,53,2.5,2.5,0,0,1-2.49,2.34Z"/></clipPath><linearGradient id="linear-gradient-61" x1="65.87" y1="42.9" x2="66.69" y2="42.9" xlink:href="#linear-gradient"/><linearGradient id="linear-gradient-62" x1="65.87" y1="44.24" x2="68.13" y2="44.24" xlink:href="#linear-gradient"/><linearGradient id="linear-gradient-63" x1="65.87" y1="45.59" x2="69.56" y2="45.59" xlink:href="#linear-gradient"/><linearGradient id="linear-gradient-64" x1="65.87" y1="46.93" x2="71" y2="46.93" xlink:href="#linear-gradient"/><linearGradient id="linear-gradient-65" x1="65.87" y1="48.27" x2="72.43" y2="48.27" xlink:href="#linear-gradient"/><linearGradient id="linear-gradient-66" x1="65.87" y1="49.62" x2="73.87" y2="49.62" xlink:href="#linear-gradient"/><linearGradient id="linear-gradient-67" x1="65.87" y1="50.96" x2="75.3" y2="50.96" xlink:href="#linear-gradient"/><linearGradient id="linear-gradient-68" x1="65.87" y1="52.3" x2="76.73" y2="52.3" xlink:href="#linear-gradient"/><linearGradient id="linear-gradient-69" x1="65.87" y1="53.65" x2="78.17" y2="53.65" xlink:href="#linear-gradient"/><linearGradient id="linear-gradient-70" x1="65.87" y1="54.99" x2="79.6" y2="54.99" xlink:href="#linear-gradient"/><linearGradient id="linear-gradient-71" x1="65.87" y1="56.34" x2="81.04" y2="56.34" xlink:href="#linear-gradient"/><linearGradient id="linear-gradient-72" x1="65.87" y1="57.68" x2="82.47" y2="57.68" xlink:href="#linear-gradient"/><linearGradient id="linear-gradient-73" x1="65.87" y1="59.02" x2="83.91" y2="59.02" xlink:href="#linear-gradient"/><linearGradient id="linear-gradient-74" x1="65.87" y1="60.37" x2="85.34" y2="60.37" xlink:href="#linear-gradient"/><linearGradient id="linear-gradient-75" x1="65.87" y1="61.71" x2="86.78" y2="61.71" xlink:href="#linear-gradient"/><linearGradient id="linear-gradient-76" x1="65.87" y1="63.05" x2="88.21" y2="63.05" xlink:href="#linear-gradient"/><linearGradient id="linear-gradient-77" x1="65.87" y1="64.4" x2="89.64" y2="64.4" xlink:href="#linear-gradient"/><linearGradient id="linear-gradient-78" x1="65.87" y1="65.74" x2="91.08" y2="65.74" xlink:href="#linear-gradient"/><linearGradient id="linear-gradient-79" x1="65.87" y1="67.09" x2="92.51" y2="67.09" xlink:href="#linear-gradient"/><linearGradient id="linear-gradient-80" x1="65.87" y1="68.43" x2="93.95" y2="68.43" xlink:href="#linear-gradient"/><linearGradient id="linear-gradient-81" x1="65.87" y1="69.77" x2="95.38" y2="69.77" xlink:href="#linear-gradient"/><linearGradient id="linear-gradient-82" x1="65.87" y1="71.12" x2="96.82" y2="71.12" xlink:href="#linear-gradient"/><linearGradient id="linear-gradient-83" x1="65.87" y1="72.26" x2="98.25" y2="72.26" xlink:href="#linear-gradient"/><linearGradient id="linear-gradient-84" x1="66.08" y1="72.26" x2="99.69" y2="72.26" xlink:href="#linear-gradient"/><linearGradient id="linear-gradient-85" x1="67.52" y1="72.26" x2="101.12" y2="72.26" xlink:href="#linear-gradient"/><linearGradient id="linear-gradient-86" x1="68.95" y1="72.26" x2="102.55" y2="72.26" xlink:href="#linear-gradient"/><linearGradient id="linear-gradient-87" x1="70.38" y1="72.26" x2="103.99" y2="72.26" xlink:href="#linear-gradient"/><linearGradient id="linear-gradient-88" x1="71.82" y1="72.26" x2="105.42" y2="72.26" xlink:href="#linear-gradient"/><linearGradient id="linear-gradient-89" x1="73.25" y1="72.26" x2="106.86" y2="72.26" xlink:href="#linear-gradient"/><linearGradient id="linear-gradient-90" x1="74.69" y1="72.26" x2="108.29" y2="72.26" xlink:href="#linear-gradient"/><linearGradient id="linear-gradient-91" x1="76.12" y1="72.26" x2="109.73" y2="72.26" xlink:href="#linear-gradient"/><linearGradient id="linear-gradient-92" x1="77.56" y1="72.26" x2="111.16" y2="72.26" xlink:href="#linear-gradient"/><linearGradient id="linear-gradient-93" x1="78.99" y1="72.26" x2="112.59" y2="72.26" xlink:href="#linear-gradient"/><linearGradient id="linear-gradient-94" x1="80.43" y1="72.26" x2="114.03" y2="72.26" xlink:href="#linear-gradient"/><linearGradient id="linear-gradient-95" x1="81.86" y1="72.26" x2="115.46" y2="72.26" xlink:href="#linear-gradient"/><linearGradient id="linear-gradient-96" x1="83.29" y1="72.26" x2="116.9" y2="72.26" xlink:href="#linear-gradient"/><linearGradient id="linear-gradient-97" x1="84.73" y1="72.26" x2="117.14" y2="72.26" xlink:href="#linear-gradient"/><linearGradient id="linear-gradient-98" x1="86.16" y1="73.38" x2="117.14" y2="73.38" xlink:href="#linear-gradient"/><linearGradient id="linear-gradient-99" x1="87.6" y1="74.72" x2="117.14" y2="74.72" xlink:href="#linear-gradient"/><linearGradient id="linear-gradient-100" x1="89.03" y1="76.06" x2="117.14" y2="76.06" xlink:href="#linear-gradient"/><linearGradient id="linear-gradient-101" x1="90.47" y1="77.41" x2="117.14" y2="77.41" xlink:href="#linear-gradient"/><linearGradient id="linear-gradient-102" x1="91.9" y1="78.75" x2="117.14" y2="78.75" xlink:href="#linear-gradient"/><linearGradient id="linear-gradient-103" x1="93.34" y1="80.09" x2="117.14" y2="80.09" xlink:href="#linear-gradient"/><linearGradient id="linear-gradient-104" x1="94.77" y1="81.44" x2="117.14" y2="81.44" xlink:href="#linear-gradient"/><linearGradient id="linear-gradient-105" x1="96.2" y1="82.78" x2="117.14" y2="82.78" xlink:href="#linear-gradient"/><linearGradient id="linear-gradient-106" x1="97.64" y1="84.13" x2="117.14" y2="84.13" xlink:href="#linear-gradient"/><linearGradient id="linear-gradient-107" x1="99.07" y1="85.47" x2="117.14" y2="85.47" xlink:href="#linear-gradient"/><linearGradient id="linear-gradient-108" x1="100.51" y1="86.81" x2="117.14" y2="86.81" xlink:href="#linear-gradient"/><linearGradient id="linear-gradient-109" x1="101.94" y1="88.16" x2="117.14" y2="88.16" xlink:href="#linear-gradient"/><linearGradient id="linear-gradient-110" x1="103.38" y1="89.5" x2="117.14" y2="89.5" xlink:href="#linear-gradient"/><linearGradient id="linear-gradient-111" x1="104.81" y1="90.84" x2="117.14" y2="90.84" xlink:href="#linear-gradient"/><linearGradient id="linear-gradient-112" x1="106.25" y1="92.19" x2="117.14" y2="92.19" xlink:href="#linear-gradient"/><linearGradient id="linear-gradient-113" x1="107.68" y1="93.53" x2="117.14" y2="93.53" xlink:href="#linear-gradient"/><linearGradient id="linear-gradient-114" x1="109.11" y1="94.88" x2="117.14" y2="94.88" xlink:href="#linear-gradient"/><linearGradient id="linear-gradient-115" x1="110.55" y1="96.22" x2="117.14" y2="96.22" xlink:href="#linear-gradient"/><linearGradient id="linear-gradient-116" x1="111.98" y1="97.56" x2="117.14" y2="97.56" xlink:href="#linear-gradient"/><linearGradient id="linear-gradient-117" x1="113.42" y1="98.91" x2="117.14" y2="98.91" xlink:href="#linear-gradient"/><linearGradient id="linear-gradient-118" x1="114.85" y1="100.25" x2="117.14" y2="100.25" xlink:href="#linear-gradient"/><linearGradient id="linear-gradient-119" x1="116.29" y1="101.6" x2="117.14" y2="101.6" xlink:href="#linear-gradient"/><linearGradient id="linear-gradient-120" x1="65.2" y1="72.26" x2="117.8" y2="72.26" xlink:href="#linear-gradient"/></defs><title>ic-thu-nhap-on-dinh</title><g id="Layer_2" data-name="Layer 2"><g id="Layer_1-2" data-name="Layer 1"><circle class="cls-3" cx="239.75" cy="32.16" r="1.88"/><path class="cls-3" d="M216.86,87.4a9.07,9.07,0,0,1-8.36-5.56L207.72,80H186.9a40.44,40.44,0,0,1-28.22-11.4L132.46,43.3a11.52,11.52,0,0,1,15.78-16.77l20.58,18.87a1.88,1.88,0,1,1-2.54,2.76L145.7,29.29A7.77,7.77,0,0,0,135.06,40.6l26.22,25.31A36.71,36.71,0,0,0,186.9,76.26h20.89V41.64l-2.91-.08a32.36,32.36,0,0,1-23.93-11.64L168.8,15.31A28.53,28.53,0,0,0,146.8,5H96a8.27,8.27,0,0,0,0,16.54h20.77a1.88,1.88,0,1,1,0,3.75H96a12,12,0,1,1,0-24h50.8a32.28,32.28,0,0,1,24.88,11.67l12.15,14.6a28.56,28.56,0,0,0,21.83,10.31h2l.76-1.88a9,9,0,0,1,8.4-5.67h13.71a1.88,1.88,0,0,1,0,3.75H216.86a5.32,5.32,0,0,0-5.32,5.32v39a5.32,5.32,0,0,0,5.32,5.32h21V41.27a1.88,1.88,0,0,1,3.2-1.33,1.86,1.86,0,0,1,.55,1.32V85.52a1.88,1.88,0,0,1-1.87,1.88Z"/><path class="cls-3" d="M96.07,191.8a32.28,32.28,0,0,1-24.88-11.67L59,165.54a28.55,28.55,0,0,0-21.9-10.31h-2l-.78,1.84A9.06,9.06,0,0,1,26,162.6H13a1.88,1.88,0,1,1,0-3.75H26a5.32,5.32,0,0,0,5.32-5.32v-39A5.32,5.32,0,0,0,26,109.24H5v41.28a1.88,1.88,0,0,1-3.75,0V107.37a1.88,1.88,0,0,1,1.88-1.87H26a9,9,0,0,1,8.41,5.68l.76,1.88H56a40.44,40.44,0,0,1,28.23,11.4l26.22,25.31a11.52,11.52,0,0,1-15.78,16.77L74.06,147.66a1.87,1.87,0,1,1,2.53-2.76l20.58,18.87a7.77,7.77,0,0,0,10.64-11.31L81.6,127.14A36.71,36.71,0,0,0,56,116.8H35.08v34.62l2.91.08a32.35,32.35,0,0,1,23.93,11.64l12.15,14.6a28.53,28.53,0,0,0,22,10.31h50.8a8.27,8.27,0,1,0,0-16.54H128a1.87,1.87,0,1,1,0-3.75h18.87a12,12,0,1,1,0,24Z"/><circle class="cls-3" cx="3.13" cy="160.73" r="1.88"/><path class="cls-4" d="M128.33,139.85a3.68,3.68,0,0,1-3.58-3.78l.15-5.35-.8-.18c-8.55-1.9-14.39-8.16-14.19-15.21a3.66,3.66,0,0,1,3.68-3.58h.1a3.69,3.69,0,0,1,3.58,3.78c-.08,3,2.49,5.81,6.54,7.27l1.3.47.44-15.67-.8-.18c-8.55-1.9-14.39-8.16-14.19-15.21s6.37-13,15-14.4l.81-.13.15-5.35a3.66,3.66,0,0,1,3.68-3.58h.1a3.68,3.68,0,0,1,3.58,3.78l-.15,5.35.8.18c8.55,1.91,14.39,8.16,14.19,15.22a3.66,3.66,0,0,1-3.68,3.58H145a3.69,3.69,0,0,1-3.58-3.78c.08-3-2.49-5.81-6.54-7.28l-1.3-.47L133.1,101l.8.18c8.55,1.9,14.39,8.16,14.19,15.21s-6.37,13-15,14.4l-.81.13-.15,5.35a3.66,3.66,0,0,1-3.68,3.58Zm4.14-16.38,1.32-.4c4.13-1.23,6.85-3.94,6.94-6.9s-2.49-5.82-6.54-7.28l-1.3-.47Zm-7.62-38c-4.13,1.23-6.85,3.94-6.94,6.9s2.49,5.81,6.54,7.27l1.3.47.42-15Z"/><path class="cls-1" d="M159.29,159.47a2.5,2.5,0,0,1-1.17-4.68,58.12,58.12,0,0,0,29.71-49.33,58.9,58.9,0,0,0-.92-12.17,2.51,2.51,0,0,1,2-2.91,2.61,2.61,0,0,1,.45,0,2.5,2.5,0,0,1,2.46,2.05,64,64,0,0,1,1,13.21,63.08,63.08,0,0,1-32.24,53.54,2.51,2.51,0,0,1-1.23.33Z"/><g class="cls-5"><polygon class="cls-6" points="157.05 90.34 156.5 91.38 156.5 90.34 157.05 90.34"/><polygon class="cls-7" points="158.44 90.34 156.5 93.99 156.5 91.38 157.05 90.34 158.44 90.34"/><polygon class="cls-8" points="159.84 90.34 156.5 96.61 156.5 93.99 158.44 90.34 159.84 90.34"/><polygon class="cls-9" points="161.24 90.34 156.5 99.22 156.5 96.61 159.84 90.34 161.24 90.34"/><polygon class="cls-10" points="162.63 90.34 156.5 101.84 156.5 99.22 161.24 90.34 162.63 90.34"/><polygon class="cls-11" points="164.03 90.34 156.5 104.45 156.5 101.84 162.63 90.34 164.03 90.34"/><polygon class="cls-12" points="165.42 90.34 156.5 107.07 156.5 104.45 164.03 90.34 165.42 90.34"/><polygon class="cls-13" points="166.82 90.34 156.5 109.68 156.5 107.07 165.42 90.34 166.82 90.34"/><polygon class="cls-14" points="168.22 90.34 156.5 112.3 156.5 109.68 166.82 90.34 168.22 90.34"/><polygon class="cls-15" points="169.61 90.34 156.5 114.91 156.5 112.3 168.22 90.34 169.61 90.34"/><polygon class="cls-16" points="171.01 90.34 156.5 117.53 156.5 114.91 169.61 90.34 171.01 90.34"/><polygon class="cls-17" points="172.4 90.34 156.5 120.14 156.5 117.53 171.01 90.34 172.4 90.34"/><polygon class="cls-18" points="173.8 90.34 156.5 122.76 156.5 120.14 172.4 90.34 173.8 90.34"/><polygon class="cls-19" points="175.19 90.34 156.5 125.37 156.5 122.76 173.8 90.34 175.19 90.34"/><polygon class="cls-20" points="176.59 90.34 156.5 127.99 156.5 125.37 175.19 90.34 176.59 90.34"/><polygon class="cls-21" points="177.99 90.34 156.5 130.6 156.5 127.99 176.59 90.34 177.99 90.34"/><polygon class="cls-22" points="179.38 90.34 156.5 133.22 156.5 130.6 177.99 90.34 179.38 90.34"/><polygon class="cls-23" points="180.78 90.34 156.5 135.84 156.5 133.22 179.38 90.34 180.78 90.34"/><polygon class="cls-24" points="182.17 90.34 156.5 138.45 156.5 135.84 180.78 90.34 182.17 90.34"/><polygon class="cls-25" points="183.57 90.34 156.5 141.06 156.5 138.45 182.17 90.34 183.57 90.34"/><polygon class="cls-26" points="184.97 90.34 156.5 143.68 156.5 141.06 183.57 90.34 184.97 90.34"/><polygon class="cls-27" points="186.36 90.34 156.5 146.3 156.5 143.68 184.97 90.34 186.36 90.34"/><polygon class="cls-28" points="187.76 90.34 156.5 148.91 156.5 146.3 186.36 90.34 187.76 90.34"/><polygon class="cls-29" points="189.15 90.34 156.5 151.53 156.5 148.91 187.76 90.34 189.15 90.34"/><polygon class="cls-30" points="190.55 90.34 156.5 154.14 156.5 151.53 189.15 90.34 190.55 90.34"/><polygon class="cls-31" points="191.94 90.34 156.5 156.76 156.5 154.14 190.55 90.34 191.94 90.34"/><polygon class="cls-32" points="192.95 91.07 156.5 159.37 156.5 156.76 191.94 90.34 192.95 90.34 192.95 91.07"/><polygon class="cls-33" points="192.95 93.69 157.84 159.47 156.5 159.47 156.5 159.37 192.95 91.07 192.95 93.69"/><polygon class="cls-34" points="192.95 96.3 159.24 159.47 157.84 159.47 192.95 93.69 192.95 96.3"/><polygon class="cls-35" points="192.95 98.92 160.63 159.47 159.24 159.47 192.95 96.3 192.95 98.92"/><polygon class="cls-36" points="192.95 101.53 162.03 159.47 160.63 159.47 192.95 98.92 192.95 101.53"/><polygon class="cls-37" points="192.95 104.15 163.42 159.47 162.03 159.47 192.95 101.53 192.95 104.15"/><polygon class="cls-38" points="192.95 106.76 164.82 159.47 163.42 159.47 192.95 104.15 192.95 106.76"/><polygon class="cls-39" points="192.95 109.38 166.22 159.47 164.82 159.47 192.95 106.76 192.95 109.38"/><polygon class="cls-40" points="192.95 111.99 167.61 159.47 166.22 159.47 192.95 109.38 192.95 111.99"/><polygon class="cls-41" points="192.95 114.61 169.01 159.47 167.61 159.47 192.95 111.99 192.95 114.61"/><polygon class="cls-42" points="192.95 117.22 170.4 159.47 169.01 159.47 192.95 114.61 192.95 117.22"/><polygon class="cls-43" points="192.95 119.84 171.8 159.47 170.4 159.47 192.95 117.22 192.95 119.84"/><polygon class="cls-44" points="192.95 122.45 173.19 159.47 171.8 159.47 192.95 119.84 192.95 122.45"/><polygon class="cls-45" points="192.95 125.07 174.59 159.47 173.19 159.47 192.95 122.45 192.95 125.07"/><polygon class="cls-46" points="192.95 127.69 175.99 159.47 174.59 159.47 192.95 125.07 192.95 127.69"/><polygon class="cls-47" points="192.95 130.3 177.38 159.47 175.99 159.47 192.95 127.69 192.95 130.3"/><polygon class="cls-48" points="192.95 132.91 178.78 159.47 177.38 159.47 192.95 130.3 192.95 132.91"/><polygon class="cls-49" points="192.95 135.53 180.17 159.47 178.78 159.47 192.95 132.91 192.95 135.53"/><polygon class="cls-50" points="192.95 138.15 181.57 159.47 180.17 159.47 192.95 135.53 192.95 138.15"/><polygon class="cls-51" points="192.95 140.76 182.97 159.47 181.57 159.47 192.95 138.15 192.95 140.76"/><polygon class="cls-52" points="192.95 143.38 184.36 159.47 182.97 159.47 192.95 140.76 192.95 143.38"/><polygon class="cls-53" points="192.95 145.99 185.76 159.47 184.36 159.47 192.95 143.38 192.95 145.99"/><polygon class="cls-54" points="192.95 148.61 187.15 159.47 185.76 159.47 192.95 145.99 192.95 148.61"/><polygon class="cls-55" points="192.95 151.22 188.55 159.47 187.15 159.47 192.95 148.61 192.95 151.22"/><polygon class="cls-56" points="192.95 153.84 189.94 159.47 188.55 159.47 192.95 151.22 192.95 153.84"/><polygon class="cls-57" points="192.95 156.45 191.34 159.47 189.94 159.47 192.95 153.84 192.95 156.45"/><polygon class="cls-58" points="192.95 159.07 192.74 159.47 191.34 159.47 192.95 156.45 192.95 159.07"/><polygon class="cls-59" points="192.74 159.47 192.95 159.07 192.95 159.47 192.74 159.47"/></g><path class="cls-60" d="M159.35,160.22h-.09a3.25,3.25,0,0,1-1.51-6.08,57.38,57.38,0,0,0,29.33-48.7,58.07,58.07,0,0,0-.91-12,3.25,3.25,0,0,1,6.4-1.17,64.84,64.84,0,0,1,1,13.36A63.83,63.83,0,0,1,161,159.8,3.25,3.25,0,0,1,159.35,160.22Zm-.05-1.5h.06a1.75,1.75,0,0,0,.85-.23,62.34,62.34,0,0,0,31.86-52.91,63.2,63.2,0,0,0-1-13.05,1.75,1.75,0,1,0-3.44.63,59.69,59.69,0,0,1,.94,12.33,58.86,58.86,0,0,1-30.09,50,1.75,1.75,0,0,0,.81,3.27Z"/><path class="cls-2" d="M68.28,102.39A2.5,2.5,0,0,1,66,99.74a63.25,63.25,0,0,1,48-57.54A2.5,2.5,0,1,1,115.16,47a58.27,58.27,0,0,0-44.21,53,2.5,2.5,0,0,1-2.49,2.34Z"/><g class="cls-61"><polygon class="cls-62" points="66.69 42.12 65.87 43.67 65.87 42.12 66.69 42.12"/><polygon class="cls-63" points="68.13 42.12 65.87 46.36 65.87 43.67 66.69 42.12 68.13 42.12"/><polygon class="cls-64" points="69.56 42.12 65.87 49.05 65.87 46.36 68.13 42.12 69.56 42.12"/><polygon class="cls-65" points="71 42.12 65.87 51.74 65.87 49.05 69.56 42.12 71 42.12"/><polygon class="cls-66" points="72.43 42.12 65.87 54.42 65.87 51.74 71 42.12 72.43 42.12"/><polygon class="cls-67" points="73.87 42.12 65.87 57.11 65.87 54.42 72.43 42.12 73.87 42.12"/><polygon class="cls-68" points="75.3 42.12 65.87 59.8 65.87 57.11 73.87 42.12 75.3 42.12"/><polygon class="cls-69" points="76.73 42.12 65.87 62.49 65.87 59.8 75.3 42.12 76.73 42.12"/><polygon class="cls-70" points="78.17 42.12 65.87 65.17 65.87 62.49 76.73 42.12 78.17 42.12"/><polygon class="cls-71" points="79.6 42.12 65.87 67.86 65.87 65.17 78.17 42.12 79.6 42.12"/><polygon class="cls-72" points="81.04 42.12 65.87 70.55 65.87 67.86 79.6 42.12 81.04 42.12"/><polygon class="cls-73" points="82.47 42.12 65.87 73.24 65.87 70.55 81.04 42.12 82.47 42.12"/><polygon class="cls-74" points="83.91 42.12 65.87 75.92 65.87 73.24 82.47 42.12 83.91 42.12"/><polygon class="cls-75" points="85.34 42.12 65.87 78.61 65.87 75.92 83.91 42.12 85.34 42.12"/><polygon class="cls-76" points="86.78 42.12 65.87 81.3 65.87 78.61 85.34 42.12 86.78 42.12"/><polygon class="cls-77" points="88.21 42.12 65.87 83.99 65.87 81.3 86.78 42.12 88.21 42.12"/><polygon class="cls-78" points="89.64 42.12 65.87 86.67 65.87 83.99 88.21 42.12 89.64 42.12"/><polygon class="cls-79" points="91.08 42.12 65.87 89.36 65.87 86.67 89.64 42.12 91.08 42.12"/><polygon class="cls-80" points="92.51 42.12 65.87 92.05 65.87 89.36 91.08 42.12 92.51 42.12"/><polygon class="cls-81" points="93.95 42.12 65.87 94.74 65.87 92.05 92.51 42.12 93.95 42.12"/><polygon class="cls-82" points="95.38 42.12 65.87 97.42 65.87 94.74 93.95 42.12 95.38 42.12"/><polygon class="cls-83" points="96.82 42.12 65.87 100.11 65.87 97.42 95.38 42.12 96.82 42.12"/><polygon class="cls-84" points="98.25 42.12 66.08 102.4 65.87 102.4 65.87 100.11 96.82 42.12 98.25 42.12"/><polygon class="cls-85" points="99.69 42.12 67.52 102.4 66.08 102.4 98.25 42.12 99.69 42.12"/><polygon class="cls-86" points="101.12 42.12 68.95 102.4 67.52 102.4 99.69 42.12 101.12 42.12"/><polygon class="cls-87" points="102.55 42.12 70.39 102.4 68.95 102.4 101.12 42.12 102.55 42.12"/><polygon class="cls-88" points="103.99 42.12 71.82 102.4 70.39 102.4 102.55 42.12 103.99 42.12"/><polygon class="cls-89" points="105.42 42.12 73.25 102.4 71.82 102.4 103.99 42.12 105.42 42.12"/><polygon class="cls-90" points="106.86 42.12 74.69 102.4 73.25 102.4 105.42 42.12 106.86 42.12"/><polygon class="cls-91" points="108.29 42.12 76.12 102.4 74.69 102.4 106.86 42.12 108.29 42.12"/><polygon class="cls-92" points="109.73 42.12 77.56 102.4 76.12 102.4 108.29 42.12 109.73 42.12"/><polygon class="cls-93" points="111.16 42.12 78.99 102.4 77.56 102.4 109.73 42.12 111.16 42.12"/><polygon class="cls-94" points="112.59 42.12 80.43 102.4 78.99 102.4 111.16 42.12 112.59 42.12"/><polygon class="cls-95" points="114.03 42.12 81.86 102.4 80.43 102.4 112.59 42.12 114.03 42.12"/><polygon class="cls-96" points="115.46 42.12 83.3 102.4 81.86 102.4 114.03 42.12 115.46 42.12"/><polygon class="cls-97" points="116.9 42.12 84.73 102.4 83.3 102.4 115.46 42.12 116.9 42.12"/><polygon class="cls-98" points="117.14 44.36 86.16 102.4 84.73 102.4 116.9 42.12 117.14 42.12 117.14 44.36"/><polygon class="cls-99" points="117.14 47.04 87.6 102.4 86.16 102.4 117.14 44.36 117.14 47.04"/><polygon class="cls-100" points="117.14 49.73 89.03 102.4 87.6 102.4 117.14 47.04 117.14 49.73"/><polygon class="cls-101" points="117.14 52.42 90.47 102.4 89.03 102.4 117.14 49.73 117.14 52.42"/><polygon class="cls-102" points="117.14 55.11 91.9 102.4 90.47 102.4 117.14 52.42 117.14 55.11"/><polygon class="cls-103" points="117.14 57.79 93.33 102.4 91.9 102.4 117.14 55.11 117.14 57.79"/><polygon class="cls-104" points="117.14 60.48 94.77 102.4 93.33 102.4 117.14 57.79 117.14 60.48"/><polygon class="cls-105" points="117.14 63.17 96.2 102.4 94.77 102.4 117.14 60.48 117.14 63.17"/><polygon class="cls-106" points="117.14 65.86 97.64 102.4 96.2 102.4 117.14 63.17 117.14 65.86"/><polygon class="cls-107" points="117.14 68.54 99.07 102.4 97.64 102.4 117.14 65.86 117.14 68.54"/><polygon class="cls-108" points="117.14 71.23 100.51 102.4 99.07 102.4 117.14 68.54 117.14 71.23"/><polygon class="cls-109" points="117.14 73.92 101.94 102.4 100.51 102.4 117.14 71.23 117.14 73.92"/><polygon class="cls-110" points="117.14 76.61 103.38 102.4 101.94 102.4 117.14 73.92 117.14 76.61"/><polygon class="cls-111" points="117.14 79.29 104.81 102.4 103.38 102.4 117.14 76.61 117.14 79.29"/><polygon class="cls-112" points="117.14 81.98 106.25 102.4 104.81 102.4 117.14 79.29 117.14 81.98"/><polygon class="cls-113" points="117.14 84.67 107.68 102.4 106.25 102.4 117.14 81.98 117.14 84.67"/><polygon class="cls-114" points="117.14 87.36 109.11 102.4 107.68 102.4 117.14 84.67 117.14 87.36"/><polygon class="cls-115" points="117.14 90.04 110.55 102.4 109.11 102.4 117.14 87.36 117.14 90.04"/><polygon class="cls-116" points="117.14 92.73 111.98 102.4 110.55 102.4 117.14 90.04 117.14 92.73"/><polygon class="cls-117" points="117.14 95.42 113.42 102.4 111.98 102.4 117.14 92.73 117.14 95.42"/><polygon class="cls-118" points="117.14 98.11 114.85 102.4 113.42 102.4 117.14 95.42 117.14 98.11"/><polygon class="cls-119" points="117.14 100.8 116.29 102.4 114.85 102.4 117.14 98.11 117.14 100.8"/><polygon class="cls-120" points="116.29 102.4 117.14 100.8 117.14 102.4 116.29 102.4"/></g><path class="cls-121" d="M68.45,103.15h-.22a3.25,3.25,0,0,1-3-3.45,64,64,0,0,1,48.56-58.22,3.21,3.21,0,0,1,.79-.1,3.25,3.25,0,0,1,.78,6.4A57.53,57.53,0,0,0,71.69,100.1,3.25,3.25,0,0,1,68.45,103.15Zm-.14-1.5h.16A1.75,1.75,0,0,0,70.2,100,59,59,0,0,1,115,46.32a1.75,1.75,0,0,0,1.27-2.12,1.77,1.77,0,0,0-2.12-1.28A62.51,62.51,0,0,0,66.7,99.78a1.74,1.74,0,0,0,.43,1.27A1.72,1.72,0,0,0,68.31,101.64Z"/></g></g></svg>