<svg xmlns="http://www.w3.org/2000/svg" xmlns:xlink="http://www.w3.org/1999/xlink" viewBox="0 0 409.6 571.53"><defs><style>.cls-1{fill:#28479e;}.cls-2{fill:url(#linear-gradient);}.cls-3{fill:url(#linear-gradient-2);}.cls-4{fill:url(#linear-gradient-3);}.cls-5{fill:url(#linear-gradient-4);}</style><linearGradient id="linear-gradient" x1="176.64" y1="188.78" x2="418.12" y2="200.78" gradientUnits="userSpaceOnUse"><stop offset="0" stop-color="#ff8900"/><stop offset="0.05" stop-color="#ff7f00"/><stop offset="0.37" stop-color="#ff4900"/><stop offset="0.65" stop-color="#ff2100"/><stop offset="0.87" stop-color="#ff0900"/><stop offset="1" stop-color="red"/></linearGradient><linearGradient id="linear-gradient-2" x1="180.64" y1="108.21" x2="422.13" y2="120.21" xlink:href="#linear-gradient"/><linearGradient id="linear-gradient-3" x1="168.98" y1="342.81" x2="410.47" y2="354.81" xlink:href="#linear-gradient"/><linearGradient id="linear-gradient-4" x1="178.48" y1="151.76" x2="419.96" y2="163.76" xlink:href="#linear-gradient"/></defs><title>ic-mission</title><g id="Layer_2" data-name="Layer 2"><g id="hang"><path class="cls-1" d="M72.93,484.43a8,8,0,1,1-8-8,8,8,0,0,1,8,8Zm0,0"/><path class="cls-1" d="M406.93,428.39a31.39,31.39,0,0,0-41.34-16l-.12.05-52.27,24.1a8,8,0,1,0,6.7,14.53L372.11,427a15.35,15.35,0,0,1,12.34,28.11l-107,47.23a62,62,0,0,1-52.78-1.19l-39.16-19.45a78,78,0,0,0-66.36-1.5l-.77.34L89.15,414.23l40.62-17.94a80.85,80.85,0,0,1,60.81-1.94l78.74,28.92A14.19,14.19,0,0,1,259.89,450L199,429.44a8,8,0,1,0-5.13,15.16l60.89,20.6A30.2,30.2,0,0,0,293,446.36a30.37,30.37,0,0,0-18.16-38.11L196.1,379.33a96.78,96.78,0,0,0-72.78,2.32L82.43,399.71a20.22,20.22,0,0,0-25.12-7.47l-52.52,23A8,8,0,0,0,0,422.58V563.53a8,8,0,0,0,11.6,7.14l102-51.51a20.28,20.28,0,0,0,11.12-23.93l1-.42a62,62,0,0,1,52.78,1.2l39.16,19.45a78,78,0,0,0,66.36,1.5l107-47.23a31.39,31.39,0,0,0,16-41.34ZM109.16,502.25a4.25,4.25,0,0,1-2.26,2.36l-.37.18L16,550.52v-35l23.66-11.62a8,8,0,0,0-7.05-14.36L16,497.67V427.81l47.75-20.93a4.27,4.27,0,0,1,5.63,2.18L107,494.29v0l2.06,4.67a4.26,4.26,0,0,1,.07,3.26Zm0,0"/><path class="cls-2" d="M293.36,189.55a6.78,6.78,0,1,0,2,4.79A6.73,6.73,0,0,0,293.36,189.55Z"/><path class="cls-3" d="M290.28,139.24a25.59,25.59,0,1,0-25.59-25.59,25.41,25.41,0,0,0,25.59,25.59Zm0-37.62a12,12,0,1,1-8.51,3.53A12.05,12.05,0,0,1,290.28,101.62Z"/><path class="cls-4" d="M306.82,322.88A6.78,6.78,0,1,0,294,327.19l4.91,14.64a18.06,18.06,0,0,1-3.5,17.54l-5.27,6a2.4,2.4,0,0,1-1.83.83,2.36,2.36,0,0,1-1.83-.83l-5.27-6a18.06,18.06,0,0,1-3.5-17.54l4.91-14.64a6.78,6.78,0,1,0-12.85-4.31l-4.91,14.64A31.66,31.66,0,0,0,271,368.28l5.27,6a16,16,0,0,0,23.34.8c.26-.26.51-.53.75-.8l5.27-6a31.66,31.66,0,0,0,6.13-30.76Z"/><path class="cls-5" d="M365.49,184.45l-22-22,2.06-16.33A174.62,174.62,0,0,0,301.59,6.8l-1.89-2.08A14.38,14.38,0,0,0,289.05,0h-.11a14.35,14.35,0,0,0-10.69,4.88l-3.56,4a175.31,175.31,0,0,0-42.65,133.5l2,19.48-23.9,22.54a98.72,98.72,0,0,0-29.11,70.27v48a6.78,6.78,0,0,0,11.32,5l51.95-46.87.28,2.66a6.76,6.76,0,0,0,4.82,5.8c2,.6,4.1,1.16,6.17,1.66l2.19,25.63a6.8,6.8,0,0,0,4.47,5.81A76.63,76.63,0,0,0,287.81,307h.33A76.65,76.65,0,0,0,314,302.43a6.79,6.79,0,0,0,4.46-5.68c.48-4.65,1-10.07,1.45-15.32l0-.26c.32-3.51.64-7.1,1-10.48,1.78-.45,3.42-.9,5-1.36a6.78,6.78,0,0,0,4.8-5.65l.39-3,52.21,47.11a6.78,6.78,0,0,0,11.32-5v-48A98.73,98.73,0,0,0,365.49,184.45Zm-24.18-5L355.91,194A85.26,85.26,0,0,1,381,254.72v32.75l-47.9-43.22ZM292,214.19A6.78,6.78,0,0,0,280.44,219v42.1a121.71,121.71,0,0,1-22.83-3.55L245.53,141A161.72,161.72,0,0,1,284.87,17.88l3.56-4a.83.83,0,0,1,.63-.28.8.8,0,0,1,.6.27l1.89,2.08A161.07,161.07,0,0,1,332.07,144.4L317.81,257.51A121.6,121.6,0,0,1,294,261.13V219A6.73,6.73,0,0,0,292,214.19Zm-5.22,60.67h0l.29.29.43-.29h.13a135.41,135.41,0,0,0,19.38-1.4c-.2,2.17-.4,4.38-.6,6.56l-.08.88c-.31,3.39-.62,6.83-.93,10.06a62.73,62.73,0,0,1-17.27,2.44h-.27a62.77,62.77,0,0,1-17-2.42l-1.48-17.36A135.54,135.54,0,0,0,286.79,274.86Zm-51-96,6.76,65.3-48,43.29V254.72a85.25,85.25,0,0,1,25.06-60.61Z"/></g></g></svg>