<svg xmlns="http://www.w3.org/2000/svg" xmlns:xlink="http://www.w3.org/1999/xlink" viewBox="0 0 58.23 95.36"><defs><style>.cls-1{fill:url(#linear-gradient);}</style><linearGradient id="linear-gradient" x1="29.12" y1="95.36" x2="29.12" gradientUnits="userSpaceOnUse"><stop offset="0" stop-color="#2176e7"/><stop offset="1" stop-color="#1f3fb5"/></linearGradient></defs><title>ic-s</title><g id="Layer_2" data-name="Layer 2"><g id="Isolation_Mode" data-name="Isolation Mode"><path class="cls-1" d="M39.54,39.79c-8-4.39-13.67-7.68-13.67-13,0-5.08,4.88-9.74,14.23-9.74a38.11,38.11,0,0,1,17.19,3.91A127.33,127.33,0,0,0,45,.07c-1,0-2.08-.07-3.19-.07C21.26,0,4.66,11.39,4.66,30c0,12.07,9.49,19.21,19.53,24.56,8.65,4.39,12.69,7.82,12.69,13,0,7.27-7.12,10.84-14.93,10.84A44.81,44.81,0,0,1,0,72.71L2.43,93A62.94,62.94,0,0,0,20,95.36c20.93,0,38.23-10.56,38.23-31.15,0-11-7.26-18.52-18.7-24.42"/></g></g></svg>