<svg xmlns="http://www.w3.org/2000/svg" xmlns:xlink="http://www.w3.org/1999/xlink" viewBox="0 0 656.36 594.1"><defs><style>.cls-1{fill:url(#linear-gradient);}.cls-2{fill:url(#linear-gradient-2);}.cls-3{fill:url(#linear-gradient-3);}.cls-4{fill:#28479e;}</style><linearGradient id="linear-gradient" x1="37.9" y1="56.93" x2="779.9" y2="104.93" gradientUnits="userSpaceOnUse"><stop offset="0" stop-color="#ff8900"/><stop offset="0.05" stop-color="#ff7f00"/><stop offset="0.37" stop-color="#ff4900"/><stop offset="0.65" stop-color="#ff2100"/><stop offset="0.87" stop-color="#ff0900"/><stop offset="1" stop-color="red"/></linearGradient><linearGradient id="linear-gradient-2" x1="26.23" y1="237.24" x2="768.23" y2="285.24" xlink:href="#linear-gradient"/><linearGradient id="linear-gradient-3" x1="9.5" y1="495.88" x2="751.5" y2="543.88" xlink:href="#linear-gradient"/></defs><title>ic-vision</title><g id="Layer_2" data-name="Layer 2"><g id="hang"><path class="cls-1" d="M364.14,88.3a10,10,0,0,0,5-1.34l.83-.48a10,10,0,1,0-10-17.32l-.83.48a10,10,0,0,0,5,18.66Z"/><path class="cls-2" d="M551.67,38.61a69.4,69.4,0,0,0-61.3-34.68,10,10,0,0,0-12.94-2.6l-86.5,49.94a10,10,0,1,0,10,17.32L446.7,42.18,495.58,128,323.14,227.59l-24.7-42.78-22.84-39.57h0L273.74,142l66-38.09a10,10,0,1,0-10-17.32l-74.63,43.09a10,10,0,0,0-3.66,13.66l1.85,3.21-154.1,89a10,10,0,0,0-3.66,13.66l5.56,9.63L54,286a10,10,0,0,0-3.67,13.66l24.56,42.53a10,10,0,0,0,13.65,3.66l47.11-27.15,5.57,9.65A10,10,0,0,0,154.86,332L309,243l1.85,3.21a10,10,0,0,0,13.66,3.66l12.19-7A22.32,22.32,0,0,1,301,268.77a10,10,0,1,0-14.14,14.14,42.34,42.34,0,0,0,6.73,5.47L192.62,492H150a10,10,0,1,0,0,20H496.1a10,10,0,0,0,0-20H450.39L346.62,283l.09-.08a42.4,42.4,0,0,0,7.3-50.05l160.13-92.45h0l32.69-18.87A10,10,0,0,0,551,109,69.4,69.4,0,0,0,551.67,38.61ZM87.19,323.54,72.63,298.33l11.2-6.45,4,6.91a10,10,0,1,0,17.32-10l-4-6.9,9.92-5.71,14.56,25.21Zm66.33-13.85L148,300.05h0l-12.28-21.27-17.84-30.91,110.83-64,35.69,61.81Zm145.44-84-17.29,10L246,173.89l17.29-10,17.84,30.91Zm7.81,81.06V492H214.94ZM428.06,492H326.77V294.1c.89-.21,1.78-.47,2.66-.74ZM534.35,48.61a49.39,49.39,0,0,1,4.48,39.06l-1.63-2.82L502.76,25.2A49.4,49.4,0,0,1,534.35,48.61ZM512.9,118,464,32.18l14.75-8.52,49.39,85.55Z"/><path class="cls-3" d="M104.18,492a10,10,0,1,0,7.07,2.93A10.09,10.09,0,0,0,104.18,492Z"/><path class="cls-4" d="M328.18,594.1c-85.71,0-166.43-9.16-227.28-25.8C66.84,559,41,547.93,24,535.44,8.08,523.71,0,510.62,0,496.54c0-20.57,17.28-38.87,51.36-54.4,29.52-13.45,71.31-24.55,120.85-32.1a10.93,10.93,0,0,1,1.66-.13,10.78,10.78,0,0,1,1.59,21.44c-48.59,7.41-88.94,18.13-116.68,31-24,11.15-37.23,23.29-37.23,34.18,0,17.1,32.58,36.63,85,51,59,16.15,137.75,25,221.6,25s162.55-8.89,221.6-25c52.45-14.34,85-33.87,85-51,0-10.81-13.07-22.87-36.8-34-27.42-12.82-67.28-23.52-115.29-31a10.78,10.78,0,0,1,1.62-21.43,10.94,10.94,0,0,1,1.68.13c30.89,4.78,75.21,13.57,110.92,28.29,39.44,16.25,59.43,35.74,59.43,57.93,0,14.09-8.08,27.18-24,38.91-17,12.49-42.83,23.54-76.89,32.85C494.61,584.94,413.9,594.1,328.18,594.1Z"/></g></g></svg>