<svg xmlns="http://www.w3.org/2000/svg" xmlns:xlink="http://www.w3.org/1999/xlink" viewBox="0 0 141.2 154.31"><defs><style>.cls-1{fill:url(#linear-gradient);}.cls-2{fill:#eb2027;}.cls-3{fill:url(#linear-gradient-2);}</style><linearGradient id="linear-gradient" x1="38.71" y1="154.31" x2="38.71" y2="99.37" gradientUnits="userSpaceOnUse"><stop offset="0" stop-color="#2176e7"/><stop offset="0.07" stop-color="#2170e2"/><stop offset="0.43" stop-color="#2055c9"/><stop offset="0.75" stop-color="#1f45ba"/><stop offset="1" stop-color="#1f3fb5"/></linearGradient><linearGradient id="linear-gradient-2" x1="128.83" y1="87.76" x2="26.43" y2="87.76" gradientUnits="userSpaceOnUse"><stop offset="0.35" stop-color="#f07d24"/><stop offset="0.9" stop-color="#eb2027"/></linearGradient></defs><title>ic-y</title><g id="Layer_2" data-name="Layer 2"><g id="Isolation_Mode" data-name="Isolation Mode"><path class="cls-1" d="M31.52,122.22c-1.26,1.36-2,2.15-2,2.16l-1.79,2L22,154.31H44.1L55.39,99.37a302.27,302.27,0,0,0-23.87,22.85"/><path class="cls-2" d="M58.83,66.23A232.8,232.8,0,0,0,44.6,86.31a140.46,140.46,0,0,0-5-17.67A109.23,109.23,0,0,0,26.79,44.57L0,54.23a64.31,64.31,0,0,1,4.05,5.05,125.32,125.32,0,0,1,9.43,15.64c5.85,11.77,11.76,28.29,13,46.55h0c0,.06,0,.11,0,.17s.7-.8,2-2.23c.28-.31.6-.66.94-1A311.39,311.39,0,0,1,56.74,92.79C63,87.58,70,82.21,77.57,77.14c15.55-10.48,33.3-19.63,51.26-23.2h.07L141.2,0S93.77,21.07,58.83,66.23Zm-6.62,17A107,107,0,0,1,78,65.07,107,107,0,0,0,52.22,83.24ZM82.79,62.85c-1.55.68-3.09,1.39-4.59,2.14C79.71,64.23,81.24,63.53,82.79,62.85Z"/><path class="cls-3" d="M128.83,53.94c-18,3.57-35.71,12.72-51.27,23.2C70,82.21,63,87.58,56.74,92.79a311.41,311.41,0,0,0-27.33,25.61c-.34.36-.66.7-.94,1-1.33,1.43-2,2.23-2,2.23s0-.11,0-.17a106.59,106.59,0,0,1,98.49-67.59c1.32,0,2.62,0,3.91.06"/></g></g></svg>