<?xml version="1.0" encoding="iso-8859-1"?>
<!-- Generator: Adobe Illustrator 19.0.0, SVG Export Plug-In . SVG Version: 6.00 Build 0)  -->
<svg version="1.1" id="Layer_1" xmlns="http://www.w3.org/2000/svg" xmlns:xlink="http://www.w3.org/1999/xlink" x="0px" y="0px"
	 viewBox="0 0 146.321 198.885" style="enable-background:new 0 0 146.321 198.885;" xml:space="preserve">
<g>
	<defs>
		<rect id="SVGID_1_" width="146.321" height="198.885"/>
	</defs>
	<clipPath id="SVGID_2_">
		<use xlink:href="#SVGID_1_"  style="overflow:visible;"/>
	</clipPath>
	<path style="clip-path:url(#SVGID_2_);fill:#164397;" d="M144.957,74.656c2.446-6.451,1.568-13.697-2.354-19.377l-2.767-4.006
		c-1.079-1.564-1.771-3.39-1.998-5.276l-0.588-4.835c-0.833-6.85-4.977-12.855-11.087-16.061l-4.313-2.265
		c-1.683-0.88-3.142-2.175-4.224-3.74l-2.764-4.006c-3.922-5.68-10.38-9.073-17.284-9.073H92.71c-1.902,0-3.794-0.467-5.478-1.35
		L82.92,2.406c-6.11-3.206-13.406-3.209-19.518,0l-4.311,2.262c-1.684,0.883-3.58,1.35-5.478,1.35h-4.871
		c-6.901,0-13.362,3.393-17.282,9.073l-2.766,4.006c-1.08,1.565-2.542,2.857-4.225,3.74l-4.308,2.265
		C14.05,28.307,9.902,34.313,9.069,41.165l-0.584,4.832c-0.232,1.886-0.923,3.712-2.001,5.276l-2.767,4.006
		c-3.92,5.68-4.8,12.926-2.352,19.377l1.726,4.553c0.674,1.776,0.908,3.714,0.681,5.6l-0.588,4.835
		c-0.832,6.85,1.754,13.674,6.92,18.249l3.647,3.229c1.423,1.259,2.532,2.866,3.203,4.643l1.729,4.552
		c1.815,4.788,5.291,8.685,9.703,11.052L9.365,177.77c-0.7,1.709-0.315,3.672,0.983,4.987c1.298,1.313,3.255,1.724,4.971,1.043
		l20.98-8.292l9.121,20.633c0.739,1.67,2.391,2.743,4.212,2.743h0.061c1.847-0.025,3.499-1.15,4.202-2.859l19.265-46.994
		l19.267,46.994c0.701,1.709,2.352,2.834,4.199,2.859h0.062c1.822,0,3.473-1.073,4.212-2.743l9.121-20.633L131,183.8
		c1.716,0.681,3.673,0.27,4.971-1.043c1.298-1.315,1.687-3.278,0.984-4.987l-19.02-46.401c4.41-2.367,7.887-6.264,9.702-11.052
		l1.728-4.552c0.675-1.777,1.78-3.384,3.204-4.643l3.646-3.229c5.167-4.578,7.753-11.399,6.921-18.249l-0.589-4.835
		c-0.228-1.886,0.007-3.824,0.682-5.6L144.957,74.656z M130.108,100.998l-3.644,3.229c-2.534,2.246-4.511,5.106-5.713,8.274
		l-1.724,4.552c-1.376,3.621-4.441,6.339-8.203,7.265l-4.726,1.166c-3.29,0.809-6.365,2.425-8.899,4.671l-3.647,3.229
		c-2.901,2.567-6.879,3.547-10.638,2.622l-4.727-1.166c-3.29-0.811-6.766-0.811-10.052,0l-4.726,1.166
		c-3.762,0.929-7.74-0.055-10.638-2.622l-3.647-3.229c-2.534-2.246-5.613-3.862-8.899-4.671l-4.726-1.166
		c-3.763-0.926-6.828-3.644-8.202-7.265l-1.729-4.552c-1.198-3.168-3.174-6.028-5.709-8.274l-3.644-3.229
		c-2.901-2.567-4.353-6.396-3.884-10.242l0.584-4.836c0.408-3.36-0.01-6.81-1.211-9.976l-1.725-4.552
		c-1.375-3.624-0.881-7.689,1.32-10.879l2.767-4.006c1.924-2.786,3.155-6.037,3.563-9.397l0.587-4.836
		c0.467-3.846,2.796-7.216,6.224-9.016l4.311-2.264c2.998-1.571,5.601-3.879,7.525-6.664l2.766-4.007
		c2.202-3.19,5.826-5.091,9.7-5.091h4.871c3.386,0,6.76-0.833,9.758-2.407l4.311-2.262c3.431-1.802,7.527-1.799,10.959,0
		l4.309,2.262c3,1.574,6.374,2.407,9.76,2.407h4.871c3.872,0,7.499,1.901,9.7,5.088l2.765,4.01c1.925,2.785,4.528,5.093,7.525,6.664
		l4.312,2.264c3.428,1.8,5.754,5.17,6.223,9.016l0.588,4.836c0.408,3.36,1.638,6.611,3.563,9.397l2.766,4.006
		c2.202,3.19,2.696,7.255,1.321,10.875l-1.729,4.556c-1.198,3.166-1.616,6.616-1.208,9.976l0.585,4.836
		C134.458,94.602,133.006,98.431,130.108,100.998 M109.291,165.318c-2.297-0.91-4.906,0.157-5.905,2.419l-6.538,14.792
		l-15.335-37.407c6.465,1.33,13.19-0.447,18.147-4.842l3.647-3.229c1.422-1.259,3.148-2.169,4.995-2.622l0.845-0.208l15.184,37.04
		L109.291,165.318z M42.936,167.736c-1.002-2.262-3.611-3.329-5.908-2.419l-15.036,5.943l15.184-37.04l0.845,0.208
		c1.848,0.453,3.572,1.363,4.996,2.622l3.646,3.229c3.881,3.441,8.852,5.282,13.925,5.282c1.407,0,2.821-0.152,4.222-0.44
		l-15.336,37.407L42.936,167.736z"/>
	<path style="clip-path:url(#SVGID_2_);fill:#164397;" d="M73.16,123.293c27.852,0,50.512-22.661,50.512-50.513
		c0-27.853-22.66-50.512-50.512-50.512S22.651,44.928,22.651,72.781C22.651,100.632,45.308,123.293,73.16,123.293 M73.16,31.482
		c22.773,0,41.301,18.525,41.301,41.298c0,22.772-18.525,41.301-41.301,41.301c-22.772,0-41.298-18.529-41.298-41.301
		C31.862,50.008,50.391,31.482,73.16,31.482"/>
</g>
<g>
	<defs>
		<path id="SVGID_3_" d="M63.677,79.142c0.19-1.107-0.178-2.239-0.982-3.022l-7.871-7.672l10.877-1.58
			c1.112-0.161,2.074-0.861,2.571-1.869l4.864-9.855l4.863,9.855c0.498,1.008,1.459,1.708,2.572,1.869l10.875,1.58l-7.869,7.672
			c-0.806,0.783-1.173,1.915-0.983,3.022l1.858,10.831l-9.727-5.113c-0.497-0.261-1.044-0.393-1.589-0.393
			c-0.546,0-1.092,0.132-1.59,0.393l-9.727,5.113L63.677,79.142z M70.073,45.917l-7.132,14.45l-15.947,2.317
			c-1.286,0.186-2.355,1.088-2.756,2.324c-0.403,1.236-0.067,2.594,0.864,3.501l11.539,11.248L53.917,95.64
			c-0.219,1.28,0.307,2.575,1.359,3.34c1.051,0.763,2.446,0.864,3.597,0.26l14.263-7.499l14.263,7.499
			c0.499,0.262,1.045,0.391,1.589,0.391c0.708,0,1.412-0.219,2.007-0.651c1.052-0.765,1.579-2.06,1.359-3.34L89.63,79.757
			l11.539-11.248c0.932-0.907,1.266-2.265,0.865-3.501c-0.401-1.236-1.471-2.138-2.757-2.324L83.33,60.367l-7.131-14.45
			c-0.576-1.166-1.764-1.904-3.063-1.904C71.836,44.013,70.648,44.751,70.073,45.917"/>
	</defs>
	<clipPath id="SVGID_4_">
		<use xlink:href="#SVGID_3_"  style="overflow:visible;"/>
	</clipPath>
	
		<linearGradient id="SVGID_5_" gradientUnits="userSpaceOnUse" x1="0" y1="198.8868" x2="1" y2="198.8868" gradientTransform="matrix(-58.1307 0 0 58.1307 102.2011 -11489.4941)">
		<stop  offset="0" style="stop-color:#FF8900"/>
		<stop  offset="0.0059" style="stop-color:#FF8800"/>
		<stop  offset="0.2438" style="stop-color:#FF5800"/>
		<stop  offset="0.4695" style="stop-color:#FF3200"/>
		<stop  offset="0.6772" style="stop-color:#FF1600"/>
		<stop  offset="0.8605" style="stop-color:#FF0600"/>
		<stop  offset="1" style="stop-color:#FF0000"/>
	</linearGradient>
	<rect x="43.835" y="44.013" style="clip-path:url(#SVGID_4_);fill:url(#SVGID_5_);" width="58.6" height="55.831"/>
</g>
</svg>
