<svg xmlns="http://www.w3.org/2000/svg" xmlns:xlink="http://www.w3.org/1999/xlink" viewBox="0 0 187.42 130.49"><defs><style>.cls-1,.cls-3{fill:none;}.cls-2{clip-path:url(#clip-path);}.cls-3{stroke:#164397;stroke-miterlimit:10;stroke-width:7.86px;}.cls-4{fill:#eb2027;}.cls-5{clip-path:url(#clip-path-2);}.cls-6{fill:url(#linear-gradient);}.cls-7{clip-path:url(#clip-path-3);}.cls-8{fill:url(#linear-gradient-2);}.cls-9{fill:url(#linear-gradient-3);}.cls-10{clip-path:url(#clip-path-6);}.cls-11{fill:url(#linear-gradient-4);}.cls-12{fill:url(#linear-gradient-6);}.cls-13{fill:#164397;}</style><clipPath id="clip-path" transform="translate(0)"><rect class="cls-1" width="187.43" height="130.49"/></clipPath><clipPath id="clip-path-2" transform="translate(0)"><path class="cls-1" d="M2.75,32.26c18,2.8,35.72,10,51.28,18.21,7.54,4,14.55,8.2,20.83,12.29,5.68,3.7,10.7,7.25,15,10.43,1.23-1.62,2.51-3.21,3.87-4.75-19.12-21.74-51-36.09-87.05-36.22H6q-1.63,0-3.24,0"/></clipPath><linearGradient id="linear-gradient" y1="130.49" x2="1" y2="130.49" gradientTransform="translate(2.75 -13312.81) scale(102.43)" gradientUnits="userSpaceOnUse"><stop offset="0" stop-color="#f07d24"/><stop offset="0.35" stop-color="#f07d24"/><stop offset="0.9" stop-color="#eb2027"/><stop offset="1" stop-color="#eb2027"/></linearGradient><clipPath id="clip-path-3" transform="translate(0)"><path class="cls-1" d="M89.85,73.19q2.05,1.52,3.87,2.91,1.81-1.39,3.87-2.91c-1.23-1.62-2.51-3.21-3.87-4.75-1.36,1.55-2.64,3.13-3.87,4.75"/></clipPath><linearGradient id="linear-gradient-2" x1="0" y1="130.49" x2="1" y2="130.49" gradientTransform="translate(2.75 -13293.25) scale(102.43)" xlink:href="#linear-gradient"/><linearGradient id="linear-gradient-3" x1="0" y1="130.49" x2="1" y2="130.49" gradientTransform="matrix(-102.43, 0, 0, 102.43, 184.68, -13293.25)" xlink:href="#linear-gradient"/><clipPath id="clip-path-6" transform="translate(0)"><path class="cls-1" d="M180.76,32.22c-36,.13-67.93,14.48-87,36.22,1.36,1.55,2.64,3.13,3.87,4.75,4.29-3.18,9.31-6.73,15-10.43,6.28-4.09,13.29-8.3,20.83-12.29C149,42.24,166.7,35.06,184.68,32.26q-1.61,0-3.24,0h-.68"/></clipPath><linearGradient id="linear-gradient-4" x1="0" y1="130.49" x2="1" y2="130.49" gradientTransform="matrix(-102.43, 0, 0, 102.43, 184.68, -13312.81)" xlink:href="#linear-gradient"/><linearGradient id="linear-gradient-6" x1="0" y1="130.49" x2="1" y2="130.49" gradientTransform="translate(2.75 -13293.25) scale(102.43)" xlink:href="#linear-gradient"/></defs><title>ic-email</title><g id="Layer_2" data-name="Layer 2"><g id="Layer_1-2" data-name="Layer 1"><g class="cls-2"><line class="cls-3" x1="182.68" y1="123.37" x2="94.9" y2="72.36"/><line class="cls-3" x1="4.74" y1="123.37" x2="92.53" y2="72.36"/><path class="cls-4" d="M94.35,67.75A294.75,294.75,0,0,0,72.77,41.91C42.08,10.78,10.41,5.56,3.13,4.74V32.33C21,35.17,38.58,42.3,54,50.47c7.54,4,14.55,8.2,20.83,12.29,5.68,3.7,10.7,7.25,15,10.43,1.41-1.86,2.92-3.67,4.5-5.44" transform="translate(0)"/></g><g class="cls-5"><rect class="cls-6" x="2.75" y="32.21" width="90.96" height="40.97"/></g><g class="cls-7"><rect class="cls-8" x="89.85" y="68.43" width="7.73" height="7.66"/></g><g class="cls-7"><rect class="cls-9" x="89.85" y="68.43" width="7.73" height="7.66"/></g><g class="cls-2"><path class="cls-4" d="M93.07,67.75a294.74,294.74,0,0,1,21.58-25.85C145.34,10.78,177,5.56,184.29,4.74V32.33c-17.84,2.84-35.45,10-50.9,18.14-7.54,4-14.55,8.2-20.83,12.29-5.68,3.7-10.7,7.25-15,10.43-1.41-1.86-2.92-3.67-4.5-5.44" transform="translate(0)"/></g><g class="cls-10"><rect class="cls-11" x="93.71" y="32.21" width="90.96" height="40.97"/></g><g class="cls-7"><rect class="cls-9" x="89.85" y="68.43" width="7.73" height="7.66"/></g><g class="cls-7"><rect class="cls-12" x="89.85" y="68.43" width="7.73" height="7.66"/></g><g class="cls-2"><path class="cls-13" d="M179.12,122.18H8.3V8.3H179.12ZM182.42,0H5A5,5,0,0,0,0,5V125.49a5,5,0,0,0,5,5H182.42a5,5,0,0,0,5-5V5a5,5,0,0,0-5-5" transform="translate(0)"/></g></g></g></svg>