<svg xmlns="http://www.w3.org/2000/svg" xmlns:xlink="http://www.w3.org/1999/xlink" viewBox="0 0 477 365.18"><defs><style>.cls-1,.cls-2,.cls-25{fill:#164397;}.cls-1{fill-rule:evenodd;}.cls-3{fill:url(#linear-gradient);}.cls-4{fill:url(#linear-gradient-2);}.cls-5{opacity:0;}.cls-16,.cls-20,.cls-21,.cls-22,.cls-23,.cls-24,.cls-6{fill:none;stroke-linejoin:round;}.cls-16,.cls-24,.cls-25,.cls-6{stroke:#164397;}.cls-23,.cls-6{stroke-width:5px;}.cls-7{fill:url(#linear-gradient-3);}.cls-8{fill:url(#linear-gradient-4);}.cls-9{fill:url(#linear-gradient-5);}.cls-10{fill:url(#linear-gradient-6);}.cls-11{fill:url(#linear-gradient-7);}.cls-12{fill:url(#linear-gradient-8);}.cls-13{fill:url(#linear-gradient-9);}.cls-14{fill:url(#linear-gradient-10);}.cls-15{fill:#b9d7ff;}.cls-16,.cls-20,.cls-21,.cls-22{stroke-width:4.93px;}.cls-17{fill:#fff;}.cls-18{fill:#ffd248;}.cls-19{fill:#b3ccff;}.cls-20{stroke:url(#linear-gradient-11);}.cls-21{stroke:url(#linear-gradient-12);}.cls-22{stroke:url(#linear-gradient-13);}.cls-23{stroke:url(#linear-gradient-14);}.cls-24{stroke-width:6.27px;}.cls-25{stroke-miterlimit:10;stroke-width:0.75px;}.cls-26{fill:url(#linear-gradient-15);}.cls-27{fill:url(#linear-gradient-16);}</style><linearGradient id="linear-gradient" x1="303.43" y1="314.79" x2="284.13" y2="314.79" gradientUnits="userSpaceOnUse"><stop offset="0" stop-color="#ff8900"/><stop offset="0.01" stop-color="#ff8700"/><stop offset="0.25" stop-color="#ff5700"/><stop offset="0.47" stop-color="#ff3100"/><stop offset="0.68" stop-color="#ff1600"/><stop offset="0.86" stop-color="#ff0600"/><stop offset="1" stop-color="red"/></linearGradient><linearGradient id="linear-gradient-2" x1="331" y1="314.79" x2="311.7" y2="314.79" xlink:href="#linear-gradient"/><linearGradient id="linear-gradient-3" x1="295.05" y1="307.34" x2="270.39" y2="307.34" xlink:href="#linear-gradient"/><linearGradient id="linear-gradient-4" x1="184.89" y1="83.74" x2="160.23" y2="83.74" xlink:href="#linear-gradient"/><linearGradient id="linear-gradient-5" x1="23.78" y1="113.69" x2="10.72" y2="113.69" xlink:href="#linear-gradient"/><linearGradient id="linear-gradient-6" x1="436.45" y1="289.85" x2="423.39" y2="289.85" xlink:href="#linear-gradient"/><linearGradient id="linear-gradient-7" x1="258.2" y1="12.01" x2="245.14" y2="12.01" xlink:href="#linear-gradient"/><linearGradient id="linear-gradient-8" x1="214.49" y1="357.26" x2="201.43" y2="357.26" xlink:href="#linear-gradient"/><linearGradient id="linear-gradient-9" x1="71.45" y1="330.95" x2="58.4" y2="330.95" xlink:href="#linear-gradient"/><linearGradient id="linear-gradient-10" x1="388.77" y1="33.37" x2="375.71" y2="33.37" xlink:href="#linear-gradient"/><linearGradient id="linear-gradient-11" x1="152.83" y1="213.23" x2="68.98" y2="213.23" xlink:href="#linear-gradient"/><linearGradient id="linear-gradient-12" x1="155.13" y1="241.9" x2="124.03" y2="241.9" xlink:href="#linear-gradient"/><linearGradient id="linear-gradient-13" x1="411.31" y1="142.54" x2="333.71" y2="142.54" xlink:href="#linear-gradient"/><linearGradient id="linear-gradient-14" x1="396" y1="151.55" x2="352" y2="151.55" xlink:href="#linear-gradient"/><linearGradient id="linear-gradient-15" x1="113.3" y1="37.7" x2="79.23" y2="37.7" xlink:href="#linear-gradient"/><linearGradient id="linear-gradient-16" x1="102.02" y1="37.93" x2="89.55" y2="37.93" xlink:href="#linear-gradient"/></defs><title>ic-faq-large</title><g id="Layer_2" data-name="Layer 2"><g id="Layer_1-2" data-name="Layer 1"><path class="cls-1" d="M313.3,354.63c5.4-.81,10.87-2.69,14.55-6.37,4.57-4.57,8.13-12.31,8.13-19.24V305.46c0-6.93-3.56-13.95-8.13-18.52s-11.59-8.13-18.52-8.13h-3.46c-6.93,0-13.95,3.56-18.52,8.13s-8.13,11.59-8.13,18.52V329c0,1.7-.66,2.36-2.36,2.36-1.33,0-1.68-2-2.44-1.91,0-8.91.08-15.22.08-24a31.45,31.45,0,0,1,31.36-31.36h3.46a31.45,31.45,0,0,1,31.36,31.36V307l-.17,25.29A31.5,31.5,0,0,1,314,360a6.55,6.55,0,0,1-.65,1.53v-6.95Z"/><path class="cls-2" d="M276.45,332.1h-.2c-8.36-.64-14.91-8.09-14.91-17s6.55-16.32,14.91-17a2.64,2.64,0,1,1,.4,5.26c-5.63.43-10,5.57-10,11.7s4.41,11.27,10,11.7a2.64,2.64,0,0,1-.2,5.27Z"/><path class="cls-2" d="M338.67,332.1a2.64,2.64,0,0,1-.2-5.27c5.63-.43,10-5.57,10-11.7s-4.41-11.27-10-11.7a2.64,2.64,0,0,1-2.43-2.83,2.67,2.67,0,0,1,2.83-2.43c8.36.64,14.91,8.09,14.91,17s-6.55,16.32-14.91,17Z"/><path class="cls-2" d="M307.56,365.18a8.73,8.73,0,1,1,8.73-8.73A8.74,8.74,0,0,1,307.56,365.18Zm0-12.18a3.45,3.45,0,1,0,3.46,3.45A3.46,3.46,0,0,0,307.56,353Z"/><path class="cls-2" d="M276.79,304.18a2.64,2.64,0,0,1-.52-5.22,27.72,27.72,0,0,0,18.86-14,2.64,2.64,0,0,1,4.21-.58A27.81,27.81,0,0,0,333,289.25a2.64,2.64,0,0,1,2.6,4.59,33.09,33.09,0,0,1-37.59-3.5,33,33,0,0,1-20.69,13.78A2.69,2.69,0,0,1,276.79,304.18Z"/><path class="cls-3" d="M286.2,318.43a2.07,2.07,0,0,1-1.46-3.53,12.79,12.79,0,0,1,18.09,0,2.07,2.07,0,1,1-2.92,2.92,8.65,8.65,0,0,0-12.24,0A2.06,2.06,0,0,1,286.2,318.43Z"/><path class="cls-4" d="M313.77,318.43a2.07,2.07,0,0,1-1.46-3.53,12.79,12.79,0,0,1,18.09,0,2.07,2.07,0,0,1-2.92,2.92,8.65,8.65,0,0,0-12.24,0A2.06,2.06,0,0,1,313.77,318.43Z"/><g class="cls-5"><path class="cls-6" d="M320.94,320.51H331.5v-23H320.94c-.11-3-2.36-7.16-2.53-7.48l9.18-9.87-15.92-16.26-9.63,9c-.31-.16-3.55-2.59-6.55-2.7v-10.7h-23v10.7c0,.11-5.09,2.36-5.4,2.53l-8.83-9.18-15.74,15.92L251.79,290c-.16.32-2.33,4.48-2.44,7.48H234.5v23h14.85c.11,0,2.36,4.17,2.53,4.48l-9.18,8.37,15.92,15.51,8.48-9.38c.31.16,5.4,2.22,5.4,2.32v14.7h23v-14.7c3-.11,6.24-2.36,6.55-2.53l9.4,9.18,16-15.92L318.36,325C318.52,324.68,320.84,320.51,320.94,320.51Z"/><circle class="cls-7" cx="282.72" cy="307.34" r="12.33"/></g><g class="cls-5"><path class="cls-6" d="M210.79,96.51H221.5v-23H210.79c-.11-3-2.36-7-2.53-7.28l9.18-9.77L201.52,40.26l-9.55,9c-.31-.16-3.47-2.57-6.47-2.68V35.51h-23v11.1c0,.11-5.17,2.36-5.48,2.53L148.15,40,132.39,55.88l9.25,10.36c-.16.32-2.34,4.28-2.45,7.28H124.5v23h14.69c.11,0,2.36,4.37,2.53,4.68l-9.18,8.47,15.92,15.56,8.56-9.36c.31.16,5.48,2.24,5.48,2.35v14.3h23v-14.3c3-.11,6.16-2.36,6.47-2.53l9.36,9.18,16-15.92-9.13-7.75C208.38,100.87,210.68,96.51,210.79,96.51Z"/><circle class="cls-8" cx="172.56" cy="83.74" r="12.33"/></g><circle class="cls-9" cx="17.25" cy="113.69" r="6.53"/><circle class="cls-10" cx="429.92" cy="289.85" r="6.53"/><circle class="cls-11" cx="251.67" cy="12.01" r="6.53"/><circle class="cls-12" cx="207.96" cy="357.26" r="6.53"/><circle class="cls-13" cx="64.92" cy="330.95" r="6.53"/><circle class="cls-14" cx="382.24" cy="33.37" r="6.53"/><g id="_Group_" data-name="&lt;Group&gt;"><path class="cls-15" d="M440.7,78.69V220.08a14.8,14.8,0,0,1-14.8,14.8H392.2l-40.28,40.28V234.88H199a14.8,14.8,0,0,1-14.8-14.8V78.69A14.8,14.8,0,0,1,199,63.89H425.9A14.8,14.8,0,0,1,440.7,78.69Z"/><path class="cls-16" d="M425.9,63.89H199a14.8,14.8,0,0,0-14.8,14.8V220.08a14.8,14.8,0,0,0,14.8,14.8h152.9v40.28l40.28-40.28h33.7a14.8,14.8,0,0,0,14.8-14.8V78.69A14.8,14.8,0,0,0,425.9,63.89Z"/><line class="cls-6" x1="318" y1="108.21" x2="225" y2="108.21"/><line class="cls-6" x1="318" y1="128.21" x2="225" y2="128.21"/><line class="cls-6" x1="318" y1="147.21" x2="225" y2="147.21"/><line class="cls-6" x1="318" y1="167.21" x2="225" y2="167.21"/><line class="cls-6" x1="318" y1="187.21" x2="255" y2="187.21"/></g><g id="_Group_2" data-name="&lt;Group&gt;"><path class="cls-17" d="M39.8,284.84V143.45a14.8,14.8,0,0,1,14.8-14.8H88.3l40.28-40.28v40.28h152.9a14.8,14.8,0,0,1,14.8,14.8V284.84a14.8,14.8,0,0,1-14.8,14.8H54.59A14.8,14.8,0,0,1,39.8,284.84Z"/><path class="cls-16" d="M54.59,299.64H281.48a14.8,14.8,0,0,0,14.8-14.8V143.45a14.8,14.8,0,0,0-14.8-14.8H128.58V88.37L88.3,128.65H54.59a14.8,14.8,0,0,0-14.8,14.8V284.84A14.8,14.8,0,0,0,54.59,299.64Z"/></g><g class="cls-5"><polygon class="cls-18" points="364 280.01 364 294.88 397.52 271.68 364 248.48 364 260.01 156 260.01 156 280.01 364 280.01"/></g><g class="cls-5"><polygon class="cls-19" points="97 93.01 97 77.49 63.48 100.69 97 123.89 97 112.01 211 112.01 211 93.01 97 93.01"/></g><circle class="cls-15" cx="110.68" cy="213.82" r="31.56"/><circle class="cls-20" cx="110.91" cy="213.23" r="39.46"/><line class="cls-21" x1="125.77" y1="228.09" x2="153.38" y2="255.7"/><circle class="cls-17" cx="374.77" cy="151.55" r="42.45"/><polyline class="cls-22" points="335.91 182.54 375.48 103.9 409.04 182.54"/><line class="cls-23" x1="352" y1="151.55" x2="396" y2="151.55"/><g class="cls-5"><polyline class="cls-16" points="96.39 15.58 103.99 22.15 96.39 29.35"/><line class="cls-6" x1="104" y1="22.51" x2="68" y2="22.51"/><polyline class="cls-16" points="76.86 54.01 69.26 47.43 76.86 40.24"/><line class="cls-6" x1="69" y1="47.51" x2="107" y2="47.51"/></g><polyline class="cls-16" points="400.81 308.66 408.41 315.23 400.81 322.43"/><line class="cls-6" x1="408.48" y1="315.51" x2="372.48" y2="315.51"/><polyline class="cls-16" points="381.28 347.09 373.68 340.51 381.28 333.32"/><line class="cls-6" x1="373.48" y1="340.51" x2="411.48" y2="340.51"/><line class="cls-6" x1="189.33" y1="44.51" x2="196.33" y2="44.51"/><line class="cls-6" x1="203.33" y1="44.51" x2="209.33" y2="44.51"/><line class="cls-6" x1="216.33" y1="44.51" x2="222.33" y2="44.51"/><line class="cls-6" x1="431" y1="259.51" x2="438" y2="259.51"/><line class="cls-6" x1="444" y1="259.51" x2="451" y2="259.51"/><line class="cls-6" x1="457" y1="259.51" x2="464" y2="259.51"/><line class="cls-6" x1="13.75" y1="77.49" x2="20.75" y2="77.49"/><line class="cls-6" x1="27.75" y1="77.49" x2="33.75" y2="77.49"/><line class="cls-6" x1="40.75" y1="77.49" x2="46.75" y2="77.49"/><line class="cls-6" x1="178" y1="325.51" x2="184" y2="325.51"/><line class="cls-6" x1="191" y1="325.51" x2="197" y2="325.51"/><line class="cls-6" x1="204" y1="325.51" x2="211" y2="325.51"/><line class="cls-6" x1="10.5" y1="198.01" x2="10.5" y2="204.01"/><line class="cls-6" x1="10.5" y1="211.01" x2="10.5" y2="218.01"/><line class="cls-6" y1="208.51" x2="7" y2="208.51"/><line class="cls-6" x1="15" y1="208.51" x2="22" y2="208.51"/><line class="cls-6" x1="466.5" y1="144.01" x2="466.5" y2="150.01"/><line class="cls-6" x1="466.5" y1="157.01" x2="466.5" y2="163.01"/><line class="cls-6" x1="456" y1="154.51" x2="462" y2="154.51"/><line class="cls-6" x1="470" y1="154.51" x2="477" y2="154.51"/><line class="cls-6" x1="310.17" y1="16.84" x2="310.17" y2="23.84"/><line class="cls-6" x1="310.17" y1="29.84" x2="310.17" y2="36.84"/><line class="cls-6" x1="299.67" y1="27.34" x2="306.67" y2="27.34"/><line class="cls-6" x1="314.67" y1="27.34" x2="320.67" y2="27.34"/><line class="cls-6" x1="174" y1="177.51" x2="267" y2="177.51"/><line class="cls-6" x1="174" y1="197.51" x2="267" y2="197.51"/><line class="cls-6" x1="174" y1="216.51" x2="267" y2="216.51"/><line class="cls-6" x1="174" y1="236.51" x2="267" y2="236.51"/><line class="cls-6" x1="174" y1="256.51" x2="237" y2="256.51"/><g class="cls-5"><line class="cls-24" x1="74.94" y1="2.57" x2="74.94" y2="11.35"/><line class="cls-24" x1="74.94" y1="18.88" x2="74.94" y2="27.66"/><line class="cls-24" x1="61.77" y1="15.74" x2="70.55" y2="15.74"/><line class="cls-24" x1="80.59" y1="15.74" x2="88.12" y2="15.74"/></g><path class="cls-25" d="M55,57.66a5.18,5.18,0,0,0,3.11,2.82l3.53,1.16V72.53a8.25,8.25,0,0,0,8.24,8.25h11l7.87,26.62a2.31,2.31,0,1,0,4.45-1.27L84.9,77.87a2.31,2.31,0,0,0-2.22-1.67H69.92a3.62,3.62,0,0,1-3.61-3.62V60a2.31,2.31,0,0,0-1.58-2.19l-5.12-1.69a.55.55,0,0,1-.4-.67l0-.06,5.44-12.22a18.19,18.19,0,0,0,1.59-7.46A30.66,30.66,0,0,1,96.89,5h.18a30.65,30.65,0,0,1,22,51.88,2.31,2.31,0,0,0-.55,2.24l5,17.7A2.31,2.31,0,1,0,128,75.56h0l-4.69-16.47a35,35,0,0,0,8.85-25.6A35.32,35.32,0,0,0,97.07.38H97A35.28,35.28,0,0,0,61.69,35.66h0a13.61,13.61,0,0,1-1.18,5.55L55,53.46A5.19,5.19,0,0,0,55,57.66Z"/><g class="cls-5"><path class="cls-2" d="M105.78,40.6a5,5,0,0,0,5-5v-8.5a2.31,2.31,0,0,0-2.31-2.31H88v-.92a5.55,5.55,0,0,0-5.55-5.55H80.73a2.31,2.31,0,1,0,0,4.62h1.78a.92.92,0,0,1,.92.92V42.67a6.63,6.63,0,0,0,6.62,6.62h17.67a2.31,2.31,0,1,0,0-4.62H90a2,2,0,0,1-2-2V40.6ZM88,29.39h18.16v6.19a.41.41,0,0,1-.41.41H88Z"/><circle class="cls-2" cx="91.07" cy="55.83" r="3.12"/><circle class="cls-2" cx="103.8" cy="55.83" r="3.12"/></g><path class="cls-26" d="M96.27,20.67a17,17,0,1,0,17,17A17.05,17.05,0,0,0,96.27,20.67Zm0,30.31A13.28,13.28,0,1,1,109.55,37.7,13.3,13.3,0,0,1,96.27,51Z"/><path class="cls-27" d="M95.9,36.05c-1.56,0-2.58-.63-2.59-1.58,0-.78.69-1.6,2.28-1.65a5.52,5.52,0,0,1,2.9.57A1.88,1.88,0,1,0,100.2,30a9.34,9.34,0,0,0-4.75-1c-3.88.14-5.93,2.91-5.9,5.46s2,5.26,6.32,5.28c1.46,0,2.38.62,2.39,1.6,0,.78-.59,1.59-2,1.64a6.33,6.33,0,0,1-3.17-.57,1.88,1.88,0,1,0-1.69,3.35,9.77,9.77,0,0,0,4.49,1h.49a5.48,5.48,0,0,0,5.6-5.44C102,38.74,99.87,36.08,95.9,36.05Z"/><line class="cls-6" x1="123.8" y1="336.45" x2="123.8" y2="342.45"/><line class="cls-6" x1="123.8" y1="349.45" x2="123.8" y2="356.45"/><line class="cls-6" x1="113.3" y1="346.95" x2="120.3" y2="346.95"/><line class="cls-6" x1="128.3" y1="346.95" x2="135.3" y2="346.95"/></g></g></svg>