<?xml version="1.0" encoding="iso-8859-1"?>
<!-- Generator: Adobe Illustrator 19.0.0, SVG Export Plug-In . SVG Version: 6.00 Build 0)  -->
<svg version="1.1" id="Layer_1" xmlns="http://www.w3.org/2000/svg" xmlns:xlink="http://www.w3.org/1999/xlink" x="0px" y="0px"
	 viewBox="0 0 58.073 72.402" style="enable-background:new 0 0 58.073 72.402;" xml:space="preserve">
<g>
	<defs>
		<rect id="SVGID_1_" y="-0.001" width="58.073" height="72.403"/>
	</defs>
	<clipPath id="SVGID_2_">
		<use xlink:href="#SVGID_1_"  style="overflow:visible;"/>
	</clipPath>
	<path style="clip-path:url(#SVGID_2_);fill:#164397;" d="M29.022,0C13.024,0,0,13.024,0,29.022c0,1.821,0.167,3.657,0.516,5.449
		c0.016,0.106,0.076,0.425,0.198,0.972c0.439,1.958,1.092,3.885,1.943,5.722c3.126,7.362,10.002,18.669,25.089,30.782
		c0.38,0.304,0.836,0.456,1.291,0.456c0.455,0,0.911-0.152,1.29-0.456c15.073-12.113,21.964-23.42,25.09-30.782
		c0.85-1.837,1.503-3.75,1.943-5.722c0.122-0.547,0.183-0.866,0.197-0.972c0.335-1.792,0.516-3.628,0.516-5.449
		C58.044,13.024,45.02,0,29.022,0 M53.49,33.758c0,0.029-0.016,0.06-0.016,0.09c-0.014,0.077-0.06,0.304-0.136,0.653v0.03
		c-0.379,1.701-0.941,3.355-1.685,4.948c-0.015,0.016-0.015,0.047-0.031,0.061c-2.837,6.725-9.061,16.986-22.6,28.172
		C15.483,56.526,9.259,46.265,6.421,39.54c-0.015-0.014-0.015-0.045-0.031-0.061c-0.728-1.577-1.29-3.247-1.684-4.948v-0.03
		c-0.091-0.349-0.122-0.576-0.138-0.653c0-0.03-0.014-0.061-0.014-0.106C4.25,32.179,4.099,30.6,4.099,29.007
		c0-13.737,11.186-24.924,24.923-24.924c13.736,0,24.923,11.187,24.923,24.924C53.945,30.615,53.793,32.21,53.49,33.758"/>
	<path style="clip-path:url(#SVGID_2_);fill:#164397;" d="M32.676,26.998c-0.846,1.093-1.784,2.351-2.543,3.589
		c0,0-0.302-1.524-0.885-3.157c-0.561-1.572-1.698-3.514-2.297-4.302l-4.787,1.726c0.018,0.022,0.481,0.542,0.724,0.902
		c0.392,0.576,1.048,1.513,1.685,2.795c1.045,2.102,2.101,5.054,2.315,8.317v0.001c0,0.01,0.002,0.02,0.002,0.029
		c0,0,0.125-0.143,0.362-0.398c0.05-0.056,0.107-0.118,0.167-0.181c0.829-0.881,2.574-2.659,4.885-4.575
		c1.121-0.931,2.374-1.891,3.72-2.797c2.779-1.872,5.949-3.507,9.16-4.145c0.004,0,0.008-0.002,0.012-0.002l2.198-9.635
		C47.394,15.165,38.92,18.928,32.676,26.998 M31.494,30.037c1.363-1.297,2.917-2.396,4.615-3.247
		C34.411,27.641,32.857,28.74,31.494,30.037 M36.958,26.394c-0.277,0.122-0.551,0.248-0.821,0.382
		C36.407,26.642,36.681,26.516,36.958,26.394"/>
	<path style="clip-path:url(#SVGID_2_);fill:#164397;" d="M45.185,24.802c-3.211,0.638-6.381,2.272-9.16,4.145
		c-1.347,0.906-2.6,1.866-3.721,2.796c-2.31,1.916-4.055,3.695-4.884,4.576c-0.06,0.063-0.117,0.125-0.167,0.181
		c-0.237,0.255-0.363,0.398-0.363,0.398c0-0.01-0.002-0.019-0.002-0.03c2.765-7.03,9.613-12.038,17.598-12.076
		C44.721,24.79,44.954,24.794,45.185,24.802"/>
</g>
<g>
	<defs>
		<path id="SVGID_3_" d="M12.283,29.34c0,9.232,7.522,16.754,16.754,16.754S45.79,38.572,45.79,29.34
			c0-0.192-0.022-0.377-0.029-0.567c-1.175,0.253-2.423,0.694-3.735,1.316c-0.392,6.828-6.053,12.278-12.989,12.278
			c-7.19,0-13.028-5.852-13.028-13.027c0-7.176,5.852-13.028,13.028-13.028c2.42,0,4.681,0.678,6.625,1.834
			c1.058-0.903,2.097-1.718,3.082-2.431c-2.742-1.961-6.088-3.129-9.707-3.129C19.805,12.586,12.283,20.108,12.283,29.34"/>
	</defs>
	<clipPath id="SVGID_4_">
		<use xlink:href="#SVGID_3_"  style="overflow:visible;"/>
	</clipPath>
	
		<linearGradient id="SVGID_5_" gradientUnits="userSpaceOnUse" x1="-2.504699e-006" y1="72.4025" x2="1" y2="72.4025" gradientTransform="matrix(-33.5063 0 0 33.5063 45.7899 -2396.6028)">
		<stop  offset="0" style="stop-color:#FF8900"/>
		<stop  offset="0.0059" style="stop-color:#FF8800"/>
		<stop  offset="0.2438" style="stop-color:#FF5800"/>
		<stop  offset="0.4695" style="stop-color:#FF3200"/>
		<stop  offset="0.6772" style="stop-color:#FF1600"/>
		<stop  offset="0.8605" style="stop-color:#FF0600"/>
		<stop  offset="1" style="stop-color:#FF0000"/>
	</linearGradient>
	<rect x="12.283" y="12.586" style="clip-path:url(#SVGID_4_);fill:url(#SVGID_5_);" width="33.507" height="33.508"/>
</g>
</svg>
