<svg xmlns="http://www.w3.org/2000/svg" xmlns:xlink="http://www.w3.org/1999/xlink" viewBox="0 0 501.09 424.23"><defs><style>.cls-1{opacity:0;}.cls-2{fill:url(#linear-gradient);}.cls-3{fill:#164397;}.cls-4{fill:url(#linear-gradient-2);}.cls-5{fill:none;}.cls-6{fill:url(#linear-gradient-3);}.cls-7{fill:url(#linear-gradient-4);}.cls-8{fill:url(#linear-gradient-5);}.cls-9{fill:url(#linear-gradient-6);}</style><linearGradient id="linear-gradient" x1="447.01" y1="155.55" x2="156.65" y2="155.55" gradientUnits="userSpaceOnUse"><stop offset="0" stop-color="#ff8900"/><stop offset="0.01" stop-color="#ff8700"/><stop offset="0.25" stop-color="#ff5700"/><stop offset="0.47" stop-color="#ff3100"/><stop offset="0.68" stop-color="#ff1600"/><stop offset="0.86" stop-color="#ff0600"/><stop offset="1" stop-color="red"/></linearGradient><linearGradient id="linear-gradient-2" x1="453.1" y1="-769.04" x2="433.9" y2="-767.46" gradientTransform="translate(-49.26 854.92) rotate(4.68)" xlink:href="#linear-gradient"/><linearGradient id="linear-gradient-3" x1="446.97" y1="203.81" x2="249.59" y2="203.81" xlink:href="#linear-gradient"/><linearGradient id="linear-gradient-4" x1="447.01" y1="113.06" x2="156.65" y2="113.06" xlink:href="#linear-gradient"/><linearGradient id="linear-gradient-5" x1="446.98" y1="113.47" x2="156.62" y2="113.47" xlink:href="#linear-gradient"/><linearGradient id="linear-gradient-6" x1="273.57" y1="318.32" x2="61.75" y2="318.32" xlink:href="#linear-gradient"/></defs><title>ic-step-2</title><g id="Layer_2" data-name="Layer 2"><g id="Layer_4" data-name="Layer 4"><g class="cls-1"><path class="cls-2" d="M387.44,270.75a9,9,0,0,1-6.35-15.34l25.83-25.78c41.27-41.22,18.48-96.09-13.59-130.56C381.84,86.71,369,76.39,356.22,69.23c-11.57-6.5-66.1-25.15-102,9.78l-77.43,77c-3.12,3.11-2.27,4-.86,5.39,7.31,7.38,32.11,11,46.81-3.52l19.52-19.24c17.21-15.62,36.34-9.84,53.21-4.74,19,5.73,36.92,11.15,57.78-5.3a9,9,0,1,1,11.13,14.1c-28.22,22.27-53.66,14.58-74.11,8.39-16.77-5.07-26.7-7.55-35.67.6l-19.25,19c-22.17,21.84-58.51,17.18-72.19,3.36-9-9.12-8.65-21.19,1-30.76l77.5-77.11C282,27,342.16,40.74,365,53.55c14.39,8.06,28.74,19.57,41.48,33.28C447,130.34,466.71,195.3,419.61,242.34l-25.83,25.78A9,9,0,0,1,387.44,270.75Z"/></g><path class="cls-3" d="M60.73,242.94a9,9,0,0,1-6.35-2.63L28.6,214.57C-19.38,166.66-.45,103.46,37.45,65c40.31-40.89,106.11-58,153.87-11.46l17.44,17.36a9,9,0,0,1-12.67,12.73L178.71,66.36c-41.12-40-95.44-22.23-128.48,11.28C18.38,110,2,162.61,41.29,201.86L67.08,227.6a9,9,0,0,1-6.35,15.34Z"/><path class="cls-4" d="M465,126.19a9.63,9.63,0,1,1-8.81-10.38A9.63,9.63,0,0,1,465,126.19Zm0,0"/><path class="cls-5" d="M406.49,86.83c16.22,17.44,29.1,38.33,35.7,60.13l7,8.21,29.27-24.84a9.7,9.7,0,0,0,1.12-13.66l-79-93.13a9.69,9.69,0,0,0-13.65-1.12L365,41a9.57,9.57,0,0,0-2.59,11.21c.89.45,1.83.89,2.63,1.34C379.4,61.62,393.74,73.12,406.49,86.83Z"/><path class="cls-6" d="M434.47,167.63,427,158.78c5.57,24.11,1.5,49.34-20,70.85L403,233.5a9,9,0,1,0,12.69,12.72l3.92-3.87c18.11-18.09,26.31-38.83,27.27-60h0Z"/><path class="cls-7" d="M340.26,56.35c-1.54-2-.26-7.18,1.34-11.79-28.46-7.41-69.78-7.75-100,21.64l-77.5,77.11c-9.61,9.57-10,21.65-1,30.76,13.68,13.81,50,18.48,72.19-3.36l19.25-19c9-8.15,18.9-5.67,35.67-.6,20.44,6.18,45.89,13.88,74.11-8.39a9,9,0,1,0-11.13-14.1c-20.86,16.45-38.79,11-57.78,5.3-16.87-5.1-36-10.88-53.21,4.74l-19.52,19.24c-14.7,14.49-39.5,10.9-46.81,3.52-1.41-1.42-2.26-2.28.86-5.39l77.43-77c30.24-29.43,73.71-20.82,93.57-13.5l-7-8.29A5.49,5.49,0,0,0,340.26,56.35Z"/><path class="cls-8" d="M442.18,147l-78.34-92.3a9.68,9.68,0,0,1-1.47-2.45,105.78,105.78,0,0,0-20.78-7.65c-1.6,4.6-2.88,9.82-1.34,11.79a5.49,5.49,0,0,1,.51.87l7,8.29a62,62,0,0,1,8.42,3.71c12.79,7.16,25.62,17.48,37.11,29.84,15.33,16.48,28.52,37.63,33.62,59.71l7.52,8.85,12.4,14.74h0A105.75,105.75,0,0,0,442.18,147Z"/><path class="cls-3" d="M494.23,104.22,480,87.48a1,1,0,0,0,.05-.12l-65.7-77.19a29,29,0,0,0-40.81-3.28L337,38l-7.38,6.29h0l12.55,14.61,7.53,8.85L361,81l66,77.75,7.52,8.85,12.4,14.74h0l7.39-6.27L490.89,145A29,29,0,0,0,494.23,104.22Zm-15.8,26.12-29.27,24.84-7-8.21L431,133.82l.19,0L363.8,54.65l-7-8.2,29.24-24.89a9.7,9.7,0,0,1,13.66,1.1L418.3,44.49h0l61.26,72.18a9.7,9.7,0,0,1-1.12,13.66Z"/><path class="cls-3" d="M333.88,356.49A31.29,31.29,0,0,1,311,346.77L259.62,294a9,9,0,0,1,12.87-12.53l51.41,52.82c7.46,7.66,18.51,3.63,24-1.69,3.32-3.22,9.89-11.91-.74-22.89l-50.25-51.85a9,9,0,1,1,12.9-12.51L360,297.16c16.68,17.22,11.88,37.09.36,48.28A38.83,38.83,0,0,1,333.88,356.49Z"/><path class="cls-3" d="M330.09,354a32,32,0,0,0-9.43-23.19l-25.57-26a9,9,0,0,0-12.81,12.59l25.57,26c7.56,7.68,3.7,18.4-1.43,23.55-3.11,3.12-11.52,9.21-22.51-1.52a9,9,0,1,0-12.55,12.85c17.2,16.79,36.39,12.77,47.78,1.34A37.62,37.62,0,0,0,330.09,354Z"/><path class="cls-3" d="M371.87,321.36c-8,0-16.68-3.39-24.73-11.69l-46.77-48.22a9,9,0,1,1,12.89-12.51L360,297.16c9.79,10.09,17.43,5.65,21.12,2.1,6.4-6.15,9-17.35,1.94-24.7L283.32,170a9,9,0,0,1,13-12.4l99.79,104.61c14.64,15.36,10.11,37.94-2.49,50.05A31.59,31.59,0,0,1,371.87,321.36Z"/><path class="cls-9" d="M264,344.37l-2.75-2.75a32.65,32.65,0,0,0-16.68-8.93A32.79,32.79,0,0,0,239,293.9l-2.74-2.75h0A32.59,32.59,0,0,0,220,282.36,33,33,0,0,0,215.88,241l-2.74-2.75a32.62,32.62,0,0,0-23.23-9.6h0a32.63,32.63,0,0,0-23.23,9.6l-1.95,1.95a32.45,32.45,0,0,0-8.63-15.48L153.35,222a32.64,32.64,0,0,0-23.22-9.58h0A32.6,32.6,0,0,0,106.89,222L71.34,257.55a32.9,32.9,0,0,0,0,46.46l2.74,2.74a32.6,32.6,0,0,0,23.23,9.57h0q1.63,0,3.24-.16c0,.65-.09,1.29-.09,1.95a32.62,32.62,0,0,0,9.59,23.22l2.74,2.74A32.6,32.6,0,0,0,136,353.64a33.51,33.51,0,0,0,5.38-.47v0A32.61,32.61,0,0,0,151,376.42l2.74,2.75a32.75,32.75,0,0,0,23.23,9.6,33.15,33.15,0,0,0,4.39-.42c0,.12,0,.23,0,.35a32.62,32.62,0,0,0,9.58,23.21l2.74,2.74a32.62,32.62,0,0,0,23.23,9.58h0a32.61,32.61,0,0,0,23.22-9.57L264,390.83A32.9,32.9,0,0,0,264,344.37Zm-166.63-46h0A14.78,14.78,0,0,1,86.8,294l-2.74-2.74a14.91,14.91,0,0,1,0-21.06l35.54-35.55a14.76,14.76,0,0,1,10.52-4.32h0a14.78,14.78,0,0,1,10.53,4.33l2.74,2.74a15,15,0,0,1,0,21.06L107.85,294A14.75,14.75,0,0,1,97.33,298.36Zm28.17,33-2.74-2.74a15,15,0,0,1,0-21L179.37,251a14.79,14.79,0,0,1,10.53-4.33h0A14.76,14.76,0,0,1,200.43,251l2.75,2.75a15,15,0,0,1,0,21l-56.61,56.61A15.36,15.36,0,0,1,125.51,331.37Zm40.94,35.1-2.75-2.75a15,15,0,0,1,0-21l38.81-38.81a14.9,14.9,0,0,1,21.05,0l2.75,2.75a14.9,14.9,0,0,1,0,21.05L187.5,366.47A14.89,14.89,0,0,1,166.45,366.47Zm84.82,11.65L227.43,402a14.78,14.78,0,0,1-10.52,4.31h0A14.76,14.76,0,0,1,206.38,402l-2.74-2.75a15,15,0,0,1,0-21l23.83-23.83a14.9,14.9,0,0,1,21.06,0l2.74,2.74A15.09,15.09,0,0,1,251.26,378.12Z"/></g></g></svg>