<svg xmlns="http://www.w3.org/2000/svg" xmlns:xlink="http://www.w3.org/1999/xlink" viewBox="0 0 162.82 239.65"><defs><style>.cls-1{fill:url(#linear-gradient);}.cls-2{fill:#164397;}</style><linearGradient id="linear-gradient" x1="38.19" y1="164.08" x2="124.63" y2="164.08" gradientUnits="userSpaceOnUse"><stop offset="0" stop-color="#ff8900"/><stop offset="0.01" stop-color="#ff8700"/><stop offset="0.25" stop-color="#ff5700"/><stop offset="0.47" stop-color="#ff3100"/><stop offset="0.68" stop-color="#ff1600"/><stop offset="0.86" stop-color="#ff0600"/><stop offset="1" stop-color="red"/></linearGradient></defs><title>ic-bao-hiem-1</title><g id="Layer_2" data-name="Layer 2"><g id="Layer_1-2" data-name="Layer 1"><path class="cls-1" d="M88.09,223.14v10.69a5.82,5.82,0,0,1-5.82,5.82h0A5.91,5.91,0,0,1,76.08,234c0-.07,0-.13,0-.2V223.33a56.19,56.19,0,0,1-35.78-14.41,7.28,7.28,0,0,1-2.1-5.15,8.3,8.3,0,0,1,7.73-8.4,7.94,7.94,0,0,1,4.77,1.72A49.52,49.52,0,0,0,76,208.26V170.09c-17.65-4.77-36.06-10.78-36.06-32.44,0-17.65,14.6-30.91,36.06-32.44V94.34a5.91,5.91,0,0,1,6-5.83h.2A5.82,5.82,0,0,1,88,94.34h0V105.6a50.35,50.35,0,0,1,29.86,12,7.28,7.28,0,0,1,2.1,5.15,8.2,8.2,0,0,1-8.21,8.11,7.07,7.07,0,0,1-3.91-1.24,44.78,44.78,0,0,0-19.75-8.59v33.58c17.65,4.77,36.54,11.64,36.54,34.16C124.63,205.59,114.14,221.42,88.09,223.14Zm-12-102.75c-11.16.86-18.51,7.25-18.51,16.12s8.11,12,18.51,15.07Zm12,53.33v34.73c14.12-1.72,19.08-10.3,19.08-17.56C107.27,180.88,98.87,176.77,88.09,173.72Z"/><path class="cls-2" d="M110.9,84.88a2.7,2.7,0,0,1-2.7-2.58l0-.9-.67-.66c-1.89-1.73-8.66-5.1-20.78-5.52-1.14,0-2.86-.06-4.85-.06s-3.82,0-5.09.06c-12.36.35-19.42,3.8-21.42,5.58l-.69.61,0,.92a2.7,2.7,0,0,1-2.7,2.57h-.13A2.72,2.72,0,0,1,49,82.26l0-.53-.26-.46c-1.41-2.5-9.22-6.2-21.51-6.2C16.79,75.07,9.8,77.65,7,79.86l-.69.54S6.06,82,6,82.24c-.26,2-2.53,2.63-3.32,2.63A2.71,2.71,0,0,1,0,82.16a7.11,7.11,0,0,1,1-3.49l.19-.33L1.2,78C7.61,41.37,39.47,13.21,77,11L79,10.9V3.46a2.71,2.71,0,1,1,5.41,0V10.9l2.06.12a80.71,80.71,0,0,1,75.11,67l.07.37.19.33a7.11,7.11,0,0,1,1,3.49,2.71,2.71,0,0,1-2.71,2.71c-1.07,0-3.1-.9-3.33-2.7l-.25-1.76-.69-.54c-2.82-2.21-9.8-4.79-20.22-4.79-12.29,0-20.1,3.7-21.51,6.2l-.26.46,0,.53A2.76,2.76,0,0,1,110.9,84.88ZM27.2,69.66c7.51,0,14.69,1.33,19.69,3.65l2.79,1.3L50,71.55c1-9.77,4.46-34.15,14.94-49.48l3.29-4.81L62.58,18.7A76.62,76.62,0,0,0,9,69l-1.27,4,4-1.2A54.68,54.68,0,0,1,27.2,69.66ZM98.36,22.05c10.12,15.21,13.49,39.67,14.47,49.48l.31,3.07,2.8-1.3c5-2.32,12.18-3.65,19.68-3.65a54.69,54.69,0,0,1,15.51,2.09l4,1.2-1.26-4a76.34,76.34,0,0,0-53.11-50.26l-5.56-1.45ZM81.74,16.29c-11.55,0-22.82,23.45-26.22,54.54l-.38,3.51,3.31-1.21c6-2.2,14.53-3.47,23.29-3.47S98.51,70.85,104.37,73l3.32,1.22-.38-3.51C103.93,39.18,93.17,16.29,81.74,16.29Z"/><path class="cls-2" d="M81.41,0h0a6,6,0,0,1,6,6v6a0,0,0,0,1,0,0h-12a0,0,0,0,1,0,0V6A6,6,0,0,1,81.41,0Z"/></g></g></svg>