<?xml version="1.0" encoding="iso-8859-1"?>
<!-- Generator: Adobe Illustrator 19.0.0, SVG Export Plug-In . SVG Version: 6.00 Build 0)  -->
<svg version="1.1" id="Layer_1" xmlns="http://www.w3.org/2000/svg" xmlns:xlink="http://www.w3.org/1999/xlink" x="0px" y="0px"
	 viewBox="0 0 100 100" style="enable-background:new 0 0 100 100;" xml:space="preserve">
<g id="XMLID_2_">
	<path id="XMLID_11_" style="fill:#1B4695;" d="M80.99,77.023L62.804,90.774c-2.218,1.663-4.547,3.105-6.875,4.325
		c-1.663,0.887-2.329,1.109-2.772,1.22l-0.222,0.111c-1.885,0.444-3.549,0.665-9.426-1.331c-5.988-2.107-12.42-3.881-12.42-3.992
		l-0.333-0.111l-0.222-0.111c0,0-1.996-0.998-6.099,1.553c-3.327,2.107-7.097,4.547-9.648,6.21c-0.776,0.444-1.553,0.776-2.44,0.776
		c-0.444,0-0.887-0.111-1.331-0.222c-1.331-0.333-2.329-1.331-2.772-2.551l-6.875-16.19c-0.998-2.218,0.111-4.879,2.329-5.766
		l17.743-7.541c2.44-0.998,4.879-1.663,7.208-1.996c2.107-0.222,3.881-0.222,5.434,0.111c3.659,0.887,7.984,2.661,8.761,2.994
		l3.659,1.109c0.111,0,2.661,0.887,5.323-0.111c2.551-0.998,5.212-0.222,7.652,1.996c0.222,0.222,0.444,0.444,0.554,0.665
		l15.636-6.654h0.222c2.551-0.333,6.543,0.444,7.319,4.436C84.206,73.474,82.321,76.136,80.99,77.023z M17.559,91.661l-6.432-15.303
		l-5.656,2.329l6.875,16.301C13.789,94.101,15.563,92.881,17.559,91.661z M78.994,70.591c-0.222-0.998-1.553-1.109-2.107-0.998
		l-15.525,6.543c0,0.222-0.111,0.554-0.222,0.776c-0.333,1.22-1.996,2.661-2.218,2.994c-1.663,1.442-3.881,2.551-4.436,2.772
		c-0.665,0.333-4.214,2.107-7.319,1.663c-2.883-0.333-8.871-1.885-9.093-1.996c-1.22-0.333-1.885-1.553-1.553-2.772
		c0.333-1.22,1.553-1.885,2.661-1.553c0.111,0,5.988,1.553,8.428,1.885c1.663,0.222,4.103-0.887,4.768-1.22l0.111-0.111
		c0.554-0.222,2.329-1.109,3.327-2.107c0.333-0.222,0.776-0.776,0.998-1.109c0,0,0,0,0-0.111c-0.111-0.111-0.111-0.333-0.111-0.554
		c-0.111-0.222-0.222-0.333-0.333-0.444c-0.776-0.776-1.996-1.553-3.105-1.109c-4.214,1.663-8.206,0.222-8.317,0.222l-3.992-1.331
		c0,0-4.547-1.996-8.095-2.772c-0.554-0.111-1.109-0.111-1.774-0.111s-1.331,0-2.107,0.111c-1.996,0.222-3.992,0.887-5.988,1.663
		l-7.984,3.438l6.21,14.638c0.222-0.111,0.554-0.333,0.776-0.444c5.545-3.438,9.204-2.329,10.424-1.774
		c1.109,0.333,6.986,1.996,12.42,3.881c5.101,1.774,5.988,1.442,6.875,1.22l0.333-0.111c0,0,0.444-0.111,1.774-0.887
		c2.107-1.109,4.214-2.44,6.21-3.992l18.186-13.751C78.44,73.364,79.438,72.476,78.994,70.591z"/>
	<linearGradient id="XMLID_15_" gradientUnits="userSpaceOnUse" x1="98.8442" y1="33.0539" x2="7.9118" y2="33.0539">
		<stop  offset="0" style="stop-color:#F6891F"/>
		<stop  offset="0.1356" style="stop-color:#F47920"/>
		<stop  offset="0.3916" style="stop-color:#F15B22"/>
		<stop  offset="0.6293" style="stop-color:#EF4123"/>
		<stop  offset="0.8394" style="stop-color:#EE2B24"/>
		<stop  offset="1" style="stop-color:#ED2224"/>
	</linearGradient>
	<path id="XMLID_3_" style="fill:url(#XMLID_15_);" d="M72.673,28.785c-0.665-0.998-0.444-2.329,0.554-3.105
		c0.998-0.665,2.329-0.444,3.105,0.554c0.444,0.665,0.887,1.442,1.331,2.107c0.554,1.109,0.111,2.44-0.998,2.994
		c-0.333,0.111-0.665,0.222-0.998,0.222c-0.776,0-1.553-0.444-1.996-1.22C73.339,29.783,73.006,29.339,72.673,28.785z
		 M37.298,53.292l14.86,11.866c0.444,0.333,0.887,0.444,1.331,0.444c0.444,0,0.998-0.111,1.331-0.444l14.86-11.976
		c4.99-4.436,9.648-9.537,9.648-17.078c0-1.22-0.998-2.218-2.218-2.218s-2.218,0.998-2.218,2.218c0,5.545-3.105,9.315-8.095,13.751
		L53.378,60.611L39.96,49.965c-4.99-4.436-8.095-8.206-8.095-13.751c0-6.986,5.656-12.642,12.642-12.642
		c2.772,0,5.323,0.887,7.541,2.551c0.776,0.554,1.885,0.554,2.661,0c2.218-1.663,4.768-2.551,7.541-2.551
		c2.107,0,4.214,0.554,5.988,1.553c1.109,0.554,2.44,0.222,2.994-0.887s0.222-2.44-0.887-2.994c-2.44-1.331-5.323-1.996-8.095-1.996
		c-3.216,0-6.21,0.887-8.871,2.551c-2.661-1.663-5.766-2.551-8.871-2.551c-9.426,0-17.078,7.652-17.078,17.078
		C27.54,43.644,32.197,48.745,37.298,53.292z M96.626,38.21h-8.871c-1.22,0-2.218,0.998-2.218,2.218c0,1.22,0.998,2.218,2.218,2.218
		h8.871c1.22,0,2.218-0.998,2.218-2.218C98.844,39.208,97.846,38.21,96.626,38.21z M79.327,20.468c0.665,0,1.22-0.222,1.663-0.776
		l5.877-6.654c0.776-0.887,0.665-2.329-0.222-3.105c-0.887-0.776-2.329-0.665-3.105,0.222l-5.877,6.543
		c-0.776,0.887-0.665,2.329,0.222,3.105C78.218,20.246,78.772,20.468,79.327,20.468z M53.378,13.814c1.22,0,2.218-0.998,2.218-2.218
		V2.725c0-1.22-0.998-2.218-2.218-2.218c-1.22,0-2.218,0.998-2.218,2.218v8.871C51.16,12.816,52.158,13.814,53.378,13.814z
		 M10.13,42.646h8.871c1.22,0,2.218-0.998,2.218-2.218c0-1.22-0.998-2.218-2.218-2.218H10.13c-1.22,0-2.218,0.998-2.218,2.218
		C7.912,41.648,8.91,42.646,10.13,42.646z M25.876,19.691c0.444,0.444,0.998,0.776,1.663,0.776c0.554,0,0.998-0.222,1.442-0.554
		c0.887-0.776,0.998-2.218,0.222-3.105l-5.877-6.764c-0.776-0.887-2.218-0.998-3.105-0.222s-0.998,2.218-0.222,3.105L25.876,19.691z
		"/>
</g>
</svg>
