<?xml version="1.0" encoding="iso-8859-1"?>
<!-- Generator: Adobe Illustrator 19.0.0, SVG Export Plug-In . SVG Version: 6.00 Build 0)  -->
<svg version="1.1" id="Layer_1" xmlns="http://www.w3.org/2000/svg" xmlns:xlink="http://www.w3.org/1999/xlink" x="0px" y="0px"
	 viewBox="0 0 100 100" style="enable-background:new 0 0 100 100;" xml:space="preserve">
<path id="XMLID_66_" style="fill:#1B4695;" d="M50.778,59.023c-3.706,0-6.626,3.032-6.626,6.626c0,3.706,3.032,6.626,6.626,6.626
	c3.594,0,6.626-3.032,6.626-6.626C57.403,61.943,54.371,59.023,50.778,59.023z M50.778,68.871c-1.822,0-3.223-1.401-3.223-3.223
	c0-1.822,1.401-3.223,3.223-3.223c1.822,0,3.223,1.401,3.223,3.223C54.001,67.47,52.459,68.871,50.778,68.871z"/>
<g id="XMLID_10_">
	<g id="XMLID_20_">
		<path id="XMLID_38_" style="opacity:0;fill:#1B4695;stroke:#1B4695;stroke-miterlimit:10;" d="M63.255,35.584l-4.687-2.268
			l-4.687,2.268V18.389h9.374L63.255,35.584L63.255,35.584z M58.568,30.408l2.071,1.002V21.005h-4.142v10.405L58.568,30.408z"/>
		<path id="XMLID_35_" style="fill:#1B4695;stroke:#1B4695;stroke-miterlimit:10;" d="M64.423,88.093H37.136V76.919h27.287V88.093
			L64.423,88.093z M39.687,85.542h22.185v-6.073H39.687V85.542z"/>
		<g id="XMLID_21_">
			<g id="XMLID_32_">
				<path id="XMLID_34_" style="fill:#1B4695;stroke:#1B4695;stroke-miterlimit:10;" d="M66.7,47.431l-1.153-2.349
					c6.392-3.135,10.523-9.756,10.523-16.866c0-0.473-0.186-0.922-0.524-1.262c-0.335-0.334-0.782-0.519-1.255-0.519h-4.122v-2.617
					h4.122c1.172,0,2.275,0.456,3.106,1.286c0.833,0.836,1.29,1.94,1.29,3.111C78.687,36.316,73.982,43.858,66.7,47.431z"/>
				<path id="XMLID_33_" style="fill:#1B4695;stroke:#1B4695;stroke-miterlimit:10;" d="M34.856,47.43
					c-7.282-3.573-11.987-11.115-11.987-19.215c0-1.171,0.457-2.275,1.288-3.108c0.833-0.833,1.937-1.289,3.108-1.289h4.122v2.617
					h-4.122c-0.474,0-0.921,0.185-1.257,0.522c-0.336,0.337-0.522,0.786-0.522,1.259c0,7.109,4.131,13.73,10.523,16.866
					L34.856,47.43z"/>
			</g>
			<path id="XMLID_29_" style="fill:#1B4695;stroke:#1B4695;stroke-miterlimit:10;" d="M74.613,99.5h-47.67v-8.248h47.67
				L74.613,99.5L74.613,99.5z M29.559,96.884h42.437v-3.015H29.559V96.884z"/>
			<path id="XMLID_26_" style="fill:#1B4695;stroke:#1B4695;stroke-miterlimit:10;" d="M70.406,93.868H31.153V71.144h39.253
				L70.406,93.868L70.406,93.868z M33.77,91.252h34.02V73.761H33.77V91.252z"/>
			<path id="XMLID_23_" style="fill:#1B4695;stroke:#1B4695;stroke-miterlimit:10;" d="M62.309,73.761H39.248v-2.473
				c0-1.076,0.419-2.087,1.179-2.847c0.762-0.761,1.772-1.179,2.847-1.179c2.133,0,3.869-1.735,3.869-3.867
				c0-1.368-0.725-2.64-1.895-3.332c-0.179-0.084-0.355-0.176-0.532-0.271c-8.751-4.593-14.639-18.526-14.639-34.665v-6.738h41.402
				v6.738c0,16.139-5.888,30.072-14.651,34.671c-0.166,0.089-0.341,0.18-0.52,0.265c-1.171,0.693-1.896,1.964-1.896,3.332
				c0,2.132,1.736,3.867,3.869,3.867c1.074,0,2.085,0.418,2.846,1.179c0.762,0.762,1.181,1.773,1.181,2.848L62.309,73.761
				L62.309,73.761z M41.872,71.144h17.813c-0.032-0.322-0.174-0.622-0.406-0.854c-0.266-0.266-0.621-0.413-0.996-0.413
				c-3.576,0-6.486-2.908-6.486-6.483c0-2.321,1.248-4.478,3.256-5.629l0.11-0.056c0.148-0.068,0.292-0.144,0.437-0.223
				c7.814-4.1,13.263-17.405,13.263-32.36v-4.121H32.694v4.121c0,14.956,5.449,28.26,13.25,32.354
				c0.157,0.084,0.303,0.162,0.451,0.229l0.108,0.055c2.008,1.151,3.257,3.308,3.257,5.629c0,3.575-2.909,6.483-6.486,6.483
				c-0.376,0-0.73,0.147-0.997,0.414C42.045,70.522,41.903,70.821,41.872,71.144z"/>
			<path id="XMLID_22_" style="opacity:0;fill:#1B4695;stroke:#1B4695;stroke-miterlimit:10;" d="M40.068,46.251
				c-2.783-5.683-4.33-13.112-4.355-20.919l2.617-0.008c0.024,7.418,1.476,14.442,4.088,19.777L40.068,46.251z"/>
		</g>
	</g>
	<g id="XMLID_16_">
		<linearGradient id="XMLID_2_" gradientUnits="userSpaceOnUse" x1="75.7196" y1="11.0158" x2="68.2575" y2="11.0158">
			<stop  offset="0" style="stop-color:#F6891F"/>
			<stop  offset="0.1356" style="stop-color:#F47920"/>
			<stop  offset="0.3916" style="stop-color:#F15B22"/>
			<stop  offset="0.6293" style="stop-color:#EF4123"/>
			<stop  offset="0.8394" style="stop-color:#EE2B24"/>
			<stop  offset="1" style="stop-color:#ED2224"/>
		</linearGradient>
		<path id="XMLID_19_" style="fill:url(#XMLID_2_);" d="M69.848,15.043c0.485,0,0.889-0.162,1.212-0.566l4.282-4.848
			c0.566-0.646,0.485-1.697-0.162-2.262s-1.697-0.485-2.262,0.162l-4.282,4.767c-0.566,0.646-0.485,1.697,0.162,2.262
			C69.04,14.881,69.444,15.043,69.848,15.043z"/>
		<linearGradient id="XMLID_3_" gradientUnits="userSpaceOnUse" x1="52.5581" y1="5.3475" x2="49.3265" y2="5.3475">
			<stop  offset="0" style="stop-color:#F6891F"/>
			<stop  offset="0.1356" style="stop-color:#F47920"/>
			<stop  offset="0.3916" style="stop-color:#F15B22"/>
			<stop  offset="0.6293" style="stop-color:#EF4123"/>
			<stop  offset="0.8394" style="stop-color:#EE2B24"/>
			<stop  offset="1" style="stop-color:#ED2224"/>
		</linearGradient>
		<path id="XMLID_18_" style="fill:url(#XMLID_3_);" d="M50.942,10.195c0.889,0,1.616-0.727,1.616-1.616V2.116
			c0-0.889-0.727-1.616-1.616-1.616c-0.889,0-1.616,0.727-1.616,1.616v6.463C49.326,9.468,50.054,10.195,50.942,10.195z"/>
		<linearGradient id="XMLID_4_" gradientUnits="userSpaceOnUse" x1="33.7079" y1="10.9754" x2="26.2458" y2="10.9754">
			<stop  offset="0" style="stop-color:#F6891F"/>
			<stop  offset="0.1356" style="stop-color:#F47920"/>
			<stop  offset="0.3916" style="stop-color:#F15B22"/>
			<stop  offset="0.6293" style="stop-color:#EF4123"/>
			<stop  offset="0.8394" style="stop-color:#EE2B24"/>
			<stop  offset="1" style="stop-color:#ED2224"/>
		</linearGradient>
		<path id="XMLID_17_" style="fill:url(#XMLID_4_);" d="M30.906,14.477c0.323,0.323,0.727,0.566,1.212,0.566
			c0.404,0,0.727-0.162,1.05-0.404c0.646-0.566,0.727-1.616,0.162-2.262l-4.282-4.928c-0.566-0.646-1.616-0.727-2.262-0.162
			c-0.646,0.566-0.727,1.616-0.162,2.262L30.906,14.477z"/>
	</g>
	<g id="XMLID_11_">
		<path id="XMLID_13_" style="fill:#EA262A;" d="M49.921,38.125c-0.725,0.964-1.53,2.074-2.181,3.166c0,0-0.259-1.344-0.759-2.786
			c-0.481-1.386-1.455-3.099-1.97-3.794l-4.103,1.522c0.015,0.019,0.412,0.478,0.621,0.796c0.336,0.508,0.898,1.335,1.444,2.465
			c0.896,1.855,1.801,4.459,1.984,7.338c0,0,0,0,0,0c0,0.009,0.002,0.018,0.002,0.026c0,0,0.108-0.127,0.311-0.351
			c0.043-0.049,0.092-0.104,0.143-0.16c0.71-0.777,2.206-2.346,4.187-4.036c0.961-0.82,2.035-1.667,3.189-2.467
			c2.382-1.652,5.1-3.094,7.853-3.656c0,0,0,0,0,0c0.003,0,0.007-0.002,0.01-0.002l1.885-8.501
			C62.539,27.686,55.274,31.006,49.921,38.125z M48.027,41.737c2.093-2.39,4.842-4.161,7.951-5.006
			C52.869,37.576,50.12,39.347,48.027,41.737z"/>
		<linearGradient id="XMLID_7_" gradientUnits="userSpaceOnUse" x1="60.6443" y1="41.519" x2="44.9583" y2="41.519">
			<stop  offset="0.35" style="stop-color:#EF7D24"/>
			<stop  offset="0.9" style="stop-color:#EA262A"/>
		</linearGradient>
		<path id="XMLID_8_" style="fill:url(#XMLID_7_);" d="M60.644,36.188c-2.753,0.562-5.471,2.005-7.853,3.656
			c-1.154,0.8-2.229,1.647-3.189,2.467c-1.981,1.69-3.477,3.259-4.187,4.036c-0.051,0.056-0.101,0.111-0.143,0.16
			c-0.203,0.225-0.311,0.351-0.311,0.351c0-0.009-0.002-0.018-0.002-0.026c2.37-6.202,8.241-10.62,15.087-10.653
			C60.246,36.177,60.446,36.181,60.644,36.188"/>
	</g>
</g>
</svg>
