<?xml version="1.0" encoding="iso-8859-1"?>
<!-- Generator: Adobe Illustrator 19.0.0, SVG Export Plug-In . SVG Version: 6.00 Build 0)  -->
<svg version="1.1" id="Layer_1" xmlns="http://www.w3.org/2000/svg" xmlns:xlink="http://www.w3.org/1999/xlink" x="0px" y="0px"
	 viewBox="0 0 100 100" style="enable-background:new 0 0 100 100;" xml:space="preserve">
<path style="fill:#1B4695;" d="M50.611,21.886c-3.706,0-6.626,3.032-6.626,6.626c0,3.706,3.032,6.626,6.626,6.626
	c3.594,0,6.626-3.032,6.626-6.626C57.237,24.806,54.205,21.886,50.611,21.886z M50.611,31.735c-1.822,0-3.223-1.401-3.223-3.223
	s1.401-3.223,3.223-3.223c1.822,0,3.223,1.401,3.223,3.223S52.293,31.735,50.611,31.735z"/>
<g id="XMLID_7_">
	<linearGradient id="XMLID_9_" gradientUnits="userSpaceOnUse" x1="89.4447" y1="92.4438" x2="69.6745" y2="92.4438">
		<stop  offset="0" style="stop-color:#F6891F"/>
		<stop  offset="0.1356" style="stop-color:#F47920"/>
		<stop  offset="0.3916" style="stop-color:#F15B22"/>
		<stop  offset="0.6293" style="stop-color:#EF4123"/>
		<stop  offset="0.8394" style="stop-color:#EE2B24"/>
		<stop  offset="1" style="stop-color:#ED2224"/>
	</linearGradient>
	<path id="XMLID_4_" style="fill:url(#XMLID_9_);" d="M72.336,84.888c-1.479,0-2.662,1.183-2.662,2.662
		c0,1.479,1.183,2.662,2.662,2.662c5.873,0,10.72,4.229,11.658,9.789h5.451C88.292,91.551,81.115,84.888,72.336,84.888z"/>
	<linearGradient id="XMLID_10_" gradientUnits="userSpaceOnUse" x1="70.2492" y1="78.2482" x2="31.1179" y2="78.2482">
		<stop  offset="0" style="stop-color:#F6891F"/>
		<stop  offset="0.1356" style="stop-color:#F47920"/>
		<stop  offset="0.3916" style="stop-color:#F15B22"/>
		<stop  offset="0.6293" style="stop-color:#EF4123"/>
		<stop  offset="0.8394" style="stop-color:#EE2B24"/>
		<stop  offset="1" style="stop-color:#ED2224"/>
	</linearGradient>
	<path id="XMLID_3_" style="fill:url(#XMLID_10_);" d="M31.118,100h5.629c1.001-6.528,6.55-11.715,13.261-12.007h2.366
		c6.416,0.729,11.53,5.632,12.521,12.007h5.354c-0.936-8.818-7.712-16.006-16.545-17.331V59.158c0-1.479-1.183-2.662-2.662-2.662
		c-1.479,0-2.662,1.183-2.662,2.662v23.511C39.303,83.694,32.119,90.957,31.118,100z"/>
	<linearGradient id="XMLID_11_" gradientUnits="userSpaceOnUse" x1="31.5239" y1="92.5177" x2="11.7775" y2="92.5177">
		<stop  offset="0" style="stop-color:#F6891F"/>
		<stop  offset="0.1356" style="stop-color:#F47920"/>
		<stop  offset="0.3916" style="stop-color:#F15B22"/>
		<stop  offset="0.6293" style="stop-color:#EF4123"/>
		<stop  offset="0.8394" style="stop-color:#EE2B24"/>
		<stop  offset="1" style="stop-color:#ED2224"/>
	</linearGradient>
	<path id="XMLID_2_" style="fill:url(#XMLID_11_);" d="M28.862,85.035c-8.73,0-15.871,6.447-17.085,14.965h5.457
		c0.998-5.486,5.807-9.641,11.627-9.641c1.479,0,2.662-1.183,2.662-2.662S30.341,85.035,28.862,85.035z"/>
	<path id="XMLID_1_" style="fill:#1B4695;" d="M29.596,56.874v5.195c0,1.237,0.99,2.226,2.226,2.226h6.308v9.029
		c0,1.237,0.99,2.226,2.226,2.226c1.237,0,2.226-0.99,2.226-2.226v-9.029h0.247c1.237,0,2.226-0.99,2.226-2.226
		c0-1.237-0.99-2.226-2.226-2.226h-8.906v-2.845c0-0.866,0.371-1.855,0.866-2.598l4.453-6.308c1.113-1.484,1.608-3.216,1.608-5.071
		V21.87c0-2.103,0.742-4.082,2.103-5.566l8.04-9.4l8.164,9.4c1.361,1.484,2.103,3.463,2.103,5.566v21.275
		c0,1.608,0.495,3.34,1.361,4.7l4.082,6.432c0.495,0.742,0.742,1.608,0.742,2.474v3.092h-8.782c-1.237,0-2.226,0.99-2.226,2.226
		c0,1.237,0.866,2.226,2.103,2.226v9.029c0,1.237,1.113,2.35,2.35,2.35s2.226-0.99,2.226-2.226v-9.029h6.556
		c1.237,0,2.226-0.99,2.226-2.226v-5.319c0-1.732-0.371-3.463-1.361-4.948l-4.082-6.432c-0.371-0.742-0.618-1.484-0.618-2.35V21.746
		c0-3.092-1.113-6.185-3.216-8.535l-9.895-11.38c-0.495-0.495-1.113-0.742-1.732-0.742c-0.618,0-1.361,0.247-1.732,0.742
		l-9.771,11.38c-1.979,2.474-3.092,5.442-3.092,8.535v21.151c0,0.866-0.247,1.732-0.742,2.474l-4.453,6.308
		C30.214,53.163,29.596,55.019,29.596,56.874z"/>
</g>
</svg>
