<svg xmlns="http://www.w3.org/2000/svg" xmlns:xlink="http://www.w3.org/1999/xlink" viewBox="0 0 209.28 180.28"><defs><style>.cls-1{fill:none;}.cls-2{clip-path:url(#clip-path);}.cls-3{fill:#eb2027;}.cls-4{clip-path:url(#clip-path-2);}.cls-5{fill:url(#linear-gradient);}</style><clipPath id="clip-path" transform="translate(0)"><rect class="cls-1" width="209.28" height="180.28"/></clipPath><clipPath id="clip-path-2" transform="translate(0)"><path class="cls-1" d="M185.15,79.86c-66.23.31-123,41.85-146,100.17,0,.08,0,.17,0,.25s1-1.19,3-3.3c.41-.46.89-1,1.39-1.5a461.54,461.54,0,0,1,40.51-38c9.3-7.71,19.69-15.68,30.86-23.2,23.05-15.53,49.35-29.09,76-34.38-1.58-.05-3.17-.09-4.77-.09h-1"/></clipPath><linearGradient id="linear-gradient" y1="180.28" x2="1" y2="180.28" gradientTransform="matrix(-151.77, 0, 0, 151.77, 190.95, -27231.36)" gradientUnits="userSpaceOnUse"><stop offset="0" stop-color="#ed7d23"/><stop offset="0.35" stop-color="#ed7d23"/><stop offset="0.9" stop-color="#e72429"/><stop offset="1" stop-color="#e72429"/></linearGradient></defs><title>log-small</title><g id="Layer_2" data-name="Layer 2"><g id="Layer_1-2" data-name="Layer 1"><g class="cls-2"><path class="cls-3" d="M87.2,98.16a345.27,345.27,0,0,0-21.1,29.77,208,208,0,0,0-7.34-26.19c-4.65-13-14.08-29.14-19.06-35.68L0,80.38a95.2,95.2,0,0,1,6,7.49A185.66,185.66,0,0,1,20,111c8.67,17.44,17.43,41.93,19.2,69h0c0,.08,0,.17,0,.25s1-1.19,3-3.3c.41-.46.89-1,1.39-1.5a461.41,461.41,0,0,1,40.51-38c9.3-7.71,19.69-15.68,30.86-23.2,23-15.53,49.35-29.09,76-34.38h0l.1,0L209.28,0S139,31.22,87.2,98.16M73.84,126.83A158.4,158.4,0,0,1,125,92.16a158.4,158.4,0,0,0-51.12,34.67" transform="translate(0)"/></g><g class="cls-4"><rect class="cls-5" x="39.18" y="79.86" width="151.77" height="100.43"/></g></g></g></svg>