<svg xmlns="http://www.w3.org/2000/svg" xmlns:xlink="http://www.w3.org/1999/xlink" viewBox="0 0 451 261"><defs><style>.cls-1{fill:#164397;}.cls-2{fill:url(#linear-gradient);}</style><linearGradient id="linear-gradient" x1="361.58" y1="130.5" x2="0" y2="130.5" gradientUnits="userSpaceOnUse"><stop offset="0" stop-color="#ff8900"/><stop offset="0.01" stop-color="#ff8700"/><stop offset="0.25" stop-color="#ff5700"/><stop offset="0.47" stop-color="#ff3100"/><stop offset="0.68" stop-color="#ff1600"/><stop offset="0.86" stop-color="#ff0600"/><stop offset="1" stop-color="red"/></linearGradient></defs><title>ic-fast-easy</title><g id="Layer_2" data-name="Layer 2"><g id="blue"><g id="_1" data-name="1"><path class="cls-1" d="M443.5,261h-304a7.5,7.5,0,0,1,0-15H436V15H200.5a7.5,7.5,0,0,1,0-15h243A7.5,7.5,0,0,1,451,7.5v246A7.5,7.5,0,0,1,443.5,261Z"/><path class="cls-1" d="M361.4,220.54H162a7.5,7.5,0,0,1,0-15H354.47a49.2,49.2,0,0,1,41-41V96.47a49.2,49.2,0,0,1-41-41H203a7.5,7.5,0,0,1,0-15H361.4a7.5,7.5,0,0,1,7.5,7.5A34.12,34.12,0,0,0,403,82a7.5,7.5,0,0,1,7.5,7.5v81.92A7.5,7.5,0,0,1,403,179,34.12,34.12,0,0,0,368.9,213,7.5,7.5,0,0,1,361.4,220.54Z"/></g></g><g id="orange"><path id="_1-2" data-name="1" class="cls-2" d="M203.54,97.5H218.7l-23.81,69H181.11l-23.61-69h15.59l15.16,52.38Zm25.61,0h15.3l27.72,48.11V97.5h13.6v69H271.18l-28.43-49v49h-13.6ZM343.37,99a23.05,23.05,0,0,1,11.9,8.75,30.52,30.52,0,0,1,5,11.14,52.82,52.82,0,0,1,1.33,11.42q0,13.76-5.59,23.31-7.59,12.87-23.42,12.87H302.46v-69h30.11A37.17,37.17,0,0,1,343.37,99Zm-26.75,10.49v45H330.1q10.34,0,14.42-10.06a35.07,35.07,0,0,0,2.23-13.15q0-10.53-3.34-16.17t-13.31-5.64ZM177,46.5a7.5,7.5,0,0,0-7.5-7.5h-92a7.5,7.5,0,0,0,0,15h92A7.5,7.5,0,0,0,177,46.5Zm-132,0A7.5,7.5,0,0,0,37.5,39h-13a7.5,7.5,0,0,0,0,15h13A7.5,7.5,0,0,0,45,46.5Zm48,42A7.5,7.5,0,0,0,85.5,81h-48a7.5,7.5,0,0,0,0,15h48A7.5,7.5,0,0,0,93,88.5Zm-6,48a7.5,7.5,0,0,0-7.5-7.5H7.5a7.5,7.5,0,0,0,0,15h72A7.5,7.5,0,0,0,87,136.5Zm44,78a7.5,7.5,0,0,0-7.5-7.5H7.5a7.5,7.5,0,0,0,0,15h116A7.5,7.5,0,0,0,131,214.5Zm16-126a7.5,7.5,0,0,0-7.5-7.5h-24a7.5,7.5,0,0,0,0,15h24A7.5,7.5,0,0,0,147,88.5Zm-9,48a7.5,7.5,0,0,0-7.5-7.5h-24a7.5,7.5,0,0,0,0,15h24A7.5,7.5,0,0,0,138,136.5Zm-39,36a7.5,7.5,0,0,0-7.5-7.5h-30a7.5,7.5,0,0,0,0,15h30A7.5,7.5,0,0,0,99,172.5Z"/></g></g></svg>