<svg xmlns="http://www.w3.org/2000/svg" xmlns:xlink="http://www.w3.org/1999/xlink" viewBox="0 0 477.06 387.14"><defs><style>.cls-1{fill:#164397;}.cls-2{fill:url(#linear-gradient);}.cls-3{fill:url(#linear-gradient-2);}.cls-4{fill:url(#linear-gradient-3);}.cls-5{fill:url(#linear-gradient-4);}</style><linearGradient id="linear-gradient" x1="286.86" y1="127.1" x2="161.2" y2="127.1" gradientUnits="userSpaceOnUse"><stop offset="0" stop-color="#ff8900"/><stop offset="0.01" stop-color="#ff8700"/><stop offset="0.25" stop-color="#ff5700"/><stop offset="0.47" stop-color="#ff3100"/><stop offset="0.68" stop-color="#ff1600"/><stop offset="0.86" stop-color="#ff0600"/><stop offset="1" stop-color="red"/></linearGradient><linearGradient id="linear-gradient-2" x1="330.9" y1="152.34" x2="205.23" y2="152.34" xlink:href="#linear-gradient"/><linearGradient id="linear-gradient-3" x1="241.04" y1="102.94" x2="115.37" y2="102.94" xlink:href="#linear-gradient"/><linearGradient id="linear-gradient-4" x1="366.17" y1="127.64" x2="110.89" y2="127.64" xlink:href="#linear-gradient"/></defs><title>ic-low-interest-rate.svg</title><g id="Layer_2" data-name="Layer 2"><g id="blue"><g id="_3" data-name="3"><path class="cls-1" d="M266.15,385.11a7.09,7.09,0,0,1-6.86-8.86c0-.18,4.75-18.3,11-37.81,13-40.69,20.07-47.88,22.38-50.24,22.8-23.29,70.52-40,85.33-43.44,8.89-2.07,17.2,1.87,20.67,9.8,3.4,7.78,1.53,19.23-10.33,27.27-15.25,10.35-42,28.25-42.25,28.43a7.08,7.08,0,1,1-7.88-11.77c.27-.18,27-18.05,42.18-28.38,5.12-3.48,6.35-7.46,5.3-9.87-.7-1.59-2.29-2.19-4.47-1.68-8,1.85-22.79,6.84-38,13.81-18.07,8.28-32,17.18-40.42,25.74-4.55,4.64-16.65,30.93-29.8,81.7A7.09,7.09,0,0,1,266.15,385.11Z"/><path class="cls-1" d="M323.15,387.14a7.09,7.09,0,0,1-7-8.47c2.64-13.27,7.28-30,14.39-34.56a403.66,403.66,0,0,1,62.3-32.71c19.11-8.27,24.8-11.19,28.92-23.08,4.5-13,40.35-119.4,40.71-120.47l0-.08c.47-1.48,1.13-5-2.15-6.79-.76-.42-1.31-.72-3.1.83-2.23,1.94-4.24,5.26-5.56,7.46l-.77,1.26c-1.92,3.08-21.64,40-34.43,64.07A7.08,7.08,0,1,1,404,227.95C407.3,221.77,436.15,167.5,439,163l.66-1.08c1.68-2.77,4.49-7.42,8.39-10.81,5.89-5.13,12.91-6.05,19.26-2.53,11.3,6.26,10.62,18.29,8.67,23.84C475,175.21,439.69,280,435.2,293c-6.35,18.3-17.77,23.24-36.68,31.44a390.89,390.89,0,0,0-60.1,31.52c-2.22,2.4-6.07,14.2-8.32,25.51A7.09,7.09,0,0,1,323.15,387.14Z"/><path class="cls-1" d="M210.91,385.11a7.09,7.09,0,0,1-6.85-5.31c-7-26.94-21.24-73-29.8-81.7-8.37-8.55-22.35-17.46-40.42-25.74-15.2-7-30-12-38-13.81-2.18-.51-3.78.09-4.47,1.68-1.05,2.41.18,6.39,5.3,9.87,15.22,10.32,41.91,28.2,42.18,28.38A7.08,7.08,0,1,1,131,310.25c-.27-.18-27-18.08-42.25-28.43-11.86-8-13.73-19.5-10.33-27.27,3.47-7.93,11.77-11.87,20.67-9.8,14.8,3.45,62.53,20.15,85.33,43.44,2.31,2.36,9.34,9.55,22.38,50.24,6.25,19.51,11,37.63,11,37.81a7.09,7.09,0,0,1-6.86,8.86Z"/><path class="cls-1" d="M153.91,387.13a7.09,7.09,0,0,1-6.94-5.7c-2.26-11.31-6.11-23.11-8.32-25.51a390.93,390.93,0,0,0-60.1-31.52C59.63,316.21,48.21,311.27,41.86,293,37.38,280,2.07,175.21,1.13,172.43c-2-5.55-2.62-17.58,8.67-23.84,6.35-3.52,13.37-2.6,19.26,2.53,3.9,3.4,6.71,8,8.39,10.81l.66,1.08c2.8,4.49,31.65,58.76,34.93,64.94a7.08,7.08,0,1,1-12.51,6.65C47.74,210.52,28,173.6,26.1,170.52l-.77-1.26c-5.21-8.61-7.24-9.07-8.66-8.28-3.29,1.82-2.62,5.31-2.15,6.79l0,.08c.36,1.07,36.21,107.5,40.71,120.47,4.12,11.89,9.82,14.8,28.92,23.08a403.66,403.66,0,0,1,62.3,32.71c7.12,4.53,11.76,21.29,14.39,34.56a7.09,7.09,0,0,1-7,8.47Z"/></g></g><g id="orange"><g id="_3-2" data-name="3"><polygon class="cls-2" points="225.18 168.39 212.43 168.39 252.77 85.82 265.52 85.82 225.18 168.39"/><path class="cls-3" d="M261,145.34a7,7,0,1,1-7,7,7,7,0,0,1,7-7m0-13.23a20.23,20.23,0,1,0,20.23,20.23A20.23,20.23,0,0,0,261,132.11Z"/><path class="cls-4" d="M216.07,95.94a7,7,0,1,1-7,7,7,7,0,0,1,7-7m0-13.23a20.23,20.23,0,1,0,20.23,20.23,20.23,20.23,0,0,0-20.23-20.23Z"/></g><path class="cls-5" d="M238.53,255.28a7.08,7.08,0,0,1-7.08-7.08V223.6a7.08,7.08,0,0,1,14.17,0V248.2A7.08,7.08,0,0,1,238.53,255.28Zm7.08-223.6V7.08a7.08,7.08,0,0,0-14.17,0V31.68a7.08,7.08,0,0,0,14.17,0Zm-96,96a7.08,7.08,0,0,0-7.08-7.08H118a7.08,7.08,0,0,0,0,14.17h24.59A7.08,7.08,0,0,0,149.65,127.64Zm216.52,0a7.08,7.08,0,0,0-7.08-7.08H334.49a7.08,7.08,0,0,0,0,14.17h24.59A7.08,7.08,0,0,0,366.17,127.64ZM175.69,64.79a7.09,7.09,0,0,0,0-10L158.3,37.39a7.09,7.09,0,1,0-10,10l17.39,17.39a7.09,7.09,0,0,0,10,0Zm153.1,153.1a7.09,7.09,0,0,0,0-10L311.4,190.49a7.09,7.09,0,0,0-10,10l17.39,17.39a7.09,7.09,0,0,0,10,0ZM311.4,64.79,328.79,47.4a7.09,7.09,0,1,0-10-10L301.38,54.77a7.09,7.09,0,0,0,10,10ZM158.3,217.9l17.39-17.39a7.09,7.09,0,0,0-10-10l-17.39,17.39a7.09,7.09,0,0,0,10,10Z"/></g></g></svg>