<svg xmlns="http://www.w3.org/2000/svg" xmlns:xlink="http://www.w3.org/1999/xlink" viewBox="0 0 249.28 220.28"><defs><style>.cls-1{fill:#eb2027;}.cls-2{fill:#fff;}.cls-3{fill:url(#EC_Gradient_OrangeRed_2);}</style><linearGradient id="EC_Gradient_OrangeRed_2" x1="210.95" y1="150.07" x2="59.18" y2="150.07" gradientUnits="userSpaceOnUse"><stop offset="0.35" stop-color="#ed7d23"/><stop offset="0.9" stop-color="#e72429"/></linearGradient></defs><title>ic-milestone-2022</title><g id="Layer_2" data-name="Layer 2"><g id="Layer_1-2" data-name="Layer 1"><path class="cls-1" d="M59.19,210.28a10,10,0,0,1-10-9.32q0-.22,0-.45c-1.91-28.62-12.19-53-18.17-65a171.22,171.22,0,0,0-12.69-21.13l-.59-.87a69.71,69.71,0,0,0-5.06-6.29l-.49-.57A10,10,0,0,1,16.61,91l39.7-14.31A10,10,0,0,1,67.66,80c5.18,6.81,15.29,23.71,20.52,38.37.7,2,1.35,3.9,2,5.79,3.21-4.39,6.35-8.5,9.15-12.13C152,43.89,222.26,12.18,225.22,10.86A10,10,0,0,1,239,22.22L220.8,102.15a10,10,0,0,1-8,7.63c-22.13,4.42-46.42,15.47-72.21,32.84-9.94,6.7-20.06,14.3-30.06,22.6a452.34,452.34,0,0,0-39.61,37.11c-.43.46-.84.9-1.2,1.3l-.14.16c-1.79,1.93-2.76,3-2.82,3.09A10,10,0,0,1,59.19,210.28Z"/><path class="cls-2" d="M229.28,20h0m0,0L211,99.93l-.1,0h0c-26.63,5.29-52.93,18.85-76,34.38-11.17,7.52-21.56,15.48-30.86,23.2a461.52,461.52,0,0,0-40.51,38c-.5.53-1,1-1.39,1.5-2,2.11-3,3.3-3,3.3s0-.16,0-.25h0C57.41,173,48.65,148.48,40,131a185.73,185.73,0,0,0-14-23.18,95.22,95.22,0,0,0-6-7.49L59.7,86.06c5,6.54,14.41,22.65,19.06,35.68a208.17,208.17,0,0,1,7.34,26.19,345.06,345.06,0,0,1,21.1-29.77C159,51.22,229.28,20,229.28,20m0-20-.9,0a19.9,19.9,0,0,0-7.71,1.93C213.6,5.16,145.33,37.36,93,103.85c-5.7-12.33-13-24.13-17.37-29.91a20,20,0,0,0-22.7-6.7L13.22,81.56a20,20,0,0,0-8.79,31.36c.06.08.3.37.71.84A62.15,62.15,0,0,1,9.42,119l.06.09.61.89a162.27,162.27,0,0,1,12,19.94c5.63,11.32,15.32,34.29,17.13,61.13,0,.22,0,.45,0,.68a20,20,0,0,0,35,11.71h0s.92-1,2.62-2.87l.28-.31c.3-.34.65-.71,1-1.09a442.13,442.13,0,0,1,38.72-36.27c9.75-8.09,19.6-15.49,29.27-22,24.63-16.59,47.66-27.12,68.44-31.3a20,20,0,0,0,16-15.24L248.66,25a20,20,0,0,0-19-25Zm0,40h0Z"/><path class="cls-3" d="M210.95,99.95c-26.63,5.29-52.93,18.85-76,34.38-11.17,7.52-21.56,15.48-30.86,23.2a461.53,461.53,0,0,0-40.51,38c-.5.53-1,1-1.39,1.5-2,2.11-3,3.3-3,3.3s0-.16,0-.25c22.93-58.32,79.74-99.86,146-100.17,1.95,0,3.88,0,5.8.08"/></g></g></svg>