<svg xmlns="http://www.w3.org/2000/svg" xmlns:xlink="http://www.w3.org/1999/xlink" viewBox="0 0 200.86 202.89"><defs><style>.cls-1,.cls-2{fill:#164397;}.cls-1{fill-rule:evenodd;}.cls-3{fill:url(#linear-gradient);}.cls-4{fill:url(#linear-gradient-2);}.cls-5{fill:url(#linear-gradient-3);}.cls-6{fill:url(#linear-gradient-4);}.cls-7{fill:url(#linear-gradient-5);}</style><linearGradient id="linear-gradient" x1="108.4" y1="74.71" x2="72.97" y2="74.71" gradientUnits="userSpaceOnUse"><stop offset="0" stop-color="#ff8900"/><stop offset="0.01" stop-color="#ff8700"/><stop offset="0.25" stop-color="#ff5700"/><stop offset="0.47" stop-color="#ff3100"/><stop offset="0.68" stop-color="#ff1600"/><stop offset="0.86" stop-color="#ff0600"/><stop offset="1" stop-color="red"/></linearGradient><linearGradient id="linear-gradient-2" x1="159.01" y1="74.71" x2="123.58" y2="74.71" xlink:href="#linear-gradient"/><linearGradient id="linear-gradient-3" x1="37.55" y1="151.27" x2="7.01" y2="151.27" xlink:href="#linear-gradient"/><linearGradient id="linear-gradient-4" x1="49.74" y1="138.91" x2="14.6" y2="138.91" xlink:href="#linear-gradient"/><linearGradient id="linear-gradient-5" x1="88.42" y1="158.15" x2="0" y2="158.15" xlink:href="#linear-gradient"/></defs><title>ic-milestone-2018</title><g id="Layer_2" data-name="Layer 2"><g id="Layer_1-2" data-name="Layer 1"><path class="cls-1" d="M126.52,147.85c9.91-1.48,20-4.94,26.71-11.69,8.39-8.38,14.92-22.6,14.92-35.32V57.58c0-12.72-6.53-25.61-14.92-34S132,8.67,119.24,8.67h-6.35c-12.72,0-25.61,6.53-34,14.92S64,44.86,64,57.58v43.26c0,3.12-1.21,4.33-4.33,4.33-2.44,0-3.09-3.59-4.48-3.5,0-16.35.15-27.95.15-44.1A57.73,57.73,0,0,1,112.89,0h6.35a57.73,57.73,0,0,1,57.58,57.58v2.78l-.31,46.44a57.83,57.83,0,0,1-48.78,51,12,12,0,0,1-1.2,2.82V147.85Z"/><path class="cls-2" d="M58.87,106.49H58.5C43.14,105.3,31.12,91.63,31.12,75.35s12-30,27.38-31.13a4.84,4.84,0,0,1,.74,9.65C48.9,54.66,40.8,64.1,40.8,75.35S48.9,96,59.24,96.83a4.84,4.84,0,0,1-.37,9.67Z"/><path class="cls-2" d="M173.1,106.49a4.84,4.84,0,0,1-.37-9.67c10.34-.79,18.44-10.23,18.44-21.48s-8.1-20.68-18.44-21.48a4.84,4.84,0,0,1-4.46-5.2,4.9,4.9,0,0,1,5.2-4.46c15.35,1.18,27.38,14.85,27.38,31.13s-12,30-27.38,31.13Z"/><path class="cls-2" d="M116,167.22a16,16,0,1,1,16-16A16,16,0,0,1,116,167.22Zm0-22.37a6.34,6.34,0,1,0,6.34,6.34A6.35,6.35,0,0,0,116,144.86Z"/><path class="cls-2" d="M59.5,55.23a4.84,4.84,0,0,1-1-9.58,50.89,50.89,0,0,0,34.63-25.7,4.84,4.84,0,0,1,7.73-1.06,50.62,50.62,0,0,0,36.67,15.55,51,51,0,0,0,25.12-6.6,4.84,4.84,0,0,1,4.77,8.42,60.73,60.73,0,0,1-29.89,7.86A60.14,60.14,0,0,1,98.46,29.84a60.5,60.5,0,0,1-38,25.29A4.94,4.94,0,0,1,59.5,55.23Z"/><path class="cls-3" d="M76.76,81.38a3.8,3.8,0,0,1-2.68-6.48,23.48,23.48,0,0,1,33.21,0,3.8,3.8,0,1,1-5.37,5.37,15.89,15.89,0,0,0-22.47,0A3.78,3.78,0,0,1,76.76,81.38Z"/><path class="cls-4" d="M127.38,81.38a3.8,3.8,0,0,1-2.68-6.48,23.48,23.48,0,0,1,33.21,0,3.8,3.8,0,0,1-5.37,5.37,15.89,15.89,0,0,0-22.47,0A3.78,3.78,0,0,1,127.38,81.38Z"/><path class="cls-5" d="M30.37,168.35A4,4,0,0,0,33,169.88a4,4,0,0,0,.52,0,4,4,0,0,0,3.17-6.45L14.19,134.19a4,4,0,0,0-6.35,4.88Z"/><path class="cls-6" d="M42.56,159a4,4,0,1,0,6.35-4.88L21.78,118.84a4,4,0,1,0-6.35,4.88Z"/><path class="cls-7" d="M81.44,148.69l-18-23.43a4,4,0,0,0-5.62-.73,18.8,18.8,0,0,0-6.51,9.4L36.71,115a4,4,0,1,0-6.35,4.88L58.95,157c-5.78,5.64-8.32,12.53-7.18,19.48a4,4,0,1,0,7.9-1.3c-.84-5.11,1.71-10.24,7.19-14.46a4,4,0,0,0,.73-5.62l-6.91-9A10.89,10.89,0,0,1,60,133.92l15.12,19.65A25.67,25.67,0,0,1,34.4,184.88L7.18,149.49a4,4,0,1,0-6.35,4.88l27.23,35.39a33.68,33.68,0,0,0,53.38-41.08Z"/></g></g></svg>