<svg xmlns="http://www.w3.org/2000/svg" xmlns:xlink="http://www.w3.org/1999/xlink" viewBox="0 0 66.78 70.25"><defs><style>.cls-1{fill:#1b4695;stroke:#1b4695;stroke-miterlimit:10;stroke-width:0.5px;}.cls-2{fill:url(#linear-gradient);}.cls-3{fill:url(#linear-gradient-2);}</style><linearGradient id="linear-gradient" x1="10.68" y1="19.03" x2="60.87" y2="19.03" gradientUnits="userSpaceOnUse"><stop offset="0" stop-color="#f6891f"/><stop offset="0.1" stop-color="#f57920"/><stop offset="0.37" stop-color="#f15322"/><stop offset="0.61" stop-color="#ef3823"/><stop offset="0.83" stop-color="#ee2824"/><stop offset="1" stop-color="#ed2224"/></linearGradient><linearGradient id="linear-gradient-2" x1="6.07" y1="41.47" x2="8.81" y2="41.47" xlink:href="#linear-gradient"/></defs><title>ic-milestone-2020</title><g id="Layer_2" data-name="Layer 2"><g id="Layer_1-2" data-name="Layer 1"><path class="cls-1" d="M65.16,67.27h-3V23.73a3.68,3.68,0,0,0-3.68-3.67h-6.7a3.68,3.68,0,0,0-3.67,3.67V67.27H40.5V43.45a3.68,3.68,0,0,0-3.67-3.68h-6.7a3.68,3.68,0,0,0-3.67,3.68V67.27H18.83V54.93a3.68,3.68,0,0,0-3.67-3.68H8.45a3.68,3.68,0,0,0-3.68,3.68V67.27H1.62a1.37,1.37,0,1,0,0,2.73H65.16a1.37,1.37,0,0,0,0-2.73Zm-49.07,0H7.51V54.93A.94.94,0,0,1,8.45,54h6.7a.94.94,0,0,1,.94.94Zm21.67,0H29.18V43.45a.94.94,0,0,1,.94-.94h6.7a.94.94,0,0,1,.94.94Zm21.67,0H50.85V23.73a.94.94,0,0,1,.94-.94h6.7a.94.94,0,0,1,.94.94Zm0,0"/><path class="cls-2" d="M60.87,1.44A1.36,1.36,0,0,0,59.43,0H51.1a1.37,1.37,0,1,0,0,2.73H56.2L42.69,16.25l-5.1-5.1a1.37,1.37,0,0,0-1.93,0L11.08,35.73A1.37,1.37,0,0,0,13,37.66L36.62,14.05l5.1,5.1a1.37,1.37,0,0,0,1.93,0L58.14,4.67V9.29a1.37,1.37,0,0,0,2.73,0V1.5s0,0,0-.07Zm0,0"/><path class="cls-3" d="M8.81,41.47A1.37,1.37,0,1,1,7.44,40.1a1.37,1.37,0,0,1,1.37,1.37Zm0,0"/></g></g></svg>