<svg xmlns="http://www.w3.org/2000/svg" xmlns:xlink="http://www.w3.org/1999/xlink" viewBox="0 0 256.14 313.48"><defs><style>.cls-1{fill:url(#linear-gradient);}.cls-2{fill:url(#linear-gradient-2);}.cls-3{fill:url(#linear-gradient-3);}.cls-4{fill:#164397;}</style><linearGradient id="linear-gradient" x1="406.11" y1="161.13" x2="-5.94" y2="161.13" gradientUnits="userSpaceOnUse"><stop offset="0" stop-color="#ff8900"/><stop offset="0.01" stop-color="#ff8700"/><stop offset="0.25" stop-color="#ff5700"/><stop offset="0.47" stop-color="#ff3100"/><stop offset="0.68" stop-color="#ff1600"/><stop offset="0.86" stop-color="#ff0600"/><stop offset="1" stop-color="red"/></linearGradient><linearGradient id="linear-gradient-2" x1="109.06" y1="162.72" x2="64.83" y2="162.72" xlink:href="#linear-gradient"/><linearGradient id="linear-gradient-3" x1="313.94" y1="239.32" x2="-98.11" y2="239.32" xlink:href="#linear-gradient"/></defs><title>ic-simple.svg</title><g id="Layer_2" data-name="Layer 2"><g id="orange"><g id="_2" data-name="2"><circle class="cls-1" cx="176.59" cy="161.13" r="16.72"/><path class="cls-2" d="M71.63,182.56a6.8,6.8,0,0,1-2.55-13.1l15.82-6.4-16.05-7.17a6.8,6.8,0,1,1,5.55-12.41L105,157.17a6.8,6.8,0,0,1-.23,12.51L74.17,182.06A6.78,6.78,0,0,1,71.63,182.56Z"/><path class="cls-3" d="M197,212.22a6.8,6.8,0,0,0-8.33,4.79c-.1.36-10.26,35.88-59.61,36-48.93-.15-59.2-34.61-59.61-36a6.8,6.8,0,1,0-13.13,3.54c.13.48,3.33,12,14,23.36,9.66,10.26,27.58,22.49,58.14,22.72h1.12c30.56-.23,48.48-12.46,58.15-22.72,10.7-11.36,13.9-22.88,14-23.36A6.8,6.8,0,0,0,197,212.22Z"/></g></g><g id="Layer_4" data-name="Layer 4"><path class="cls-4" d="M256.13,111a16.61,16.61,0,0,0-4.81-11.69l0-.09L217.68,65.6,190.6,38.51,157.27,5.18A16.6,16.6,0,0,0,145.3,0l-.05,0H25A25,25,0,0,0,0,25V288.48a25,25,0,0,0,25,25H231.14a25,25,0,0,0,25-25V111ZM156.34,81.52V33h0a3.81,3.81,0,0,1,6.45-2.75h0l8.3,8.3L226,93.43a3.79,3.79,0,0,1-2.21,6.37H166.34a10,10,0,0,1-10-10Zm85.8,207a11,11,0,0,1-11,11H25a11,11,0,0,1-11-11V25A11,11,0,0,1,25,14H142.34V81.52c0,.64,0,1.27.06,1.9V103.8a10,10,0,0,0,10,10h89.74Z"/></g></g></svg>