<svg xmlns="http://www.w3.org/2000/svg" preserveAspectRatio="xMidYMid" width="41.938" height="46.938" viewBox="0 0 41.938 46.938"><defs><style>.cls-1{fill:#fff;fill-rule:evenodd}</style></defs><path d="M41.739 8.483v.061c-.052-.123-.052-.306-.158-.428-.105.061-.053 0-.105.122-.159.367-.106.733-.37.977l.158 2.808c-.105-.184-.263-2.564-.369-3.174-.053-.366-.106-.733-.158-1.038-.106.061-.106.244-.37.122-.105-.061-.158-.122-.316-.183v1.16c.158.671.158.305.052.976-.052.244-.052.489-.052.733v3.174c0 .122.105.427-.159.671l-.052-.244c-.053.061-.475.732-.792.793-.106.061-.528 0-.739.122-.105.061-.053.183-.158.061-.053-.122-.106-.061-.264-.061h-1.478c-.422 0-.95-.061-1.372-.061l.106.061h-.475l.317-.061c-.212-.061-.212 0-.475 0-.159 0-.37-.061-.528-.061-.37 0-.686-.061-1.056-.061-.633-.061-1.477-.122-2.111-.061-.316.061-.738.122-1.002 0-.422-.183-.37-.732-.264-.854.158-.244.528.061.791-.367.528-.854.528-2.014.739-2.99.106-.55.106-.366.317-.611 0-.061.053-.122.105-.183.212-.183 1.109-1.281.581-1.526a20.673 20.673 0 0 0-.897-.244c-1.161-.305-.95-.061-1.161.305-.422.794-1.161.733-2.111.733-1.478 0-2.85 0-4.275-.183-.264-.061-1.847-.183-2.005-.244-.317-.122-.211-.611-.264-.977-.053-.244-.264-.671-.369-.854-.159-.245-.106-.245-.317-.306-.158-.061-.317-.122-.475-.122-.475-.061-.475.245-.369.733.264 1.098-.053 1.404-.053 2.258 0 .488.317 1.16.58 1.221.159.061.317.061.475.061l-.158-.122c.264-.305 3.589.488 4.169.549.739.122 1.53.122 2.269.061 1.056-.061 1.267-.183 2.164-.305-.053.305-.053.671-.106.976-.052.367-.052.428-.369.55-.158.061-.317.366-.422.61-.37.672-.37.549-.37 1.038v.549c.053.488 0 .549.212.793.158.123.897.977.949.977 1.161 0 2.27.061 3.378-.061.475-.061 1.003-.122 1.53-.183.528-.061 1.109 0 1.636-.061.106-.183.211-.183.422-.183.581-.061 1.214-.061 1.636-.122.317-.061.634-.183.95-.244.264-.061.634-.184.898-.245-.053.306-.212.733-.317.977-.106.244-.317.671-.37.855l.053-.062c.106-.122.475-.793.528-.915.158-.427.158-.855.528-.977v.244c.052.428.052.428-.106.672l-.844 1.587c.369-.305.739-1.404 1.002-1.587.053.854 0 1.892 0 2.807v14.039c0 .915.106 1.77.106 2.685 0 .611-.211.611-.686.549-.264-.061-.317 0-.528 0h-1.002v.001h.422l-.422.062c-.159.488-.106.671-.634.427-.58-.305-.158-.122-.686-.244-.105-.061-.158-.122-.211-.122-.158-.061-1.372.122-1.688.122-.159 0-.317.061-.528.061.053-.183 0-.122.105-.183.053-.061.264-.123.37-.123.422-.061.739-.122 1.161-.122l.58-.122 1.571.061c.035-.116.083-.226.118-.306.211.061.211.122.317.183.052-.305.105-.366.263-.488l.159.061c.158-.793.316-1.953.316-2.808 0-1.159-.264-1.464-.158-2.136.053-.305-.211-.244-.317-.366-.052-.244.106-1.038.106-1.343.053-1.22-.317-1.404-.475-2.441-.053-.427-.053-.916-.053-1.404 0-.977 0-1.953-.053-2.93v-2.258c-.052-.183-.105-.427-.052-.671.052-.061.052-.061.105-.061l-.211-.245-.475-.488c-.105-.122-.158-.122-.317-.183-.475-.061-1.266 0-1.741.061-.633.061-1.108.061-1.741.061-1.162 0-2.323.061-3.484.122-1.002.061-1.952.549-2.005-.427 0-.549.106-1.404-.158-1.892-.053-.122-.317-.366-.422-.488-.106.183-.475.061-.687.061h-.738c-2.533-.061-4.486-.245-6.966-.611-.422-.061-.845-.183-1.267-.244-.211-.061-.475-.061-.686-.061-.105 0-.211.061-.317.061a.374.374 0 0 0-.263.122l.263.122-1.794-.183c-.158 0-.739-.122-.844-.061l-1.003 1.16c-.211.366.158 2.624.211 3.052-.686 0-1.477-.062-2.163-.123-.739-.061-1.425-.122-2.164-.122-.739-.061-1.478-.061-2.217-.061l-1.952-.061h-.211c.527-.305 1.583-.183 2.269-.183h.422c.158 0 .792.122.897.122h-.422c.158.122.95.122 1.319.061-.052-.061 0-.061-.052-.061l-.634-.244c-.738-.244-1.53-.244-2.322-.305-.527 0-1.108-.122-1.636 0-.211.061-.316.244-.475.427-.158.183-.263.366-.422.488.053-.488.422-1.892.211-2.258-.052 0-.052.061-.052.061l-.053.061-.053-.122c-.211-.61-.844-.976-.95-1.648.37.061.633.122 1.003.183 1.108.122 2.269 0 3.43.061 1.478.061 3.061.122 4.591.061.792-.061 1.214-.183 1.742-.671.264-.244.475-.305.528-.732.052-.183.052-1.16 0-1.282 0-.122-.159-.305-.212-.427-.105-.183-.369-.733-.527-.794-.211-.061-.264-.061-.37-.244-.211-.305-.475-1.465-.58-2.014l.475.183c.95.244 2.058 0 3.008-.183.053 0 .475-.061.475-.122-.159 0-.37 0-.528-.061-.317-.061-.211 0-.264 0-.105.061-.105 0-.211-.061.264-.183 1.108.061 1.372.061-.58-.366-1.266-.244-1.952-.183-1.478.122-1.425-.244-1.742-.244-.105 0-.053 0-.105.061l-.053.061-.159-.122.106-.061c-1.003-.184-.633-.794-.897-1.404l-.106-.183-.264.061c.106 0 .211-.061.264 0-.053.122 0 .061-.158.061h-.581c-.158 0-.263 0-.369.061-.053.061-.106.061-.158.061-.106 0-.159 0-.159.061-.105.427.686 1.22.792 1.526-.264-.061-.581-.672-.792-.916l-.052-.061c.052.183.158.366.263.488.37.489.687.489.845 1.343.105.672.158 1.404.211 2.075 0 .306.053.367.211.489.264.183 1.161.61 1.003 1.098-.053.183-.211.305-.37.366-.58.184-1.794-.061-2.427-.122-1.056-.183-3.853-.305-5.066-.366-.317 0-.95 0-1.267-.061-.369-.122-.528-.366-.844-.549-.423-.305-1.9-.305-2.375-.244l.158.183c.475.732.686 2.441.897 3.296.106.488.264.61.422 1.037.37.916.053 1.892.317 2.747.264.793.739.732 1.108.061l.211-.488.053.061.106.366c.58 2.319-.158 2.807-.211 3.174-.053.427.158 1.403.211 1.892.053.366 0 .671.053 1.037.105.916.475 1.892.316 2.869-.053.61-.211.366-.105.793.158.733 0 2.32-.159 2.991-.105.244-.211.488-.264.794-.105.366.053.671 0 1.037-.263.122-.422.305-.527.611-.159.488-.106.61 0 1.037H.946v-5.493c0-.427.053-1.038 0-1.404 0-.427-.106-.793-.106-1.22l-.158-2.564c-.105-1.709-.158-3.479-.264-5.188-.105-1.709-.158-3.479-.211-5.249a177.539 177.539 0 0 1-.105-5.371V3.783c0-.427-.106-.305.422-.855.475-.549.369-.488.739-.488 1.847.061 2.744.122 4.591-.061.528-.122 1.583-.183 1.847-.61.369 0 .791.122 1.161.122.58.061 3.219.061 3.641-.061 0 .366.211.427.475.488.317.061 1.689-.427 2.164-.488l-.053-.061c.211 0 .317-.183 1.056-.244 1.319-.123 2.11.122 3.483-.245l-.106.367c.211 0 .528-.061.739-.061.264 0 .528-.061.791-.061 1.056-.062 2.164-.062 3.167-.184.791-.061.844-.122 1.425-.244l-.053.183c.211.183 1.319.061 1.741.061l-.052.061c0 .061-.053.061-.053.061l-.264.184c-.106.061-.264.122-.369.244.475 0 .58-.061 1.002.122.422.122.528.122.95.122-.158.061-.58.061-.686.244.264.183 1.003 0 1.319-.061.739-.183.739-.061 1.32 0l-.106-.427c.264.061.634.183.897.244.897.244 1.847.244 2.797.427.264.061.264 0 .423-.122.316-.305.422-.549.949-.732.475-.183.264.183.686.305.212.061.739.122.95 0 0-.122-.158-.122-.316-.183-.106-.061-.264-.061-.37-.122 1.161-.122 2.375-.122 3.536-.245.211 0 .158 0 .264.123l1.319 1.525.211.245c.106.061.159.061.159.244.052.549.105 4.394-.159 4.883zm-22.914.671c-.398.061-.932.153-1.448.222.52-.068 1.055-.16 1.448-.222zm-2.892.122c-.105.061-.052 0-.105.061l.002.001c.045-.053.001 0 .103-.059l.005-.004-.005.001zm.106-.061l-.003.003h.003c.07-.025.114-.035.174-.053-.061.018-.102.026-.174.05zm-1.741-1.16l-.001.001h.004l-.003-.001zm1.002.122c-.03 0-.068-.009-.1-.011l.048.01c.123.02.233.012.346.01-.095 0-.185.009-.294-.009zm1.647-.137c.135.003.23.014.253.014-.633.061-1.266.183-1.9.244-.316.061-.633.122-.949.122-.194.045-.554.088-.776.037.209.095.606.026.775.026.317-.062.634-.062.95-.123.633-.122 1.267-.183 1.953-.305-.027 0-.137-.015-.306-.015zm.622 1.114c-.538-.089-.715-.142-1.055-.072.321-.063.53-.012 1.055.075.685.121 1.212-.182 1.896-.122l.004-.003c-.686-.061-1.214.244-1.9.122zM12.504.548c-.106 0-.264-.183-.37-.244.422-.061.475-.061.739-.305 0 .244.106.305.106.427-.106.122-.37.183-.475.122zM9.548.794c.105-.061.158-.122.263-.122a.768.768 0 0 1 .634.122c-.211.122-.792.183-1.109.183l.212-.183zM2.266 41.131a3.551 3.551 0 0 1 2.111-.122c.211.061.791.244.897.366.105.122.158 1.038.105 1.221-.316.061-.369-.183-.527-.427-.423-.672-1.161-1.038-1.847-.733-1.636.733-1.531 4.883.422 5.005.211.061.633 0 .791-.122.211-.122.211-.488.211-.793 0-.184.053-.794-.052-.916-.053-.061-.528-.183-.634-.244 0-.122.053-.244.053-.305.264-.061.739 0 1.056 0H5.96c0 .366 0 .305-.422.549-.211.122-.211.122-.211.427v1.343c0 .183-.159.244-.317.305s-.317.061-.475.122a5.655 5.655 0 0 1-1.055.122c-.792 0-1.32-.061-1.9-.549-.422-.366-.739-.915-.897-1.709-.106-.793 0-1.648.316-2.258.264-.611.686-.977 1.267-1.282zm4.538 4.641c.106-.428.897-2.869 1.003-3.052h.264c.052.122.316.793.369 1.037.106.367.264.672.369 1.038.053.183.423 1.465.581 1.526.211.122.317-.061.317.305-.212 0-.581-.061-.845-.061s-.58.061-.844.061c0-.244 0-.183.158-.244.106-.061.211-.061.264-.122 0-.122-.264-.855-.317-.977h-.949c-.106.061-.159.367-.212.489-.263.732-.052.488.317.671v.183c-.158 0-.475-.061-.633-.061-.211 0-.37.061-.634.061v-.183c.581-.244.423 0 .792-.671zm1.161-.794c0-.183-.211-.671-.264-.854a.5.5 0 0 0-.105-.244l-.37 1.098h.739zm1.319-1.642c-.105-.305-.052-.183-.263-.366l.105-.122h1.161c0 .244-.105.183-.211.305 0 .122.844 2.381.95 2.686.105-.061.317-.55.369-.733.106-.244 0-.366-.158-.793-.106-.244-.211-.549-.317-.794-.052-.122-.105-.305-.211-.366-.211-.122-.316 0-.264-.305h.686c.264-.061.475-.061.686-.061v.183l-.263.061c0 .183.263.794.316.977.053-.122.317-.794.317-.916-.053-.061-.158-.061-.264-.122v-.183c.106-.061.792 0 .95 0v.183c-.369.183-.317.061-.528.488l-.316.733c-.106.244-.053.244 0 .427l.158.366c.053.122.211.672.264.733.053-.122.158-.55.211-.672.053-.183.158-.427.211-.61.106-.244.422-1.16.422-1.343l-.264-.122v-.183h.739c0 .366-.158.183-.264.427l-.527 1.526c-.212.671-.475 1.343-.687 2.014h-.263c-.106-.244-.475-1.282-.581-1.465-.158.122-.528 1.221-.686 1.465h-.264c-.053-.122-.105-.366-.158-.488-.053-.183-.106-.305-.158-.488l-.739-1.953c-.053-.184-.106-.306-.159-.489zM5.062 36.56c-.106.061-.053.183-.264.183-.158.061-.264 0-.369-.061-.475-.122-.528-.183-.898-.489l-.211-.244h2.533c-.105 0-.316 0-.316.061s.052.061.052.122l-.527.428zm8.813-6.963c-.053.305 0 .61 0 .916-.053.732-.422.366-.58.732-.317.854-.212 3.662-.264 4.7H8.598c-.422 0-.897.305-1.161.305.105-.061.052-.183 0-.305H5.801c.158-.244.158-.306.211-.733.053-.549.158-1.098 0-1.709-.106-.305-.158-.366-.369-.549.052-.61.263-.732-.053-1.587-.159-.488-.264-.732-.317-1.404-.053-.61 0-1.22 0-1.77v-1.77c0-1.831.053-3.54 0-5.371l-.105-1.709c2.321-.183 3.799-.183 6.121.061.475.061 1.003.122 1.478.183.211 0 .58 0 .739.061.158.061.316.305.369.489.106.366.106 1.342-.053 1.647-.158.367-.475.855-.369 1.343.053.244.158.366.211.672.158.793-.053 1.709 0 2.685.158.672.317 1.709.369 2.381 0 .244-.105.488-.158.732zm-.633 8.672c0-.306-.053-.55-.053-.794-.052-.488-.053-1.037-.105-1.526h3.061c-.053 1.221-.212 1.343-.317 2.32-.158-.061-.317-.061-.422.122-.053.122-.053.183-.053.122-.633-.244-.211.732-.792.671-.211 0-.897-.305-1.055-.427-.158-.122-.211-.183-.264-.488zm4.538 2.69c.581-.183 1.373-.183 2.006-.061.158.061.317.061.475.122.105 0 .105 0 .158.122.106.244.264.977.264 1.282-.581 0-.211.122-.739-.488-.422-.489-1.161-.855-1.794-.489-.686.427-.95 1.587-.897 2.747.052 2.319 1.636 2.685 2.586 1.77.633-.611.369-.855.95-.794 0 .183-.106.916-.212 1.038-.052.244-.105.305-.263.366-.739.427-2.375.427-3.167-.183-.739-.549-1.161-1.343-1.161-2.441 0-1.587.792-2.625 1.794-2.991zm3.959 4.753l.686-2.075c.105-.305.211-.671.317-.977h.263c.053.122.634 1.831.739 2.076.053.183.422 1.464.581 1.525.158.123.369-.061.316.306-.211 0-.58-.061-.844-.061s-.581.061-.844.061v-.183c.475-.184.58.061.316-.672-.211-.61 0-.488-1.161-.488-.105.244-.316.793-.264 1.037.106.062.211.062.423.123v.244c-.212 0-.423-.061-.634-.061-.211 0-.369.061-.633.061v-.183c.158-.061.369-.061.58-.245.053-.122.106-.366.159-.488zm1.214-.732c-.053-.305-.264-.794-.37-1.099l-.369 1.099h.739zm3.429-2.255c.634-.061 1.003.061 1.214.549.264.549.053 1.099-.264 1.404-.316.244-.686.305-1.055.122-.106-.061-.106-.122-.106-.305.317-.061.422.061.633-.183.159-.184.212-.428.159-.733-.053-.244-.158-.488-.317-.549-.105-.061-.211-.061-.316-.061-.212 0-.264 0-.317.122-.053.061 0 2.807 0 3.113a.42.42 0 0 0 .264.061l.211.061c.053.061 0 .061.053.061v.183c-.211 0-.581-.061-.845-.061s-.58.061-.791.061v-.183c.052-.061.369-.122.422-.244.053-.061-.053-2.381-.053-2.808 0-.366-.158-.305-.475-.366v-.244c.264 0 .528.061.792.061s.527-.061.791-.061zM24.06 17.027c.264-.061.422-.183.686-.183.211 0 .475.061.686.122.423.122.897.184 1.372.245.053.244.317 1.281.264 1.403-1.213.122-2.322.245-3.483.306-2.744.183-5.435.183-8.179.061-.317 0-.264.122-.264-.611-.053-.427-.159-1.587-.106-2.014 2.111 0 4.064.061 6.174.305.475.061 1.003.061 1.425.183.423.061.95.244 1.425.183zm-3.166-.854c-.369 0-.739-.061-1.055-.122-1.056-.244-2.059-.305-3.114-.366-.317 0-2.058-.061-2.164-.122.739-.489 2.692 0 3.694-.061h.159l.105-.061-.422-.183c.37 0 .792.122 1.161.122.422.061.792.061 1.161.122.37 0 .686.183 1.003.244.211.061.897.183 1.002.244-.686 0-1.477-.183-2.216-.122.422.183 2.322.427 2.691.61-.263 0-1.583-.244-2.005-.305zm6.228 9.707c.053.549.211 1.098.264 1.709.052.305 0 .61 0 .915-.053.611-.053 1.221-.159 1.953-.052.244-.211.55-.105.794.053.122.527.671 0 .976-.159.061-.211 0-.317.122-.369.55-.316 2.747-.369 3.601H16.145c0-.305 0-.671-.106-.976-.158-.366-.422-.061-.369-.672 0-.305.158-.671.106-.976-.053-.305-.211-.61-.317-.794-.264-.488-.211-1.342-.211-2.014v-2.197c.105-3.357.211-5.371-.053-8.789l1.425.183c1.53.122 3.114.061 4.644.061.844 0 5.647-.366 5.963.061-.158.122-3.008.061-3.535.183.105.061.211 0 .316.061-.58.061-2.586.183-3.166.122-.897-.061-2.111-.244-3.008-.122.897.489 3.536.489 4.644.55 2.111.061 2.691.061 4.749-.306 0 .367 0 .855-.105 1.16-.159.366-.422.61-.422.793.052.062.158.062.211.123-.053.305-.159.488-.159.854.053.305.106.61.159.855.264 1.098.105.793.211 1.77zm-.581 12.512c-.106-.733-.106-1.709-.053-2.503h2.955c-.053.55 0 2.198-.158 2.503-.475-.061-.37.183-.475.305-.106-.061-.264-.061-.317 0-.211.122-.105.732-.528.671-.263 0-.95-.305-1.108-.427-.211-.183-.264-.183-.316-.549zm3.219 4.388v.244c-.106.122-.317.122-.422.183v3.113c.105.061.211.061.316.061.159 0 .106.061.106.244-.158 0-.633-.061-.844-.061-.211 0-.634.061-.792.061v-.183c.528-.244.475.305.475-1.404 0-.305.053-1.709-.053-1.892-.105-.122-.264-.122-.422-.122v-.244c.739 0 .739.061 1.636 0zm.475-.18h.159l.158.245c.264.061 2.375.061 2.586 0a.507.507 0 0 0 .105-.245h.211v1.16l-.211.061c-.105-.122-.158-.305-.211-.427-.053-.183-.105-.183-.369-.183h-.422c-.053.183-.053 2.929 0 3.051.052.062.211.123.316.123.159 0 .159 0 .159.244-.37 0-.687-.061-1.056-.061-.264 0-.528.061-.792.061v-.183c.739-.489.634.488.634-2.503 0-.915.105-.793-.634-.793-.527 0-.474.366-.738.549l-.159-.061c0-.122.106-.366.106-.549.053-.122.105-.306.158-.489zm3.219-5.671c.369-.061.738-.061 1.108-.061.264 0 .739 0 .95.183l-1.742.244c-.052 0-.264-.305-.316-.366zM29.1 32.347c.027.238.002.454-.184.485 0-.672-.317-1.099-.264-2.076.106.183.264.672.317.977.027.094.107.364.131.614zm7.415 3.539h-7.071c-.053-1.404 0-3.662-.475-4.822-.264-.671-.211 0-.264-1.037-.053-.427-.053-.855-.053-1.282 0-.854 0-1.77.053-2.624.053-1.77.105-3.54.053-5.311-.053-1.098.791-.793 1.583-.793.422 0 .58-.183 1.003.061.105.061.738.488.791.366l.053-.122c.053-.061.053-.122.105-.122h.37c1.055 0 .791.061 1.952-.122.423-.061.898-.122 1.32-.122.475 0 .791-.122 1.214-.244.211 1.404.105 2.807.052 4.272 0 .733 0 1.465-.052 2.198-.053 1.098 0 2.075-.159 3.173-.052.367-.105.611-.158.977 0 .366 0 1.953-.106 2.136-.158.367-.422.122-.527.489-.211.549 0 1.953.105 2.563.053.305.159.061.211.366zm-2.058 7.751c.053-.244.211-.794.317-.977h.264c.105.122.158.306.211.489.369.915.633 1.709.95 2.624.052.183.105.427.211.488.264.123.369-.061.369.306-.264 0-.58-.061-.844-.061s-.581.061-.845.061c-.052-.244-.052-.183.159-.244.105-.062.158-.062.264-.123 0-.122-.264-.793-.317-.976h-.95c-.105.122-.211.549-.264.732-.105.428.106.367.422.428v.244c-.211 0-.422-.061-.633-.061-.211 0-.422.061-.633.061v-.183c.105-.122.316-.061.475-.306.053-.122.739-2.197.844-2.502zm-.105 1.343h.738c0-.183-.263-.855-.369-1.099-.106.122-.158.427-.211.549-.053.122-.211.428-.158.55zm3.007 1.28c.105-.061.053-.183.053-.488l.052-2.076c0-.854-.158-.427-.527-.732 0-.122-.053-.183.105-.244.37 0 1.056.061 1.425 0 .106 0 .264 0 .211.183-.053.183-.422.061-.528.244 0 0-.105 2.869 0 3.113.423 0 1.056.061 1.373-.183.052-.061.158-.122.211-.244.211-.306.052-.367.369-.306 0 .184-.053 1.038-.106 1.099h-.263a22.215 22.215 0 0 0-2.85 0c-.053-.122-.053-.122 0-.244.106-.061.369-.061.475-.122z" class="cls-1"/></svg>