<svg xmlns="http://www.w3.org/2000/svg" xmlns:xlink="http://www.w3.org/1999/xlink" viewBox="0 0 387.06 387.62"><defs><style>.cls-1{fill:#164397;stroke:#164397;stroke-miterlimit:10;stroke-width:.5px}.cls-2{fill:url(#linear-gradient)}.cls-3{fill:url(#linear-gradient-2)}</style><linearGradient id="linear-gradient" x1="316.97" y1="128.62" x2="200.23" y2="128.62" gradientUnits="userSpaceOnUse"><stop offset="0" stop-color="#ff8900"/><stop offset=".01" stop-color="#ff8700"/><stop offset=".25" stop-color="#ff5700"/><stop offset=".47" stop-color="#ff3100"/><stop offset=".68" stop-color="#ff1600"/><stop offset=".86" stop-color="#ff0600"/><stop offset="1" stop-color="red"/></linearGradient><linearGradient id="linear-gradient-2" x1="387.06" y1="91.82" x2="203.36" y2="91.82" xlink:href="#linear-gradient"/></defs><title>ic-call</title><g id="Layer_2" data-name="Layer 2"><g id="blue"><path id="_9" data-name="9" class="cls-1" d="M306.11 240c-7.93-8.26-17.5-12.67-27.63-12.67s-19.7 4.33-28 12.59l-25.84 25.75c-2.13-1.15-4.25-2.21-6.3-3.27-2.94-1.47-5.72-2.86-8.1-4.34-24.2-15.37-46.19-35.4-67.29-61.32-10.22-12.92-17.09-23.79-22.07-34.83 6.7-6.13 12.92-12.51 19-18.64 2.29-2.29 4.58-4.66 6.87-6.95 17.17-17.17 17.17-39.41 0-56.58l-22.3-22.34c-2.53-2.53-5.15-5.15-7.6-7.76-4.91-5.07-10.06-10.3-15.37-15.21-7.93-7.85-17.42-12-27.39-12s-19.62 4.17-27.8 12l-.16.16-27.8 28a59.81 59.81 0 0 0-17.74 38c-2 23.87 5.07 46.11 10.47 60.66 13.24 35.73 33 68.84 62.54 104.32 35.81 42.76 78.9 76.52 128.11 100.32 18.8 8.91 43.9 19.46 71.94 21.25 1.72.08 3.52.16 5.15.16 18.89 0 34.75-6.78 47.17-20.28.08-.16.24-.24.33-.41a185.15 185.15 0 0 1 14.31-14.8c3.51-3.35 7.11-6.87 10.63-10.55 8.1-8.42 12.34-18.23 12.34-28.29s-4.33-19.87-12.59-28zm29.27 86.09c-.08 0-.08.08 0 0-3.19 3.44-6.46 6.54-10 10a214.94 214.94 0 0 0-15.78 16.35c-8.26 8.83-18 13-30.74 13-1.23 0-2.53 0-3.76-.08-24.28-1.55-46.85-11-63.77-19.13a363.22 363.22 0 0 1-120.65-94.57c-27.88-33.6-46.52-64.67-58.86-98-7.61-20.36-10.38-36.22-9.16-51.18a37.52 37.52 0 0 1 11.28-24.31l27.88-27.89c4-3.76 8.26-5.8 12.43-5.8 5.15 0 9.32 3.11 11.94 5.72l.24.24c5 4.66 9.73 9.48 14.72 14.63 2.54 2.62 5.15 5.23 7.76 7.93l22.32 22.32c8.67 8.67 8.67 16.68 0 25.34-2.37 2.37-4.66 4.74-7 7-6.87 7-13.41 13.57-20.52 19.95-.16.16-.33.25-.41.41-7 7-5.72 13.9-4.25 18.56l.25.74c5.8 14.06 14 27.31 26.41 43.09l.08.08c22.57 27.8 46.36 49.47 72.6 66.06a110.49 110.49 0 0 0 10.06 5.48c2.95 1.47 5.72 2.86 8.1 4.34.33.16.66.41 1 .57a17.73 17.73 0 0 0 8.09 2c6.79 0 11-4.25 12.43-5.64l28-28c2.78-2.78 7.2-6.13 12.35-6.13s9.24 3.19 11.77 6l45.21 45.21c8.42 8.34 8.42 16.93.08 25.59zm0 0"/></g><g id="orange"><g id="_9-2" data-name="9"><path class="cls-2" d="M209.31 92.15A105.22 105.22 0 0 1 295 177.83a11 11 0 0 0 10.87 9.17 15 15 0 0 0 1.88-.16 11 11 0 0 0 9.07-12.75A127.23 127.23 0 0 0 213.16 70.4a11.1 11.1 0 0 0-12.75 9 10.92 10.92 0 0 0 8.91 12.75zm0 0"/><path class="cls-3" d="M386.89 170.88A209.49 209.49 0 0 0 216.18.17a11 11 0 1 0-3.6 21.75 187.13 187.13 0 0 1 152.57 152.56 11 11 0 0 0 10.85 9.15 14.17 14.17 0 0 0 1.88-.16 10.83 10.83 0 0 0 9-12.59zm0 0"/></g></g></g></svg>