<svg xmlns="http://www.w3.org/2000/svg" xmlns:xlink="http://www.w3.org/1999/xlink" viewBox="0 0 513.27 392.69"><defs><style>.cls-1{fill:#164397}.cls-2{fill:url(#linear-gradient)}.cls-3{fill:url(#linear-gradient-2)}</style><linearGradient id="linear-gradient" x1="211.25" y1="239.88" x2="38.8" y2="239.88" gradientUnits="userSpaceOnUse"><stop offset="0" stop-color="#ff8900"/><stop offset=".01" stop-color="#ff8700"/><stop offset=".25" stop-color="#ff5700"/><stop offset=".47" stop-color="#ff3100"/><stop offset=".68" stop-color="#ff1600"/><stop offset=".86" stop-color="#ff0600"/><stop offset="1" stop-color="red"/></linearGradient><linearGradient id="linear-gradient-2" x1="274.05" y1="202.76" x2="-114.47" y2="202.76" xlink:href="#linear-gradient"/></defs><title>ic-faq</title><g id="Layer_2" data-name="Layer 2"><g id="blue"><path class="cls-1" d="M363.62 116.12A101.77 101.77 0 0 0 266 43.57h-2.4v18.21h2.4a83.55 83.55 0 0 1 83.65 83.65v2.4h18.25v-2.4a101.94 101.94 0 0 0-4.28-29.31z"/><path class="cls-1" d="M506.38 349.4l-102.3-102.3a7.5 7.5 0 0 0-10.61 0l-7.47 7.48-18.44-18.44a140.47 140.47 0 0 0 37-95.12c0-77.76-63.26-141-141-141s-141 63.26-141 141v2.5h19V141a122 122 0 1 1 122 122h-2.5v19h2.5a140.43 140.43 0 0 0 93-35.15l18.55 18.55-7.47 7.47a7.51 7.51 0 0 0 0 10.61L470 385.81a23.5 23.5 0 0 0 33.23 0l3.17-3.17a23.5 23.5 0 0 0 0-33.23zm-13.43 19.8l-3.17 3.17a4.5 4.5 0 0 1-6.36 0l-94.18-94.17 9.54-9.53 94.17 94.17a4.5 4.5 0 0 1 0 6.36z"/></g><g id="orange"><path class="cls-2" d="M191.11 229.75H38.8v-20.27h172.45v20.27h-20.14zm20 20.27H191v20.27h20.27V250zm-42.32 0H38.8v20.27h131.91V250h-1.93z"/><path class="cls-3" d="M213.15 309.58H36.75A36.79 36.79 0 0 1 0 272.83v-66.59a36.79 36.79 0 0 1 36.75-36.75h121.91l75.26-71a9.51 9.51 0 0 1 16 7v167.34a36.79 36.79 0 0 1-36.77 36.75zM36.75 188.52A17.74 17.74 0 0 0 19 206.24v66.59a17.74 17.74 0 0 0 17.72 17.72h176.4a17.74 17.74 0 0 0 17.72-17.72v-145.6l-62 58.75a9.51 9.51 0 0 1-6.46 2.53z"/></g></g></svg>