<svg xmlns="http://www.w3.org/2000/svg" xmlns:xlink="http://www.w3.org/1999/xlink" viewBox="0 0 347 394.29"><defs><style>.cls-1{fill:#164397}.cls-2{fill:url(#linear-gradient)}.cls-3{fill:url(#linear-gradient-2)}</style><linearGradient id="linear-gradient" x1="203.77" y1="255.18" x2="149.7" y2="255.18" gradientUnits="userSpaceOnUse"><stop offset="0" stop-color="#ff8900"/><stop offset=".01" stop-color="#ff8700"/><stop offset=".25" stop-color="#ff5700"/><stop offset=".47" stop-color="#ff3100"/><stop offset=".68" stop-color="#ff1600"/><stop offset=".86" stop-color="#ff0600"/><stop offset="1" stop-color="red"/></linearGradient><linearGradient id="linear-gradient-2" x1="262.35" y1="105.16" x2="91.1" y2="105.16" xlink:href="#linear-gradient"/></defs><title>ic-live-chat</title><g id="Layer_2" data-name="Layer 2"><g id="blue"><g id="_6" data-name="6"><path class="cls-1" d="M129.91 394.29a7.5 7.5 0 0 1-7.5-7.5v-39.88H42.52A42.57 42.57 0 0 1 0 304.39V165.58a42.57 42.57 0 0 1 42.52-42.52h58.15a7.5 7.5 0 0 1 0 15H42.52A27.55 27.55 0 0 0 15 165.58v138.81a27.55 27.55 0 0 0 27.52 27.52h87.39a7.5 7.5 0 0 1 7.5 7.5v34.21l68.5-40.62a7.49 7.49 0 0 1 3.83-1.05h94.75A27.55 27.55 0 0 0 332 304.39V165.58a27.55 27.55 0 0 0-27.52-27.52H277a7.5 7.5 0 1 1 0-15h27.52A42.57 42.57 0 0 1 347 165.58v138.81a42.57 42.57 0 0 1-42.52 42.52h-92.69l-78.05 46.33a7.49 7.49 0 0 1-3.83 1.05z" id="_6-2" data-name="6"/></g></g><g id="orange"><g id="_6-3" data-name="6"><path class="cls-2" d="M176.73 282.22a27 27 0 1 1 27-27 27.06 27.06 0 0 1-27 27zm0-39.07a12 12 0 1 0 12 12 12 12 0 0 0-12-12z"/><path class="cls-3" d="M261.13 71.28a85.62 85.62 0 0 0-170 14.3 27 27 0 1 0 54.06 0 31.56 31.56 0 1 1 36.11 31.25 36.69 36.69 0 0 0-31.58 36.35v30.07a27.07 27.07 0 0 0 27 27 27.07 27.07 0 0 0 27-27v-16.4a85.63 85.63 0 0 0 57.38-95.59zM236 124a70.43 70.43 0 0 1-38.51 29.11 12.26 12.26 0 0 0-8.72 11.7v18.44a12 12 0 1 1-24.06 0v-30a21.77 21.77 0 0 1 18.75-21.55 46.67 46.67 0 0 0 38.77-56.31A46.19 46.19 0 0 0 187 40.11 47 47 0 0 0 176.71 39a46.66 46.66 0 0 0-46.55 46.64 12 12 0 1 1-24.06 0A70.62 70.62 0 1 1 236 124z"/></g></g></g></svg>