<svg xmlns="http://www.w3.org/2000/svg" xmlns:xlink="http://www.w3.org/1999/xlink" viewBox="0 0 64.099 42.099"><defs><path id="a" d="M0 0h64.099v42.099H0z"/></defs><clipPath id="b"><use xlink:href="#a" overflow="visible"/></clipPath><path d="M6.05.05c-3.29 0-6 2.71-6 6v30c0 3.29 2.71 6 6 6h52c3.289 0 6-2.71 6-6v-30c0-3.29-2.711-6-6-6h-52zm0 4h52c1.143 0 2 .857 2 2v30c0 1.142-.857 2-2 2h-52c-1.143 0-2-.858-2-2v-30c0-1.143.857-2 2-2" clip-path="url(#b)" fill="#164397"/><path d="M6.05.05c-3.29 0-6 2.71-6 6v30c0 3.29 2.71 6 6 6h52c3.289 0 6-2.71 6-6v-30c0-3.29-2.711-6-6-6h-52zm0 4h52c1.143 0 2 .857 2 2v30c0 1.142-.857 2-2 2h-52c-1.143 0-2-.858-2-2v-30c0-1.143.857-2 2-2z" clip-path="url(#b)" fill="none" stroke="#164397" stroke-width=".099" stroke-miterlimit="10"/><defs><path id="c" d="M49.699 8.557l-.056.055-15.999 15.813c-.738.729-2.518.728-3.251 0L14.456 8.612a2 2 0 1 0-2.813 2.844l10.063 10-10 9.093a2.002 2.002 0 1 0 2.678 2.978l.01-.009 10.155-9.25 3.032 3c2.451 2.433 6.454 2.426 8.906 0l3.031-3 10.188 9.25a2.002 2.002 0 1 0 2.697-2.96l-.01-.009-10.031-9.125 10.094-9.968a2.001 2.001 0 0 0-2.757-2.899"/></defs><clipPath id="d"><use xlink:href="#c" overflow="visible"/></clipPath><linearGradient id="e" gradientUnits="userSpaceOnUse" y1="42.102" x2="1" y2="42.102" gradientTransform="matrix(-42.0534 0 0 42.0534 53.078 -1749.399)"><stop offset="0" stop-color="#ff8900"/><stop offset=".006" stop-color="#f80"/><stop offset=".244" stop-color="#ff5800"/><stop offset=".469" stop-color="#ff3200"/><stop offset=".677" stop-color="#ff1600"/><stop offset=".861" stop-color="#ff0600"/><stop offset="1" stop-color="red"/></linearGradient><path clip-path="url(#d)" fill="url(#e)" d="M10.816 7.959h42.472v26.308H10.816z"/></svg>