<svg xmlns="http://www.w3.org/2000/svg" xmlns:xlink="http://www.w3.org/1999/xlink" viewBox="0 0 387.059 387.621"><defs><path id="a" d="M0 0h387.059v387.621H0z"/></defs><clipPath id="b"><use xlink:href="#a" overflow="visible"/></clipPath><path d="M306.114 239.964c-7.932-8.255-17.497-12.67-27.632-12.67-10.057 0-19.705 4.331-27.96 12.591l-25.838 25.752c-2.128-1.146-4.251-2.207-6.295-3.269-2.942-1.473-5.725-2.862-8.097-4.335-24.199-15.37-46.191-35.402-67.285-61.318-10.22-12.919-17.086-23.794-22.072-34.827 6.702-6.132 12.917-12.512 18.966-18.644 2.292-2.287 4.579-4.658 6.87-6.949 17.166-17.166 17.166-39.407 0-56.576l-22.323-22.32c-2.532-2.535-5.151-5.15-7.601-7.764-4.907-5.07-10.057-10.304-15.37-15.21-7.932-7.849-17.417-12.017-27.39-12.017-9.976 0-19.62 4.168-27.796 12.017l-.164.163-27.8 28.045C7.863 73.096 1.896 85.85.586 100.65c-1.96 23.872 5.071 46.112 10.467 60.663 13.242 35.729 33.031 68.839 62.545 104.324 35.809 42.759 78.894 76.524 128.113 100.317 18.802 8.911 43.904 19.457 71.945 21.254 1.72.083 3.517.163 5.154.163 18.887 0 34.746-6.781 47.174-20.276.08-.163.244-.243.328-.406 4.251-5.15 9.153-9.813 14.307-14.799 3.513-3.354 7.11-6.866 10.626-10.547 8.096-8.419 12.344-18.232 12.344-28.288 0-10.135-4.331-19.869-12.587-28.044l-44.888-45.047zm29.271 86.089c-.084 0-.084.084 0 0-3.19 3.438-6.46 6.544-9.977 9.977-5.313 5.069-10.71 10.383-15.777 16.351-8.26 8.831-17.988 12.999-30.743 12.999-1.226 0-2.534 0-3.76-.08-24.28-1.554-46.847-11.039-63.769-19.13-46.277-22.404-86.911-54.209-120.677-94.513-27.876-33.604-46.519-64.671-58.862-98.029-7.606-20.355-10.384-36.22-9.158-51.179.818-9.568 4.494-17.497 11.282-24.283l27.879-27.881c4.005-3.76 8.256-5.804 12.428-5.804 5.15 0 9.318 3.11 11.937 5.724l.243.244c4.99 4.663 9.729 9.485 14.719 14.635 2.535 2.618 5.15 5.234 7.764 7.932l22.32 22.32c8.667 8.667 8.667 16.679 0 25.345-2.371 2.372-4.66 4.743-7.031 7.03-6.866 7.03-13.409 13.573-20.518 19.949-.164.164-.327.247-.411.407-7.031 7.034-5.721 13.901-4.252 18.559l.248.739c5.803 14.06 13.979 27.306 26.406 43.086l.081.08c22.567 27.796 46.356 49.466 72.6 66.061 3.353 2.128 6.786 3.844 10.056 5.477 2.946 1.473 5.724 2.862 8.095 4.335.328.164.655.407.982.571 2.779 1.389 5.394 2.044 8.092 2.044 6.787 0 11.038-4.252 12.427-5.64l27.961-27.961c2.782-2.783 7.198-6.132 12.348-6.132 5.07 0 9.237 3.185 11.772 5.968l45.211 45.21c8.423 8.339 8.423 16.927.084 25.589" clip-path="url(#b)" fill="#164397"/><path d="M306.114 239.964c-7.932-8.255-17.497-12.67-27.632-12.67-10.057 0-19.705 4.331-27.96 12.591l-25.838 25.752c-2.128-1.146-4.251-2.207-6.295-3.269-2.942-1.473-5.725-2.862-8.097-4.335-24.199-15.37-46.191-35.402-67.285-61.318-10.22-12.919-17.086-23.794-22.072-34.827 6.702-6.132 12.917-12.512 18.966-18.644 2.292-2.287 4.579-4.658 6.87-6.949 17.166-17.166 17.166-39.407 0-56.576l-22.323-22.32c-2.532-2.535-5.151-5.15-7.601-7.764-4.907-5.07-10.057-10.304-15.37-15.21-7.932-7.849-17.417-12.017-27.39-12.017-9.976 0-19.62 4.168-27.796 12.017l-.164.163-27.8 28.045C7.863 73.096 1.896 85.85.586 100.65c-1.96 23.872 5.071 46.112 10.467 60.663 13.242 35.729 33.031 68.839 62.545 104.324 35.809 42.759 78.894 76.524 128.113 100.317 18.802 8.911 43.904 19.457 71.945 21.254 1.72.083 3.517.163 5.154.163 18.887 0 34.746-6.781 47.174-20.276.08-.163.244-.243.328-.406 4.251-5.15 9.153-9.813 14.307-14.799 3.513-3.354 7.11-6.866 10.626-10.547 8.096-8.419 12.344-18.232 12.344-28.288 0-10.135-4.331-19.869-12.587-28.044l-44.888-45.047zm29.271 86.089c-.084 0-.084.084 0 0-3.19 3.438-6.46 6.544-9.977 9.977-5.313 5.069-10.71 10.383-15.777 16.351-8.26 8.831-17.988 12.999-30.743 12.999-1.226 0-2.534 0-3.76-.08-24.28-1.554-46.847-11.039-63.769-19.13-46.277-22.404-86.911-54.209-120.677-94.513-27.876-33.604-46.519-64.671-58.862-98.029-7.606-20.355-10.384-36.22-9.158-51.179.818-9.568 4.494-17.497 11.282-24.283l27.879-27.881c4.005-3.76 8.256-5.804 12.428-5.804 5.15 0 9.318 3.11 11.937 5.724l.243.244c4.99 4.663 9.729 9.485 14.719 14.635 2.535 2.618 5.15 5.234 7.764 7.932l22.32 22.32c8.667 8.667 8.667 16.679 0 25.345-2.371 2.372-4.66 4.743-7.031 7.03-6.866 7.03-13.409 13.573-20.518 19.949-.164.164-.327.247-.411.407-7.031 7.034-5.721 13.901-4.252 18.559l.248.739c5.803 14.06 13.979 27.306 26.406 43.086l.081.08c22.567 27.796 46.356 49.466 72.6 66.061 3.353 2.128 6.786 3.844 10.056 5.477 2.946 1.473 5.724 2.862 8.095 4.335.328.164.655.407.982.571 2.779 1.389 5.394 2.044 8.092 2.044 6.787 0 11.038-4.252 12.427-5.64l27.961-27.961c2.782-2.783 7.198-6.132 12.348-6.132 5.07 0 9.237 3.185 11.772 5.968l45.211 45.21c8.423 8.339 8.423 16.927.084 25.589z" clip-path="url(#b)" fill="none" stroke="#164397" stroke-width=".5" stroke-miterlimit="10"/><defs><path id="c" d="M200.401 79.391c-1.062 5.969 2.861 11.772 8.914 12.755 21.417 3.597 40.879 13.737 56.413 29.269 15.533 15.533 25.589 34.991 29.269 56.412.898 5.399 5.557 9.159 10.875 9.159.65 0 1.225-.085 1.879-.164 6.048-.983 10.056-6.703 9.075-12.755-4.416-25.916-16.68-49.546-35.402-68.268-18.722-18.724-42.351-30.987-68.269-35.402a11.403 11.403 0 0 0-1.821-.147c-5.323 0-9.974 3.777-10.933 9.141"/></defs><clipPath id="d"><use xlink:href="#c" overflow="visible"/></clipPath><linearGradient id="e" gradientUnits="userSpaceOnUse" y1="387.621" x2="1" y2="387.621" gradientTransform="matrix(-116.7457 0 0 116.7457 316.974 -45124.469)"><stop offset="0" stop-color="#ff8900"/><stop offset=".006" stop-color="#f80"/><stop offset=".244" stop-color="#ff5800"/><stop offset=".469" stop-color="#ff3200"/><stop offset=".677" stop-color="#ff1600"/><stop offset=".861" stop-color="#ff0600"/><stop offset="1" stop-color="red"/></linearGradient><path clip-path="url(#d)" fill="url(#e)" d="M199.339 70.25h118.468v116.736H199.339z"/><defs><path id="f" d="M203.512 9.163a11.088 11.088 0 0 0 9.073 12.755c38.1 6.459 72.847 24.527 100.48 52.08 27.633 27.634 45.621 62.381 52.081 100.48.897 5.393 5.556 9.154 10.87 9.154.655 0 1.23-.08 1.88-.163 5.972-.899 10.06-6.623 8.994-12.592-7.273-42.675-27.39-81.509-58.292-112.417C297.696 27.558 258.861 7.447 216.182.168A10.849 10.849 0 0 0 214.287 0c-5.225 0-9.828 3.831-10.775 9.163"/></defs><clipPath id="g"><use xlink:href="#f" overflow="visible"/></clipPath><linearGradient id="h" gradientUnits="userSpaceOnUse" y1="387.621" x2="1" y2="387.621" gradientTransform="matrix(-183.6963 0 0 183.6963 387.06 -71112.727)"><stop offset="0" stop-color="#ff8900"/><stop offset=".006" stop-color="#f80"/><stop offset=".244" stop-color="#ff5800"/><stop offset=".469" stop-color="#ff3200"/><stop offset=".677" stop-color="#ff1600"/><stop offset=".861" stop-color="#ff0600"/><stop offset="1" stop-color="red"/></linearGradient><path clip-path="url(#g)" fill="url(#h)" d="M202.529 0h185.427v183.632H202.529z"/></svg>