<svg xmlns="http://www.w3.org/2000/svg" xmlns:xlink="http://www.w3.org/1999/xlink" viewBox="0 0 58.073 72.402"><defs><path id="a" d="M0-.001h58.073v72.403H0z"/></defs><clipPath id="b"><use xlink:href="#a" overflow="visible"/></clipPath><path d="M29.022 0C13.024 0 0 13.024 0 29.022c0 1.821.167 3.657.516 5.449.016.106.076.425.198.972a28.452 28.452 0 0 0 1.943 5.722c3.126 7.362 10.002 18.669 25.089 30.782a2.058 2.058 0 0 0 2.581 0c15.073-12.113 21.964-23.42 25.09-30.782a28.281 28.281 0 0 0 1.943-5.722c.122-.547.183-.866.197-.972.335-1.792.516-3.628.516-5.449C58.044 13.024 45.02 0 29.022 0M53.49 33.758c0 .029-.016.06-.016.09-.014.077-.06.304-.136.653v.03a24.017 24.017 0 0 1-1.685 4.948c-.015.016-.015.047-.031.061-2.837 6.725-9.061 16.986-22.6 28.172C15.483 56.526 9.259 46.265 6.421 39.54c-.015-.014-.015-.045-.031-.061a25.636 25.636 0 0 1-1.684-4.948v-.03c-.091-.349-.122-.576-.138-.653 0-.03-.014-.061-.014-.106a24.748 24.748 0 0 1-.455-4.735c0-13.737 11.186-24.924 24.923-24.924 13.736 0 24.923 11.187 24.923 24.924 0 1.608-.152 3.203-.455 4.751" clip-path="url(#b)" fill="#164397"/><path d="M32.676 26.998c-.846 1.093-1.784 2.351-2.543 3.589 0 0-.302-1.524-.885-3.157-.561-1.572-1.698-3.514-2.297-4.302l-4.787 1.726c.018.022.481.542.724.902.392.576 1.048 1.513 1.685 2.795 1.045 2.102 2.101 5.054 2.315 8.317v.001l.002.029s.125-.143.362-.398c.05-.056.107-.118.167-.181a55.682 55.682 0 0 1 4.885-4.575 46.52 46.52 0 0 1 3.72-2.797c2.779-1.872 5.949-3.507 9.16-4.145l.012-.002 2.198-9.635s-8.474 3.763-14.718 11.833m4.282-.604" clip-path="url(#b)" fill="#164397"/><path d="M45.185 24.802c-3.211.638-6.381 2.272-9.16 4.145a46.599 46.599 0 0 0-3.721 2.796 55.75 55.75 0 0 0-4.884 4.576c-.06.063-.117.125-.167.181-.237.255-.363.398-.363.398l-.002-.03c2.765-7.03 9.613-12.038 17.598-12.076a16.2 16.2 0 0 1 .699.01" clip-path="url(#b)" fill="#164397"/><defs><path id="c" d="M12.283 29.34c0 9.232 7.522 16.754 16.754 16.754S45.79 38.572 45.79 29.34c0-.192-.022-.377-.029-.567-1.175.253-2.423.694-3.735 1.316-.392 6.828-6.053 12.278-12.989 12.278-7.19 0-13.028-5.852-13.028-13.027 0-7.176 5.852-13.028 13.028-13.028 2.42 0 4.681.678 6.625 1.834a49.365 49.365 0 0 1 3.082-2.431 16.632 16.632 0 0 0-9.707-3.129c-9.232 0-16.754 7.522-16.754 16.754"/></defs><clipPath id="d"><use xlink:href="#c" overflow="visible"/></clipPath><linearGradient id="e" gradientUnits="userSpaceOnUse" y1="72.403" x2="1" y2="72.403" gradientTransform="matrix(-33.5063 0 0 33.5063 45.79 -2396.603)"><stop offset="0" stop-color="#ff8900"/><stop offset=".006" stop-color="#f80"/><stop offset=".244" stop-color="#ff5800"/><stop offset=".469" stop-color="#ff3200"/><stop offset=".677" stop-color="#ff1600"/><stop offset=".861" stop-color="#ff0600"/><stop offset="1" stop-color="red"/></linearGradient><path clip-path="url(#d)" fill="url(#e)" d="M12.283 12.586H45.79v33.508H12.283z"/></svg>