<svg xmlns="http://www.w3.org/2000/svg" viewBox="0 0 505.64 388.61"><defs><style>.cls-1{fill:#164397}.cls-2{fill:none;stroke:#164397;stroke-linecap:round;stroke-linejoin:round;stroke-width:15px}.cls-3{fill:url(#linear-gradient)}</style><linearGradient id="linear-gradient" x1="375.38" y1="132.02" x2="130.83" y2="132.02" gradientUnits="userSpaceOnUse"><stop offset="0" stop-color="#ff8900"/><stop offset=".01" stop-color="#ff8700"/><stop offset=".25" stop-color="#ff5700"/><stop offset=".47" stop-color="#ff3100"/><stop offset=".68" stop-color="#ff1600"/><stop offset=".86" stop-color="#ff0600"/><stop offset="1" stop-color="red"/></linearGradient></defs><title>ic-step-3</title><g id="Layer_2" data-name="Layer 2"><g id="blue"><g id="_4" data-name="4"><g id="_4-2" data-name="4"><path class="cls-1" d="M476.63 237.12H48.36c-8.4 0-25.41 3-29.45-6.82-1.91-4.66-.78-11.6-.78-16.46V84.92c0-18.47-.89-37.2 0-55.66C18.8 15.32 34.58 18 44.21 18h401.46c10.18 0 20.49-.48 30.67 0 8.25.39 11.29 6.57 11.29 13.84v188.6c0 7.68-1 16.33-11 16.66-11.55.39-11.61 18.39 0 18 17.73-.6 29-14.53 29-31.58V29c-.37-13.1-9-24.92-21.93-28.12-4.28-1.03-8.6-.88-12.95-.88H30.87C17 .08 3.88 8.35.86 22.6c-1.31 6.18-.73 13-.73 19.22v169.89c0 5.23-.3 10.56 0 15.78 1.11 16.26 14.35 27.51 30.28 27.63 12.44.08 24.88 0 37.31 0h408.9c11.59 0 11.61-18 .01-18z"/><path class="cls-1" d="M404.89 226.93h-32.12a7.5 7.5 0 0 1 0-15h25.17a51.66 51.66 0 0 1 43.49-43.49V95.6a51.66 51.66 0 0 1-43.49-43.49h-25.17a7.5 7.5 0 0 1 0-15h32.12a7.5 7.5 0 0 1 7.5 7.5 36.57 36.57 0 0 0 36.53 36.53 7.5 7.5 0 0 1 7.5 7.5v86.76a7.5 7.5 0 0 1-7.5 7.5 36.57 36.57 0 0 0-36.53 36.53 7.5 7.5 0 0 1-7.5 7.5zm-275.6 0H97.17a7.5 7.5 0 0 1-7.5-7.5 36.57 36.57 0 0 0-36.53-36.53 7.5 7.5 0 0 1-7.5-7.5V88.64a7.5 7.5 0 0 1 7.5-7.5 36.57 36.57 0 0 0 36.53-36.53 7.5 7.5 0 0 1 7.5-7.5h32.12a7.5 7.5 0 0 1 0 15h-25.16A51.66 51.66 0 0 1 60.64 95.6v72.84a51.66 51.66 0 0 1 43.49 43.49h25.17a7.5 7.5 0 0 1 0 15z"/></g><path class="cls-1" d="M.1 281.68H505v15H.1zm0 45.96H505v15H.1zm0 45.97H505v15H.1z"/></g></g><g id="orange"><path id="_4-3" data-name="4" class="cls-3" d="M185.53 91h18l-28.28 82h-16.36l-28.06-82h18.51l18 62.23zm32.55 0h18.17l32.93 57.15V91h16.15v82H268l-33.77-58.16V173h-16.15zm135.68 1.78a27.39 27.39 0 0 1 14.14 10.4 36.25 36.25 0 0 1 5.91 13.23 62.74 62.74 0 0 1 1.57 13.59q0 16.35-6.65 27.69-9 15.29-27.82 15.29h-35.76V91h35.76a44.16 44.16 0 0 1 12.85 1.82zM322 105.27v53.5h16q12.29 0 17.13-12a41.66 41.66 0 0 0 2.65-15.63q0-12.51-4-19.21T338 105.27z"/></g></g></svg>