<svg xmlns="http://www.w3.org/2000/svg" xmlns:xlink="http://www.w3.org/1999/xlink" viewBox="0 0 512 388.31"><defs><style>.cls-1{fill:#164397}.cls-2{fill:url(#linear-gradient)}.cls-3{fill:url(#linear-gradient-2)}.cls-4{fill:url(#linear-gradient-3)}.cls-5{fill:url(#linear-gradient-4)}.cls-6{fill:url(#linear-gradient-5)}</style><linearGradient id="linear-gradient" x1="330.08" y1="179.75" x2="269.01" y2="179.75" gradientUnits="userSpaceOnUse"><stop offset="0" stop-color="#ff8900"/><stop offset=".01" stop-color="#ff8700"/><stop offset=".25" stop-color="#ff5700"/><stop offset=".47" stop-color="#ff3100"/><stop offset=".68" stop-color="#ff1600"/><stop offset=".86" stop-color="#ff0600"/><stop offset="1" stop-color="red"/></linearGradient><linearGradient id="linear-gradient-2" x1="330.08" y1="207.1" x2="269.01" y2="207.1" xlink:href="#linear-gradient"/><linearGradient id="linear-gradient-3" x1="330.08" y1="234.45" x2="269.01" y2="234.45" xlink:href="#linear-gradient"/><linearGradient id="linear-gradient-4" x1="247.99" y1="199.59" x2="170.22" y2="199.59" xlink:href="#linear-gradient"/><linearGradient id="linear-gradient-5" x1="479.35" y1="65.25" x2="414.15" y2="65.25" xlink:href="#linear-gradient"/></defs><title>ic-step-1</title><g id="Layer_2" data-name="Layer 2"><g id="blue"><g id="_7" data-name="7"><path class="cls-1" d="M104.11 104a7.55 7.55 0 0 0 .69 1.29 7.43 7.43 0 0 0 .94 1.14 6.87 6.87 0 0 0 1.14.93 6.39 6.39 0 0 0 1.29.69 7.1 7.1 0 0 0 1.4.43 7.35 7.35 0 0 0 1.47.15 7.26 7.26 0 0 0 1.46-.15 7.15 7.15 0 0 0 1.41-.43 7.4 7.4 0 0 0 3.36-2.76A6.47 6.47 0 0 0 118 104a7.6 7.6 0 0 0 .58-2.87 7.34 7.34 0 0 0-.15-1.47 6.89 6.89 0 0 0-.43-1.4 7.61 7.61 0 0 0-1.62-2.43 7.42 7.42 0 0 0-1.14-.94 7.51 7.51 0 0 0-1.29-.69 6.94 6.94 0 0 0-1.41-.42 7.25 7.25 0 0 0-2.93 0 7 7 0 0 0-1.4.42 7.62 7.62 0 0 0-1.29.69 7.43 7.43 0 0 0-1.14.94 7 7 0 0 0-.98 1.17 7.33 7.33 0 0 0-1.11 2.69 7.35 7.35 0 0 0-.15 1.47 7.18 7.18 0 0 0 .15 1.46 7.72 7.72 0 0 0 .42 1.38zm28.03 0a7.94 7.94 0 0 0 .69 1.29 7.43 7.43 0 0 0 .94 1.14 6.48 6.48 0 0 0 1.14.93 6.39 6.39 0 0 0 1.29.69 6.9 6.9 0 0 0 1.4.43 7.35 7.35 0 0 0 1.47.15 7.26 7.26 0 0 0 1.46-.15 7.15 7.15 0 0 0 1.41-.43 6.47 6.47 0 0 0 1.29-.69 6.79 6.79 0 0 0 1.14-.93 7.31 7.31 0 0 0 .94-1.14 7.31 7.31 0 0 0 1.11-2.7 7.18 7.18 0 0 0 .15-1.46 7.34 7.34 0 0 0-.15-1.47 7.36 7.36 0 0 0-1.1-2.66 7 7 0 0 0-.94-1.14 7.42 7.42 0 0 0-1.14-.94 7.51 7.51 0 0 0-1.29-.69 6.94 6.94 0 0 0-1.41-.42 7.25 7.25 0 0 0-2.93 0 6.83 6.83 0 0 0-1.4.42 7.62 7.62 0 0 0-1.29.69 7.73 7.73 0 0 0-2.09 2.08 7.33 7.33 0 0 0-1.11 2.69 7.35 7.35 0 0 0-.15 1.47 7.18 7.18 0 0 0 .15 1.46 7.88 7.88 0 0 0 .42 1.38zm28.03 0a7.55 7.55 0 0 0 .69 1.29 7.43 7.43 0 0 0 .94 1.14 6.48 6.48 0 0 0 1.14.93 6.39 6.39 0 0 0 1.29.69 6.9 6.9 0 0 0 1.4.43 7.35 7.35 0 0 0 1.47.15 7.26 7.26 0 0 0 1.46-.15 7.15 7.15 0 0 0 1.41-.43 6.47 6.47 0 0 0 1.29-.69 6.79 6.79 0 0 0 1.14-.93 7.31 7.31 0 0 0 .94-1.14A6.93 6.93 0 0 0 174 104a7.6 7.6 0 0 0 .58-2.87 7.34 7.34 0 0 0-.15-1.47 6.83 6.83 0 0 0-.43-1.4 7.2 7.2 0 0 0-1.62-2.43 7.42 7.42 0 0 0-1.14-.94 7.51 7.51 0 0 0-1.29-.69 7.13 7.13 0 0 0-1.41-.42 7.25 7.25 0 0 0-2.93 0 6.83 6.83 0 0 0-1.4.42 7.62 7.62 0 0 0-1.29.69 7.73 7.73 0 0 0-2.06 2.11 7.33 7.33 0 0 0-1.11 2.69 7.35 7.35 0 0 0-.15 1.47 7.18 7.18 0 0 0 .15 1.46 7.88 7.88 0 0 0 .42 1.38z"/><path class="cls-1" d="M496 325.28h-16V194.15a7.51 7.51 0 0 0-15 0v131.13H46.1V63.6a8.92 8.92 0 0 1 8.9-8.91h327.37a65.33 65.33 0 0 0-.87 10.56c0 1.46.07 2.9.16 4.33H84.43a19.05 19.05 0 0 0-19 19v202.78a19.05 19.05 0 0 0 19 19h342.22a19.05 19.05 0 0 0 19-19V130.47h1.07a65.06 65.06 0 0 0 18.28-2.59v12.64a7.51 7.51 0 0 0 15 0v-19.16a65.23 65.23 0 1 0-93.27-81.69H55A24 24 0 0 0 31.09 63.6v261.68h-16A15.08 15.08 0 0 0 0 340.35V363a25.31 25.31 0 0 0 25.28 25.29h89.55a7.51 7.51 0 0 0 0-15H25.28A10.28 10.28 0 0 1 15 363v-22.72h180.91v3.92A20.09 20.09 0 0 0 216 364.31h79a20.09 20.09 0 0 0 20.07-20.07v-3.91h181V363a10.28 10.28 0 0 1-10.27 10.27H169.57a7.51 7.51 0 0 0 0 15H485.8A25.31 25.31 0 0 0 511.08 363v-22.65A15.08 15.08 0 0 0 496 325.28zM446.75 15a50.23 50.23 0 1 1-50.23 50.23A50.29 50.29 0 0 1 446.75 15zm-16.08 113.49v162.87a4 4 0 0 1-4 4H84.43a4 4 0 0 1-4-4V88.61a4 4 0 0 1 4-4h300a65.51 65.51 0 0 0 46.24 43.88zM300.09 344.24a5.06 5.06 0 0 1-5 5H216a5.05 5.05 0 0 1-5-5v-3.92h89.1z"/></g></g><g id="orange"><g id="_7-2" data-name="7"><path class="cls-2" d="M276.52 187.26h46.05a7.51 7.51 0 1 0 0-15h-46.05a7.51 7.51 0 1 0 0 15z"/><path class="cls-3" d="M276.52 214.61h46.05a7.51 7.51 0 0 0 0-15h-46.05a7.51 7.51 0 1 0 0 15z"/><path class="cls-4" d="M276.52 242h46.05a7.51 7.51 0 0 0 0-15h-46.05a7.51 7.51 0 1 0 0 15z"/><path class="cls-5" d="M182.74 260.8h52.74A12.53 12.53 0 0 0 248 248.29v-26.37a38.88 38.88 0 0 0-17.78-32.63 29.83 29.83 0 1 0-42.2 0 38.88 38.88 0 0 0-17.78 32.64v26.37a12.53 12.53 0 0 0 12.5 12.5zm26.37-107.4a14.81 14.81 0 1 1-14.81 14.81 14.83 14.83 0 0 1 14.81-14.81zm-23.87 68.51a23.87 23.87 0 0 1 47.73 0v23.87h-47.73v-23.86z"/><path class="cls-6" d="M435.27 89.58a7.51 7.51 0 0 0 5.73 2.66h.12a7.5 7.5 0 0 0 5.77-2.85l30.83-39A7.51 7.51 0 1 0 466 41.1l-25.18 31.77L427.4 57a7.51 7.51 0 0 0-11.48 9.69z"/></g></g></g></svg>