<svg xmlns="http://www.w3.org/2000/svg" preserveAspectRatio="xMidYMid" width="138" height="34" viewBox="0 0 138 34"><defs><style>.cls-1{fill:#fff;fill-rule:evenodd}</style></defs><path d="M137.519 28.098v-1.739l-.421 1.739h-.36l-.421-1.739v1.739h-.481v-2.295h.722l.36 1.53.361-1.53H138v2.295h-.481zm-2.524 0h-.481V26.29h-.601v-.487h1.683v.487h-.601v1.808zm-2.886 3.685c-.24.417-.661.696-1.142.696-1.262 0-1.803-1.252-1.803-2.643 0-1.252.541-2.364 1.743-2.364.481 0 .902.208 1.142.626v-2.295h1.323v6.536h-1.263v-.556zm-.781-3.129c-.661 0-.841.695-.841 1.252 0 .625.18 1.39.841 1.39s.781-.695.781-1.321c0-.695-.24-1.321-.781-1.321zm-5.649 1.67c0 .626.36 1.043.901 1.043a.862.862 0 0 0 .781-.556h1.263c-.241 1.112-1.142 1.599-2.044 1.599-1.322 0-2.224-.904-2.224-2.503 0-1.461 1.022-2.504 2.224-2.504 1.443 0 2.224 1.252 2.164 2.851h-3.065v.07zm1.682-.835c0-.556-.36-.973-.781-.973-.481 0-.781.417-.841.973h1.622zm-4.688 2.843l-.721-1.391-.661 1.391h-1.503l1.443-2.503-1.323-2.226h1.503l.541 1.113.601-1.113h1.382l-1.262 2.226 1.443 2.503h-1.443zm-5.229.138c-1.262 0-2.164-1.043-2.164-2.503 0-1.461.902-2.504 2.164-2.504s2.164 1.113 2.164 2.504c0 1.39-.902 2.503-2.164 2.503zm0-3.825c-.601 0-.841.696-.841 1.322 0 .625.24 1.321.841 1.321s.841-.696.841-1.321c0-.626-.18-1.322-.841-1.322zm-4.508 3.834c-.48 0-.841-.209-1.142-.696v.556h-1.262v-6.536h1.323v2.295c.3-.418.661-.626 1.142-.626 1.142 0 1.743 1.182 1.743 2.364 0 1.321-.541 2.643-1.804 2.643zm-.3-3.825c-.361 0-.842.278-.842 1.252 0 .834.181 1.39.842 1.39.601 0 .781-.695.781-1.39 0-.626-.18-1.252-.781-1.252zm-4.387 1.382c0-.626.06-1.321-.661-1.321-.481 0-.721.487-.721 1.043v2.573h-1.323v-4.729h1.323v.626c.24-.487.781-.765 1.262-.765 1.382 0 1.442 1.182 1.442 1.808v3.06h-1.322v-2.295zm-6.071 2.443c-1.683 0-2.465-.904-2.465-2.852v-3.824h1.443v3.894c0 .834.24 1.252.961 1.252.722 0 .962-.418.962-1.252v-3.894h1.443v3.824h.12c0 1.878-.721 2.852-2.464 2.852zm-6.612-15.443c-.361.556-.841 1.251-2.284 1.251-2.224 0-3.306-2.503-3.306-4.798 0-2.086.721-4.659 3.306-4.659.902 0 1.683.417 2.104 1.252V5.701h2.945v12.308h-2.765v-.973zm-1.322-5.772c-1.082 0-1.323 1.182-1.323 2.225 0 1.113.241 2.226 1.323 2.226 1.082 0 1.322-1.183 1.322-2.226s-.24-2.225-1.322-2.225zm-2.705 18.007v3.06h-1.322v-2.295c0-.626.06-1.321-.661-1.321-.481 0-.721.487-.721 1.043v2.573h-1.323v-4.729h1.262v.626c.241-.487.782-.765 1.263-.765 1.382 0 1.502 1.182 1.502 1.808zm-5.469-15.92c0-1.043-.12-1.808-.962-1.808-.54 0-1.202.278-1.202 1.739v4.728h-2.945V9.04h2.825v1.182h.06c.541-.904 1.323-1.391 2.525-1.391 1.382 0 2.644.974 2.644 3.06v6.189H86.07v-4.729zM81.802 29.21l1.203-1.599h1.562l-1.502 1.808 1.683 2.92h-1.623l-.962-1.877-.361.348v1.529H80.48v-6.536h1.322v3.407zm-4.928-12.034c-.601.834-1.562 1.112-2.524 1.112-1.503 0-2.765-.834-2.765-2.712 0-2.851 2.885-2.781 4.388-3.059.42-.07.781-.209.781-.835s-.481-.834-.962-.834c-.901 0-1.081.556-1.081.904h-2.765c.12-2.504 2.164-2.921 4.027-2.921 3.726 0 3.666 1.808 3.666 3.547v3.616c0 .695 0 1.46.361 2.016h-3.005c-.061-.278-.121-.626-.121-.834zm-.12-3.199c-.36.209-.781.348-1.202.417-.661.139-1.022.348-1.022.974 0 .417.361.834.962.834.661 0 1.202-.486 1.262-1.39v-.835zm-4.508 18.362h-1.322v-2.294c0-.626.06-1.322-.661-1.322-.481 0-.722.487-.722 1.044v2.572h-1.322v-6.536h1.322v2.434c.181-.487.782-.765 1.263-.765 1.382 0 1.442 1.182 1.442 1.808v3.059zM62.869 5.631h3.306v9.248h4.748v3.13h-8.054V5.631zm4.749 21.632h-1.683v5.076h-1.443v-5.076h-1.683v-1.46h4.809v1.46zM0 3.82h15.267l-1.383 2.017h-3.786l-3.366 5.285V5.628H3.426v12.448h3.306V11.4l3.546 6.606v-.069h3.907l-4.027-6.746 3.726-5.354h3.246l1.379-2.012h-3.242L17.791 0h3.246l-2.521 3.82h40.447v18.428H0V3.82zm52.531 14.186h2.946V5.628h-2.946v12.378zm-5.529.278c1.803 0 3.426-.904 4.027-2.851h-2.765c-.24.418-.781.626-1.262.626-.962 0-1.443-.765-1.503-1.808h5.71c0-3.477-1.382-5.493-4.448-5.493-2.524 0-4.147 2.155-4.147 4.798 0 3.06 1.923 4.728 4.388 4.728zm-13.764 2.713h2.945v-3.895h.06c.421.765 1.202 1.182 2.104 1.182 2.644 0 3.366-2.572 3.305-4.728 0-2.295-1.021-4.798-3.245-4.798-1.443 0-1.924.695-2.284 1.251v-.973h-2.885v11.961zm-9.737 0h2.945v-3.895h.06c.421.765 1.202 1.182 2.104 1.182 2.644 0 3.366-2.572 3.366-4.728 0-2.295-1.022-4.798-3.246-4.798-1.443 0-1.923.695-2.284 1.251h-.06v-.973h-2.885v11.961zm-5.169-2.713c1.803 0 3.426-.904 4.027-2.851h-2.765c-.24.418-.781.626-1.262.626-.902 0-1.443-.765-1.503-1.808h5.71c0-3.477-1.382-5.493-4.448-5.493-2.524 0-4.147 2.155-4.147 4.798 0 3.06 1.924 4.728 4.388 4.728zm.06-7.303c.781 0 1.322.696 1.322 1.53h-2.825c.12-.973.601-1.53 1.503-1.53zm9.256.28c1.082 0 1.323 1.182 1.323 2.225 0 1.043-.241 2.226-1.323 2.226-1.082 0-1.322-1.183-1.322-2.226s.24-2.225 1.322-2.225zm9.737 0c1.082 0 1.323 1.182 1.323 2.225 0 1.043-.241 2.226-1.323 2.226-1.082 0-1.322-1.183-1.322-2.226s.24-2.225 1.322-2.225zm9.617-.28c.781 0 1.322.696 1.322 1.53h-2.825c.12-.973.601-1.53 1.503-1.53zm27.527 16.004h-1.322v-1.182h1.322v1.182zm0 5.354h-1.322v-4.728h1.322v4.728zm2.284-4.111c.241-.487.782-.765 1.263-.765 1.382 0 1.502 1.182 1.502 1.808v3.06h-1.322v-2.295c0-.626.06-1.321-.661-1.321-.481 0-.721.487-.721 1.043v2.573h-1.323v-4.729h1.262v.626zm9.677-1.243h-1.322v-1.182h1.322v1.182zm0 5.354h-1.322v-4.728h1.322v4.728zm7.573-.217c-1.262 0-1.803-1.043-1.803-2.364 0-1.252.661-2.295 1.803-2.295.481 0 .842.278 1.082.696v-.557h1.262v4.173c0 .765-.12 2.225-2.043 2.225-.962 0-1.863-.278-1.984-1.53h1.323c.06.209.12.348.24.417.12.07.301.07.481.07.661 0 .721-.487.721-1.113v-.417c-.24.417-.661.695-1.082.695zm.241-3.477c-.601 0-.782.626-.782 1.183 0 .556.241 1.112.782 1.112s.781-.487.781-1.112c0-.557-.18-1.183-.781-1.183z" class="cls-1"/></svg>