<svg xmlns="http://www.w3.org/2000/svg" preserveAspectRatio="xMidYMid" width="75" height="28" viewBox="0 0 75 28"><defs><style>.cls-1{fill:#fff;fill-rule:evenodd}</style></defs><path d="M74.523 22.179v-1.718l-.42 1.718h-.36l-.419-1.718v1.718h-.48v-2.267h.719l.36 1.511.36-1.511h.719v2.267h-.479zm-2.518 0h-.48v-1.786h-.599v-.481h1.678v.481h-.599v1.786zm-2.879 3.641c-.24.412-.659.687-1.139.687-1.259 0-1.799-1.237-1.799-2.611 0-1.236.54-2.335 1.739-2.335.48 0 .899.206 1.139.618v-2.267h1.319v6.457h-1.259v-.549zm-.779-3.092c-.66 0-.84.687-.84 1.237 0 .618.18 1.374.84 1.374.659 0 .779-.687.779-1.305 0-.687-.24-1.306-.779-1.306zm-5.636 1.65c0 .618.36 1.03.9 1.03.299 0 .659-.206.779-.549h1.259c-.24 1.099-1.139 1.58-2.038 1.58-1.319 0-2.219-.893-2.219-2.473 0-1.443 1.02-2.473 2.219-2.473 1.439 0 2.218 1.236 2.158 2.816h-3.058v.069zm1.679-.824c0-.55-.36-.962-.779-.962-.48 0-.78.412-.84.962h1.619zm-4.677 2.808l-.719-1.374-.66 1.374h-1.498l1.439-2.473-1.32-2.198h1.499l.54 1.099.6-1.099h1.379l-1.26 2.198 1.439 2.473h-1.439zm-5.216.136c-1.259 0-2.158-1.03-2.158-2.473 0-1.443.899-2.473 2.158-2.473s2.159 1.099 2.159 2.473c0 1.374-.9 2.473-2.159 2.473zm0-3.778c-.599 0-.839.687-.839 1.305 0 .618.24 1.305.839 1.305.6 0 .839-.687.839-1.305 0-.618-.179-1.305-.839-1.305zm-4.496 3.787c-.48 0-.84-.207-1.139-.687v.549h-1.26v-6.457h1.319v2.267c.3-.412.66-.618 1.14-.618 1.139 0 1.738 1.167 1.738 2.335 0 1.305-.539 2.611-1.798 2.611zm-.3-3.779c-.36 0-.839.275-.839 1.237 0 .824.179 1.374.839 1.374.599 0 .779-.687.779-1.374 0-.618-.18-1.237-.779-1.237zm-4.376 1.366c0-.618.06-1.305-.66-1.305-.479 0-.719.48-.719 1.03v2.542h-1.319v-4.672h1.319v.619c.24-.481.779-.756 1.259-.756 1.379 0 1.439 1.168 1.439 1.786v3.023h-1.319v-2.267zm-6.057 2.413c-1.678 0-2.458-.893-2.458-2.817v-3.778h1.439v3.847c0 .824.24 1.236.959 1.236.72 0 .96-.412.96-1.236v-3.847h1.439v3.778h.12c0 1.855-.72 2.817-2.459 2.817zm-6.595-15.255c-.36.549-.839 1.236-2.278 1.236-2.219 0-3.298-2.473-3.298-4.74 0-2.061.72-4.602 3.298-4.602.899 0 1.679.412 2.098 1.236V.055h2.938v12.158h-2.758v-.961zM31.354 5.55c-1.079 0-1.319 1.168-1.319 2.198 0 1.099.24 2.198 1.319 2.198s1.319-1.167 1.319-2.198c0-1.03-.24-2.198-1.319-2.198zm-2.698 17.788v3.023h-1.319v-2.267c0-.618.06-1.305-.659-1.305-.48 0-.72.48-.72 1.03v2.542h-1.319v-4.672h1.259v.619c.24-.481.78-.756 1.26-.756 1.379 0 1.498 1.168 1.498 1.786zM23.201 7.612c0-1.031-.12-1.786-.959-1.786-.54 0-1.2.275-1.2 1.717v4.671h-2.937V3.353h2.818v1.168h.059c.54-.893 1.32-1.374 2.519-1.374 1.379 0 2.638.961 2.638 3.022v6.114h-2.938V7.612zm-4.257 15.666l1.199-1.58h1.559l-1.499 1.786 1.679 2.885h-1.619l-.959-1.855-.36.344v1.511h-1.319v-6.457h1.319v3.366zM14.028 11.39c-.6.824-1.559 1.099-2.518 1.099-1.499 0-2.758-.824-2.758-2.679 0-2.816 2.878-2.748 4.376-3.023.42-.068.78-.206.78-.824s-.48-.824-.959-.824c-.9 0-1.08.549-1.08.893H9.111c.12-2.473 2.159-2.885 4.017-2.885 3.718 0 3.658 1.786 3.658 3.503v3.572c0 .687 0 1.443.359 1.992h-2.997c-.06-.274-.12-.618-.12-.824zm-.12-3.16c-.36.206-.78.344-1.199.412-.66.138-1.02.344-1.02.962 0 .412.36.824.96.824.659 0 1.199-.481 1.259-1.374V8.23zM9.411 26.369H8.092v-2.267c0-.618.06-1.305-.66-1.305-.479 0-.719.481-.719 1.031v2.541H5.394v-6.457h1.319v2.404c.18-.481.779-.755 1.259-.755 1.379 0 1.439 1.167 1.439 1.786v3.022zM.057-.015h3.298v9.136h4.736v3.092H.057V-.015zm4.737 21.37H3.115v5.014H1.676v-5.014H-.003v-1.443h4.797v1.443zm6.895-.275H10.37v-1.168h1.319v1.168zm0 5.289H10.37v-4.671h1.319v4.671zm2.278-4.061c.24-.481.779-.756 1.259-.756 1.379 0 1.499 1.168 1.499 1.786v3.023h-1.319v-2.267c0-.618.06-1.305-.66-1.305-.479 0-.719.48-.719 1.03v2.542h-1.319v-4.672h1.259v.619zm9.653-1.228h-1.319v-1.168h1.319v1.168zm0 5.289h-1.319v-4.671h1.319v4.671zm7.554-.214c-1.259 0-1.798-1.031-1.798-2.336 0-1.237.659-2.267 1.798-2.267.48 0 .84.275 1.079.687v-.55h1.26v4.122c0 .756-.12 2.198-2.039 2.198-.959 0-1.859-.274-1.979-1.511h1.32c.059.206.119.344.239.412.12.069.3.069.48.069.66 0 .719-.481.719-1.099v-.412c-.239.412-.659.687-1.079.687zm.24-3.435c-.599 0-.779.618-.779 1.168 0 .549.239 1.099.779 1.099s.78-.481.78-1.099c0-.55-.18-1.168-.78-1.168z" class="cls-1"/></svg>