<svg xmlns="http://www.w3.org/2000/svg" preserveAspectRatio="xMidYMid" width="161.625" height="87" viewBox="0 0 161.625 87"><defs><style>.cls-1{fill:#1da7b2;fill-rule:evenodd}</style></defs><path d="M161.585 24.506h-18.602c.206 3.541 2.197 5.833 5.697 5.833 1.991 0 3.982-.972 4.737-2.847h7.757c-1.511 5.902-6.933 8.471-12.631 8.471-8.237 0-13.866-4.999-13.866-13.61 0-7.846 6.178-13.471 13.66-13.471 9.061 0 13.66 6.944 13.248 15.624zm-13.248-9.93c-2.883 0-4.873 2.084-5.354 5.208h10.297c-.138-2.847-2.128-5.208-4.943-5.208zm-23.338 7.985v12.707h-8.306V9.646h8.031v4.444h.069c1.236-3.264 4.05-4.93 7.688-4.999a9.04 9.04 0 0 1 1.922.208v7.638c-1.03-.278-2.059-.486-3.158-.486-4.118 0-6.246 2.916-6.246 6.11zM105.436 9.646h8.306v25.622h-8.306V9.646zm0-9.651h8.306v6.458h-8.306V-.005zM92.6 36.033c-3.089 0-5.492-1.25-7.208-3.542h-.069v11.388h-8.305V9.646h7.893v2.917h.069c1.648-2.361 4.05-3.681 7.002-3.681 7.962 0 11.326 6.944 11.326 14.166 0 6.666-3.501 12.985-10.708 12.985zm-2.472-20.762c-2.265 0-5.079 1.597-5.079 6.874 0 4.514 1.235 7.43 5.011 7.43 3.706 0 4.942-3.889 5.011-7.43 0-3.264-1.305-6.874-4.943-6.874zm-.549 37.497L79.557 80.682c-1.991 5.624-4.942 6.319-10.571 6.319h-3.912v-6.805h2.882c1.854 0 3.295-1.042 3.295-2.847 0-1.389-1.647-5.347-2.128-6.735l-6.521-17.846h8.787l4.804 16.735h.069l4.805-16.735h8.512zM65.897 20.131c0-2.777-1.373-4.374-3.501-4.374-3.569 0-3.912 2.777-3.912 6.944v12.568h-8.306V20.687c0-2.986-.892-4.861-3.157-4.861-2.952 0-4.256 1.736-4.256 6.944v12.499h-8.306V9.646h8.031v3.472h.069c1.51-2.569 4.187-4.236 7.276-4.236 3.157 0 5.972 1.042 7.345 4.167 1.99-2.708 4.461-4.167 7.894-4.167 8.031 0 8.923 6.18 9.129 10.972v15.345h-8.306V20.131zM42.628 49.643h-8.306v-6.458h8.306v6.458zm-25.81 21.663c1.647 0 3.02-.486 4.119-1.249.48-.417.96-.834 1.372-1.32.687-.902 1.236-2.083 1.648-3.61h8.237c-.549 8.679-5.56 14.234-15.513 14.234C7.826 79.361 0 72.07 0 60.821c0-11.248 6.727-18.539 16.681-18.539 8.305 0 15.101 4.86 15.513 13.054h-8.649c-.343-1.111-.824-2.014-1.373-2.708a6.264 6.264 0 0 0-1.441-1.25c-1.099-.625-2.334-1.042-3.913-1.042-5.629 0-7.825 5.208-7.825 10.485 0 5.208 2.128 10.485 7.825 10.485zM3.914 21.589V-.006h27.457V7.91H12.974v5.763h16.337v7.916H12.974v5.764h18.397v7.915H3.914V21.589zm38.714 57.01h-8.306V52.768h8.306v25.831zm5.353-33.539h8.375v7.777h5.148v5.416h-5.148V69.78c0 2.083 1.167 2.5 2.951 2.5.687 0 1.373-.07 2.128-.07v6.18c-1.51.07-3.02.278-4.53.278-7.139 0-8.924-2.083-8.924-9.027V58.253h-4.187v-5.416h4.187V45.06z" class="cls-1"/></svg>