<svg xmlns="http://www.w3.org/2000/svg" preserveAspectRatio="xMidYMid" width="61" height="38" viewBox="0 0 61 38"><defs><style>.cls-1{fill:#fff;fill-rule:evenodd}</style></defs><path d="M59.925 29.598l-.054-.187c0-.124-.053-.186-.107-.249a.775.775 0 0 0-.215-.186c-.108-.062-.161-.062-.269-.062-.053 0-.161 0-.215.062-.053 0-.107.062-.161.124-.054.062-.107.062-.107.125 0 .062-.054.062-.054.124s-.054.062-.054.124c0 .063 0 .125-.054.187v1.617c0 .062 0 .124.054.187 0 .062 0 .062.054.124 0 .062.054.062.054.124.053.063.053.125.107.125.054.062.108.062.161.124.054 0 .162.062.215.062.108 0 .269-.062.323-.124.107-.124.215-.249.268-.435l-.053-.125h1.075l-.054.311c-.054.249-.108.498-.215.684-.108.187-.215.374-.376.498-.162.124-.323.249-.484.311-.215.062-.376.124-.591.124-.161 0-.376 0-.538-.062-.161-.062-.322-.124-.43-.249-.107-.062-.215-.186-.322-.311-.108-.124-.161-.248-.215-.373-.054-.062-.054-.124-.054-.186-.054-.063-.054-.187-.054-.249 0-.125-.053-.187-.053-.311v-2.115c0-.124 0-.186.053-.311 0-.062.054-.186.054-.248 0-.063.054-.125.054-.187.054-.124.161-.249.215-.373.107-.125.215-.249.322-.311.162-.124.269-.187.43-.249.162-.062.377-.062.538-.062.215 0 .43.062.645.124.215.063.376.187.537.373.161.125.269.311.376.498.108.187.162.435.215.622l.054.311h-1.075zm-1.828 5.601c-.107-.063-.322-.187-.591-.187-.269 0-.43.124-.43.311s.161.311.538.497c.537.249.752.498.752.996 0 .559-.376 1.057-1.182 1.057-.323 0-.645-.124-.806-.187l.053-.622c.161.125.43.187.753.187.322 0 .483-.124.483-.373 0-.187-.161-.311-.483-.498-.484-.186-.806-.497-.806-.995 0-.559.429-.995 1.128-.995.323 0 .591.062.753.187l-.162.622zm-1.235-3.113c0 .062-.054.124-.108.186-.053.125-.161.249-.215.373-.107.125-.215.249-.322.311a1.516 1.516 0 0 1-.43.249c-.161.062-.323.062-.538.062-.161 0-.376 0-.537-.062-.161-.062-.323-.124-.43-.249-.107-.062-.215-.186-.322-.311a1.29 1.29 0 0 1-.215-.373c-.054-.062-.054-.124-.108-.186-.054-.063-.054-.187-.054-.249 0-.125-.053-.187-.053-.311v-2.115c0-.124 0-.186.053-.311 0-.062.054-.186.054-.248 0-.063.054-.125.108-.187.053-.124.161-.249.215-.373.107-.125.215-.249.322-.311a1.54 1.54 0 0 1 .43-.249c.161-.062.322-.062.537-.062.162 0 .377 0 .538.062.161.062.322.125.43.249.107.062.215.186.322.311.108.124.162.249.215.373.054.062.054.124.108.187 0 .062.053.124.053.248 0 .125.054.187.054.311v2.115c0 .124 0 .186-.054.311 0 .062-.053.186-.053.249zm-.968-1.12V29.66c0-.062 0-.124-.053-.187 0-.062 0-.062-.054-.124 0-.062-.054-.062-.054-.124-.054-.063-.054-.125-.107-.125-.054-.062-.108-.062-.162-.124-.053 0-.161-.062-.215-.062-.053 0-.161 0-.215.062-.053 0-.107.062-.161.124-.054.062-.107.062-.107.125 0 .062-.054.062-.054.124s-.054.062-.054.124c0 .063 0 .125-.054.187v1.617c0 .062 0 .124.054.187 0 .062 0 .062.054.124 0 .062.054.062.054.124.053.063.053.125.107.125.054.062.108.062.161.124.054 0 .162.062.215.062.054 0 .162 0 .215-.062.054 0 .108-.062.162-.124.053-.062.107-.062.107-.125 0-.062.054-.062.054-.124s.054-.062.054-.124c0-.063 0-.125.053-.187v-.311zm-3.332 1.742c-.161.186-.322.311-.537.373-.215.124-.43.124-.645.124-.215 0-.43-.062-.645-.124-.215-.062-.376-.249-.538-.373a2.302 2.302 0 0 1-.376-.622c-.161-.249-.215-.56-.215-.809v-3.545h1.075v3.421c0 .186 0 .311.108.435a.454.454 0 0 0 .215.249c.107.062.215.124.322.124.108 0 .215 0 .323-.124a.462.462 0 0 0 .215-.249c.053-.124.107-.311.107-.435v-3.421h1.075v3.545c0 .249-.054.56-.108.809a2.277 2.277 0 0 1-.376.622zm-4.622-1.68h-1.29v2.177h-1.074v-5.411h1.074v2.115h1.29v-2.115h1.075v5.411H47.94v-2.177zm-3.009-.559c-.108.124-.215.311-.323.373-.107.124-.269.186-.43.249a1.687 1.687 0 0 1-.537.124h-.753v1.99h-1.075v-5.411h2.096c.108 0 .269.063.377.125.107.062.268.186.376.248.107.125.215.187.269.374.107.124.161.311.215.435.053.186.053.373.053.56 0 .186 0 .311-.053.497a1.062 1.062 0 0 1-.215.436zm-.807-1.244c-.053-.063-.053-.125-.107-.187s-.108-.062-.161-.062h-.968v1.119h.753c.053 0 .161 0 .215-.062.053-.062.107-.062.161-.124.054-.062.054-.125.107-.187 0-.062.054-.124.054-.186 0-.125 0-.187-.054-.311zm-1.612 5.227c.108 0 .215.063.323.125.107.062.215.124.268.249l.054.062-.376.435-.054-.062c-.054-.062-.107-.125-.161-.125-.054-.062-.108-.062-.161-.062h-.215c-.108 0-.162 0-.269.062-.054.063-.108.063-.161.125-.054.062-.054.124-.054.186v.125c0 .062.054.062.054.124.053.062.053.062.107.062s.108.062.161.062l.323.063c.107 0 .161.062.215.062.054 0 .107.062.161.062.054.062.108.062.161.124.108.063.162.187.215.311.054.125.054.311.054.436 0 .186 0 .311-.107.435-.054.125-.162.249-.215.311-.108.125-.215.187-.377.187-.161.062-.268.062-.43.062-.161 0-.268 0-.43-.062-.107 0-.215-.062-.376-.125-.107-.062-.215-.186-.322-.248l-.054-.063.376-.435.054.062c.054.062.107.125.215.187.054.062.161.062.215.062h.269c.107 0 .215 0 .268-.062.054 0 .108-.062.162-.125.053-.062.053-.124.053-.248v-.187c0-.062-.053-.062-.053-.124l-.054-.063s-.054 0-.054-.062h-.107l-.269.062c-.108 0-.215-.062-.323-.124-.107-.062-.161-.124-.268-.187-.054-.062-.162-.186-.162-.311-.053-.124-.053-.248-.053-.373 0-.124 0-.311.053-.435.054-.124.108-.249.215-.311.108-.124.215-.186.323-.249.161-.062.269-.062.43-.062a.92.92 0 0 1 .376.062zM30.796 23.633v-.062c-.484.062-1.022.125-1.505.125h-4.354V38h-7.416V16.979c0-.249.107-.498.269-.684.161-.187.322-.249.537-.311l12.576.062v-.062c1.935-.063 3.44-1.866 3.44-4.105 0-2.861-2.257-4.167-3.171-4.167l-5.106-.062v4.104h-4.729l-3.816-4.415V.995c0-.249.107-.498.269-.684.161-.187.429-.311.752-.311l12.254.062c3.171 0 5.965 1.617 7.846 4.229 1.29 1.679 2.15 3.856 2.311 6.593.054.311.054.622.054.933 0 6.53-4.568 11.816-10.211 11.816zM15.371 8.209v29.729H7.954V7.588H.967a.952.952 0 0 1-.698-.311C.107 7.09 0 6.903 0 6.655V.995C0 .746.107.497.322.311A.868.868 0 0 1 1.021 0h14.887c-.322.497-.483 1.057-.537 1.741v6.468zm15.102 20.705h-1.182v4.291h-1.075v-4.291h-1.182v-1.182h3.439v1.182zm-1.881 5.538c.108.063.215.125.323.249.107.125.161.187.215.311.053.124.053.249.053.435 0 .187 0 .311-.107.436-.054.124-.107.248-.215.311-.054.062-.161.124-.215.124l.645 1.493h-.699l-.537-1.306h-.43v1.368h-.591V34.39h1.182c.108 0 .269 0 .376.062zm-.967.622v.809h.537c.054 0 .162 0 .215-.063.054-.062.108-.062.162-.124.053-.062.053-.124.053-.249 0-.062 0-.186-.053-.248-.054-.063-.054-.125-.108-.125-.054-.062-.161-.062-.215-.062h-.591v.062zm4.192-7.342v5.411h-1.075v-5.411h1.075zm.054 7.28h-1.398v.808h1.183v.622h-1.183v.809h1.398v.622h-1.989V34.39h1.989v.622zm1.773-.56l1.129 3.483h-.645l-.161-.684h-1.021l-.215.684h-.645l1.075-3.483h.483zm.108 2.177l-.323-1.057-.322 1.057h.645zm1.881-4.606v1.182h-3.171v-5.411h3.171v1.182h-2.096v.933h1.773v1.182h-1.773v.932h2.096zm.107 5.228h1.398v.622h-1.989V34.39h.591v2.861zm3.924-9.457v5.411h-.968l-1.612-2.923v2.923h-1.075v-5.411h.967l1.613 2.923v-2.923h1.075zm.967 7.218h-1.397v.808h1.182v.622h-1.182v.809h1.397v.622h-1.989V34.39h1.989v.622zm5.052.062h-.752v2.861h-.592v-2.861h-.806v-.622h2.15v.622zm1.559-.622l1.074 3.483h-.644l-.215-.684h-.914l-.215.684h-.645l1.075-3.483h.484zm.967 0h2.15v.622h-.753v2.861h-.591v-2.861h-.806v-.622zm4.676.56h-1.398v.808h1.183v.622h-1.183v.809h1.398v.622h-1.989V34.39h1.989v.622zm1.88 2.307c.268 0 .43-.125.43-.684V34.52h.698v2.115c0 .933-.376 1.306-1.021 1.306-.161 0-.322 0-.483-.063l.053-.621c.108.062.215.062.323.062zm5.482-2.929c.322 0 .591.062.699.125l-.108.621c-.161-.062-.322-.124-.537-.124-.538 0-.914.373-.914 1.119 0 .685.322 1.12.914 1.12.215 0 .43-.062.537-.124l.054.622c-.108.062-.376.124-.753.124-1.021 0-1.504-.746-1.504-1.679 0-1.12.698-1.804 1.612-1.804z" class="cls-1"/></svg>