<svg xmlns="http://www.w3.org/2000/svg" preserveAspectRatio="xMidYMid" width="95" height="32" viewBox="0 0 95 32"><defs><style>.cls-1{fill:#fff;fill-rule:evenodd}</style></defs><path d="M94.777 8.885a.674.674 0 0 1-.559.258c.168 0 .391-.065.503-.258a.878.878 0 0 0 .223-.579.88.88 0 0 0-.223-.58c-.112-.129-.28-.257-.503-.257-.168 0-.335.064-.503.257a.88.88 0 0 0-.223.58c0 .193.056.45.223.579.112.129.28.258.503.258a.796.796 0 0 1-.558-.258c-.168-.193-.224-.386-.224-.644 0-.257.112-.515.224-.644.167-.128.335-.257.558-.257.223 0 .447.129.559.257.167.193.223.387.223.644 0 .258-.112.515-.223.644zm-.838 0h-.112V7.79h.559c.055 0 .056.064.111.129 0 .064.056.129.056.129 0 .064 0 .128-.056.193-.055.064-.111.064-.167.129.056 0 .056.064.056.064l.111.129.168.257h-.168l-.111-.193c-.056-.064-.056-.129-.112-.129 0-.064-.056-.064-.056-.064h-.279v.451zm.279-.644h.112c.056 0 .056-.065.056-.065v-.064c0-.064 0-.064-.056-.129-.056-.064-.056-.064-.168-.064h-.279v.322h.335zm-4.692-1.032c.727-.193 1.732-.064 2.179.322.726.644.111 1.481-.671 1.674-2.289.579-3.462-1.417-1.508-1.996zM83.831 17.71l-.112-.322c-1.061 1.416-4.747 1.481-4.915-1.867-.056-1.546.67-2.447 1.62-2.833 1.396-.58 2.178-.129 3.407.257.056-.966.223-2.446-.559-2.768-.726-.322-1.787-.129-2.401.643-1.452 1.803-2.067-.965 1.675-1.287 1.731-.129 4.021.257 4.468 1.867.279.837.112 3.863.168 5.151 0 .515.223 1.094.223 1.481l-3.519.064c0-.129-.055-.322-.055-.386zm.055-4.121c-.502-.322-.726-.644-1.507-.515-.391.322-.28 3.863-.112 4.378.558.258 1.619-.386 1.619-.901v-2.962zm-5.92 4.376h-3.295v-6.374c0-.837-.056-1.288-.894-.902-.335.194-1.005.644-1.061.966-.112.58.168 5.344-.056 6.375l-3.239-.129-.056-10.431h3.351v3.284c.782-.515 1.285-1.03 2.346-1.223 1.061-.194 2.122.193 2.513.901.503.901.391 2.254.391 3.477v4.056zm-13.403-.2c-1.062-1.159-.447-5.408-.615-7.404h-.782c-.056 0 .056.193-.335-.129l.056-.386c.279-.129.782-.065 1.117-.065v-.837l3.183-1.674v2.511l1.452.065v.515l-1.452.064c-.055 1.095 0 2.447 0 3.541 0 .708-.223 2.962.224 3.413.391.128.614-.194.838-.515.335-.451.167-.773.781-.773.112 1.867-3.127 3.091-4.467 1.674zm-2.291.263c-.614.064-2.793.193-3.183-.065-.168-.257-.056-5.279-.056-6.245 0-.837 0-1.417-.838-1.03-1.452.644-1.117 1.223-1.117 3.026v4.314h-3.407V9.786h3.351v1.03c.279-.128.67-.515 1.061-.708 1.341-.708 3.072-.837 3.854.451.502.837.391 2.382.391 3.541 0 .966.056 3.091-.056 3.928zm-9.55.006l-3.351-.064c-.112-.258 0-.065-.056-.258l-.111-.322c-.894.644-1.844 1.224-3.184.709-2.234-.837-2.346-4.443-.168-5.409 1.397-.579 2.179-.128 3.407.258.056-1.095.168-2.511-.614-2.833-.949-.386-2.011.129-2.457.644-.224.193-.559.837-.95.579-.726-.451.559-1.674 2.681-1.867 1.843-.129 4.077.322 4.468 1.932.223.837.056 3.734.112 5.022.055.579.279 1.287.223 1.609zm-3.574-4.378c-.391-.386-.782-.708-1.452-.515-.391.258-.28 2.833-.28 3.541 0 1.288.559.966 1.397.451.279-.193.391-.193.391-.515l-.056-2.962zm-7.652-1.937c-.335.451-.223 1.223-.223 1.931 0 1.159.056 3.413-.056 4.379l-3.183-.065c-.168-.708-.112-7.018-.056-8.241h3.295v1.481c.67-.58 1.117-1.674 2.346-1.674.782 0 .949.901.502 1.159-.502.257-1.284-.902-2.625 1.03zm-8.489 6.051c-1.172-1.223-.446-5.344-.67-7.404h-1.061v-.515c.279-.129.782-.064 1.117-.064V8.95c.559-.258 2.848-1.61 3.239-1.61v2.447h1.397v.579h-1.453v5.28c0 .643-.055 1.287.224 1.674.893.386.838-1.288 1.619-1.224.28.773-.949 1.739-1.507 1.996-.95.387-2.234.387-2.905-.322zM14.465 32c-.168-.322-2.737-3.219-3.239-3.799l-3.295-3.799c-.503-.579-.391-.386-.391-1.48V20.99c0-3.284.223-2.64-.95-2.64-2.178 0-4.468.129-6.59 0 .223-.386 1.62-1.932 2.011-2.382l1.954-2.254 3.966-4.571C8.377 8.628 15.638.193 15.917 0c.056 2.447 0 5.151 0 7.662 0 1.159-.223 1.03.726 1.03 1.061-.064 4.245-.064 4.915 0v6.439l7.54.129L14.577 32h-.112zm6.534-16.161V9.4h-5.584l-.056-7.79L1.452 17.706h6.702c.112 1.288 0 3.799 0 5.216 0 .708-.056.643.279 1.03.838.965 5.865 6.889 6.144 7.082l13.124-15.195h-6.702zM8.936 21.57v-4.829H3.351L14.521 3.8l.056 6.438 5.641.065v6.438l5.529-.064c-.112.258-4.915 5.73-5.529 6.439-.447.515-5.362 6.116-5.585 6.503-.335-.129-4.748-5.28-5.306-5.988-.559-.644-.391-.515-.391-2.061zm5.641 1.546c.335-.129 2.401-2.64 2.792-3.091.447-.515 2.569-2.833 2.737-3.284h-5.529v6.375zm.782-2.187l.056-3.219h2.792l-2.848 3.219zM91.984 9.72v8.306h-3.351V9.72h3.351zm0 13.783H32.393V19.64h59.591v3.863zm-55.235-2.382l-.335-1.03-.335 1.03h-.949l.055.064c.28.387.336.322.727.644l-.28 1.095c.335-.193.447-.322.782-.58.391.194.447.387.838.58l-.112-1.223c.279-.258.391-.194.559-.58h-.95zm4.189 0l-.335-1.03-.391 1.03h-.949l.335.386c.223.194.223.194.391.387l-.28 1.03c.335-.064.503-.386.782-.58.335.129.503.387.838.58l-.168-1.03c.28-.322.503-.451.726-.773h-.949zm4.077.064l-.335-1.03-.391 1.03h-.949c.167.258 0 0 .167.194l.559.515-.28 1.03c.335-.129.559-.386.782-.58.168.129.782.58.838.644l-.168-1.094.726-.709h-.949zm7.54.129h-2.569v.58c.614.064 1.284-.065 1.675.064l.112.064c-.391.258-1.173.129-1.62.129-.558 0-1.117-.322-.67-.966.223-.386 2.457-.128 3.016-.193v-.708c-.894 0-1.955-.064-2.848 0-.503 0-.782.193-.838.773-.224 2.382.503 1.931 2.513 1.931 1.173 0 1.285-.257 1.229-1.674zm4.524-.966h-2.514v.644c.671.322 2.625-.257 3.128.193-.335.322-2.457.129-3.072.129l-.056 1.674h.559c.112-.322.056-.579.056-.966.446 0 1.508-.128 1.843.194.502.515.167.837 1.228.837 0-.193-.502-.837-.558-.902 0-.064.056-.064.056-.064l.223-.193c.168-.129.224-.129.335-.258.112-1.288-.223-1.352-1.228-1.288zm6.981.58c-.168-.773-1.843-.58-2.569-.58-.447 0-1.006 0-1.117.516-.056.128-.056 1.48 0 1.674.167.643 1.787.45 2.569.45.502 0 .949 0 1.117-.45.056-.194.056-1.417 0-1.61zm5.808-.644h-.558c-.168.451.055 1.159-.112 1.738-.503.322-1.787.194-2.402.065l-.056-1.803h-.558c-.056.451-.112 1.996.056 2.318.279.515 1.229.386 1.787.386 2.29 0 1.899 0 1.843-2.704zm5.697.386c-.335-.45-1.061-.322-1.732-.322a9.962 9.962 0 0 0-1.954 0v.709h3.127v.257h-3.071v1.288c0 .386-.168.386.614.386v-.966c.838-.193 2.513.322 3.016-.321a1.123 1.123 0 0 0 0-1.031zm4.524.451l-.336-1.095-.335 1.095h-.949c.279.451.335.322.726.773l-.223 1.094c.167-.128.614-.515.781-.644.391.194.391.451.838.58l-.279-1.03c.223-.322.447-.451.726-.773h-.949zm4.077 0l-.336-1.03-.335 1.03h-.949c.223.451.391.322.726.773l-.223 1.03c.335-.129.558-.322.781-.58.224.129.671.451.838.644l-.223-1.094c.167-.258.111-.129.335-.322l.335-.451h-.949zm4.188 0l-.335-1.03-.335 1.03h-.949c.223.386.446.451.726.708l-.224 1.095c.28-.193.503-.386.782-.58.335.194.503.387.838.58l-.279-1.03.67-.709.056-.064h-.95zm-27.311 1.031c-.223-.966-.056-1.095.726-1.095.335 0 1.396-.064 1.564.193.168.193.168.644.056.837-.224.322-2.067.129-2.346.065z" class="cls-1"/></svg>