<svg xmlns="http://www.w3.org/2000/svg" xmlns:xlink="http://www.w3.org/1999/xlink" viewBox="0 0 445.7 467.27"><defs><style>.cls-1{fill:none;}.cls-2{fill:#28479e;}.cls-3{clip-path:url(#clip-path);}.cls-4{fill:#ff5100;}.cls-5{clip-path:url(#clip-path-2);}.cls-6{fill:#ff3000;}.cls-7{clip-path:url(#clip-path-3);}.cls-8{fill:#ff1500;}</style><clipPath id="clip-path"><path class="cls-1" d="M219.82,167.77h12.65l-19.86,57.57h-11.5l-19.7-57.57h13l12.65,43.7Z"/></clipPath><clipPath id="clip-path-2"><path class="cls-1" d="M242.68,167.77h12.76l23.12,40.14V167.77h11.34v57.57H277.74L254,184.49v40.84H242.68Z"/></clipPath><clipPath id="clip-path-3"><path class="cls-1" d="M337.23,169a19.23,19.23,0,0,1,9.93,7.3,25.46,25.46,0,0,1,4.15,9.29,44.06,44.06,0,0,1,1.11,9.53q0,11.48-4.67,19.45-6.33,10.74-19.54,10.74H303.1V167.77h25.12A31,31,0,0,1,337.23,169Zm-22.32,8.75v37.57h11.24q8.63,0,12-8.4a29.26,29.26,0,0,0,1.86-11q0-8.79-2.79-13.49t-11.1-4.71Z"/></clipPath></defs><title>ic-bank</title><g id="Layer_2" data-name="Layer 2"><g id="hang"><path class="cls-2" d="M439,362.61c-15-13.74-52.14-9.75-132.49,14.2A10,10,0,0,0,312.25,396c22-6.55,50.21-14.58,73.86-18.62,34.55-5.91,39.48.06,39.52.12a4.43,4.43,0,0,1-.07,2.1c-1.75,3.75-18.94,18.8-75.09,40.49-42.11,16.27-83.42,27.2-102.79,27.2-16.34,0-40.76-12.12-64.38-23.83-26-12.91-50.62-25.11-70.45-25.11-11.12,0-18.91,5.07-24.6,8.8V345.77c3.63-1,8.11-2.37,13.94-4.24,15-4.82,35.55-11.42,52.12-11.42,35.51,0,97.9,41.79,107,52.8-.13,1.5-.48,3.21-1.37,3.83-.6.41-4.18,2.34-16.24-.49-9.24-2.17-19.83-6.24-29.18-9.83-13.14-5-20.87-7.9-26.92-7.9a10,10,0,0,0,0,20c2.81.06,12.61,3.82,19.76,6.57,15.78,6.06,33,12.68,47.2,12.68,6.34,0,12.08-1.32,16.81-4.61s10.17-9.76,10-22.43c-.06-5-2.84-10.56-16.25-21.22a275,275,0,0,0-31.65-21.25c-18.06-10.51-52.35-28.15-79.13-28.15-19.7,0-42,7.15-58.23,12.37-2.64.85-5.54,1.78-8.21,2.59a30,30,0,0,0-29.62-25.22H0V467.27H58.24a30,30,0,0,0,30-30v-7.43a54.34,54.34,0,0,0,10.87-5.92c5.29-3.46,8.78-5.59,13.73-5.59,15.14,0,38.74,11.71,61.56,23,25.69,12.74,52.25,25.91,73.27,25.91,17.1,0,56.85-7.74,112.58-29.55,21.78-8.52,40.8-17.33,55-25.47,18.81-10.78,28-19.55,29.84-28.45C446.85,375.32,444.69,367.79,439,362.61ZM68.24,437.27a10,10,0,0,1-10,10H20V319.86H58.24a10,10,0,0,1,10,10Z"/><g id="_4" data-name="4"><g class="cls-3"><polygon class="cls-4" points="230.72 167.77 228.53 167.77 226.35 167.77 224.17 167.77 221.99 167.77 219.81 167.77 217.63 167.77 215.45 167.77 213.26 167.77 211.08 167.77 208.9 167.77 206.72 167.77 204.54 167.77 202.36 167.77 200.18 167.77 198 167.77 195.81 167.77 193.63 167.77 191.45 167.77 189.27 167.77 187.09 167.77 184.91 167.77 182.73 167.77 181.41 167.77 181.41 225.34 182.73 225.34 184.91 225.34 187.09 225.34 189.27 225.34 191.45 225.34 193.63 225.34 195.81 225.34 198 225.34 200.18 225.34 202.36 225.34 204.54 225.34 206.72 225.34 208.9 225.34 211.08 225.34 213.26 225.34 215.45 225.34 217.63 225.34 219.81 225.34 221.99 225.34 224.17 225.34 226.35 225.34 228.53 225.34 230.72 225.34 232.47 225.34 232.47 167.77 230.72 167.77"/></g><g class="cls-5"><polygon class="cls-6" points="289.61 167.77 287.43 167.77 285.25 167.77 283.06 167.77 280.88 167.77 278.7 167.77 276.52 167.77 274.34 167.77 272.16 167.77 269.98 167.77 267.8 167.77 265.62 167.77 263.43 167.77 261.25 167.77 259.07 167.77 256.89 167.77 254.71 167.77 252.53 167.77 250.35 167.77 248.16 167.77 245.98 167.77 243.8 167.77 242.68 167.77 242.68 225.34 243.8 225.34 245.98 225.34 248.16 225.34 250.35 225.34 252.53 225.34 254.71 225.34 256.89 225.34 259.07 225.34 261.25 225.34 263.43 225.34 265.62 225.34 267.8 225.34 269.98 225.34 272.16 225.34 274.34 225.34 276.52 225.34 278.7 225.34 280.88 225.34 283.06 225.34 285.25 225.34 287.43 225.34 289.61 225.34 289.91 225.34 289.91 167.77 289.61 167.77"/></g><g class="cls-7"><polygon class="cls-8" points="352.13 167.77 349.95 167.77 347.77 167.77 345.59 167.77 343.41 167.77 341.23 167.77 339.05 167.77 336.87 167.77 334.69 167.77 332.5 167.77 330.32 167.77 328.14 167.77 325.96 167.77 323.78 167.77 321.6 167.77 319.42 167.77 317.23 167.77 315.05 167.77 312.87 167.77 310.69 167.77 308.51 167.77 306.33 167.77 304.15 167.77 303.1 167.77 303.1 225.34 304.15 225.34 306.33 225.34 308.51 225.34 310.69 225.34 312.87 225.34 315.05 225.34 317.23 225.34 319.42 225.34 321.6 225.34 323.78 225.34 325.96 225.34 328.14 225.34 330.32 225.34 332.5 225.34 334.69 225.34 336.87 225.34 339.05 225.34 341.23 225.34 343.41 225.34 345.59 225.34 347.77 225.34 349.95 225.34 352.13 225.34 352.42 225.34 352.42 167.77 352.13 167.77"/></g></g><path class="cls-2" d="M419.05,285.12H114.77A25.11,25.11,0,0,1,89.69,260V129.25a25.11,25.11,0,0,1,25.08-25.08H419.05a25.11,25.11,0,0,1,25.08,25.08V260A25.11,25.11,0,0,1,419.05,285.12Zm-304.28-163a7.09,7.09,0,0,0-7.08,7.08V260a7.09,7.09,0,0,0,7.08,7.08H419.05a7.09,7.09,0,0,0,7.08-7.08V129.25a7.09,7.09,0,0,0-7.08-7.08Z"/><path class="cls-1" d="M111.68,63.18l-4.63,26.25H301.37l-181.49-32A7.09,7.09,0,0,0,111.68,63.18Z"/><path class="cls-2" d="M111.68,63.18a7.09,7.09,0,0,1,8.2-5.74l181.49,32h103.7L123,39.71A25.1,25.1,0,0,0,94,60.06L88.78,89.43h18.28Z"/><path class="cls-1" d="M425.11,80.14l.18-1a7.09,7.09,0,0,0-5.74-8.2L119.88,18.11a7.09,7.09,0,0,0-8.2,5.74"/><path class="cls-2" d="M111.68,23.85a7.09,7.09,0,0,1,8.2-5.74L419.54,70.93c3.84.68,6.51,5.5,5.84,9.34l17.91-.13A25.11,25.11,0,0,0,422.67,53.2L123,.38A25.1,25.1,0,0,0,94,20.73Z"/><path class="cls-2" d="M182.25,258.55H154.76a7,7,0,0,1-7-7A12.8,12.8,0,0,0,135,238.76a7,7,0,0,1-7-7V161.35a7,7,0,0,1,7-7,12.8,12.8,0,0,0,12.78-12.78,7,7,0,0,1,7-7h27.49a7,7,0,0,1,0,14H160.83A26.89,26.89,0,0,1,142,167.42v58.27a26.89,26.89,0,0,1,18.86,18.86h21.42a7,7,0,0,1,0,14Z"/><path class="cls-2" d="M384.47,258.55H357a7,7,0,1,1,0-14H378.4a26.89,26.89,0,0,1,18.86-18.86V167.42a26.89,26.89,0,0,1-18.86-18.86H357a7,7,0,0,1,0-14h27.49a7,7,0,0,1,7,7,12.8,12.8,0,0,0,12.79,12.78,7,7,0,0,1,7,7v70.41a7,7,0,0,1-7,7,12.8,12.8,0,0,0-12.79,12.78A7,7,0,0,1,384.47,258.55Z"/></g></g></svg>