<svg xmlns="http://www.w3.org/2000/svg" xmlns:xlink="http://www.w3.org/1999/xlink" viewBox="0 0 315.83 467.66"><defs><style>.cls-1{fill:#28479e;}.cls-2{fill:url(#linear-gradient);}.cls-3{fill:url(#linear-gradient-2);}.cls-4{fill:#ff1919;}</style><linearGradient id="linear-gradient" x1="2.84" y1="187.5" x2="324.84" y2="220.5" gradientUnits="userSpaceOnUse"><stop offset="0" stop-color="#ff8900"/><stop offset="0.05" stop-color="#ff7f00"/><stop offset="0.37" stop-color="#ff4900"/><stop offset="0.65" stop-color="#ff2100"/><stop offset="0.87" stop-color="#ff0900"/><stop offset="1" stop-color="red"/></linearGradient><linearGradient id="linear-gradient-2" x1="2.9" y1="186.96" x2="324.9" y2="219.96" xlink:href="#linear-gradient"/></defs><title>ic-ebanking_1</title><g id="Layer_2" data-name="Layer 2"><g id="hang"><polygon class="cls-1" points="67.77 400.98 91.65 437.16 91.65 467.66 111.65 467.66 111.65 431.16 84.47 389.96 67.77 400.98"/><path class="cls-1" d="M0,128.25c0,13.63,7.53,25.4,18.34,30.75C7.53,164.36,0,176.13,0,189.76c0,14.4,8.41,26.73,20.22,31.6C8.41,226.24,0,238.56,0,253c0,13.78,7.69,25.65,18.7,30.92C7.69,289.17,0,301,0,314.82c0,18.66,14.1,33.84,31.44,33.84H52.84v-18H31.44C24,330.66,18,323.55,18,314.82S24,299,31.44,299H52.84V268.81H31.44C24,268.81,18,261.7,18,253s6-15.84,13.44-15.84H52.84V205.6H31.44C24,205.6,18,198.5,18,189.76s6-15.84,13.44-15.84H52.84V144.09H31.44C24,144.09,18,137,18,128.25s6-15.84,13.44-15.84H52.84v-18H31.44C14.1,94.41,0,109.59,0,128.25Z"/><path class="cls-2" d="M191.45,406.47H76.52a35.68,35.68,0,0,1-35.64-35.64V35.64A35.68,35.68,0,0,1,76.52,0H236.16A35.68,35.68,0,0,1,271.8,35.64V221.77h-22V35.64A13.65,13.65,0,0,0,236.16,22H76.52A13.65,13.65,0,0,0,62.88,35.64v335.2a13.65,13.65,0,0,0,13.64,13.64H191.45Z"/><path class="cls-3" d="M160.65,370.15H94.25A21.29,21.29,0,0,1,73,348.88V56.49A21.29,21.29,0,0,1,94.25,35.22H218.43A21.29,21.29,0,0,1,239.7,56.49V200.68h-11V56.49a10.28,10.28,0,0,0-10.27-10.27H94.25A10.28,10.28,0,0,0,84,56.49V348.88a10.28,10.28,0,0,0,10.27,10.27h66.41Z"/><path class="cls-1" d="M303.42,255.48c-9-21.74-21.29-33.71-34.58-33.71H171.06c-9.28,0-18.72,4.53-25.9,12.42a44.56,44.56,0,0,0-11.48,30.1c0,27.92,19.26,43,37.38,43h39.5c-13.31,12.47-21.37,20.14-25.4,34.15-3.72,12.94-3.72,30.27-3.72,64.8h20c0-31.62,0-49,2.94-59.28,2.43-8.46,6.81-12.86,20.28-25.49,4.81-4.51,10.81-10.13,17.79-17.11a10,10,0,0,0-7.07-17.07H171.06a16.55,16.55,0,0,1-10.84-4.62c-4.34-4.1-6.54-10.28-6.54-18.37,0-13.75,10.29-22.52,17.38-22.52h97.78c2.81,0,9.66,5.8,16.1,21.36,14.13,34.1,18.13,96.91-11.1,126.14L288,403.42c21-21,26.65-51.44,27.66-73.25C316.83,304.73,312.26,276.81,303.42,255.48Z"/><path class="cls-4" d="M164,128.87V92.48a18.42,18.42,0,0,1,9,7.16,6.41,6.41,0,1,0,10.7-7A31.19,31.19,0,0,0,164,79.18V69a6.41,6.41,0,0,0-12.82,0V79.16a31.26,31.26,0,0,0,0,61.21v36.38a18.43,18.43,0,0,1-9-7.16,6.41,6.41,0,0,0-10.7,7A31.19,31.19,0,0,0,151.2,190v10.18a6.41,6.41,0,1,0,12.82,0V190.07a31.26,31.26,0,0,0,0-61.2Zm-24.87-19.1A18.46,18.46,0,0,1,151.2,92.48V127a18.45,18.45,0,0,1-12.05-17.28Zm24.87,67V142.19a18.41,18.41,0,0,1,0,34.56Zm0,0"/></g></g></svg>