<svg xmlns="http://www.w3.org/2000/svg" xmlns:xlink="http://www.w3.org/1999/xlink" viewBox="0 0 174.8 160.69"><defs><style>.cls-1{fill:none;}.cls-2{fill:url(#linear-gradient);}.cls-3{clip-path:url(#clip-path);}.cls-4{fill:#164397;}</style><linearGradient id="linear-gradient" x1="64.28" y1="126.63" x2="179.94" y2="135.97" gradientUnits="userSpaceOnUse"><stop offset="0" stop-color="#ff8900"/><stop offset="0.01" stop-color="#f80"/><stop offset="0.24" stop-color="#ff5800"/><stop offset="0.47" stop-color="#ff3200"/><stop offset="0.68" stop-color="#ff1600"/><stop offset="0.86" stop-color="#ff0600"/><stop offset="1" stop-color="red"/></linearGradient><clipPath id="clip-path" transform="translate(0 0)"><rect class="cls-1" width="174.8" height="160.69"/></clipPath></defs><title>ic-24h</title><g id="Layer_2" data-name="Layer 2"><g id="Layer_1-2" data-name="Layer 1"><path class="cls-2" d="M88.07,103.62A17.75,17.75,0,0,0,82,107.46a15.94,15.94,0,0,0-3.61,5.32,14.54,14.54,0,0,0-1.21,5.61,4.71,4.71,0,0,0,1.29,3.52,4.39,4.39,0,0,0,3.24,1.29,4.11,4.11,0,0,0,3.37-1.41,13.23,13.23,0,0,0,2.07-4,18.41,18.41,0,0,1,1.32-3.2,9.1,9.1,0,0,1,8-4.49,9.34,9.34,0,0,1,4.48,1.09,8.33,8.33,0,0,1,3.24,3.07,8.59,8.59,0,0,1,1.18,4.48,11.25,11.25,0,0,1-1.1,4.7,18,18,0,0,1-3.25,4.68,33,33,0,0,1-5.33,4.56,62.53,62.53,0,0,0-6,5.05q-4.18,3.86-9.37,9.23A13.83,13.83,0,0,0,78,150.58,9.59,9.59,0,0,0,77,154.3a5.18,5.18,0,0,0,1.64,3.81,6.21,6.21,0,0,0,4.57,1.61H112a5.13,5.13,0,0,0,3.85-1.32,4.57,4.57,0,0,0,1.26-3.24,4.06,4.06,0,0,0-1.6-3.39,7.38,7.38,0,0,0-4.65-1.25H90.44A22.9,22.9,0,0,1,92.36,148a63,63,0,0,1,8.06-7.45c3.92-3.2,6.7-5.56,8.37-7.05a27.36,27.36,0,0,0,4.9-6.21,16.65,16.65,0,0,0,2.4-8.81,16.22,16.22,0,0,0-4.39-11A15.42,15.42,0,0,0,106.9,104a25.14,25.14,0,0,0-10.18-1.87,23.41,23.41,0,0,0-8.65,1.47m55.23,12.45v22.71H126.5ZM144,103a32.45,32.45,0,0,0-3.33,4l-20.7,27.68c-.57.75-1.05,1.39-1.44,1.91s-.77,1.07-1.13,1.63a7.64,7.64,0,0,0-.83,1.6,4.57,4.57,0,0,0-.27,1.49,5.84,5.84,0,0,0,1.85,4.57,8.06,8.06,0,0,0,5.56,1.68h19.6v7.26a6.47,6.47,0,0,0,1.35,4.43,5,5,0,0,0,7.08,0,6.43,6.43,0,0,0,1.33-4.47v-7.26h2.39a7.93,7.93,0,0,0,4.45-1,3.74,3.74,0,0,0,1.48-3.29c0-1.84-.6-3-1.81-3.58a11.94,11.94,0,0,0-4.83-.81h-1.68V108.55q0-6.8-5.93-6.8A4.46,4.46,0,0,0,144,103" transform="translate(0 0)"/><g class="cls-3"><path class="cls-4" d="M61.05,157.79a4.85,4.85,0,0,1-1.23-.16A80.12,80.12,0,1,1,160.22,80.11a4.84,4.84,0,1,1-9.69,0,70.42,70.42,0,1,0-88.26,68.14,4.84,4.84,0,0,1-1.22,9.53m11.86-76a4.83,4.83,0,0,1-2.42-.65l-35-20.82a4.84,4.84,0,0,1,4.84-8.39l35,20.82a4.85,4.85,0,0,1-2.43,9M87,79.8a4.84,4.84,0,0,1-3.43-8.27l36.21-36.21a4.84,4.84,0,1,1,6.85,6.85L90.38,78.39A4.82,4.82,0,0,1,87,79.8" transform="translate(0 0)"/><path class="cls-4" d="M80.11,66.77A13.34,13.34,0,1,0,93.45,80.11,13.36,13.36,0,0,0,80.11,66.77" transform="translate(0 0)"/><path class="cls-4" d="M80.11,33.07a4.84,4.84,0,0,1-4.84-4.84V22.94a4.84,4.84,0,0,1,9.69,0v5.29a4.84,4.84,0,0,1-4.84,4.84" transform="translate(0 0)"/><path class="cls-4" d="M28.23,85h-5.3a4.84,4.84,0,1,1,0-9.68h5.3a4.84,4.84,0,1,1,0,9.68" transform="translate(0 0)"/><path class="cls-4" d="M157,92.31a4.85,4.85,0,0,1-3.8-1.84L134.55,66.86a4.84,4.84,0,0,1,7.6-6L156,78.36l9.59-20.15a4.84,4.84,0,0,1,8.75,4.16L161.39,89.55a4.84,4.84,0,0,1-3.83,2.73,5,5,0,0,1-.54,0" transform="translate(0 0)"/></g></g></g></svg>