<svg xmlns="http://www.w3.org/2000/svg" xmlns:xlink="http://www.w3.org/1999/xlink" viewBox="0 0 505.64 388.61"><defs><style>.cls-1{fill:#164397;}.cls-2{fill:none;stroke:#164397;stroke-linecap:round;stroke-linejoin:round;stroke-width:15px;}.cls-3{fill:url(#linear-gradient);}</style><linearGradient id="linear-gradient" x1="375.38" y1="132.02" x2="130.83" y2="132.02" gradientUnits="userSpaceOnUse"><stop offset="0" stop-color="#ff8900"/><stop offset="0.01" stop-color="#ff8700"/><stop offset="0.25" stop-color="#ff5700"/><stop offset="0.47" stop-color="#ff3100"/><stop offset="0.68" stop-color="#ff1600"/><stop offset="0.86" stop-color="#ff0600"/><stop offset="1" stop-color="red"/></linearGradient></defs><title>ic-step-3</title><g id="Layer_2" data-name="Layer 2"><g id="blue"><g id="_4" data-name="4"><g id="_4-2" data-name="4"><path class="cls-1" d="M476.63,237.12H48.36c-8.4,0-25.41,3-29.45-6.82-1.91-4.66-.78-11.6-.78-16.46V84.92c0-18.47-.89-37.2,0-55.66C18.8,15.32,34.58,18,44.21,18H445.67c10.18,0,20.49-.48,30.67,0,8.25.39,11.29,6.57,11.29,13.84v188.6c0,7.68-1,16.33-11,16.66-11.55.39-11.61,18.39,0,18,17.73-.6,29-14.53,29-31.58V33c0-1.32,0-2.66,0-4-.37-13.1-9-24.92-21.93-28.12C479.42-.15,475.1,0,470.75,0H69.52C56.64,0,43.75,0,30.87,0,17,.08,3.88,8.35.86,22.6c-1.31,6.18-.73,13-.73,19.22V211.71c0,5.23-.3,10.56,0,15.78C1.24,243.75,14.48,255,30.41,255.12c12.44.08,24.88,0,37.31,0h408.9C488.21,255.12,488.23,237.12,476.63,237.12Z"/><path class="cls-1" d="M404.89,226.93H372.77a7.5,7.5,0,0,1,0-15h25.17a51.66,51.66,0,0,1,43.49-43.49V95.6a51.66,51.66,0,0,1-43.49-43.49H372.77a7.5,7.5,0,0,1,0-15h32.12a7.5,7.5,0,0,1,7.5,7.5,36.57,36.57,0,0,0,36.53,36.53,7.5,7.5,0,0,1,7.5,7.5V175.4a7.5,7.5,0,0,1-7.5,7.5,36.57,36.57,0,0,0-36.53,36.53A7.5,7.5,0,0,1,404.89,226.93Z"/><path class="cls-1" d="M129.29,226.93H97.17a7.5,7.5,0,0,1-7.5-7.5A36.57,36.57,0,0,0,53.14,182.9a7.5,7.5,0,0,1-7.5-7.5V88.64a7.5,7.5,0,0,1,7.5-7.5A36.57,36.57,0,0,0,89.67,44.61a7.5,7.5,0,0,1,7.5-7.5h32.12a7.5,7.5,0,0,1,0,15H104.13A51.66,51.66,0,0,1,60.64,95.6v72.84a51.66,51.66,0,0,1,43.49,43.49h25.17a7.5,7.5,0,0,1,0,15Z"/><path class="cls-2" d="M404.45,271.86"/></g><rect class="cls-1" x="0.1" y="281.68" width="504.9" height="15"/><rect class="cls-1" x="0.1" y="327.64" width="504.9" height="15"/><rect class="cls-1" x="0.1" y="373.61" width="504.9" height="15"/></g></g><g id="orange"><path id="_4-3" data-name="4" class="cls-3" d="M185.53,91h18l-28.28,82H158.89L130.83,91h18.51l18,62.23Zm32.55,0h18.17l32.93,57.15V91h16.15v82H268l-33.77-58.16V173H218.08Zm135.68,1.78a27.39,27.39,0,0,1,14.14,10.4,36.25,36.25,0,0,1,5.91,13.23A62.74,62.74,0,0,1,375.38,130q0,16.35-6.65,27.69-9,15.29-27.82,15.29H305.15V91h35.76A44.16,44.16,0,0,1,353.76,92.82ZM322,105.27v53.5h16q12.29,0,17.13-12a41.66,41.66,0,0,0,2.65-15.63q0-12.51-4-19.21T338,105.27Z"/></g></g></svg>