<?xml version="1.0" encoding="iso-8859-1"?>
<!-- Generator: Adobe Illustrator 19.0.0, SVG Export Plug-In . SVG Version: 6.00 Build 0)  -->
<svg version="1.1" id="Layer_1" xmlns="http://www.w3.org/2000/svg" xmlns:xlink="http://www.w3.org/1999/xlink" x="0px" y="0px"
	 viewBox="0 0 79 57" style="enable-background:new 0 0 79 57;" xml:space="preserve">
<path id="XMLID_2_" style="fill:#1A478B;" d="M72.561,0H6.083C2.752,0,0,2.751,0,6.082v43.884c0,3.331,2.752,6.083,6.083,6.083
	h66.478c3.33,0,6.082-2.752,6.082-6.083V6.082C78.788,2.751,76.036,0,72.561,0 M49.822,29.689l25.345-19.552v39.249L49.822,29.689z
	 M6.228,3.62H72.56c1.159,0,2.173,0.869,2.462,1.883L41.421,31.572c-1.303,1.014-3.475,1.014-4.634,0L3.621,5.793
	C3.911,4.634,4.925,3.62,6.228,3.62 M3.621,49.386V10.427l25.056,19.408L3.621,49.386z M6.228,52.718c-0.29,0-0.579,0-0.724-0.146
	l26.214-20.42l2.897,2.317c1.303,1.014,2.896,1.448,4.489,1.448s3.331-0.434,4.49-1.448l3.186-2.462l26.504,20.565
	c-0.289,0.146-0.434,0.146-0.723,0.146H6.228z"/>
</svg>
