<?xml version="1.0" encoding="iso-8859-1"?>
<!-- Generator: Adobe Illustrator 19.0.0, SVG Export Plug-In . SVG Version: 6.00 Build 0)  -->
<svg version="1.1" id="Layer_1" xmlns="http://www.w3.org/2000/svg" xmlns:xlink="http://www.w3.org/1999/xlink" x="0px" y="0px"
	 viewBox="0 0 166.769 78.239" style="enable-background:new 0 0 166.769 78.239;" xml:space="preserve">
<g>
	<defs>
		<rect id="SVGID_1_" y="0" width="166.769" height="78.239"/>
	</defs>
	<clipPath id="SVGID_2_">
		<use xlink:href="#SVGID_1_"  style="overflow:visible;"/>
	</clipPath>
	<path style="clip-path:url(#SVGID_2_);fill:#373737;" d="M1.05,75.556v-4.002H0v-1.186h1.05v-4.001h3.475
		c1.33,0,2.449,0.422,3.359,1.266c0.935,0.872,1.404,1.98,1.404,3.328c0,1.356-0.469,2.466-1.404,3.328
		c-0.901,0.845-2.016,1.267-3.345,1.267H1.05z M2.335,74.37h2.073c1.058,0,1.906-0.292,2.545-0.876
		c0.673-0.62,1.009-1.464,1.009-2.533c0-1.096-0.345-1.949-1.036-2.56c-0.655-0.566-1.526-0.848-2.61-0.848H2.335v2.815h2.532v1.186
		H2.335V74.37z"/>
	<rect x="14.285" y="66.368" style="clip-path:url(#SVGID_2_);fill:#373737;" width="1.286" height="9.188"/>
	<path style="clip-path:url(#SVGID_2_);fill:#373737;" d="M26.038,66.368v1.185h-3.791v2.776h3.66v1.185h-3.66v2.857h3.909v1.185
		h-5.195v-9.188H26.038z M23.519,64.797l-1.495,0.997v-0.89l1.495-0.728l1.496,0.728v0.89L23.519,64.797z M25.309,64.655l0.069-0.82
		c0.505-0.038,0.758-0.225,0.758-0.56c0-0.268-0.161-0.402-0.483-0.402c-0.247,0-0.495,0.075-0.743,0.226l0.069-0.509
		c0.275-0.114,0.537-0.17,0.785-0.17c0.284,0,0.514,0.066,0.688,0.198c0.211,0.151,0.317,0.368,0.317,0.651
		c0,0.349-0.216,0.604-0.648,0.764L25.309,64.655z"/>
	<polygon style="clip-path:url(#SVGID_2_);fill:#373737;" points="39.248,66.368 39.248,75.556 37.962,75.556 37.962,68.402 
		35.182,71.959 34.972,71.959 32.19,68.402 32.191,68.402 32.191,75.556 30.905,75.556 30.905,66.368 32.063,66.368 35.068,70.146 
		38.09,66.368 	"/>
	<polygon style="clip-path:url(#SVGID_2_);fill:#373737;" points="58.36,66.368 58.36,67.554 55.264,67.554 55.264,75.556 
		53.979,75.556 53.979,67.554 50.883,67.554 50.883,66.368 	"/>
	<path style="clip-path:url(#SVGID_2_);fill:#373737;" d="M70.485,66.364H70.48c0.001,0.001,0.001,0.002,0.001,0.004h-1.272v5.349
		c0,0.952-0.189,1.621-0.565,2.007c-0.481,0.494-1.18,0.741-2.098,0.741c-0.779,0-1.422-0.26-1.929-0.782
		c-0.358-0.368-0.537-0.997-0.537-1.885v-5.43h-1.286v5.712c0,1.114,0.354,1.999,1.063,2.654c0.673,0.629,1.561,0.943,2.663,0.943
		c1.224,0,2.181-0.305,2.872-0.916c0.735-0.646,1.102-1.585,1.102-2.816v-2.988h-0.009V66.364z"/>
	<path style="clip-path:url(#SVGID_2_);fill:#373737;" d="M66.532,76.784c-0.192,0-0.358,0.072-0.499,0.216
		c-0.139,0.143-0.209,0.314-0.209,0.512c0,0.207,0.067,0.379,0.203,0.519c0.136,0.139,0.304,0.208,0.505,0.208
		c0.201,0,0.37-0.069,0.505-0.208c0.136-0.14,0.203-0.312,0.203-0.519s-0.067-0.379-0.203-0.519
		C66.902,76.853,66.733,76.784,66.532,76.784"/>
	<path style="clip-path:url(#SVGID_2_);fill:#373737;" d="M70.806,65.126c-0.264,0-0.445,0.136-0.542,0.407
		c-0.079,0.221-0.015,0.417,0.19,0.587c-0.049,0.121-0.104,0.222-0.162,0.302l-0.059-0.041v0.695c0.772-0.204,1.16-0.628,1.16-1.272
		C71.393,65.352,71.197,65.126,70.806,65.126"/>
	<path style="clip-path:url(#SVGID_2_);fill:#373737;" d="M79.44,66.3l4.001,9.256H82.12l-1.185-2.708h-3.808l-1.124,2.708h-1.312
		l3.843-9.256H79.44z M78.964,68.321l-1.344,3.342h2.802L78.964,68.321z"/>
	<polygon style="clip-path:url(#SVGID_2_);fill:#373737;" points="97.641,70.708 102.499,75.556 100.73,75.556 96.178,71.015 
		96.178,75.556 94.892,75.556 94.892,66.366 96.178,66.366 96.178,70.57 99.943,66.366 101.529,66.366 	"/>
	<polygon style="clip-path:url(#SVGID_2_);fill:#373737;" points="114.49,66.368 114.49,75.556 113.204,75.556 113.204,71.555 
		108.193,71.555 108.193,75.556 106.909,75.556 106.909,66.368 108.193,66.368 108.193,70.369 113.204,70.369 113.204,66.368 	"/>
	<rect x="119.894" y="66.368" style="clip-path:url(#SVGID_2_);fill:#373737;" width="1.286" height="9.188"/>
	<path style="clip-path:url(#SVGID_2_);fill:#373737;" d="M141.249,67v1.415c-1.066-0.638-2.094-0.957-3.082-0.957
		c-1.006,0-1.853,0.328-2.538,0.983c-0.687,0.657-1.03,1.5-1.03,2.534c0,1.069,0.34,1.918,1.023,2.546
		c0.682,0.628,1.548,0.943,2.597,0.943c1.041,0,2.081-0.346,3.122-1.037v1.441c-1.006,0.539-2.086,0.809-3.239,0.809
		c-1.54,0-2.764-0.521-3.674-1.563c-0.77-0.889-1.155-1.895-1.155-3.018c0-1.437,0.473-2.61,1.417-3.517
		c0.918-0.889,2.081-1.334,3.49-1.334C139.055,66.245,140.077,66.497,141.249,67"/>
	<path style="clip-path:url(#SVGID_2_);fill:#373737;" d="M150.091,66.3l4.001,9.256h-1.322l-1.184-2.708h-3.808l-1.124,2.708
		h-1.312l3.842-9.256H150.091z M147.986,64.269c-0.043,0.054-0.183-0.009-0.419-0.188l-0.905-0.701
		c-0.167-0.125-0.337-0.283-0.512-0.472c-0.105-0.108-0.157-0.202-0.157-0.282c0-0.207,0.223-0.288,0.669-0.243
		c0.175,0.17,0.327,0.346,0.459,0.525l0.682,0.943C147.977,64.086,148.039,64.224,147.986,64.269 M149.605,64.797l-1.496,0.997
		v-0.889l1.496-0.728l1.495,0.728v0.889L149.605,64.797z M149.615,68.321l-1.345,3.342h2.803L149.615,68.321z"/>
	<polygon style="clip-path:url(#SVGID_2_);fill:#373737;" points="166.763,66.368 166.763,75.556 165.661,75.556 159.68,68.483 
		159.68,75.556 158.473,75.556 158.473,66.368 159.49,66.368 165.556,73.48 165.556,66.368 	"/>
	<polygon style="clip-path:url(#SVGID_2_);fill:#164397;" points="7.479,21.405 1.136,54.805 18.825,54.805 19.138,54.161 
		21.79,48.71 9.411,48.71 10.947,40.633 20.217,40.633 23.092,34.636 12.087,34.636 13.475,27.501 27.929,27.501 30.851,21.405 	"/>
	<path style="clip-path:url(#SVGID_2_);fill:#1C4895;" d="M64.424,34.993c-2.825-1.56-4.856-2.729-4.856-4.63
		c0-1.804,1.734-3.46,5.054-3.46c2.665-0.046,4.96,0.805,6.104,1.39c-1.965-4.129-3.977-6.878-4.376-7.406
		c-0.364-0.015-0.739-0.026-1.134-0.026c-7.283,0-13.18,4.044-13.18,10.671c0,4.288,3.369,6.823,6.938,8.724
		c3.071,1.558,4.509,2.778,4.509,4.63c0,2.583-2.528,3.849-5.303,3.849c-3.031,0-5.82-0.901-7.798-2.05l0.861,7.223
		c1.663,0.486,3.761,0.821,6.244,0.821c7.432,0,13.578-3.752,13.578-11.062C71.065,39.768,68.487,37.088,64.424,34.993"/>
	<path style="clip-path:url(#SVGID_2_);fill:#1C4895;" d="M34.091,40.682l3.32-7.186c0.892-1.932,1.833-4.509,2.676-6.541h0.099
		c0.148,2.032,0.346,4.707,0.495,6.541l0.644,7.186H34.091z M49.209,49.761l-3.324-28.355h-9.169L22.313,51.004l-1.849,3.801h1.139
		h6.441l3.966-8.673h9.613l0.693,8.673h7.483l-0.105-0.897L49.209,49.761z"/>
	<path style="clip-path:url(#SVGID_2_);fill:#1C4895;" d="M78.027,43.409c-0.448,0.483-0.694,0.763-0.697,0.766l-0.635,0.722
		l-2.036,9.907h7.837l4.01-19.511C82.268,38.937,79.192,42.15,78.027,43.409"/>
	<path style="clip-path:url(#SVGID_2_);fill:#EB242A;" d="M116.983,0l-4.37,19.153c-0.007,0-0.016,0.004-0.023,0.004
		c-0.46-0.015-0.923-0.024-1.389-0.019c-15.872,0.075-29.485,10.028-34.98,24.004c-0.424-6.486-2.523-12.354-4.6-16.535
		c-1.267-2.545-2.57-4.409-3.349-5.553c-0.483-0.717-1.404-1.75-1.439-1.793l9.514-3.431c1.192,1.566,3.451,5.427,4.566,8.55
		c1.159,3.247,1.758,6.276,1.758,6.276c1.509-2.463,3.375-4.962,5.057-7.135C100.138,7.481,116.983,0,116.983,0"/>
</g>
<g>
	<defs>
		<path id="SVGID_3_" d="M111.2,19.138c-15.872,0.075-29.485,10.029-34.979,24.004c0,0.02,0.004,0.04,0.004,0.059
			c0,0,0.25-0.284,0.72-0.792c0.099-0.111,0.214-0.233,0.334-0.36c1.647-1.749,5.114-5.285,9.708-9.094
			c2.228-1.848,4.719-3.756,7.394-5.559c5.523-3.72,11.826-6.971,18.208-8.238c-0.379-0.013-0.76-0.021-1.145-0.021
			C111.363,19.137,111.281,19.137,111.2,19.138"/>
	</defs>
	<clipPath id="SVGID_4_">
		<use xlink:href="#SVGID_3_"  style="overflow:visible;"/>
	</clipPath>
	
		<linearGradient id="SVGID_5_" gradientUnits="userSpaceOnUse" x1="6.712920e-006" y1="78.2389" x2="1" y2="78.2389" gradientTransform="matrix(36.3688 0 0 -36.3688 76.2207 2876.6216)">
		<stop  offset="0" style="stop-color:#E8282B"/>
		<stop  offset="0.15" style="stop-color:#E8282B"/>
		<stop  offset="0.75" style="stop-color:#ED7E24"/>
		<stop  offset="1" style="stop-color:#ED7E24"/>
	</linearGradient>
	<rect x="76.221" y="19.137" style="clip-path:url(#SVGID_4_);fill:url(#SVGID_5_);" width="36.368" height="24.064"/>
</g>
<g>
	<defs>
		<rect id="SVGID_6_" y="0" width="166.769" height="78.239"/>
	</defs>
	<clipPath id="SVGID_7_">
		<use xlink:href="#SVGID_6_"  style="overflow:visible;"/>
	</clipPath>
	<path style="clip-path:url(#SVGID_7_);fill:#EB242A;" d="M101.264,36.582c0.965,0,1.922,0.132,2.872,0.395
		c0.949,0.261,1.732,0.621,2.35,1.076l-2.26,3.23c-0.91-0.314-1.616-0.524-2.121-0.63c-0.504-0.104-1.072-0.158-1.702-0.158
		c-0.761,0-1.543,0.229-2.345,0.683c-0.804,0.457-1.52,1.094-2.148,1.919c-0.628,0.823-1.067,1.759-1.313,2.809
		c-0.25,1.069-0.247,2.006,0.009,2.811c0.257,0.806,0.701,1.423,1.334,1.852c0.632,0.43,1.346,0.644,2.144,0.644
		c1.244,0,2.517-0.323,3.82-0.972l1.082,3.572c-0.818,0.403-1.769,0.722-2.855,0.958c-1.084,0.237-2.12,0.356-3.102,0.356
		c-2.005,0-3.657-0.391-4.959-1.169c-1.302-0.779-2.185-1.86-2.65-3.244c-0.463-1.383-0.484-2.978-0.061-4.781
		c0.423-1.803,1.217-3.414,2.384-4.832c1.167-1.419,2.584-2.527,4.246-3.324C97.65,36.98,99.409,36.582,101.264,36.582"/>
	<path style="clip-path:url(#SVGID_7_);fill:#EB242A;" d="M113.548,46.275c-0.859,0.263-1.626,0.604-2.3,1.024l-1.755,7.487h-5.065
		l2.98-12.714h2.534l0.86,1.55c0.748-0.42,1.577-0.787,2.486-1.103c0.909-0.315,1.715-0.473,2.42-0.473l0.132,3.834
		C115.172,45.88,114.407,46.012,113.548,46.275"/>
	<path style="clip-path:url(#SVGID_7_);fill:#EB242A;" d="M123.905,45.434c-0.465,0-0.92,0.185-1.368,0.553
		c-0.448,0.367-0.718,0.787-0.811,1.259h3.507c0.103-0.437,0.051-0.848-0.156-1.234C124.87,45.627,124.479,45.434,123.905,45.434
		 M124.943,41.599c1.393,0,2.5,0.298,3.324,0.893c0.826,0.596,1.368,1.392,1.626,2.39c0.257,0.999,0.243,2.111-0.045,3.336
		l-0.326,1.393h-8.212c0.06,0.543,0.308,0.967,0.746,1.274c0.438,0.307,1.075,0.459,1.91,0.459c1.281,0,2.581-0.289,3.906-0.866
		l0.661,3.23c-0.647,0.386-1.525,0.71-2.635,0.972c-1.11,0.263-2.212,0.395-3.307,0.395c-1.577,0-2.915-0.255-4.01-0.762
		c-1.097-0.508-1.87-1.265-2.321-2.273c-0.45-1.005-0.511-2.21-0.183-3.611c0.324-1.383,0.923-2.592,1.796-3.625
		c0.874-1.033,1.926-1.826,3.16-2.377C122.266,41.875,123.57,41.599,124.943,41.599"/>
	<path style="clip-path:url(#SVGID_7_);fill:#EB242A;" d="M137.925,51.397c0.408,0,0.847-0.132,1.317-0.394l1.262-5.385
		c-0.484-0.228-0.94-0.342-1.367-0.342c-0.65,0-1.254,0.28-1.811,0.84c-0.559,0.562-0.95,1.323-1.176,2.286
		c-0.226,0.963-0.186,1.703,0.12,2.22C136.575,51.139,137.127,51.397,137.925,51.397 M143.421,54.785h-2.561l-0.536-0.919
		c-0.642,0.367-1.308,0.661-2.001,0.88c-0.692,0.219-1.371,0.328-2.039,0.328c-2.079,0-3.622-0.56-4.631-1.682
		c-1.007-1.12-1.255-2.775-0.742-4.963c0.522-2.224,1.564-3.918,3.126-5.083c1.563-1.165,3.439-1.747,5.628-1.747
		c0.631,0,1.204,0.087,1.72,0.262l1.25-5.332l5.134-0.289L143.421,54.785z"/>
	<path style="clip-path:url(#SVGID_7_);fill:#EB242A;" d="M155.766,37.942c-0.164,0.701-0.58,1.305-1.246,1.814
		c-0.666,0.507-1.381,0.761-2.14,0.761c-0.742,0-1.323-0.254-1.742-0.761c-0.419-0.509-0.545-1.113-0.382-1.814
		c0.168-0.717,0.582-1.335,1.241-1.851c0.659-0.517,1.359-0.776,2.102-0.776c0.76,0,1.354,0.259,1.781,0.776
		C155.805,36.607,155.935,37.225,155.766,37.942 M154.534,42.25l-2.986,12.739h-5.065l2.987-12.739H154.534z"/>
	<path style="clip-path:url(#SVGID_7_);fill:#EB242A;" d="M163.235,42.572h3.534l-0.407,3.756h-4.008l-0.738,3.152
		c-0.123,0.525-0.078,0.942,0.138,1.247c0.215,0.307,0.565,0.46,1.047,0.46c0.669,0,1.357-0.166,2.066-0.499l0.684,3.257
		c-0.419,0.281-1.031,0.539-1.837,0.774c-0.808,0.238-1.527,0.356-2.158,0.356c-1.113,0-2.107-0.193-2.981-0.578
		c-0.874-0.385-1.515-0.959-1.921-1.721c-0.406-0.762-0.481-1.684-0.228-2.771l0.863-3.677h-2.088l0.881-3.756h2.087l0.807-3.441
		l5.219-0.658L163.235,42.572z"/>
</g>
</svg>
