<svg xmlns="http://www.w3.org/2000/svg" xmlns:xlink="http://www.w3.org/1999/xlink" viewBox="0 0 451 261"><defs><style>.cls-1{fill:#1a468a;}.cls-2{fill:url(#linear-gradient);}.cls-3{fill:url(#linear-gradient-4);}.cls-4{fill:url(#linear-gradient-6);}.cls-5{fill:url(#linear-gradient-7);}.cls-6{fill:url(#linear-gradient-8);}.cls-7{fill:url(#linear-gradient-11);}</style><linearGradient id="linear-gradient" x1="-223.5" y1="132" x2="670.88" y2="132" gradientUnits="userSpaceOnUse"><stop offset="0" stop-color="#ff8900"/><stop offset="0.01" stop-color="#ff8700"/><stop offset="0.25" stop-color="#ff5700"/><stop offset="0.47" stop-color="#ff3100"/><stop offset="0.68" stop-color="#ff1600"/><stop offset="0.86" stop-color="#ff0600"/><stop offset="1" stop-color="red"/></linearGradient><linearGradient id="linear-gradient-4" y1="46.5" x2="670.88" y2="46.5" xlink:href="#linear-gradient"/><linearGradient id="linear-gradient-6" y1="88.5" x2="670.88" y2="88.5" xlink:href="#linear-gradient"/><linearGradient id="linear-gradient-7" y1="136.5" x2="670.88" y2="136.5" xlink:href="#linear-gradient"/><linearGradient id="linear-gradient-8" y1="214.5" x2="670.88" y2="214.5" xlink:href="#linear-gradient"/><linearGradient id="linear-gradient-11" y1="172.5" x2="670.88" y2="172.5" xlink:href="#linear-gradient"/></defs><title>ic-giai-ngan</title><g id="Layer_2" data-name="Layer 2"><g id="blue"><g id="_1" data-name="1"><path class="cls-1" d="M443.5,261h-304a7.5,7.5,0,0,1,0-15H436V15H200.5a7.5,7.5,0,0,1,0-15h243A7.5,7.5,0,0,1,451,7.5v246A7.5,7.5,0,0,1,443.5,261Z"/><path class="cls-1" d="M361.4,220.54H162a7.5,7.5,0,0,1,0-15H354.47a49.2,49.2,0,0,1,41-41V96.47a49.2,49.2,0,0,1-41-41H203a7.5,7.5,0,0,1,0-15H361.4a7.5,7.5,0,0,1,7.5,7.5A34.12,34.12,0,0,0,403,82a7.5,7.5,0,0,1,7.5,7.5v81.92A7.5,7.5,0,0,1,403,179,34.12,34.12,0,0,0,368.9,213,7.5,7.5,0,0,1,361.4,220.54Z"/></g></g><g id="orange"><g id="_1-2" data-name="1"><path class="cls-2" d="M203.54,97.5H218.7l-23.81,69H181.11l-23.61-69h15.59l15.16,52.38Z"/><path class="cls-2" d="M229.16,97.5h15.3l27.72,48.11V97.5h13.6v69H271.18l-28.43-49v49h-13.6Z"/><path class="cls-2" d="M343.37,99a23.05,23.05,0,0,1,11.9,8.75,30.52,30.52,0,0,1,5,11.14,52.82,52.82,0,0,1,1.33,11.42q0,13.76-5.59,23.31-7.59,12.87-23.42,12.87H302.46v-69h30.11A37.17,37.17,0,0,1,343.37,99Zm-26.75,10.49v45H330.1q10.34,0,14.42-10.06a35.07,35.07,0,0,0,2.23-13.15q0-10.53-3.34-16.17t-13.31-5.64Z"/><path class="cls-3" d="M169.5,54h-92a7.5,7.5,0,0,1,0-15h92a7.5,7.5,0,0,1,0,15Z"/><path class="cls-3" d="M37.5,54h-13a7.5,7.5,0,0,1,0-15h13a7.5,7.5,0,0,1,0,15Z"/><path class="cls-4" d="M85.5,96h-48a7.5,7.5,0,0,1,0-15h48a7.5,7.5,0,0,1,0,15Z"/><path class="cls-5" d="M79.5,144H7.5a7.5,7.5,0,0,1,0-15h72a7.5,7.5,0,0,1,0,15Z"/><path class="cls-6" d="M123.5,222H7.5a7.5,7.5,0,0,1,0-15h116a7.5,7.5,0,0,1,0,15Z"/><path class="cls-4" d="M139.5,96h-24a7.5,7.5,0,0,1,0-15h24a7.5,7.5,0,0,1,0,15Z"/><path class="cls-5" d="M130.5,144h-24a7.5,7.5,0,0,1,0-15h24a7.5,7.5,0,0,1,0,15Z"/><path class="cls-7" d="M91.5,180h-30a7.5,7.5,0,0,1,0-15h30a7.5,7.5,0,0,1,0,15Z"/></g></g></g></svg>