<svg xmlns="http://www.w3.org/2000/svg" xmlns:xlink="http://www.w3.org/1999/xlink" viewBox="0 0 312.32 311.37"><defs><style>.cls-1{fill:#ec1e27;}.cls-2{fill:url(#linear-gradient);}.cls-3{fill:#28479e;}</style><linearGradient id="linear-gradient" x1="301.93" y1="258.75" x2="215.92" y2="258.75" gradientUnits="userSpaceOnUse"><stop offset="0.25" stop-color="#ec7d23"/><stop offset="0.85" stop-color="#e7262b"/></linearGradient></defs><title>ic-khoan-vay</title><g id="Layer_2" data-name="Layer 2"><g id="hang"><path id="_Path_" data-name="&lt;Path&gt;" class="cls-1" d="M312.32,182.91,302,229.51h-.05c-1.09,0-2.18-.06-3.29,0-37.54.18-69.73,24.4-82.72,58.41A110.82,110.82,0,0,0,205,247.65a109.08,109.08,0,0,0-7.92-13.52,55.13,55.13,0,0,0-3.4-4.36l22.5-8.35a95.3,95.3,0,0,1,10.8,20.8,124.28,124.28,0,0,1,4.16,15.27,201.37,201.37,0,0,1,12-17.36c29.35-39,69.18-57.24,69.18-57.24"/><path id="_Path_2" data-name="&lt;Path&gt;" class="cls-2" d="M301.93,229.52c-15.09,3.08-30,11-43.06,20a220.94,220.94,0,0,0-17.49,13.53,264.75,264.75,0,0,0-23,22.13l-.79.88c-1.11,1.23-1.7,1.93-1.7,1.93s0-.1,0-.15c13-34,45.19-58.23,82.72-58.41,1.1,0,2.2,0,3.29,0"/><path class="cls-3" d="M258.2,262.69a124.28,124.28,0,0,1,2.31,23.87A12.42,12.42,0,0,1,248.11,299H160.32l-8.11-48.65L163,228.8l6.32,6.32a6.21,6.21,0,0,0,9.35-.66l34.22-45.63,2.51,2.07a124.72,124.72,0,0,1,27.73,32.32,91.61,91.61,0,0,1,8.64-9.76q-2.8-4.39-5.94-8.6a137.7,137.7,0,0,0-67.42-48.22l-6.49-2.09,5.84-3.52a81.41,81.41,0,0,0,39.36-69.78C217.09,36.45,180.92,0,136.46,0S55.82,36.45,55.82,81.25A81.41,81.41,0,0,0,95.19,151l5.84,3.52-6.49,2.09a137.7,137.7,0,0,0-67.41,48.22A135.21,135.21,0,0,0,0,286.56a24.84,24.84,0,0,0,24.81,24.81h223.3a24.84,24.84,0,0,0,24.81-24.81A137.66,137.66,0,0,0,269.28,255,80.77,80.77,0,0,0,258.2,262.69Zm-84.76-92.11.15-.2,1.36-1.77,2.11.73a123.81,123.81,0,0,1,22.68,10.57l3,1.77L173,221.3l-7.44-7.44-19.92-19.92,2.6-2.18,13.88-11.58C171.47,172.38,173.16,171,173.45,170.58Zm-37,14.86-24.72-20.65,6.88-1a124.18,124.18,0,0,1,35.68,0l6.88,1ZM68.23,81.25c0-38,30.61-68.85,68.23-68.85s68.23,30.89,68.23,68.85-30.61,68.85-68.23,68.85S68.23,119.22,68.23,81.25Zm7.57,97.13a123.8,123.8,0,0,1,20-9l2.11-.73,1.52,2c.3.4,1.73,1.59,11,9.36l14.17,11.82,2.6,2.17L100.21,221,72.89,180ZM112.6,299H24.81a12.42,12.42,0,0,1-12.41-12.41A123.43,123.43,0,0,1,59.93,189l2.64-2.07,31.51,47.26a6.2,6.2,0,0,0,9.55.95l6.32-6.32,10.76,21.51Zm12.58,0,8.1-48.6a6.2,6.2,0,0,0-.57-3.79l-13.51-27,17.26-17.26,17.26,17.26-13.51,27a6.06,6.06,0,0,0-.64,3.23c0,.19,0,.38.07.56l8.1,48.6Z"/></g></g></svg>