<svg xmlns="http://www.w3.org/2000/svg" xmlns:xlink="http://www.w3.org/1999/xlink" viewBox="0 0 525.29 444.45"><defs><style>.cls-1{fill:#28479e;}.cls-2{fill:#ec1e27;}.cls-3{fill:url(#linear-gradient);}</style><linearGradient id="linear-gradient" x1="488.26" y1="270.39" x2="181.65" y2="270.39" gradientUnits="userSpaceOnUse"><stop offset="0.25" stop-color="#ec7d23"/><stop offset="0.85" stop-color="#e7262b"/></linearGradient></defs><title>ic-thu-tuc</title><g id="Layer_2" data-name="Layer 2"><g id="hang"><g id="_17" data-name="17"><path class="cls-1" d="M202.4,444.45a203.89,203.89,0,0,1-39.22-3.82,201.92,201.92,0,0,1-159.35-237c21.4-109.26,127.7-180.74,237-159.35A202.08,202.08,0,0,1,332.11,88l-14.19,16.81A180,180,0,0,0,236.55,65.9c-97.36-19.06-192.08,44.63-211.14,142a179.92,179.92,0,0,0,277,183.88A178.74,178.74,0,0,0,378.54,277a180.63,180.63,0,0,0,3.1-44.93l22-1.25a202.68,202.68,0,0,1-3.48,50.4A202.07,202.07,0,0,1,202.4,444.45Z"/><path id="_Path_" data-name="&lt;Path&gt;" class="cls-2" d="M525.29,0,488.45,166.16c-.06,0-.13,0-.2,0-3.88-.14-7.78-.21-11.72-.17-133.81.65-248.57,87-294.89,208.24-3.58-56.26-21.27-107.17-38.79-143.43-10.68-22.09-21.66-38.25-28.23-48.18-4.07-6.22-11.83-15.18-12.13-15.56l80.21-29.76c10.05,13.59,29.1,47.08,38.5,74.17A443,443,0,0,1,236,265.94c12.72-21.36,28.45-43,42.63-61.89C383.28,64.91,525.29,0,525.29,0"/><path id="_Path_2" data-name="&lt;Path&gt;" class="cls-3" d="M488.26,166.19c-53.81,11-106.94,39.19-153.5,71.47a787.65,787.65,0,0,0-62.34,48.22,943.81,943.81,0,0,0-81.85,78.9c-1,1.1-2,2.16-2.8,3.13-4,4.4-6.08,6.87-6.08,6.87,0-.17,0-.34,0-.52C228,253,342.73,166.67,476.54,166c3.94,0,7.84,0,11.72.17"/></g></g></g></svg>