<svg xmlns="http://www.w3.org/2000/svg" xmlns:xlink="http://www.w3.org/1999/xlink" viewBox="0 0 244.34 233.5"><defs><style>.cls-1{fill:#fff;stroke:#164397;stroke-linecap:round;stroke-miterlimit:10;stroke-width:7px;}.cls-2{fill:#164397;}.cls-3{fill:#ec1e27;}.cls-4{fill:url(#linear-gradient);}</style><linearGradient id="linear-gradient" x1="236.61" y1="60" x2="172.54" y2="60" gradientUnits="userSpaceOnUse"><stop offset="0.25" stop-color="#ec7d23"/><stop offset="0.85" stop-color="#e7262b"/></linearGradient></defs><title>ic-chuyen-nghiep</title><g id="Layer_2" data-name="Layer 2"><g id="Layer_1-2" data-name="Layer 1"><path class="cls-1" d="M216.4,62.56A113.51,113.51,0,0,1,189,204.35"/><path class="cls-1" d="M44.21,203.87A113.35,113.35,0,0,1,186.78,27.64"/><circle class="cls-2" cx="179.98" cy="174.38" r="3.4"/><circle class="cls-2" cx="50.57" cy="174.38" r="3.4"/><path class="cls-2" d="M197.88,226.7H168.69l-.18-83.55a3.4,3.4,0,0,0-3.4-3.39h0a3.4,3.4,0,0,0-3.39,3.41l.18,83.54H152l-.09-37.17a3.4,3.4,0,0,0-3.4-3.39h0a3.4,3.4,0,0,0-3.39,3.41l.09,37.16H137v-45a18.65,18.65,0,0,0,17.19-18.36V130.39a36.91,36.91,0,0,0-3.24-15.12,28.15,28.15,0,0,1,17.77,7.82,26.35,26.35,0,0,1,8.18,19l.06,19.35a3.4,3.4,0,0,0,3.4,3.39h0a3.4,3.4,0,0,0,3.39-3.41l-.06-19.35a33.1,33.1,0,0,0-10.26-23.9,34.75,34.75,0,0,0-13.12-8,18,18,0,0,0-12.39-31h0a18,18,0,0,0-8.3,2,3.4,3.4,0,0,0,3.15,6A11.06,11.06,0,0,1,147.87,86a11.19,11.19,0,1,1,0,22.38,3.39,3.39,0,0,0-.43,0l-.54,0a38.69,38.69,0,0,0-19.66-14.07,19.95,19.95,0,1,0-25.66.52,38.66,38.66,0,0,0-18.12,13.53c-.54,0-1.08,0-1.61,0h-.95a11.19,11.19,0,1,1,5.33-21,3.4,3.4,0,0,0,3.25-6,18,18,0,0,0-20.4,29.37,33.87,33.87,0,0,0-22,31.42v19.28a3.4,3.4,0,1,0,6.8,0V142.18c0-14.1,11.26-25.7,25.55-26.88a36.91,36.91,0,0,0-3.22,15.09v32.95a18.67,18.67,0,0,0,17.76,18.41v45H84.79V189.53a3.4,3.4,0,1,0-6.8,0V226.7H69.63V143.19a3.4,3.4,0,1,0-6.8,0V226.7h-27a3.4,3.4,0,1,0,0,6.8h162a3.4,3.4,0,1,0,0-6.8ZM114.14,66.24A13.15,13.15,0,1,1,101,79.39,13.16,13.16,0,0,1,114.14,66.24Zm-31.05,97.1V130.39A30.2,30.2,0,0,1,88,113.83a32.73,32.73,0,0,1,54.38,0,30.2,30.2,0,0,1,4.92,16.53v32.95A11.82,11.82,0,0,1,137,174.86V131.54a3.4,3.4,0,0,0-6.8,0V226.7H118V179.4a3.4,3.4,0,1,0-6.8,0v47.3H100.85V131.54a3.4,3.4,0,1,0-6.8,0v43.39A11.85,11.85,0,0,1,83.09,163.34Z"/><path id="_Path_" data-name="&lt;Path&gt;" class="cls-3" d="M244.34,3.5l-7.7,34.72h0c-.81,0-1.63,0-2.45,0-28,.14-51.94,18.18-61.62,43.51a82.55,82.55,0,0,0-8.11-30,81.26,81.26,0,0,0-5.9-10.07A41.07,41.07,0,0,0,156,38.41l16.76-6.22a71,71,0,0,1,8,15.5,92.58,92.58,0,0,1,3.1,11.38,150,150,0,0,1,8.91-12.93C214.67,17.06,244.34,3.5,244.34,3.5"/><path id="_Path_2" data-name="&lt;Path&gt;" class="cls-4" d="M236.61,38.23c-11.24,2.3-22.35,8.19-32.08,14.93a164.59,164.59,0,0,0-13,10.08,197.22,197.22,0,0,0-17.1,16.49l-.59.65c-.83.92-1.27,1.44-1.27,1.44s0-.07,0-.11c9.68-25.33,33.66-43.38,61.62-43.51.82,0,1.64,0,2.45,0"/></g></g></svg>