<svg xmlns="http://www.w3.org/2000/svg" xmlns:xlink="http://www.w3.org/1999/xlink" viewBox="0 0 230.68 263.42"><defs><style>.cls-1{fill:url(#linear-gradient);}.cls-2{fill:#164397;}.cls-3{fill:#fff;}.cls-4{fill:#ec1e27;}.cls-5{fill:url(#linear-gradient-2);}</style><linearGradient id="linear-gradient" x1="139.5" y1="117.98" x2="175.8" y2="117.98" gradientUnits="userSpaceOnUse"><stop offset="0" stop-color="#ff7900"/><stop offset="1" stop-color="#ff1919"/></linearGradient><linearGradient id="linear-gradient-2" x1="116.61" y1="129.21" x2="61.75" y2="129.21" gradientUnits="userSpaceOnUse"><stop offset="0.25" stop-color="#ec7d23"/><stop offset="0.85" stop-color="#e7262b"/></linearGradient></defs><title>ic-don-gian</title><g id="Layer_2" data-name="Layer 2"><g id="Layer_1-2" data-name="Layer 1"><path class="cls-1" d="M148,128.42a4.23,4.23,0,0,0-8.46,0c0,6.91,5.95,12.72,13.92,14.26v4.09a4.23,4.23,0,1,0,8.46,0v-4.09c8-1.54,13.92-7.35,13.92-14.26s-5.95-12.72-13.92-14.26V102c3.18,1,5.47,3.19,5.47,5.55a4.23,4.23,0,0,0,8.46,0c0-6.91-5.95-12.72-13.92-14.26V89.18a4.23,4.23,0,1,0-8.46,0v4.09c-8,1.54-13.92,7.35-13.92,14.26s5.95,12.72,13.92,14.26V134c-3.18-1-5.47-3.19-5.47-5.54Zm19.39,0c0,2.35-2.29,4.5-5.47,5.54V122.87c3.18,1,5.47,3.19,5.47,5.55ZM148,107.54c0-2.35,2.29-4.5,5.47-5.55v11.09c-3.18-1-5.47-3.19-5.47-5.54Zm0,0"/><path class="cls-2" d="M206.24,70.49,184.53,43.35,195.41,22a11.36,11.36,0,0,0-2.35-13.66,11.36,11.36,0,0,0-13.77-1.62,4.26,4.26,0,0,1-4.8-.38,28.48,28.48,0,0,0-35.84,0,4.27,4.27,0,0,1-4.8.38,11.36,11.36,0,0,0-13.77,1.62A11.36,11.36,0,0,0,117.72,22l10.91,21.42L116,59.23a3.67,3.67,0,1,0,5.73,4.58l13-16.3H161.7v10.3a3.67,3.67,0,0,0,7.34,0V47.52h5.6V84.17a3.67,3.67,0,1,0,7.34,0V51.9l18.54,23.18a104.59,104.59,0,0,1,22.83,65.09A40.36,40.36,0,0,1,183,180.48H148.89l-4.24,0a3.35,3.35,0,0,0-3.5,3.5c0,1.33.92,3.81,3.5,3.81H183a47.7,47.7,0,0,0,47.65-47.65A112,112,0,0,0,206.24,70.49ZM177.91,40.18h-42.7l-11-21.51a4.24,4.24,0,0,1,5.91-5.6A11.66,11.66,0,0,0,143.31,12a21.1,21.1,0,0,1,26.55,0,11.65,11.65,0,0,0,13.11,1,4.24,4.24,0,0,1,5.91,5.6Z"/><path class="cls-2" d="M87,85H37.76a8.65,8.65,0,0,0-8.65,8.65V209.89a8.65,8.65,0,0,0,8.65,8.65H63.91a.17.17,0,0,0,.17-.17v-4.05a.17.17,0,0,0-.17-.17H37.76a4.26,4.26,0,0,1-4.26-4.26V93.6a4.26,4.26,0,0,1,4.26-4.26H87a4.26,4.26,0,0,1,4.26,4.26v57.18a.17.17,0,0,0,.17.17h4.05a.17.17,0,0,0,.17-.17V93.6A8.65,8.65,0,0,0,87,85Z"/><path class="cls-2" d="M121,172.8c-3.59-8.67-8.49-13.44-13.79-13.44h1a.17.17,0,0,0,.17-.17V85.29A14.38,14.38,0,0,0,94,70.91H30.69A14.38,14.38,0,0,0,16.31,85.29v23.28H12.54C5.62,108.56,0,114.62,0,122.06a13.63,13.63,0,0,0,7,12.13.15.15,0,0,1,0,.28,13.93,13.93,0,0,0,.69,24.59.15.15,0,0,1,0,.28A13.93,13.93,0,0,0,7.18,184a.15.15,0,0,1,0,.28A13.62,13.62,0,0,0,0,196.47C0,203.91,5.62,210,12.54,210h3.77v8.68a14.37,14.37,0,0,0,12,14.17l8.19,12.41a.17.17,0,0,1,0,.09l-.07,14.08a4,4,0,0,0,8.05,0s0-.09,0-.14,0,0,0,0V242.92a.17.17,0,0,0,0-.09L38,233H76.19a.16.16,0,0,0,.14-.09h3.85a.18.18,0,0,0,.17-.18c0-12.5,0-19.4,1.17-23.47,1-3.38,2.72-5.13,8.09-10.17,1.87-1.76,4.2-3.93,6.9-6.63a4.28,4.28,0,0,0,1.32-3.62,4,4,0,0,0-3.95-3.39H68.23a6.6,6.6,0,0,1-4.32-1.84c-1.73-1.63-2.61-4.1-2.61-7.33,0-5.48,4.1-9,6.93-9h39c1.12,0,3.85,2.31,6.42,8.52,5.62,13.56,7.22,38.49-4.32,50.2a.15.15,0,0,0,0,.08,4,4,0,0,0,5.66,5.56h0l0,0,.1-.11c8.17-8.38,10.38-20.34,10.78-28.95A72.93,72.93,0,0,0,121,172.8Zm-104.71,30H12.54c-3,0-5.36-2.83-5.36-6.32s2.4-6.32,5.36-6.32h3.77Zm0-24.67H12.54c-3,0-5.36-2.83-5.36-6.32s2.4-6.32,5.36-6.32h3.77Zm0-25.21H12.54c-3,0-5.36-2.83-5.36-6.32s2.4-6.32,5.36-6.32h3.77Zm0-24.53H12.54c-3,0-5.36-2.83-5.36-6.32s2.4-6.32,5.36-6.32h3.77Zm51.92,31a14.25,14.25,0,0,0-10.33,5,17.77,17.77,0,0,0-4.58,12c0,11.14,7.68,17.15,14.91,17.15H83.56a.17.17,0,0,1,.11.29c-5.12,4.8-8.24,7.85-9.82,13.33-1.13,3.94-1.4,8.91-1.46,17.16H30.69a5.61,5.61,0,0,1-5.61-5.61V85.29a5.61,5.61,0,0,1,5.61-5.61H94a5.61,5.61,0,0,1,5.61,5.61v73.91a.17.17,0,0,0,.17.17Z"/><path class="cls-3" d="M67.36,149.94l-11.59-1.76a65.37,65.37,0,0,0-6.35-23.43A62.06,62.06,0,0,0,45,117.17l-.22-.34a23.69,23.69,0,0,0-1.67-2.12l-.22-.27L37.8,108l26.28-9.75,2.68,3.63a68.14,68.14,0,0,1,6.92,12.73l.62-.83a134.11,134.11,0,0,1,46.42-38.35l11-5-10.24,46.19H116.4c-.6,0-1.21,0-1.83,0C93.59,116.64,75.07,129.75,67.36,149.94ZM57,113.65a66.54,66.54,0,0,1,3.23,5.88,80.37,80.37,0,0,1,4.27,10.75q.48-.66,1-1.31a74.65,74.65,0,0,0-2.31-8.32,53.11,53.11,0,0,0-3.7-7.91Zm57.44-20.83a130,130,0,0,0-18.5,14.66,61.72,61.72,0,0,1,15.88-2.86Z"/><path class="cls-3" d="M55.76,164.15V146.69l.4-1c9.49-24.85,32.39-41,58.33-41.11.77,0,1.56,0,2.34,0l1,11.87c-7.68,1.57-16.18,5.55-25.24,11.84-3.53,2.45-7.12,5.23-10.68,8.26a163,163,0,0,0-14.11,13.6l-.4.44-.08.09c-.61.68-.95,1.07-1,1.1Z"/><path id="_Path_" data-name="&lt;Path&gt;" class="cls-4" d="M123.23,80.84l-6.59,29.73h0c-.69,0-1.39,0-2.1,0-23.94.12-44.47,15.56-52.76,37.25a70.67,70.67,0,0,0-6.94-25.66,69.57,69.57,0,0,0-5.05-8.62,35.16,35.16,0,0,0-2.17-2.78l14.35-5.32a60.78,60.78,0,0,1,6.89,13.27,79.26,79.26,0,0,1,2.65,9.74,128.43,128.43,0,0,1,7.63-11.07c18.72-24.89,44.12-36.5,44.12-36.5"/><path id="_Path_2" data-name="&lt;Path&gt;" class="cls-5" d="M116.61,110.57c-9.63,2-19.13,7-27.46,12.79A140.91,140.91,0,0,0,78,132,168.85,168.85,0,0,0,63.35,146.1l-.5.56c-.71.79-1.09,1.23-1.09,1.23s0-.06,0-.09c8.29-21.69,28.82-37.14,52.76-37.25.7,0,1.4,0,2.1,0"/></g></g></svg>