<svg xmlns="http://www.w3.org/2000/svg" xmlns:xlink="http://www.w3.org/1999/xlink" viewBox="0 0 237 237"><defs><style>.cls-1,.cls-2{fill:#fff;}.cls-1,.cls-2,.cls-3{stroke:#164397;}.cls-1,.cls-2,.cls-3,.cls-4{stroke-linecap:round;stroke-width:7px;}.cls-1{stroke-miterlimit:10;}.cls-2,.cls-3,.cls-4{stroke-linejoin:round;}.cls-3,.cls-4{fill:none;}.cls-4{stroke:url(#linear-gradient);}.cls-5{fill:url(#linear-gradient-2);}.cls-6{fill:url(#linear-gradient-5);}</style><linearGradient id="linear-gradient" x1="129.03" y1="149.88" x2="100.67" y2="149.88" gradientUnits="userSpaceOnUse"><stop offset="0" stop-color="red"/><stop offset="1" stop-color="#ff8900"/></linearGradient><linearGradient id="linear-gradient-2" x1="177.73" y1="188.35" x2="223.13" y2="193.22" gradientUnits="userSpaceOnUse"><stop offset="0.25" stop-color="#ec7d23"/><stop offset="0.85" stop-color="#e7262b"/></linearGradient><linearGradient id="linear-gradient-5" x1="186.3" y1="190.07" x2="223.34" y2="190.07" xlink:href="#linear-gradient-2"/></defs><title>ic-ho-tro-khi-can</title><g id="Layer_2" data-name="Layer 2"><g id="Layer_1-2" data-name="Layer 1"><path class="cls-1" d="M181.66,214.63a115,115,0,1,1,49.52-73.06"/><path class="cls-2" d="M59.65,147.47h0A7.65,7.65,0,0,1,52,139.84V110.11a7.65,7.65,0,0,1,7.63-7.63h0a7.65,7.65,0,0,1,7.63,7.63v29.73A7.65,7.65,0,0,1,59.65,147.47Z"/><path class="cls-2" d="M177.35,147.47h0a7.65,7.65,0,0,1-7.63-7.63V110.11a7.65,7.65,0,0,1,7.63-7.63h0a7.65,7.65,0,0,1,7.63,7.63v29.73A7.65,7.65,0,0,1,177.35,147.47Z"/><path class="cls-3" d="M59.65,102.48a58.85,58.85,0,1,1,117.7,0"/><path class="cls-3" d="M172.53,147.47l-7.29,19.46a34.11,34.11,0,0,1-41.71,20.71h0"/><circle class="cls-2" cx="118.5" cy="184.43" r="8.94"/><line class="cls-4" x1="125.53" y1="149.88" x2="104.17" y2="149.88"/><path class="cls-5" d="M187.13,177q1.15-2.74,5.44-5.8a40.12,40.12,0,0,0,4.81-3.82,5.64,5.64,0,0,0,1.68-3.93,4.35,4.35,0,0,0-1-2.89,3.93,3.93,0,0,0-6.1.68,9.07,9.07,0,0,0-.6,3.36h-5.23a13.19,13.19,0,0,1,1.27-5.65q2.15-4.09,7.65-4.1A9.71,9.71,0,0,1,202,157.3a8.32,8.32,0,0,1,2.57,6.37,8.62,8.62,0,0,1-1.82,5.4,18,18,0,0,1-3.92,3.49l-2.16,1.53q-2,1.43-2.77,2.08a6.09,6.09,0,0,0-1.26,1.49h12v4.74H185.86A12.87,12.87,0,0,1,187.13,177Z"/><path class="cls-5" d="M226.38,176.51h-3.1v5.89H218v-5.89H207.18v-4.7l10.06-16.62h6V172.3h3.1ZM218,172.3V160.51l-6.83,11.79Z"/><path class="cls-5" d="M215.8,206a33.92,33.92,0,0,0-3.37,4.24,34.9,34.9,0,0,0-5.69,12.53,25.83,25.83,0,0,0-.93,6h-5.59a32.9,32.9,0,0,1,4.84-15.31,36.14,36.14,0,0,1,5-6.87H196.39l.08-4.83H215.8Z"/><rect class="cls-6" x="186.3" y="189.09" width="37.04" height="1.95"/></g></g></svg>