<svg xmlns="http://www.w3.org/2000/svg" xmlns:xlink="http://www.w3.org/1999/xlink" viewBox="0 0 251.97 262.46"><defs><style>.cls-1,.cls-7{fill:#164397;}.cls-2{fill:#fff;}.cls-3{fill:url(#linear-gradient);}.cls-4{fill:url(#linear-gradient-2);}.cls-5,.cls-6,.cls-8{fill:none;}.cls-5,.cls-6,.cls-7{stroke:#164397;}.cls-5,.cls-6{stroke-linecap:round;stroke-linejoin:round;stroke-width:6px;}.cls-6{stroke-dasharray:15.65 15.65 0 0;}.cls-7{stroke-miterlimit:10;stroke-width:4px;}</style><linearGradient id="linear-gradient" x1="196.91" y1="155.53" x2="141.91" y2="155.53" gradientUnits="userSpaceOnUse"><stop offset="0" stop-color="#ff8900"/><stop offset="0.05" stop-color="#ff7f00"/><stop offset="0.37" stop-color="#ff4900"/><stop offset="0.65" stop-color="#ff2100"/><stop offset="0.87" stop-color="#ff0900"/><stop offset="1" stop-color="red"/></linearGradient><linearGradient id="linear-gradient-2" x1="131.52" y1="84.09" x2="76.52" y2="84.09" xlink:href="#linear-gradient"/></defs><title>ic-lai-suat-thap</title><g id="Layer_2" data-name="Layer 2"><g id="Layer_1-2" data-name="Layer 1"><path class="cls-1" d="M252,133.07h0c-.43-15.5-9.9-22.64-15.27-34.47,1.34-8.9,4.69-16.27,4.52-25.45-.43-25.94-22.87-40.3-49.2-42.4C183.44,18.34,170.59,0,150.08,0a39.67,39.67,0,0,0-11.8,1.91c-6.91,2.19-17.86,13-24.29,13.57a4.4,4.4,0,0,1-.63,0c-3.38,0-7.54-2.22-10.69-2.84a57.53,57.53,0,0,0-11.32-1.17c-27,0-42.29,21.7-44.08,49.23-15,9.58-37.88,25.91-29.38,53.13,2.79,8.9,10.78,16.38,14.13,24.29-1.25,8.79-4.55,15.41-4.52,24.32.06,26.76,22.78,40,49.2,42.4,9,13.79,21.44,31.2,41.55,31.2a40.59,40.59,0,0,0,11.57-1.79c9.44-2.84,15-10,24.32-14.13,8.79,1.28,15.61,4.52,24.63,4.52h.8c26.11-.57,39.47-22.41,41.83-48.63C235.66,165.63,252.61,156.19,252,133.07Z"/><path class="cls-2" d="M221.6,165.7c-1.5,1.06-3,2.14-4.46,3.2a10.33,10.33,0,0,0-4.16,7.39c-1.08,11.9-6.42,39.7-32.66,40.26h-.62c-4.28,0-8.18-1-12.7-2.14a103.67,103.67,0,0,0-10.94-2.35,8.57,8.57,0,0,0-1.5-.12,10.21,10.21,0,0,0-4.16.88,69.48,69.48,0,0,0-12.93,7.86c-3.75,2.7-7,5-10.67,6.13a30.56,30.56,0,0,1-8.86,1.41c-14.92,0-25.28-14-33.78-27.15a10.19,10.19,0,0,0-7.68-4.63c-12.26-1.11-40.79-6.57-40.85-33,0-4.13,1-7.92,2.11-12.26a102.28,102.28,0,0,0,2.4-11.05,10.19,10.19,0,0,0-.7-5.45,69.14,69.14,0,0,0-7.54-12.55c-2.79-4-5.45-7.8-6.54-11.32-5.63-17.95,6.22-30,25.74-42.52a10.21,10.21,0,0,0,4.69-8C57.1,40.61,66.9,19.62,90.56,19.62a47.38,47.38,0,0,1,9.5,1c.53.12,1.73.53,2.7.88,2.84,1,6.36,2.26,10.23,2.26.53,0,1,0,1.5-.06,6.33-.56,12.26-4.66,18.53-9,2.87-2,6.77-4.72,8.47-5.25a30.3,30.3,0,0,1,8.94-1.47c14.49,0,24.48,12.73,34.31,26.92a10.19,10.19,0,0,0,7.62,4.4c19.44,1.55,40.35,11.08,40.73,33.19.06,4.46-1,8.65-2.2,13.49a108.22,108.22,0,0,0-2.32,10.79,10.31,10.31,0,0,0,.82,5.78,90.3,90.3,0,0,0,7.07,12.26c4.28,6.57,7.36,11.29,7.59,19C244.5,148.66,235.79,155.61,221.6,165.7Z"/><path class="cls-3" d="M169.42,128a27.48,27.48,0,1,0,27.48,27.48A27.53,27.53,0,0,0,169.42,128Zm0,42.87a15.36,15.36,0,1,1,15.36-15.36A15.37,15.37,0,0,1,169.42,170.92Z"/><path class="cls-4" d="M104,56.61a27.48,27.48,0,1,0,27.48,27.48A27.53,27.53,0,0,0,104,56.61Zm0,42.84A15.36,15.36,0,1,1,119.4,84.09,15.37,15.37,0,0,1,104,99.45Z"/><line class="cls-5" x1="80.57" y1="174.64" x2="86.23" y2="168.98"/><line class="cls-6" x1="97.29" y1="157.92" x2="185.81" y2="69.4"/><line class="cls-5" x1="185.81" y1="69.4" x2="191.47" y2="63.74"/><path class="cls-7" d="M121.06,178.95a2.66,2.66,0,0,0-1.22-1.6,2.38,2.38,0,0,0-2-.28L73,189.21l-23.91,6.35-5.27,18.68-17.32,4.89a12.63,12.63,0,0,0-20.8-13.27,12.66,12.66,0,0,0,11.39,21.37,1.84,1.84,0,0,0,.66-.09l24.38-6.87-6.78,24.47c0,.19-.09.47-.09.66A12.68,12.68,0,1,0,43.32,236l4.89-17.32L108,201.82a19.3,19.3,0,0,0,8.19-4.8A18.65,18.65,0,0,0,121.06,178.95Z"/><path class="cls-2" d="M19.79,220a7.32,7.32,0,1,1,0-10.35A7.39,7.39,0,0,1,19.79,220Z"/><path class="cls-2" d="M52.83,242.67a7.32,7.32,0,1,1-10.35,0A7.39,7.39,0,0,1,52.83,242.67Z"/><path class="cls-2" d="M106.66,196.74,49.81,212.55l3.58-12.61L116.45,183A13.38,13.38,0,0,1,106.66,196.74Z"/><line class="cls-8" x1="61.38" y1="193.54" x2="43.5" y2="198.25"/></g></g></svg>