<?xml version="1.0" encoding="iso-8859-1"?>
<!-- Generator: Adobe Illustrator 19.0.0, SVG Export Plug-In . SVG Version: 6.00 Build 0)  -->
<svg version="1.1" id="Layer_1" xmlns="http://www.w3.org/2000/svg" xmlns:xlink="http://www.w3.org/1999/xlink" x="0px" y="0px"
	 viewBox="0 0 82.797 70" style="enable-background:new 0 0 82.797 70;" xml:space="preserve">
<g>
	<defs>
		<rect id="SVGID_1_" width="82.797" height="70"/>
	</defs>
	<clipPath id="SVGID_2_">
		<use xlink:href="#SVGID_1_"  style="overflow:visible;"/>
	</clipPath>
	<path style="clip-path:url(#SVGID_2_);fill:#19478A;" d="M49.412,60.02h-6.274c-0.893,0-1.618,0.723-1.618,1.617
		c0,0.893,0.725,1.616,1.618,1.616h6.274c0.969,0,1.756,0.788,1.756,1.757c0,0.968-0.787,1.756-1.756,1.756h-16.89
		c-2.539,0-4.926-1.119-6.55-3.071l-4.039-4.856c-2.167-2.605-5.322-4.131-8.696-4.227V45.06h5.953c2.936,0,5.716,1.123,7.828,3.163
		l8.718,8.414c0.616,0.595,0.645,1.591,0.064,2.22c-0.593,0.642-1.597,0.684-2.24,0.094l-6.845-6.274
		c-0.658-0.604-1.681-0.559-2.284,0.099c-0.604,0.659-0.559,1.681,0.099,2.285l6.844,6.274c0.923,0.845,2.092,1.263,3.256,1.263
		c1.302,0,2.598-0.52,3.547-1.547c1.763-1.911,1.676-4.935-0.195-6.74l-8.718-8.416c-2.718-2.624-6.295-4.068-10.074-4.068h-6.268
		c-0.608-1.441-2.034-2.454-3.694-2.454h-7.61C0.724,39.373,0,40.097,0,40.99v11.824c0,0.893,0.724,1.617,1.618,1.617
		c0.893,0,1.617-0.723,1.617-1.617V42.607h5.993c0.428,0,0.775,0.348,0.775,0.774v12.96c0,0.428-0.347,0.775-0.775,0.775H7.549
		c-0.892,0-1.617,0.723-1.617,1.617c0,0.892,0.725,1.617,1.617,1.617h1.679c1.682,0,3.123-1.041,3.718-2.512
		c2.521,0.015,4.888,1.131,6.501,3.07l4.04,4.855C25.726,68.456,29.019,70,32.522,70h16.89c2.752,0,4.99-2.238,4.99-4.99
		C54.402,62.259,52.164,60.02,49.412,60.02"/>
	<path style="clip-path:url(#SVGID_2_);fill:#19478A;" d="M81.18,14.937c-0.893,0-1.617,0.724-1.617,1.617v10.839h-5.995
		c-0.427,0-0.774-0.348-0.774-0.774V13.658c0-0.427,0.347-0.774,0.774-0.774h1.561c0.893,0,1.617-0.724,1.617-1.617
		S76.022,9.65,75.129,9.65h-1.561c-1.681,0-3.123,1.041-3.717,2.512c-2.521-0.015-4.888-1.131-6.501-3.07l-4.039-4.855
		C57.071,1.544,53.777,0,50.274,0H33.385c-2.751,0-4.99,2.238-4.99,4.99c0,2.751,2.239,4.99,4.99,4.99h6.906
		c0.893,0,1.618-0.724,1.618-1.617c0-0.893-0.725-1.617-1.618-1.617h-6.906c-0.969,0-1.756-0.788-1.756-1.756
		c0-0.969,0.787-1.757,1.756-1.757h16.889c2.54,0,4.927,1.12,6.551,3.072l4.039,4.855c2.168,2.605,5.321,4.131,8.697,4.227v9.552
		h-5.954c-2.936,0-5.716-1.123-7.828-3.162l-8.719-8.415c-0.615-0.594-0.645-1.591-0.063-2.22c0.592-0.642,1.597-0.683,2.241-0.093
		l6.844,6.273c0.659,0.604,1.681,0.56,2.285-0.099c0.603-0.659,0.559-1.681-0.1-2.285l-6.844-6.273
		c-1.954-1.791-5.005-1.663-6.802,0.284c-1.764,1.91-1.677,4.935,0.194,6.74l8.718,8.415c2.718,2.625,6.296,4.069,10.074,4.069
		h6.267c0.609,1.44,2.036,2.453,3.694,2.453h7.612c0.893,0,1.617-0.723,1.617-1.617V16.554
		C82.797,15.661,82.073,14.937,81.18,14.937"/>
</g>
<g>
	<defs>
		<path id="SVGID_3_" d="M50.07,54.185c-0.819,0.357-1.193,1.31-0.836,2.129c0.264,0.608,0.859,0.971,1.483,0.971
			c0.216,0,0.434-0.043,0.645-0.135c0.006-0.003,0.028-0.012,0.034-0.015c0.814-0.368,1.178-1.327,0.811-2.141
			c-0.27-0.598-0.858-0.953-1.474-0.953C50.511,54.041,50.285,54.088,50.07,54.185"/>
	</defs>
	<clipPath id="SVGID_4_">
		<use xlink:href="#SVGID_3_"  style="overflow:visible;"/>
	</clipPath>
	
		<linearGradient id="SVGID_5_" gradientUnits="userSpaceOnUse" x1="0" y1="70" x2="1" y2="70" gradientTransform="matrix(69.6667 15.3333 15.3333 -69.6667 -1062.8467 4923.4741)">
		<stop  offset="0" style="stop-color:#F6891F"/>
		<stop  offset="0.1356" style="stop-color:#F47920"/>
		<stop  offset="0.3916" style="stop-color:#F15B22"/>
		<stop  offset="0.6293" style="stop-color:#EF4123"/>
		<stop  offset="0.8394" style="stop-color:#EE2B24"/>
		<stop  offset="1" style="stop-color:#ED2224"/>
	</linearGradient>
	<polygon style="clip-path:url(#SVGID_4_);fill:url(#SVGID_5_);" points="49.048,53.265 53.255,54.191 52.403,58.061 48.196,57.135 
			"/>
</g>
<g>
	<defs>
		<path id="SVGID_6_" d="M53.963,51.932c-0.72,0.527-0.877,1.539-0.35,2.259c0.318,0.432,0.808,0.661,1.307,0.661
			c0.331,0,0.666-0.101,0.953-0.312c0.003-0.001,0.018-0.013,0.021-0.015c0.716-0.53,0.861-1.535,0.333-2.252
			c-0.317-0.43-0.807-0.656-1.303-0.656C54.59,51.617,54.252,51.72,53.963,51.932"/>
	</defs>
	<clipPath id="SVGID_7_">
		<use xlink:href="#SVGID_6_"  style="overflow:visible;"/>
	</clipPath>
	
		<linearGradient id="SVGID_8_" gradientUnits="userSpaceOnUse" x1="0" y1="70" x2="1" y2="70" gradientTransform="matrix(69.6667 15.3333 15.3333 -69.6667 -1062.1429 4920.2769)">
		<stop  offset="0" style="stop-color:#F6891F"/>
		<stop  offset="0.1356" style="stop-color:#F47920"/>
		<stop  offset="0.3916" style="stop-color:#F15B22"/>
		<stop  offset="0.6293" style="stop-color:#EF4123"/>
		<stop  offset="0.8394" style="stop-color:#EE2B24"/>
		<stop  offset="1" style="stop-color:#ED2224"/>
	</linearGradient>
	<polygon style="clip-path:url(#SVGID_7_);fill:url(#SVGID_8_);" points="53.256,50.847 57.434,51.766 56.585,55.622 52.407,54.703 
			"/>
</g>
<g>
	<defs>
		<path id="SVGID_9_" d="M45.776,55.561c-0.87,0.173-1.44,1.016-1.274,1.889c0.149,0.775,0.827,1.314,1.587,1.314
			c0.101,0,0.203-0.009,0.306-0.028c0.01-0.003,0.037-0.008,0.047-0.01c0.873-0.186,1.429-1.043,1.245-1.916
			c-0.161-0.761-0.834-1.282-1.582-1.282C45.996,55.528,45.886,55.538,45.776,55.561"/>
	</defs>
	<clipPath id="SVGID_10_">
		<use xlink:href="#SVGID_9_"  style="overflow:visible;"/>
	</clipPath>
	
		<linearGradient id="SVGID_11_" gradientUnits="userSpaceOnUse" x1="0" y1="70" x2="1" y2="70" gradientTransform="matrix(69.6667 15.3333 15.3333 -69.6667 -1063.3717 4925.8599)">
		<stop  offset="0" style="stop-color:#F6891F"/>
		<stop  offset="0.1356" style="stop-color:#F47920"/>
		<stop  offset="0.3916" style="stop-color:#F15B22"/>
		<stop  offset="0.6293" style="stop-color:#EF4123"/>
		<stop  offset="0.8394" style="stop-color:#EE2B24"/>
		<stop  offset="1" style="stop-color:#ED2224"/>
	</linearGradient>
	<polygon style="clip-path:url(#SVGID_10_);fill:url(#SVGID_11_);" points="44.499,54.786 48.55,55.678 47.708,59.506 
		43.657,58.614 	"/>
</g>
<g>
	<defs>
		<path id="SVGID_12_" d="M58.702,50.119l-0.18-0.164l0.194,0.177L58.702,50.119z M57.32,48.873
			c-0.007,0.009-0.025,0.03-0.034,0.038c-0.582,0.677-0.507,1.698,0.169,2.282c0.305,0.263,0.681,0.391,1.054,0.391
			c0.45,0,0.895-0.185,1.216-0.548c0.595-0.663,0.542-1.684-0.121-2.281c-0.308-0.278-0.696-0.416-1.082-0.416
			C58.08,48.339,57.64,48.519,57.32,48.873"/>
	</defs>
	<clipPath id="SVGID_13_">
		<use xlink:href="#SVGID_12_"  style="overflow:visible;"/>
	</clipPath>
	
		<linearGradient id="SVGID_14_" gradientUnits="userSpaceOnUse" x1="0" y1="70" x2="1" y2="70" gradientTransform="matrix(69.6667 15.3333 15.3333 -69.6667 -1061.2898 4916.4004)">
		<stop  offset="0" style="stop-color:#F6891F"/>
		<stop  offset="0.1356" style="stop-color:#F47920"/>
		<stop  offset="0.3916" style="stop-color:#F15B22"/>
		<stop  offset="0.6293" style="stop-color:#EF4123"/>
		<stop  offset="0.8394" style="stop-color:#EE2B24"/>
		<stop  offset="1" style="stop-color:#ED2224"/>
	</linearGradient>
	<polygon style="clip-path:url(#SVGID_13_);fill:url(#SVGID_14_);" points="56.871,47.58 61.001,48.489 60.153,52.343 
		56.023,51.434 	"/>
</g>
<g>
	<defs>
		<path id="SVGID_15_" d="M61.701,41.076c-0.262,0.853,0.217,1.757,1.071,2.02c0.159,0.049,0.318,0.072,0.476,0.072
			c0.691,0,1.331-0.447,1.545-1.142l0.006-0.021c0.259-0.855-0.224-1.754-1.079-2.013c-0.156-0.047-0.313-0.069-0.467-0.069
			C62.558,39.923,61.914,40.376,61.701,41.076"/>
	</defs>
	<clipPath id="SVGID_16_">
		<use xlink:href="#SVGID_15_"  style="overflow:visible;"/>
	</clipPath>
	
		<linearGradient id="SVGID_17_" gradientUnits="userSpaceOnUse" x1="0" y1="70" x2="1" y2="70" gradientTransform="matrix(69.6667 15.3333 15.3333 -69.6667 -1059.3043 4907.3794)">
		<stop  offset="0" style="stop-color:#F6891F"/>
		<stop  offset="0.1356" style="stop-color:#F47920"/>
		<stop  offset="0.3916" style="stop-color:#F15B22"/>
		<stop  offset="0.6293" style="stop-color:#EF4123"/>
		<stop  offset="0.8394" style="stop-color:#EE2B24"/>
		<stop  offset="1" style="stop-color:#ED2224"/>
	</linearGradient>
	<polygon style="clip-path:url(#SVGID_16_);fill:url(#SVGID_17_);" points="61.606,39.163 65.739,40.073 64.891,43.928 
		60.758,43.018 	"/>
</g>
<g>
	<defs>
		<path id="SVGID_18_" d="M63.867,30.334c-0.871,0.182-1.431,1.033-1.256,1.903c0.15,0.772,0.826,1.312,1.586,1.312
			c0.095,0,0.192-0.008,0.287-0.025c0.879-0.158,1.464-0.998,1.307-1.877c-0.004-0.02-0.007-0.041-0.012-0.062
			c-0.159-0.762-0.831-1.285-1.581-1.285C64.089,30.3,63.978,30.311,63.867,30.334"/>
	</defs>
	<clipPath id="SVGID_19_">
		<use xlink:href="#SVGID_18_"  style="overflow:visible;"/>
	</clipPath>
	
		<linearGradient id="SVGID_20_" gradientUnits="userSpaceOnUse" x1="0" y1="70" x2="1" y2="70" gradientTransform="matrix(69.6667 15.3333 15.3333 -69.6667 -1057.2407 4898.0039)">
		<stop  offset="0" style="stop-color:#F6891F"/>
		<stop  offset="0.1356" style="stop-color:#F47920"/>
		<stop  offset="0.3916" style="stop-color:#F15B22"/>
		<stop  offset="0.6293" style="stop-color:#EF4123"/>
		<stop  offset="0.8394" style="stop-color:#EE2B24"/>
		<stop  offset="1" style="stop-color:#ED2224"/>
	</linearGradient>
	<polygon style="clip-path:url(#SVGID_19_);fill:url(#SVGID_20_);" points="62.598,29.563 66.63,30.45 65.786,34.286 61.754,33.399 
			"/>
</g>
<g>
	<defs>
		<path id="SVGID_21_" d="M62.555,36.624c-0.001,0.016-0.004,0.047-0.004,0.063c-0.053,0.891,0.628,1.656,1.519,1.709
			c0.033,0.002,0.064,0.003,0.096,0.003c0.843,0,1.549-0.651,1.611-1.498c0.074-0.887-0.582-1.668-1.469-1.745
			c-0.048-0.005-0.096-0.007-0.143-0.007C63.338,35.149,62.629,35.783,62.555,36.624"/>
	</defs>
	<clipPath id="SVGID_22_">
		<use xlink:href="#SVGID_21_"  style="overflow:visible;"/>
	</clipPath>
	
		<linearGradient id="SVGID_23_" gradientUnits="userSpaceOnUse" x1="0" y1="70" x2="1" y2="70" gradientTransform="matrix(69.6667 15.3333 15.3333 -69.6667 -1058.2604 4902.6362)">
		<stop  offset="0" style="stop-color:#F6891F"/>
		<stop  offset="0.1356" style="stop-color:#F47920"/>
		<stop  offset="0.3916" style="stop-color:#F15B22"/>
		<stop  offset="0.6293" style="stop-color:#EF4123"/>
		<stop  offset="0.8394" style="stop-color:#EE2B24"/>
		<stop  offset="1" style="stop-color:#ED2224"/>
	</linearGradient>
	<polygon style="clip-path:url(#SVGID_22_);fill:url(#SVGID_23_);" points="62.653,34.445 66.533,35.299 65.696,39.103 
		61.816,38.249 	"/>
</g>
<g>
	<defs>
		<path id="SVGID_24_" d="M59.933,45.203l-0.023,0.04c-0.425,0.786-0.138,1.774,0.647,2.2c0.247,0.133,0.513,0.197,0.774,0.197
			c0.571,0,1.123-0.303,1.414-0.84l-1.405-0.799l1.407,0.796c0.44-0.777,0.168-1.763-0.61-2.204c-0.251-0.142-0.525-0.21-0.795-0.21
			C60.778,44.383,60.23,44.678,59.933,45.203"/>
	</defs>
	<clipPath id="SVGID_25_">
		<use xlink:href="#SVGID_24_"  style="overflow:visible;"/>
	</clipPath>
	
		<linearGradient id="SVGID_26_" gradientUnits="userSpaceOnUse" x1="0" y1="70" x2="1" y2="70" gradientTransform="matrix(69.6667 15.3333 15.3333 -69.6667 -1060.3303 4912.041)">
		<stop  offset="0" style="stop-color:#F6891F"/>
		<stop  offset="0.1356" style="stop-color:#F47920"/>
		<stop  offset="0.3916" style="stop-color:#F15B22"/>
		<stop  offset="0.6293" style="stop-color:#EF4123"/>
		<stop  offset="0.8394" style="stop-color:#EE2B24"/>
		<stop  offset="1" style="stop-color:#ED2224"/>
	</linearGradient>
	<polygon style="clip-path:url(#SVGID_25_);fill:url(#SVGID_26_);" points="59.656,43.606 63.871,44.533 63.016,48.417 
		58.801,47.49 	"/>
</g>
<g>
	<defs>
		<path id="SVGID_27_" d="M30.641,13.076l-0.014,0.007c-0.799,0.4-1.115,1.366-0.716,2.166c0.283,0.566,0.856,0.891,1.45,0.891
			c0.244,0,0.494-0.055,0.727-0.171c0.798-0.4,1.123-1.37,0.722-2.17c-0.283-0.566-0.854-0.894-1.447-0.894
			C31.12,12.905,30.873,12.96,30.641,13.076"/>
	</defs>
	<clipPath id="SVGID_28_">
		<use xlink:href="#SVGID_27_"  style="overflow:visible;"/>
	</clipPath>
	
		<linearGradient id="SVGID_29_" gradientUnits="userSpaceOnUse" x1="0" y1="70" x2="1" y2="70" gradientTransform="matrix(69.6667 15.3333 15.3333 -69.6667 -1055.1049 4888.2993)">
		<stop  offset="0" style="stop-color:#F6891F"/>
		<stop  offset="0.1356" style="stop-color:#F47920"/>
		<stop  offset="0.3916" style="stop-color:#F15B22"/>
		<stop  offset="0.6293" style="stop-color:#EF4123"/>
		<stop  offset="0.8394" style="stop-color:#EE2B24"/>
		<stop  offset="1" style="stop-color:#ED2224"/>
	</linearGradient>
	<polygon style="clip-path:url(#SVGID_28_);fill:url(#SVGID_29_);" points="29.683,12.128 33.89,13.054 33.04,16.917 28.833,15.991 
			"/>
</g>
<g>
	<defs>
		<path id="SVGID_30_" d="M35.536,11.261c-0.007,0.001-0.031,0.008-0.038,0.009c-0.864,0.223-1.389,1.106-1.166,1.971
			c0.188,0.729,0.843,1.214,1.562,1.214c0.133,0,0.269-0.017,0.405-0.052c0.867-0.209,1.4-1.084,1.19-1.952
			c-0.18-0.739-0.841-1.236-1.571-1.236C35.792,11.215,35.664,11.23,35.536,11.261"/>
	</defs>
	<clipPath id="SVGID_31_">
		<use xlink:href="#SVGID_30_"  style="overflow:visible;"/>
	</clipPath>
	
		<linearGradient id="SVGID_32_" gradientUnits="userSpaceOnUse" x1="0" y1="70" x2="1" y2="70" gradientTransform="matrix(69.6667 15.3333 15.3333 -69.6667 -1054.5405 4885.7349)">
		<stop  offset="0" style="stop-color:#F6891F"/>
		<stop  offset="0.1356" style="stop-color:#F47920"/>
		<stop  offset="0.3916" style="stop-color:#F15B22"/>
		<stop  offset="0.6293" style="stop-color:#EF4123"/>
		<stop  offset="0.8394" style="stop-color:#EE2B24"/>
		<stop  offset="1" style="stop-color:#ED2224"/>
	</linearGradient>
	<polygon style="clip-path:url(#SVGID_31_);fill:url(#SVGID_32_);" points="34.275,10.461 38.379,11.365 37.533,15.209 
		33.429,14.305 	"/>
</g>
<g>
	<defs>
		<path id="SVGID_33_" d="M26.263,15.885l1.002,1.268l-1.008-1.265c-0.698,0.557-0.813,1.574-0.258,2.272
			c0.321,0.401,0.791,0.61,1.267,0.61c0.352,0,0.709-0.115,1.006-0.352l0.021-0.017c0.693-0.56,0.801-1.576,0.242-2.271
			c-0.318-0.396-0.787-0.602-1.26-0.602C26.92,15.528,26.561,15.645,26.263,15.885"/>
	</defs>
	<clipPath id="SVGID_34_">
		<use xlink:href="#SVGID_33_"  style="overflow:visible;"/>
	</clipPath>
	
		<linearGradient id="SVGID_35_" gradientUnits="userSpaceOnUse" x1="0" y1="70" x2="1" y2="70" gradientTransform="matrix(69.6667 15.3333 15.3333 -69.6667 -1055.8453 4891.6636)">
		<stop  offset="0" style="stop-color:#F6891F"/>
		<stop  offset="0.1356" style="stop-color:#F47920"/>
		<stop  offset="0.3916" style="stop-color:#F15B22"/>
		<stop  offset="0.6293" style="stop-color:#EF4123"/>
		<stop  offset="0.8394" style="stop-color:#EE2B24"/>
		<stop  offset="1" style="stop-color:#ED2224"/>
	</linearGradient>
	<polygon style="clip-path:url(#SVGID_34_);fill:url(#SVGID_35_);" points="25.613,14.762 29.775,15.678 28.925,19.536 
		24.763,18.62 	"/>
</g>
<g>
	<defs>
		<path id="SVGID_36_" d="M17.928,28.77c-0.004,0.015-0.012,0.045-0.015,0.06c-0.211,0.867,0.323,1.74,1.19,1.951
			c0.128,0.031,0.256,0.046,0.382,0.046c0.726,0,1.385-0.493,1.569-1.226c0.221-0.855-0.286-1.733-1.14-1.965
			c-0.142-0.039-0.286-0.057-0.427-0.057C18.776,27.579,18.124,28.051,17.928,28.77"/>
	</defs>
	<clipPath id="SVGID_37_">
		<use xlink:href="#SVGID_36_"  style="overflow:visible;"/>
	</clipPath>
	
		<linearGradient id="SVGID_38_" gradientUnits="userSpaceOnUse" x1="0" y1="70" x2="1" y2="70" gradientTransform="matrix(69.6667 15.3333 15.3333 -69.6667 -1058.7352 4904.7935)">
		<stop  offset="0" style="stop-color:#F6891F"/>
		<stop  offset="0.1356" style="stop-color:#F47920"/>
		<stop  offset="0.3916" style="stop-color:#F15B22"/>
		<stop  offset="0.6293" style="stop-color:#EF4123"/>
		<stop  offset="0.8394" style="stop-color:#EE2B24"/>
		<stop  offset="1" style="stop-color:#ED2224"/>
	</linearGradient>
	<polygon style="clip-path:url(#SVGID_37_);fill:url(#SVGID_38_);" points="17.867,26.829 21.957,27.729 21.11,31.577 17.02,30.677 
			"/>
</g>
<g>
	<defs>
		<path id="SVGID_39_" d="M17.176,33.907c-0.001,0.021-0.002,0.042-0.002,0.062c-0.027,0.892,0.675,1.637,1.568,1.663
			c0.016,0,0.032,0.001,0.048,0.001c0.867,0,1.583-0.688,1.616-1.559c0.039-0.882-0.638-1.636-1.522-1.688
			c-0.031-0.001-0.061-0.002-0.092-0.002C17.939,32.384,17.226,33.047,17.176,33.907"/>
	</defs>
	<clipPath id="SVGID_40_">
		<use xlink:href="#SVGID_39_"  style="overflow:visible;"/>
	</clipPath>
	
		<linearGradient id="SVGID_41_" gradientUnits="userSpaceOnUse" x1="0" y1="70" x2="1" y2="70" gradientTransform="matrix(69.6667 15.3333 15.3333 -69.6667 -1059.7762 4909.5239)">
		<stop  offset="0" style="stop-color:#F6891F"/>
		<stop  offset="0.1356" style="stop-color:#F47920"/>
		<stop  offset="0.3916" style="stop-color:#F15B22"/>
		<stop  offset="0.6293" style="stop-color:#EF4123"/>
		<stop  offset="0.8394" style="stop-color:#EE2B24"/>
		<stop  offset="1" style="stop-color:#ED2224"/>
	</linearGradient>
	<polygon style="clip-path:url(#SVGID_40_);fill:url(#SVGID_41_);" points="17.299,31.692 21.127,32.534 20.293,36.325 
		16.465,35.483 	"/>
</g>
<g>
	<defs>
		<path id="SVGID_42_" d="M19.766,23.898L19.74,23.95c-0.394,0.801-0.064,1.768,0.737,2.162c0.229,0.114,0.472,0.166,0.712,0.166
			c0.595,0,1.165-0.329,1.449-0.895c0.402-0.787,0.096-1.754-0.689-2.166c-0.24-0.126-0.497-0.185-0.75-0.185
			C20.617,23.032,20.055,23.347,19.766,23.898"/>
	</defs>
	<clipPath id="SVGID_43_">
		<use xlink:href="#SVGID_42_"  style="overflow:visible;"/>
	</clipPath>
	
		<linearGradient id="SVGID_44_" gradientUnits="userSpaceOnUse" x1="0" y1="70" x2="1" y2="70" gradientTransform="matrix(69.6667 15.3333 15.3333 -69.6667 -1057.7017 4900.0977)">
		<stop  offset="0" style="stop-color:#F6891F"/>
		<stop  offset="0.1356" style="stop-color:#F47920"/>
		<stop  offset="0.3916" style="stop-color:#F15B22"/>
		<stop  offset="0.6293" style="stop-color:#EF4123"/>
		<stop  offset="0.8394" style="stop-color:#EE2B24"/>
		<stop  offset="1" style="stop-color:#ED2224"/>
	</linearGradient>
	<polygon style="clip-path:url(#SVGID_43_);fill:url(#SVGID_44_);" points="19.517,22.257 23.721,23.182 22.869,27.053 
		18.665,26.128 	"/>
</g>
<g>
	<defs>
		<path id="SVGID_45_" d="M22.593,19.537c-0.008,0.01-0.026,0.031-0.034,0.041c-0.555,0.701-0.436,1.716,0.263,2.27
			c0.297,0.236,0.652,0.35,1.003,0.35c0.474,0,0.945-0.208,1.264-0.605c0.561-0.687,0.464-1.7-0.22-2.267
			c-0.302-0.25-0.668-0.372-1.033-0.372C23.372,18.954,22.912,19.152,22.593,19.537"/>
	</defs>
	<clipPath id="SVGID_46_">
		<use xlink:href="#SVGID_45_"  style="overflow:visible;"/>
	</clipPath>
	
		<linearGradient id="SVGID_47_" gradientUnits="userSpaceOnUse" x1="0" y1="70" x2="1" y2="70" gradientTransform="matrix(69.6667 15.3333 15.3333 -69.6667 -1056.7235 4895.6538)">
		<stop  offset="0" style="stop-color:#F6891F"/>
		<stop  offset="0.1356" style="stop-color:#F47920"/>
		<stop  offset="0.3916" style="stop-color:#F15B22"/>
		<stop  offset="0.6293" style="stop-color:#EF4123"/>
		<stop  offset="0.8394" style="stop-color:#EE2B24"/>
		<stop  offset="1" style="stop-color:#ED2224"/>
	</linearGradient>
	<polygon style="clip-path:url(#SVGID_46_);fill:url(#SVGID_47_);" points="22.172,18.189 26.331,19.104 25.482,22.963 
		21.323,22.048 	"/>
</g>
<g>
	<defs>
		<path id="SVGID_48_" d="M18.834,37.255c-0.879,0.159-1.463,0.998-1.307,1.878l0.004,0.015c0.14,0.782,0.817,1.325,1.585,1.325
			c0.095,0,0.193-0.009,0.289-0.026c0.88-0.158,1.463-1.006,1.306-1.885c-0.14-0.783-0.822-1.332-1.59-1.332
			C19.027,37.23,18.931,37.238,18.834,37.255"/>
	</defs>
	<clipPath id="SVGID_49_">
		<use xlink:href="#SVGID_48_"  style="overflow:visible;"/>
	</clipPath>
	
		<linearGradient id="SVGID_50_" gradientUnits="userSpaceOnUse" x1="0" y1="70" x2="1" y2="70" gradientTransform="matrix(69.6667 15.3333 15.3333 -69.6667 -1060.7777 4914.0737)">
		<stop  offset="0" style="stop-color:#F6891F"/>
		<stop  offset="0.1356" style="stop-color:#F47920"/>
		<stop  offset="0.3916" style="stop-color:#F15B22"/>
		<stop  offset="0.6293" style="stop-color:#EF4123"/>
		<stop  offset="0.8394" style="stop-color:#EE2B24"/>
		<stop  offset="1" style="stop-color:#ED2224"/>
	</linearGradient>
	<polygon style="clip-path:url(#SVGID_49_);fill:url(#SVGID_50_);" points="17.533,36.496 21.549,37.38 20.706,41.207 16.69,40.323 
			"/>
</g>
<g>
	<defs>
		<path id="SVGID_51_" d="M43,32.161c0.664-1.603,2.215-2.639,3.95-2.639c2.357,0,4.275,1.917,4.275,4.275
			c0,1.116-0.424,2.166-1.198,2.967l-8.524,6.789l-8.191-6.484c-0.97-0.815-1.525-2.007-1.525-3.272
			c0-2.358,1.918-4.275,4.274-4.275c1.736,0,3.287,1.036,3.951,2.639c0.25,0.604,0.84,0.998,1.494,0.998S42.748,32.765,43,32.161
			 M41.506,28.62c-1.389-1.464-3.34-2.332-5.445-2.332c-4.14,0-7.508,3.368-7.508,7.509c0,2.232,0.986,4.336,2.703,5.768
			c0.01,0.009,0.022,0.018,0.032,0.027l9.215,7.293c0.293,0.233,0.648,0.35,1.003,0.35c0.357,0,0.713-0.118,1.007-0.352l9.605-7.65
			c0.047-0.038,0.092-0.079,0.134-0.12c1.423-1.419,2.207-3.308,2.207-5.316c0-4.141-3.369-7.509-7.509-7.509
			C44.846,26.288,42.896,27.156,41.506,28.62"/>
	</defs>
	<clipPath id="SVGID_52_">
		<use xlink:href="#SVGID_51_"  style="overflow:visible;"/>
	</clipPath>
	
		<linearGradient id="SVGID_53_" gradientUnits="userSpaceOnUse" x1="0" y1="69.9908" x2="1" y2="69.9908" gradientTransform="matrix(69.6667 15.3333 15.3333 -69.6667 -1059.1641 4906.7417)">
		<stop  offset="0" style="stop-color:#F6891F"/>
		<stop  offset="0.1356" style="stop-color:#F47920"/>
		<stop  offset="0.3916" style="stop-color:#F15B22"/>
		<stop  offset="0.6293" style="stop-color:#EF4123"/>
		<stop  offset="0.8394" style="stop-color:#EE2B24"/>
		<stop  offset="1" style="stop-color:#ED2224"/>
	</linearGradient>
	<polygon style="clip-path:url(#SVGID_52_);fill:url(#SVGID_53_);" points="29.75,20.85 58.856,27.256 53.262,52.673 24.156,46.267 
			"/>
</g>
<g>
	<defs>
		<rect id="SVGID_54_" width="82.797" height="70"/>
	</defs>
	<clipPath id="SVGID_55_">
		<use xlink:href="#SVGID_54_"  style="overflow:visible;"/>
	</clipPath>
	<path style="clip-path:url(#SVGID_55_);fill:#19478A;" d="M3.228,58.733c0,0.89-0.721,1.611-1.611,1.611s-1.612-0.721-1.612-1.611
		c0-0.89,0.722-1.611,1.612-1.611S3.228,57.843,3.228,58.733"/>
	<path style="clip-path:url(#SVGID_55_);fill:#19478A;" d="M82.791,11.267c0,0.89-0.721,1.611-1.611,1.611
		c-0.89,0-1.612-0.721-1.612-1.611c0-0.89,0.722-1.612,1.612-1.612C82.07,9.655,82.791,10.377,82.791,11.267"/>
</g>
</svg>
