<?xml version="1.0" encoding="iso-8859-1"?>
<!-- Generator: Adobe Illustrator 19.0.0, SVG Export Plug-In . SVG Version: 6.00 Build 0)  -->
<svg version="1.1" id="Layer_1" xmlns="http://www.w3.org/2000/svg" xmlns:xlink="http://www.w3.org/1999/xlink" x="0px" y="0px"
	 viewBox="0 0 77.685 70" style="enable-background:new 0 0 77.685 70;" xml:space="preserve">
<g>
	<defs>
		<path id="SVGID_1_" d="M29.695,0c-2.855,0-5.177,2.322-5.177,5.177v2.378c0,0.838,0.678,1.518,1.516,1.518
			c0.838,0,1.518-0.68,1.518-1.518V5.177c0-1.181,0.961-2.142,2.143-2.142h18.478c1.181,0,2.142,0.961,2.142,2.142v2.378
			c0,0.838,0.68,1.518,1.518,1.518s1.517-0.68,1.517-1.518V5.177C53.35,2.322,51.028,0,48.173,0H29.695z"/>
	</defs>
	<clipPath id="SVGID_2_">
		<use xlink:href="#SVGID_1_"  style="overflow:visible;"/>
	</clipPath>
	
		<linearGradient id="SVGID_3_" gradientUnits="userSpaceOnUse" x1="0" y1="70.0027" x2="1" y2="70.0027" gradientTransform="matrix(50.6667 4 4 -50.6667 -264.6162 3549.4824)">
		<stop  offset="0" style="stop-color:#F6891F"/>
		<stop  offset="0.1356" style="stop-color:#F47920"/>
		<stop  offset="0.3916" style="stop-color:#F15B22"/>
		<stop  offset="0.6293" style="stop-color:#EF4123"/>
		<stop  offset="0.8394" style="stop-color:#EE2B24"/>
		<stop  offset="1" style="stop-color:#ED2224"/>
	</linearGradient>
	<polygon style="clip-path:url(#SVGID_2_);fill:url(#SVGID_3_);" points="24.697,-2.262 54.062,0.056 53.171,11.335 23.806,9.017 	
		"/>
</g>
<g>
	<defs>
		<rect id="SVGID_4_" width="77.685" height="70"/>
	</defs>
	<clipPath id="SVGID_5_">
		<use xlink:href="#SVGID_4_"  style="overflow:visible;"/>
	</clipPath>
	<path style="clip-path:url(#SVGID_5_);fill:#19478A;" d="M70.277,12.259H7.408C3.322,12.259,0,15.582,0,19.666V33.14
		c0,0.672,0.443,1.265,1.088,1.455l0.924,0.273v31.785C2.012,68.498,3.514,70,5.359,70h66.966c1.845,0,3.346-1.502,3.346-3.347
		V35.091l0.917-0.264c0.649-0.187,1.097-0.782,1.097-1.458V19.666C77.685,15.582,74.361,12.259,70.277,12.259 M13.539,66.965h-8.18
		c-0.172,0-0.312-0.14-0.312-0.312v-8.18h4.364c2.277,0,4.128,1.852,4.128,4.129V66.965z M72.637,66.653
		c0,0.172-0.14,0.312-0.312,0.312h-8.18v-4.363c0-2.277,1.852-4.129,4.129-4.129h4.363V66.653z M72.637,55.438h-4.363
		c-3.95,0-7.164,3.214-7.164,7.164v4.363H16.573v-4.363c0-3.951-3.213-7.164-7.162-7.164H5.047V35.763l26.789,7.901v4.876
		c0,0.837,0.679,1.517,1.517,1.517h10.978c0.838,0,1.517-0.68,1.517-1.517v-4.836l26.789-7.736V55.438z M34.87,39.628h7.944v7.394
		H34.87V39.628z M74.65,32.228l-28.802,8.318V38.11c0-0.838-0.679-1.517-1.517-1.517H33.353c-0.838,0-1.517,0.679-1.517,1.517v2.39
		L3.034,32.006v-12.34c0-2.412,1.962-4.373,4.374-4.373h6.131v5.252c0,0.838,0.679,1.518,1.517,1.518
		c0.838,0,1.517-0.68,1.517-1.518v-5.252h43.988v5.252c0,0.838,0.679,1.518,1.517,1.518c0.838,0,1.518-0.68,1.518-1.518v-5.252
		h6.681c2.411,0,4.373,1.962,4.373,4.373V32.228z"/>
	<path style="clip-path:url(#SVGID_5_);fill:#19478A;" d="M63.597,26.4c0,0.838-0.679,1.517-1.517,1.517s-1.517-0.679-1.517-1.517
		c0-0.838,0.679-1.518,1.517-1.518S63.597,25.562,63.597,26.4"/>
	<path style="clip-path:url(#SVGID_5_);fill:#19478A;" d="M16.573,26.4c0,0.838-0.68,1.517-1.518,1.517
		c-0.837,0-1.517-0.679-1.517-1.517c0-0.838,0.68-1.518,1.517-1.518C15.893,24.882,16.573,25.562,16.573,26.4"/>
</g>
</svg>
