<?xml version="1.0" encoding="iso-8859-1"?>
<!-- Generator: Adobe Illustrator 19.0.0, SVG Export Plug-In . SVG Version: 6.00 Build 0)  -->
<svg version="1.1" id="Layer_1" xmlns="http://www.w3.org/2000/svg" xmlns:xlink="http://www.w3.org/1999/xlink" x="0px" y="0px"
	 viewBox="0 0 50.625 70" style="enable-background:new 0 0 50.625 70;" xml:space="preserve">
<g>
	<defs>
		<path id="SVGID_1_" d="M19.739,45.942v-3.393h6.583v3.393c0,0.393-0.318,0.712-0.711,0.712H20.45
			C20.058,46.654,19.739,46.335,19.739,45.942 M18.326,38.882v-1.817c0-2.292-0.969-4.484-2.656-6.015
			c-2.344-2.128-3.653-5.163-3.593-8.328c0.111-5.842,4.955-10.66,10.797-10.741c0.053,0,0.105-0.001,0.158-0.001
			c2.898,0,5.625,1.117,7.691,3.155c2.104,2.075,3.263,4.845,3.263,7.8c0,3.076-1.304,6.027-3.578,8.1
			c-1.698,1.547-2.673,3.745-2.673,6.03v1.817c0,0.515-0.417,0.933-0.93,0.933h-7.549C18.743,39.815,18.326,39.397,18.326,38.882
			 M22.837,9.246c-3.555,0.05-6.911,1.468-9.451,3.995c-2.54,2.526-3.976,5.874-4.042,9.43c-0.076,3.953,1.56,7.745,4.488,10.403
			c1.118,1.014,1.76,2.469,1.76,3.99v1.818c0,1.173,0.553,2.219,1.413,2.89v4.17c0,1.901,1.545,3.447,3.445,3.447h5.161
			c1.9,0,3.446-1.547,3.446-3.447v-4.17c0.859-0.671,1.413-1.717,1.413-2.89v-1.817c0-1.518,0.649-2.98,1.78-4.01
			c2.841-2.589,4.471-6.278,4.471-10.12c0-3.693-1.448-7.155-4.078-9.748c-2.582-2.546-5.989-3.942-9.607-3.942
			C22.969,9.245,22.903,9.245,22.837,9.246"/>
	</defs>
	<clipPath id="SVGID_2_">
		<use xlink:href="#SVGID_1_"  style="overflow:visible;"/>
	</clipPath>
	
		<linearGradient id="SVGID_3_" gradientUnits="userSpaceOnUse" x1="0" y1="69.9979" x2="1" y2="69.9979" gradientTransform="matrix(36.4586 21.8752 21.8752 -36.4586 -1523.9805 2571.8877)">
		<stop  offset="0" style="stop-color:#F6891F"/>
		<stop  offset="0.1356" style="stop-color:#F47920"/>
		<stop  offset="0.3916" style="stop-color:#F15B22"/>
		<stop  offset="0.6293" style="stop-color:#EF4123"/>
		<stop  offset="0.8394" style="stop-color:#EE2B24"/>
		<stop  offset="1" style="stop-color:#ED2224"/>
	</linearGradient>
	<polygon style="clip-path:url(#SVGID_2_);fill:url(#SVGID_3_);" points="16.535,-2.867 54.432,19.871 29.454,61.501 -8.443,38.763 
			"/>
</g>
<g>
	<defs>
		<rect id="SVGID_4_" width="50.625" height="70"/>
	</defs>
	<clipPath id="SVGID_5_">
		<use xlink:href="#SVGID_4_"  style="overflow:visible;"/>
	</clipPath>
	<path style="clip-path:url(#SVGID_5_);fill:#19478A;" d="M50.118,36.012l-4.247-7.759v-5.318C45.871,10.289,35.582,0,22.936,0
		C10.289,0,0,10.289,0,22.935v3.939c0,4.892,1.471,9.573,4.258,13.565v11.289c0,0.755,0.612,1.367,1.367,1.367
		s1.368-0.612,1.368-1.367V40.001c0-0.288-0.092-0.57-0.261-0.802c-2.614-3.602-3.997-7.863-3.997-12.325v-3.939
		c0-11.138,9.062-20.2,20.201-20.2c11.138,0,20.201,9.062,20.201,20.2v5.668c0,0.23,0.057,0.455,0.168,0.657l4.415,8.064
		c0.334,0.61,0.093,1.139-0.024,1.337c-0.119,0.198-0.467,0.658-1.158,0.658h-0.006L44.51,39.31
		c-0.37-0.003-0.713,0.141-0.971,0.398c-0.257,0.257-0.402,0.605-0.402,0.969v6.102c0,3.26-2.653,5.913-5.914,5.913h-4.104
		c-1.862,0-3.378,1.515-3.378,3.378v10.45l-18.586-8.354c-0.689-0.309-1.498-0.002-1.808,0.686
		c-0.309,0.689-0.002,1.498,0.687,1.808l20.513,9.22c0.179,0.081,0.37,0.12,0.561,0.12c0.259,0,0.518-0.073,0.742-0.218
		c0.39-0.253,0.625-0.685,0.625-1.149V56.07c0-0.355,0.289-0.644,0.644-0.644h4.104c4.769,0,8.648-3.879,8.648-8.647V42.05
		l0.648,0.003h0.019c1.453,0,2.762-0.744,3.507-1.993C50.792,38.806,50.819,37.292,50.118,36.012"/>
	<path style="clip-path:url(#SVGID_5_);fill:#19478A;" d="M7.117,57.079c0,0.755-0.612,1.367-1.367,1.367
		c-0.756,0-1.367-0.612-1.367-1.367c0-0.755,0.611-1.367,1.367-1.367C6.505,55.712,7.117,56.324,7.117,57.079"/>
</g>
</svg>
