<?xml version="1.0" encoding="iso-8859-1"?>
<!-- Generator: Adobe Illustrator 19.0.0, SVG Export Plug-In . SVG Version: 6.00 Build 0)  -->
<svg version="1.1" id="Layer_1" xmlns="http://www.w3.org/2000/svg" xmlns:xlink="http://www.w3.org/1999/xlink" x="0px" y="0px"
	 viewBox="0 0 164.67 214.532" style="enable-background:new 0 0 164.67 214.532;" xml:space="preserve">
<g>
	<defs>
		<rect id="SVGID_1_" width="164.67" height="214.532"/>
	</defs>
	<clipPath id="SVGID_2_">
		<use xlink:href="#SVGID_1_"  style="overflow:visible;"/>
	</clipPath>
	<path style="clip-path:url(#SVGID_2_);fill:#164397;" d="M153.88,214.532H10.788C4.839,214.532,0,209.696,0,203.744V10.781
		C0,4.835,4.839-0.001,10.788-0.001H153.88c5.949,0,10.79,4.836,10.79,10.782v192.963
		C164.67,209.696,159.829,214.532,153.88,214.532 M10.788,8.66c-1.152,0-2.121,0.969-2.121,2.121v192.963
		c0,1.152,0.969,2.127,2.121,2.127H153.88c1.131,0,2.124-0.993,2.124-2.127V10.781c0-1.128-0.993-2.121-2.124-2.121H10.788z"/>
</g>
<g>
	<defs>
		<path id="SVGID_3_" d="M38.911,75.218v13.426H25.488c-2.39,0-4.334,1.939-4.334,4.329c0,2.392,1.944,4.331,4.334,4.331h13.423
			v13.426c0,2.391,1.942,4.329,4.332,4.329c2.392,0,4.335-1.938,4.335-4.329V97.304h13.425c2.39,0,4.332-1.939,4.332-4.331
			c0-2.39-1.942-4.329-4.332-4.329H47.578V75.218c0-2.391-1.943-4.331-4.335-4.331C40.853,70.887,38.911,72.827,38.911,75.218"/>
	</defs>
	<clipPath id="SVGID_4_">
		<use xlink:href="#SVGID_3_"  style="overflow:visible;"/>
	</clipPath>
	
		<linearGradient id="SVGID_5_" gradientUnits="userSpaceOnUse" x1="5.180591e-007" y1="214.532" x2="1" y2="214.532" gradientTransform="matrix(-44.1807 0 0 44.1807 65.335 -9385.1973)">
		<stop  offset="0" style="stop-color:#FF8900"/>
		<stop  offset="0.0059" style="stop-color:#FF8800"/>
		<stop  offset="0.2438" style="stop-color:#FF5800"/>
		<stop  offset="0.4695" style="stop-color:#FF3200"/>
		<stop  offset="0.6772" style="stop-color:#FF1600"/>
		<stop  offset="0.8605" style="stop-color:#FF0600"/>
		<stop  offset="1" style="stop-color:#FF0000"/>
	</linearGradient>
	<rect x="21.154" y="70.887" style="clip-path:url(#SVGID_4_);fill:url(#SVGID_5_);" width="44.181" height="44.172"/>
</g>
<g>
	<defs>
		<path id="SVGID_6_" d="M52.738,155.818l-9.493,9.492l-9.492-9.492c-1.693-1.692-4.436-1.692-6.129,0
			c-1.693,1.693-1.69,4.43,0,6.122l9.496,9.496l-9.496,9.494c-1.69,1.692-1.693,4.43,0,6.122c0.846,0.846,1.956,1.269,3.063,1.269
			c1.108,0,2.218-0.423,3.066-1.269l9.492-9.492l9.493,9.492c0.847,0.846,1.958,1.269,3.066,1.269c1.107,0,2.217-0.423,3.062-1.269
			c1.693-1.692,1.693-4.43,0-6.122l-9.495-9.494l9.495-9.496c1.693-1.692,1.693-4.429,0-6.122c-0.845-0.846-1.954-1.269-3.063-1.269
			C54.694,154.549,53.585,154.972,52.738,155.818"/>
	</defs>
	<clipPath id="SVGID_7_">
		<use xlink:href="#SVGID_6_"  style="overflow:visible;"/>
	</clipPath>
	
		<linearGradient id="SVGID_8_" gradientUnits="userSpaceOnUse" x1="0" y1="214.5257" x2="1" y2="214.5257" gradientTransform="matrix(-33.7808 0 0 33.7808 60.1364 -7075.6274)">
		<stop  offset="0" style="stop-color:#FF8900"/>
		<stop  offset="0.0059" style="stop-color:#FF8800"/>
		<stop  offset="0.2438" style="stop-color:#FF5800"/>
		<stop  offset="0.4695" style="stop-color:#FF3200"/>
		<stop  offset="0.6772" style="stop-color:#FF1600"/>
		<stop  offset="0.8605" style="stop-color:#FF0600"/>
		<stop  offset="1" style="stop-color:#FF0000"/>
	</linearGradient>
	<rect x="25.931" y="154.126" style="clip-path:url(#SVGID_7_);fill:url(#SVGID_8_);" width="34.628" height="34.195"/>
</g>
<g>
	<defs>
		<rect id="SVGID_9_" width="164.67" height="214.532"/>
	</defs>
	<clipPath id="SVGID_10_">
		<use xlink:href="#SVGID_9_"  style="overflow:visible;"/>
	</clipPath>
	<path style="clip-path:url(#SVGID_10_);fill:#164397;" d="M159.552,135.471H5.117c-2.391,0-4.333-1.939-4.333-4.331
		c0-2.391,1.942-4.33,4.333-4.33h154.435c2.391,0,4.333,1.939,4.333,4.33C163.885,133.533,161.943,135.471,159.552,135.471"/>
	<path style="clip-path:url(#SVGID_10_);fill:#164397;" d="M159.552,56.416H5.117c-2.391,0-4.333-1.938-4.333-4.33
		c0-2.392,1.942-4.33,4.333-4.33h154.435c2.391,0,4.333,1.938,4.333,4.33C163.885,54.478,161.943,56.416,159.552,56.416"/>
	<path style="clip-path:url(#SVGID_10_);fill:#164397;" d="M82.334,212.693c-2.392,0-4.333-1.939-4.333-4.331V53.925
		c0-2.391,1.941-4.33,4.333-4.33c2.392,0,4.333,1.939,4.333,4.33v154.437C86.667,210.754,84.726,212.693,82.334,212.693"/>
</g>
<g>
	<defs>
		<path id="SVGID_11_" d="M103.541,157.551c-2.391,0-4.332,1.939-4.332,4.331c0,2.391,1.941,4.33,4.332,4.33h35.512
			c2.391,0,4.334-1.939,4.334-4.33c0-2.392-1.943-4.331-4.334-4.331H103.541z"/>
	</defs>
	<clipPath id="SVGID_12_">
		<use xlink:href="#SVGID_11_"  style="overflow:visible;"/>
	</clipPath>
	
		<linearGradient id="SVGID_13_" gradientUnits="userSpaceOnUse" x1="-8.980279e-006" y1="214.532" x2="1" y2="214.532" gradientTransform="matrix(-44.1777 0 0 44.1777 143.3866 -9315.6582)">
		<stop  offset="0" style="stop-color:#FF8900"/>
		<stop  offset="0.0059" style="stop-color:#FF8800"/>
		<stop  offset="0.2438" style="stop-color:#FF5800"/>
		<stop  offset="0.4695" style="stop-color:#FF3200"/>
		<stop  offset="0.6772" style="stop-color:#FF1600"/>
		<stop  offset="0.8605" style="stop-color:#FF0600"/>
		<stop  offset="1" style="stop-color:#FF0000"/>
	</linearGradient>
	<rect x="99.209" y="157.551" style="clip-path:url(#SVGID_12_);fill:url(#SVGID_13_);" width="44.178" height="8.661"/>
</g>
<g>
	<defs>
		<path id="SVGID_14_" d="M103.541,176.658c-2.391,0-4.332,1.94-4.332,4.331s1.941,4.33,4.332,4.33h35.512
			c2.391,0,4.334-1.939,4.334-4.33s-1.943-4.331-4.334-4.331H103.541z"/>
	</defs>
	<clipPath id="SVGID_15_">
		<use xlink:href="#SVGID_14_"  style="overflow:visible;"/>
	</clipPath>
	
		<linearGradient id="SVGID_16_" gradientUnits="userSpaceOnUse" x1="-8.980279e-006" y1="214.532" x2="1" y2="214.532" gradientTransform="matrix(-44.1777 0 0 44.1777 143.3866 -9296.5508)">
		<stop  offset="0" style="stop-color:#FF8900"/>
		<stop  offset="0.0059" style="stop-color:#FF8800"/>
		<stop  offset="0.2438" style="stop-color:#FF5800"/>
		<stop  offset="0.4695" style="stop-color:#FF3200"/>
		<stop  offset="0.6772" style="stop-color:#FF1600"/>
		<stop  offset="0.8605" style="stop-color:#FF0600"/>
		<stop  offset="1" style="stop-color:#FF0000"/>
	</linearGradient>
	<rect x="99.209" y="176.658" style="clip-path:url(#SVGID_15_);fill:url(#SVGID_16_);" width="44.178" height="8.661"/>
</g>
<g>
	<defs>
		<path id="SVGID_17_" d="M129.373,77.439l-25.115,25.111c-1.689,1.693-1.691,4.431,0,6.123c0.846,0.846,1.956,1.269,3.065,1.269
			c1.107,0,2.218-0.423,3.063-1.269L135.5,83.561c1.693-1.692,1.693-4.429,0-6.122c-0.845-0.846-1.954-1.269-3.063-1.269
			C131.328,76.17,130.219,76.593,129.373,77.439"/>
	</defs>
	<clipPath id="SVGID_18_">
		<use xlink:href="#SVGID_17_"  style="overflow:visible;"/>
	</clipPath>
	
		<linearGradient id="SVGID_19_" gradientUnits="userSpaceOnUse" x1="0" y1="214.532" x2="1" y2="214.532" gradientTransform="matrix(-33.7797 0 0 33.7797 136.7701 -7153.769)">
		<stop  offset="0" style="stop-color:#FF8900"/>
		<stop  offset="0.0059" style="stop-color:#FF8800"/>
		<stop  offset="0.2438" style="stop-color:#FF5800"/>
		<stop  offset="0.4695" style="stop-color:#FF3200"/>
		<stop  offset="0.6772" style="stop-color:#FF1600"/>
		<stop  offset="0.8605" style="stop-color:#FF0600"/>
		<stop  offset="1" style="stop-color:#FF0000"/>
	</linearGradient>
	<rect x="102.567" y="76.17" style="clip-path:url(#SVGID_18_);fill:url(#SVGID_19_);" width="34.626" height="33.772"/>
</g>
<g>
	<defs>
		<path id="SVGID_20_" d="M104.402,76.351l3.061,2.962c0.017,0.024,0.035,0.065,0.002,0.1L104.402,76.351z M101.338,73.29h-0.003
			c-1.621,1.629-2.515,3.784-2.515,6.076c0,2.297,0.896,4.46,2.513,6.069c1.623,1.628,3.779,2.526,6.077,2.526h0.006
			c2.297,0,4.457-0.892,6.075-2.513c1.625-1.622,2.521-3.785,2.521-6.082c0-2.292-0.893-4.447-2.521-6.081
			c-1.677-1.674-3.875-2.509-6.072-2.509C105.215,70.776,103.013,71.616,101.338,73.29"/>
	</defs>
	<clipPath id="SVGID_21_">
		<use xlink:href="#SVGID_20_"  style="overflow:visible;"/>
	</clipPath>
	
		<linearGradient id="SVGID_22_" gradientUnits="userSpaceOnUse" x1="-5.325512e-006" y1="214.532" x2="1" y2="214.532" gradientTransform="matrix(-17.1913 0 0 17.1913 116.0119 -3608.7251)">
		<stop  offset="0" style="stop-color:#FF8900"/>
		<stop  offset="0.0059" style="stop-color:#FF8800"/>
		<stop  offset="0.2438" style="stop-color:#FF5800"/>
		<stop  offset="0.4695" style="stop-color:#FF3200"/>
		<stop  offset="0.6772" style="stop-color:#FF1600"/>
		<stop  offset="0.8605" style="stop-color:#FF0600"/>
		<stop  offset="1" style="stop-color:#FF0000"/>
	</linearGradient>
	<rect x="98.82" y="70.776" style="clip-path:url(#SVGID_21_);fill:url(#SVGID_22_);" width="17.192" height="17.185"/>
</g>
<g>
	<defs>
		<path id="SVGID_23_" d="M130.942,102.891l3.062,2.961c0.017,0.024,0.035,0.065,0.002,0.101L130.942,102.891z M127.878,99.831
			h-0.003c-1.622,1.628-2.515,3.783-2.515,6.075c0,2.297,0.896,4.459,2.512,6.069c1.624,1.627,3.781,2.526,6.079,2.526h0.005
			c2.298,0,4.457-0.892,6.074-2.514c1.626-1.622,2.521-3.784,2.521-6.081c0-2.292-0.893-4.447-2.521-6.082
			c-1.677-1.674-3.874-2.509-6.07-2.509C131.756,97.315,129.553,98.156,127.878,99.831"/>
	</defs>
	<clipPath id="SVGID_24_">
		<use xlink:href="#SVGID_23_"  style="overflow:visible;"/>
	</clipPath>
	
		<linearGradient id="SVGID_25_" gradientUnits="userSpaceOnUse" x1="1.242620e-005" y1="214.532" x2="1" y2="214.532" gradientTransform="matrix(-17.1913 0 0 17.1913 142.5512 -3582.1855)">
		<stop  offset="0" style="stop-color:#FF8900"/>
		<stop  offset="0.0059" style="stop-color:#FF8800"/>
		<stop  offset="0.2438" style="stop-color:#FF5800"/>
		<stop  offset="0.4695" style="stop-color:#FF3200"/>
		<stop  offset="0.6772" style="stop-color:#FF1600"/>
		<stop  offset="0.8605" style="stop-color:#FF0600"/>
		<stop  offset="1" style="stop-color:#FF0000"/>
	</linearGradient>
	<rect x="125.36" y="97.315" style="clip-path:url(#SVGID_24_);fill:url(#SVGID_25_);" width="17.191" height="17.186"/>
</g>
</svg>
