<?xml version="1.0" encoding="iso-8859-1"?>
<!-- Generator: Adobe Illustrator 19.0.0, SVG Export Plug-In . SVG Version: 6.00 Build 0)  -->
<svg version="1.1" id="Layer_1" xmlns="http://www.w3.org/2000/svg" xmlns:xlink="http://www.w3.org/1999/xlink" x="0px" y="0px"
	 viewBox="0 0 70 70" style="enable-background:new 0 0 70 70;" xml:space="preserve">
<path style="fill:#1B4695;stroke:#1B4695;stroke-width:0.5;stroke-miterlimit:10;" d="M66.957,67.028h-2.97V23.905
	c0-2.007-1.633-3.64-3.64-3.64h-6.638c-2.007,0-3.64,1.633-3.64,3.64v43.122h-7.541V43.444c0-2.007-1.633-3.64-3.64-3.64h-6.639
	c-2.007,0-3.64,1.633-3.64,3.64v23.584h-7.541V54.813c0-2.007-1.633-3.64-3.64-3.64h-6.638c-2.007,0-3.64,1.633-3.64,3.64v12.214
	H4.02c-0.748,0-1.354,0.606-1.354,1.354c0,0.748,0.606,1.354,1.354,1.354h62.937c0.748,0,1.354-0.606,1.354-1.354
	C68.311,67.633,67.705,67.028,66.957,67.028L66.957,67.028z M18.36,67.028H9.858V54.813c0-0.514,0.418-0.932,0.932-0.932h6.639
	c0.514,0,0.932,0.418,0.932,0.932V67.028z M39.819,67.028h-8.502V43.444c0-0.514,0.418-0.932,0.932-0.932h6.638
	c0.514,0,0.932,0.418,0.932,0.932V67.028z M61.279,67.028h-8.502V23.905c0-0.514,0.418-0.932,0.932-0.932h6.638
	c0.514,0,0.932,0.418,0.932,0.932V67.028z M61.279,67.028"/>
<g>
	<linearGradient id="SVGID_1_" gradientUnits="userSpaceOnUse" x1="13.0954" y1="19.2477" x2="63.2874" y2="19.2477">
		<stop  offset="0" style="stop-color:#F6891F"/>
		<stop  offset="0.1356" style="stop-color:#F47920"/>
		<stop  offset="0.3916" style="stop-color:#F15B22"/>
		<stop  offset="0.6293" style="stop-color:#EF4123"/>
		<stop  offset="0.8394" style="stop-color:#EE2B24"/>
		<stop  offset="1" style="stop-color:#ED2224"/>
	</linearGradient>
	<path style="fill:url(#SVGID_1_);" d="M63.284,1.653c0.019-0.373-0.112-0.753-0.397-1.037c-0.285-0.285-0.664-0.417-1.037-0.397
		c-0.022-0.001-0.043-0.003-0.066-0.003h-8.271c-0.756,0-1.367,0.612-1.367,1.367s0.611,1.367,1.367,1.367h5.107L45.104,16.465
		l-5.097-5.097c-0.256-0.256-0.604-0.401-0.967-0.401s-0.71,0.144-0.967,0.401L13.496,35.946c-0.534,0.534-0.534,1.4,0,1.934
		c0.267,0.266,0.617,0.4,0.967,0.4c0.35,0,0.699-0.133,0.967-0.4L39.04,14.268l5.097,5.097c0.534,0.534,1.4,0.534,1.934,0
		L60.553,4.883v4.623c0,0.755,0.612,1.367,1.367,1.367c0.755,0,1.367-0.612,1.367-1.367V1.719
		C63.287,1.697,63.285,1.675,63.284,1.653L63.284,1.653z M63.284,1.653"/>
	<linearGradient id="SVGID_2_" gradientUnits="userSpaceOnUse" x1="8.4874" y1="41.6833" x2="11.2217" y2="41.6833">
		<stop  offset="0" style="stop-color:#F6891F"/>
		<stop  offset="0.1356" style="stop-color:#F47920"/>
		<stop  offset="0.3916" style="stop-color:#F15B22"/>
		<stop  offset="0.6293" style="stop-color:#EF4123"/>
		<stop  offset="0.8394" style="stop-color:#EE2B24"/>
		<stop  offset="1" style="stop-color:#ED2224"/>
	</linearGradient>
	<path style="fill:url(#SVGID_2_);" d="M11.222,41.683c0,0.755-0.612,1.367-1.367,1.367c-0.755,0-1.367-0.612-1.367-1.367
		c0-0.755,0.612-1.367,1.367-1.367C10.61,40.316,11.222,40.928,11.222,41.683L11.222,41.683z M11.222,41.683"/>
</g>
</svg>
