<?xml version="1.0" encoding="iso-8859-1"?>
<!-- Generator: Adobe Illustrator 19.0.0, SVG Export Plug-In . SVG Version: 6.00 Build 0)  -->
<svg version="1.1" id="Layer_1" xmlns="http://www.w3.org/2000/svg" xmlns:xlink="http://www.w3.org/1999/xlink" x="0px" y="0px"
	 viewBox="0 0 196.257 172.102" style="enable-background:new 0 0 196.257 172.102;" xml:space="preserve">
<g>
	<defs>
		<path id="SVGID_1_" d="M116.886,25.083c0-9.531,7.754-17.285,17.286-17.285s17.287,7.754,17.287,17.285v0.832h-34.573V25.083z
			 M134.172,0c-13.833,0-25.086,11.251-25.086,25.083v0.832H86.064c-4.735,0-8.656,3.829-8.928,8.716l-1.217,21.863
			c-0.119,2.15,1.526,3.991,3.676,4.111c2.169,0.134,3.991-1.527,4.11-3.676l1.218-21.866c0.037-0.656,0.449-1.35,1.141-1.35h23.022
			v7.832c-1.776,1.096-2.971,3.044-2.971,5.284c0,3.436,2.786,6.225,6.224,6.225c3.437,0,6.225-2.789,6.225-6.225
			c0-1.636-0.645-3.114-1.678-4.225v-8.891h34.573v8.891c-1.033,1.111-1.678,2.588-1.678,4.225c0,3.436,2.788,6.225,6.223,6.225
			c3.438,0,6.225-2.789,6.225-6.225c0-2.24-1.196-4.187-2.97-5.284v-7.832h23.022c0.667,0,1.104,0.687,1.142,1.352l5.034,90.401
			c0.012,0.209-0.142,0.405-0.236,0.504c-0.24,0.255-0.589,0.413-0.906,0.413h-40.944c-2.152,0-3.898,1.746-3.898,3.9
			c0,2.152,1.746,3.898,3.898,3.898h40.944c2.462,0,4.858-1.039,6.572-2.852c1.65-1.744,2.486-3.98,2.356-6.298l-5.034-90.399
			c-0.271-4.888-4.192-8.717-8.928-8.717h-23.022v-0.832C159.259,11.251,148.004,0,134.172,0z"/>
	</defs>
	<clipPath id="SVGID_2_">
		<use xlink:href="#SVGID_1_"  style="overflow:visible;"/>
	</clipPath>
	
		<linearGradient id="SVGID_3_" gradientUnits="userSpaceOnUse" x1="-9.656557e-004" y1="172.102" x2="0.999" y2="172.102" gradientTransform="matrix(-120.3441 0 0 120.3441 196.2568 -20644.3672)">
		<stop  offset="0" style="stop-color:#FF8900"/>
		<stop  offset="0.0059" style="stop-color:#FF8800"/>
		<stop  offset="0.2438" style="stop-color:#FF5800"/>
		<stop  offset="0.4695" style="stop-color:#FF3200"/>
		<stop  offset="0.6772" style="stop-color:#FF1600"/>
		<stop  offset="0.8605" style="stop-color:#FF0600"/>
		<stop  offset="1" style="stop-color:#FF0000"/>
	</linearGradient>
	<rect x="75.8" y="0" style="clip-path:url(#SVGID_2_);fill:url(#SVGID_3_);" width="120.573" height="134.181"/>
</g>
<g>
	<defs>
		<rect id="SVGID_4_" width="196.257" height="172.102"/>
	</defs>
	<clipPath id="SVGID_5_">
		<use xlink:href="#SVGID_4_"  style="overflow:visible;"/>
	</clipPath>
	<path style="clip-path:url(#SVGID_5_);fill:#164397;" d="M65.473,172.102c-9.075,0-16.457-7.382-16.457-16.455
		c0-9.074,7.382-16.457,16.457-16.457c9.074,0,16.456,7.383,16.456,16.457C81.929,164.72,74.547,172.102,65.473,172.102
		 M65.473,146.988c-4.775,0-8.659,3.884-8.659,8.659c0,4.773,3.884,8.656,8.659,8.656c4.774,0,8.658-3.883,8.658-8.656
		C74.131,150.872,70.247,146.988,65.473,146.988"/>
	<path style="clip-path:url(#SVGID_5_);fill:#164397;" d="M113.785,172.102c-9.074,0-16.455-7.382-16.455-16.455
		c0-9.074,7.381-16.457,16.455-16.457s16.455,7.383,16.455,16.457C130.24,164.72,122.859,172.102,113.785,172.102 M113.785,146.988
		c-4.773,0-8.657,3.884-8.657,8.659c0,4.773,3.884,8.656,8.657,8.656c4.773,0,8.657-3.883,8.657-8.656
		C122.442,150.872,118.558,146.988,113.785,146.988"/>
	<path style="clip-path:url(#SVGID_5_);fill:#164397;" d="M132.253,124.839H53.077c-1.714,0-3.227-1.119-3.729-2.759L26.534,47.548
		H3.899C1.746,47.548,0,45.802,0,43.649c0-2.153,1.746-3.899,3.899-3.899h25.52c1.713,0,3.227,1.12,3.728,2.759l22.814,74.532
		h76.292c2.153,0,3.899,1.746,3.899,3.899S134.406,124.839,132.253,124.839"/>
	<path style="clip-path:url(#SVGID_5_);fill:#164397;" d="M140.564,104.529H48.598c-2.154,0-3.899-1.746-3.899-3.899
		s1.745-3.899,3.899-3.899h91.966c2.154,0,3.899,1.746,3.899,3.899S142.718,104.529,140.564,104.529"/>
	<path style="clip-path:url(#SVGID_5_);fill:#164397;" d="M145.792,84.184H42.504c-2.153,0-3.899-1.746-3.899-3.899
		s1.746-3.899,3.899-3.899h103.288c2.153,0,3.898,1.746,3.898,3.899S147.945,84.184,145.792,84.184"/>
</g>
</svg>
