<?xml version="1.0" encoding="iso-8859-1"?>
<!-- Generator: Adobe Illustrator 19.0.0, SVG Export Plug-In . SVG Version: 6.00 Build 0)  -->
<svg version="1.1" id="Layer_1" xmlns="http://www.w3.org/2000/svg" xmlns:xlink="http://www.w3.org/1999/xlink" x="0px" y="0px"
	 viewBox="0 0 199.253 209.861" style="enable-background:new 0 0 199.253 209.861;" xml:space="preserve">
<g>
	<defs>
		<rect id="SVGID_1_" width="199.253" height="209.861"/>
	</defs>
	<clipPath id="SVGID_2_">
		<use xlink:href="#SVGID_1_"  style="overflow:visible;"/>
	</clipPath>
	<path style="clip-path:url(#SVGID_2_);fill:#164397;" d="M43.57,209.835c-2.611,0-4.995-1.086-6.54-2.985
		c-1.451-1.783-2-4.117-1.509-6.411l4.41-20.541c-8.795-3.757-15.888-10.737-20.395-20.093h-8.342c-2.768,0-11.194,0-11.194-8.902
		v-25.831c0-6.864,4.527-11.661,11.008-11.661h5.325c2.233-7.701,6.194-15.088,11.597-21.626c-0.885-6.969-3.652-11.528-7.088-17.19
		c-1.428-2.352-2.929-4.832-4.407-7.643c-0.657-1.248-0.657-2.74,0.003-3.989c0.656-1.249,1.887-2.091,3.29-2.253
		c21.231-2.509,34.219,2.723,41.731,8.159c4.646-1.626,9.951-2.956,15.496-3.868c2.321-0.406,4.536,1.191,4.922,3.525
		c0.383,2.335-1.196,4.536-3.528,4.919c-5.905,0.975-11.463,2.445-16.071,4.251c-1.452,0.581-3.107,0.308-4.307-0.697
		c-7.177-5.987-17.694-8.844-30.691-8.304c0.296,0.493,0.592,0.981,0.882,1.457c3.958,6.528,7.699,12.689,8.482,22.677
		c0.091,1.15-0.287,2.289-1.048,3.16c-5.985,6.829-9.939,14.442-11.762,22.631c-0.436,1.957-2.173,3.351-4.179,3.351h-8.647
		c-0.854,0-2.442,0-2.442,3.101v25.831c0.151,0.342,1.762,0.342,2.628,0.342h11.121c1.736,0,3.301,1.045,3.96,2.654
		c3.949,9.617,11.014,16.429,19.888,19.181c2.119,0.657,3.385,2.817,2.921,4.989l-4.98,23.189l22.274-0.105
		c0.627-0.006,1.262-0.586,1.326-0.877l2.831-13.351c0.489-2.288,2.747-3.809,5.041-3.304c5.05,1.022,12.434,1.69,18.81,1.69
		s13.761-0.668,18.813-1.69c2.302-0.546,4.556,1.01,5.04,3.304l2.831,13.351c0.056,0.261,0.671,0.871,1.334,0.877l22.288,0.116
		l-5.012-25.099c-0.334-1.673,0.36-3.385,1.765-4.361c15.636-10.796,24.603-26.504,24.603-43.102
		c0-14.965-7.155-29.083-20.145-39.751c-1.827-1.504-2.091-4.198-0.59-6.028c1.495-1.823,4.196-2.09,6.025-0.592
		c11.232,9.228,18.685,20.767,21.725,33.357h0.003c3.908,2.863,7.465,4.001,10.564,3.31c4.579-0.987,7.314-5.633,7.613-6.156
		c1.161-2.062,3.777-2.787,5.833-1.626c2.059,1.162,2.785,3.775,1.623,5.831c-1.123,1.998-5.406,8.629-13.269,10.319
		c-3.531,0.773-7.17,0.407-10.869-1.062c0.035,0.795,0.053,1.597,0.053,2.398c0,18.601-9.437,36.133-25.997,48.497l4.652,23.298
		c0.462,2.294-0.11,4.629-1.571,6.394c-1.553,1.888-3.743,3.165-6.562,2.939l-22.785-0.122c-4.591-0.029-8.74-3.322-9.657-7.666
		l-1.978-9.326c-5.017,0.72-11.016,1.149-16.33,1.149s-11.31-0.429-16.327-1.149l-1.98,9.332c-0.924,4.35-5.076,7.643-9.658,7.66
		l-22.788,0.122H43.57z M43.424,107.91c-2.497,0-4.521,2.024-4.521,4.521s2.024,4.521,4.521,4.521c2.497,0,4.521-2.024,4.521-4.521
		S45.921,107.91,43.424,107.91"/>
</g>
<g>
	<defs>
		<path id="SVGID_3_" d="M92.84,38.839c0-16.696,13.584-30.278,30.283-30.278c16.696,0,30.278,13.582,30.278,30.278
			s-13.582,30.284-30.278,30.284C106.424,69.123,92.84,55.535,92.84,38.839 M123.123,0c-21.419,0-38.847,17.422-38.847,38.839
			c0,21.418,17.428,38.845,38.847,38.845c21.417,0,38.845-17.427,38.845-38.845C161.968,17.422,144.54,0,123.123,0z"/>
	</defs>
	<clipPath id="SVGID_4_">
		<use xlink:href="#SVGID_3_"  style="overflow:visible;"/>
	</clipPath>
	
		<linearGradient id="SVGID_5_" gradientUnits="userSpaceOnUse" x1="-1.571204e-006" y1="209.861" x2="1" y2="209.861" gradientTransform="matrix(-77.6922 0 0 77.6922 161.9679 -16265.7197)">
		<stop  offset="0" style="stop-color:#FF8900"/>
		<stop  offset="0.0059" style="stop-color:#FF8800"/>
		<stop  offset="0.2438" style="stop-color:#FF5800"/>
		<stop  offset="0.4695" style="stop-color:#FF3200"/>
		<stop  offset="0.6772" style="stop-color:#FF1600"/>
		<stop  offset="0.8605" style="stop-color:#FF0600"/>
		<stop  offset="1" style="stop-color:#FF0000"/>
	</linearGradient>
	<rect x="84.276" y="0" style="clip-path:url(#SVGID_4_);fill:url(#SVGID_5_);" width="77.692" height="77.684"/>
</g>
<g>
	<defs>
		<path id="SVGID_6_" d="M121.259,19.141c-8.847,0.308-13.533,6.644-13.452,12.452c0.08,5.76,4.627,11.985,14.419,12.043
			c3.334,0.024,5.421,1.423,5.452,3.653c0.027,1.783-1.355,3.629-4.497,3.734c-2.97,0.117-5.302-0.319-7.221-1.289
			c-2.108-1.063-4.684-0.215-5.75,1.894c-1.065,2.107-0.217,4.686,1.895,5.749c2.958,1.492,6.317,2.224,10.243,2.224
			c0.368,0,0.742-0.007,1.123-0.018c8.403-0.285,12.852-6.608,12.771-12.416c-0.085-5.97-4.91-12.038-13.963-12.091
			c-3.562-0.023-5.88-1.434-5.909-3.606c-0.026-1.789,1.567-3.647,5.188-3.769c2.659-0.111,4.677,0.308,6.615,1.301
			c2.092,1.068,4.682,0.25,5.763-1.853c1.08-2.108,0.25-4.686-1.856-5.766c-2.938-1.507-6.14-2.262-9.776-2.262
			C121.959,19.121,121.611,19.128,121.259,19.141"/>
	</defs>
	<clipPath id="SVGID_7_">
		<use xlink:href="#SVGID_6_"  style="overflow:visible;"/>
	</clipPath>
	
		<linearGradient id="SVGID_8_" gradientUnits="userSpaceOnUse" x1="0" y1="209.861" x2="1" y2="209.861" gradientTransform="matrix(-28.4375 0 0 28.4375 136.243 -5928.5684)">
		<stop  offset="0" style="stop-color:#FF8900"/>
		<stop  offset="0.0059" style="stop-color:#FF8800"/>
		<stop  offset="0.2438" style="stop-color:#FF5800"/>
		<stop  offset="0.4695" style="stop-color:#FF3200"/>
		<stop  offset="0.6772" style="stop-color:#FF1600"/>
		<stop  offset="0.8605" style="stop-color:#FF0600"/>
		<stop  offset="1" style="stop-color:#FF0000"/>
	</linearGradient>
	<rect x="107.726" y="19.121" style="clip-path:url(#SVGID_7_);fill:url(#SVGID_8_);" width="28.597" height="40.48"/>
</g>
</svg>
