<svg xmlns="http://www.w3.org/2000/svg">
<defs>
<font id="UTMHelve-Italic" horiz-adv-x="1200" >
  <font-face 
    font-family="UTM Helve"
    font-weight="400"
    font-style="italic"
    font-stretch="normal"
    units-per-em="2048"
    panose-1="2 4 6 3 5 5 6 9 2 4"
    ascent="1638"
    descent="-410"
    x-height="1073"
    cap-height="1470"
    bbox="-123 -451 4956 2335"
    underline-thickness="109"
    underline-position="-143"
    slope="-12"
    unicode-range="U+0020-U+2026"
  />
<missing-glyph horiz-adv-x="5040" 
d="M3785 2045h10q35 -10 26 -52q-2 -12 -44 -57h-28q5 24 40 54l4 10q-2 13 -7 15h-9q-8 0 -14 -19h-30q16 49 52 49zM2447 2016l23 -31q-4 -16 -47 -30h-19l-56 12l-14 -12l-22 25q17 29 49 29h11l39 -11h2q10 0 34 18zM889 1980h142l-13 -60h-94l-16 -75h89l-13 -59h-89
l-27 -129l-6 -5h-49l69 323zM1576 1980h43l5 -5l-17 -78h30l-11 -52h-30l-40 -188l-7 -5h-49l41 193h-25l11 52h25l17 78zM2042 1980h42l3 -5l-20 -94h3q28 24 59 24h2q58 0 68 -71l-7 -39l-30 -143h-52l24 115q17 80 -25 80h-7q-43 0 -61 -86l-23 -109h-51l69 323z
M2621 1980h49l4 -5l-48 -222q0 -51 35 -51q45 7 56 59l46 214l6 5h49l-46 -216q-18 -85 -90 -112q-17 -8 -37 -8q-47 0 -70 55q-9 24 -2 57zM2856 1980h159l-13 -60h-56l-57 -268h-53l57 268h-55l12 55zM3042 1980h71q6 -4 29 -251h2l134 251h73l-70 -328h-54l51 242h-2
l-125 -242h-44q-4 0 -19 182l-7 60h-3l-51 -242h-55zM4181 1980h52l-70 -328h-45l-4 5l2 11l4 2v14q-38 -40 -87 -40q-67 0 -80 91l3 39l1 3q19 94 118 125l24 3q35 0 56 -32h3zM2467 1928h36l2 -6l-10 -49h-45l-47 -221h-48l5 23q-30 -31 -66 -31q-86 14 -68 97l33 156h51
l-22 -104q-17 -79 8 -86l17 -5h6q26 0 46 36l9 26l28 133h53l5 25zM3886 1928l-12 -55h-31l-47 -221h-47l5 25h-2q-22 -33 -64 -33q-68 0 -69 78l3 29l31 146h52l-25 -120q-11 -50 4 -68l20 -7h9q42 0 56 69l27 126h27q4 0 10 28l4 3h49zM1163 1905q68 0 86 -77q6 -18 1 -54
q-19 -88 -117 -127l-33 -3q-63 0 -85 73q-8 22 -1 52l2 10q20 94 128 126h19zM1416 1905h3q74 0 61 -101l-32 -152h-51l25 119q16 76 -26 76h-5q-44 0 -60 -76l-25 -119h-52l52 245h46l-4 -21q36 29 68 29zM1871 1905h7q72 0 86 -89h-60q-10 31 -36 31h-17q-56 -14 -66 -61

<glyph glyph-name=".notdef" horiz-adv-x="5040" 
d="M3785 2045h10q35 -10 26 -52q-2 -12 -44 -57h-28q5 24 40 54l4 10q-2 13 -7 15h-9q-8 0 -14 -19h-30q16 49 52 49zM2447 2016l23 -31q-4 -16 -47 -30h-19l-56 12l-14 -12l-22 25q17 29 49 29h11l39 -11h2q10 0 34 18zM889 1980h142l-13 -60h-94l-16 -75h89l-13 -59h-89
l-27 -129l-6 -5h-49l69 323zM1576 1980h43l5 -5l-17 -78h30l-11 -52h-30l-40 -188l-7 -5h-49l41 193h-25l11 52h25l17 78zM2042 1980h42l3 -5l-20 -94h3q28 24 59 24h2q58 0 68 -71l-7 -39l-30 -143h-52l24 115q17 80 -25 80h-7q-43 0 -61 -86l-23 -109h-51l69 323z
M2621 1980h49l4 -5l-48 -222q0 -51 35 -51q45 7 56 59l46 214l6 5h49l-46 -216q-18 -85 -90 -112q-17 -8 -37 -8q-47 0 -70 55q-9 24 -2 57zM2856 1980h159l-13 -60h-56l-57 -268h-53l57 268h-55l12 55zM3042 1980h71q6 -4 29 -251h2l134 251h73l-70 -328h-54l51 242h-2
l-125 -242h-44q-4 0 -19 182l-7 60h-3l-51 -242h-55zM4181 1980h52l-70 -328h-45l-4 5l2 11l4 2v14q-38 -40 -87 -40q-67 0 -80 91l3 39l1 3q19 94 118 125l24 3q35 0 56 -32h3zM2467 1928h36l2 -6l-10 -49h-45l-47 -221h-48l5 23q-30 -31 -66 -31q-86 14 -68 97l33 156h51
l-22 -104q-17 -79 8 -86l17 -5h6q26 0 46 36l9 26l28 133h53l5 25zM3886 1928l-12 -55h-31l-47 -221h-47l5 25h-2q-22 -33 -64 -33q-68 0 -69 78l3 29l31 146h52l-25 -120q-11 -50 4 -68l20 -7h9q42 0 56 69l27 126h27q4 0 10 28l4 3h49zM1163 1905q68 0 86 -77q6 -18 1 -54
q-19 -88 -117 -127l-33 -3q-63 0 -85 73q-8 22 -1 52l2 10q20 94 128 126h19zM1416 1905h3q74 0 61 -101l-32 -152h-51l25 119q16 76 -26 76h-5q-44 0 -60 -76l-25 -119h-52l52 245h46l-4 -21q36 29 68 29zM1871 1905h7q72 0 86 -89h-60q-10 31 -36 31h-17q-56 -14 -66 -61
l-6 -15q-2 -69 47 -69h9q22 0 52 27h40l3 3h3l1 -3l3 3l2 -3l3 3v-7q-50 -81 -127 -81q-76 0 -90 94l4 36l1 3q18 85 102 120q17 8 39 8zM3546 1905h2q49 0 57 -60l-3 -14h-52q3 16 -13 16h-4q-14 0 -21 -13l-3 -13q-2 -9 60 -35q26 -19 18 -59q-12 -58 -78 -80l-24 -3
q-73 12 -58 83h54q-4 -20 22 -25h4q19 0 28 23q5 22 -58 44q-28 27 -22 59q14 66 91 77zM4608 1905q55 0 63 -63q3 -18 -6 -65l-27 -125h-52l24 112q17 83 -23 83h-11q-33 0 -51 -54l-30 -141h-52l1 5h-2l2 2l51 238h47l-4 -21q31 29 70 29zM4837 1905h5q40 0 60 -40l4 18
l-2 3l5 11h47l-44 -208q-21 -97 -113 -132l-34 -4h-7q-70 0 -87 80h59q19 -22 40 -23h13q22 0 48 22q17 13 33 52h-3q-41 -40 -82 -40q-57 0 -81 70q-6 18 0 63q18 88 113 125zM4254 1897h53l-29 -136q-6 -59 28 -59h7q46 0 65 93l22 102h51l-52 -245h-47l-1 10h3l-2 3l1 5
l3 2l1 3h-4q-5 -23 -64 -31h-3q-59 0 -68 75l16 85zM1066 1771q-4 -69 49 -69h7q62 14 72 65l4 15q0 65 -46 65h-5q-58 0 -81 -76zM4007 1774q-2 -72 46 -72h5q58 0 82 75q10 49 -37 70h-22q-37 0 -68 -57zM4751 1774q-7 -72 50 -72h5q61 12 74 72q13 61 -44 73h-14
q-59 -16 -69 -62zM4272 1620h52l-12 -57h-52zM1352 1402q40 -11 32 -49v-4q-4 -17 -45 -60h-28q5 25 43 57l1 7q3 12 -3 15h-12q-11 -4 -14 -19h-28l1 6q7 32 42 44zM3633 1339q92 0 117 -99h-60q-28 42 -71 42q-55 0 -101 -68q-15 -22 -20 -47q-17 -78 57 -110l18 -1
q36 0 84 39h61q-65 -97 -159 -97q-93 0 -117 112q-4 31 3 62q21 97 122 152q32 15 66 15zM3948 1339q57 0 93 -47q36 -51 22 -115l-4 -20q-19 -89 -122 -146q-36 -13 -66 -13q-89 0 -117 101q-6 33 0 60l4 18q21 98 130 151q31 11 60 11zM2545 1337h2l45 -11h3q11 0 28 11
l10 -36q-22 -19 -39 -19h-3l-52 10l-21 -7l-12 36q21 16 39 16zM999 1334h19q118 0 124 -26q19 -26 12 -62q-22 -57 -42 -57l-2 -6q42 -23 33 -66l-4 -18q-13 -63 -87 -88l-55 -5h-67zM2833 1334h53l-46 -217q-7 -61 32 -61q29 0 53 39l9 30l43 203l5 6h45l4 -6l-36 -171
q-25 -118 -69 -133q-29 -26 -69 -26q-55 0 -75 76l8 54zM3088 1334h59q4 0 72 -237h4l50 237h50l3 -6l-68 -322h-58q-19 48 -75 238h-3l-50 -238h-53zM3384 1334h54l-69 -328h-54zM4142 1334h8q155 0 166 -40q21 -11 31 -75l-4 -36l-2 -11l2 -2q-19 -94 -113 -149
q-38 -15 -102 -15h-55zM4424 1334h153l-12 -60h-103l-16 -75h101l-12 -57h-101l-16 -74l3 -5h99l-12 -57h-157l68 322zM3813 1175l-3 -10q-16 -76 56 -108l19 -1q68 0 115 86l7 20l3 15q13 61 -40 94q-10 8 -37 11q-66 0 -113 -83zM1041 1274l-15 -67h9q54 0 60 28l6 14
q-5 25 -23 25h-37zM4183 1274l-44 -206l1 -3v-2q104 0 138 76l5 15l6 29q7 34 -17 68q-20 23 -73 23h-16zM1308 1259h5q38 0 63 -40l7 32h49l-52 -245h-49l6 32q-44 -40 -88 -40q-75 0 -80 97l2 36q19 89 112 125zM1581 1259h3q74 0 62 -102l-32 -151h-51l27 128
q14 67 -28 67h-10q-34 0 -52 -62l-28 -133h-52l52 245h47l-5 -21q34 29 67 29zM1810 1259h5q45 0 63 -40l7 32h47l-47 -219q-20 -95 -131 -126h-16q-74 0 -90 82h59q20 -25 38 -25h14q52 0 81 77q-42 -42 -85 -42q-60 0 -84 81l2 44l4 16q17 79 110 117zM2179 1259h2
q43 0 54 -37h2q39 37 76 37h4q57 0 68 -55q2 -25 -2 -45l-32 -153h-52l29 138q9 44 -11 55l-12 2h-15q-32 0 -50 -65l-27 -130h-52l29 136q12 59 -31 59h-8q-32 0 -48 -57l-29 -138h-54l52 245h50l-5 -21h2q11 24 60 29zM2549 1259q47 0 66 -42l8 34h47l-52 -245h-47l6 32
q-44 -40 -86 -40q-74 0 -83 92l3 41q19 90 112 125zM1222 1117q-10 -48 48 -61h4q45 0 72 46l6 15l5 22q1 62 -44 62h-14q-41 0 -71 -57zM1727 1128q-11 -48 28 -68l17 -4h5q47 0 75 57l5 23q3 65 -44 65h-12q-50 0 -74 -73zM2465 1131l-3 -14q2 -61 44 -61h14q61 12 72 64
l2 11q10 45 -23 65l-17 5h-10q-66 -8 -79 -70zM1014 1150l-17 -82q-1 -5 6 -5q77 0 86 45q8 34 -38 42h-37zM3126 753l18 -28l-63 -55q-15 12 -21 26zM1678 727l74 -54q-3 -15 -30 -42l-76 54q27 41 32 42zM2997 693h38l42 -60h-54l-15 26l-29 -26h-54q67 60 72 60z
M3569 693h40l43 -60h-54l-18 26h-1q-1 -5 -25 -26h-54zM767 685h52q8 -4 18 -137l11 -110q11 8 55 100l79 147h54v-2l-181 -326h-44zM1304 685h51l-11 -54h-51zM1499 685h46l5 -5l-68 -323h-52zM2462 685h45l3 -5l-16 -78h31l-11 -52h-31l-41 -193h-53l41 193h-26l11 52h26
l16 78zM2570 685h52l-20 -98h2q27 23 58 23h3q57 0 66 -71l-5 -38l-30 -144h-52l24 115q17 81 -22 81h-10q-42 0 -60 -87l-23 -109h-52zM2809 685h52l-11 -54h-52zM3173 685h44l5 -5l-16 -78h29l-11 -52h-29l-41 -193h-54l41 193h-27l11 52h27l16 78zM3379 685h52l-69 -328
h-52zM4102 685h52l-69 -328h-52zM4461 685h51l-11 -54h-51zM1684 610h5q83 0 89 -102l-2 -23l-2 -11q-18 -83 -111 -120l-36 -5q-76 0 -90 97l2 32q21 97 121 130zM1940 610h4q53 0 66 -60q1 -25 -11 -81l-23 -112h-54l31 146q3 50 -27 50h-10q-38 0 -54 -57l-29 -139h-54
l52 245h49l-5 -21q32 29 65 29zM2175 610h4q45 0 55 -39h3l7 31h49l-44 -206q-22 -102 -118 -135l-28 -3h-5q-73 0 -89 81h52l33 -20l14 -3h14q50 0 76 72q-41 -39 -81 -39q-62 0 -82 76q-6 23 1 60q18 85 112 123zM2995 610h2q82 0 89 -104l-3 -25l-8 -27h-172
q6 -45 36 -45l13 -3q29 0 54 22h57l-1 -3q-51 -76 -124 -76q-77 0 -90 97l5 28l1 8q11 49 51 89q42 39 90 39zM3558 610h5q41 0 62 -39h2l7 31h47l-52 -245h-47l6 31h-2q-43 -39 -85 -39q-71 0 -82 89l3 36l3 14q18 86 109 120zM3840 610h7q88 0 80 -128l-2 -1l-3 -15
q-14 -65 -89 -106q-23 -11 -48 -11q-34 0 -57 32l-21 -99l-6 -5h-49l69 325h49l-6 -28q38 36 76 36zM4280 610q44 0 67 -39l7 31h49l-52 -245h-49l6 31q-43 -39 -85 -39q-92 0 -80 132q18 84 99 121q16 8 38 8zM1050 602h50l-29 -136q-10 -60 29 -60h5q44 0 63 87l23 109h52
l-52 -245h-47l5 24h-5q-5 -23 -63 -32h-3q-55 0 -68 68q4 35 17 99l18 81zM1287 602h51l-52 -245h-51zM2792 602h52l-52 -245h-52zM4444 602h51l-52 -245h-51zM1596 488l-4 -16q-1 -66 45 -66h4q59 0 82 76q2 71 -44 71h-11q-62 -16 -72 -65zM2087 472q1 -66 45 -66h11
q48 0 75 75v1q2 71 -44 71h-14q-39 0 -68 -57zM2912 506h122l1 2q-7 45 -50 45h-7q-35 0 -66 -47zM3474 474q-2 -68 46 -68h5q52 0 78 63l3 12q5 72 -42 72h-16q-59 -14 -69 -63zM3743 478q-3 -72 46 -72h3q50 0 78 60l5 22q9 43 -36 65h-22q-47 0 -73 -72zM4195 472
q-4 -66 52 -66q43 0 71 48l5 15l4 16q11 54 -38 68h-18q-42 0 -71 -60zM3484 321h51l-11 -52h-51zM4205 321h51l-11 -52h-51zM2761 133h4q35 0 32 -50v-2q-3 -16 -33 -41l-13 -17h-28q5 25 40 56l3 2v2q1 19 -5 19h-10q-8 0 -13 -19h-30q17 50 53 50zM1570 116l40 -60
l-30 -19l-41 52zM369 79h4q64 -48 72 -60l-28 -37q-78 49 -76 58zM3507 79l73 -58l-26 -39q-10 0 -79 55q22 36 32 42zM4594 76l10 -42l-102 -52l-12 39l105 58zM1215 53h51l-4 -19l4 -5h14l-8 -36h-14l-6 -5l-59 -279h-46l7 31q-43 -40 -90 -40q-72 0 -80 105l3 26
q22 102 129 131h14q33 0 59 -33l12 59l-5 5h-43l8 36h49zM1489 45h40l43 -61h-53l-17 27l-29 -27h-53zM2650 45h33q12 0 50 -61h-54l-17 27q-23 -21 -25 -27h-58l1 4zM57 37h160l-13 -60h-56l-57 -268h-50l-3 5l52 245l3 3v2l-1 2l2 3l-1 2l2 3l-1 3h-54l11 54zM707 37h47
l-16 -73l2 -2l-3 -3l-1 -3l2 -2l-3 -3v-3l1 -2v-2l-3 -3l2 -3h3q22 24 56 24h3q53 0 64 -58q4 -17 -2 -42l-32 -153h-52l27 127q14 68 -26 68h-8q-43 0 -61 -86l-23 -109h-52l68 322zM1305 37h47l3 -6l-10 -49h-52zM1995 37h52l-42 -198l94 115h62l-103 -118l63 -125v-2h-70
q-5 22 -50 115l-24 -115h-52zM2279 37l-21 -99q29 24 58 24q57 0 68 -56q6 -19 -7 -77l-25 -120h-54l28 133q13 62 -28 62h-11q-31 0 -48 -55l-30 -140h-53l67 314l-1 3l1 3l1 2v3l2 3h53zM2466 37h51l-12 -55h-51zM3156 37h51l-23 -108q34 33 75 33h3q75 0 85 -94l-3 -37
q-16 -75 -90 -120q-32 -11 -51 -11q-41 0 -63 40l-7 -31h-47zM4283 37h52l-21 -99h2q28 24 59 24h3q60 0 66 -74l-7 -41l-29 -138h-52l24 111q17 82 -15 82l-10 2h-12q-37 0 -54 -80l-24 -115h-52zM321 -38h3l-13 -58h-5q-42 0 -54 -57l-29 -138h-53l52 245h47l-4 -21
q24 29 56 29zM556 -38q71 0 67 -87l-35 -166h-51l29 136q6 59 -29 59h-6q-45 0 -62 -84l-24 -111h-52l52 245h50l-4 -21q31 29 65 29zM1496 -38q72 0 85 -94l-4 -39q-7 -24 -12 -24h-169q7 -47 52 -47q24 0 53 21h57q-50 -79 -125 -79q-82 0 -91 105l8 37q17 81 114 117z
M2649 -38h5q77 0 86 -97l-2 -26l-5 -21l-6 -13h-170q8 -47 43 -47h12q21 0 47 21h59q-51 -79 -122 -79q-84 0 -93 102l4 29q20 93 118 128zM2907 -38h4q54 0 65 -60q2 -25 -10 -82l-24 -111h-54l29 138q10 48 -23 57h-11q-38 0 -55 -57l-29 -138h-54l52 245h50l-4 -21
q31 29 64 29zM3500 -38h6q40 0 61 -40h2l7 32h47l-52 -245h-47l7 31h-2q-43 -40 -87 -40q-71 0 -82 90l4 37l3 12q17 82 101 117q13 6 32 6zM3773 -38h4q62 0 65 -78l-15 -84l-19 -91h-54l29 138q10 48 -26 57h-9q-38 0 -53 -52l-30 -143h-54l52 245h49l-4 -21q32 29 65 29z
M4125 -38h1q74 0 84 -93l-5 -40q-18 -88 -110 -126l-26 -3q-41 0 -61 34l-22 -106h-52l69 326h47l-6 -29q38 37 81 37zM4706 -38h5q34 0 55 -37q35 37 77 37h6q56 0 65 -66l-5 -51l-29 -136h-52l26 122q15 73 -24 73h-7q-35 0 -51 -50l-30 -140l-6 -5h-48l30 140
q9 42 -20 55h-17q-40 0 -56 -77l-25 -118h-51l52 245h47l-4 -21q28 29 62 29zM349 -46h49l4 -6l-50 -234l-6 -5h-49zM1287 -46h52l-52 -245h-52zM1639 -46h52l-29 -136q-9 -60 30 -60h4q44 0 62 81l24 115h52l-52 -245h-47l5 24h-5q-19 -33 -66 -33q-52 0 -66 63q-2 12 3 34
zM2448 -46h51l-52 -245h-51zM4505 -46h51l-52 -245h-51zM1041 -169q-11 -53 35 -73h12q54 0 80 66l3 10q11 53 -40 70h-17q-38 0 -70 -57zM1407 -143h122q-8 47 -43 47h-7q-43 0 -71 -44zM2568 -143h122q-11 47 -44 47h-7q-46 0 -71 -47zM3162 -158l-2 -11q-6 -73 45 -73h5
q66 8 79 71l2 5q9 45 -25 65l-17 5h-14q-63 -14 -73 -62zM3415 -173q-1 -69 47 -69h11q41 0 72 60l3 13q7 73 -41 73h-17q-47 0 -74 -73zM4028 -158l-4 -22q-10 -47 45 -62h9q50 0 78 76q1 70 -44 70h-15q-59 -17 -69 -62z" />
    <glyph glyph-name=".null" horiz-adv-x="0" 
 />
    <glyph glyph-name="nonmarkingreturn" horiz-adv-x="571" 
 />
    <glyph glyph-name="space" unicode=" " horiz-adv-x="602" 
 />
    <glyph glyph-name="exclam" unicode="!" horiz-adv-x="602" 
d="M429 209l-44 -209h-201l44 209h201zM411 352h-103l86 635l102 483h201l-102 -483z" />
    <glyph glyph-name="quotedbl" unicode="&#x22;" horiz-adv-x="786" 
d="M345 950l111 520h152l-111 -520h-152zM636 950l111 520h151l-111 -520h-151z" />
    <glyph glyph-name="numbersign" unicode="#" 
d="M885 430l-148 -430h-135l148 430h-254l-152 -430h-135l152 430h-213l48 131h209l103 291h-213l48 127h209l152 430h135l-148 -430h254l148 430h140l-153 -430h213l-47 -127h-209l-103 -291h209l-45 -131h-213zM897 852h-253l-103 -291h258z" />
    <glyph glyph-name="dollar" unicode="$" 
d="M699 840l99 467q-115 0 -195 -68t-101 -170q-21 -98 42 -160q54 -51 155 -69zM749 631l-111 -520q131 0 222 79q80 70 103 179q18 84 -14 145t-97 84zM1260 1069h-176q9 96 -23 148q-43 67 -169 90l-103 -488q181 -57 246 -92q164 -92 115 -326q-50 -233 -236 -352
q-142 -90 -308 -90l-42 -197h-94l42 197q-207 0 -300 104q-107 123 -53 375h180q-35 -164 9.5 -233.5t195.5 -93.5l116 544q-243 62 -312 162q-61 90 -29 240q35 166 181.5 283.5t329.5 117.5l28 131h94l-28 -131q157 -14 242 -76q139 -98 94 -313z" />
    <glyph glyph-name="percent" unicode="%" horiz-adv-x="1912" 
d="M310 1077q32 148 153.5 248t268.5 100q146 0 225.5 -101t48.5 -247q-31 -145 -153.5 -246.5t-268.5 -101.5q-143 0 -224 100.5t-50 247.5zM453 1077q-19 -92 27.5 -148.5t134.5 -56.5q90 0 160 59.5t88 145.5q19 86 -28 145.5t-133 59.5t-158 -59.5t-91 -145.5zM1116 336
q31 147 152.5 247.5t269.5 100.5q145 0 225 -101.5t49 -246.5q-31 -146 -154.5 -249t-268.5 -103q-144 0 -224.5 102t-48.5 250zM1259 336q-20 -92 26.5 -148.5t134.5 -56.5q90 0 160 59.5t89 145.5q18 86 -29 145.5t-133 59.5t-158 -59.5t-90 -145.5zM1678 1442
l-1126 -1483h-110l1122 1483h114z" />
    <glyph glyph-name="ampersand" unicode="&#x26;" horiz-adv-x="1454" 
d="M918 291l-246 405q-160 -90 -216 -141q-84 -76 -107 -186q-27 -123 62 -191q66 -51 152 -51q201 0 355 164zM778 901q98 57 141 98q79 72 97 156q18 88 -28 129q-34 31 -94 31q-98 0 -156 -62q-38 -41 -50 -98q-13 -61 21 -141q24 -58 69 -113zM1129 319l194 -319h-234
l-103 168q-105 -98 -201 -143q-120 -58 -268 -58q-239 0 -322 152q-57 106 -29 237q33 156 120 252.5t310 210.5q-63 107 -82 164q-23 74 -5 160q29 137 136 227q120 100 282 100q164 0 233 -96q61 -82 34 -207q-29 -137 -141 -241q-64 -60 -207 -144l203 -319
q39 67 57.5 108t48.5 121h172q-15 -74 -66.5 -169t-131.5 -204z" />
    <glyph glyph-name="quotesingle" unicode="'" horiz-adv-x="417" 
d="M324 950l111 520h147l-111 -520h-147z" />
    <glyph glyph-name="parenleft" unicode="(" horiz-adv-x="737" 
d="M806 1503h123q-146 -196 -210 -299q-105 -162 -168.5 -318.5t-115.5 -398.5q-34 -159 -30 -308.5t36 -299.5q20 -90 82 -305h-123q-124 272 -159 457q-45 239 12 506q55 260 196 499q128 215 357 467z" />
    <glyph glyph-name="parenright" unicode=")" horiz-adv-x="737" 
d="M105 -426h-123q140 190 212 301q103 162 167.5 319.5t116.5 399.5q34 160 30.5 307.5t-38.5 296.5q-18 92 -82 305h123q84 -184 121 -305q48 -151 57 -312t-30 -341q-55 -262 -196 -502q-128 -217 -358 -469z" />
    <glyph glyph-name="asterisk" unicode="*" horiz-adv-x="856" 
d="M339 1212l65 111l196 -78l48 225h123l-48 -225l234 78l17 -111l-236 -69l95 -189l-113 -69l-95 192l-172 -192l-87 69l179 189z" />
    <glyph glyph-name="plus" unicode="+" horiz-adv-x="1269" 
d="M649 594l94 442h152l-94 -442h442l-32 -152h-442l-94 -442h-152l94 442h-442l32 152h442z" />
    <glyph glyph-name="comma" unicode="," horiz-adv-x="602" 
d="M180 0l47 217h213l-43 -201q-38 -178 -145 -260q-59 -45 -136 -59l20 94q60 6 101 70q30 49 49 139h-106z" />
    <glyph glyph-name="hyphen" unicode="-" horiz-adv-x="737" 
d="M734 659l-39 -184h-504l39 184h504z" />
    <glyph glyph-name="hyphen" unicode="&#x2010;" horiz-adv-x="737" 
d="M734 659l-39 -184h-504l39 184h504z" />
    <glyph glyph-name="period" unicode="." horiz-adv-x="602" 
d="M439 217l-46 -217h-213l46 217h213z" />
    <glyph glyph-name="slash" unicode="/" horiz-adv-x="602" 
d="M928 1511l-834 -1552h-139l838 1552h135z" />
    <glyph glyph-name="zero" unicode="0" 
d="M1021 700q60 281 17.5 429.5t-197.5 148.5q-150 0 -256.5 -151.5t-165.5 -426.5q-59 -278 -17.5 -427.5t193.5 -149.5q151 0 259 150.5t167 426.5zM1213 700q-62 -290 -194 -481q-182 -260 -458 -260q-277 0 -348 258q-50 186 13 483q62 293 193 482q180 260 457 260
q276 0 348 -258q52 -189 -11 -484z" />
    <glyph glyph-name="one" unicode="1" 
d="M1043 1442l-307 -1442h-192l218 1024h-336l30 143q184 0 268 47q98 56 176 228h143z" />
    <glyph glyph-name="two" unicode="2" 
d="M467 926h-180q65 305 282 432q143 84 328 84q192 0 296 -117t62 -313q-37 -174 -176 -295q-94 -84 -312 -189l-168 -82q-142 -69 -227 -157q-58 -62 -77 -117h782l-37 -172h-987q45 211 172 356q103 119 290 217l211 111q161 80 219 129q93 80 120 207q21 100 -28 172
q-59 86 -204 86q-137 0 -229 -84q-100 -92 -137 -268z" />
    <glyph glyph-name="three" unicode="3" 
d="M599 664l33 155l93 -4q117 0 200 51q99 62 126 187q17 84 -21 143q-55 82 -198 82q-166 0 -258 -117q-62 -76 -86 -190h-176q41 192 157 313q152 158 406 158q207 0 304 -105.5t61 -275.5q-26 -125 -105 -207q-63 -66 -141 -88q103 -39 145 -115q48 -88 19 -225
q-41 -195 -188 -322q-171 -145 -427 -145q-75 0 -137.5 16.5t-114.5 49.5q-100 59 -128.5 170.5t0.5 246.5h188q-29 -133 7 -209q52 -110 233 -110q139 0 241.5 78t128.5 200q34 160 -73 224q-71 43 -206 43z" />
    <glyph glyph-name="four" unicode="4" 
d="M1148 352h-213l-75 -352h-180l75 352h-627l37 176l854 914h148l-199 -934h213zM325 508h463l139 651z" />
    <glyph glyph-name="five" unicode="5" 
d="M627 1233l-145 -393q61 39 125 61q82 29 172 29q189 0 299 -119q119 -129 74 -344q-39 -182 -157 -313q-176 -195 -471 -195q-174 0 -273 78q-131 102 -109 323h188q-13 -122 55 -181.5t198 -59.5q137 0 240 94t132 233q33 152 -40 236t-212 84q-158 0 -294 -135l-155 8
l275 770h745l-37 -176h-610z" />
    <glyph glyph-name="six" unicode="6" 
d="M1256 1057h-176q1 102 -43 157q-49 64 -160 64q-184 0 -321 -209q-95 -145 -133 -324l5 -4q55 72 136 117q107 60 240 60q166 0 270 -99q134 -125 84 -356q-23 -111 -73 -197t-136 -161.5t-159 -106.5q-95 -39 -239 -39q-98 0 -178 45q-101 55 -148 168q-42 96 -40.5 218
t35.5 282q63 299 211 502q197 268 485 268q156 0 255 -82q127 -105 85 -303zM384 442q-27 -127 26 -217q60 -102 209 -102q127 0 224.5 92t129.5 240q24 116 -20 198q-56 105 -207 105q-146 0 -239 -88t-123 -228z" />
    <glyph glyph-name="seven" unicode="7" 
d="M339 1233l37 176h995l-33 -156q-112 -98 -244 -247q-181 -205 -323 -428q-181 -285 -293 -578h-196q99 293 344 645q235 336 504 588h-791z" />
    <glyph glyph-name="eight" unicode="8" 
d="M1234 1069q-28 -133 -114 -215q-52 -51 -136 -88q123 -55 159 -164q27 -82 5 -184q-41 -193 -182 -318q-161 -141 -402 -141q-86 0 -158 21q-101 28 -167 94q-80 73 -89 186q-5 62 15 154q27 129 109 217t211 135q-181 72 -138 278q31 146 144 254q150 144 379 144
q220 0 314 -123q81 -105 50 -250zM712 676q-144 0 -243 -82q-89 -74 -112 -184q-24 -111 19 -187q59 -100 227 -100q123 0 205 51q111 70 144 223q29 138 -40 208.5t-200 70.5zM740 831q115 0 201 68t107 166q17 80 -26 137q-58 76 -199 76q-129 0 -206 -76
q-59 -59 -79 -149q-21 -99 39.5 -160.5t162.5 -61.5z" />
    <glyph glyph-name="nine" unicode="9" 
d="M643 483q-203 0 -302.5 124t-53.5 339q44 209 190 346q159 150 378 150q301 0 372 -246q46 -160 -10 -422q-31 -145 -84 -280q-90 -228 -216 -359q-168 -176 -394 -176q-227 0 -312 141q-65 109 -35 248h181q-24 -110 30 -173.5t164 -63.5q148 0 256.5 128t202.5 412
l-3 4q-56 -80 -158 -126t-206 -46zM701 643q103 0 186 57q123 84 163 271q29 135 -22 215q-59 92 -204 92q-127 0 -221.5 -88t-126.5 -236q-38 -182 47 -258q57 -53 178 -53z" />
    <glyph glyph-name="colon" unicode=":" horiz-adv-x="602" 
d="M439 217l-46 -217h-213l46 217h213zM618 1057l-46 -217h-213l46 217h213z" />
    <glyph glyph-name="semicolon" unicode=";" horiz-adv-x="602" 
d="M180 0l47 217h213l-43 -201q-38 -178 -145 -260q-59 -45 -136 -59l20 94q60 6 101 70q30 49 49 139h-106zM572 840h-213l46 217h213z" />
    <glyph glyph-name="less" unicode="&#x3c;" horiz-adv-x="1269" 
d="M1137 188l-34 -163l-910 421l31 144l1089 426l-35 -164l-868 -332z" />
    <glyph glyph-name="equal" unicode="=" horiz-adv-x="1269" 
d="M1287 799l-31 -148h-1036l31 148h1036zM1199 385l-31 -147h-1036l31 147h1036z" />
    <glyph glyph-name="greater" unicode="&#x3e;" horiz-adv-x="1269" 
d="M279 852l35 164l908 -426l-31 -144l-1088 -421l35 163l869 332z" />
    <glyph glyph-name="question" unicode="?" 
d="M509 1012h-180q35 166 96 250q52 71 150 135q145 94 315 94q182 0 281 -102q108 -111 68 -299q-21 -99 -80 -170q-47 -60 -186 -170q-101 -82 -132 -113q-91 -92 -123 -240v-20h-180q42 196 131 297q35 41 150 138t140 122q68 67 89 168q18 84 -18 147q-48 86 -177 86
q-133 0 -221.5 -80.5t-122.5 -242.5zM695 209l-44 -209h-197l44 209h197z" />
    <glyph glyph-name="at" unicode="@" horiz-adv-x="1509" 
d="M1455 836q16 77 -21 132.5t-107 55.5q-131 0 -254 -135q-112 -123 -141 -262q-19 -90 16 -145.5t113 -55.5q123 0 249 143q116 131 145 267zM1555 1012l68 127h139l-211 -420q-108 -215 -115 -248q-13 -57 32 -57q104 0 227 139t157 303q51 240 -83.5 384t-376.5 144
q-270 0 -487 -190t-276 -465q-57 -272 87.5 -455.5t416.5 -183.5q144 0 289 62.5t256 171.5h139q-138 -170 -328.5 -267.5t-387.5 -97.5q-329 0 -507.5 226.5t-108.5 555.5q68 320 341.5 545t592.5 225q293 0 460.5 -181t108.5 -458q-55 -256 -270 -436q-186 -157 -344 -157
q-57 0 -87 32.5t-16 98.5l-5 -4q-65 -54 -130 -87q-79 -40 -143 -40q-131 0 -196.5 96t-37.5 231q47 221 211 387q177 178 384 178q76 0 127.5 -38.5t73.5 -120.5z" />
    <glyph glyph-name="A" unicode="A" horiz-adv-x="1454" 
d="M1069 430h-590l-246 -430h-205l865 1470h225l221 -1470h-217zM579 606h455l-81 647z" />
    <glyph glyph-name="B" unicode="B" horiz-adv-x="1454" 
d="M629 1303l-97 -455h356q152 0 236 51q94 57 122 186q23 109 -33 160q-64 58 -224 58h-360zM151 0l312 1470h647q197 0 289 -108q85 -100 51 -260q-19 -92 -71 -162q-69 -94 -191 -145q106 -52 147 -101q78 -96 43 -260q-39 -186 -192 -305q-165 -129 -400 -129h-635z
M498 688l-109 -516h422q153 0 247 70.5t120 195.5q30 142 -68 203q-74 47 -223 47h-389z" />
    <glyph glyph-name="C" unicode="C" horiz-adv-x="1568" 
d="M1598 1028h-192q2 172 -119 250q-89 57 -226 57q-211 0 -372 -145q-175 -158 -235 -440q-60 -281 14 -435q85 -176 343 -176q133 0 249 72q163 102 259 330h193q-101 -279 -304 -430.5t-463 -151.5q-279 0 -419 180q-162 211 -78 606q73 342 303.5 554t547.5 212
q266 0 400 -149q118 -131 99 -334z" />
    <glyph glyph-name="D" unicode="D" horiz-adv-x="1568" 
d="M167 0l312 1470h594q285 0 410 -195.5t57 -516.5q-64 -301 -238 -502q-220 -256 -549 -256h-586zM641 1303l-240 -1131h385q196 0 342.5 148.5t204.5 424.5q58 273 -27.5 415.5t-292.5 142.5h-372z" />
    <glyph glyph-name="E" unicode="E" horiz-adv-x="1454" 
d="M1298 176l-37 -176h-1085l312 1470h1073l-37 -176h-872l-96 -450h803l-37 -176h-803l-105 -492h884z" />
    <glyph glyph-name="F" unicode="F" horiz-adv-x="1314" 
d="M519 668l-142 -668h-201l312 1470h1020l-37 -176h-819l-96 -450h721l-37 -176h-721z" />
    <glyph glyph-name="G" unicode="G" horiz-adv-x="1683" 
d="M930 618l35 168h643l-167 -786h-126l-9 193q-95 -105 -240.5 -169.5t-292.5 -64.5q-172 0 -281 55q-76 39 -134 113q-117 139 -129 332q-8 119 29 291q63 299 277 514q244 247 580 247q228 0 375 -118q166 -133 145 -369h-193q-4 174 -129 252q-93 59 -243 59
q-209 0 -375 -153q-175 -164 -235 -445q-56 -264 10 -415q82 -191 352 -191q78 0 141 14q95 23 178 80q107 72 168 174q52 88 80 219h-459z" />
    <glyph glyph-name="H" unicode="H" horiz-adv-x="1568" 
d="M1310 864l128 606h196l-312 -1470h-196l146 688h-770l-146 -688h-197l312 1470h197l-128 -606h770z" />
    <glyph glyph-name="I" unicode="I" horiz-adv-x="602" 
d="M697 1470l-312 -1470h-197l312 1470h197z" />
    <glyph glyph-name="J" unicode="J" horiz-adv-x="1085" 
d="M137 475h184l-22 -102q-27 -127 18 -184.5t152 -57.5q131 0 204 72q62 61 87 182l231 1085h197l-228 -1073q-50 -235 -212 -348q-127 -90 -303 -90q-230 0 -310 133q-59 98 -30 236z" />
    <glyph glyph-name="K" unicode="K" horiz-adv-x="1454" 
d="M466 516l-110 -516h-201l312 1470h201l-151 -712l863 712h275l-741 -593l445 -877h-258l-359 737z" />
    <glyph glyph-name="L" unicode="L" 
d="M668 1470l-275 -1294h745l-37 -176h-946l312 1470h201z" />
    <glyph glyph-name="M" unicode="M" horiz-adv-x="1798" 
d="M1560 0h-192l263 1237l-677 -1237h-197l-151 1233l-262 -1233h-193l312 1470h283l159 -1241l684 1241h283z" />
    <glyph glyph-name="N" unicode="N" horiz-adv-x="1568" 
d="M1442 1470h192l-312 -1470h-221l-496 1188l-257 -1188h-193l312 1470h238l481 -1187z" />
    <glyph glyph-name="O" unicode="O" horiz-adv-x="1572" 
d="M1480 737q56 264 -44 428q-106 170 -341 170q-234 0 -409 -168t-230 -430q-57 -266 45 -432t340 -166q235 0 409 167t230 431zM1685 737q-63 -297 -260 -508q-250 -270 -623 -270q-371 0 -506 268q-108 215 -45 510q62 293 259 504q251 270 622 270q370 0 506 -268
q109 -213 47 -506z" />
    <glyph glyph-name="P" unicode="P" horiz-adv-x="1454" 
d="M654 1303l-109 -512h393q145 0 229 57q96 65 127 209q28 131 -44 192q-60 54 -195 54h-401zM509 623l-132 -623h-201l312 1470h664q198 0 291.5 -115.5t55.5 -297.5q-38 -176 -160 -293q-146 -141 -367 -141h-463z" />
    <glyph glyph-name="Q" unicode="Q" horiz-adv-x="1683" 
d="M923 303l130 123l153 -143q94 75 162.5 195t98.5 259q56 264 -44 428q-106 170 -341 170q-234 0 -409 -168t-230 -430q-57 -266 45 -432t340 -166q121 0 226 45zM1503 4l-127 -119l-188 176q-170 -102 -399 -102q-371 0 -506 268q-108 215 -45 510q62 293 259 504
q251 270 622 270q370 0 506 -268q109 -213 47 -506q-34 -157 -112 -299q-90 -166 -224 -278z" />
    <glyph glyph-name="R" unicode="R" horiz-adv-x="1568" 
d="M515 631l-134 -631h-201l312 1470h680q209 0 316 -79q130 -99 84 -314q-31 -147 -115 -237q-57 -62 -165 -115q81 -39 105 -76q42 -65 13 -203l-45 -266q-13 -63 -5.5 -91t48.5 -56l-7 -33h-242q-6 55 10.5 178t30.5 191q33 151 -29 211q-52 51 -177 51h-479zM658 1303
l-106 -500h458q136 0 214 45q107 61 139 209q31 147 -50 207q-53 39 -160 39h-495z" />
    <glyph glyph-name="S" unicode="S" horiz-adv-x="1454" 
d="M1449 1040h-184q34 158 -71 236q-84 63 -229 63q-136 0 -225 -43q-134 -63 -166 -215q-18 -84 25 -131q32 -35 108 -53l401 -98q145 -37 208 -125q74 -103 39 -268q-50 -238 -267 -355q-172 -92 -401 -92q-182 0 -290 49q-66 29 -126 94q-68 78 -80 169t12 204h184
q-39 -182 73 -272q90 -72 260 -72q196 0 315 76q99 63 123 174q24 113 -28 163t-228 95l-289 70q-114 30 -172 86q-101 94 -65 262q40 190 183 313q165 141 417 141q338 0 442 -174q70 -116 31 -297z" />
    <glyph glyph-name="T" unicode="T" horiz-adv-x="1314" 
d="M303 1294l37 176h1196l-37 -176h-500l-275 -1294h-196l275 1294h-500z" />
    <glyph glyph-name="U" unicode="U" horiz-adv-x="1478" 
d="M1421 1470h197l-202 -954q-52 -242 -227 -391q-193 -166 -482 -166q-280 0 -397 162q-103 143 -55 371l208 978h197l-196 -925q-47 -219 49 -322q79 -84 236 -84q166 0 282 80q146 103 193 322z" />
    <glyph glyph-name="V" unicode="V" horiz-adv-x="1454" 
d="M1413 1470h225l-848 -1470h-213l-225 1470h221l156 -1253z" />
    <glyph glyph-name="W" unicode="W" horiz-adv-x="2027" 
d="M626 0h-209l-73 1470h217l21 -1196l585 1196h217l78 -1196l533 1196h217l-697 -1470h-209l-77 1221z" />
    <glyph glyph-name="X" unicode="X" horiz-adv-x="1454" 
d="M970 754l356 -754h-246l-264 606l-538 -606h-238l684 754l-339 716h250l253 -561l492 561h238z" />
    <glyph glyph-name="Y" unicode="Y" horiz-adv-x="1454" 
d="M908 594l-126 -594h-197l126 594l-371 876h233l272 -704l572 704h234z" />
    <glyph glyph-name="Z" unicode="Z" horiz-adv-x="1314" 
d="M1241 176l-37 -176h-1155l36 168l1140 1126h-835l37 176h1089l-36 -172l-1144 -1122h905z" />
    <glyph glyph-name="bracketleft" unicode="[" horiz-adv-x="602" 
d="M575 1335l-339 -1593h221l-30 -143h-381l400 1880h381l-31 -144h-221z" />
    <glyph glyph-name="backslash" unicode="\" horiz-adv-x="602" 
d="M491 -41l-174 1552h139l174 -1552h-139z" />
    <glyph glyph-name="bracketright" unicode="]" horiz-adv-x="602" 
d="M223 -258l339 1593h-221l31 144h385l-400 -1880h-385l30 143h221z" />
    <glyph glyph-name="asciicircum" unicode="^" horiz-adv-x="1015" 
d="M1107 541h-160l-198 704l-502 -704h-160l622 868h148z" />
    <glyph glyph-name="underscore" unicode="_" 
d="M1084 -258h-1139l22 102h1139z" />
    <glyph glyph-name="grave" unicode="`" horiz-adv-x="737" 
d="M552 1217l-205 286h221l124 -286h-140z" />
    <glyph glyph-name="a" unicode="a" horiz-adv-x="1175" 
d="M453 745h-168q39 185 181 275q131 82 338 82q131 0 219 -45q152 -76 114 -254l-131 -615q-13 -65 48 -65l59 8l-28 -131l-51 -13t-52 -7q-108 0 -142 51q-27 39 -11 112q-88 -75 -165 -114q-125 -62 -262 -62q-148 0 -223.5 86t-45.5 226q23 108 90 186q109 125 309 149
l303 37q44 4 68 25q38 31 53 102q37 176 -213 176q-133 0 -210 -73q-46 -45 -80 -136zM866 373l37 176q-27 -21 -87.5 -35t-206.5 -32.5t-206.5 -61.5t-75.5 -113q-20 -92 16.5 -140t136.5 -48q131 0 247 73.5t139 180.5z" />
    <glyph glyph-name="b" unicode="b" 
d="M290 0h-172l312 1470h180l-113 -532q156 164 351 164q206 0 297 -154q86 -145 36 -379q-50 -235 -182 -397q-169 -205 -417 -205q-123 0 -190 60q-42 36 -69 108zM987 541q34 159 12 250q-38 151 -218 151q-174 0 -278 -162q-70 -108 -109 -293q-41 -190 43 -286
q64 -74 175 -74q143 0 239 112.5t136 301.5z" />
    <glyph glyph-name="c" unicode="c" horiz-adv-x="1085" 
d="M1131 713h-177q7 108 -44 168.5t-162 60.5q-151 0 -256 -129q-89 -111 -124 -276q-37 -175 -5 -275q42 -135 212 -135q91 0 177 67.5t131 186.5h177q-53 -162 -166 -270q-150 -144 -361 -144q-221 0 -318 150.5t-46 390.5q57 266 213 422q171 172 429 172q193 0 273 -125
q66 -103 47 -264z" />
    <glyph glyph-name="d" unicode="d" 
d="M1335 1470l-312 -1470h-172l31 147q-76 -98 -175 -143q-80 -37 -170 -37q-248 0 -330 203q-64 160 -13 399q50 234 199.5 383.5t359.5 149.5q127 0 202 -66q38 -32 80 -114l6 12l114 536h180zM372 541q-39 -185 11.5 -299.5t191.5 -114.5q111 0 204 72q122 94 163 288
q40 185 17 291q-35 164 -207 164q-182 0 -284 -149q-62 -93 -96 -252z" />
    <glyph glyph-name="e" unicode="e" 
d="M934 336h181q-24 -62 -75 -129q-77 -103 -179 -162q-63 -37 -109 -51q-84 -27 -199 -27q-221 0 -318 150.5t-46 390.5q57 266 213 422q171 172 429 172q225 0 306.5 -167t20.5 -456h-782q-36 -170 23 -261t213 -91q119 0 217 74q82 63 105 135zM406 623h598
q30 137 -21 221q-57 98 -210 98q-123 0 -231.5 -96t-135.5 -223z" />
    <glyph glyph-name="f" unicode="f" horiz-adv-x="602" 
d="M732 922h-180l-196 -922h-181l196 922h-147l32 151h147l39 184q50 234 329 234h37.5t43.5 -4l-34 -160l-73 4q-106 0 -133 -127l-28 -131h180z" />
    <glyph glyph-name="g" unicode="g" 
d="M384 541q-40 -187 9 -300.5t190 -113.5q113 0 206 72q125 96 165 288q39 183 15 291q-37 164 -209 164q-182 0 -282 -149q-60 -91 -94 -252zM1251 1073l-209 -983q-45 -211 -133 -328q-160 -213 -482 -213q-141 0 -226 52q-131 80 -115 268h180q-2 -84 51 -128t154 -44
q196 0 295 135q58 80 91 234l12 57l-6 -8q-55 -66 -129 -103q-87 -45 -189 -45q-248 0 -330 203q-64 160 -13 399q49 232 201 382.5t358 150.5q129 0 204 -66q43 -39 78 -114l36 151h172z" />
    <glyph glyph-name="h" unicode="h" 
d="M1162 729l-155 -729h-180l149 700q26 123 -4 177q-35 65 -158 65q-127 0 -221 -76q-113 -92 -153 -280l-125 -586h-180l312 1470h180l-114 -540q78 76 136 110q103 62 216 62q157 0 237 -70q105 -92 60 -303z" />
    <glyph glyph-name="i" unicode="i" horiz-adv-x="487" 
d="M547 1073l-228 -1073h-180l228 1073h180zM588 1266h-180l43 204h180z" />
    <glyph glyph-name="j" unicode="j" horiz-adv-x="487" 
d="M548 1073l-262 -1233q-23 -108 -73 -168q-85 -102 -259 -102h-29h-24q-16 4 -24 4l33 156h37q82 0 113.5 22.5t49.5 108.5l258 1212h180zM632 1470l-43 -204h-180l43 204h180z" />
    <glyph glyph-name="k" unicode="k" horiz-adv-x="1085" 
d="M737 672l291 -672h-234l-216 541l-181 -135l-86 -406h-172l312 1470h172l-181 -852l560 455h229z" />
    <glyph glyph-name="l" unicode="l" horiz-adv-x="487" 
d="M631 1470l-312 -1470h-180l312 1470h180z" />
    <glyph glyph-name="m" unicode="m" horiz-adv-x="1798" 
d="M135 0l228 1073h168l-32 -151q72 73 131 110q112 70 235 70q96 0 155.5 -38t94.5 -134q101 90 162 123q89 49 202 49q123 0 195 -66q103 -94 61 -295l-158 -741h-180l147 692q26 121 -3 180q-35 70 -145 70q-111 0 -198.5 -85t-112.5 -202l-139 -655h-180l158 741
q17 80 -7 133q-31 68 -119 68q-105 0 -192 -68q-125 -94 -166 -288l-125 -586h-180z" />
    <glyph glyph-name="n" unicode="n" 
d="M1162 729l-155 -729h-180l140 659q32 148 -2 211q-38 72 -167 72q-105 0 -192 -68q-125 -94 -166 -288l-125 -586h-180l228 1073h168l-32 -151q72 71 134 110q113 70 232 70q157 0 237 -70q105 -92 60 -303z" />
    <glyph glyph-name="o" unicode="o" horiz-adv-x="1179" 
d="M187 537q49 231 201 387q173 178 415 178q241 0 340 -178q88 -158 39 -387q-49 -228 -203 -385q-175 -181 -416 -181q-240 0 -337 179q-88 157 -39 387zM371 537q-32 -152 3 -258q50 -152 222 -152q170 0 283 149q83 109 115 261q32 151 -2 258q-50 151 -222 151
q-170 0 -284 -149q-83 -109 -115 -260z" />
    <glyph glyph-name="p" unicode="p" 
d="M393 487q-40 -190 43 -286q65 -74 176 -74q143 0 238.5 112.5t136.5 301.5q33 159 12 250q-38 151 -218 151q-174 0 -279 -162q-70 -108 -109 -293zM27 -426l319 1499h172l-32 -151q73 77 127 112q108 68 235 68q206 0 296 -154q86 -145 36 -379q-49 -235 -182 -397
q-168 -205 -416 -205q-102 0 -164.5 40t-91.5 108l-119 -541h-180z" />
    <glyph glyph-name="q" unicode="q" 
d="M1239 1073l-319 -1499h-180l115 541q-55 -66 -129 -103q-87 -45 -189 -45q-248 0 -330 203q-64 160 -13 399q50 234 199.5 383.5t359.5 149.5q127 0 202 -66q38 -32 80 -114l36 151h168zM942 487q40 185 17 291q-35 164 -207 164q-182 0 -284 -149q-62 -93 -96 -252
q-39 -185 11.5 -299.5t191.5 -114.5q111 0 204 72q122 94 163 288z" />
    <glyph glyph-name="r" unicode="r" horiz-adv-x="737" 
d="M471 623l-132 -623h-180l228 1073h168l-38 -180q82 100 163 151q90 58 188 58q33 0 44 -4l-40 -189h-65q-123 0 -216.5 -82t-119.5 -204z" />
    <glyph glyph-name="s" unicode="s" horiz-adv-x="1085" 
d="M1080 766h-176q15 72 -17 115q-50 65 -199 65q-98 0 -164.5 -42t-80.5 -109q-13 -62 26 -90q30 -23 141 -54l170 -45q156 -39 209.5 -104.5t29.5 -177.5q-35 -164 -173.5 -260.5t-324.5 -96.5q-281 0 -361 139q-53 91 -22 238h176q-25 -117 44 -170q62 -47 193 -47
q106 0 180 39q84 45 102 129q13 61 -25 92t-155 64l-199 49q-112 30 -160 88q-53 65 -30 174q35 166 178 258q125 82 299 82q191 0 280.5 -94.5t58.5 -241.5z" />
    <glyph glyph-name="t" unicode="t" horiz-adv-x="602" 
d="M724 922h-172l-148 -697q-12 -53 24 -71q19 -11 64 -11h66l-30 -143l-139 -16q-125 0 -162 67q-30 53 -6 166l150 705h-147l32 151h147l64 299h181l-64 -299h172z" />
    <glyph glyph-name="u" unicode="u" 
d="M1003 0h-172l34 156l-4 4q-77 -97 -167.5 -145t-213.5 -48q-139 0 -216 70q-98 88 -60 266l164 770h180l-152 -713q-26 -124 21 -182q40 -51 138 -51q154 0 258 119q83 96 113 237l126 590h180z" />
    <glyph glyph-name="v" unicode="v" horiz-adv-x="1085" 
d="M1039 1073h196l-633 -1073h-193l-165 1073h209l93 -872z" />
    <glyph glyph-name="w" unicode="w" horiz-adv-x="1568" 
d="M524 0h-185l-83 1073h197l25 -844l392 844h201l30 -844l400 844h180l-539 -1073h-188l-40 831z" />
    <glyph glyph-name="x" unicode="x" horiz-adv-x="1085" 
d="M744 553l259 -553h-229l-181 406l-344 -406h-225l495 553l-251 520h234l166 -377l329 377h222z" />
    <glyph glyph-name="y" unicode="y" horiz-adv-x="1085" 
d="M1030 1073h201l-298.5 -522l-310.5 -531q-198 -325 -272.5 -391.5t-246.5 -66.5q-16 0 -27 2q-28 10 -44 14l35 164q16 -6 43.5 -13.5t58.5 -7.5q67 0 104.5 39t141.5 211l-163 1102h205l96 -872z" />
    <glyph glyph-name="z" unicode="z" horiz-adv-x="1085" 
d="M1139 926l-804 -774h659l-32 -152h-897l30 143l809 779h-594l32 151h828z" />
    <glyph glyph-name="braceleft" unicode="{" horiz-adv-x="737" 
d="M188 479l26 123q70 0 135 75t89 187l75 353q25 120 102 191t163 71h135l-28 -131h-90q-49 0 -81.5 -45.5t-48.5 -122.5l-74 -349q-28 -131 -120 -215q-66 -61 -122 -71q36 -15 64 -45q88 -90 53 -254l-73 -348q-16 -74 -3.5 -121t61.5 -47h90l-28 -131h-135
q-84 0 -130 67q-49 74 -23 195l74 352q25 117 -7 191.5t-104 74.5z" />
    <glyph glyph-name="bar" unicode="|" horiz-adv-x="577" 
d="M183 -41l330 1552h152l-330 -1552h-152z" />
    <glyph glyph-name="braceright" unicode="}" horiz-adv-x="737" 
d="M726 602l-26 -123q-72 0 -134 -74.5t-86 -191.5l-75 -352q-26 -121 -103.5 -191.5t-161.5 -70.5h-139l28 131h90q51 0 82 46t48 122l74 348q29 139 121 223q58 53 122 72q-33 10 -65 43q-88 90 -54 247l74 349q16 77 7 116q-14 52 -65 52h-90l28 131h139q84 0 131 -71
t22 -191l-75 -353q-25 -116 4.5 -189t103.5 -73z" />
    <glyph glyph-name="asciitilde" unicode="~" horiz-adv-x="1269" 
d="M1140 668l50 -115q-68 -80 -143 -128t-153 -48q-39 0 -80 13t-114 56q-53 35 -93 50q-56 20 -125 20q-62 0 -117 -45q-44 -37 -86 -102l-50 114q58 80 118 121q79 55 173 55q49 0 103 -17t113 -48q71 -33 120 -53.5t73 -20.5q53 0 113 47q27 23 98 101z" />
    <glyph glyph-name="dieresis" unicode="&#xa8;" horiz-adv-x="1024" 
 />
    <glyph glyph-name="copyright" unicode="&#xa9;" horiz-adv-x="1642" 
d="M797 -41q-323 0 -507 223.5t-114 554.5q70 330 348 552t603 222q322 0 505 -222t113 -552q-70 -331 -347 -554.5t-601 -223.5zM332 737q-59 -278 84 -462.5t409 -184.5q267 0 486 184.5t278 462.5q59 275 -82 459t-408 184q-266 0 -487 -184t-280 -459zM1203 594h139
q-63 -152 -187 -242t-265 -90q-207 0 -304 136.5t-53 342.5q44 205 195 338t356 133q154 0 242 -81.5t76 -237.5h-135q-2 84 -57.5 134t-153.5 50q-141 0 -237.5 -92t-129.5 -244q-31 -145 30 -244.5t200 -99.5q92 0 170.5 55.5t113.5 141.5z" />
    <glyph glyph-name="registered" unicode="&#xae;" horiz-adv-x="1642" 
d="M797 -41q-323 0 -507 223.5t-114 554.5q70 330 348 552t603 222q322 0 505 -222t113 -552q-70 -331 -347 -554.5t-601 -223.5zM332 737q-59 -278 84 -462.5t409 -184.5q267 0 486 184.5t278 462.5q59 275 -82 459t-408 184q-266 0 -487 -184t-280 -459zM786 676l-81 -385
h-136l189 893h340q162 0 226.5 -60.5t35.5 -193.5q-24 -113 -99 -173.5t-183 -72.5l171 -393h-151l-157 385h-155zM811 791h163q138 0 185.5 35.5t63.5 111.5t-32.5 103.5t-136.5 27.5h-184z" />
    <glyph glyph-name="acute" unicode="&#xb4;" horiz-adv-x="1024" 
 />
    <glyph glyph-name="paragraph" unicode="&#xb6;" horiz-adv-x="1024" 
d="M1234 1435l-15 -70h-127l-290 -1365h-82l290 1365h-166l-290 -1365h-84l157 738q-172 8 -253.5 102.5t-49.5 245.5q33 157 161 253t306 96h443z" />
    <glyph glyph-name="onequarter" unicode="&#xbc;" horiz-adv-x="1798" 
d="M901 193l26 122l537 549h132l-117 -553h135l-25 -118h-135l-41 -193h-132l41 193h-421zM1347 311l82 385l-376 -385h294zM1645 1442l-1220 -1483h-119l1220 1483h119zM624 1188h-221l19 90q123 0 174 27q62 32 111 137h110l-183 -864h-139z" />
    <glyph glyph-name="onehalf" unicode="&#xbd;" horiz-adv-x="1798" 
d="M1572 1442l-1221 -1483h-118l1220 1483h119zM562 1184h-221l20 94q123 0 174 27q62 32 111 137h115l-183 -864h-144zM1203 557h-123q39 182 178 258q90 49 211 49q131 0 200.5 -69.5t44.5 -188.5q-23 -106 -110 -178q-57 -47 -198 -113l-100 -45q-77 -39 -123 -73
q-33 -25 -71 -70h500l-27 -127h-655q27 127 106 215q67 74 180 129l137 66q109 53 144 79q59 48 74 121l2 8q11 52 -19 84q-38 43 -126 43q-111 0 -172 -75q-39 -47 -53 -113z" />
    <glyph glyph-name="threequarters" unicode="&#xbe;" horiz-adv-x="1798" 
d="M1012 193l26 122l538 549h132l-118 -553h135l-25 -118h-135l-41 -193h-132l41 193h-421zM1164 311h294l82 385zM1764 1442l-1220 -1483h-115l1220 1483h115zM272 840h139q-14 -70 6 -109q31 -59 135 -59q93 0 152.5 35.5t75.5 111.5q20 94 -49 127q-43 21 -133 21h-45
l22 102h53q78 0 123 27q58 34 75 112q9 45 -11 72q-32 43 -129 43q-92 0 -145 -55q-39 -41 -54 -109h-127q25 115 104 189q100 94 268 94q133 0 196 -64.5t42 -165.5q-16 -75 -67 -125q-42 -40 -89 -51q66 -22 97.5 -72.5t14.5 -132.5q-25 -114 -121 -190q-113 -88 -283 -88
q-96 0 -163 41q-63 35 -83.5 99.5t-3.5 146.5z" />
    <glyph glyph-name="Agrave" unicode="&#xc0;" horiz-adv-x="1454" 
d="M1069 430h-590l-246 -430h-205l865 1470h225l221 -1470h-217zM579 606h455l-81 647zM957 1614l-205 291h222l118 -291h-135z" />
    <glyph glyph-name="Aacute" unicode="&#xc1;" horiz-adv-x="1454" 
d="M1069 430h-590l-246 -430h-205l865 1470h225l221 -1470h-217zM579 606h455l-81 647zM971 1614l243 291h221l-328 -291h-136z" />
    <glyph glyph-name="uni1EA2" unicode="&#x1ea2;" horiz-adv-x="1454" 
d="M1069 430h-590l-246 -430h-205l865 1470h225l221 -1470h-217zM579 606h455l-81 647zM1072 1550h-117q17 78 43.5 124t93.5 87t78 92q10 50 -12 71.5t-57 21.5q-55 0 -83.5 -31t-37.5 -76l-132 -2q24 111 108 168q72 49 160 49q78 0 130 -31q88 -51 64 -165
q-12 -54 -45 -90.5t-102.5 -79.5t-90.5 -138z" />
    <glyph glyph-name="Atilde" unicode="&#xc3;" horiz-adv-x="1454" 
d="M1069 430h-590l-246 -430h-205l865 1470h225l221 -1470h-217zM579 606h455l-81 647zM1352 1880h102q-31 -96 -99 -160.5t-154 -64.5q-45 0 -113 28l-50 17q-91 33 -120 33q-39 0 -64 -21.5t-49 -69.5h-98q35 101 92 154q66 64 167 64q35 0 67 -7.5t66 -21.5l41 -21
q23 -10 50 -17t39 -7q53 0 84 31q20 20 39 63z" />
    <glyph glyph-name="uni1EA0" unicode="&#x1ea0;" horiz-adv-x="1454" 
d="M1069 430h-590l-246 -430h-205l865 1470h225l221 -1470h-217zM579 606h455l-81 647zM699 -348h-180l44 205h180z" />
    <glyph glyph-name="Acircumflex" unicode="&#xc2;" horiz-adv-x="1454" 
d="M1069 430h-590l-246 -430h-205l865 1470h225l221 -1470h-217zM579 606h455l-81 647zM1068 1810l-176 -192h-164l267 291h189l142 -291h-163z" />
    <glyph glyph-name="uni1EA6" unicode="&#x1ea6;" horiz-adv-x="1454" 
d="M1069 430h-590l-246 -430h-205l865 1470h225l221 -1470h-217zM579 606h455l-81 647zM1331 1868l-204 291h221l119 -291h-136zM1068 1810l-176 -192h-164l267 291h189l142 -291h-163z" />
    <glyph glyph-name="uni1EA4" unicode="&#x1ea4;" horiz-adv-x="1454" 
d="M1069 430h-590l-246 -430h-205l865 1470h225l221 -1470h-217zM579 606h455l-81 647zM1754 2126l-328 -291h-136l243 291h221zM1068 1810l-176 -192h-164l267 291h189l142 -291h-163z" />
    <glyph glyph-name="uni1EA8" unicode="&#x1ea8;" horiz-adv-x="1454" 
d="M1069 430h-590l-246 -430h-205l865 1470h225l221 -1470h-217zM579 606h455l-81 647zM1068 1810l-176 -192h-164l267 291h189l142 -291h-163zM1403 1831h-117q17 78 43 124t93.5 87t78.5 92q10 50 -12.5 71.5t-57.5 21.5q-55 0 -83 -31t-37 -76l-132 -2q24 111 108 168
q71 49 159 49q78 0 131 -31q88 -51 64 -165q-12 -54 -45 -90.5t-103 -79.5t-90 -138z" />
    <glyph glyph-name="uni1EAA" unicode="&#x1eaa;" horiz-adv-x="1454" 
d="M1069 430h-590l-246 -430h-205l865 1470h225l221 -1470h-217zM579 606h455l-81 647zM1068 1810l-176 -192h-164l267 291h189l142 -291h-163zM1492 2211h102q-30 -96 -98.5 -160.5t-154.5 -64.5q-45 0 -113 28l-49 17q-91 33 -120 33q-39 0 -64 -21.5t-50 -69.5h-98
q36 101 92 154q67 64 168 64q35 0 67 -7.5t66 -21.5l40 -21q23 -10 50 -17t39 -7q53 0 85 31q20 20 38 63z" />
    <glyph glyph-name="uni1EAC" unicode="&#x1eac;" horiz-adv-x="1454" 
d="M1069 430h-590l-246 -430h-205l865 1470h225l221 -1470h-217zM579 606h455l-81 647zM699 -348h-180l44 205h180zM1068 1810l-176 -192h-164l267 291h189l142 -291h-163z" />
    <glyph glyph-name="Abreve" unicode="&#x102;" horiz-adv-x="1454" 
d="M1069 430h-590l-246 -430h-205l865 1470h225l221 -1470h-217zM579 606h455l-81 647zM1291 1839h99q-50 -145 -153 -215q-93 -63 -234 -63q-135 0 -197 67.5t-47 210.5h98q4 -31 7 -45q8 -31 21 -53q20 -31 57.5 -48.5t100.5 -17.5q107 0 172 58q38 32 76 106z" />
    <glyph glyph-name="uni1EB0" unicode="&#x1eb0;" horiz-adv-x="1454" 
d="M1069 430h-590l-246 -430h-205l865 1470h225l221 -1470h-217zM579 606h455l-81 647zM1030 1868l-204 291h221l119 -291h-136zM1291 1839h99q-50 -145 -153 -215q-93 -63 -234 -63q-135 0 -197 67.5t-47 210.5h98q4 -31 7 -45q8 -31 21 -53q20 -31 57.5 -48.5t100.5 -17.5
q107 0 172 58q38 32 76 106z" />
    <glyph glyph-name="uni1EAE" unicode="&#x1eae;" horiz-adv-x="1454" 
d="M1069 430h-590l-246 -430h-205l865 1470h225l221 -1470h-217zM579 606h455l-81 647zM1463 2126l-328 -291h-136l243 291h221zM1291 1839h99q-50 -145 -153 -215q-93 -63 -234 -63q-135 0 -197 67.5t-47 210.5h98q4 -31 7 -45q8 -31 21 -53q20 -31 57.5 -48.5t100.5 -17.5
q107 0 172 58q38 32 76 106z" />
    <glyph glyph-name="uni1EB2" unicode="&#x1eb2;" horiz-adv-x="1454" 
d="M1069 430h-590l-246 -430h-205l865 1470h225l221 -1470h-217zM579 606h455l-81 647zM1118 1811h-117q17 78 43 124t93.5 87t77.5 92q11 50 -11.5 71.5t-57.5 21.5q-55 0 -83 -31t-38 -76l-131 -2q24 111 108 168q71 49 159 49q78 0 130 -31q89 -51 64 -165
q-11 -54 -44.5 -90.5t-103 -79.5t-89.5 -138zM1291 1839h99q-50 -145 -153 -215q-93 -63 -234 -63q-135 0 -197 67.5t-47 210.5h98q4 -31 7 -45q8 -31 21 -53q20 -31 57.5 -48.5t100.5 -17.5q107 0 172 58q38 32 76 106z" />
    <glyph glyph-name="uni1EB4" unicode="&#x1eb4;" horiz-adv-x="1454" 
d="M1069 430h-590l-246 -430h-205l865 1470h225l221 -1470h-217zM579 606h455l-81 647zM1497 2141h102q-30 -96 -98.5 -160.5t-154.5 -64.5q-45 0 -113 28l-49 17q-91 33 -120 33q-39 0 -64 -21.5t-50 -69.5h-98q36 101 92 154q67 64 168 64q35 0 67 -7.5t66 -21.5l40 -21
q23 -10 50 -17t39 -7q53 0 85 31q20 20 38 63zM1291 1839h99q-50 -145 -153 -215q-93 -63 -234 -63q-135 0 -197 67.5t-47 210.5h98q4 -31 7 -45q8 -31 21 -53q20 -31 57.5 -48.5t100.5 -17.5q107 0 172 58q38 32 76 106z" />
    <glyph glyph-name="uni1EB6" unicode="&#x1eb6;" horiz-adv-x="1454" 
d="M1069 430h-590l-246 -430h-205l865 1470h225l221 -1470h-217zM579 606h455l-81 647zM699 -348h-180l44 205h180zM1291 1839h99q-50 -145 -153 -215q-93 -63 -234 -63q-135 0 -197 67.5t-47 210.5h98q4 -31 7 -45q8 -31 21 -53q20 -31 57.5 -48.5t100.5 -17.5
q107 0 172 58q38 32 76 106z" />
    <glyph glyph-name="Egrave" unicode="&#xc8;" horiz-adv-x="1454" 
d="M1298 176l-37 -176h-1085l312 1470h1073l-37 -176h-872l-96 -450h803l-37 -176h-803l-105 -492h884zM1038 1614l-204 291h221l118 -291h-135z" />
    <glyph glyph-name="Eacute" unicode="&#xc9;" horiz-adv-x="1454" 
d="M1298 176l-37 -176h-1085l312 1470h1073l-37 -176h-872l-96 -450h803l-37 -176h-803l-105 -492h884zM962 1614l242 291h221l-328 -291h-135z" />
    <glyph glyph-name="uni1EBA" unicode="&#x1eba;" horiz-adv-x="1454" 
d="M1298 176l-37 -176h-1085l312 1470h1073l-37 -176h-872l-96 -450h803l-37 -176h-803l-105 -492h884zM1072 1550h-116q17 78 43 124t93 87t78 92q10 50 -11.5 71.5t-56.5 21.5q-55 0 -83.5 -31t-37.5 -76l-132 -2q24 111 107 168q73 49 161 49q78 0 130 -31
q87 -51 63 -165q-12 -54 -45 -90.5t-102.5 -79.5t-90.5 -138z" />
    <glyph glyph-name="uni1EBC" unicode="&#x1ebc;" horiz-adv-x="1454" 
d="M1298 176l-37 -176h-1085l312 1470h1073l-37 -176h-872l-96 -450h803l-37 -176h-803l-105 -492h884zM1352 1880h103q-32 -96 -99.5 -160.5t-153.5 -64.5q-45 0 -113 28l-50 17q-92 33 -120 33q-39 0 -64 -21.5t-49 -69.5h-99q36 101 93 154q66 64 166 64q35 0 67.5 -7.5
t66.5 -21.5l41 -21q22 -10 49.5 -17t39.5 -7q53 0 84 31q20 20 38 63z" />
    <glyph glyph-name="uni1EB8" unicode="&#x1eb8;" horiz-adv-x="1454" 
d="M1298 176l-37 -176h-1085l312 1470h1073l-37 -176h-872l-96 -450h803l-37 -176h-803l-105 -492h884zM700 -348h-180l44 205h180z" />
    <glyph glyph-name="Ecircumflex" unicode="&#xca;" horiz-adv-x="1454" 
d="M1298 176l-37 -176h-1085l312 1470h1073l-37 -176h-872l-96 -450h803l-37 -176h-803l-105 -492h884zM1104 1810l-176 -192h-164l267 291h188l143 -291h-164z" />
    <glyph glyph-name="uni1EC0" unicode="&#x1ec0;" horiz-adv-x="1454" 
d="M1298 176l-37 -176h-1085l312 1470h1073l-37 -176h-872l-96 -450h803l-37 -176h-803l-105 -492h884zM1336 1835l-204 291h221l118 -291h-135zM1104 1810l-176 -192h-164l267 291h188l143 -291h-164z" />
    <glyph glyph-name="uni1EBE" unicode="&#x1ebe;" horiz-adv-x="1454" 
d="M1298 176l-37 -176h-1085l312 1470h1073l-37 -176h-872l-96 -450h803l-37 -176h-803l-105 -492h884zM1292 1845l242 291h221l-328 -291h-135zM1104 1810l-176 -192h-164l267 291h188l143 -291h-164z" />
    <glyph glyph-name="uni1EC2" unicode="&#x1ec2;" horiz-adv-x="1454" 
d="M1298 176l-37 -176h-1085l312 1470h1073l-37 -176h-872l-96 -450h803l-37 -176h-803l-105 -492h884zM1447 1801h-116q16 78 42 124t93 87t78 92q11 50 -11 71.5t-57 21.5q-55 0 -83 -31t-38 -76l-131 -2q23 111 107 168q72 49 160 49q78 0 130 -31q88 -51 63 -165
q-11 -54 -44.5 -90.5t-103 -79.5t-89.5 -138zM1104 1810l-176 -192h-164l267 291h188l143 -291h-164z" />
    <glyph glyph-name="uni1EC4" unicode="&#x1ec4;" horiz-adv-x="1454" 
d="M1298 176l-37 -176h-1085l312 1470h1073l-37 -176h-872l-96 -450h803l-37 -176h-803l-105 -492h884zM1503 2171h103q-31 -96 -98.5 -160.5t-153.5 -64.5q-45 0 -113 28l-50 17q-92 33 -120 33q-39 0 -64 -21.5t-49 -69.5h-99q36 101 93 154q66 64 166 64q35 0 67.5 -7.5
t66.5 -21.5l41 -21q21 -10 48.5 -17t39.5 -7q53 0 85 31q20 20 37 63zM1104 1810l-176 -192h-164l267 291h188l143 -291h-164z" />
    <glyph glyph-name="uni1EC6" unicode="&#x1ec6;" horiz-adv-x="1454" 
d="M1298 176l-37 -176h-1085l312 1470h1073l-37 -176h-872l-96 -450h803l-37 -176h-803l-105 -492h884zM700 -348h-180l44 205h180zM1104 1810l-176 -192h-164l267 291h188l143 -291h-164z" />
    <glyph glyph-name="Igrave" unicode="&#xcc;" horiz-adv-x="602" 
d="M697 1470l-312 -1470h-197l312 1470h197zM596 1614l-204 291h221l118 -291h-135z" />
    <glyph glyph-name="Iacute" unicode="&#xcd;" horiz-adv-x="602" 
d="M697 1470l-312 -1470h-197l312 1470h197zM531 1614l242 291h221l-328 -291h-135z" />
    <glyph glyph-name="uni1EC8" unicode="&#x1ec8;" horiz-adv-x="602" 
d="M697 1470l-312 -1470h-196l312 1470h196zM671 1550h-117q17 78 43.5 124t93 87t77.5 92q10 50 -11.5 71.5t-56.5 21.5q-55 0 -83.5 -31t-37.5 -76l-132 -2q24 111 108 168q72 49 160 49q78 0 130 -31q88 -51 64 -165q-12 -54 -45 -90.5t-102.5 -79.5t-90.5 -138z" />
    <glyph glyph-name="Itilde" unicode="&#x128;" horiz-adv-x="602" 
d="M697 1470l-312 -1470h-197l312 1470h197zM970 1880h102q-31 -96 -98.5 -160.5t-153.5 -64.5q-46 0 -113 28l-51 17q-91 33 -119 33q-39 0 -64 -21.5t-50 -69.5h-98q35 101 92 154q67 64 167 64q35 0 67 -7.5t66 -21.5l41 -21q23 -10 50 -17t40 -7q53 0 83 31q21 20 39 63
z" />
    <glyph glyph-name="uni1ECA" unicode="&#x1eca;" horiz-adv-x="602" 
d="M697 1470l-312 -1470h-197l312 1470h197zM298 -348h-180l44 205h180z" />
    <glyph glyph-name="Ograve" unicode="&#xd2;" horiz-adv-x="1572" 
d="M1480 737q56 264 -44 428q-106 170 -341 170q-234 0 -409 -168t-230 -430q-57 -266 45 -432t340 -166q235 0 409 167t230 431zM1685 737q-63 -297 -260 -508q-250 -270 -623 -270q-371 0 -506 268q-108 215 -45 510q62 293 259 504q251 270 622 270q370 0 506 -268
q109 -213 47 -506zM1128 1614l-204 291h221l118 -291h-135z" />
    <glyph glyph-name="Oacute" unicode="&#xd3;" horiz-adv-x="1572" 
d="M1480 737q56 264 -44 428q-106 170 -341 170q-234 0 -409 -168t-230 -430q-57 -266 45 -432t340 -166q235 0 409 167t230 431zM1685 737q-63 -297 -260 -508q-250 -270 -623 -270q-371 0 -506 268q-108 215 -45 510q62 293 259 504q251 270 622 270q370 0 506 -268
q109 -213 47 -506zM1003 1614l242 291h221l-328 -291h-135z" />
    <glyph glyph-name="uni1ECE" unicode="&#x1ece;" horiz-adv-x="1572" 
d="M1480 737q56 264 -44 428q-106 170 -341 170q-234 0 -409 -168t-230 -430q-57 -266 45 -432t340 -166q235 0 409 167t230 431zM1685 737q-63 -297 -260 -508q-250 -270 -623 -270q-371 0 -506 268q-108 215 -45 510q62 293 259 504q251 270 622 270q370 0 506 -268
q109 -213 47 -506zM1203 1580h-117q16 78 42.5 124t93.5 87t78 92q11 50 -11 71.5t-57 21.5q-55 0 -83 -31t-38 -76l-132 -2q23 111 108 168q72 49 160 49q77 0 130 -31q88 -51 63 -165q-11 -54 -44.5 -90.5t-103 -79.5t-89.5 -138z" />
    <glyph glyph-name="Otilde" unicode="&#xd5;" horiz-adv-x="1572" 
d="M1480 737q56 264 -44 428q-106 170 -341 170q-234 0 -409 -168t-230 -430q-57 -266 45 -432t340 -166q235 0 409 167t230 431zM1685 737q-63 -297 -260 -508q-250 -270 -623 -270q-371 0 -506 268q-108 215 -45 510q62 293 259 504q251 270 622 270q370 0 506 -268
q109 -213 47 -506zM1457 1880h102q-31 -96 -99 -160.5t-154 -64.5q-45 0 -113 28l-50 17q-91 33 -120 33q-39 0 -64 -21.5t-49 -69.5h-98q36 101 92 154q66 64 167 64q34 0 66.5 -7.5t66.5 -21.5l41 -21q23 -10 50 -17t39 -7q53 0 84 31q21 20 39 63z" />
    <glyph glyph-name="uni1ECC" unicode="&#x1ecc;" horiz-adv-x="1572" 
d="M1480 737q56 264 -44 428q-106 170 -341 170q-234 0 -409 -168t-230 -430q-57 -266 45 -432t340 -166q235 0 409 167t230 431zM1685 737q-63 -297 -260 -508q-250 -270 -623 -270q-371 0 -506 268q-108 215 -45 510q62 293 259 504q251 270 622 270q370 0 506 -268
q109 -213 47 -506zM827 -348h-180l44 205h180z" />
    <glyph glyph-name="Ocircumflex" unicode="&#xd4;" horiz-adv-x="1572" 
d="M1480 737q56 264 -44 428q-106 170 -341 170q-234 0 -409 -168t-230 -430q-57 -266 45 -432t340 -166q235 0 409 167t230 431zM1685 737q-63 -297 -260 -508q-250 -270 -623 -270q-371 0 -506 268q-108 215 -45 510q62 293 259 504q251 270 622 270q370 0 506 -268
q109 -213 47 -506zM1196 1810l-176 -192h-164l267 291h188l143 -291h-164z" />
    <glyph glyph-name="uni1ED2" unicode="&#x1ed2;" horiz-adv-x="1572" 
d="M1480 737q56 264 -44 428q-106 170 -341 170q-234 0 -409 -168t-230 -430q-57 -266 45 -432t340 -166q235 0 409 167t230 431zM1685 737q-63 -297 -260 -508q-250 -270 -623 -270q-371 0 -506 268q-108 215 -45 510q62 293 259 504q251 270 622 270q370 0 506 -268
q109 -213 47 -506zM1422 1815l-204 291h221l118 -291h-135zM1196 1810l-176 -192h-164l267 291h188l143 -291h-164z" />
    <glyph glyph-name="uni1ED0" unicode="&#x1ed0;" horiz-adv-x="1572" 
d="M1480 737q56 264 -44 428q-106 170 -341 170q-234 0 -409 -168t-230 -430q-57 -266 45 -432t340 -166q235 0 409 167t230 431zM1685 737q-63 -297 -260 -508q-250 -270 -623 -270q-371 0 -506 268q-108 215 -45 510q62 293 259 504q251 270 622 270q370 0 506 -268
q109 -213 47 -506zM1381 1835l242 291h221l-328 -291h-135zM1196 1810l-176 -192h-164l267 291h188l143 -291h-164z" />
    <glyph glyph-name="uni1ED4" unicode="&#x1ed4;" horiz-adv-x="1572" 
d="M1480 737q56 264 -44 428q-106 170 -341 170q-234 0 -409 -168t-230 -430q-57 -266 45 -432t340 -166q235 0 409 167t230 431zM1685 737q-63 -297 -260 -508q-250 -270 -623 -270q-371 0 -506 268q-108 215 -45 510q62 293 259 504q251 270 622 270q370 0 506 -268
q109 -213 47 -506zM1513 1811h-117q17 78 43 124t93.5 87t77.5 92q11 50 -11 71.5t-57 21.5q-55 0 -83 -31t-38 -76l-132 -2q24 111 108 168q72 49 160 49q77 0 131 -31q87 -51 62 -165q-11 -54 -44.5 -90.5t-103 -79.5t-89.5 -138zM1196 1810l-176 -192h-164l267 291h188
l143 -291h-164z" />
    <glyph glyph-name="uni1ED6" unicode="&#x1ed6;" horiz-adv-x="1572" 
d="M1480 737q56 264 -44 428q-106 170 -341 170q-234 0 -409 -168t-230 -430q-57 -266 45 -432t340 -166q235 0 409 167t230 431zM1685 737q-63 -297 -260 -508q-250 -270 -623 -270q-371 0 -506 268q-108 215 -45 510q62 293 259 504q251 270 622 270q370 0 506 -268
q109 -213 47 -506zM1594 2151h102q-30 -96 -98.5 -160.5t-154.5 -64.5q-45 0 -113 28l-49 17q-91 33 -120 33q-39 0 -64 -21.5t-49 -69.5h-98q35 101 91 154q67 64 168 64q34 0 66.5 -7.5t66.5 -21.5l40 -21q23 -10 50 -17t39 -7q53 0 85 31q20 20 38 63zM1196 1810
l-176 -192h-164l267 291h188l143 -291h-164z" />
    <glyph glyph-name="uni1ED8" unicode="&#x1ed8;" horiz-adv-x="1572" 
d="M1480 737q56 264 -44 428q-106 170 -341 170q-234 0 -409 -168t-230 -430q-57 -266 45 -432t340 -166q235 0 409 167t230 431zM1685 737q-63 -297 -260 -508q-250 -270 -623 -270q-371 0 -506 268q-108 215 -45 510q62 293 259 504q251 270 622 270q370 0 506 -268
q109 -213 47 -506zM827 -348h-180l44 205h180zM1196 1810l-176 -192h-164l267 291h188l143 -291h-164z" />
    <glyph glyph-name="Ugrave" unicode="&#xd9;" horiz-adv-x="1478" 
d="M1421 1470h197l-202 -954q-52 -242 -227 -391q-193 -166 -482 -166q-280 0 -397 162q-103 143 -55 371l208 978h197l-196 -925q-47 -219 49 -322q79 -84 236 -84q166 0 282 80q146 103 193 322zM1048 1614l-204 291h221l118 -291h-135z" />
    <glyph glyph-name="Uacute" unicode="&#xda;" horiz-adv-x="1478" 
d="M1421 1470h197l-202 -954q-52 -242 -227 -391q-193 -166 -482 -166q-280 0 -397 162q-103 143 -55 371l208 978h197l-196 -925q-47 -219 49 -322q79 -84 236 -84q166 0 282 80q146 103 193 322zM983 1614l242 291h221l-328 -291h-135z" />
    <glyph glyph-name="uni1EE6" unicode="&#x1ee6;" horiz-adv-x="1478" 
d="M1421 1470h197l-202 -954q-52 -242 -227 -391q-193 -166 -482 -166q-280 0 -397 162q-103 143 -55 371l208 978h197l-196 -925q-47 -219 49 -322q79 -84 236 -84q166 0 282 80q146 103 193 322zM1133 1580h-117q16 78 42.5 124t93.5 87t78 92q11 50 -11.5 71.5
t-57.5 21.5q-55 0 -83 -31t-38 -76l-131 -2q23 111 107 168q72 49 160 49q78 0 131 -31q87 -51 63 -165q-11 -54 -44.5 -90.5t-103 -79.5t-89.5 -138z" />
    <glyph glyph-name="Utilde" unicode="&#x168;" horiz-adv-x="1478" 
d="M1421 1470h197l-202 -954q-52 -242 -227 -391q-193 -166 -482 -166q-280 0 -397 162q-103 143 -55 371l208 978h197l-196 -925q-47 -219 49 -322q79 -84 236 -84q166 0 282 80q146 103 193 322zM1385 1880h103q-31 -96 -98.5 -160.5t-153.5 -64.5q-45 0 -113 28l-50 17
q-92 33 -120 33q-39 0 -64 -21.5t-49 -69.5h-99q36 101 93 154q66 64 166 64q35 0 67.5 -7.5t66.5 -21.5l41 -21q21 -10 49 -17t40 -7q53 0 84 31q20 20 37 63z" />
    <glyph glyph-name="uni1EE4" unicode="&#x1ee4;" horiz-adv-x="1478" 
d="M1421 1470h197l-202 -954q-52 -242 -227 -391q-193 -166 -482 -166q-280 0 -397 162q-103 143 -55 371l208 978h197l-196 -925q-47 -219 49 -322q79 -84 236 -84q166 0 282 80q146 103 193 322zM745 -348h-181l43 205h181z" />
    <glyph glyph-name="Uhorn" unicode="&#x1af;" horiz-adv-x="1478" 
d="M1604 1401q13 4 34.5 15t37.5 22.5t26 29t13 31.5l10 49h-115l27 127h197l-38 -180q-12 -57 -87 -119q-27 -20 -64 -37l-60 -24l-169 -799q-52 -242 -227 -391q-193 -166 -482 -166q-280 0 -397 162q-103 143 -55 371l208 978h197l-196 -925q-47 -219 49 -322
q79 -84 236 -84q166 0 282 80q146 103 193 322l197 929h197z" />
    <glyph glyph-name="uni1EEA" unicode="&#x1eea;" horiz-adv-x="1478" 
d="M1048 1614l-204 291h221l118 -291h-135zM1604 1401q13 4 34.5 15t37.5 22.5t26 29t13 31.5l10 49h-115l27 127h197l-38 -180q-12 -57 -87 -119q-27 -20 -64 -37l-60 -24l-169 -799q-52 -242 -227 -391q-193 -166 -482 -166q-280 0 -397 162q-103 143 -55 371l208 978h197
l-196 -925q-47 -219 49 -322q79 -84 236 -84q166 0 282 80q146 103 193 322l197 929h197z" />
    <glyph glyph-name="uni1EE8" unicode="&#x1ee8;" horiz-adv-x="1478" 
d="M983 1614l242 291h221l-328 -291h-135zM1604 1401q13 4 34.5 15t37.5 22.5t26 29t13 31.5l10 49h-115l27 127h197l-38 -180q-12 -57 -87 -119q-27 -20 -64 -37l-60 -24l-169 -799q-52 -242 -227 -391q-193 -166 -482 -166q-280 0 -397 162q-103 143 -55 371l208 978h197
l-196 -925q-47 -219 49 -322q79 -84 236 -84q166 0 282 80q146 103 193 322l197 929h197z" />
    <glyph glyph-name="uni1EEC" unicode="&#x1eec;" horiz-adv-x="1478" 
d="M1133 1580h-117q16 78 42.5 124t93.5 87t78 92q11 50 -11.5 71.5t-57.5 21.5q-55 0 -83 -31t-38 -76l-131 -2q23 111 107 168q72 49 160 49q78 0 131 -31q87 -51 63 -165q-11 -54 -44.5 -90.5t-103 -79.5t-89.5 -138zM1604 1401q13 4 34.5 15t37.5 22.5t26 29t13 31.5
l10 49h-115l27 127h197l-38 -180q-12 -57 -87 -119q-27 -20 -64 -37l-60 -24l-169 -799q-52 -242 -227 -391q-193 -166 -482 -166q-280 0 -397 162q-103 143 -55 371l208 978h197l-196 -925q-47 -219 49 -322q79 -84 236 -84q166 0 282 80q146 103 193 322l197 929h197z" />
    <glyph glyph-name="uni1EEE" unicode="&#x1eee;" horiz-adv-x="1478" 
d="M1385 1880h103q-31 -96 -98.5 -160.5t-153.5 -64.5q-45 0 -113 28l-50 17q-92 33 -120 33q-39 0 -64 -21.5t-49 -69.5h-99q36 101 93 154q66 64 166 64q35 0 67.5 -7.5t66.5 -21.5l41 -21q21 -10 49 -17t40 -7q53 0 84 31q20 20 37 63zM1604 1401q13 4 34.5 15t37.5 22.5
t26 29t13 31.5l10 49h-115l27 127h197l-38 -180q-12 -57 -87 -119q-27 -20 -64 -37l-60 -24l-169 -799q-52 -242 -227 -391q-193 -166 -482 -166q-280 0 -397 162q-103 143 -55 371l208 978h197l-196 -925q-47 -219 49 -322q79 -84 236 -84q166 0 282 80q146 103 193 322
l197 929h197z" />
    <glyph glyph-name="uni1EF0" unicode="&#x1ef0;" horiz-adv-x="1478" 
d="M745 -348h-181l43 205h181zM1604 1401q13 4 34.5 15t37.5 22.5t26 29t13 31.5l10 49h-115l27 127h197l-38 -180q-12 -57 -87 -119q-27 -20 -64 -37l-60 -24l-169 -799q-52 -242 -227 -391q-193 -166 -482 -166q-280 0 -397 162q-103 143 -55 371l208 978h197l-196 -925
q-47 -219 49 -322q79 -84 236 -84q166 0 282 80q146 103 193 322l197 929h197z" />
    <glyph glyph-name="Ohorn" unicode="&#x1a0;" horiz-adv-x="1572" 
d="M1526 1376q128 -108 165 -301q32 -160 -6 -338q-63 -297 -260 -508q-250 -270 -623 -270q-371 0 -506 268q-108 215 -45 510q62 293 259 504q251 270 622 270q102 0 184.5 -21.5t149.5 -64.5q12 2 47 25t47 33q32 24 47.5 53t23.5 66h-115l27 127h197l-39 -181
q-12 -57 -86 -118q-54 -39 -89 -54zM1480 737q56 264 -44 428q-106 170 -341 170q-234 0 -409 -168t-230 -430q-57 -266 45 -432t340 -166q235 0 409 167t230 431z" />
    <glyph glyph-name="uni1EDC" unicode="&#x1edc;" horiz-adv-x="1572" 
d="M1480 737q56 264 -44 428q-106 170 -341 170q-234 0 -409 -168t-230 -430q-57 -266 45 -432t340 -166q235 0 409 167t230 431zM1128 1614l-204 291h221l118 -291h-135zM1526 1376q128 -108 165 -301q32 -160 -6 -338q-63 -297 -260 -508q-250 -270 -623 -270
q-371 0 -506 268q-108 215 -45 510q62 293 259 504q251 270 622 270q102 0 184.5 -21.5t149.5 -64.5q12 2 47 25t47 33q32 24 47.5 53t23.5 66h-115l27 127h197l-39 -181q-12 -57 -86 -118q-54 -39 -89 -54z" />
    <glyph glyph-name="uni1EDA" unicode="&#x1eda;" horiz-adv-x="1572" 
d="M1480 737q56 264 -44 428q-106 170 -341 170q-234 0 -409 -168t-230 -430q-57 -266 45 -432t340 -166q235 0 409 167t230 431zM1003 1614l242 291h221l-328 -291h-135zM1526 1376q128 -108 165 -301q32 -160 -6 -338q-63 -297 -260 -508q-250 -270 -623 -270
q-371 0 -506 268q-108 215 -45 510q62 293 259 504q251 270 622 270q102 0 184.5 -21.5t149.5 -64.5q12 2 47 25t47 33q32 24 47.5 53t23.5 66h-115l27 127h197l-39 -181q-12 -57 -86 -118q-54 -39 -89 -54z" />
    <glyph glyph-name="uni1EDE" unicode="&#x1ede;" horiz-adv-x="1572" 
d="M1480 737q56 264 -44 428q-106 170 -341 170q-234 0 -409 -168t-230 -430q-57 -266 45 -432t340 -166q235 0 409 167t230 431zM1203 1580h-117q16 78 42.5 124t93.5 87t78 92q11 50 -11 71.5t-57 21.5q-55 0 -83 -31t-38 -76l-132 -2q23 111 108 168q72 49 160 49
q77 0 130 -31q88 -51 63 -165q-11 -54 -44.5 -90.5t-103 -79.5t-89.5 -138zM1526 1376q128 -108 165 -301q32 -160 -6 -338q-63 -297 -260 -508q-250 -270 -623 -270q-371 0 -506 268q-108 215 -45 510q62 293 259 504q251 270 622 270q102 0 184.5 -21.5t149.5 -64.5
q12 2 47 25t47 33q32 24 47.5 53t23.5 66h-115l27 127h197l-39 -181q-12 -57 -86 -118q-54 -39 -89 -54z" />
    <glyph glyph-name="uni1EE0" unicode="&#x1ee0;" horiz-adv-x="1572" 
d="M1480 737q56 264 -44 428q-106 170 -341 170q-234 0 -409 -168t-230 -430q-57 -266 45 -432t340 -166q235 0 409 167t230 431zM1457 1880h102q-31 -96 -99 -160.5t-154 -64.5q-45 0 -113 28l-50 17q-91 33 -120 33q-39 0 -64 -21.5t-49 -69.5h-98q36 101 92 154
q66 64 167 64q34 0 66.5 -7.5t66.5 -21.5l41 -21q23 -10 50 -17t39 -7q53 0 84 31q21 20 39 63zM1526 1376q128 -108 165 -301q32 -160 -6 -338q-63 -297 -260 -508q-250 -270 -623 -270q-371 0 -506 268q-108 215 -45 510q62 293 259 504q251 270 622 270
q102 0 184.5 -21.5t149.5 -64.5q12 2 47 25t47 33q32 24 47.5 53t23.5 66h-115l27 127h197l-39 -181q-12 -57 -86 -118q-54 -39 -89 -54z" />
    <glyph glyph-name="uni1EE2" unicode="&#x1ee2;" horiz-adv-x="1572" 
d="M1480 737q56 264 -44 428q-106 170 -341 170q-234 0 -409 -168t-230 -430q-57 -266 45 -432t340 -166q235 0 409 167t230 431zM827 -348h-180l44 205h180zM1526 1376q128 -108 165 -301q32 -160 -6 -338q-63 -297 -260 -508q-250 -270 -623 -270q-371 0 -506 268
q-108 215 -45 510q62 293 259 504q251 270 622 270q102 0 184.5 -21.5t149.5 -64.5q12 2 47 25t47 33q32 24 47.5 53t23.5 66h-115l27 127h197l-39 -181q-12 -57 -86 -118q-54 -39 -89 -54z" />
    <glyph glyph-name="Ygrave" unicode="&#x1ef2;" horiz-adv-x="1454" 
d="M908 594l-126 -594h-197l126 594l-371 876h233l272 -704l572 704h234zM987 1614l-206 291h222l119 -291h-135z" />
    <glyph glyph-name="Yacute" unicode="&#xdd;" horiz-adv-x="1454" 
d="M908 594l-126 -594h-197l126 594l-371 876h233l272 -704l572 704h234zM952 1614l242 291h221l-327 -291h-136z" />
    <glyph glyph-name="uni1EF6" unicode="&#x1ef6;" horiz-adv-x="1454" 
d="M908 594l-126 -594h-197l126 594l-371 876h233l272 -704l572 704h234zM1082 1529h-117q16 78 42.5 124t93 87t77.5 92q11 50 -11 71.5t-57 21.5q-55 0 -83 -31t-38 -76l-131 -2q23 111 107 168q72 49 160 49q78 0 130 -31q88 -51 64 -165q-11 -54 -45 -90.5t-103 -79.5
t-89 -138z" />
    <glyph glyph-name="uni1EF8" unicode="&#x1ef8;" horiz-adv-x="1454" 
d="M908 594l-126 -594h-197l126 594l-371 876h233l272 -704l572 704h234zM1385 1880h102q-30 -96 -98 -160.5t-154 -64.5q-45 0 -113 28l-49 17q-92 33 -120 33q-39 0 -64 -21.5t-50 -69.5h-98q36 101 92 154q67 64 167 64q35 0 67.5 -7.5t65.5 -21.5l40 -21q23 -10 50 -17
t40 -7q53 0 85 31q20 20 37 63z" />
    <glyph glyph-name="uni1EF4" unicode="&#x1ef4;" horiz-adv-x="1454" 
d="M908 594l-126 -594h-197l126 594l-371 876h233l272 -704l572 704h234zM708 -344h-181l44 205h181z" />
    <glyph glyph-name="agrave" unicode="&#xe0;" horiz-adv-x="1175" 
d="M453 745h-168q39 185 181 275q131 82 338 82q131 0 219 -45q152 -76 114 -254l-131 -615q-13 -65 48 -65l59 8l-28 -131l-51 -13t-52 -7q-108 0 -142 51q-27 39 -11 112q-88 -75 -165 -114q-125 -62 -262 -62q-148 0 -223.5 86t-45.5 226q23 108 90 186q109 125 309 149
l303 37q44 4 68 25q38 31 53 102q37 176 -213 176q-133 0 -210 -73q-46 -45 -80 -136zM866 373l37 176q-27 -21 -87.5 -35t-206.5 -32.5t-206.5 -61.5t-75.5 -113q-20 -92 16.5 -140t136.5 -48q131 0 247 73.5t139 180.5zM770 1217l-210 286h225l120 -286h-135z" />
    <glyph glyph-name="aacute" unicode="&#xe1;" horiz-adv-x="1175" 
d="M453 745h-168q39 185 181 275q131 82 338 82q131 0 219 -45q152 -76 114 -254l-131 -615q-13 -65 48 -65l59 8l-28 -131l-51 -13t-52 -7q-108 0 -142 51q-27 39 -11 112q-88 -75 -165 -114q-125 -62 -262 -62q-148 0 -223.5 86t-45.5 226q23 108 90 186q109 125 309 149
l303 37q44 4 68 25q38 31 53 102q37 176 -213 176q-133 0 -210 -73q-46 -45 -80 -136zM866 373l37 176q-27 -21 -87.5 -35t-206.5 -32.5t-206.5 -61.5t-75.5 -113q-20 -92 16.5 -140t136.5 -48q131 0 247 73.5t139 180.5zM679 1217l241 286h226l-332 -286h-135z" />
    <glyph glyph-name="uni1EA3" unicode="&#x1ea3;" horiz-adv-x="1175" 
d="M453 745h-168q39 185 181 275q131 82 338 82q131 0 219 -45q152 -76 114 -254l-131 -615q-13 -65 48 -65l59 8l-28 -131l-51 -13t-52 -7q-108 0 -142 51q-27 39 -11 112q-88 -75 -165 -114q-125 -62 -262 -62q-148 0 -223.5 86t-45.5 226q23 108 90 186q109 125 309 149
l303 37q44 4 68 25q38 31 53 102q37 176 -213 176q-133 0 -210 -73q-46 -45 -80 -136zM866 373l37 176q-27 -21 -87.5 -35t-206.5 -32.5t-206.5 -61.5t-75.5 -113q-20 -92 16.5 -140t136.5 -48q131 0 247 73.5t139 180.5zM842 1178h-121q15 71 38 107t91.5 78t79.5 93
q10 49 -12 70.5t-57 21.5q-56 0 -83.5 -30.5t-37.5 -75.5l-131 -2q23 110 107 168q72 49 161 49q77 0 130 -31q87 -51 63 -166q-11 -53 -44.5 -90t-102.5 -80q-37 -22 -54 -43.5t-27 -68.5z" />
    <glyph glyph-name="atilde" unicode="&#xe3;" horiz-adv-x="1175" 
d="M453 745h-168q39 185 181 275q131 82 338 82q131 0 219 -45q152 -76 114 -254l-131 -615q-13 -65 48 -65l59 8l-28 -131l-51 -13t-52 -7q-108 0 -142 51q-27 39 -11 112q-88 -75 -165 -114q-125 -62 -262 -62q-148 0 -223.5 86t-45.5 226q23 108 90 186q109 125 309 149
l303 37q44 4 68 25q38 31 53 102q37 176 -213 176q-133 0 -210 -73q-46 -45 -80 -136zM866 373l37 176q-27 -21 -87.5 -35t-206.5 -32.5t-206.5 -61.5t-75.5 -113q-20 -92 16.5 -140t136.5 -48q131 0 247 73.5t139 180.5zM1125 1479h103q-33 -95 -101.5 -158.5t-150.5 -63.5
q-25 0 -49.5 5.5t-68.5 19.5l-49 21q-25 8 -60 18t-57 10q-39 0 -66.5 -23.5t-50.5 -66.5h-99q34 98 99 159.5t161 61.5q35 0 66 -9t67 -23l42 -17q65 -29 92 -29q53 0 85 33q20 21 37 62z" />
    <glyph glyph-name="uni1EA1" unicode="&#x1ea1;" horiz-adv-x="1175" 
d="M453 745h-168q39 185 181 275q131 82 338 82q131 0 219 -45q152 -76 114 -254l-131 -615q-13 -65 48 -65l59 8l-28 -131l-51 -13t-52 -7q-108 0 -142 51q-27 39 -11 112q-88 -75 -165 -114q-125 -62 -262 -62q-148 0 -223.5 86t-45.5 226q23 108 90 186q109 125 309 149
l303 37q44 4 68 25q38 31 53 102q37 176 -213 176q-133 0 -210 -73q-46 -45 -80 -136zM866 373l37 176q-27 -21 -87.5 -35t-206.5 -32.5t-206.5 -61.5t-75.5 -113q-20 -92 16.5 -140t136.5 -48q131 0 247 73.5t139 180.5zM568 -344h-181l44 205h181z" />
    <glyph glyph-name="acircumflex" unicode="&#xe2;" horiz-adv-x="1175" 
d="M453 745h-168q39 185 181 275q131 82 338 82q131 0 219 -45q152 -76 114 -254l-131 -615q-13 -65 48 -65l59 8l-28 -131l-51 -13t-52 -7q-108 0 -142 51q-27 39 -11 112q-88 -75 -165 -114q-125 -62 -262 -62q-148 0 -223.5 86t-45.5 226q23 108 90 186q109 125 309 149
l303 37q44 4 68 25q38 31 53 102q37 176 -213 176q-133 0 -210 -73q-46 -45 -80 -136zM866 373l37 176q-27 -21 -87.5 -35t-206.5 -32.5t-206.5 -61.5t-75.5 -113q-20 -92 16.5 -140t136.5 -48q131 0 247 73.5t139 180.5zM847 1384l-175 -188h-160l262 287h193l139 -287
h-164z" />
    <glyph glyph-name="uni1EA7" unicode="&#x1ea7;" horiz-adv-x="1175" 
d="M453 745h-168q39 185 181 275q131 82 338 82q131 0 219 -45q152 -76 114 -254l-131 -615q-13 -65 48 -65l59 8l-28 -131l-51 -13t-52 -7q-108 0 -142 51q-27 39 -11 112q-88 -75 -165 -114q-125 -62 -262 -62q-148 0 -223.5 86t-45.5 226q23 108 90 186q109 125 309 149
l303 37q44 4 68 25q38 31 53 102q37 176 -213 176q-133 0 -210 -73q-46 -45 -80 -136zM866 373l37 176q-27 -21 -87.5 -35t-206.5 -32.5t-206.5 -61.5t-75.5 -113q-20 -92 16.5 -140t136.5 -48q131 0 247 73.5t139 180.5zM1084 1417l-211 286h225l121 -286h-135zM847 1384
l-175 -188h-160l262 287h193l139 -287h-164z" />
    <glyph glyph-name="uni1EA5" unicode="&#x1ea5;" horiz-adv-x="1175" 
d="M453 745h-168q39 185 181 275q131 82 338 82q131 0 219 -45q152 -76 114 -254l-131 -615q-13 -65 48 -65l59 8l-28 -131l-51 -13t-52 -7q-108 0 -142 51q-27 39 -11 112q-88 -75 -165 -114q-125 -62 -262 -62q-148 0 -223.5 86t-45.5 226q23 108 90 186q109 125 309 149
l303 37q44 4 68 25q38 31 53 102q37 176 -213 176q-133 0 -210 -73q-46 -45 -80 -136zM866 373l37 176q-27 -21 -87.5 -35t-206.5 -32.5t-206.5 -61.5t-75.5 -113q-20 -92 16.5 -140t136.5 -48q131 0 247 73.5t139 180.5zM1035 1428l241 286h226l-332 -286h-135zM847 1384
l-175 -188h-160l262 287h193l139 -287h-164z" />
    <glyph glyph-name="uni1EA9" unicode="&#x1ea9;" horiz-adv-x="1175" 
d="M453 745h-168q39 185 181 275q131 82 338 82q131 0 219 -45q152 -76 114 -254l-131 -615q-13 -65 48 -65l59 8l-28 -131l-51 -13t-52 -7q-108 0 -142 51q-27 39 -11 112q-88 -75 -165 -114q-125 -62 -262 -62q-148 0 -223.5 86t-45.5 226q23 108 90 186q109 125 309 149
l303 37q44 4 68 25q38 31 53 102q37 176 -213 176q-133 0 -210 -73q-46 -45 -80 -136zM866 373l37 176q-27 -21 -87.5 -35t-206.5 -32.5t-206.5 -61.5t-75.5 -113q-20 -92 16.5 -140t136.5 -48q131 0 247 73.5t139 180.5zM1172 1409h-121q15 71 38 107t91.5 78t79.5 93
q10 49 -11.5 70.5t-56.5 21.5q-56 0 -84 -30.5t-38 -75.5l-131 -2q23 110 107 168q72 49 161 49q77 0 130 -31q87 -51 63 -166q-11 -53 -44.5 -90t-102.5 -80q-37 -22 -54 -43.5t-27 -68.5zM847 1384l-175 -188h-160l262 287h193l139 -287h-164z" />
    <glyph glyph-name="uni1EAB" unicode="&#x1eab;" horiz-adv-x="1175" 
d="M453 745h-168q39 185 181 275q131 82 338 82q131 0 219 -45q152 -76 114 -254l-131 -615q-13 -65 48 -65l59 8l-28 -131l-51 -13t-52 -7q-108 0 -142 51q-27 39 -11 112q-88 -75 -165 -114q-125 -62 -262 -62q-148 0 -223.5 86t-45.5 226q23 108 90 186q109 125 309 149
l303 37q44 4 68 25q38 31 53 102q37 176 -213 176q-133 0 -210 -73q-46 -45 -80 -136zM866 373l37 176q-27 -21 -87.5 -35t-206.5 -32.5t-206.5 -61.5t-75.5 -113q-20 -92 16.5 -140t136.5 -48q131 0 247 73.5t139 180.5zM1258 1730h103q-33 -95 -101.5 -158.5t-150.5 -63.5
q-25 0 -49.5 5.5t-68.5 19.5l-48 21l-60.5 18t-56.5 10q-39 0 -66.5 -23.5t-50.5 -66.5h-99q33 98 98.5 159.5t161.5 61.5q35 0 66 -9t67 -23l41 -17q65 -29 92 -29q53 0 85 33q20 21 37 62zM847 1384l-175 -188h-160l262 287h193l139 -287h-164z" />
    <glyph glyph-name="uni1EAD" unicode="&#x1ead;" horiz-adv-x="1175" 
d="M453 745h-168q39 185 181 275q131 82 338 82q131 0 219 -45q152 -76 114 -254l-131 -615q-13 -65 48 -65l59 8l-28 -131l-51 -13t-52 -7q-108 0 -142 51q-27 39 -11 112q-88 -75 -165 -114q-125 -62 -262 -62q-148 0 -223.5 86t-45.5 226q23 108 90 186q109 125 309 149
l303 37q44 4 68 25q38 31 53 102q37 176 -213 176q-133 0 -210 -73q-46 -45 -80 -136zM866 373l37 176q-27 -21 -87.5 -35t-206.5 -32.5t-206.5 -61.5t-75.5 -113q-20 -92 16.5 -140t136.5 -48q131 0 247 73.5t139 180.5zM568 -344h-181l44 205h181zM847 1384l-175 -188
h-160l262 287h193l139 -287h-164z" />
    <glyph glyph-name="abreve" unicode="&#x103;" horiz-adv-x="1175" 
d="M453 745h-168q39 185 181 275q131 82 338 82q131 0 219 -45q152 -76 114 -254l-131 -615q-13 -65 48 -65l59 8l-28 -131l-51 -13t-52 -7q-108 0 -142 51q-27 39 -11 112q-88 -75 -165 -114q-125 -62 -262 -62q-148 0 -223.5 86t-45.5 226q23 108 90 186q109 125 309 149
l303 37q44 4 68 25q38 31 53 102q37 176 -213 176q-133 0 -210 -73q-46 -45 -80 -136zM866 373l37 176q-27 -21 -87.5 -35t-206.5 -32.5t-206.5 -61.5t-75.5 -113q-20 -92 16.5 -140t136.5 -48q131 0 247 73.5t139 180.5zM1074 1475h98q-50 -146 -153 -215q-93 -64 -234 -64
q-135 0 -197 67.5t-47 211.5h98q4 -31 7 -45q8 -31 22 -54q20 -30 57 -47.5t101 -17.5q106 0 171 57q38 33 77 107z" />
    <glyph glyph-name="uni1EB1" unicode="&#x1eb1;" horiz-adv-x="1175" 
d="M453 745h-168q39 185 181 275q131 82 338 82q131 0 219 -45q152 -76 114 -254l-131 -615q-13 -65 48 -65l59 8l-28 -131l-51 -13t-52 -7q-108 0 -142 51q-27 39 -11 112q-88 -75 -165 -114q-125 -62 -262 -62q-148 0 -223.5 86t-45.5 226q23 108 90 186q109 125 309 149
l303 37q44 4 68 25q38 31 53 102q37 176 -213 176q-133 0 -210 -73q-46 -45 -80 -136zM866 373l37 176q-27 -21 -87.5 -35t-206.5 -32.5t-206.5 -61.5t-75.5 -113q-20 -92 16.5 -140t136.5 -48q131 0 247 73.5t139 180.5zM811 1457l-210 286h225l120 -286h-135zM1074 1475
h98q-50 -146 -153 -215q-93 -64 -234 -64q-135 0 -197 67.5t-47 211.5h98q4 -31 7 -45q8 -31 22 -54q20 -30 57 -47.5t101 -17.5q106 0 171 57q38 33 77 107z" />
    <glyph glyph-name="uni1EAF" unicode="&#x1eaf;" horiz-adv-x="1175" 
d="M453 745h-168q39 185 181 275q131 82 338 82q131 0 219 -45q152 -76 114 -254l-131 -615q-13 -65 48 -65l59 8l-28 -131l-51 -13t-52 -7q-108 0 -142 51q-27 39 -11 112q-88 -75 -165 -114q-125 -62 -262 -62q-148 0 -223.5 86t-45.5 226q23 108 90 186q109 125 309 149
l303 37q44 4 68 25q38 31 53 102q37 176 -213 176q-133 0 -210 -73q-46 -45 -80 -136zM866 373l37 176q-27 -21 -87.5 -35t-206.5 -32.5t-206.5 -61.5t-75.5 -113q-20 -92 16.5 -140t136.5 -48q131 0 247 73.5t139 180.5zM790 1458l241 286h226l-332 -286h-135zM1074 1475
h98q-50 -146 -153 -215q-93 -64 -234 -64q-135 0 -197 67.5t-47 211.5h98q4 -31 7 -45q8 -31 22 -54q20 -30 57 -47.5t101 -17.5q106 0 171 57q38 33 77 107z" />
    <glyph glyph-name="uni1EB3" unicode="&#x1eb3;" horiz-adv-x="1175" 
d="M453 745h-168q39 185 181 275q131 82 338 82q131 0 219 -45q152 -76 114 -254l-131 -615q-13 -65 48 -65l59 8l-28 -131l-51 -13t-52 -7q-108 0 -142 51q-27 39 -11 112q-88 -75 -165 -114q-125 -62 -262 -62q-148 0 -223.5 86t-45.5 226q23 108 90 186q109 125 309 149
l303 37q44 4 68 25q38 31 53 102q37 176 -213 176q-133 0 -210 -73q-46 -45 -80 -136zM866 373l37 176q-27 -21 -87.5 -35t-206.5 -32.5t-206.5 -61.5t-75.5 -113q-20 -92 16.5 -140t136.5 -48q131 0 247 73.5t139 180.5zM924 1469h-121q15 71 38 107t91.5 78t79.5 93
q10 49 -12 70.5t-57 21.5q-56 0 -84 -30.5t-37 -75.5l-132 -2q24 110 108 168q72 49 161 49q77 0 130 -31q87 -51 63 -166q-12 -53 -45 -90t-102 -80q-37 -22 -54 -43.5t-27 -68.5zM1074 1475h98q-50 -146 -153 -215q-93 -64 -234 -64q-135 0 -197 67.5t-47 211.5h98
q4 -31 7 -45q8 -31 22 -54q20 -30 57 -47.5t101 -17.5q106 0 171 57q38 33 77 107z" />
    <glyph glyph-name="uni1EB5" unicode="&#x1eb5;" horiz-adv-x="1175" 
d="M453 745h-168q39 185 181 275q131 82 338 82q131 0 219 -45q152 -76 114 -254l-131 -615q-13 -65 48 -65l59 8l-28 -131l-51 -13t-52 -7q-108 0 -142 51q-27 39 -11 112q-88 -75 -165 -114q-125 -62 -262 -62q-148 0 -223.5 86t-45.5 226q23 108 90 186q109 125 309 149
l303 37q44 4 68 25q38 31 53 102q37 176 -213 176q-133 0 -210 -73q-46 -45 -80 -136zM866 373l37 176q-27 -21 -87.5 -35t-206.5 -32.5t-206.5 -61.5t-75.5 -113q-20 -92 16.5 -140t136.5 -48q131 0 247 73.5t139 180.5zM1275 1760h103q-34 -95 -102.5 -158.5t-150.5 -63.5
q-25 0 -49 5.5t-68 19.5l-49 21q-25 8 -60 18t-57 10q-39 0 -66.5 -23.5t-50.5 -66.5h-99q34 98 99 159.5t161 61.5q35 0 66 -9t67 -23l42 -17q64 -29 91 -29q53 0 85 33q21 21 38 62zM1074 1475h98q-50 -146 -153 -215q-93 -64 -234 -64q-135 0 -197 67.5t-47 211.5h98
q4 -31 7 -45q8 -31 22 -54q20 -30 57 -47.5t101 -17.5q106 0 171 57q38 33 77 107z" />
    <glyph glyph-name="uni1EB7" unicode="&#x1eb7;" horiz-adv-x="1175" 
d="M453 745h-168q39 185 181 275q131 82 338 82q131 0 219 -45q152 -76 114 -254l-131 -615q-13 -65 48 -65l59 8l-28 -131l-51 -13t-52 -7q-108 0 -142 51q-27 39 -11 112q-88 -75 -165 -114q-125 -62 -262 -62q-148 0 -223.5 86t-45.5 226q23 108 90 186q109 125 309 149
l303 37q44 4 68 25q38 31 53 102q37 176 -213 176q-133 0 -210 -73q-46 -45 -80 -136zM866 373l37 176q-27 -21 -87.5 -35t-206.5 -32.5t-206.5 -61.5t-75.5 -113q-20 -92 16.5 -140t136.5 -48q131 0 247 73.5t139 180.5zM568 -344h-181l44 205h181zM1074 1475h98
q-50 -146 -153 -215q-93 -64 -234 -64q-135 0 -197 67.5t-47 211.5h98q4 -31 7 -45q8 -31 22 -54q20 -30 57 -47.5t101 -17.5q106 0 171 57q38 33 77 107z" />
    <glyph glyph-name="egrave" unicode="&#xe8;" 
d="M934 336h181q-24 -62 -75 -129q-77 -103 -179 -162q-63 -37 -109 -51q-84 -27 -199 -27q-221 0 -318 150.5t-46 390.5q57 266 213 422q171 172 429 172q225 0 306.5 -167t20.5 -456h-782q-36 -170 23 -261t213 -91q119 0 217 74q82 63 105 135zM406 623h598
q30 137 -21 221q-57 98 -210 98q-123 0 -231.5 -96t-135.5 -223zM769 1217l-209 286h225l120 -286h-136z" />
    <glyph glyph-name="eacute" unicode="&#xe9;" 
d="M934 336h181q-24 -62 -75 -129q-77 -103 -179 -162q-63 -37 -109 -51q-84 -27 -199 -27q-221 0 -318 150.5t-46 390.5q57 266 213 422q171 172 429 172q225 0 306.5 -167t20.5 -456h-782q-36 -170 23 -261t213 -91q119 0 217 74q82 63 105 135zM406 623h598
q30 137 -21 221q-57 98 -210 98q-123 0 -231.5 -96t-135.5 -223zM679 1217l241 286h226l-332 -286h-135z" />
    <glyph glyph-name="uni1EBB" unicode="&#x1ebb;" 
d="M934 336h181q-24 -62 -75 -129q-77 -103 -179 -162q-63 -37 -109 -51q-84 -27 -199 -27q-221 0 -318 150.5t-46 390.5q57 266 213 422q171 172 429 172q225 0 306.5 -167t20.5 -456h-782q-36 -170 23 -261t213 -91q119 0 217 74q82 63 105 135zM406 623h598
q30 137 -21 221q-57 98 -210 98q-123 0 -231.5 -96t-135.5 -223zM879 1178h-121q16 71 39 107t91.5 78t79.5 93q10 49 -12.5 70.5t-57.5 21.5q-55 0 -83 -30.5t-37 -75.5l-132 -2q23 110 108 168q71 49 159 49q78 0 131 -31q88 -51 63 -166q-11 -53 -44.5 -90t-102.5 -80
q-37 -22 -54 -43.5t-27 -68.5z" />
    <glyph glyph-name="uni1EBD" unicode="&#x1ebd;" 
d="M934 336h181q-24 -62 -75 -129q-77 -103 -179 -162q-63 -37 -109 -51q-84 -27 -199 -27q-221 0 -318 150.5t-46 390.5q57 266 213 422q171 172 429 172q225 0 306.5 -167t20.5 -456h-782q-36 -170 23 -261t213 -91q119 0 217 74q82 63 105 135zM406 623h598
q30 137 -21 221q-57 98 -210 98q-123 0 -231.5 -96t-135.5 -223zM1130 1479h103q-33 -95 -101.5 -158.5t-150.5 -63.5q-25 0 -49 5.5t-68 19.5l-49 21q-25 8 -60 18t-57 10q-39 0 -66.5 -23.5t-50.5 -66.5h-99q34 98 99 159.5t161 61.5q35 0 66 -9t66 -23l42 -17
q65 -29 92 -29q53 0 85 33q21 21 37 62z" />
    <glyph glyph-name="uni1EB9" unicode="&#x1eb9;" 
d="M934 336h181q-24 -62 -75 -129q-77 -103 -179 -162q-63 -37 -109 -51q-84 -27 -199 -27q-221 0 -318 150.5t-46 390.5q57 266 213 422q171 172 429 172q225 0 306.5 -167t20.5 -456h-782q-36 -170 23 -261t213 -91q119 0 217 74q82 63 105 135zM406 623h598
q30 137 -21 221q-57 98 -210 98q-123 0 -231.5 -96t-135.5 -223zM586 -344h-181l43 205h181z" />
    <glyph glyph-name="ecircumflex" unicode="&#xea;" 
d="M934 336h181q-24 -62 -75 -129q-77 -103 -179 -162q-63 -37 -109 -51q-84 -27 -199 -27q-221 0 -318 150.5t-46 390.5q57 266 213 422q171 172 429 172q225 0 306.5 -167t20.5 -456h-782q-36 -170 23 -261t213 -91q119 0 217 74q82 63 105 135zM406 623h598
q30 137 -21 221q-57 98 -210 98q-123 0 -231.5 -96t-135.5 -223zM860 1384l-175 -188h-160l262 287h193l139 -287h-163z" />
    <glyph glyph-name="uni1EC1" unicode="&#x1ec1;" 
d="M934 336h181q-24 -62 -75 -129q-77 -103 -179 -162q-63 -37 -109 -51q-84 -27 -199 -27q-221 0 -318 150.5t-46 390.5q57 266 213 422q171 172 429 172q225 0 306.5 -167t20.5 -456h-782q-36 -170 23 -261t213 -91q119 0 217 74q82 63 105 135zM406 623h598
q30 137 -21 221q-57 98 -210 98q-123 0 -231.5 -96t-135.5 -223zM1085 1428l-210 286h225l121 -286h-136zM846 1384l-175 -188h-160l262 287h192l140 -287h-164z" />
    <glyph glyph-name="uni1EBF" unicode="&#x1ebf;" 
d="M934 336h181q-24 -62 -75 -129q-77 -103 -179 -162q-63 -37 -109 -51q-84 -27 -199 -27q-221 0 -318 150.5t-46 390.5q57 266 213 422q171 172 429 172q225 0 306.5 -167t20.5 -456h-782q-36 -170 23 -261t213 -91q119 0 217 74q82 63 105 135zM406 623h598
q30 137 -21 221q-57 98 -210 98q-123 0 -231.5 -96t-135.5 -223zM1042 1418l241 286h226l-332 -286h-135zM846 1384l-175 -188h-160l262 287h192l140 -287h-164z" />
    <glyph glyph-name="uni1EC3" unicode="&#x1ec3;" 
d="M934 336h181q-24 -62 -75 -129q-77 -103 -179 -162q-63 -37 -109 -51q-84 -27 -199 -27q-221 0 -318 150.5t-46 390.5q57 266 213 422q171 172 429 172q225 0 306.5 -167t20.5 -456h-782q-36 -170 23 -261t213 -91q119 0 217 74q82 63 105 135zM406 623h598
q30 137 -21 221q-57 98 -210 98q-123 0 -231.5 -96t-135.5 -223zM1163 1429h-121q15 71 38 107t91.5 78t79.5 93q10 49 -12.5 70.5t-57.5 21.5q-55 0 -83 -30.5t-37 -75.5l-132 -2q24 110 108 168q72 49 160 49q78 0 130 -31q88 -51 64 -166q-12 -53 -45 -90t-102 -80
q-38 -22 -54.5 -43.5t-26.5 -68.5zM846 1384l-175 -188h-160l262 287h192l140 -287h-164z" />
    <glyph glyph-name="uni1EC5" unicode="&#x1ec5;" 
d="M934 336h181q-24 -62 -75 -129q-77 -103 -179 -162q-63 -37 -109 -51q-84 -27 -199 -27q-221 0 -318 150.5t-46 390.5q57 266 213 422q171 172 429 172q225 0 306.5 -167t20.5 -456h-782q-36 -170 23 -261t213 -91q119 0 217 74q82 63 105 135zM406 623h598
q30 137 -21 221q-57 98 -210 98q-123 0 -231.5 -96t-135.5 -223zM1246 1740h103q-33 -95 -101.5 -158.5t-150.5 -63.5q-25 0 -49.5 5.5t-68.5 19.5l-49 21q-25 8 -60 18t-57 10q-39 0 -66.5 -23.5t-50.5 -66.5h-99q34 98 99 159.5t161 61.5q35 0 66 -9t66 -23l43 -17
q65 -29 92 -29q53 0 85 33q20 21 37 62zM846 1384l-175 -188h-160l262 287h192l140 -287h-164z" />
    <glyph glyph-name="uni1EC7" unicode="&#x1ec7;" 
d="M934 336h181q-24 -62 -75 -129q-77 -103 -179 -162q-63 -37 -109 -51q-84 -27 -199 -27q-221 0 -318 150.5t-46 390.5q57 266 213 422q171 172 429 172q225 0 306.5 -167t20.5 -456h-782q-36 -170 23 -261t213 -91q119 0 217 74q82 63 105 135zM406 623h598
q30 137 -21 221q-57 98 -210 98q-123 0 -231.5 -96t-135.5 -223zM586 -344h-181l43 205h181zM846 1384l-175 -188h-160l262 287h192l140 -287h-164z" />
    <glyph glyph-name="igrave" unicode="&#xec;" horiz-adv-x="487" 
d="M548 1073l-228 -1073h-181l228 1073h181zM459 1217l-210 286h225l121 -286h-136z" />
    <glyph glyph-name="iacute" unicode="&#xed;" horiz-adv-x="487" 
d="M547 1073l-228 -1073h-180l228 1073h180zM399 1217l240 286h225l-330 -286h-135z" />
    <glyph glyph-name="uni1EC9" unicode="&#x1ec9;" horiz-adv-x="487" 
d="M547 1073l-228 -1073h-180l228 1073h180zM538 1178h-121q15 71 38.5 107t91.5 78t78 93q11 49 -11 70.5t-57 21.5q-55 0 -83 -30.5t-37 -75.5l-132 -2q23 110 108 168q71 49 159 49q78 0 131 -31q88 -51 63 -166q-11 -53 -44.5 -90t-102.5 -80q-37 -22 -54 -43.5
t-27 -68.5z" />
    <glyph glyph-name="itilde" unicode="&#x129;" horiz-adv-x="487" 
d="M547 1073l-228 -1073h-180l228 1073h180zM830 1479h102q-32 -95 -100.5 -158.5t-150.5 -63.5q-25 0 -49 5.5t-69 19.5l-49 21q-24 8 -59 18t-57 10q-39 0 -66.5 -23.5t-51.5 -66.5h-98q33 98 98.5 159.5t161.5 61.5q35 0 65.5 -9t66.5 -23l41 -17q66 -29 93 -29
q53 0 84 33q22 21 38 62z" />
    <glyph glyph-name="uni1ECB" unicode="&#x1ecb;" horiz-adv-x="487" 
d="M552 1073l-228 -1073h-181l228 1073h181zM588 1266h-180l44 204h180zM251 -344h-181l44 205h181z" />
    <glyph glyph-name="ograve" unicode="&#xf2;" horiz-adv-x="1179" 
d="M187 537q49 231 201 387q173 178 415 178q241 0 340 -178q88 -158 39 -387q-49 -228 -203 -385q-175 -181 -416 -181q-240 0 -337 179q-88 157 -39 387zM371 537q-32 -152 3 -258q50 -152 222 -152q170 0 283 149q83 109 115 261q32 151 -2 258q-50 151 -222 151
q-170 0 -284 -149q-83 -109 -115 -260zM779 1217l-209 286h225l120 -286h-136z" />
    <glyph glyph-name="oacute" unicode="&#xf3;" horiz-adv-x="1179" 
d="M187 537q49 231 201 387q173 178 415 178q241 0 340 -178q88 -158 39 -387q-49 -228 -203 -385q-175 -181 -416 -181q-240 0 -337 179q-88 157 -39 387zM371 537q-32 -152 3 -258q50 -152 222 -152q170 0 283 149q83 109 115 261q32 151 -2 258q-50 151 -222 151
q-170 0 -284 -149q-83 -109 -115 -260zM709 1217l241 286h226l-332 -286h-135z" />
    <glyph glyph-name="uni1ECF" unicode="&#x1ecf;" horiz-adv-x="1179" 
d="M187 537q49 231 201 387q173 178 415 178q241 0 340 -178q88 -158 39 -387q-49 -228 -203 -385q-175 -181 -416 -181q-240 0 -337 179q-88 157 -39 387zM371 537q-32 -152 3 -258q50 -152 222 -152q170 0 283 149q83 109 115 261q32 151 -2 258q-50 151 -222 151
q-170 0 -284 -149q-83 -109 -115 -260zM879 1178h-121q15 71 38.5 107t91.5 78t79 93q11 49 -11.5 70.5t-57.5 21.5q-55 0 -83 -30.5t-38 -75.5l-131 -2q23 110 108 168q71 49 159 49q78 0 130 -31q89 -51 64 -166q-11 -53 -44.5 -90t-102.5 -80q-38 -22 -54.5 -43.5
t-26.5 -68.5z" />
    <glyph glyph-name="otilde" unicode="&#xf5;" horiz-adv-x="1179" 
d="M187 537q49 231 201 387q173 178 415 178q241 0 340 -178q88 -158 39 -387q-49 -228 -203 -385q-175 -181 -416 -181q-240 0 -337 179q-88 157 -39 387zM371 537q-32 -152 3 -258q50 -152 222 -152q170 0 283 149q83 109 115 261q32 151 -2 258q-50 151 -222 151
q-170 0 -284 -149q-83 -109 -115 -260zM1130 1479h103q-33 -95 -101.5 -158.5t-150.5 -63.5q-25 0 -49.5 5.5t-68.5 19.5l-48 21l-60.5 18t-56.5 10q-39 0 -66.5 -23.5t-50.5 -66.5h-99q33 98 98.5 159.5t161.5 61.5q35 0 66 -9t66 -23l42 -17q65 -29 92 -29q53 0 85 33
q20 21 37 62z" />
    <glyph glyph-name="uni1ECD" unicode="&#x1ecd;" horiz-adv-x="1179" 
d="M187 537q49 231 201 387q173 178 415 178q241 0 340 -178q88 -158 39 -387q-49 -228 -203 -385q-175 -181 -416 -181q-240 0 -337 179q-88 157 -39 387zM371 537q-32 -152 3 -258q50 -152 222 -152q170 0 283 149q83 109 115 261q32 151 -2 258q-50 151 -222 151
q-170 0 -284 -149q-83 -109 -115 -260zM588 -344h-180l43 205h180z" />
    <glyph glyph-name="ocircumflex" unicode="&#xf4;" horiz-adv-x="1179" 
d="M187 537q49 231 201 387q173 178 415 178q241 0 340 -178q88 -158 39 -387q-49 -228 -203 -385q-175 -181 -416 -181q-240 0 -337 179q-88 157 -39 387zM371 537q-32 -152 3 -258q50 -152 222 -152q170 0 283 149q83 109 115 261q32 151 -2 258q-50 151 -222 151
q-170 0 -284 -149q-83 -109 -115 -260zM863 1384l-176 -188h-159l261 287h193l140 -287h-164z" />
    <glyph glyph-name="uni1ED3" unicode="&#x1ed3;" horiz-adv-x="1179" 
d="M187 537q49 231 201 387q173 178 415 178q241 0 340 -178q88 -158 39 -387q-49 -228 -203 -385q-175 -181 -416 -181q-240 0 -337 179q-88 157 -39 387zM371 537q-32 -152 3 -258q50 -152 222 -152q170 0 283 149q83 109 115 261q32 151 -2 258q-50 151 -222 151
q-170 0 -284 -149q-83 -109 -115 -260zM1123 1418l-209 286h225l120 -286h-136zM863 1384l-175 -188h-160l262 287h193l139 -287h-163z" />
    <glyph glyph-name="uni1ED1" unicode="&#x1ed1;" horiz-adv-x="1179" 
d="M187 537q49 231 201 387q173 178 415 178q241 0 340 -178q88 -158 39 -387q-49 -228 -203 -385q-175 -181 -416 -181q-240 0 -337 179q-88 157 -39 387zM371 537q-32 -152 3 -258q50 -152 222 -152q170 0 283 149q83 109 115 261q32 151 -2 258q-50 151 -222 151
q-170 0 -284 -149q-83 -109 -115 -260zM1053 1418l241 286h226l-332 -286h-135zM863 1384l-175 -188h-160l262 287h193l139 -287h-163z" />
    <glyph glyph-name="uni1ED5" unicode="&#x1ed5;" horiz-adv-x="1179" 
d="M187 537q49 231 201 387q173 178 415 178q241 0 340 -178q88 -158 39 -387q-49 -228 -203 -385q-175 -181 -416 -181q-240 0 -337 179q-88 157 -39 387zM371 537q-32 -152 3 -258q50 -152 222 -152q170 0 283 149q83 109 115 261q32 151 -2 258q-50 151 -222 151
q-170 0 -284 -149q-83 -109 -115 -260zM1189 1409h-121q15 71 38.5 107t91.5 78t79 93q11 49 -11.5 70.5t-57.5 21.5q-55 0 -83 -30.5t-38 -75.5l-131 -2q23 110 108 168q71 49 159 49q78 0 130 -31q89 -51 64 -166q-11 -53 -44.5 -90t-102.5 -80q-38 -22 -54.5 -43.5
t-26.5 -68.5zM863 1384l-175 -188h-160l262 287h193l139 -287h-163z" />
    <glyph glyph-name="uni1ED7" unicode="&#x1ed7;" horiz-adv-x="1179" 
d="M187 537q49 231 201 387q173 178 415 178q241 0 340 -178q88 -158 39 -387q-49 -228 -203 -385q-175 -181 -416 -181q-240 0 -337 179q-88 157 -39 387zM371 537q-32 -152 3 -258q50 -152 222 -152q170 0 283 149q83 109 115 261q32 151 -2 258q-50 151 -222 151
q-170 0 -284 -149q-83 -109 -115 -260zM1271 1760h103q-33 -95 -101.5 -158.5t-150.5 -63.5q-25 0 -49.5 5.5t-68.5 19.5l-49 21q-25 8 -60 18t-57 10q-39 0 -66.5 -23.5t-50.5 -66.5h-99q34 98 99 159.5t161 61.5q35 0 66 -9t66 -23l43 -17q65 -29 92 -29q53 0 85 33
q20 21 37 62zM863 1384l-175 -188h-160l262 287h193l139 -287h-163z" />
    <glyph glyph-name="uni1ED9" unicode="&#x1ed9;" horiz-adv-x="1179" 
d="M187 537q49 231 201 387q173 178 415 178q241 0 340 -178q88 -158 39 -387q-49 -228 -203 -385q-175 -181 -416 -181q-240 0 -337 179q-88 157 -39 387zM371 537q-32 -152 3 -258q50 -152 222 -152q170 0 283 149q83 109 115 261q32 151 -2 258q-50 151 -222 151
q-170 0 -284 -149q-83 -109 -115 -260zM588 -344h-180l43 205h180zM863 1384l-175 -188h-160l262 287h193l139 -287h-163z" />
    <glyph glyph-name="glyph216" unicode="&#xf9;" 
d="M1003 0h-172l34 156l-4 4q-77 -97 -167.5 -145t-213.5 -48q-139 0 -216 70q-98 88 -60 266l164 770h180l-152 -713q-26 -124 21 -182q40 -51 138 -51q154 0 258 119q83 96 113 237l126 590h180zM780 1217l-209 286h225l119 -286h-135z" />
    <glyph glyph-name="glyph217" unicode="&#xfa;" 
d="M1003 0h-172l34 156l-4 4q-77 -97 -167.5 -145t-213.5 -48q-139 0 -216 70q-98 88 -60 266l164 770h180l-152 -713q-26 -124 21 -182q40 -51 138 -51q154 0 258 119q83 96 113 237l126 590h180zM710 1217l241 286h225l-331 -286h-135z" />
    <glyph glyph-name="uni1EE7" unicode="&#x1ee7;" 
d="M1003 0h-172l34 156l-4 4q-77 -97 -167.5 -145t-213.5 -48q-139 0 -216 70q-98 88 -60 266l164 770h180l-152 -713q-26 -124 21 -182q40 -51 138 -51q154 0 258 119q83 96 113 237l126 590h180zM880 1178h-121q15 71 37.5 107t91 78t79.5 93q10 49 -12 70.5t-57 21.5
q-55 0 -82.5 -30.5t-37.5 -75.5l-131 -2q23 110 106 168q73 49 161 49q78 0 130 -31q88 -51 64 -166q-12 -53 -45.5 -90t-101.5 -80q-38 -22 -54.5 -43.5t-26.5 -68.5z" />
    <glyph glyph-name="utilde" unicode="&#x169;" 
d="M1003 0h-172l34 156l-4 4q-77 -97 -167.5 -145t-213.5 -48q-139 0 -216 70q-98 88 -60 266l164 770h180l-152 -713q-26 -124 21 -182q40 -51 138 -51q154 0 258 119q83 96 113 237l126 590h180zM1171 1479h102q-32 -95 -101 -158.5t-150 -63.5q-25 0 -49.5 5.5
t-68.5 19.5l-50 21q-24 8 -59 18t-57 10q-39 0 -66.5 -23.5t-51.5 -66.5h-98q33 98 98.5 159.5t161.5 61.5q35 0 65.5 -9t66.5 -23l42 -17q66 -29 93 -29q53 0 84 33q21 21 38 62z" />
    <glyph glyph-name="uni1EE5" unicode="&#x1ee5;" 
d="M1003 0h-172l34 156l-4 4q-77 -97 -167.5 -145t-213.5 -48q-139 0 -216 70q-98 88 -60 266l164 770h180l-152 -713q-26 -124 21 -182q40 -51 138 -51q154 0 258 119q83 96 113 237l126 590h180zM588 -344h-181l44 205h181z" />
    <glyph glyph-name="uhorn" unicode="&#x1b0;" 
d="M1217 1004q14 4 35 20q13 12 17 16q33 25 46 53.5t22 69.5h-114l27 127h196l-39 -180q-12 -57 -86 -119q-63 -47 -122 -69l-196 -922h-172l34 156l-4 4q-77 -97 -167.5 -145t-213.5 -48q-139 0 -216 70q-98 88 -60 266l164 770h180l-152 -713q-26 -124 21 -182
q40 -51 138 -51q154 0 258 119q83 96 113 237l126 590h180z" />
    <glyph glyph-name="uni1EEB" unicode="&#x1eeb;" 
d="M780 1217l-209 286h225l119 -286h-135zM1217 1004q14 4 35 20q13 12 17 16q33 25 46 53.5t22 69.5h-114l27 127h196l-39 -180q-12 -57 -86 -119q-63 -47 -122 -69l-196 -922h-172l34 156l-4 4q-77 -97 -167.5 -145t-213.5 -48q-139 0 -216 70q-98 88 -60 266l164 770h180
l-152 -713q-26 -124 21 -182q40 -51 138 -51q154 0 258 119q83 96 113 237l126 590h180z" />
    <glyph glyph-name="uni1EE9" unicode="&#x1ee9;" 
d="M710 1217l241 286h225l-331 -286h-135zM1217 1004q14 4 35 20q13 12 17 16q33 25 46 53.5t22 69.5h-114l27 127h196l-39 -180q-12 -57 -86 -119q-63 -47 -122 -69l-196 -922h-172l34 156l-4 4q-77 -97 -167.5 -145t-213.5 -48q-139 0 -216 70q-98 88 -60 266l164 770h180
l-152 -713q-26 -124 21 -182q40 -51 138 -51q154 0 258 119q83 96 113 237l126 590h180z" />
    <glyph glyph-name="uni1EED" unicode="&#x1eed;" 
d="M880 1178h-121q15 71 37.5 107t91 78t79.5 93q10 49 -12 70.5t-57 21.5q-55 0 -82.5 -30.5t-37.5 -75.5l-131 -2q23 110 106 168q73 49 161 49q78 0 130 -31q88 -51 64 -166q-12 -53 -45.5 -90t-101.5 -80q-38 -22 -54.5 -43.5t-26.5 -68.5zM1217 1004q14 4 35 20
q13 12 17 16q33 25 46 53.5t22 69.5h-114l27 127h196l-39 -180q-12 -57 -86 -119q-63 -47 -122 -69l-196 -922h-172l34 156l-4 4q-77 -97 -167.5 -145t-213.5 -48q-139 0 -216 70q-98 88 -60 266l164 770h180l-152 -713q-26 -124 21 -182q40 -51 138 -51q154 0 258 119
q83 96 113 237l126 590h180z" />
    <glyph glyph-name="uni1EEF" unicode="&#x1eef;" 
d="M1171 1479h102q-32 -95 -101 -158.5t-150 -63.5q-25 0 -49.5 5.5t-68.5 19.5l-50 21q-24 8 -59 18t-57 10q-39 0 -66.5 -23.5t-51.5 -66.5h-98q33 98 98.5 159.5t161.5 61.5q35 0 65.5 -9t66.5 -23l42 -17q66 -29 93 -29q53 0 84 33q21 21 38 62zM1217 1004q14 4 35 20
q13 12 17 16q33 25 46 53.5t22 69.5h-114l27 127h196l-39 -180q-12 -57 -86 -119q-63 -47 -122 -69l-196 -922h-172l34 156l-4 4q-77 -97 -167.5 -145t-213.5 -48q-139 0 -216 70q-98 88 -60 266l164 770h180l-152 -713q-26 -124 21 -182q40 -51 138 -51q154 0 258 119
q83 96 113 237l126 590h180z" />
    <glyph glyph-name="uni1EF1" unicode="&#x1ef1;" 
d="M588 -344h-181l44 205h181zM1217 1004q14 4 35 20q13 12 17 16q33 25 46 53.5t22 69.5h-114l27 127h196l-39 -180q-12 -57 -86 -119q-63 -47 -122 -69l-196 -922h-172l34 156l-4 4q-77 -97 -167.5 -145t-213.5 -48q-139 0 -216 70q-98 88 -60 266l164 770h180l-152 -713
q-26 -124 21 -182q40 -51 138 -51q154 0 258 119q83 96 113 237l126 590h180z" />
    <glyph glyph-name="ohorn" unicode="&#x1a1;" 
d="M1112 979q11 2 38 22.5t44 34.5q32 25 47 53.5t23 65.5h-115l27 127h197l-38 -180q-12 -58 -86 -119l-53.5 -39.5t-42.5 -25.5q39 -76 45 -176.5t-16 -204.5q-49 -228 -203 -385q-175 -181 -416 -181q-240 0 -337 179q-88 157 -39 387q49 231 201 387q173 178 415 178
q213 0 309 -123zM371 537q-32 -152 3 -258q50 -152 222 -152q170 0 283 149q83 109 115 261q32 151 -2 258q-50 151 -222 151q-170 0 -284 -149q-83 -109 -115 -260z" />
    <glyph glyph-name="uni1EDD" unicode="&#x1edd;" horiz-adv-x="1179" 
d="M780 1217l-210 286h226l119 -286h-135zM1113 979q11 2 38 22.5t44 34.5q32 25 47 53.5t23 65.5h-115l27 127h197l-38 -180q-12 -58 -86 -119l-53.5 -39.5t-42.5 -25.5q39 -76 45 -176.5t-16 -204.5q-49 -228 -203 -385q-175 -181 -416 -181q-240 0 -337 179
q-88 157 -39 387q49 231 201 387q173 178 415 178q213 0 309 -123zM372 537q-32 -152 3 -258q50 -152 222 -152q170 0 283 149q83 109 115 261q32 151 -2 258q-50 151 -222 151q-170 0 -284 -149q-83 -109 -115 -260z" />
    <glyph glyph-name="uni1EDB" unicode="&#x1edb;" horiz-adv-x="1179" 
d="M709 1217l241 286h226l-332 -286h-135zM1113 979q11 2 38 22.5t44 34.5q32 25 47 53.5t23 65.5h-115l27 127h197l-38 -180q-12 -58 -86 -119l-53.5 -39.5t-42.5 -25.5q39 -76 45 -176.5t-16 -204.5q-49 -228 -203 -385q-175 -181 -416 -181q-240 0 -337 179
q-88 157 -39 387q49 231 201 387q173 178 415 178q213 0 309 -123zM372 537q-32 -152 3 -258q50 -152 222 -152q170 0 283 149q83 109 115 261q32 151 -2 258q-50 151 -222 151q-170 0 -284 -149q-83 -109 -115 -260z" />
    <glyph glyph-name="uni1EDF" unicode="&#x1edf;" horiz-adv-x="1179" 
d="M879 1178h-121q15 71 38.5 107t91.5 78t79 93q11 49 -11 70.5t-57 21.5q-56 0 -84 -30.5t-38 -75.5l-131 -2q23 110 108 168q71 49 160 49q77 0 130 -31q88 -51 63 -166q-11 -53 -44.5 -90t-102.5 -80q-37 -22 -54 -43.5t-27 -68.5zM1113 979q11 2 38 22.5t44 34.5
q32 25 47 53.5t23 65.5h-115l27 127h197l-38 -180q-12 -58 -86 -119l-53.5 -39.5t-42.5 -25.5q39 -76 45 -176.5t-16 -204.5q-49 -228 -203 -385q-175 -181 -416 -181q-240 0 -337 179q-88 157 -39 387q49 231 201 387q173 178 415 178q213 0 309 -123zM372 537
q-32 -152 3 -258q50 -152 222 -152q170 0 283 149q83 109 115 261q32 151 -2 258q-50 151 -222 151q-170 0 -284 -149q-83 -109 -115 -260z" />
    <glyph glyph-name="uni1EE1" unicode="&#x1ee1;" horiz-adv-x="1179" 
d="M1131 1479h102q-32 -95 -101 -158.5t-151 -63.5q-24 0 -49 5.5t-69 19.5l-48 21l-60 18t-57 10q-39 0 -66.5 -23.5t-50.5 -66.5h-99q33 98 98.5 159.5t161.5 61.5q35 0 66 -9t67 -23l41 -17q65 -29 92 -29q53 0 85 33q20 21 38 62zM1113 979q11 2 38 22.5t44 34.5
q32 25 47 53.5t23 65.5h-115l27 127h197l-38 -180q-12 -58 -86 -119l-53.5 -39.5t-42.5 -25.5q39 -76 45 -176.5t-16 -204.5q-49 -228 -203 -385q-175 -181 -416 -181q-240 0 -337 179q-88 157 -39 387q49 231 201 387q173 178 415 178q213 0 309 -123zM372 537
q-32 -152 3 -258q50 -152 222 -152q170 0 283 149q83 109 115 261q32 151 -2 258q-50 151 -222 151q-170 0 -284 -149q-83 -109 -115 -260z" />
    <glyph glyph-name="uni1EE3" unicode="&#x1ee3;" horiz-adv-x="1179" 
d="M588 -344h-180l43 205h180zM1113 979q11 2 38 22.5t44 34.5q32 25 47 53.5t23 65.5h-115l27 127h197l-38 -180q-12 -58 -86 -119l-53.5 -39.5t-42.5 -25.5q39 -76 45 -176.5t-16 -204.5q-49 -228 -203 -385q-175 -181 -416 -181q-240 0 -337 179q-88 157 -39 387
q49 231 201 387q173 178 415 178q213 0 309 -123zM372 537q-32 -152 3 -258q50 -152 222 -152q170 0 283 149q83 109 115 261q32 151 -2 258q-50 151 -222 151q-170 0 -284 -149q-83 -109 -115 -260z" />
    <glyph glyph-name="ygrave" unicode="&#x1ef3;" horiz-adv-x="1085" 
d="M1030 1073h201l-298.5 -522l-310.5 -531q-198 -325 -272.5 -391.5t-246.5 -66.5q-16 0 -27 2q-28 10 -44 14l35 164q16 -6 43.5 -13.5t58.5 -7.5q67 0 104.5 39t141.5 211l-163 1102h205l96 -872zM779 1217l-210 286h226l119 -286h-135z" />
    <glyph glyph-name="glyph234" unicode="&#xfd;" horiz-adv-x="1085" 
d="M1030 1073h201l-298.5 -522l-310.5 -531q-198 -325 -272.5 -391.5t-246.5 -66.5q-16 0 -27 2q-28 10 -44 14l35 164q16 -6 43.5 -13.5t58.5 -7.5q67 0 104.5 39t141.5 211l-163 1102h205l96 -872zM698 1217l242 286h225l-331 -286h-136z" />
    <glyph glyph-name="uni1EF7" unicode="&#x1ef7;" horiz-adv-x="1085" 
d="M1030 1073h201l-298.5 -522l-310.5 -531q-198 -325 -272.5 -391.5t-246.5 -66.5q-16 0 -27 2q-28 10 -44 14l35 164q16 -6 43.5 -13.5t58.5 -7.5q67 0 104.5 39t141.5 211l-163 1102h205l96 -872zM847 1178h-121q15 71 38 107t91.5 78t79.5 93q11 49 -11 70.5t-57 21.5
q-55 0 -83 -30.5t-38 -75.5l-132 -2q23 110 107 168q73 49 161 49q78 0 130 -31q87 -51 63 -166q-11 -53 -44.5 -90t-101.5 -80q-38 -22 -55 -43.5t-27 -68.5z" />
    <glyph glyph-name="uni1EF9" unicode="&#x1ef9;" horiz-adv-x="1085" 
d="M1030 1073h201l-298.5 -522l-310.5 -531q-198 -325 -272.5 -391.5t-246.5 -66.5q-16 0 -27 2q-28 10 -44 14l35 164q16 -6 43.5 -13.5t58.5 -7.5q67 0 104.5 39t141.5 211l-163 1102h205l96 -872zM1130 1479h102q-32 -95 -101 -158.5t-151 -63.5q-24 0 -49 5.5t-69 19.5
l-48 21q-25 8 -59.5 18t-57.5 10q-39 0 -66.5 -23.5t-51.5 -66.5h-98q33 98 98 159.5t162 61.5q34 0 65.5 -9t67.5 -23l41 -17q66 -29 92 -29q54 0 85 33q20 21 38 62z" />
    <glyph glyph-name="uni1EF5" unicode="&#x1ef5;" horiz-adv-x="1085" 
d="M1030 1073h201l-298.5 -522l-310.5 -531q-198 -325 -272.5 -391.5t-246.5 -66.5q-16 0 -27 2q-28 10 -44 14l35 164q16 -6 43.5 -13.5t58.5 -7.5q67 0 104.5 39t141.5 211l-163 1102h205l96 -872zM832 -324h-181l43 205h181z" />
    <glyph glyph-name="divide" unicode="&#xf7;" horiz-adv-x="1706" 
 />
    <glyph glyph-name="ugrave" horiz-adv-x="582" 
 />
    <glyph glyph-name="uacute" horiz-adv-x="580" 
 />
    <glyph glyph-name="yacute" horiz-adv-x="629" 
 />
    <glyph glyph-name="Ccaron" unicode="&#x10c;" horiz-adv-x="1274" 
 />
    <glyph glyph-name="ccaron" unicode="&#x10d;" horiz-adv-x="922" 
 />
    <glyph glyph-name="Dslash" unicode="&#x110;" horiz-adv-x="1568" 
d="M936 844l-37 -176h-393l-105 -496h385q197 0 343 148.5t204 424.5q58 273 -27 415.5t-292 142.5h-373l-98 -459h393zM203 668l37 176h106l133 626h594q285 0 410.5 -195.5t57.5 -516.5q-27 -129 -82 -252q-97 -213 -240 -338q-195 -168 -466 -168h-586l142 668h-106z" />
    <glyph glyph-name="dcroat" unicode="&#x111;" 
d="M1278 1200l-255 -1200h-172l31 147q-76 -98 -175 -143q-80 -37 -170 -37q-248 0 -330 203q-64 160 -13 399q50 234 199.5 383.5t359.5 149.5q127 0 202 -66q38 -32 80 -114l6 12l55 258h-258l33 156h258l26 122h180l-27 -127h82l-30 -143h-82zM372 541
q-39 -185 11.5 -299.5t191.5 -114.5q111 0 204 72q122 94 163 288q40 185 17 291q-35 164 -207 164q-182 0 -284 -149q-62 -93 -96 -252z" />
    <glyph glyph-name="quoteleft" unicode="&#x2018;" horiz-adv-x="487" 
d="M599 1180l-46 -217h-213l43 200q27 131 90.5 213t190.5 111l-20 -98q-73 -11 -112 -84q-28 -48 -44 -125h111z" />
    <glyph glyph-name="quoteright" unicode="&#x2019;" horiz-adv-x="487" 
d="M376 1253l47 217h213l-43 -200q-27 -127 -89 -205q-69 -88 -192 -115l20 94q70 11 110 84q24 46 40 125h-106z" />
    <glyph glyph-name="quotedblleft" unicode="&#x201c;" horiz-adv-x="737" 
d="M881 1180l-46 -217h-213l43 200q27 131 90.5 213t190.5 111l-20 -98q-73 -11 -112 -84q-28 -48 -44 -125h111zM541 1180l-46 -217h-213l43 200q27 129 92.5 212t188.5 112l-20 -98q-71 -11 -110 -84q-25 -45 -42 -125h107z" />
    <glyph glyph-name="quotedblright" unicode="&#x201d;" horiz-adv-x="737" 
d="M319 1253l47 217h213l-43 -200q-27 -129 -87 -205q-69 -88 -194 -115l20 94q72 11 112 84q27 48 43 125h-111zM659 1253l47 217h213l-43 -200q-27 -127 -89 -205q-69 -88 -192 -115l20 94q70 11 110 84q24 46 40 125h-106z" />
    <glyph glyph-name="ellipsis" unicode="&#x2026;" horiz-adv-x="1245" 
d="M416 209l-44 -209h-188l44 209h188zM748 209l-44 -209h-188l44 209h188zM1080 209l-44 -209h-188l44 209h188z" />
    </font>
</defs>
</svg>
